<?xml version="1.0" encoding="utf-8"?>
<svg xmlns="http://www.w3.org/2000/svg" xmlns:xlink="http://www.w3.org/1999/xlink" width="600" height="400" viewBox="0 0 2400 1600">
<defs>
  <clipPath id="clip530">
    <rect x="0" y="0" width="2400" height="1600"/>
  </clipPath>
</defs>
<path clip-path="url(#clip530)" d="M0 1600 L2400 1600 L2400 0 L0 0  Z" fill="#ffffff" fill-rule="evenodd" fill-opacity="1"/>
<defs>
  <clipPath id="clip531">
    <rect x="219" y="123" width="2134" height="1301"/>
  </clipPath>
</defs>
<path clip-path="url(#clip530)" d="M219.033 1423.18 L2352.76 1423.18 L2352.76 183.952 L219.033 183.952  Z" fill="#ffffff" fill-rule="evenodd" fill-opacity="1"/>
<defs>
  <clipPath id="clip532">
    <rect x="219" y="183" width="2135" height="1240"/>
  </clipPath>
</defs>
<polyline clip-path="url(#clip532)" style="stroke:#000000; stroke-linecap:round; stroke-linejoin:round; stroke-width:2; stroke-opacity:0.1; fill:none" points="219.033,1423.18 219.033,183.952 "/>
<polyline clip-path="url(#clip532)" style="stroke:#000000; stroke-linecap:round; stroke-linejoin:round; stroke-width:2; stroke-opacity:0.1; fill:none" points="645.778,1423.18 645.778,183.952 "/>
<polyline clip-path="url(#clip532)" style="stroke:#000000; stroke-linecap:round; stroke-linejoin:round; stroke-width:2; stroke-opacity:0.1; fill:none" points="1072.52,1423.18 1072.52,183.952 "/>
<polyline clip-path="url(#clip532)" style="stroke:#000000; stroke-linecap:round; stroke-linejoin:round; stroke-width:2; stroke-opacity:0.1; fill:none" points="1499.27,1423.18 1499.27,183.952 "/>
<polyline clip-path="url(#clip532)" style="stroke:#000000; stroke-linecap:round; stroke-linejoin:round; stroke-width:2; stroke-opacity:0.1; fill:none" points="1926.01,1423.18 1926.01,183.952 "/>
<polyline clip-path="url(#clip532)" style="stroke:#000000; stroke-linecap:round; stroke-linejoin:round; stroke-width:2; stroke-opacity:0.1; fill:none" points="2352.76,1423.18 2352.76,183.952 "/>
<polyline clip-path="url(#clip532)" style="stroke:#000000; stroke-linecap:round; stroke-linejoin:round; stroke-width:2; stroke-opacity:0.1; fill:none" points="219.033,1334.66 2352.76,1334.66 "/>
<polyline clip-path="url(#clip532)" style="stroke:#000000; stroke-linecap:round; stroke-linejoin:round; stroke-width:2; stroke-opacity:0.1; fill:none" points="219.033,1113.37 2352.76,1113.37 "/>
<polyline clip-path="url(#clip532)" style="stroke:#000000; stroke-linecap:round; stroke-linejoin:round; stroke-width:2; stroke-opacity:0.1; fill:none" points="219.033,892.082 2352.76,892.082 "/>
<polyline clip-path="url(#clip532)" style="stroke:#000000; stroke-linecap:round; stroke-linejoin:round; stroke-width:2; stroke-opacity:0.1; fill:none" points="219.033,670.792 2352.76,670.792 "/>
<polyline clip-path="url(#clip532)" style="stroke:#000000; stroke-linecap:round; stroke-linejoin:round; stroke-width:2; stroke-opacity:0.1; fill:none" points="219.033,449.501 2352.76,449.501 "/>
<polyline clip-path="url(#clip532)" style="stroke:#000000; stroke-linecap:round; stroke-linejoin:round; stroke-width:2; stroke-opacity:0.1; fill:none" points="219.033,228.21 2352.76,228.21 "/>
<polyline clip-path="url(#clip530)" style="stroke:#000000; stroke-linecap:round; stroke-linejoin:round; stroke-width:4; stroke-opacity:1; fill:none" points="219.033,1423.18 2352.76,1423.18 "/>
<polyline clip-path="url(#clip530)" style="stroke:#000000; stroke-linecap:round; stroke-linejoin:round; stroke-width:4; stroke-opacity:1; fill:none" points="219.033,1423.18 219.033,1404.28 "/>
<polyline clip-path="url(#clip530)" style="stroke:#000000; stroke-linecap:round; stroke-linejoin:round; stroke-width:4; stroke-opacity:1; fill:none" points="645.778,1423.18 645.778,1404.28 "/>
<polyline clip-path="url(#clip530)" style="stroke:#000000; stroke-linecap:round; stroke-linejoin:round; stroke-width:4; stroke-opacity:1; fill:none" points="1072.52,1423.18 1072.52,1404.28 "/>
<polyline clip-path="url(#clip530)" style="stroke:#000000; stroke-linecap:round; stroke-linejoin:round; stroke-width:4; stroke-opacity:1; fill:none" points="1499.27,1423.18 1499.27,1404.28 "/>
<polyline clip-path="url(#clip530)" style="stroke:#000000; stroke-linecap:round; stroke-linejoin:round; stroke-width:4; stroke-opacity:1; fill:none" points="1926.01,1423.18 1926.01,1404.28 "/>
<polyline clip-path="url(#clip530)" style="stroke:#000000; stroke-linecap:round; stroke-linejoin:round; stroke-width:4; stroke-opacity:1; fill:none" points="2352.76,1423.18 2352.76,1404.28 "/>
<path clip-path="url(#clip530)" d="M219.033 1454.1 Q215.422 1454.1 213.593 1457.66 Q211.788 1461.2 211.788 1468.33 Q211.788 1475.44 213.593 1479.01 Q215.422 1482.55 219.033 1482.55 Q222.667 1482.55 224.473 1479.01 Q226.301 1475.44 226.301 1468.33 Q226.301 1461.2 224.473 1457.66 Q222.667 1454.1 219.033 1454.1 M219.033 1450.39 Q224.843 1450.39 227.899 1455 Q230.977 1459.58 230.977 1468.33 Q230.977 1477.06 227.899 1481.67 Q224.843 1486.25 219.033 1486.25 Q213.223 1486.25 210.144 1481.67 Q207.089 1477.06 207.089 1468.33 Q207.089 1459.58 210.144 1455 Q213.223 1450.39 219.033 1450.39 Z" fill="#000000" fill-rule="nonzero" fill-opacity="1" /><path clip-path="url(#clip530)" d="M636.16 1481.64 L643.798 1481.64 L643.798 1455.28 L635.488 1456.95 L635.488 1452.69 L643.752 1451.02 L648.428 1451.02 L648.428 1481.64 L656.067 1481.64 L656.067 1485.58 L636.16 1485.58 L636.16 1481.64 Z" fill="#000000" fill-rule="nonzero" fill-opacity="1" /><path clip-path="url(#clip530)" d="M1067.17 1481.64 L1083.49 1481.64 L1083.49 1485.58 L1061.55 1485.58 L1061.55 1481.64 Q1064.21 1478.89 1068.8 1474.26 Q1073.4 1469.61 1074.58 1468.27 Q1076.83 1465.74 1077.71 1464.01 Q1078.61 1462.25 1078.61 1460.56 Q1078.61 1457.8 1076.67 1456.07 Q1074.74 1454.33 1071.64 1454.33 Q1069.44 1454.33 1066.99 1455.09 Q1064.56 1455.86 1061.78 1457.41 L1061.78 1452.69 Q1064.61 1451.55 1067.06 1450.97 Q1069.51 1450.39 1071.55 1450.39 Q1076.92 1450.39 1080.11 1453.08 Q1083.31 1455.77 1083.31 1460.26 Q1083.31 1462.39 1082.5 1464.31 Q1081.71 1466.2 1079.61 1468.8 Q1079.03 1469.47 1075.92 1472.69 Q1072.82 1475.88 1067.17 1481.64 Z" fill="#000000" fill-rule="nonzero" fill-opacity="1" /><path clip-path="url(#clip530)" d="M1503.51 1466.95 Q1506.87 1467.66 1508.75 1469.93 Q1510.64 1472.2 1510.64 1475.53 Q1510.64 1480.65 1507.13 1483.45 Q1503.61 1486.25 1497.13 1486.25 Q1494.95 1486.25 1492.63 1485.81 Q1490.34 1485.39 1487.89 1484.54 L1487.89 1480.02 Q1489.83 1481.16 1492.15 1481.74 Q1494.46 1482.32 1496.99 1482.32 Q1501.38 1482.32 1503.68 1480.58 Q1505.99 1478.84 1505.99 1475.53 Q1505.99 1472.48 1503.84 1470.77 Q1501.71 1469.03 1497.89 1469.03 L1493.86 1469.03 L1493.86 1465.19 L1498.07 1465.19 Q1501.52 1465.19 1503.35 1463.82 Q1505.18 1462.43 1505.18 1459.84 Q1505.18 1457.18 1503.28 1455.77 Q1501.41 1454.33 1497.89 1454.33 Q1495.97 1454.33 1493.77 1454.75 Q1491.57 1455.16 1488.93 1456.04 L1488.93 1451.88 Q1491.59 1451.14 1493.91 1450.77 Q1496.25 1450.39 1498.31 1450.39 Q1503.63 1450.39 1506.73 1452.83 Q1509.83 1455.23 1509.83 1459.35 Q1509.83 1462.22 1508.19 1464.21 Q1506.55 1466.18 1503.51 1466.95 Z" fill="#000000" fill-rule="nonzero" fill-opacity="1" /><path clip-path="url(#clip530)" d="M1929.02 1455.09 L1917.22 1473.54 L1929.02 1473.54 L1929.02 1455.09 M1927.79 1451.02 L1933.67 1451.02 L1933.67 1473.54 L1938.6 1473.54 L1938.6 1477.43 L1933.67 1477.43 L1933.67 1485.58 L1929.02 1485.58 L1929.02 1477.43 L1913.42 1477.43 L1913.42 1472.92 L1927.79 1451.02 Z" fill="#000000" fill-rule="nonzero" fill-opacity="1" /><path clip-path="url(#clip530)" d="M2343.03 1451.02 L2361.39 1451.02 L2361.39 1454.96 L2347.32 1454.96 L2347.32 1463.43 Q2348.33 1463.08 2349.35 1462.92 Q2350.37 1462.73 2351.39 1462.73 Q2357.18 1462.73 2360.56 1465.9 Q2363.94 1469.08 2363.94 1474.49 Q2363.94 1480.07 2360.46 1483.17 Q2356.99 1486.25 2350.67 1486.25 Q2348.5 1486.25 2346.23 1485.88 Q2343.98 1485.51 2341.58 1484.77 L2341.58 1480.07 Q2343.66 1481.2 2345.88 1481.76 Q2348.1 1482.32 2350.58 1482.32 Q2354.58 1482.32 2356.92 1480.21 Q2359.26 1478.1 2359.26 1474.49 Q2359.26 1470.88 2356.92 1468.77 Q2354.58 1466.67 2350.58 1466.67 Q2348.71 1466.67 2346.83 1467.08 Q2344.98 1467.5 2343.03 1468.38 L2343.03 1451.02 Z" fill="#000000" fill-rule="nonzero" fill-opacity="1" /><path clip-path="url(#clip530)" d="M1270.57 1561.55 Q1271.71 1563.08 1275.15 1563.08 L1277.99 1563.08 L1277.99 1568.04 L1274.45 1568.04 Q1268.72 1568.04 1266.11 1564.99 Q1263.5 1561.87 1263.5 1555.12 L1263.5 1538.25 L1250.14 1538.25 L1250.14 1532.4 L1283.01 1532.4 L1283.01 1538.25 L1269.49 1538.25 L1269.49 1555.47 Q1269.49 1560.09 1270.57 1561.55 Z" fill="#000000" fill-rule="nonzero" fill-opacity="1" /><path clip-path="url(#clip530)" d="M1294.28 1562.63 L1304.78 1562.63 L1304.78 1526.38 L1293.36 1528.67 L1293.36 1522.82 L1304.72 1520.52 L1311.15 1520.52 L1311.15 1562.63 L1321.65 1562.63 L1321.65 1568.04 L1294.28 1568.04 L1294.28 1562.63 Z" fill="#000000" fill-rule="nonzero" fill-opacity="1" /><polyline clip-path="url(#clip530)" style="stroke:#000000; stroke-linecap:round; stroke-linejoin:round; stroke-width:4; stroke-opacity:1; fill:none" points="219.033,1423.18 219.033,183.952 "/>
<polyline clip-path="url(#clip530)" style="stroke:#000000; stroke-linecap:round; stroke-linejoin:round; stroke-width:4; stroke-opacity:1; fill:none" points="219.033,1334.66 237.931,1334.66 "/>
<polyline clip-path="url(#clip530)" style="stroke:#000000; stroke-linecap:round; stroke-linejoin:round; stroke-width:4; stroke-opacity:1; fill:none" points="219.033,1113.37 237.931,1113.37 "/>
<polyline clip-path="url(#clip530)" style="stroke:#000000; stroke-linecap:round; stroke-linejoin:round; stroke-width:4; stroke-opacity:1; fill:none" points="219.033,892.082 237.931,892.082 "/>
<polyline clip-path="url(#clip530)" style="stroke:#000000; stroke-linecap:round; stroke-linejoin:round; stroke-width:4; stroke-opacity:1; fill:none" points="219.033,670.792 237.931,670.792 "/>
<polyline clip-path="url(#clip530)" style="stroke:#000000; stroke-linecap:round; stroke-linejoin:round; stroke-width:4; stroke-opacity:1; fill:none" points="219.033,449.501 237.931,449.501 "/>
<polyline clip-path="url(#clip530)" style="stroke:#000000; stroke-linecap:round; stroke-linejoin:round; stroke-width:4; stroke-opacity:1; fill:none" points="219.033,228.21 237.931,228.21 "/>
<path clip-path="url(#clip530)" d="M116.668 1348.01 L124.306 1348.01 L124.306 1321.64 L115.996 1323.31 L115.996 1319.05 L124.26 1317.38 L128.936 1317.38 L128.936 1348.01 L136.575 1348.01 L136.575 1351.94 L116.668 1351.94 L116.668 1348.01 Z" fill="#000000" fill-rule="nonzero" fill-opacity="1" /><path clip-path="url(#clip530)" d="M146.019 1346.06 L150.903 1346.06 L150.903 1351.94 L146.019 1351.94 L146.019 1346.06 Z" fill="#000000" fill-rule="nonzero" fill-opacity="1" /><path clip-path="url(#clip530)" d="M171.089 1320.46 Q167.477 1320.46 165.649 1324.03 Q163.843 1327.57 163.843 1334.7 Q163.843 1341.8 165.649 1345.37 Q167.477 1348.91 171.089 1348.91 Q174.723 1348.91 176.528 1345.37 Q178.357 1341.8 178.357 1334.7 Q178.357 1327.57 176.528 1324.03 Q174.723 1320.46 171.089 1320.46 M171.089 1316.76 Q176.899 1316.76 179.954 1321.37 Q183.033 1325.95 183.033 1334.7 Q183.033 1343.43 179.954 1348.03 Q176.899 1352.61 171.089 1352.61 Q165.278 1352.61 162.2 1348.03 Q159.144 1343.43 159.144 1334.7 Q159.144 1325.95 162.2 1321.37 Q165.278 1316.76 171.089 1316.76 Z" fill="#000000" fill-rule="nonzero" fill-opacity="1" /><path clip-path="url(#clip530)" d="M117.663 1126.72 L125.302 1126.72 L125.302 1100.35 L116.992 1102.02 L116.992 1097.76 L125.255 1096.09 L129.931 1096.09 L129.931 1126.72 L137.57 1126.72 L137.57 1130.65 L117.663 1130.65 L117.663 1126.72 Z" fill="#000000" fill-rule="nonzero" fill-opacity="1" /><path clip-path="url(#clip530)" d="M147.015 1124.77 L151.899 1124.77 L151.899 1130.65 L147.015 1130.65 L147.015 1124.77 Z" fill="#000000" fill-rule="nonzero" fill-opacity="1" /><path clip-path="url(#clip530)" d="M162.13 1096.09 L180.487 1096.09 L180.487 1100.03 L166.413 1100.03 L166.413 1108.5 Q167.431 1108.15 168.45 1107.99 Q169.468 1107.81 170.487 1107.81 Q176.274 1107.81 179.653 1110.98 Q183.033 1114.15 183.033 1119.57 Q183.033 1125.14 179.561 1128.25 Q176.089 1131.32 169.769 1131.32 Q167.593 1131.32 165.325 1130.95 Q163.079 1130.58 160.672 1129.84 L160.672 1125.14 Q162.755 1126.28 164.977 1126.83 Q167.2 1127.39 169.677 1127.39 Q173.681 1127.39 176.019 1125.28 Q178.357 1123.18 178.357 1119.57 Q178.357 1115.95 176.019 1113.85 Q173.681 1111.74 169.677 1111.74 Q167.802 1111.74 165.927 1112.16 Q164.075 1112.57 162.13 1113.45 L162.13 1096.09 Z" fill="#000000" fill-rule="nonzero" fill-opacity="1" /><path clip-path="url(#clip530)" d="M119.885 905.427 L136.204 905.427 L136.204 909.362 L114.26 909.362 L114.26 905.427 Q116.922 902.672 121.505 898.043 Q126.112 893.39 127.292 892.048 Q129.538 889.524 130.417 887.788 Q131.32 886.029 131.32 884.339 Q131.32 881.585 129.376 879.849 Q127.455 878.112 124.353 878.112 Q122.154 878.112 119.7 878.876 Q117.269 879.64 114.492 881.191 L114.492 876.469 Q117.316 875.335 119.769 874.756 Q122.223 874.177 124.26 874.177 Q129.63 874.177 132.825 876.862 Q136.019 879.548 136.019 884.038 Q136.019 886.168 135.209 888.089 Q134.422 889.987 132.316 892.58 Q131.737 893.251 128.635 896.469 Q125.533 899.663 119.885 905.427 Z" fill="#000000" fill-rule="nonzero" fill-opacity="1" /><path clip-path="url(#clip530)" d="M146.019 903.483 L150.903 903.483 L150.903 909.362 L146.019 909.362 L146.019 903.483 Z" fill="#000000" fill-rule="nonzero" fill-opacity="1" /><path clip-path="url(#clip530)" d="M171.089 877.881 Q167.477 877.881 165.649 881.446 Q163.843 884.987 163.843 892.117 Q163.843 899.223 165.649 902.788 Q167.477 906.33 171.089 906.33 Q174.723 906.33 176.528 902.788 Q178.357 899.223 178.357 892.117 Q178.357 884.987 176.528 881.446 Q174.723 877.881 171.089 877.881 M171.089 874.177 Q176.899 874.177 179.954 878.784 Q183.033 883.367 183.033 892.117 Q183.033 900.844 179.954 905.45 Q176.899 910.034 171.089 910.034 Q165.278 910.034 162.2 905.45 Q159.144 900.844 159.144 892.117 Q159.144 883.367 162.2 878.784 Q165.278 874.177 171.089 874.177 Z" fill="#000000" fill-rule="nonzero" fill-opacity="1" /><path clip-path="url(#clip530)" d="M120.88 684.136 L137.2 684.136 L137.2 688.072 L115.256 688.072 L115.256 684.136 Q117.918 681.382 122.501 676.752 Q127.107 672.099 128.288 670.757 Q130.533 668.234 131.413 666.498 Q132.316 664.738 132.316 663.049 Q132.316 660.294 130.371 658.558 Q128.45 656.822 125.348 656.822 Q123.149 656.822 120.695 657.586 Q118.265 658.35 115.487 659.9 L115.487 655.178 Q118.311 654.044 120.765 653.465 Q123.218 652.887 125.255 652.887 Q130.626 652.887 133.82 655.572 Q137.015 658.257 137.015 662.748 Q137.015 664.877 136.204 666.799 Q135.417 668.697 133.311 671.289 Q132.732 671.961 129.63 675.178 Q126.529 678.373 120.88 684.136 Z" fill="#000000" fill-rule="nonzero" fill-opacity="1" /><path clip-path="url(#clip530)" d="M147.015 682.192 L151.899 682.192 L151.899 688.072 L147.015 688.072 L147.015 682.192 Z" fill="#000000" fill-rule="nonzero" fill-opacity="1" /><path clip-path="url(#clip530)" d="M162.13 653.512 L180.487 653.512 L180.487 657.447 L166.413 657.447 L166.413 665.919 Q167.431 665.572 168.45 665.41 Q169.468 665.224 170.487 665.224 Q176.274 665.224 179.653 668.396 Q183.033 671.567 183.033 676.984 Q183.033 682.562 179.561 685.664 Q176.089 688.743 169.769 688.743 Q167.593 688.743 165.325 688.373 Q163.079 688.002 160.672 687.261 L160.672 682.562 Q162.755 683.697 164.977 684.252 Q167.2 684.808 169.677 684.808 Q173.681 684.808 176.019 682.701 Q178.357 680.595 178.357 676.984 Q178.357 673.373 176.019 671.266 Q173.681 669.16 169.677 669.16 Q167.802 669.16 165.927 669.576 Q164.075 669.993 162.13 670.873 L162.13 653.512 Z" fill="#000000" fill-rule="nonzero" fill-opacity="1" /><path clip-path="url(#clip530)" d="M130.024 448.147 Q133.38 448.864 135.255 451.133 Q137.154 453.401 137.154 456.735 Q137.154 461.85 133.635 464.651 Q130.117 467.452 123.635 467.452 Q121.459 467.452 119.144 467.012 Q116.853 466.596 114.399 465.739 L114.399 461.225 Q116.343 462.36 118.658 462.938 Q120.973 463.517 123.496 463.517 Q127.894 463.517 130.186 461.781 Q132.501 460.045 132.501 456.735 Q132.501 453.679 130.348 451.966 Q128.218 450.23 124.399 450.23 L120.371 450.23 L120.371 446.388 L124.584 446.388 Q128.033 446.388 129.862 445.022 Q131.691 443.633 131.691 441.04 Q131.691 438.378 129.792 436.966 Q127.917 435.531 124.399 435.531 Q122.478 435.531 120.279 435.948 Q118.08 436.364 115.441 437.244 L115.441 433.077 Q118.103 432.337 120.418 431.966 Q122.755 431.596 124.816 431.596 Q130.14 431.596 133.242 434.026 Q136.343 436.434 136.343 440.554 Q136.343 443.425 134.7 445.415 Q133.056 447.383 130.024 448.147 Z" fill="#000000" fill-rule="nonzero" fill-opacity="1" /><path clip-path="url(#clip530)" d="M146.019 460.901 L150.903 460.901 L150.903 466.781 L146.019 466.781 L146.019 460.901 Z" fill="#000000" fill-rule="nonzero" fill-opacity="1" /><path clip-path="url(#clip530)" d="M171.089 435.3 Q167.477 435.3 165.649 438.864 Q163.843 442.406 163.843 449.536 Q163.843 456.642 165.649 460.207 Q167.477 463.749 171.089 463.749 Q174.723 463.749 176.528 460.207 Q178.357 456.642 178.357 449.536 Q178.357 442.406 176.528 438.864 Q174.723 435.3 171.089 435.3 M171.089 431.596 Q176.899 431.596 179.954 436.202 Q183.033 440.786 183.033 449.536 Q183.033 458.262 179.954 462.869 Q176.899 467.452 171.089 467.452 Q165.278 467.452 162.2 462.869 Q159.144 458.262 159.144 449.536 Q159.144 440.786 162.2 436.202 Q165.278 431.596 171.089 431.596 Z" fill="#000000" fill-rule="nonzero" fill-opacity="1" /><path clip-path="url(#clip530)" d="M131.019 226.856 Q134.376 227.574 136.251 229.842 Q138.149 232.111 138.149 235.444 Q138.149 240.56 134.63 243.361 Q131.112 246.162 124.63 246.162 Q122.455 246.162 120.14 245.722 Q117.848 245.305 115.394 244.449 L115.394 239.935 Q117.339 241.069 119.654 241.648 Q121.968 242.226 124.492 242.226 Q128.89 242.226 131.181 240.49 Q133.496 238.754 133.496 235.444 Q133.496 232.388 131.343 230.676 Q129.214 228.939 125.394 228.939 L121.367 228.939 L121.367 225.097 L125.58 225.097 Q129.029 225.097 130.857 223.731 Q132.686 222.342 132.686 219.75 Q132.686 217.088 130.788 215.676 Q128.913 214.24 125.394 214.24 Q123.473 214.24 121.274 214.657 Q119.075 215.074 116.436 215.953 L116.436 211.787 Q119.098 211.046 121.413 210.676 Q123.751 210.305 125.811 210.305 Q131.135 210.305 134.237 212.736 Q137.339 215.143 137.339 219.264 Q137.339 222.134 135.695 224.125 Q134.052 226.092 131.019 226.856 Z" fill="#000000" fill-rule="nonzero" fill-opacity="1" /><path clip-path="url(#clip530)" d="M147.015 239.611 L151.899 239.611 L151.899 245.49 L147.015 245.49 L147.015 239.611 Z" fill="#000000" fill-rule="nonzero" fill-opacity="1" /><path clip-path="url(#clip530)" d="M162.13 210.93 L180.487 210.93 L180.487 214.865 L166.413 214.865 L166.413 223.338 Q167.431 222.99 168.45 222.828 Q169.468 222.643 170.487 222.643 Q176.274 222.643 179.653 225.814 Q183.033 228.986 183.033 234.402 Q183.033 239.981 179.561 243.083 Q176.089 246.162 169.769 246.162 Q167.593 246.162 165.325 245.791 Q163.079 245.421 160.672 244.68 L160.672 239.981 Q162.755 241.115 164.977 241.671 Q167.2 242.226 169.677 242.226 Q173.681 242.226 176.019 240.12 Q178.357 238.013 178.357 234.402 Q178.357 230.791 176.019 228.685 Q173.681 226.578 169.677 226.578 Q167.802 226.578 165.927 226.995 Q164.075 227.412 162.13 228.291 L162.13 210.93 Z" fill="#000000" fill-rule="nonzero" fill-opacity="1" /><path clip-path="url(#clip530)" d="M58.3387 781.143 L64.0042 781.143 L64.0042 800.24 L58.3387 800.24 Q55.2513 794.606 49.9678 791.455 Q44.6842 788.304 38.2549 788.304 Q30.616 788.304 26.0009 792.506 Q21.3858 796.707 21.3858 803.582 Q21.3858 810.457 26.0327 814.69 Q30.6479 818.891 38.2549 818.891 Q44.6842 818.891 49.9678 815.74 Q55.2513 812.558 58.3387 806.892 L64.0042 806.892 L64.0042 825.989 L58.3387 825.989 L58.3387 815.836 Q53.9145 820.865 49.1721 823.188 Q44.4296 825.48 38.5732 825.48 Q28.4517 825.48 22.1815 819.369 Q15.9112 813.29 15.9112 803.582 Q15.9112 793.938 22.1815 787.795 Q28.4199 781.684 38.2549 781.684 Q44.4296 781.684 49.1402 783.944 Q53.8509 786.204 58.3387 791.328 L58.3387 781.143 Z" fill="#000000" fill-rule="nonzero" fill-opacity="1" /><path clip-path="url(#clip530)" d="M797.598 39.9885 L797.598 62.7141 L807.888 62.7141 Q813.599 62.7141 816.719 59.7569 Q819.838 56.7998 819.838 51.331 Q819.838 45.9028 816.719 42.9457 Q813.599 39.9885 807.888 39.9885 L797.598 39.9885 M789.416 33.264 L807.888 33.264 Q818.055 33.264 823.241 37.882 Q828.466 42.4596 828.466 51.331 Q828.466 60.2835 823.241 64.8611 Q818.055 69.4386 807.888 69.4386 L797.598 69.4386 L797.598 93.744 L789.416 93.744 L789.416 33.264 Z" fill="#000000" fill-rule="nonzero" fill-opacity="1" /><path clip-path="url(#clip530)" d="M839.12 30.7119 L846.574 30.7119 L846.574 93.744 L839.12 93.744 L839.12 30.7119 Z" fill="#000000" fill-rule="nonzero" fill-opacity="1" /><path clip-path="url(#clip530)" d="M879.751 53.5995 Q873.755 53.5995 870.272 58.2986 Q866.788 62.9571 866.788 71.0994 Q866.788 79.2418 870.231 83.9408 Q873.715 88.5994 879.751 88.5994 Q885.706 88.5994 889.189 83.9003 Q892.673 79.2013 892.673 71.0994 Q892.673 63.0381 889.189 58.3391 Q885.706 53.5995 879.751 53.5995 M879.751 47.2801 Q889.473 47.2801 895.023 53.5995 Q900.572 59.9189 900.572 71.0994 Q900.572 82.2394 895.023 88.5994 Q889.473 94.9188 879.751 94.9188 Q869.988 94.9188 864.438 88.5994 Q858.929 82.2394 858.929 71.0994 Q858.929 59.9189 864.438 53.5995 Q869.988 47.2801 879.751 47.2801 Z" fill="#000000" fill-rule="nonzero" fill-opacity="1" /><path clip-path="url(#clip530)" d="M920.3 35.492 L920.3 48.3739 L935.653 48.3739 L935.653 54.1667 L920.3 54.1667 L920.3 78.7962 Q920.3 84.3459 921.799 85.9258 Q923.338 87.5056 927.997 87.5056 L935.653 87.5056 L935.653 93.744 L927.997 93.744 Q919.369 93.744 916.087 90.5438 Q912.806 87.3031 912.806 78.7962 L912.806 54.1667 L907.337 54.1667 L907.337 48.3739 L912.806 48.3739 L912.806 35.492 L920.3 35.492 Z" fill="#000000" fill-rule="nonzero" fill-opacity="1" /><path clip-path="url(#clip530)" d="M994.796 30.7119 L994.796 36.9098 L987.667 36.9098 Q983.656 36.9098 982.077 38.5302 Q980.537 40.1505 980.537 44.3635 L980.537 48.3739 L992.812 48.3739 L992.812 54.1667 L980.537 54.1667 L980.537 93.744 L973.043 93.744 L973.043 54.1667 L965.913 54.1667 L965.913 48.3739 L973.043 48.3739 L973.043 45.2142 Q973.043 37.639 976.567 34.1957 Q980.092 30.7119 987.748 30.7119 L994.796 30.7119 Z" fill="#000000" fill-rule="nonzero" fill-opacity="1" /><path clip-path="url(#clip530)" d="M1018.62 53.5995 Q1012.62 53.5995 1009.14 58.2986 Q1005.65 62.9571 1005.65 71.0994 Q1005.65 79.2418 1009.1 83.9408 Q1012.58 88.5994 1018.62 88.5994 Q1024.57 88.5994 1028.05 83.9003 Q1031.54 79.2013 1031.54 71.0994 Q1031.54 63.0381 1028.05 58.3391 Q1024.57 53.5995 1018.62 53.5995 M1018.62 47.2801 Q1028.34 47.2801 1033.89 53.5995 Q1039.44 59.9189 1039.44 71.0994 Q1039.44 82.2394 1033.89 88.5994 Q1028.34 94.9188 1018.62 94.9188 Q1008.85 94.9188 1003.3 88.5994 Q997.794 82.2394 997.794 71.0994 Q997.794 59.9189 1003.3 53.5995 Q1008.85 47.2801 1018.62 47.2801 Z" fill="#000000" fill-rule="nonzero" fill-opacity="1" /><path clip-path="url(#clip530)" d="M1078.08 55.3414 Q1076.83 54.6123 1075.33 54.2882 Q1073.87 53.9236 1072.09 53.9236 Q1065.77 53.9236 1062.37 58.0555 Q1059 62.1469 1059 69.8437 L1059 93.744 L1051.51 93.744 L1051.51 48.3739 L1059 48.3739 L1059 55.4224 Q1061.35 51.2905 1065.12 49.3056 Q1068.89 47.2801 1074.28 47.2801 Q1075.04 47.2801 1075.98 47.4017 Q1076.91 47.4827 1078.04 47.6852 L1078.08 55.3414 Z" fill="#000000" fill-rule="nonzero" fill-opacity="1" /><path clip-path="url(#clip530)" d="M1127.99 94.7567 Q1118.63 93.2579 1114.3 89.3285 Q1108.99 84.5079 1108.99 74.6642 L1108.99 48.3739 L1116.53 48.3739 L1116.53 74.3807 Q1116.53 81.7938 1119.97 84.8725 Q1122.97 87.5461 1127.99 88.1132 L1127.99 48.3739 L1135.4 48.3739 L1135.4 88.0727 Q1140.71 87.5056 1143.42 84.832 Q1146.87 81.4293 1146.87 74.3402 L1146.87 48.3739 L1154.4 48.3739 L1154.4 74.6237 Q1154.4 84.832 1149.1 89.288 Q1144.32 93.2984 1135.4 94.7162 L1135.4 111.001 L1127.99 111.001 L1127.99 94.7567 Z" fill="#000000" fill-rule="nonzero" fill-opacity="1" /><path clip-path="url(#clip530)" d="M1194.34 56.0706 L1246.28 56.0706 L1246.28 62.8761 L1194.34 62.8761 L1194.34 56.0706 M1194.34 72.5983 L1246.28 72.5983 L1246.28 79.4848 L1194.34 79.4848 L1194.34 72.5983 Z" fill="#000000" fill-rule="nonzero" fill-opacity="1" /><path clip-path="url(#clip530)" d="M1307.81 38.6517 Q1301.49 38.6517 1298.29 44.8901 Q1295.13 51.088 1295.13 63.5648 Q1295.13 76.001 1298.29 82.2394 Q1301.49 88.4373 1307.81 88.4373 Q1314.17 88.4373 1317.33 82.2394 Q1320.53 76.001 1320.53 63.5648 Q1320.53 51.088 1317.33 44.8901 Q1314.17 38.6517 1307.81 38.6517 M1307.81 32.1703 Q1317.98 32.1703 1323.32 40.2316 Q1328.71 48.2523 1328.71 63.5648 Q1328.71 78.8367 1323.32 86.898 Q1317.98 94.9188 1307.81 94.9188 Q1297.64 94.9188 1292.25 86.898 Q1286.91 78.8367 1286.91 63.5648 Q1286.91 48.2523 1292.25 40.2316 Q1297.64 32.1703 1307.81 32.1703 Z" fill="#000000" fill-rule="nonzero" fill-opacity="1" /><path clip-path="url(#clip530)" d="M1343.09 83.4547 L1351.64 83.4547 L1351.64 93.744 L1343.09 93.744 L1343.09 83.4547 Z" fill="#000000" fill-rule="nonzero" fill-opacity="1" /><path clip-path="url(#clip530)" d="M1386.96 38.6517 Q1380.65 38.6517 1377.44 44.8901 Q1374.29 51.088 1374.29 63.5648 Q1374.29 76.001 1377.44 82.2394 Q1380.65 88.4373 1386.96 88.4373 Q1393.32 88.4373 1396.48 82.2394 Q1399.68 76.001 1399.68 63.5648 Q1399.68 51.088 1396.48 44.8901 Q1393.32 38.6517 1386.96 38.6517 M1386.96 32.1703 Q1397.13 32.1703 1402.48 40.2316 Q1407.87 48.2523 1407.87 63.5648 Q1407.87 78.8367 1402.48 86.898 Q1397.13 94.9188 1386.96 94.9188 Q1376.8 94.9188 1371.41 86.898 Q1366.06 78.8367 1366.06 63.5648 Q1366.06 48.2523 1371.41 40.2316 Q1376.8 32.1703 1386.96 32.1703 Z" fill="#000000" fill-rule="nonzero" fill-opacity="1" /><path clip-path="url(#clip530)" d="M1423.1 83.4547 L1431.65 83.4547 L1431.65 90.4223 L1425 103.385 L1419.78 103.385 L1423.1 90.4223 L1423.1 83.4547 Z" fill="#000000" fill-rule="nonzero" fill-opacity="1" /><path clip-path="url(#clip530)" d="M1474.26 33.264 L1485.28 33.264 L1512.1 83.8598 L1512.1 33.264 L1520.04 33.264 L1520.04 93.744 L1509.02 93.744 L1482.2 43.1482 L1482.2 93.744 L1474.26 93.744 L1474.26 33.264 Z" fill="#000000" fill-rule="nonzero" fill-opacity="1" /><path clip-path="url(#clip530)" d="M1563.34 56.0706 L1615.27 56.0706 L1615.27 62.8761 L1563.34 62.8761 L1563.34 56.0706 M1563.34 72.5983 L1615.27 72.5983 L1615.27 79.4848 L1563.34 79.4848 L1563.34 72.5983 Z" fill="#000000" fill-rule="nonzero" fill-opacity="1" /><path clip-path="url(#clip530)" d="M1660.72 86.8575 L1674.09 86.8575 L1674.09 40.7177 L1659.55 43.6343 L1659.55 36.1807 L1674.01 33.264 L1682.19 33.264 L1682.19 86.8575 L1695.56 86.8575 L1695.56 93.744 L1660.72 93.744 L1660.72 86.8575 Z" fill="#000000" fill-rule="nonzero" fill-opacity="1" /><path clip-path="url(#clip530)" d="M1713.51 86.8575 L1726.88 86.8575 L1726.88 40.7177 L1712.33 43.6343 L1712.33 36.1807 L1726.79 33.264 L1734.98 33.264 L1734.98 86.8575 L1748.35 86.8575 L1748.35 93.744 L1713.51 93.744 L1713.51 86.8575 Z" fill="#000000" fill-rule="nonzero" fill-opacity="1" /><path clip-path="url(#clip530)" d="M874.12 139.094 L881.574 139.094 L890.891 174.499 L900.167 139.094 L908.958 139.094 L918.275 174.499 L927.551 139.094 L935.005 139.094 L923.136 184.464 L914.345 184.464 L904.583 147.277 L894.78 184.464 L885.989 184.464 L874.12 139.094 Z" fill="#000000" fill-rule="nonzero" fill-opacity="1" /><path clip-path="url(#clip530)" d="M946.307 139.094 L953.761 139.094 L953.761 184.464 L946.307 184.464 L946.307 139.094 M946.307 121.432 L953.761 121.432 L953.761 130.871 L946.307 130.871 L946.307 121.432 Z" fill="#000000" fill-rule="nonzero" fill-opacity="1" /><path clip-path="url(#clip530)" d="M976.729 126.212 L976.729 139.094 L992.082 139.094 L992.082 144.887 L976.729 144.887 L976.729 169.516 Q976.729 175.066 978.228 176.646 Q979.768 178.226 984.426 178.226 L992.082 178.226 L992.082 184.464 L984.426 184.464 Q975.798 184.464 972.516 181.264 Q969.235 178.023 969.235 169.516 L969.235 144.887 L963.767 144.887 L963.767 139.094 L969.235 139.094 L969.235 126.212 L976.729 126.212 Z" fill="#000000" fill-rule="nonzero" fill-opacity="1" /><path clip-path="url(#clip530)" d="M1039.6 157.08 L1039.6 184.464 L1032.15 184.464 L1032.15 157.323 Q1032.15 150.882 1029.63 147.682 Q1027.12 144.482 1022.1 144.482 Q1016.06 144.482 1012.58 148.33 Q1009.1 152.178 1009.1 158.822 L1009.1 184.464 L1001.6 184.464 L1001.6 121.432 L1009.1 121.432 L1009.1 146.142 Q1011.77 142.051 1015.38 140.026 Q1019.02 138 1023.76 138 Q1031.58 138 1035.59 142.861 Q1039.6 147.682 1039.6 157.08 Z" fill="#000000" fill-rule="nonzero" fill-opacity="1" /><path clip-path="url(#clip530)" d="M1103.08 176.2 Q1104.54 178.145 1108.91 178.145 L1112.52 178.145 L1112.52 184.464 L1108.02 184.464 Q1100.73 184.464 1097.41 180.575 Q1094.08 176.605 1094.08 168.017 L1094.08 146.548 L1077.07 146.548 L1077.07 139.094 L1118.92 139.094 L1118.92 146.548 L1101.7 146.548 L1101.7 168.463 Q1101.7 174.337 1103.08 176.2 Z" fill="#000000" fill-rule="nonzero" fill-opacity="1" /><path clip-path="url(#clip530)" d="M1149.34 129.372 Q1143.02 129.372 1139.82 135.61 Q1136.66 141.808 1136.66 154.285 Q1136.66 166.721 1139.82 172.959 Q1143.02 179.157 1149.34 179.157 Q1155.7 179.157 1158.86 172.959 Q1162.06 166.721 1162.06 154.285 Q1162.06 141.808 1158.86 135.61 Q1155.7 129.372 1149.34 129.372 M1149.34 122.89 Q1159.51 122.89 1164.85 130.952 Q1170.24 138.972 1170.24 154.285 Q1170.24 169.557 1164.85 177.618 Q1159.51 185.639 1149.34 185.639 Q1139.17 185.639 1133.78 177.618 Q1128.44 169.557 1128.44 154.285 Q1128.44 138.972 1133.78 130.952 Q1139.17 122.89 1149.34 122.89 Z" fill="#000000" fill-rule="nonzero" fill-opacity="1" /><path clip-path="url(#clip530)" d="M1210.91 146.791 L1262.84 146.791 L1262.84 153.596 L1210.91 153.596 L1210.91 146.791 M1210.91 163.318 L1262.84 163.318 L1262.84 170.205 L1210.91 170.205 L1210.91 163.318 Z" fill="#000000" fill-rule="nonzero" fill-opacity="1" /><path clip-path="url(#clip530)" d="M1324.38 129.372 Q1318.06 129.372 1314.86 135.61 Q1311.7 141.808 1311.7 154.285 Q1311.7 166.721 1314.86 172.959 Q1318.06 179.157 1324.38 179.157 Q1330.74 179.157 1333.9 172.959 Q1337.1 166.721 1337.1 154.285 Q1337.1 141.808 1333.9 135.61 Q1330.74 129.372 1324.38 129.372 M1324.38 122.89 Q1334.55 122.89 1339.89 130.952 Q1345.28 138.972 1345.28 154.285 Q1345.28 169.557 1339.89 177.618 Q1334.55 185.639 1324.38 185.639 Q1314.21 185.639 1308.82 177.618 Q1303.48 169.557 1303.48 154.285 Q1303.48 138.972 1308.82 130.952 Q1314.21 122.89 1324.38 122.89 Z" fill="#000000" fill-rule="nonzero" fill-opacity="1" /><path clip-path="url(#clip530)" d="M1359.66 174.175 L1368.21 174.175 L1368.21 184.464 L1359.66 184.464 L1359.66 174.175 Z" fill="#000000" fill-rule="nonzero" fill-opacity="1" /><path clip-path="url(#clip530)" d="M1393.08 177.577 L1421.64 177.577 L1421.64 184.464 L1383.24 184.464 L1383.24 177.577 Q1387.9 172.757 1395.92 164.655 Q1403.98 156.513 1406.04 154.163 Q1409.97 149.748 1411.51 146.71 Q1413.09 143.631 1413.09 140.674 Q1413.09 135.853 1409.69 132.815 Q1406.33 129.777 1400.9 129.777 Q1397.05 129.777 1392.76 131.114 Q1388.5 132.45 1383.64 135.164 L1383.64 126.901 Q1388.58 124.916 1392.88 123.903 Q1397.17 122.89 1400.74 122.89 Q1410.14 122.89 1415.73 127.589 Q1421.32 132.288 1421.32 140.147 Q1421.32 143.874 1419.9 147.236 Q1418.52 150.558 1414.83 155.095 Q1413.82 156.27 1408.39 161.9 Q1402.97 167.491 1393.08 177.577 Z" fill="#000000" fill-rule="nonzero" fill-opacity="1" /><path clip-path="url(#clip530)" d="M1439.67 174.175 L1448.21 174.175 L1448.21 181.142 L1441.57 194.105 L1436.35 194.105 L1439.67 181.142 L1439.67 174.175 Z" fill="#000000" fill-rule="nonzero" fill-opacity="1" /><path clip-path="url(#clip530)" d="M1522.55 146.304 Q1521.05 145.778 1519.55 145.373 Q1515.54 144.32 1511.25 144.32 Q1503.83 144.32 1499.7 148.33 Q1495.85 152.057 1495.12 158.903 L1522.55 158.903 L1522.55 164.736 L1495.12 164.736 Q1495.85 171.582 1499.7 175.309 Q1503.83 179.319 1511.25 179.319 Q1516.43 179.319 1519.55 178.266 L1522.55 177.253 L1522.55 184.018 L1519.35 184.748 Q1515.14 185.639 1510.8 185.639 Q1499.94 185.639 1493.62 179.319 Q1487.26 173 1487.26 161.819 Q1487.26 150.639 1493.62 144.32 Q1499.94 138 1510.8 138 Q1514.89 138 1519.35 138.891 Q1520.97 139.215 1522.55 139.702 L1522.55 146.304 Z" fill="#000000" fill-rule="nonzero" fill-opacity="1" /><path clip-path="url(#clip530)" d="M1542.52 146.791 L1594.45 146.791 L1594.45 153.596 L1542.52 153.596 L1542.52 146.791 M1542.52 163.318 L1594.45 163.318 L1594.45 170.205 L1542.52 170.205 L1542.52 163.318 Z" fill="#000000" fill-rule="nonzero" fill-opacity="1" /><path clip-path="url(#clip530)" d="M1629.61 129.372 Q1623.29 129.372 1620.09 135.61 Q1616.93 141.808 1616.93 154.285 Q1616.93 166.721 1620.09 172.959 Q1623.29 179.157 1629.61 179.157 Q1635.97 179.157 1639.13 172.959 Q1642.33 166.721 1642.33 154.285 Q1642.33 141.808 1639.13 135.61 Q1635.97 129.372 1629.61 129.372 M1629.61 122.89 Q1639.78 122.89 1645.13 130.952 Q1650.52 138.972 1650.52 154.285 Q1650.52 169.557 1645.13 177.618 Q1639.78 185.639 1629.61 185.639 Q1619.45 185.639 1614.06 177.618 Q1608.71 169.557 1608.71 154.285 Q1608.71 138.972 1614.06 130.952 Q1619.45 122.89 1629.61 122.89 Z" fill="#000000" fill-rule="nonzero" fill-opacity="1" /><path clip-path="url(#clip530)" d="M1664.9 174.175 L1673.44 174.175 L1673.44 184.464 L1664.9 184.464 L1664.9 174.175 Z" fill="#000000" fill-rule="nonzero" fill-opacity="1" /><path clip-path="url(#clip530)" d="M1692.69 177.577 L1706.05 177.577 L1706.05 131.438 L1691.51 134.354 L1691.51 126.901 L1705.97 123.984 L1714.16 123.984 L1714.16 177.577 L1727.52 177.577 L1727.52 184.464 L1692.69 184.464 L1692.69 177.577 Z" fill="#000000" fill-rule="nonzero" fill-opacity="1" /><polyline clip-path="url(#clip532)" style="stroke:#ff0000; stroke-linecap:round; stroke-linejoin:round; stroke-width:4; stroke-opacity:1; fill:none" points="219.033,907.787 223.3,909.343 225.159,909.786 227.568,910.357 231.835,910.916 236.103,911.098 240.37,910.962 244.638,910.548 248.905,909.886 249.389,909.786 253.173,908.999 257.44,907.909 261.707,906.632 265.463,905.36 265.975,905.186 270.242,903.585 274.51,901.844 276.592,900.934 278.777,899.975 283.045,897.988 286.061,896.508 287.312,895.892 291.58,893.694 294.578,892.082 295.847,891.398 300.114,889.008 302.443,887.656 304.382,886.526 308.649,883.954 309.813,883.231 312.917,881.291 316.77,878.805 317.184,878.537 321.452,875.688 323.353,874.379 325.719,872.743 329.631,869.953 329.987,869.698 334.254,866.551 335.602,865.527 338.521,863.3 341.322,861.102 342.789,859.945 346.827,856.676 347.056,856.489 351.324,852.94 352.138,852.25 355.591,849.312 357.315,847.824 359.859,845.623 362.411,843.398 364.126,841.9 367.481,838.972 368.394,838.176 372.591,834.547 372.661,834.486 376.928,830.872 377.842,830.121 381.196,827.373 383.332,825.695 385.463,824.029 389.192,821.269 389.731,820.873 393.998,817.936 395.719,816.843 398.266,815.24 402.533,812.794 403.261,812.418 406.801,810.607 411.068,808.673 412.782,807.992 415.335,806.988 419.603,805.527 423.87,804.254 426.467,803.566 428.138,803.126 432.405,802.108 436.673,801.182 440.94,800.345 445.208,799.599 448.179,799.14 449.475,798.941 453.742,798.369 458.01,797.862 462.277,797.383 466.545,796.887 470.812,796.366 475.08,795.834 479.347,795.294 483.615,794.74 483.804,794.714 487.882,794.172 492.149,793.598 496.417,793.029 500.684,792.477 504.952,791.951 509.219,791.454 513.487,790.979 517.754,790.503 519.526,790.289 522.022,789.986 526.289,789.402 530.556,788.764 534.824,788.104 539.091,787.443 543.359,786.785 547.626,786.118 549.195,785.863 551.894,785.422 556.161,784.672 560.429,783.847 564.696,782.931 568.964,781.917 570.826,781.437 573.231,780.811 577.498,779.629 581.766,778.396 586.033,777.144 586.492,777.011 590.301,775.91 594.568,774.732 598.836,773.643 603.103,772.669 603.522,772.585 607.371,771.825 611.638,771.105 615.905,770.494 620.173,769.989 624.44,769.6 628.708,769.349 632.975,769.247 637.243,769.291 641.51,769.468 645.778,769.757 650.045,770.123 654.312,770.528 658.58,770.934 662.847,771.316 667.115,771.665 671.382,771.985 675.65,772.286 679.917,772.582 679.968,772.585 684.185,772.883 688.452,773.194 692.719,773.5 696.987,773.785 701.254,774.066 705.522,774.384 709.789,774.768 714.057,775.232 718.324,775.775 722.592,776.395 726.392,777.011 726.859,777.086 731.126,777.843 735.394,778.654 739.661,779.511 743.929,780.404 748.196,781.325 748.705,781.437 752.464,782.263 756.731,783.203 760.999,784.127 765.266,785.014 769.533,785.837 769.686,785.863 773.801,786.559 778.068,787.153 782.336,787.591 786.603,787.849 790.871,787.902 795.138,787.727 799.406,787.298 803.673,786.582 806.646,785.863 807.94,785.53 812.208,784.052 816.475,782.05 817.503,781.437 820.743,779.323 823.653,777.011 825.01,775.859 828.514,772.585 829.278,771.851 833.026,768.159 833.545,767.651 837.683,763.734 837.813,763.615 842.08,760.018 843.031,759.308 846.347,756.989 849.966,754.882 850.615,754.531 854.882,752.649 859.15,751.232 862.4,750.456 863.417,750.229 867.685,749.579 871.952,749.189 876.22,748.984 880.487,748.898 884.755,748.887 889.022,748.927 893.289,749.006 897.557,749.118 901.824,749.253 906.092,749.399 910.359,749.527 914.627,749.591 918.894,749.547 923.162,749.391 927.429,749.136 931.696,748.775 935.964,748.293 940.231,747.678 944.499,746.927 948.766,746.056 948.881,746.03 953.034,745.089 957.301,744.076 961.569,743.057 965.836,742.072 967.992,741.605 970.103,741.155 974.371,740.323 978.638,739.571 982.906,738.878 987.173,738.223 991.441,737.607 994.751,737.179 995.708,737.058 999.976,736.609 1004.24,736.27 1008.51,736.04 1012.78,735.908 1017.05,735.864 1021.31,735.889 1025.58,735.961 1029.85,736.058 1034.12,736.159 1038.38,736.256 1042.65,736.354 1046.92,736.47 1051.18,736.625 1055.45,736.835 1059.72,737.114 1060.49,737.179 1063.99,737.47 1068.25,737.897 1072.52,738.376 1076.79,738.881 1081.06,739.386 1085.32,739.875 1089.59,740.353 1093.86,740.824 1098.13,741.285 1101.32,741.605 1102.39,741.713 1106.66,742.078 1110.93,742.368 1115.2,742.578 1119.46,742.71 1123.73,742.771 1128,742.768 1132.27,742.7 1136.53,742.551 1140.8,742.287 1145.07,741.905 1147.96,741.605 1149.34,741.459 1153.6,741.012 1157.87,740.594 1162.14,740.224 1166.41,739.914 1170.67,739.676 1174.94,739.521 1179.21,739.456 1183.48,739.487 1187.74,739.618 1192.01,739.848 1196.28,740.177 1200.55,740.603 1204.81,741.121 1208.19,741.605 1209.08,741.732 1213.35,742.445 1217.62,743.245 1221.88,744.126 1226.15,745.085 1230.05,746.03 1230.42,746.121 1234.69,747.26 1238.95,748.469 1243.22,749.741 1245.48,750.456 1247.49,751.094 1251.75,752.531 1256.02,754.017 1258.39,754.882 1260.29,755.574 1264.56,757.207 1268.82,758.874 1269.88,759.308 1273.09,760.624 1277.36,762.416 1280.43,763.734 1281.63,764.247 1285.89,766.15 1290.16,768.059 1290.38,768.159 1294.43,770.055 1298.7,772.051 1299.81,772.585 1302.96,774.109 1307.23,776.179 1308.92,777.011 1311.5,778.29 1315.77,780.421 1317.78,781.437 1320.03,782.58 1324.3,784.759 1326.45,785.863 1328.57,786.959 1332.84,789.176 1334.96,790.289 1337.1,791.41 1341.37,793.656 1343.37,794.714 1345.64,795.917 1349.91,798.184 1351.7,799.14 1354.17,800.466 1358.44,802.746 1359.97,803.566 1362.71,805.043 1366.98,807.33 1368.2,807.992 1371.24,809.636 1375.51,811.926 1376.42,812.418 1379.78,814.234 1384.05,816.524 1384.64,816.843 1388.31,818.829 1392.58,821.115 1392.87,821.269 1396.85,823.413 1401.12,825.691 1401.12,825.695 1405.38,827.976 1409.42,830.121 1409.65,830.245 1413.92,832.513 1417.76,834.547 1418.19,834.769 1422.45,837.016 1426.18,838.972 1426.72,839.257 1430.99,841.481 1434.67,843.398 1435.26,843.702 1439.52,845.9 1443.25,847.824 1443.79,848.099 1448.06,850.269 1451.94,852.25 1452.32,852.444 1456.59,854.582 1460.75,856.676 1460.86,856.732 1465.13,858.833 1469.39,860.951 1469.7,861.102 1473.66,863.016 1477.93,865.095 1478.83,865.527 1482.2,867.127 1486.46,869.161 1488.13,869.953 1490.73,871.162 1495,873.145 1497.65,874.379 1499.27,875.116 1503.53,877.041 1507.39,878.805 1507.8,878.986 1512.07,880.849 1516.34,882.739 1517.46,883.231 1520.6,884.565 1524.87,886.382 1527.86,887.656 1529.14,888.189 1533.41,889.926 1537.67,891.687 1538.65,892.082 1541.94,893.367 1546.21,895.031 1549.96,896.508 1550.48,896.703 1554.74,898.257 1559.01,899.822 1562.06,900.934 1563.28,901.36 1567.55,902.774 1571.81,904.182 1575.41,905.36 1576.08,905.566 1580.35,906.74 1584.62,907.857 1588.88,908.903 1592.97,909.786 1593.15,909.821 1597.42,910.421 1601.69,910.835 1605.95,911.008 1610.22,910.882 1614.49,910.39 1617.33,909.786 1618.76,909.373 1623.02,907.535 1626.53,905.36 1627.29,904.703 1630.8,900.934 1631.56,899.796 1633.45,896.508 1635.24,892.082 1635.82,890.021 1636.44,887.656 1637.2,883.231 1637.61,878.805 1637.72,874.379 1637.58,869.953 1637.21,865.527 1636.65,861.102 1635.92,856.676 1635.82,856.181 1635.06,852.25 1634.13,847.824 1633.18,843.398 1632.25,838.972 1631.56,835.253 1631.42,834.547 1630.79,830.121 1630.45,825.695 1630.55,821.269 1631.32,816.843 1631.56,816.182 1633.24,812.418 1635.82,809.21 1637.12,807.992 1640.09,806.026 1644.36,803.916 1645.23,803.566 1648.63,802.372 1652.89,801.098 1657.16,800.024 1661.39,799.14 1661.43,799.132 1665.7,798.432 1669.96,797.83 1674.23,797.261 1678.5,796.672 1682.77,796.053 1687.03,795.417 1691.3,794.762 1691.6,794.714 1695.57,794.082 1699.84,793.399 1704.1,792.732 1708.37,792.101 1712.64,791.512 1716.91,790.956 1721.17,790.397 1721.93,790.289 1725.44,789.757 1729.71,789.014 1733.98,788.214 1738.24,787.402 1742.51,786.589 1746.23,785.863 1746.78,785.751 1751.05,784.816 1755.31,783.734 1759.58,782.459 1762.52,781.437 1763.85,780.931 1768.12,779.145 1772.38,777.248 1772.92,777.011 1776.65,775.42 1780.92,773.798 1784.72,772.585 1785.19,772.456 1789.45,771.462 1793.72,770.676 1797.99,770.066 1802.26,769.629 1806.52,769.369 1810.79,769.279 1815.06,769.336 1819.33,769.513 1823.59,769.776 1827.86,770.096 1832.13,770.446 1836.39,770.805 1840.66,771.157 1844.93,771.489 1849.2,771.799 1853.46,772.089 1857.73,772.365 1861.16,772.585 1862,772.639 1866.27,772.92 1870.53,773.206 1874.8,773.484 1879.07,773.749 1883.34,774.018 1887.6,774.313 1891.87,774.649 1896.14,775.035 1900.41,775.473 1904.67,775.96 1908.94,776.491 1912.82,777.011 1913.21,777.064 1917.48,777.695 1921.74,778.351 1926.01,779.029 1930.28,779.725 1934.55,780.437 1938.81,781.163 1940.39,781.437 1943.08,781.905 1947.35,782.648 1951.62,783.383 1955.88,784.106 1960.15,784.815 1964.42,785.505 1966.77,785.863 1968.69,786.145 1972.95,786.696 1977.22,787.165 1981.49,787.531 1985.76,787.764 1990.02,787.821 1994.29,787.642 1998.56,787.138 2002.83,786.166 2003.69,785.863 2007.09,783.744 2009.17,781.437 2010.08,777.011 2009.71,772.585 2009.05,768.159 2008.58,763.734 2008.83,759.308 2010.71,754.882 2011.36,754.225 2015.63,751.398 2018.18,750.456 2019.9,750.045 2024.16,749.425 2028.43,749.1 2032.7,748.949 2036.96,748.902 2041.23,748.918 2045.5,748.978 2049.77,749.071 2054.03,749.188 2058.3,749.319 2062.57,749.445 2066.84,749.539 2071.1,749.56 2075.37,749.468 2079.64,749.251 2083.91,748.904 2088.17,748.402 2092.44,747.708 2096.71,746.794 2099.63,746.03 2100.98,745.636 2105.24,744.288 2109.51,742.917 2113.78,741.616 2113.82,741.605 2118.05,740.528 2122.31,739.581 2126.58,738.735 2130.85,737.96 2135.12,737.263 2135.73,737.179 2139.38,736.726 2143.65,736.338 2147.92,736.082 2152.19,735.938 2156.45,735.885 2160.72,735.9 2164.99,735.962 2169.26,736.05 2173.52,736.147 2177.79,736.245 2182.06,736.344 2186.33,736.457 2190.59,736.598 2194.86,736.783 2199.13,737.019 2201.42,737.179 2203.4,737.32 2207.66,737.688 2211.93,738.098 2216.2,738.53 2220.47,738.967 2224.73,739.406 2229,739.843 2233.27,740.271 2237.53,740.69 2241.8,741.103 2246.07,741.508 2247.19,741.605 2250.34,741.868 2254.6,742.17 2258.87,742.412 2263.14,742.59 2267.41,742.704 2271.67,742.754 2275.94,742.739 2280.21,742.653 2284.48,742.466 2288.74,742.145 2293.01,741.7 2293.83,741.605 2297.28,741.195 2301.55,740.72 2305.81,740.304 2310.08,739.965 2314.35,739.714 2318.62,739.557 2322.88,739.497 2327.15,739.534 2331.42,739.663 2335.69,739.878 2339.95,740.17 2344.22,740.533 2348.49,740.959 2352.76,741.44 "/>
<polyline clip-path="url(#clip532)" style="stroke:#008000; stroke-linecap:round; stroke-linejoin:round; stroke-width:8; stroke-opacity:0.5; fill:none" stroke-dasharray="32, 20" points="304.382,886.526 304.752,886.307 305.233,886.02 305.858,885.647 306.669,885.159 307.722,884.521 309.086,883.686 310.854,882.59 313.143,881.148 316.101,879.245 319.04,877.31 321.959,875.343 324.859,873.344 327.738,871.315 330.597,869.254 333.435,867.163 336.252,865.042 339.048,862.892 341.824,860.713 344.58,858.507 347.317,856.275 350.036,854.021 352.738,851.745 355.427,849.452 358.105,847.145 360.773,844.827 363.437,842.502 366.099,840.176 368.764,837.853 371.436,835.539 374.12,833.24 376.82,830.962 379.543,828.712 382.292,826.497 385.074,824.326 387.893,822.206 390.754,820.148 393.66,818.16 396.617,816.251 399.625,814.432 402.687,812.71 405.802,811.094 408.97,809.591 412.187,808.207 415.451,806.945 418.754,805.8 422.091,804.764 425.452,803.821 428.832,802.953 432.226,802.148 435.632,801.399 439.049,800.705 442.475,800.066 445.911,799.484 449.356,798.958 452.807,798.487 456.265,798.063 459.725,797.669 463.186,797.28 466.645,796.876 470.102,796.454 473.559,796.025 477.015,795.591 480.47,795.149 483.923,794.699 487.376,794.239 490.828,793.775 494.281,793.312 497.734,792.856 501.189,792.413 504.646,791.988 508.105,791.581 511.565,791.192 515.027,790.809 518.488,790.418 521.945,789.996 525.397,789.53 528.844,789.025 532.288,788.497 535.731,787.963 539.174,787.43 542.617,786.9 546.06,786.365 549.501,785.817 552.938,785.244 556.369,784.634 559.792,783.976 563.205,783.263 566.606,782.49 569.994,781.659 573.369,780.774 576.733,779.846 580.089,778.885 583.44,777.905 586.789,776.923 590.143,775.955 593.505,775.017 596.879,774.128 600.268,773.301 603.674,772.549 607.094,771.875 610.529,771.279 613.974,770.756 617.427,770.299 620.889,769.912 624.358,769.604 627.834,769.386 631.315,769.267 634.797,769.246 638.279,769.32 641.757,769.48 645.232,769.713 648.702,770 652.17,770.322 655.636,770.655 659.103,770.983 662.571,771.293 666.041,771.581 669.513,771.848 672.985,772.099 676.458,772.342 679.932,772.583 683.405,772.827 686.877,773.078 690.35,773.332 693.823,773.576 697.297,773.806 700.771,774.033 704.244,774.281 707.714,774.569 711.181,774.908 714.642,775.299 718.097,775.742 721.545,776.235 724.988,776.774 728.424,777.356 731.853,777.976 735.277,778.629 738.695,779.312 742.109,780.018 745.519,780.744 748.926,781.485 752.332,782.234 755.737,782.985 759.143,783.729 762.553,784.457 765.968,785.156 769.392,785.811 772.826,786.406 776.271,786.925 779.729,787.35 783.199,787.667 786.677,787.86 790.16,787.917 793.643,787.825 797.119,787.571 800.579,787.14 804.013,786.517 807.407,785.686 810.742,784.624 813.992,783.303 817.124,781.695 820.102,779.797 822.918,777.654 825.597,775.338 828.182,772.915 830.715,770.438 833.238,767.95 835.786,765.49 838.392,763.095 841.085,760.803 843.886,758.653 846.809,756.68 849.858,754.919 853.023,753.394 856.29,752.117 859.636,751.09 863.041,750.3 866.485,749.726 869.95,749.337 873.426,749.094 876.906,748.959 880.388,748.896 883.869,748.882 887.35,748.904 890.831,748.955 894.312,749.029 897.792,749.124 901.271,749.235 904.75,749.354 908.23,749.47 911.71,749.56 915.191,749.596 918.673,749.556 922.153,749.441 925.63,749.26 929.103,749.013 932.572,748.694 936.032,748.292 939.482,747.803 942.919,747.225 946.343,746.566 949.753,745.84 953.153,745.063 956.547,744.257 959.938,743.443 963.332,742.642 966.733,741.871 970.144,741.145 973.564,740.471 976.993,739.849 980.43,739.271 983.871,738.725 987.315,738.2 990.763,737.7 994.216,737.239 997.675,736.835 1001.14,736.502 1004.61,736.241 1008.09,736.052 1011.57,735.931 1015.05,735.87 1018.53,735.862 1022.02,735.895 1025.5,735.958 1028.98,736.037 1032.46,736.121 1035.94,736.201 1039.42,736.279 1042.9,736.359 1046.38,736.452 1049.86,736.569 1053.33,736.721 1056.81,736.915 1060.28,737.156 1063.75,737.447 1067.22,737.785 1070.68,738.161 1074.14,738.565 1077.6,738.979 1081.06,739.388 1084.52,739.786 1087.98,740.174 1091.44,740.558 1094.9,740.94 1098.37,741.311 1101.83,741.66 1105.3,741.971 1108.77,742.236 1112.25,742.447 1115.72,742.604 1119.2,742.71 1122.69,742.768 1126.17,742.782 1129.65,742.754 1133.13,742.683 1136.61,742.554 1140.08,742.347 1143.55,742.055 1147.02,741.706 1150.48,741.337 1153.95,740.975 1157.41,740.633 1160.88,740.322 1164.35,740.049 1167.83,739.819 1171.3,739.639 1174.78,739.515 1178.26,739.451 1181.74,739.45 1185.23,739.516 1188.71,739.648 1192.18,739.847 1195.65,740.111 1199.12,740.439 1202.58,740.83 1206.04,741.282 1209.48,741.793 1212.92,742.361 1216.35,742.985 1219.77,743.663 1223.18,744.393 1226.58,745.175 1229.97,746.005 1233.34,746.883 1236.71,747.807 1240.06,748.775 1243.4,749.787 1246.73,750.84 1250.05,751.932 1253.36,753.062 1256.65,754.229 1259.94,755.43 1263.21,756.664 1266.47,757.93 1269.72,759.225 1272.96,760.548 1276.19,761.897 1279.41,763.272 1282.61,764.67 1285.82,766.09 1289.01,767.53 1292.19,768.99 1295.37,770.469 1298.54,771.964 1301.7,773.475 1304.85,775.001 1308,776.541 1311.14,778.093 1314.28,779.658 1317.41,781.233 1320.54,782.819 1323.66,784.414 1326.78,786.018 1329.9,787.63 1333.01,789.249 1336.12,790.875 1339.22,792.507 1342.32,794.144 1345.42,795.786 1348.52,797.433 1351.62,799.084 1354.71,800.738 1357.81,802.394 1360.9,804.054 1363.99,805.715 1367.08,807.377 1370.17,809.041 1373.26,810.706 1376.34,812.371 1379.43,814.036 1382.52,815.701 1385.61,817.365 1388.7,819.028 1391.79,820.69 1394.88,822.35 1397.97,824.009 1401.07,825.665 1404.16,827.319 1407.26,828.971 1410.35,830.619 1413.45,832.265 1416.55,833.906 1419.66,835.545 1422.76,837.179 1425.87,838.809 1428.97,840.435 1432.08,842.056 1435.2,843.673 1438.31,845.284 1441.43,846.89 1444.55,848.49 1447.67,850.085 1450.8,851.674 1453.93,853.256 1457.06,854.832 1460.19,856.401 1463.33,857.963 1466.48,859.517 1469.62,861.065 1472.77,862.604 1475.92,864.135 1479.08,865.657 1482.24,867.171 1485.4,868.676 1488.57,870.172 1491.74,871.658 1494.92,873.134 1498.1,874.6 1501.29,876.055 1504.48,877.5 1507.67,878.934 1510.87,880.357 1514.08,881.768 1517.29,883.167 1520.5,884.553 1523.72,885.927 1526.94,887.288 1530.17,888.636 1533.41,889.969 1536.65,891.288 1539.89,892.592 1543.15,893.88 1546.4,895.151 1549.67,896.405 1552.94,897.64 1556.22,898.854 1559.5,900.046 1562.8,901.215 1566.1,902.356 1569.41,903.467 1572.74,904.543 1576.07,905.578 1579.42,906.565 1582.78,907.494 1586.17,908.351 1589.57,909.125 1592.99,909.796 1596.43,910.349 1599.89,910.765 1603.37,911.023 1606.85,911.097 1610.34,910.955 1613.81,910.556 1617.23,909.847 1620.57,908.763 1623.76,907.241 1626.71,905.242 1629.31,902.781 1631.52,899.935 1633.33,896.807 1634.76,893.488 1635.86,890.044 1636.68,886.521 1637.24,882.949 1637.59,879.349 1637.73,875.736 1637.69,872.121 1637.5,868.512 1637.15,864.916 1636.69,861.336 1636.12,857.773 1635.46,854.226 1634.75,850.693 1633.99,847.168 1633.23,843.645 1632.48,840.119 1631.79,836.581 1631.18,833.026 1630.71,829.446 1630.44,825.84 1630.46,822.217 1630.89,818.61 1631.89,815.1 1633.55,811.845 1635.88,809.04 1638.7,806.792 1641.79,805.041 1645.02,803.635 1648.31,802.447 1651.65,801.414 1655.03,800.51 1658.43,799.727 1661.85,799.056 1665.29,798.483 1668.74,797.989 1672.19,797.537 1675.64,797.079 1679.09,796.592 1682.54,796.088 1685.99,795.577 1689.43,795.053 1692.87,794.514 1696.31,793.963 1699.75,793.409 1703.19,792.865 1706.64,792.343 1710.09,791.85 1713.54,791.387 1716.99,790.944 1720.45,790.496 1723.9,790.007 1727.34,789.447 1730.77,788.824 1734.19,788.172 1737.61,787.52 1741.04,786.871 1744.46,786.214 1747.88,785.527 1751.29,784.779 1754.67,783.94 1758.03,782.979 1761.35,781.878 1764.62,780.635 1767.85,779.277 1771.05,777.85 1774.24,776.42 1777.47,775.058 1780.74,773.825 1784.07,772.762 1787.45,771.876 1790.86,771.147 1794.3,770.546 1797.75,770.057 1801.21,769.679 1804.69,769.419 1808.17,769.277 1811.65,769.243 1815.13,769.304 1818.61,769.444 1822.09,769.647 1825.56,769.897 1829.03,770.179 1832.5,770.476 1835.97,770.776 1839.44,771.067 1842.91,771.344 1846.38,771.604 1849.86,771.849 1853.33,772.081 1856.8,772.306 1860.28,772.528 1863.75,772.753 1867.23,772.983 1870.7,773.216 1874.17,773.447 1877.65,773.667 1881.12,773.877 1884.6,774.091 1888.07,774.326 1891.54,774.594 1895.01,774.898 1898.48,775.24 1901.94,775.618 1905.4,776.029 1908.86,776.469 1912.31,776.937 1915.76,777.429 1919.2,777.942 1922.64,778.475 1926.09,779.024 1929.52,779.587 1932.96,780.162 1936.4,780.746 1939.83,781.337 1943.26,781.934 1946.7,782.533 1950.13,783.131 1953.56,783.725 1957,784.31 1960.43,784.881 1963.88,785.432 1967.32,785.956 1970.77,786.443 1974.22,786.884 1977.69,787.266 1981.16,787.577 1984.63,787.798 1988.11,787.91 1991.6,787.884 1995.08,787.683 1998.54,787.246 2001.95,786.479 2005.25,785.202 2008.18,783.029 2009.93,779.354 2010.04,775.386 2009.6,771.761 2009.04,768.195 2008.62,764.609 2008.58,760.977 2009.32,757.357 2011.33,754.109 2014.38,751.854 2017.75,750.532 2021.19,749.761 2024.66,749.315 2028.14,749.068 2031.62,748.942 2035.1,748.889 2038.58,748.884 2042.06,748.912 2045.54,748.967 2049.02,749.043 2052.5,749.138 2055.98,749.246 2059.46,749.361 2062.94,749.472 2066.42,749.56 2069.9,749.596 2073.38,749.557 2076.86,749.436 2080.34,749.239 2083.81,748.959 2087.28,748.578 2090.72,748.072 2094.15,747.419 2097.55,746.612 2100.91,745.664 2104.24,744.618 2107.56,743.532 2110.89,742.472 2114.24,741.486 2117.62,740.604 2121.02,739.827 2124.43,739.13 2127.86,738.483 2131.29,737.873 2134.73,737.318 2138.18,736.848 2141.65,736.477 2145.12,736.204 2148.6,736.019 2152.08,735.909 2155.56,735.863 2159.04,735.867 2162.52,735.91 2166,735.976 2169.48,736.055 2172.96,736.136 2176.44,736.214 2179.92,736.29 2183.4,736.369 2186.88,736.461 2190.36,736.576 2193.84,736.722 2197.32,736.904 2200.79,737.125 2204.27,737.385 2207.73,737.681 2211.2,738.007 2214.67,738.357 2218.13,738.721 2221.59,739.087 2225.06,739.448 2228.52,739.801 2231.99,740.146 2235.45,740.489 2238.92,740.831 2242.38,741.167 2245.85,741.491 2249.32,741.792 2252.79,742.062 2256.26,742.294 2259.74,742.481 2263.22,742.623 2266.7,742.719 2270.18,742.771 2273.66,742.781 2277.14,742.749 2280.62,742.67 2284.1,742.524 2287.58,742.28 2291.04,741.932 2294.5,741.524 2297.96,741.109 2301.42,740.717 2304.89,740.364 2308.36,740.06 2311.83,739.812 2315.31,739.625 2318.79,739.503 2322.27,739.447 2325.75,739.456 2329.23,739.529 2332.71,739.662 2336.18,739.852 2339.66,740.095 2343.13,740.387 2346.59,740.725 2350.06,741.106 2353.51,741.527 2356.97,741.985 2360.42,742.478 2363.86,743.004 2367.3,743.561 2370.73,744.146 2374.17,744.76 2377.59,745.399 2381.01,746.063 2384.43,746.751 2387.84,747.46 2391.25,748.191 2394.66,748.941 2398.06,749.711 2401.46,750.498 2404.85,751.303 2408.24,752.123 2411.63,752.959 2415.01,753.81 2418.39,754.674 2421.77,755.552 2425.14,756.441 2428.51,757.343 2431.88,758.255 2435.24,759.178 2438.61,760.111 2441.97,761.053 2445.33,762.004 2448.68,762.964 2452.04,763.931 2455.39,764.906 2458.74,765.888 2462.09,766.876 2465.43,767.87 2468.78,768.871 2472.12,769.876 2475.46,770.887 2478.8,771.903 2482.14,772.924 2485.48,773.948 2488.82,774.977 2492.15,776.009 2495.49,777.045 2498.82,778.084 2502.15,779.126 2505.49,780.171 2508.82,781.218 2512.15,782.268 2515.48,783.32 2518.81,784.374 2522.14,785.43 2525.46,786.488 2528.79,787.548 2532.12,788.608 2535.45,789.67 2538.77,790.734 2542.1,791.798 2545.43,792.863 2548.75,793.929 2552.08,794.995 2555.4,796.062 2558.73,797.13 2562.05,798.198 2565.38,799.266 2568.7,800.334 2572.03,801.402 2575.35,802.47 2578.68,803.538 2582.01,804.605 2585.33,805.672 2588.66,806.739 2591.98,807.806 2595.31,808.871 2598.63,809.937 2601.96,811.001 2605.29,812.065 2608.61,813.127 2611.94,814.189 2615.27,815.25 2618.6,816.31 2621.92,817.369 2625.25,818.427 2628.58,819.483 2631.91,820.538 2635.24,821.592 2638.57,822.645 2641.9,823.696 2645.23,824.746 2648.56,825.794 2651.89,826.841 2655.23,827.886 2658.56,828.93 2661.89,829.972 2665.22,831.012 2668.56,832.05 2671.89,833.087 2675.23,834.122 2678.56,835.155 2681.9,836.186 2685.24,837.215 2688.57,838.243 2691.91,839.268 2695.25,840.291 2698.59,841.312 2701.93,842.331 2705.27,843.348 2708.61,844.363 2711.95,845.375 2715.29,846.385 2718.64,847.393 2721.98,848.399 2725.32,849.402 2728.67,850.403 2732.01,851.401 2735.36,852.397 2738.71,853.391 2742.05,854.382 2745.4,855.37 2748.75,856.355 2752.1,857.338 2755.45,858.319 2758.8,859.296 2762.15,860.271 2765.5,861.243 2768.86,862.212 2772.21,863.178 2775.57,864.141 2778.92,865.101 2782.28,866.058 2785.64,867.012 2789,867.963 2792.35,868.91 2795.71,869.855 2799.07,870.796 2802.44,871.733 2805.8,872.668 2809.16,873.599 2812.53,874.526 2815.89,875.45 2819.26,876.371 2822.62,877.288 2825.99,878.201 2829.36,879.11 2832.73,880.016 2836.1,880.918 2839.47,881.816 2842.85,882.71 2846.22,883.6 2849.59,884.486 2852.97,885.368 2856.35,886.246 2859.72,887.12 2863.1,887.989 2866.48,888.854 2869.86,889.714 2873.25,890.569 2876.63,891.42 2880.01,892.266 2883.4,893.107 2886.78,893.942 2890.17,894.772 2893.56,895.597 2896.95,896.416 2900.34,897.229 2903.74,898.035 2907.13,898.835 2910.53,899.628 2913.93,900.413 2917.32,901.19 2920.73,901.959 2924.13,902.718 2927.53,903.466 2930.94,904.203 2934.35,904.927 2937.77,905.636 2941.18,906.328 2944.6,907 2948.03,907.648 2951.46,908.269 2954.89,908.856 2958.33,909.403 2961.78,909.901 2965.24,910.338 2968.7,910.699 2972.18,910.962 2975.66,911.093 2979.14,911.03 2982.62,910.64 2986,909.515 2987.42,908.193 2987.76,905.883 2987.05,903.946 2986.11,902.386 2985.04,900.953 2983.88,899.597 2982.67,898.298 2981.42,897.041 2980.14,895.819 2978.83,894.624 2977.51,893.453 2976.17,892.302 2974.81,891.168 2973.45,890.05 2972.07,888.945 2970.68,887.853 2969.29,886.771 2967.47,885.38 2965.64,884.005 2963.79,882.643 2961.94,881.294 2959.52,879.557 2957.09,877.837 2954.65,876.134 2952.2,874.445 2949.74,872.77 2947.28,871.107 2944.06,868.963 2940.83,866.836 2937.6,864.725 2934.35,862.627 2931.1,860.541 2927.84,858.466 2924.58,856.398 2921.31,854.337 2918.04,852.28 2914.77,850.224 2911.5,848.169 2908.23,846.111 2904.97,844.047 2901.71,841.976 2898.45,839.893 2895.21,837.796 2891.97,835.68 2888.75,833.541 2885.55,831.373 2882.37,829.168 2879.22,826.918 2876.11,824.61 2873.05,822.226 2870.07,819.74 2867.21,817.107 2864.54,814.248 2862.3,810.981 2861.57,806.646 2867.39,801.577 2871.19,800.103 2874.9,799.08 2878.66,798.313 2882.44,797.695 2886.22,797.1 2890,796.452 2893.77,795.774 2897.53,795.076 2901.29,794.343 2905.04,793.59 2908.8,792.851 2912.56,792.159 2916.34,791.531 2920.12,790.951 2923.91,790.363 2927.67,789.666 2931.41,788.814 2935.13,787.892 2938.85,786.975 2942.57,786.043 2946.26,785.01 2949.89,783.733 2953.36,782.006 2956.52,779.671 2959.37,776.978 2962.36,774.491 2965.81,772.619 2969.5,771.374 2973.25,770.517 2977.04,769.909 2980.85,769.511 2984.67,769.301 2988.5,769.242 2992.32,769.3 2996.14,769.445 2999.96,769.654 3003.78,769.91 3007.59,770.193 3011.41,770.491 3015.22,770.79 3019.03,771.081 3022.85,771.358 3026.66,771.62 3030.48,771.867 3034.3,772.103 3038.12,772.332 3041.93,772.56 3045.75,772.79 3049.57,773.025 3053.39,773.263 3057.2,773.496 3061.02,773.719 3064.84,773.934 3068.66,774.157 3072.47,774.404 3076.29,774.684 3080.1,774.998 3083.91,775.344 3087.72,775.72 3091.52,776.122 3095.32,776.548 3099.12,776.994 3102.92,777.46 3106.72,777.941 3110.51,778.436 3114.3,778.943 3118.09,779.46 3121.88,779.987 3125.67,780.52 3129.46,781.059 3133.25,781.602 3137.04,782.148 3140.82,782.694 3144.61,783.24 3148.4,783.782 3152.19,784.317 3155.98,784.842 3159.77,785.353 3163.57,785.845 3167.36,786.311 3171.17,786.744 3174.97,787.134 3178.78,787.467 3182.6,787.727 3186.42,787.886 3190.25,787.905 3194.07,787.704 3197.87,787.097 3201.46,785.212 3201.92,783.956 3201.72,782.816 3201.26,781.895 3200.7,781.081 3200.07,780.328 3199.4,779.616 3198.71,778.934 3197.99,778.274 3197.26,777.631 3196.52,777.001 3195.78,776.382 3195.02,775.772 3194.27,775.168 3193.27,774.392 3191.98,773.393 3190.28,772.105 3188.07,770.441 3185.2,768.273 3182.36,766.077 3179.55,763.823 3176.82,761.469 3174.23,758.94 3171.98,756.046 3171.23,754.306 3171.48,752.179 3173.48,750.573 3175.27,749.964 3177.02,749.596 3178.79,749.351 3180.56,749.183 3182.33,749.067 3184.1,748.988 3185.88,748.936 3187.65,748.904 3189.43,748.887 3191.73,748.882 3194.73,748.898 3197.73,748.935 3201.63,749.008 3205.53,749.103 3209.43,749.217 3213.32,749.34 3217.22,749.462 3221.12,749.559 3225.02,749.596 3228.92,749.535 3232.81,749.364 3236.71,749.074 3240.58,748.625 3244.43,747.933 3248.21,746.882 3251.87,745.393 3255.38,743.622 3258.92,741.924 3262.6,740.53 3266.36,739.435 3270.16,738.509 3273.98,737.679 3277.83,736.992 3281.7,736.494 3285.59,736.167 3289.49,735.972 3293.39,735.879 3297.29,735.86 3301.18,735.896 3305.08,735.964 3308.98,736.049 3312.88,736.138 3316.78,736.223 3320.68,736.306 3324.58,736.395 3328.47,736.503 3332.37,736.639 3336.27,736.813 3340.16,737.027 3344.05,737.282 3347.94,737.573 3351.83,737.896 3355.71,738.243 3359.6,738.606 3363.48,738.974 3367.36,739.339 3371.25,739.697 3375.13,740.047 3379.01,740.394 3382.9,740.74 3386.78,741.083 3390.67,741.415 3394.56,741.729 3398.45,742.014 3402.34,742.262 3406.23,742.466 3410.13,742.62 3414.03,742.724 3417.93,742.776 3421.83,742.776 3425.73,742.722 3429.62,742.594 3433.52,742.341 3437.4,741.915 3441.27,741.385 3445.13,740.863 3449.01,740.403 3452.89,740.027 3456.78,739.743 3460.68,739.554 3464.58,739.458 3468.48,739.448 3472.38,739.517 3476.27,739.655 3480.17,739.855 3484.06,740.11 3487.95,740.412 3491.83,740.758 3495.71,741.142 3499.59,741.561 3503.47,742.011 3507.34,742.49 3511.21,742.995 3515.07,743.525 3518.94,744.077 3522.8,744.649 3526.65,745.241 3530.51,745.85 3534.36,746.477 3538.21,747.119 3542.06,747.776 3545.9,748.446 3549.75,749.13 3553.59,749.825 3557.43,750.532 3561.26,751.25 3565.1,751.978 3568.93,752.715 3572.77,753.462 3576.6,754.217 3580.43,754.98 3584.25,755.75 3588.08,756.528 3591.9,757.312 3595.73,758.102 3599.55,758.899 3603.37,759.701 3607.19,760.508 3611.01,761.321 3614.83,762.137 3618.65,762.959 3622.47,763.784 3626.28,764.614 3630.1,765.447 3633.91,766.283 3637.73,767.123 3641.54,767.966 3645.35,768.811 3649.17,769.659 3652.98,770.51 3656.79,771.363 3660.6,772.219 3664.41,773.076 3668.22,773.935 3672.03,774.796 3675.84,775.658 3679.65,776.522 3683.46,777.388 3687.27,778.255 3691.08,779.123 3694.88,779.992 3698.69,780.862 3702.5,781.732 3706.31,782.604 3710.11,783.477 3713.92,784.35 3717.73,785.223 3721.54,786.098 3725.34,786.972 3729.15,787.847 3732.96,788.722 3736.76,789.598 3740.57,790.474 3744.38,791.349 3748.18,792.225 3751.99,793.101 3755.8,793.977 3759.6,794.853 3763.41,795.728 3767.22,796.604 3771.02,797.479 3774.83,798.354 3778.64,799.228 3782.44,800.102 3786.25,800.976 3790.06,801.849 3793.86,802.722 3797.67,803.594 3801.48,804.466 3805.29,805.337 3809.09,806.208 3812.9,807.078 3816.71,807.947 3820.52,808.815 3824.33,809.683 3828.14,810.55 3831.94,811.416 3835.75,812.281 3839.56,813.146 3843.37,814.009 3847.18,814.872 3850.99,815.734 3854.8,816.595 3858.61,817.455 3862.42,818.314 3866.23,819.171 3870.04,820.028 3873.85,820.884 3877.66,821.739 3881.47,822.593 3885.29,823.445 3889.1,824.297 3892.91,825.147 3896.72,825.996 3900.53,826.844 3904.35,827.691 3908.16,828.537 3911.97,829.381 3915.79,830.224 3919.6,831.066 3923.41,831.907 3927.23,832.746 3931.04,833.584 3934.86,834.421 3938.67,835.257 3942.49,836.091 3946.3,836.923 3950.12,837.755 3953.94,838.585 3957.75,839.414 3961.57,840.241 3965.39,841.067 3969.2,841.891 3973.02,842.714 3976.84,843.536 3980.66,844.356 3984.48,845.175 3988.29,845.992 3992.11,846.808 3995.93,847.622 3999.75,848.434 4003.57,849.246 4007.39,850.055 4011.21,850.863 4015.03,851.67 4018.86,852.474 4022.68,853.278 4026.5,854.079 4030.32,854.879 4034.14,855.678 4037.97,856.474 4041.79,857.269 4045.61,858.063 4049.44,858.854 4053.26,859.644 4057.08,860.432 4060.91,861.219 4064.73,862.003 4068.56,862.786 4072.39,863.567 4076.21,864.347 4080.04,865.124 4083.86,865.9 4087.69,866.673 4091.52,867.445 4095.35,868.215 4099.18,868.983 4103,869.749 4106.83,870.513 4110.66,871.276 4114.49,872.036 4118.32,872.794 4122.15,873.55 4125.98,874.305 4129.81,875.057 4133.65,875.807 4137.48,876.555 4141.31,877.301 4145.14,878.044 4148.98,878.786 4152.81,879.525 4156.64,880.263 4160.48,880.998 4164.31,881.73 4168.15,882.461 4171.98,883.189 4175.82,883.915 4179.65,884.639 4183.49,885.36 4187.33,886.079 4191.16,886.795 4195,887.509 4198.84,888.221 4202.68,888.929 4206.52,889.636 4210.36,890.339 4214.2,891.041 4218.04,891.739 4221.88,892.434 4225.72,893.127 4229.56,893.817 4233.41,894.503 4237.25,895.187 4241.09,895.867 4244.94,896.545 4248.78,897.218 4252.63,897.889 4256.47,898.555 4260.32,899.218 4264.17,899.876 4268.01,900.531 4271.86,901.181 4275.71,901.825 4279.56,902.465 4283.41,903.099 4287.27,903.727 4291.12,904.348 4294.97,904.962 4298.83,905.567 4302.68,906.162 4306.54,906.746 4310.4,907.318 4314.26,907.874 4318.13,908.412 4322,908.928 4325.87,909.418 4329.74,909.874 4333.62,910.287 4337.5,910.645 4341.4,910.925 4345.29,911.085 4349.2,911.025 4353.09,910.198 4353.5,909.784 4353.55,909.108 4353.26,908.578 4352.93,908.192 4352.57,907.85 4352.19,907.534 4351.79,907.237 4351.39,906.955 4350.98,906.683 4350.56,906.421 4350.14,906.167 4349.71,905.919 4349.28,905.677 4348.72,905.37 4348.16,905.069 4347.59,904.776 4346.85,904.402 4346.11,904.036 4345.36,903.676 4344.61,903.323 4343.63,902.872 4342.65,902.428 4341.67,901.991 4340.38,901.432 4339.1,900.881 4337.81,900.338 4336.52,899.801 4334.83,899.112 4333.15,898.432 4331.46,897.759 4329.26,896.894 4327.05,896.039 4324.85,895.192 4321.97,894.103 4319.1,893.024 4316.22,891.954 4313.34,890.892 4309.59,889.523 4305.83,888.165 4302.08,886.815 4298.32,885.474 4294.55,884.141 4290.79,882.813 4287.02,881.492 4283.26,880.177 4279.49,878.866 4275.71,877.56 4271.94,876.258 4268.17,874.96 4264.39,873.665 4260.62,872.374 4256.84,871.086 4253.06,869.801 4249.28,868.519 4245.5,867.239 4241.72,865.961 4237.94,864.685 4234.16,863.411 4230.38,862.138 4226.6,860.867 4222.82,859.597 4219.03,858.327 4215.25,857.058 4211.47,855.789 4207.69,854.52 4203.9,853.251 4200.12,851.981 4196.34,850.71 4192.56,849.438 4188.77,848.163 4184.99,846.887 4181.21,845.608 4177.44,844.326 4173.66,843.041 4169.88,841.751 4166.11,840.458 4162.33,839.159 4158.56,837.854 4154.79,836.544 4151.02,835.226 4147.26,833.901 4143.5,832.566 4139.74,831.222 4135.98,829.867 4132.23,828.5 4128.49,827.118 4124.75,825.72 4121.01,824.304 4117.29,822.867 4113.57,821.405 4109.86,819.913 4106.17,818.384 4102.49,816.811 4098.84,815.18 4095.22,813.471 4091.65,811.651 4088.17,809.65 4084.89,807.282 4082.82,803.154 4083.78,801.47 4084.59,800.768 4085.44,800.218 4086.34,799.762 4087.26,799.376 4088.2,799.044 4089.16,798.755 4090.12,798.5 4091.09,798.271 4092.07,798.061 4093.04,797.864 4094.31,797.62 4095.96,797.302 4098.11,796.86 4100.24,796.383 4103.01,795.741 4106.6,794.867 4110.18,793.931 4113.76,792.99 4117.36,792.131 4120.98,791.388 4124.61,790.71 4128.23,789.946 4131.79,788.887 4135.29,787.65 4138.78,786.419 4142.22,785.023 4145.32,782.727 4145.72,776.729 4146.68,772.962 4152.12,770.492 4155.86,769.797 4159.54,769.427 4163.24,769.267 4166.93,769.249 4170.62,769.327 4174.31,769.475 4178,769.67 4181.68,769.899 4185.36,770.15 4189.04,770.411 4192.73,770.676 4196.41,770.938 4200.09,771.191 4203.77,771.434 4207.46,771.665 4211.14,771.885 4214.83,772.097 4218.51,772.304 4222.2,772.509 4225.88,772.716 4229.57,772.926 4233.25,773.139 4236.94,773.353 4240.62,773.56 4244.31,773.759 4247.99,773.953 4251.68,774.155 4255.36,774.375 4259.05,774.62 4262.73,774.888 4266.41,775.18 4270.08,775.493 4273.76,775.826 4277.44,776.175 4281.11,776.539 4284.78,776.917 4288.45,777.306 4292.12,777.706 4295.79,778.115 4299.46,778.532 4303.13,778.956 4306.8,779.386 4310.46,779.821 4314.13,780.261 4317.8,780.705 4321.46,781.151 4325.13,781.6 4328.79,782.05 4332.46,782.501 4336.12,782.952 4339.79,783.401 4343.45,783.847 4347.12,784.29 4350.78,784.726 4354.45,785.155 4358.12,785.574 4361.79,785.979 4365.46,786.367 4369.13,786.733 4372.81,787.072 4376.49,787.375 4380.17,787.63 4383.86,787.82 4387.55,787.915 4391.24,787.856 4394.93,787.475 4396.73,786.956 4397.54,786.408 4397.79,785.933 4397.75,785.362 4397.52,784.901 4397.22,784.522 4396.89,784.184 4396.54,783.873 4396.17,783.581 4395.79,783.305 4395.41,783.041 4395.02,782.787 4394.62,782.541 4394.22,782.303 4393.82,782.071 4393.41,781.844 4393,781.623 4392.59,781.405 4392.06,781.127 4391.52,780.855 4390.97,780.588 4390.43,780.325 4389.72,779.989 4389.01,779.658 4388.3,779.332 4387.37,778.914 4386.44,778.502 4385.5,778.095 4384.28,777.572 4383.06,777.055 4381.48,776.391 4379.88,775.733 4377.81,774.885 4375.74,774.044 4373.04,772.958 4369.53,771.552 4366.02,770.147 4362.51,768.739 4359,767.323 4355.5,765.893 4352.01,764.444 4348.52,762.968 4345.05,761.455 4341.61,759.891 4338.19,758.252 4334.83,756.491 4331.59,754.495 4328.94,751.474 4295.16,778.043 4290.02,777.475 4286.28,777.074 4282.53,776.684 4278.79,776.307 4275.04,775.945 4271.29,775.6 4267.54,775.275 4263.79,774.97 4260.04,774.689 4256.28,774.434 4252.52,774.204 4248.77,773.994 4245.01,773.796 4241.25,773.595 4237.49,773.384 4233.73,773.167 4229.98,772.95 4226.22,772.735 4222.46,772.524 4218.7,772.315 4214.95,772.104 4211.19,771.888 4207.43,771.664 4203.68,771.428 4199.92,771.18 4196.17,770.921 4192.41,770.654 4188.66,770.384 4184.9,770.118 4181.15,769.865 4177.39,769.635 4173.63,769.443 4169.87,769.305 4166.11,769.243 4162.34,769.29 4158.58,769.499 4154.84,769.95 4151.14,770.75 4147.59,772.219 4146,778.609 4145.47,782.499 4140.6,785.73 4136.96,787.063 4133.4,788.321 4129.81,789.519 4126.14,790.412 4122.43,791.115 4118.73,791.836 4115.06,792.668 4111.4,793.606 4107.76,794.573 4104.1,795.484 4100.42,796.341 4096.74,797.146 4093.04,797.864 4089.36,798.698 4085.79,800.027 4082.84,803.055 4150,878.983 4154.63,879.875 4158.33,880.586 4162.03,881.294 4165.73,882.001 4169.43,882.705 4173.13,883.407 4176.83,884.107 4180.54,884.805 4184.24,885.5 4187.94,886.194 4191.65,886.885 4195.35,887.574 4199.05,888.26 4202.76,888.944 4206.46,889.626 4210.17,890.305 4213.88,890.982 4217.58,891.656 4221.29,892.327 4225,892.996 4228.7,893.663 4232.41,894.326 4236.12,894.987 4239.83,895.644 4243.54,896.299 4247.25,896.951 4250.96,897.599 4254.67,898.244 4258.39,898.885 4262.1,899.523 4265.81,900.157 4269.52,900.786 4273.24,901.412 4276.95,902.032 4280.67,902.648 4284.39,903.259 4288.1,903.863 4291.82,904.461 4295.54,905.052 4299.26,905.635 4302.99,906.208 4306.71,906.771 4310.44,907.323 4314.16,907.859 4317.89,908.38 4321.62,908.88 4325.36,909.355 4329.1,909.801 4332.84,910.208 4336.59,910.567 4340.34,910.859 4344.1,911.053 4347.87,911.083 4351.63,910.723 4353.45,909.869 4353.58,909.583 4353.6,909.321 4353.54,909.073 4353.44,908.847 4353.31,908.64 4353.16,908.448 4353,908.268 4352.83,908.096 4352.66,907.932 4352.48,907.775 4352.3,907.622 4352.05,907.431 4351.8,907.246 4351.55,907.067 4351.22,906.842 4350.88,906.623 4350.54,906.41 4350.2,906.202 4349.75,905.939 4349.29,905.682 4348.84,905.431 4348.24,905.111 4347.64,904.799 4347.04,904.493 4346.25,904.103 4345.46,903.722 4344.66,903.346 4343.86,902.977 4342.82,902.505 4341.78,902.041 4340.74,901.584 4339.37,900.998 4338,900.42 4336.64,899.851 4334.85,899.12 4333.06,898.399 4331.27,897.686 4329.48,896.981 4327.14,896.074 4324.8,895.176 4322.46,894.286 4319.41,893.141 4316.36,892.006 4313.3,890.88 4310.25,889.763 4306.27,888.321 4302.28,886.89 4298.3,885.468 4294.31,884.054 4290.32,882.648 4286.33,881.248 4282.33,879.855 4278.33,878.466 4274.34,877.083 4270.34,875.705 4266.33,874.33 4262.33,872.96 4258.33,871.593 4254.32,870.23 4250.32,868.869 4246.31,867.512 4242.3,866.157 4238.3,864.804 4234.29,863.453 4230.28,862.104 4226.27,860.756 4222.26,859.409 4218.25,858.064 4214.24,856.718 4210.23,855.373 4206.22,854.028 4202.21,852.682 4198.2,851.335 4194.19,849.987 4190.18,848.636 4186.17,847.284 4182.16,845.929 4178.16,844.571 4174.15,843.209 4170.15,841.842 4166.14,840.471 4162.14,839.094 4158.15,837.71 4154.15,836.32 4150.16,834.921 4146.17,833.514 4142.18,832.096 4138.2,830.667 4134.22,829.225 4130.24,827.768 4126.27,826.294 4122.31,824.8 4118.36,823.284 4114.42,821.741 4110.48,820.166 4106.57,818.551 4102.67,816.887 4098.8,815.159 4094.96,813.343 4091.18,811.397 4087.51,809.232 4084.13,806.556 4082.89,804.639 4084.09,801.174 4086.43,799.721 4088.45,798.967 4090.49,798.409 4092.56,797.96 4094.63,797.559 4096.7,797.154 4099.39,796.577 4102.06,795.963 4105.53,795.135 4108.99,794.249 4112.44,793.331 4115.9,792.464 4119.39,791.701 4122.89,791.03 4126.4,790.359 4129.87,789.504 4133.27,788.367 4136.64,787.175 4140,785.966 4143.27,784.464 4145.92,781.54 4145.67,776.235 4147.25,772.458 4151.94,770.539 4155.5,769.848 4159.06,769.462 4162.62,769.282 4166.18,769.243 4169.74,769.302 4173.31,769.429 4176.86,769.606 4180.42,769.818 4183.97,770.053 4187.53,770.303 4191.08,770.558 4194.63,770.813 4198.19,771.062 4201.74,771.302 4205.3,771.531 4208.85,771.75 4212.41,771.959 4215.96,772.162 4219.52,772.36 4223.08,772.558 4226.63,772.758 4230.19,772.962 4233.75,773.168 4237.3,773.374 4240.86,773.573 4244.42,773.765 4247.97,773.952 4251.53,774.147 4255.09,774.358 4258.64,774.592 4262.19,774.848 4265.74,775.126 4269.29,775.424 4272.84,775.741 4276.39,776.074 4279.94,776.421 4283.48,776.781 4287.02,777.153 4290.57,777.535 4294.11,777.926 4297.65,778.325 4301.19,778.731 4304.73,779.143 4308.27,779.56 4311.81,779.982 4315.34,780.408 4318.88,780.837 4322.42,781.268 4325.96,781.702 4329.49,782.137 4333.03,782.572 4336.57,783.007 4340.1,783.44 4343.64,783.871 4347.18,784.297 4350.72,784.719 4354.26,785.133 4357.8,785.538 4361.34,785.93 4364.88,786.307 4368.43,786.665 4371.97,786.998 4375.52,787.299 4379.08,787.56 4382.63,787.765 4386.19,787.894 4389.76,787.904 4393.32,787.703 4396.85,786.902 4397.63,786.299 4372.4,749.478 4370.92,749.435 4370.03,749.409 4368.87,749.373 4367.37,749.327 4365.42,749.266 4362.87,749.19 4359.57,749.099 4356.26,749.019 4352.96,748.954 4349.65,748.907 4346.35,748.884 4343.04,748.89 4339.73,748.941 4336.43,749.071 4333.13,749.371 4329.88,750.214 4334.32,782.73 4347.21,784.301 4350.5,784.693 4353.78,785.078 4357.07,785.455 4360.36,785.823 4363.64,786.178 4366.93,786.517 4370.23,786.837 4373.52,787.134 4376.82,787.399 4380.11,787.626 4383.42,787.801 4386.72,787.904 4390.03,787.898 4393.34,787.702 4396.61,787.008 4397.37,786.575 4397.81,785.633 4396.95,784.246 4396.29,783.671 4395.61,783.176 4394.91,782.719 4394.19,782.288 4393.47,781.876 4392.74,781.48 4392,781.097 4391.25,780.724 4390.5,780.36 4389.75,780.003 4389,779.652 4388.24,779.306 4387.48,778.965 4386.5,778.528 4385.51,778.096 4384.51,777.67 4383.22,777.121 4381.92,776.578 4380.24,775.879 4378.55,775.186 4376.35,774.292 4373.49,773.139 4369.77,771.648 4366.05,770.159 4362.33,768.666 4358.61,767.164 4354.9,765.645 4351.2,764.104 4347.51,762.53 4343.84,760.91 4340.19,759.225 4336.59,757.438 4333.08,755.47 4329.81,753.031 4329.17,752.193 4329.05,750.967 4331.44,749.675 4332.47,749.472 4333.45,749.329 4334.45,749.22 4335.44,749.136 4336.44,749.071 4337.43,749.02 4338.43,748.98 4339.43,748.949 4340.72,748.919 4342.02,748.899 4343.71,748.885 4345.9,748.882 4348.09,748.893 4350.94,748.923 4353.78,748.969 4357.49,749.047 4361.19,749.142 4364.89,749.25 4368.59,749.364 4372.29,749.475 4376,749.562 4379.7,749.596 4383.4,749.542 4387.1,749.377 4390.8,749.083 4394.48,748.588 4398.1,747.69 4401.47,745.82 4404.15,742.864 4407.2,740.566 4410.76,739.109 4414.32,738.004 4417.93,737.123 4421.6,736.535 4425.29,736.179 4428.99,735.978 4432.7,735.882 4436.4,735.859 4440.11,735.887 4443.81,735.946 4447.51,736.023 4451.21,736.105 4454.92,736.185 4458.62,736.263 4462.32,736.341 4466.02,736.428 4469.72,736.534 4473.42,736.665 4477.12,736.826 4480.82,737.019 4484.52,737.241 "/>
<path clip-path="url(#clip530)" d="M290.157 328.94 L800.704 328.94 L800.704 225.26 L290.157 225.26  Z" fill="#ffffff" fill-rule="evenodd" fill-opacity="1"/>
<polyline clip-path="url(#clip530)" style="stroke:#000000; stroke-linecap:round; stroke-linejoin:round; stroke-width:4; stroke-opacity:1; fill:none" points="290.157,328.94 800.704,328.94 800.704,225.26 290.157,225.26 290.157,328.94 "/>
<polyline clip-path="url(#clip530)" style="stroke:#008000; stroke-linecap:round; stroke-linejoin:round; stroke-width:8; stroke-opacity:0.5; fill:none" stroke-dasharray="32, 20" points="313.865,277.1 456.113,277.1 "/>
<path clip-path="url(#clip530)" d="M507.692 262.482 L507.692 267.412 Q505.33 265.213 502.645 264.125 Q499.983 263.037 496.974 263.037 Q491.048 263.037 487.9 266.672 Q484.752 270.283 484.752 277.134 Q484.752 283.963 487.9 287.597 Q491.048 291.208 496.974 291.208 Q499.983 291.208 502.645 290.12 Q505.33 289.033 507.692 286.833 L507.692 291.718 Q505.238 293.384 502.483 294.218 Q499.752 295.051 496.696 295.051 Q488.849 295.051 484.335 290.259 Q479.821 285.445 479.821 277.134 Q479.821 268.801 484.335 264.01 Q488.849 259.195 496.696 259.195 Q499.798 259.195 502.53 260.028 Q505.284 260.838 507.692 262.482 Z" fill="#000000" fill-rule="nonzero" fill-opacity="1" /><path clip-path="url(#clip530)" d="M524.775 271.44 Q521.349 271.44 519.358 274.125 Q517.367 276.787 517.367 281.44 Q517.367 286.093 519.335 288.778 Q521.326 291.44 524.775 291.44 Q528.178 291.44 530.168 288.755 Q532.159 286.07 532.159 281.44 Q532.159 276.834 530.168 274.148 Q528.178 271.44 524.775 271.44 M524.775 267.829 Q530.33 267.829 533.502 271.44 Q536.673 275.051 536.673 281.44 Q536.673 287.806 533.502 291.44 Q530.33 295.051 524.775 295.051 Q519.196 295.051 516.025 291.44 Q512.877 287.806 512.877 281.44 Q512.877 275.051 516.025 271.44 Q519.196 267.829 524.775 267.829 Z" fill="#000000" fill-rule="nonzero" fill-opacity="1" /><path clip-path="url(#clip530)" d="M565.284 278.732 L565.284 294.38 L561.025 294.38 L561.025 278.871 Q561.025 275.19 559.589 273.361 Q558.154 271.533 555.284 271.533 Q551.835 271.533 549.844 273.732 Q547.853 275.931 547.853 279.727 L547.853 294.38 L543.571 294.38 L543.571 268.454 L547.853 268.454 L547.853 272.482 Q549.381 270.144 551.441 268.986 Q553.525 267.829 556.233 267.829 Q560.7 267.829 562.992 270.607 Q565.284 273.361 565.284 278.732 Z" fill="#000000" fill-rule="nonzero" fill-opacity="1" /><path clip-path="url(#clip530)" d="M577.992 261.093 L577.992 268.454 L586.765 268.454 L586.765 271.764 L577.992 271.764 L577.992 285.838 Q577.992 289.009 578.849 289.912 Q579.728 290.815 582.39 290.815 L586.765 290.815 L586.765 294.38 L582.39 294.38 Q577.46 294.38 575.585 292.551 Q573.71 290.699 573.71 285.838 L573.71 271.764 L570.585 271.764 L570.585 268.454 L573.71 268.454 L573.71 261.093 L577.992 261.093 Z" fill="#000000" fill-rule="nonzero" fill-opacity="1" /><path clip-path="url(#clip530)" d="M592.367 268.454 L596.626 268.454 L596.626 294.38 L592.367 294.38 L592.367 268.454 M592.367 258.361 L596.626 258.361 L596.626 263.755 L592.367 263.755 L592.367 258.361 Z" fill="#000000" fill-rule="nonzero" fill-opacity="1" /><path clip-path="url(#clip530)" d="M627.089 278.732 L627.089 294.38 L622.83 294.38 L622.83 278.871 Q622.83 275.19 621.395 273.361 Q619.959 271.533 617.089 271.533 Q613.64 271.533 611.649 273.732 Q609.659 275.931 609.659 279.727 L609.659 294.38 L605.376 294.38 L605.376 268.454 L609.659 268.454 L609.659 272.482 Q611.186 270.144 613.247 268.986 Q615.33 267.829 618.038 267.829 Q622.506 267.829 624.797 270.607 Q627.089 273.361 627.089 278.732 Z" fill="#000000" fill-rule="nonzero" fill-opacity="1" /><path clip-path="url(#clip530)" d="M635.145 284.148 L635.145 268.454 L639.404 268.454 L639.404 283.986 Q639.404 287.667 640.839 289.519 Q642.274 291.347 645.144 291.347 Q648.594 291.347 650.584 289.148 Q652.598 286.949 652.598 283.153 L652.598 268.454 L656.857 268.454 L656.857 294.38 L652.598 294.38 L652.598 290.398 Q651.047 292.759 648.987 293.917 Q646.95 295.051 644.242 295.051 Q639.774 295.051 637.459 292.273 Q635.145 289.495 635.145 284.148 M645.862 267.829 L645.862 267.829 Z" fill="#000000" fill-rule="nonzero" fill-opacity="1" /><path clip-path="url(#clip530)" d="M677.413 281.347 Q672.251 281.347 670.26 282.528 Q668.269 283.708 668.269 286.556 Q668.269 288.824 669.751 290.167 Q671.255 291.486 673.825 291.486 Q677.367 291.486 679.496 288.986 Q681.649 286.463 681.649 282.296 L681.649 281.347 L677.413 281.347 M685.908 279.588 L685.908 294.38 L681.649 294.38 L681.649 290.445 Q680.191 292.806 678.015 293.94 Q675.839 295.051 672.691 295.051 Q668.709 295.051 666.348 292.829 Q664.01 290.583 664.01 286.833 Q664.01 282.458 666.927 280.236 Q669.867 278.014 675.677 278.014 L681.649 278.014 L681.649 277.597 Q681.649 274.658 679.704 273.06 Q677.783 271.44 674.288 271.44 Q672.066 271.44 669.959 271.972 Q667.853 272.505 665.908 273.57 L665.908 269.634 Q668.246 268.732 670.445 268.292 Q672.644 267.829 674.728 267.829 Q680.353 267.829 683.13 270.746 Q685.908 273.662 685.908 279.588 Z" fill="#000000" fill-rule="nonzero" fill-opacity="1" /><path clip-path="url(#clip530)" d="M698.894 261.093 L698.894 268.454 L707.667 268.454 L707.667 271.764 L698.894 271.764 L698.894 285.838 Q698.894 289.009 699.751 289.912 Q700.63 290.815 703.292 290.815 L707.667 290.815 L707.667 294.38 L703.292 294.38 Q698.362 294.38 696.487 292.551 Q694.612 290.699 694.612 285.838 L694.612 271.764 L691.487 271.764 L691.487 268.454 L694.612 268.454 L694.612 261.093 L698.894 261.093 Z" fill="#000000" fill-rule="nonzero" fill-opacity="1" /><path clip-path="url(#clip530)" d="M713.269 268.454 L717.528 268.454 L717.528 294.38 L713.269 294.38 L713.269 268.454 M713.269 258.361 L717.528 258.361 L717.528 263.755 L713.269 263.755 L713.269 258.361 Z" fill="#000000" fill-rule="nonzero" fill-opacity="1" /><path clip-path="url(#clip530)" d="M736.487 271.44 Q733.061 271.44 731.07 274.125 Q729.079 276.787 729.079 281.44 Q729.079 286.093 731.047 288.778 Q733.038 291.44 736.487 291.44 Q739.889 291.44 741.88 288.755 Q743.871 286.07 743.871 281.44 Q743.871 276.834 741.88 274.148 Q739.889 271.44 736.487 271.44 M736.487 267.829 Q742.042 267.829 745.213 271.44 Q748.385 275.051 748.385 281.44 Q748.385 287.806 745.213 291.44 Q742.042 295.051 736.487 295.051 Q730.908 295.051 727.737 291.44 Q724.589 287.806 724.589 281.44 Q724.589 275.051 727.737 271.44 Q730.908 267.829 736.487 267.829 Z" fill="#000000" fill-rule="nonzero" fill-opacity="1" /><path clip-path="url(#clip530)" d="M776.996 278.732 L776.996 294.38 L772.736 294.38 L772.736 278.871 Q772.736 275.19 771.301 273.361 Q769.866 271.533 766.996 271.533 Q763.547 271.533 761.556 273.732 Q759.565 275.931 759.565 279.727 L759.565 294.38 L755.283 294.38 L755.283 268.454 L759.565 268.454 L759.565 272.482 Q761.093 270.144 763.153 268.986 Q765.236 267.829 767.945 267.829 Q772.412 267.829 774.704 270.607 Q776.996 273.361 776.996 278.732 Z" fill="#000000" fill-rule="nonzero" fill-opacity="1" /></svg>
