<?xml version="1.0" encoding="utf-8"?>
<svg xmlns="http://www.w3.org/2000/svg" xmlns:xlink="http://www.w3.org/1999/xlink" width="600" height="400" viewBox="0 0 2400 1600">
<defs>
  <clipPath id="clip280">
    <rect x="0" y="0" width="2400" height="1600"/>
  </clipPath>
</defs>
<path clip-path="url(#clip280)" d="M0 1600 L2400 1600 L2400 0 L0 0  Z" fill="#ffffff" fill-rule="evenodd" fill-opacity="1"/>
<defs>
  <clipPath id="clip281">
    <rect x="250" y="123" width="2104" height="1301"/>
  </clipPath>
</defs>
<path clip-path="url(#clip280)" d="M249.542 1423.18 L2352.76 1423.18 L2352.76 183.952 L249.542 183.952  Z" fill="#ffffff" fill-rule="evenodd" fill-opacity="1"/>
<defs>
  <clipPath id="clip282">
    <rect x="249" y="183" width="2104" height="1240"/>
  </clipPath>
</defs>
<polyline clip-path="url(#clip282)" style="stroke:#000000; stroke-linecap:round; stroke-linejoin:round; stroke-width:2; stroke-opacity:0.1; fill:none" points="249.542,1423.18 249.542,183.952 "/>
<polyline clip-path="url(#clip282)" style="stroke:#000000; stroke-linecap:round; stroke-linejoin:round; stroke-width:2; stroke-opacity:0.1; fill:none" points="950.613,1423.18 950.613,183.952 "/>
<polyline clip-path="url(#clip282)" style="stroke:#000000; stroke-linecap:round; stroke-linejoin:round; stroke-width:2; stroke-opacity:0.1; fill:none" points="1651.68,1423.18 1651.68,183.952 "/>
<polyline clip-path="url(#clip282)" style="stroke:#000000; stroke-linecap:round; stroke-linejoin:round; stroke-width:2; stroke-opacity:0.1; fill:none" points="2352.76,1423.18 2352.76,183.952 "/>
<polyline clip-path="url(#clip282)" style="stroke:#000000; stroke-linecap:round; stroke-linejoin:round; stroke-width:2; stroke-opacity:0.1; fill:none" points="249.542,1423.18 2352.76,1423.18 "/>
<polyline clip-path="url(#clip282)" style="stroke:#000000; stroke-linecap:round; stroke-linejoin:round; stroke-width:2; stroke-opacity:0.1; fill:none" points="249.542,1165.01 2352.76,1165.01 "/>
<polyline clip-path="url(#clip282)" style="stroke:#000000; stroke-linecap:round; stroke-linejoin:round; stroke-width:2; stroke-opacity:0.1; fill:none" points="249.542,906.835 2352.76,906.835 "/>
<polyline clip-path="url(#clip282)" style="stroke:#000000; stroke-linecap:round; stroke-linejoin:round; stroke-width:2; stroke-opacity:0.1; fill:none" points="249.542,648.663 2352.76,648.663 "/>
<polyline clip-path="url(#clip282)" style="stroke:#000000; stroke-linecap:round; stroke-linejoin:round; stroke-width:2; stroke-opacity:0.1; fill:none" points="249.542,390.49 2352.76,390.49 "/>
<polyline clip-path="url(#clip280)" style="stroke:#000000; stroke-linecap:round; stroke-linejoin:round; stroke-width:4; stroke-opacity:1; fill:none" points="249.542,1423.18 2352.76,1423.18 "/>
<polyline clip-path="url(#clip280)" style="stroke:#000000; stroke-linecap:round; stroke-linejoin:round; stroke-width:4; stroke-opacity:1; fill:none" points="249.542,1423.18 249.542,1404.28 "/>
<polyline clip-path="url(#clip280)" style="stroke:#000000; stroke-linecap:round; stroke-linejoin:round; stroke-width:4; stroke-opacity:1; fill:none" points="950.613,1423.18 950.613,1404.28 "/>
<polyline clip-path="url(#clip280)" style="stroke:#000000; stroke-linecap:round; stroke-linejoin:round; stroke-width:4; stroke-opacity:1; fill:none" points="1651.68,1423.18 1651.68,1404.28 "/>
<polyline clip-path="url(#clip280)" style="stroke:#000000; stroke-linecap:round; stroke-linejoin:round; stroke-width:4; stroke-opacity:1; fill:none" points="2352.76,1423.18 2352.76,1404.28 "/>
<path clip-path="url(#clip280)" d="M249.542 1454.1 Q245.931 1454.1 244.102 1457.66 Q242.297 1461.2 242.297 1468.33 Q242.297 1475.44 244.102 1479.01 Q245.931 1482.55 249.542 1482.55 Q253.176 1482.55 254.982 1479.01 Q256.811 1475.44 256.811 1468.33 Q256.811 1461.2 254.982 1457.66 Q253.176 1454.1 249.542 1454.1 M249.542 1450.39 Q255.352 1450.39 258.408 1455 Q261.486 1459.58 261.486 1468.33 Q261.486 1477.06 258.408 1481.67 Q255.352 1486.25 249.542 1486.25 Q243.732 1486.25 240.653 1481.67 Q237.598 1477.06 237.598 1468.33 Q237.598 1459.58 240.653 1455 Q243.732 1450.39 249.542 1450.39 Z" fill="#000000" fill-rule="nonzero" fill-opacity="1" /><path clip-path="url(#clip280)" d="M940.891 1451.02 L959.248 1451.02 L959.248 1454.96 L945.174 1454.96 L945.174 1463.43 Q946.192 1463.08 947.211 1462.92 Q948.229 1462.73 949.248 1462.73 Q955.035 1462.73 958.414 1465.9 Q961.794 1469.08 961.794 1474.49 Q961.794 1480.07 958.322 1483.17 Q954.849 1486.25 948.53 1486.25 Q946.354 1486.25 944.086 1485.88 Q941.84 1485.51 939.433 1484.77 L939.433 1480.07 Q941.516 1481.2 943.738 1481.76 Q945.961 1482.32 948.437 1482.32 Q952.442 1482.32 954.78 1480.21 Q957.118 1478.1 957.118 1474.49 Q957.118 1470.88 954.78 1468.77 Q952.442 1466.67 948.437 1466.67 Q946.562 1466.67 944.687 1467.08 Q942.836 1467.5 940.891 1468.38 L940.891 1451.02 Z" fill="#000000" fill-rule="nonzero" fill-opacity="1" /><path clip-path="url(#clip280)" d="M1626.37 1481.64 L1634.01 1481.64 L1634.01 1455.28 L1625.7 1456.95 L1625.7 1452.69 L1633.96 1451.02 L1638.64 1451.02 L1638.64 1481.64 L1646.28 1481.64 L1646.28 1485.58 L1626.37 1485.58 L1626.37 1481.64 Z" fill="#000000" fill-rule="nonzero" fill-opacity="1" /><path clip-path="url(#clip280)" d="M1665.72 1454.1 Q1662.11 1454.1 1660.28 1457.66 Q1658.48 1461.2 1658.48 1468.33 Q1658.48 1475.44 1660.28 1479.01 Q1662.11 1482.55 1665.72 1482.55 Q1669.36 1482.55 1671.16 1479.01 Q1672.99 1475.44 1672.99 1468.33 Q1672.99 1461.2 1671.16 1457.66 Q1669.36 1454.1 1665.72 1454.1 M1665.72 1450.39 Q1671.53 1450.39 1674.59 1455 Q1677.67 1459.58 1677.67 1468.33 Q1677.67 1477.06 1674.59 1481.67 Q1671.53 1486.25 1665.72 1486.25 Q1659.91 1486.25 1656.84 1481.67 Q1653.78 1477.06 1653.78 1468.33 Q1653.78 1459.58 1656.84 1455 Q1659.91 1450.39 1665.72 1450.39 Z" fill="#000000" fill-rule="nonzero" fill-opacity="1" /><path clip-path="url(#clip280)" d="M2327.94 1481.64 L2335.58 1481.64 L2335.58 1455.28 L2327.27 1456.95 L2327.27 1452.69 L2335.53 1451.02 L2340.21 1451.02 L2340.21 1481.64 L2347.85 1481.64 L2347.85 1485.58 L2327.94 1485.58 L2327.94 1481.64 Z" fill="#000000" fill-rule="nonzero" fill-opacity="1" /><path clip-path="url(#clip280)" d="M2357.34 1451.02 L2375.7 1451.02 L2375.7 1454.96 L2361.62 1454.96 L2361.62 1463.43 Q2362.64 1463.08 2363.66 1462.92 Q2364.68 1462.73 2365.7 1462.73 Q2371.48 1462.73 2374.86 1465.9 Q2378.24 1469.08 2378.24 1474.49 Q2378.24 1480.07 2374.77 1483.17 Q2371.3 1486.25 2364.98 1486.25 Q2362.8 1486.25 2360.53 1485.88 Q2358.29 1485.51 2355.88 1484.77 L2355.88 1480.07 Q2357.96 1481.2 2360.19 1481.76 Q2362.41 1482.32 2364.89 1482.32 Q2368.89 1482.32 2371.23 1480.21 Q2373.57 1478.1 2373.57 1474.49 Q2373.57 1470.88 2371.23 1468.77 Q2368.89 1466.67 2364.89 1466.67 Q2363.01 1466.67 2361.14 1467.08 Q2359.28 1467.5 2357.34 1468.38 L2357.34 1451.02 Z" fill="#000000" fill-rule="nonzero" fill-opacity="1" /><path clip-path="url(#clip280)" d="M1285.82 1561.55 Q1286.97 1563.08 1290.41 1563.08 L1293.24 1563.08 L1293.24 1568.04 L1289.71 1568.04 Q1283.98 1568.04 1281.37 1564.99 Q1278.76 1561.87 1278.76 1555.12 L1278.76 1538.25 L1265.39 1538.25 L1265.39 1532.4 L1298.27 1532.4 L1298.27 1538.25 L1284.74 1538.25 L1284.74 1555.47 Q1284.74 1560.09 1285.82 1561.55 Z" fill="#000000" fill-rule="nonzero" fill-opacity="1" /><path clip-path="url(#clip280)" d="M1309.54 1562.63 L1320.04 1562.63 L1320.04 1526.38 L1308.61 1528.67 L1308.61 1522.82 L1319.98 1520.52 L1326.4 1520.52 L1326.4 1562.63 L1336.91 1562.63 L1336.91 1568.04 L1309.54 1568.04 L1309.54 1562.63 Z" fill="#000000" fill-rule="nonzero" fill-opacity="1" /><polyline clip-path="url(#clip280)" style="stroke:#000000; stroke-linecap:round; stroke-linejoin:round; stroke-width:4; stroke-opacity:1; fill:none" points="249.542,1423.18 249.542,183.952 "/>
<polyline clip-path="url(#clip280)" style="stroke:#000000; stroke-linecap:round; stroke-linejoin:round; stroke-width:4; stroke-opacity:1; fill:none" points="249.542,1423.18 268.44,1423.18 "/>
<polyline clip-path="url(#clip280)" style="stroke:#000000; stroke-linecap:round; stroke-linejoin:round; stroke-width:4; stroke-opacity:1; fill:none" points="249.542,1165.01 268.44,1165.01 "/>
<polyline clip-path="url(#clip280)" style="stroke:#000000; stroke-linecap:round; stroke-linejoin:round; stroke-width:4; stroke-opacity:1; fill:none" points="249.542,906.835 268.44,906.835 "/>
<polyline clip-path="url(#clip280)" style="stroke:#000000; stroke-linecap:round; stroke-linejoin:round; stroke-width:4; stroke-opacity:1; fill:none" points="249.542,648.663 268.44,648.663 "/>
<polyline clip-path="url(#clip280)" style="stroke:#000000; stroke-linecap:round; stroke-linejoin:round; stroke-width:4; stroke-opacity:1; fill:none" points="249.542,390.49 268.44,390.49 "/>
<path clip-path="url(#clip280)" d="M126.205 1408.98 Q122.593 1408.98 120.765 1412.54 Q118.959 1416.08 118.959 1423.21 Q118.959 1430.32 120.765 1433.89 Q122.593 1437.43 126.205 1437.43 Q129.839 1437.43 131.644 1433.89 Q133.473 1430.32 133.473 1423.21 Q133.473 1416.08 131.644 1412.54 Q129.839 1408.98 126.205 1408.98 M126.205 1405.27 Q132.015 1405.27 135.07 1409.88 Q138.149 1414.46 138.149 1423.21 Q138.149 1431.94 135.07 1436.55 Q132.015 1441.13 126.205 1441.13 Q120.394 1441.13 117.316 1436.55 Q114.26 1431.94 114.26 1423.21 Q114.26 1414.46 117.316 1409.88 Q120.394 1405.27 126.205 1405.27 Z" fill="#000000" fill-rule="nonzero" fill-opacity="1" /><path clip-path="url(#clip280)" d="M146.366 1434.58 L151.251 1434.58 L151.251 1440.46 L146.366 1440.46 L146.366 1434.58 Z" fill="#000000" fill-rule="nonzero" fill-opacity="1" /><path clip-path="url(#clip280)" d="M171.436 1408.98 Q167.825 1408.98 165.996 1412.54 Q164.19 1416.08 164.19 1423.21 Q164.19 1430.32 165.996 1433.89 Q167.825 1437.43 171.436 1437.43 Q175.07 1437.43 176.876 1433.89 Q178.704 1430.32 178.704 1423.21 Q178.704 1416.08 176.876 1412.54 Q175.07 1408.98 171.436 1408.98 M171.436 1405.27 Q177.246 1405.27 180.301 1409.88 Q183.38 1414.46 183.38 1423.21 Q183.38 1431.94 180.301 1436.55 Q177.246 1441.13 171.436 1441.13 Q165.626 1441.13 162.547 1436.55 Q159.491 1431.94 159.491 1423.21 Q159.491 1414.46 162.547 1409.88 Q165.626 1405.27 171.436 1405.27 Z" fill="#000000" fill-rule="nonzero" fill-opacity="1" /><path clip-path="url(#clip280)" d="M201.598 1408.98 Q197.987 1408.98 196.158 1412.54 Q194.352 1416.08 194.352 1423.21 Q194.352 1430.32 196.158 1433.89 Q197.987 1437.43 201.598 1437.43 Q205.232 1437.43 207.037 1433.89 Q208.866 1430.32 208.866 1423.21 Q208.866 1416.08 207.037 1412.54 Q205.232 1408.98 201.598 1408.98 M201.598 1405.27 Q207.408 1405.27 210.463 1409.88 Q213.542 1414.46 213.542 1423.21 Q213.542 1431.94 210.463 1436.55 Q207.408 1441.13 201.598 1441.13 Q195.787 1441.13 192.709 1436.55 Q189.653 1431.94 189.653 1423.21 Q189.653 1414.46 192.709 1409.88 Q195.787 1405.27 201.598 1405.27 Z" fill="#000000" fill-rule="nonzero" fill-opacity="1" /><path clip-path="url(#clip280)" d="M127.2 1150.81 Q123.589 1150.81 121.76 1154.37 Q119.955 1157.91 119.955 1165.04 Q119.955 1172.15 121.76 1175.71 Q123.589 1179.26 127.2 1179.26 Q130.834 1179.26 132.64 1175.71 Q134.468 1172.15 134.468 1165.04 Q134.468 1157.91 132.64 1154.37 Q130.834 1150.81 127.2 1150.81 M127.2 1147.1 Q133.01 1147.1 136.066 1151.71 Q139.144 1156.29 139.144 1165.04 Q139.144 1173.77 136.066 1178.38 Q133.01 1182.96 127.2 1182.96 Q121.39 1182.96 118.311 1178.38 Q115.256 1173.77 115.256 1165.04 Q115.256 1156.29 118.311 1151.71 Q121.39 1147.1 127.2 1147.1 Z" fill="#000000" fill-rule="nonzero" fill-opacity="1" /><path clip-path="url(#clip280)" d="M147.362 1176.41 L152.246 1176.41 L152.246 1182.29 L147.362 1182.29 L147.362 1176.41 Z" fill="#000000" fill-rule="nonzero" fill-opacity="1" /><path clip-path="url(#clip280)" d="M166.459 1178.35 L182.778 1178.35 L182.778 1182.29 L160.834 1182.29 L160.834 1178.35 Q163.496 1175.6 168.079 1170.97 Q172.686 1166.32 173.866 1164.97 Q176.112 1162.45 176.991 1160.71 Q177.894 1158.95 177.894 1157.26 Q177.894 1154.51 175.95 1152.77 Q174.028 1151.04 170.927 1151.04 Q168.727 1151.04 166.274 1151.8 Q163.843 1152.57 161.065 1154.12 L161.065 1149.39 Q163.89 1148.26 166.343 1147.68 Q168.797 1147.1 170.834 1147.1 Q176.204 1147.1 179.399 1149.79 Q182.593 1152.47 182.593 1156.96 Q182.593 1159.09 181.783 1161.01 Q180.996 1162.91 178.889 1165.51 Q178.311 1166.18 175.209 1169.39 Q172.107 1172.59 166.459 1178.35 Z" fill="#000000" fill-rule="nonzero" fill-opacity="1" /><path clip-path="url(#clip280)" d="M192.639 1147.73 L210.996 1147.73 L210.996 1151.66 L196.922 1151.66 L196.922 1160.13 Q197.94 1159.79 198.959 1159.63 Q199.977 1159.44 200.996 1159.44 Q206.783 1159.44 210.162 1162.61 Q213.542 1165.78 213.542 1171.2 Q213.542 1176.78 210.07 1179.88 Q206.598 1182.96 200.278 1182.96 Q198.102 1182.96 195.834 1182.59 Q193.588 1182.22 191.181 1181.48 L191.181 1176.78 Q193.264 1177.91 195.487 1178.47 Q197.709 1179.02 200.186 1179.02 Q204.19 1179.02 206.528 1176.92 Q208.866 1174.81 208.866 1171.2 Q208.866 1167.59 206.528 1165.48 Q204.19 1163.38 200.186 1163.38 Q198.311 1163.38 196.436 1163.79 Q194.584 1164.21 192.639 1165.09 L192.639 1147.73 Z" fill="#000000" fill-rule="nonzero" fill-opacity="1" /><path clip-path="url(#clip280)" d="M126.205 892.634 Q122.593 892.634 120.765 896.198 Q118.959 899.74 118.959 906.87 Q118.959 913.976 120.765 917.541 Q122.593 921.083 126.205 921.083 Q129.839 921.083 131.644 917.541 Q133.473 913.976 133.473 906.87 Q133.473 899.74 131.644 896.198 Q129.839 892.634 126.205 892.634 M126.205 888.93 Q132.015 888.93 135.07 893.536 Q138.149 898.12 138.149 906.87 Q138.149 915.596 135.07 920.203 Q132.015 924.786 126.205 924.786 Q120.394 924.786 117.316 920.203 Q114.26 915.596 114.26 906.87 Q114.26 898.12 117.316 893.536 Q120.394 888.93 126.205 888.93 Z" fill="#000000" fill-rule="nonzero" fill-opacity="1" /><path clip-path="url(#clip280)" d="M146.366 918.235 L151.251 918.235 L151.251 924.115 L146.366 924.115 L146.366 918.235 Z" fill="#000000" fill-rule="nonzero" fill-opacity="1" /><path clip-path="url(#clip280)" d="M161.482 889.555 L179.839 889.555 L179.839 893.49 L165.765 893.49 L165.765 901.962 Q166.783 901.615 167.802 901.453 Q168.82 901.268 169.839 901.268 Q175.626 901.268 179.005 904.439 Q182.385 907.61 182.385 913.027 Q182.385 918.606 178.913 921.708 Q175.44 924.786 169.121 924.786 Q166.945 924.786 164.677 924.416 Q162.431 924.046 160.024 923.305 L160.024 918.606 Q162.107 919.74 164.329 920.296 Q166.552 920.851 169.028 920.851 Q173.033 920.851 175.371 918.745 Q177.709 916.638 177.709 913.027 Q177.709 909.416 175.371 907.309 Q173.033 905.203 169.028 905.203 Q167.153 905.203 165.278 905.62 Q163.427 906.036 161.482 906.916 L161.482 889.555 Z" fill="#000000" fill-rule="nonzero" fill-opacity="1" /><path clip-path="url(#clip280)" d="M201.598 892.634 Q197.987 892.634 196.158 896.198 Q194.352 899.74 194.352 906.87 Q194.352 913.976 196.158 917.541 Q197.987 921.083 201.598 921.083 Q205.232 921.083 207.037 917.541 Q208.866 913.976 208.866 906.87 Q208.866 899.74 207.037 896.198 Q205.232 892.634 201.598 892.634 M201.598 888.93 Q207.408 888.93 210.463 893.536 Q213.542 898.12 213.542 906.87 Q213.542 915.596 210.463 920.203 Q207.408 924.786 201.598 924.786 Q195.787 924.786 192.709 920.203 Q189.653 915.596 189.653 906.87 Q189.653 898.12 192.709 893.536 Q195.787 888.93 201.598 888.93 Z" fill="#000000" fill-rule="nonzero" fill-opacity="1" /><path clip-path="url(#clip280)" d="M127.2 634.461 Q123.589 634.461 121.76 638.026 Q119.955 641.568 119.955 648.697 Q119.955 655.804 121.76 659.368 Q123.589 662.91 127.2 662.91 Q130.834 662.91 132.64 659.368 Q134.468 655.804 134.468 648.697 Q134.468 641.568 132.64 638.026 Q130.834 634.461 127.2 634.461 M127.2 630.758 Q133.01 630.758 136.066 635.364 Q139.144 639.947 139.144 648.697 Q139.144 657.424 136.066 662.031 Q133.01 666.614 127.2 666.614 Q121.39 666.614 118.311 662.031 Q115.256 657.424 115.256 648.697 Q115.256 639.947 118.311 635.364 Q121.39 630.758 127.2 630.758 Z" fill="#000000" fill-rule="nonzero" fill-opacity="1" /><path clip-path="url(#clip280)" d="M147.362 660.063 L152.246 660.063 L152.246 665.943 L147.362 665.943 L147.362 660.063 Z" fill="#000000" fill-rule="nonzero" fill-opacity="1" /><path clip-path="url(#clip280)" d="M161.251 631.383 L183.473 631.383 L183.473 633.373 L170.927 665.943 L166.042 665.943 L177.848 635.318 L161.251 635.318 L161.251 631.383 Z" fill="#000000" fill-rule="nonzero" fill-opacity="1" /><path clip-path="url(#clip280)" d="M192.639 631.383 L210.996 631.383 L210.996 635.318 L196.922 635.318 L196.922 643.79 Q197.94 643.443 198.959 643.281 Q199.977 643.095 200.996 643.095 Q206.783 643.095 210.162 646.267 Q213.542 649.438 213.542 654.855 Q213.542 660.433 210.07 663.535 Q206.598 666.614 200.278 666.614 Q198.102 666.614 195.834 666.243 Q193.588 665.873 191.181 665.132 L191.181 660.433 Q193.264 661.568 195.487 662.123 Q197.709 662.679 200.186 662.679 Q204.19 662.679 206.528 660.572 Q208.866 658.466 208.866 654.855 Q208.866 651.244 206.528 649.137 Q204.19 647.031 200.186 647.031 Q198.311 647.031 196.436 647.447 Q194.584 647.864 192.639 648.744 L192.639 631.383 Z" fill="#000000" fill-rule="nonzero" fill-opacity="1" /><path clip-path="url(#clip280)" d="M117.015 403.835 L124.654 403.835 L124.654 377.469 L116.343 379.136 L116.343 374.877 L124.607 373.21 L129.283 373.21 L129.283 403.835 L136.922 403.835 L136.922 407.77 L117.015 407.77 L117.015 403.835 Z" fill="#000000" fill-rule="nonzero" fill-opacity="1" /><path clip-path="url(#clip280)" d="M146.366 401.89 L151.251 401.89 L151.251 407.77 L146.366 407.77 L146.366 401.89 Z" fill="#000000" fill-rule="nonzero" fill-opacity="1" /><path clip-path="url(#clip280)" d="M171.436 376.289 Q167.825 376.289 165.996 379.854 Q164.19 383.395 164.19 390.525 Q164.19 397.631 165.996 401.196 Q167.825 404.738 171.436 404.738 Q175.07 404.738 176.876 401.196 Q178.704 397.631 178.704 390.525 Q178.704 383.395 176.876 379.854 Q175.07 376.289 171.436 376.289 M171.436 372.585 Q177.246 372.585 180.301 377.192 Q183.38 381.775 183.38 390.525 Q183.38 399.252 180.301 403.858 Q177.246 408.441 171.436 408.441 Q165.626 408.441 162.547 403.858 Q159.491 399.252 159.491 390.525 Q159.491 381.775 162.547 377.192 Q165.626 372.585 171.436 372.585 Z" fill="#000000" fill-rule="nonzero" fill-opacity="1" /><path clip-path="url(#clip280)" d="M201.598 376.289 Q197.987 376.289 196.158 379.854 Q194.352 383.395 194.352 390.525 Q194.352 397.631 196.158 401.196 Q197.987 404.738 201.598 404.738 Q205.232 404.738 207.037 401.196 Q208.866 397.631 208.866 390.525 Q208.866 383.395 207.037 379.854 Q205.232 376.289 201.598 376.289 M201.598 372.585 Q207.408 372.585 210.463 377.192 Q213.542 381.775 213.542 390.525 Q213.542 399.252 210.463 403.858 Q207.408 408.441 201.598 408.441 Q195.787 408.441 192.709 403.858 Q189.653 399.252 189.653 390.525 Q189.653 381.775 192.709 377.192 Q195.787 372.585 201.598 372.585 Z" fill="#000000" fill-rule="nonzero" fill-opacity="1" /><path clip-path="url(#clip280)" d="M58.3387 781.143 L64.0042 781.143 L64.0042 800.24 L58.3387 800.24 Q55.2513 794.606 49.9678 791.455 Q44.6842 788.304 38.2549 788.304 Q30.616 788.304 26.0009 792.506 Q21.3858 796.707 21.3858 803.582 Q21.3858 810.457 26.0327 814.69 Q30.6479 818.891 38.2549 818.891 Q44.6842 818.891 49.9678 815.74 Q55.2513 812.558 58.3387 806.892 L64.0042 806.892 L64.0042 825.989 L58.3387 825.989 L58.3387 815.836 Q53.9145 820.865 49.1721 823.188 Q44.4296 825.48 38.5732 825.48 Q28.4517 825.48 22.1815 819.369 Q15.9112 813.29 15.9112 803.582 Q15.9112 793.938 22.1815 787.795 Q28.4199 781.684 38.2549 781.684 Q44.4296 781.684 49.1402 783.944 Q53.8509 786.204 58.3387 791.328 L58.3387 781.143 Z" fill="#000000" fill-rule="nonzero" fill-opacity="1" /><path clip-path="url(#clip280)" d="M760.07 39.9885 L760.07 62.7141 L770.359 62.7141 Q776.071 62.7141 779.19 59.7569 Q782.309 56.7998 782.309 51.331 Q782.309 45.9028 779.19 42.9457 Q776.071 39.9885 770.359 39.9885 L760.07 39.9885 M751.887 33.264 L770.359 33.264 Q780.527 33.264 785.712 37.882 Q790.938 42.4596 790.938 51.331 Q790.938 60.2835 785.712 64.8611 Q780.527 69.4386 770.359 69.4386 L760.07 69.4386 L760.07 93.744 L751.887 93.744 L751.887 33.264 Z" fill="#000000" fill-rule="nonzero" fill-opacity="1" /><path clip-path="url(#clip280)" d="M801.591 30.7119 L809.045 30.7119 L809.045 93.744 L801.591 93.744 L801.591 30.7119 Z" fill="#000000" fill-rule="nonzero" fill-opacity="1" /><path clip-path="url(#clip280)" d="M842.222 53.5995 Q836.227 53.5995 832.743 58.2986 Q829.259 62.9571 829.259 71.0994 Q829.259 79.2418 832.702 83.9408 Q836.186 88.5994 842.222 88.5994 Q848.177 88.5994 851.661 83.9003 Q855.144 79.2013 855.144 71.0994 Q855.144 63.0381 851.661 58.3391 Q848.177 53.5995 842.222 53.5995 M842.222 47.2801 Q851.944 47.2801 857.494 53.5995 Q863.044 59.9189 863.044 71.0994 Q863.044 82.2394 857.494 88.5994 Q851.944 94.9188 842.222 94.9188 Q832.459 94.9188 826.91 88.5994 Q821.4 82.2394 821.4 71.0994 Q821.4 59.9189 826.91 53.5995 Q832.459 47.2801 842.222 47.2801 Z" fill="#000000" fill-rule="nonzero" fill-opacity="1" /><path clip-path="url(#clip280)" d="M882.772 35.492 L882.772 48.3739 L898.125 48.3739 L898.125 54.1667 L882.772 54.1667 L882.772 78.7962 Q882.772 84.3459 884.27 85.9258 Q885.81 87.5056 890.468 87.5056 L898.125 87.5056 L898.125 93.744 L890.468 93.744 Q881.84 93.744 878.559 90.5438 Q875.277 87.3031 875.277 78.7962 L875.277 54.1667 L869.809 54.1667 L869.809 48.3739 L875.277 48.3739 L875.277 35.492 L882.772 35.492 Z" fill="#000000" fill-rule="nonzero" fill-opacity="1" /><path clip-path="url(#clip280)" d="M957.268 30.7119 L957.268 36.9098 L950.138 36.9098 Q946.128 36.9098 944.548 38.5302 Q943.009 40.1505 943.009 44.3635 L943.009 48.3739 L955.283 48.3739 L955.283 54.1667 L943.009 54.1667 L943.009 93.744 L935.514 93.744 L935.514 54.1667 L928.385 54.1667 L928.385 48.3739 L935.514 48.3739 L935.514 45.2142 Q935.514 37.639 939.039 34.1957 Q942.563 30.7119 950.219 30.7119 L957.268 30.7119 Z" fill="#000000" fill-rule="nonzero" fill-opacity="1" /><path clip-path="url(#clip280)" d="M981.087 53.5995 Q975.092 53.5995 971.608 58.2986 Q968.124 62.9571 968.124 71.0994 Q968.124 79.2418 971.567 83.9408 Q975.051 88.5994 981.087 88.5994 Q987.042 88.5994 990.526 83.9003 Q994.009 79.2013 994.009 71.0994 Q994.009 63.0381 990.526 58.3391 Q987.042 53.5995 981.087 53.5995 M981.087 47.2801 Q990.809 47.2801 996.359 53.5995 Q1001.91 59.9189 1001.91 71.0994 Q1001.91 82.2394 996.359 88.5994 Q990.809 94.9188 981.087 94.9188 Q971.324 94.9188 965.775 88.5994 Q960.265 82.2394 960.265 71.0994 Q960.265 59.9189 965.775 53.5995 Q971.324 47.2801 981.087 47.2801 Z" fill="#000000" fill-rule="nonzero" fill-opacity="1" /><path clip-path="url(#clip280)" d="M1040.55 55.3414 Q1039.3 54.6123 1037.8 54.2882 Q1036.34 53.9236 1034.56 53.9236 Q1028.24 53.9236 1024.84 58.0555 Q1021.47 62.1469 1021.47 69.8437 L1021.47 93.744 L1013.98 93.744 L1013.98 48.3739 L1021.47 48.3739 L1021.47 55.4224 Q1023.82 51.2905 1027.59 49.3056 Q1031.36 47.2801 1036.75 47.2801 Q1037.52 47.2801 1038.45 47.4017 Q1039.38 47.4827 1040.51 47.6852 L1040.55 55.3414 Z" fill="#000000" fill-rule="nonzero" fill-opacity="1" /><path clip-path="url(#clip280)" d="M1090.46 94.7567 Q1081.1 93.2579 1076.77 89.3285 Q1071.46 84.5079 1071.46 74.6642 L1071.46 48.3739 L1079 48.3739 L1079 74.3807 Q1079 81.7938 1082.44 84.8725 Q1085.44 87.5461 1090.46 88.1132 L1090.46 48.3739 L1097.87 48.3739 L1097.87 88.0727 Q1103.18 87.5056 1105.9 84.832 Q1109.34 81.4293 1109.34 74.3402 L1109.34 48.3739 L1116.87 48.3739 L1116.87 74.6237 Q1116.87 84.832 1111.57 89.288 Q1106.79 93.2984 1097.87 94.7162 L1097.87 111.001 L1090.46 111.001 L1090.46 94.7567 Z" fill="#000000" fill-rule="nonzero" fill-opacity="1" /><path clip-path="url(#clip280)" d="M1156.82 56.0706 L1208.75 56.0706 L1208.75 62.8761 L1156.82 62.8761 L1156.82 56.0706 M1156.82 72.5983 L1208.75 72.5983 L1208.75 79.4848 L1156.82 79.4848 L1156.82 72.5983 Z" fill="#000000" fill-rule="nonzero" fill-opacity="1" /><path clip-path="url(#clip280)" d="M1270.28 38.6517 Q1263.96 38.6517 1260.76 44.8901 Q1257.6 51.088 1257.6 63.5648 Q1257.6 76.001 1260.76 82.2394 Q1263.96 88.4373 1270.28 88.4373 Q1276.64 88.4373 1279.8 82.2394 Q1283 76.001 1283 63.5648 Q1283 51.088 1279.8 44.8901 Q1276.64 38.6517 1270.28 38.6517 M1270.28 32.1703 Q1280.45 32.1703 1285.8 40.2316 Q1291.18 48.2523 1291.18 63.5648 Q1291.18 78.8367 1285.8 86.898 Q1280.45 94.9188 1270.28 94.9188 Q1260.11 94.9188 1254.73 86.898 Q1249.38 78.8367 1249.38 63.5648 Q1249.38 48.2523 1254.73 40.2316 Q1260.11 32.1703 1270.28 32.1703 Z" fill="#000000" fill-rule="nonzero" fill-opacity="1" /><path clip-path="url(#clip280)" d="M1305.56 83.4547 L1314.11 83.4547 L1314.11 93.744 L1305.56 93.744 L1305.56 83.4547 Z" fill="#000000" fill-rule="nonzero" fill-opacity="1" /><path clip-path="url(#clip280)" d="M1332.02 33.264 L1364.14 33.264 L1364.14 40.1505 L1339.51 40.1505 L1339.51 54.9768 Q1341.29 54.3692 1343.08 54.0856 Q1344.86 53.7616 1346.64 53.7616 Q1356.77 53.7616 1362.68 59.3113 Q1368.6 64.8611 1368.6 74.3402 Q1368.6 84.1028 1362.52 89.5311 Q1356.44 94.9188 1345.38 94.9188 Q1341.58 94.9188 1337.61 94.2706 Q1333.68 93.6225 1329.46 92.3262 L1329.46 84.1028 Q1333.11 86.0878 1337 87.06 Q1340.89 88.0322 1345.22 88.0322 Q1352.23 88.0322 1356.32 84.3459 Q1360.41 80.6596 1360.41 74.3402 Q1360.41 68.0208 1356.32 64.3344 Q1352.23 60.6481 1345.22 60.6481 Q1341.94 60.6481 1338.66 61.3773 Q1335.42 62.1064 1332.02 63.6458 L1332.02 33.264 Z" fill="#000000" fill-rule="nonzero" fill-opacity="1" /><path clip-path="url(#clip280)" d="M1382.65 33.264 L1421.54 33.264 L1421.54 36.7478 L1399.59 93.744 L1391.04 93.744 L1411.7 40.1505 L1382.65 40.1505 L1382.65 33.264 Z" fill="#000000" fill-rule="nonzero" fill-opacity="1" /><path clip-path="url(#clip280)" d="M1438.92 86.8575 L1452.29 86.8575 L1452.29 40.7177 L1437.75 43.6343 L1437.75 36.1807 L1452.21 33.264 L1460.39 33.264 L1460.39 86.8575 L1473.76 86.8575 L1473.76 93.744 L1438.92 93.744 L1438.92 86.8575 Z" fill="#000000" fill-rule="nonzero" fill-opacity="1" /><path clip-path="url(#clip280)" d="M1491.14 83.4547 L1499.68 83.4547 L1499.68 90.4223 L1493.04 103.385 L1487.81 103.385 L1491.14 90.4223 L1491.14 83.4547 Z" fill="#000000" fill-rule="nonzero" fill-opacity="1" /><path clip-path="url(#clip280)" d="M1542.3 33.264 L1553.32 33.264 L1580.13 83.8598 L1580.13 33.264 L1588.07 33.264 L1588.07 93.744 L1577.06 93.744 L1550.24 43.1482 L1550.24 93.744 L1542.3 93.744 L1542.3 33.264 Z" fill="#000000" fill-rule="nonzero" fill-opacity="1" /><path clip-path="url(#clip280)" d="M1631.38 56.0706 L1683.31 56.0706 L1683.31 62.8761 L1631.38 62.8761 L1631.38 56.0706 M1631.38 72.5983 L1683.31 72.5983 L1683.31 79.4848 L1631.38 79.4848 L1631.38 72.5983 Z" fill="#000000" fill-rule="nonzero" fill-opacity="1" /><path clip-path="url(#clip280)" d="M1728.76 86.8575 L1742.13 86.8575 L1742.13 40.7177 L1727.59 43.6343 L1727.59 36.1807 L1742.05 33.264 L1750.23 33.264 L1750.23 86.8575 L1763.6 86.8575 L1763.6 93.744 L1728.76 93.744 L1728.76 86.8575 Z" fill="#000000" fill-rule="nonzero" fill-opacity="1" /><path clip-path="url(#clip280)" d="M1781.55 86.8575 L1794.91 86.8575 L1794.91 40.7177 L1780.37 43.6343 L1780.37 36.1807 L1794.83 33.264 L1803.02 33.264 L1803.02 86.8575 L1816.38 86.8575 L1816.38 93.744 L1781.55 93.744 L1781.55 86.8575 Z" fill="#000000" fill-rule="nonzero" fill-opacity="1" /><path clip-path="url(#clip280)" d="M862.983 139.094 L870.437 139.094 L879.754 174.499 L889.03 139.094 L897.821 139.094 L907.138 174.499 L916.414 139.094 L923.868 139.094 L911.999 184.464 L903.208 184.464 L893.446 147.277 L883.643 184.464 L874.852 184.464 L862.983 139.094 Z" fill="#000000" fill-rule="nonzero" fill-opacity="1" /><path clip-path="url(#clip280)" d="M935.17 139.094 L942.624 139.094 L942.624 184.464 L935.17 184.464 L935.17 139.094 M935.17 121.432 L942.624 121.432 L942.624 130.871 L935.17 130.871 L935.17 121.432 Z" fill="#000000" fill-rule="nonzero" fill-opacity="1" /><path clip-path="url(#clip280)" d="M965.592 126.212 L965.592 139.094 L980.945 139.094 L980.945 144.887 L965.592 144.887 L965.592 169.516 Q965.592 175.066 967.091 176.646 Q968.63 178.226 973.289 178.226 L980.945 178.226 L980.945 184.464 L973.289 184.464 Q964.661 184.464 961.379 181.264 Q958.098 178.023 958.098 169.516 L958.098 144.887 L952.629 144.887 L952.629 139.094 L958.098 139.094 L958.098 126.212 L965.592 126.212 Z" fill="#000000" fill-rule="nonzero" fill-opacity="1" /><path clip-path="url(#clip280)" d="M1028.46 157.08 L1028.46 184.464 L1021.01 184.464 L1021.01 157.323 Q1021.01 150.882 1018.5 147.682 Q1015.99 144.482 1010.96 144.482 Q1004.93 144.482 1001.44 148.33 Q997.959 152.178 997.959 158.822 L997.959 184.464 L990.465 184.464 L990.465 121.432 L997.959 121.432 L997.959 146.142 Q1000.63 142.051 1004.24 140.026 Q1007.88 138 1012.62 138 Q1020.44 138 1024.45 142.861 Q1028.46 147.682 1028.46 157.08 Z" fill="#000000" fill-rule="nonzero" fill-opacity="1" /><path clip-path="url(#clip280)" d="M1091.94 176.2 Q1093.4 178.145 1097.77 178.145 L1101.38 178.145 L1101.38 184.464 L1096.88 184.464 Q1089.59 184.464 1086.27 180.575 Q1082.95 176.605 1082.95 168.017 L1082.95 146.548 L1065.93 146.548 L1065.93 139.094 L1107.78 139.094 L1107.78 146.548 L1090.56 146.548 L1090.56 168.463 Q1090.56 174.337 1091.94 176.2 Z" fill="#000000" fill-rule="nonzero" fill-opacity="1" /><path clip-path="url(#clip280)" d="M1138.2 129.372 Q1131.88 129.372 1128.68 135.61 Q1125.52 141.808 1125.52 154.285 Q1125.52 166.721 1128.68 172.959 Q1131.88 179.157 1138.2 179.157 Q1144.56 179.157 1147.72 172.959 Q1150.92 166.721 1150.92 154.285 Q1150.92 141.808 1147.72 135.61 Q1144.56 129.372 1138.2 129.372 M1138.2 122.89 Q1148.37 122.89 1153.72 130.952 Q1159.1 138.972 1159.1 154.285 Q1159.1 169.557 1153.72 177.618 Q1148.37 185.639 1138.2 185.639 Q1128.03 185.639 1122.65 177.618 Q1117.3 169.557 1117.3 154.285 Q1117.3 138.972 1122.65 130.952 Q1128.03 122.89 1138.2 122.89 Z" fill="#000000" fill-rule="nonzero" fill-opacity="1" /><path clip-path="url(#clip280)" d="M1199.78 146.791 L1251.71 146.791 L1251.71 153.596 L1199.78 153.596 L1199.78 146.791 M1199.78 163.318 L1251.71 163.318 L1251.71 170.205 L1199.78 170.205 L1199.78 163.318 Z" fill="#000000" fill-rule="nonzero" fill-opacity="1" /><path clip-path="url(#clip280)" d="M1297.16 177.577 L1310.53 177.577 L1310.53 131.438 L1295.98 134.354 L1295.98 126.901 L1310.45 123.984 L1318.63 123.984 L1318.63 177.577 L1332 177.577 L1332 184.464 L1297.16 184.464 L1297.16 177.577 Z" fill="#000000" fill-rule="nonzero" fill-opacity="1" /><path clip-path="url(#clip280)" d="M1348.52 174.175 L1357.07 174.175 L1357.07 184.464 L1348.52 184.464 L1348.52 174.175 Z" fill="#000000" fill-rule="nonzero" fill-opacity="1" /><path clip-path="url(#clip280)" d="M1374.98 123.984 L1407.1 123.984 L1407.1 130.871 L1382.47 130.871 L1382.47 145.697 Q1384.25 145.089 1386.04 144.806 Q1387.82 144.482 1389.6 144.482 Q1399.73 144.482 1405.64 150.031 Q1411.56 155.581 1411.56 165.06 Q1411.56 174.823 1405.48 180.251 Q1399.4 185.639 1388.34 185.639 Q1384.54 185.639 1380.57 184.991 Q1376.64 184.342 1372.42 183.046 L1372.42 174.823 Q1376.07 176.808 1379.96 177.78 Q1383.85 178.752 1388.18 178.752 Q1395.19 178.752 1399.28 175.066 Q1403.37 171.38 1403.37 165.06 Q1403.37 158.741 1399.28 155.054 Q1395.19 151.368 1388.18 151.368 Q1384.9 151.368 1381.62 152.097 Q1378.38 152.826 1374.98 154.366 L1374.98 123.984 Z" fill="#000000" fill-rule="nonzero" fill-opacity="1" /><path clip-path="url(#clip280)" d="M1428.53 174.175 L1437.08 174.175 L1437.08 181.142 L1430.43 194.105 L1425.21 194.105 L1428.53 181.142 L1428.53 174.175 Z" fill="#000000" fill-rule="nonzero" fill-opacity="1" /><path clip-path="url(#clip280)" d="M1511.41 146.304 Q1509.91 145.778 1508.41 145.373 Q1504.4 144.32 1500.11 144.32 Q1492.7 144.32 1488.56 148.33 Q1484.72 152.057 1483.99 158.903 L1511.41 158.903 L1511.41 164.736 L1483.99 164.736 Q1484.72 171.582 1488.56 175.309 Q1492.7 179.319 1500.11 179.319 Q1505.29 179.319 1508.41 178.266 L1511.41 177.253 L1511.41 184.018 L1508.21 184.748 Q1504 185.639 1499.66 185.639 Q1488.81 185.639 1482.49 179.319 Q1476.13 173 1476.13 161.819 Q1476.13 150.639 1482.49 144.32 Q1488.81 138 1499.66 138 Q1503.75 138 1508.21 138.891 Q1509.83 139.215 1511.41 139.702 L1511.41 146.304 Z" fill="#000000" fill-rule="nonzero" fill-opacity="1" /><path clip-path="url(#clip280)" d="M1531.38 146.791 L1583.31 146.791 L1583.31 153.596 L1531.38 153.596 L1531.38 146.791 M1531.38 163.318 L1583.31 163.318 L1583.31 170.205 L1531.38 170.205 L1531.38 163.318 Z" fill="#000000" fill-rule="nonzero" fill-opacity="1" /><path clip-path="url(#clip280)" d="M1618.48 129.372 Q1612.16 129.372 1608.96 135.61 Q1605.8 141.808 1605.8 154.285 Q1605.8 166.721 1608.96 172.959 Q1612.16 179.157 1618.48 179.157 Q1624.84 179.157 1628 172.959 Q1631.2 166.721 1631.2 154.285 Q1631.2 141.808 1628 135.61 Q1624.84 129.372 1618.48 129.372 M1618.48 122.89 Q1628.64 122.89 1633.99 130.952 Q1639.38 138.972 1639.38 154.285 Q1639.38 169.557 1633.99 177.618 Q1628.64 185.639 1618.48 185.639 Q1608.31 185.639 1602.92 177.618 Q1597.57 169.557 1597.57 154.285 Q1597.57 138.972 1602.92 130.952 Q1608.31 122.89 1618.48 122.89 Z" fill="#000000" fill-rule="nonzero" fill-opacity="1" /><path clip-path="url(#clip280)" d="M1653.76 174.175 L1662.31 174.175 L1662.31 184.464 L1653.76 184.464 L1653.76 174.175 Z" fill="#000000" fill-rule="nonzero" fill-opacity="1" /><path clip-path="url(#clip280)" d="M1697.63 129.372 Q1691.31 129.372 1688.11 135.61 Q1684.95 141.808 1684.95 154.285 Q1684.95 166.721 1688.11 172.959 Q1691.31 179.157 1697.63 179.157 Q1703.99 179.157 1707.15 172.959 Q1710.35 166.721 1710.35 154.285 Q1710.35 141.808 1707.15 135.61 Q1703.99 129.372 1697.63 129.372 M1697.63 122.89 Q1707.8 122.89 1713.15 130.952 Q1718.53 138.972 1718.53 154.285 Q1718.53 169.557 1713.15 177.618 Q1707.8 185.639 1697.63 185.639 Q1687.46 185.639 1682.08 177.618 Q1676.73 169.557 1676.73 154.285 Q1676.73 138.972 1682.08 130.952 Q1687.46 122.89 1697.63 122.89 Z" fill="#000000" fill-rule="nonzero" fill-opacity="1" /><path clip-path="url(#clip280)" d="M1734.33 177.577 L1747.7 177.577 L1747.7 131.438 L1733.16 134.354 L1733.16 126.901 L1747.62 123.984 L1755.8 123.984 L1755.8 177.577 L1769.17 177.577 L1769.17 184.464 L1734.33 184.464 L1734.33 177.577 Z" fill="#000000" fill-rule="nonzero" fill-opacity="1" /><polyline clip-path="url(#clip282)" style="stroke:#ff0000; stroke-linecap:round; stroke-linejoin:round; stroke-width:4; stroke-opacity:1; fill:none" points="249.542,713.383 250.944,713.47 252.346,713.559 253.748,713.65 255.151,713.744 256.553,713.843 257.955,713.95 259.357,714.067 260.759,714.197 262.161,714.342 263.563,714.504 264.966,714.685 266.368,714.884 267.77,715.103 269.172,715.338 270.574,715.588 271.976,715.849 273.378,716.118 274.781,716.394 276.183,716.676 277.585,716.964 278.987,717.259 280.389,717.562 281.791,717.874 283.193,718.196 284.596,718.53 285.998,718.874 287.4,719.23 288.802,719.596 290.204,719.971 291.606,720.354 293.008,720.745 293.73,720.951 294.411,721.144 295.813,721.551 297.215,721.97 298.617,722.4 300.019,722.846 301.421,723.306 302.823,723.783 304.226,724.276 305.628,724.786 307.03,725.311 308.432,725.85 309.834,726.402 311.236,726.965 312.638,727.534 314.041,728.107 315.443,728.681 316.845,729.251 318.247,729.816 319.649,730.376 321.051,730.93 321.943,731.278 322.453,731.476 323.856,732.015 325.258,732.548 326.66,733.074 328.062,733.593 329.464,734.107 330.866,734.615 332.268,735.119 333.671,735.62 335.073,736.117 336.475,736.611 337.877,737.104 339.279,737.595 340.681,738.087 342.083,738.58 343.486,739.075 344.888,739.574 346.29,740.078 347.692,740.587 349.094,741.103 350.439,741.605 350.496,741.626 351.898,742.156 353.301,742.694 354.703,743.241 356.105,743.796 357.507,744.359 358.909,744.928 360.311,745.501 361.713,746.074 363.116,746.647 364.518,747.216 365.92,747.78 367.322,748.337 368.724,748.884 370.126,749.418 371.528,749.935 372.931,750.429 374.333,750.895 375.735,751.329 377.137,751.729 377.914,751.931 378.539,752.094 379.941,752.426 381.343,752.729 382.746,753.007 384.148,753.263 385.55,753.499 386.952,753.715 388.354,753.914 389.756,754.095 391.158,754.262 392.561,754.415 393.963,754.555 395.365,754.683 396.767,754.799 398.169,754.902 399.571,754.991 400.973,755.065 402.376,755.126 403.778,755.175 405.18,755.213 406.582,755.244 407.984,755.268 409.386,755.287 410.788,755.301 412.191,755.31 413.593,755.316 414.995,755.318 416.397,755.319 417.799,755.32 419.201,755.322 420.603,755.325 422.006,755.329 423.408,755.336 424.81,755.346 426.212,755.359 427.614,755.376 429.016,755.396 430.418,755.421 431.821,755.449 433.223,755.481 434.625,755.517 436.027,755.555 437.429,755.596 438.831,755.637 440.233,755.677 441.636,755.715 443.038,755.748 444.44,755.775 445.842,755.796 447.244,755.808 448.646,755.811 450.048,755.804 451.451,755.786 452.853,755.758 454.255,755.718 455.657,755.668 457.059,755.606 458.461,755.535 459.863,755.454 461.266,755.364 462.668,755.266 464.07,755.159 465.472,755.042 466.874,754.914 468.276,754.774 469.678,754.621 471.081,754.455 472.483,754.278 473.885,754.089 475.287,753.892 476.689,753.687 478.091,753.475 479.493,753.257 480.896,753.031 482.298,752.797 483.7,752.555 485.102,752.303 486.504,752.042 487.072,751.931 487.906,751.768 489.308,751.482 490.711,751.184 492.113,750.871 493.515,750.543 494.917,750.197 496.319,749.832 497.721,749.448 499.123,749.044 500.526,748.62 501.928,748.175 503.33,747.71 504.732,747.225 506.134,746.721 507.536,746.201 508.938,745.663 510.341,745.11 511.743,744.539 513.145,743.951 514.547,743.341 515.949,742.707 517.351,742.047 518.252,741.605 518.753,741.354 520.156,740.624 521.558,739.863 522.96,739.074 524.362,738.261 525.764,737.427 527.166,736.579 528.568,735.722 529.971,734.863 531.373,734.008 532.775,733.161 534.177,732.327 535.579,731.508 535.981,731.278 536.981,730.713 538.383,729.943 539.786,729.195 541.188,728.471 542.59,727.773 543.992,727.101 545.394,726.455 546.796,725.834 548.198,725.236 549.601,724.656 551.003,724.092 552.405,723.538 553.807,722.995 555.209,722.462 556.611,721.941 558.013,721.436 559.416,720.951 559.417,720.951 560.818,720.499 562.22,720.075 563.622,719.681 565.024,719.316 566.426,718.98 567.828,718.672 569.231,718.388 570.633,718.126 572.035,717.885 573.437,717.662 574.839,717.458 576.241,717.273 577.643,717.109 579.046,716.967 580.448,716.848 581.85,716.752 583.252,716.679 584.654,716.628 586.056,716.599 587.458,716.589 588.861,716.596 590.263,716.618 591.665,716.651 593.067,716.694 594.469,716.742 595.871,716.794 597.273,716.846 598.676,716.896 600.078,716.942 601.48,716.984 602.882,717.018 604.284,717.045 605.686,717.064 607.088,717.073 608.491,717.074 609.893,717.065 611.295,717.048 612.697,717.023 614.099,716.991 615.501,716.953 616.903,716.909 618.306,716.861 619.708,716.809 621.11,716.754 622.512,716.697 623.914,716.637 625.316,716.572 626.718,716.502 628.121,716.423 629.523,716.336 630.925,716.24 632.327,716.134 633.729,716.02 635.131,715.898 636.533,715.77 637.936,715.638 639.338,715.502 640.74,715.364 642.142,715.226 643.544,715.09 644.946,714.957 646.348,714.828 647.751,714.704 649.153,714.586 650.555,714.474 651.957,714.369 653.359,714.274 654.761,714.191 656.163,714.121 657.566,714.067 658.968,714.028 660.37,714.006 661.772,714.001 663.174,714.011 664.576,714.037 665.978,714.076 667.381,714.128 668.783,714.192 670.185,714.267 671.587,714.351 672.989,714.444 674.391,714.544 675.793,714.648 677.196,714.755 678.598,714.864 680,714.974 681.402,715.082 682.804,715.188 684.206,715.292 685.608,715.393 687.011,715.488 688.413,715.578 689.815,715.662 691.217,715.739 692.619,715.809 694.021,715.872 695.423,715.928 696.826,715.978 698.228,716.022 699.63,716.061 701.032,716.097 702.434,716.13 703.836,716.162 705.238,716.192 706.641,716.221 708.043,716.248 709.445,716.273 710.847,716.295 712.249,716.315 713.651,716.33 715.053,716.342 716.456,716.348 717.858,716.348 719.26,716.341 720.662,716.326 722.064,716.301 723.466,716.267 724.868,716.222 726.271,716.164 727.673,716.094 729.075,716.009 730.477,715.909 731.879,715.793 733.281,715.658 734.683,715.505 736.086,715.331 737.488,715.136 738.89,714.918 740.292,714.677 741.694,714.41 743.096,714.118 744.498,713.799 745.901,713.455 747.303,713.084 748.705,712.687 750.107,712.266 751.509,711.82 752.911,711.351 754.313,710.859 754.956,710.624 755.716,710.333 757.118,709.77 758.52,709.178 759.922,708.554 761.324,707.899 762.726,707.212 764.128,706.499 765.531,705.763 766.933,705.01 768.335,704.248 769.737,703.481 771.139,702.713 772.541,701.947 773.943,701.185 775.346,700.432 775.601,700.297 776.748,699.71 778.15,699.018 779.552,698.356 780.954,697.728 782.356,697.134 783.758,696.574 785.16,696.045 786.563,695.546 787.965,695.072 789.367,694.621 790.769,694.192 792.171,693.783 793.573,693.395 794.975,693.029 796.378,692.686 797.78,692.368 799.182,692.076 800.584,691.811 801.986,691.571 803.388,691.356 804.79,691.164 806.193,690.991 807.595,690.834 808.997,690.689 810.399,690.553 811.801,690.424 813.203,690.3 814.605,690.181 816.008,690.067 817.264,689.97 817.41,689.959 818.812,689.858 820.214,689.763 821.616,689.677 823.018,689.601 824.42,689.538 825.823,689.487 827.225,689.451 828.627,689.429 830.029,689.423 831.431,689.432 832.833,689.456 834.235,689.494 835.638,689.546 837.04,689.61 838.442,689.683 839.844,689.762 841.246,689.846 842.648,689.931 843.32,689.97 844.05,690.012 845.453,690.087 846.855,690.156 848.257,690.219 849.659,690.274 851.061,690.322 852.463,690.363 853.865,690.396 855.268,690.423 856.67,690.443 858.072,690.457 859.474,690.468 860.876,690.473 862.278,690.472 863.68,690.463 865.083,690.447 866.485,690.424 867.887,690.396 869.289,690.366 870.691,690.337 872.093,690.311 873.495,690.29 874.898,690.273 876.3,690.263 877.702,690.26 879.104,690.266 880.506,690.282 881.908,690.31 883.31,690.347 884.713,690.392 886.115,690.44 887.517,690.489 888.919,690.537 890.321,690.581 891.723,690.623 893.125,690.661 894.528,690.694 895.93,690.721 897.332,690.742 898.734,690.756 900.136,690.762 901.538,690.76 902.94,690.751 904.343,690.734 905.745,690.709 907.147,690.677 908.549,690.638 909.951,690.593 911.353,690.545 912.755,690.492 914.158,690.437 915.56,690.38 916.962,690.322 918.364,690.263 919.766,690.204 921.168,690.146 922.57,690.087 923.973,690.027 925.222,689.97 925.375,689.963 926.777,689.892 928.179,689.814 929.581,689.729 930.983,689.634 932.385,689.53 933.788,689.417 935.19,689.295 936.592,689.164 937.994,689.025 939.396,688.878 940.798,688.724 942.2,688.563 943.603,688.395 945.005,688.22 946.407,688.04 947.809,687.856 949.211,687.667 950.613,687.475 952.015,687.282 953.418,687.089 954.82,686.895 956.222,686.701 957.624,686.509 959.026,686.317 960.428,686.127 961.83,685.936 963.233,685.745 964.635,685.55 966.037,685.348 967.439,685.137 968.841,684.913 970.243,684.676 971.645,684.426 973.048,684.161 974.45,683.882 975.852,683.589 977.254,683.282 978.656,682.96 980.058,682.624 981.46,682.273 982.863,681.907 984.265,681.525 985.667,681.126 987.069,680.709 988.471,680.273 989.873,679.817 990.387,679.643 991.275,679.324 992.678,678.804 994.08,678.274 995.482,677.737 996.884,677.2 998.286,676.666 999.688,676.139 1001.09,675.623 1002.49,675.12 1003.89,674.634 1005.3,674.166 1006.7,673.718 1008.1,673.292 1009.5,672.889 1010.91,672.508 1012.31,672.148 1013.71,671.807 1015.11,671.486 1016.51,671.183 1017.92,670.9 1019.32,670.638 1020.72,670.398 1022.12,670.181 1023.52,669.99 1024.93,669.827 1026.33,669.692 1027.73,669.588 1029.13,669.513 1030.54,669.465 1031.94,669.442 1033.34,669.441 1034.74,669.456 1036.14,669.485 1037.55,669.523 1038.95,669.57 1040.35,669.622 1041.75,669.679 1043.15,669.74 1044.56,669.803 1045.96,669.868 1047.36,669.933 1048.76,669.998 1050.17,670.06 1051.57,670.119 1052.97,670.171 1054.37,670.216 1055.77,670.255 1057.18,670.289 1058.58,670.32 1059.98,670.349 1061.38,670.377 1062.78,670.404 1064.19,670.429 1065.59,670.452 1066.99,670.472 1068.39,670.488 1069.8,670.501 1071.2,670.511 1072.6,670.516 1074,670.517 1075.4,670.512 1076.81,670.501 1078.21,670.483 1079.61,670.455 1081.01,670.419 1082.41,670.373 1083.82,670.317 1085.22,670.251 1086.62,670.174 1088.02,670.081 1089.43,669.97 1090.83,669.838 1092.23,669.684 1093.63,669.509 1095,669.316 1095.03,669.311 1096.44,669.068 1097.84,668.803 1099.24,668.517 1100.64,668.209 1102.04,667.876 1103.45,667.52 1104.85,667.143 1106.25,666.747 1107.65,666.334 1109.06,665.905 1110.46,665.461 1111.86,665.002 1113.26,664.532 1114.66,664.055 1116.07,663.573 1117.47,663.09 1118.87,662.605 1120.27,662.12 1121.67,661.635 1123.08,661.149 1124.48,660.664 1125.88,660.181 1127.28,659.699 1128.69,659.223 1129.38,658.989 1130.09,658.767 1131.49,658.345 1132.89,657.948 1134.29,657.579 1135.7,657.24 1137.1,656.932 1138.5,656.656 1139.9,656.413 1141.3,656.203 1142.71,656.024 1144.11,655.875 1145.51,655.754 1146.91,655.658 1148.32,655.584 1149.72,655.529 1151.12,655.49 1152.52,655.466 1153.92,655.455 1155.33,655.455 1156.73,655.464 1158.13,655.481 1159.53,655.504 1160.93,655.529 1162.34,655.555 1163.74,655.578 1165.14,655.598 1166.54,655.612 1167.95,655.62 1169.35,655.625 1170.75,655.626 1172.15,655.626 1173.55,655.626 1174.96,655.626 1176.36,655.628 1177.76,655.631 1179.16,655.637 1180.56,655.645 1181.97,655.658 1183.37,655.676 1184.77,655.699 1186.17,655.728 1187.58,655.764 1188.98,655.806 1190.38,655.856 1191.78,655.915 1193.18,655.981 1194.59,656.056 1195.99,656.139 1197.39,656.23 1198.79,656.329 1200.19,656.436 1201.6,656.549 1203,656.668 1204.4,656.792 1205.8,656.921 1207.21,657.053 1208.61,657.189 1210.01,657.328 1211.41,657.471 1212.81,657.619 1214.22,657.77 1215.62,657.926 1217.02,658.086 1218.42,658.251 1219.82,658.422 1221.23,658.597 1222.63,658.778 1224.03,658.964 1224.22,658.989 1225.43,659.175 1226.84,659.399 1228.24,659.635 1229.64,659.883 1231.04,660.144 1232.44,660.419 1233.85,660.707 1235.25,661.008 1236.65,661.319 1238.05,661.638 1239.45,661.963 1240.86,662.292 1242.26,662.622 1243.66,662.954 1245.06,663.287 1246.47,663.623 1247.87,663.962 1249.27,664.308 1250.67,664.66 1252.07,665.02 1253.48,665.388 1254.88,665.762 1256.28,666.14 1257.68,666.521 1259.08,666.902 1260.49,667.282 1261.89,667.662 1263.29,668.044 1264.69,668.428 1266.1,668.818 1267.5,669.215 1267.85,669.316 1268.9,669.633 1270.3,670.059 1271.7,670.486 1273.11,670.912 1274.51,671.335 1275.91,671.755 1277.31,672.173 1278.71,672.589 1280.12,673.005 1281.52,673.423 1282.92,673.843 1284.32,674.264 1285.73,674.688 1287.13,675.114 1288.53,675.54 1289.93,675.968 1291.33,676.396 1292.74,676.826 1294.14,677.256 1295.54,677.687 1296.94,678.12 1298.34,678.555 1299.75,678.991 1301.15,679.429 1301.83,679.643 1302.55,679.865 1303.95,680.297 1305.36,680.728 1306.76,681.159 1308.16,681.59 1309.56,682.02 1310.96,682.45 1312.37,682.879 1313.77,683.307 1315.17,683.736 1316.57,684.164 1317.97,684.591 1319.38,685.02 1320.78,685.448 1322.18,685.877 1323.58,686.307 1324.99,686.738 1326.39,687.169 1327.79,687.602 1329.19,688.035 1330.59,688.47 1332,688.907 1333.4,689.345 1334.8,689.785 1335.39,689.97 1336.2,690.209 1337.6,690.618 1339.01,691.025 1340.41,691.431 1341.81,691.834 1343.21,692.236 1344.62,692.636 1346.02,693.035 1347.42,693.433 1348.82,693.83 1350.22,694.227 1351.63,694.622 1353.03,695.017 1354.43,695.413 1355.83,695.807 1357.23,696.202 1358.64,696.595 1360.04,696.987 1361.44,697.378 1362.84,697.768 1364.25,698.159 1365.65,698.55 1367.05,698.941 1368.45,699.334 1369.85,699.728 1371.26,700.123 1371.88,700.297 1372.66,700.487 1374.06,700.823 1375.46,701.154 1376.86,701.479 1378.27,701.799 1379.67,702.114 1381.07,702.426 1382.47,702.736 1383.88,703.044 1385.28,703.35 1386.68,703.655 1388.08,703.957 1389.48,704.257 1390.89,704.555 1392.29,704.85 1393.69,705.143 1395.09,705.432 1396.49,705.715 1397.9,705.991 1399.3,706.26 1400.7,706.52 1402.1,706.773 1403.51,707.018 1404.91,707.257 1406.31,707.493 1407.71,707.728 1409.11,707.962 1410.52,708.196 1411.92,708.427 1413.32,708.652 1414.72,708.866 1416.12,709.064 1417.53,709.243 1418.93,709.404 1420.33,709.546 1421.73,709.674 1423.14,709.789 1424.54,709.895 1425.94,709.994 1427.34,710.087 1428.74,710.176 1430.15,710.263 1431.55,710.351 1432.95,710.44 1434.35,710.532 1435.69,710.624 1435.75,710.628 1437.16,710.732 1438.56,710.843 1439.96,710.959 1441.36,711.08 1442.77,711.205 1444.17,711.333 1445.57,711.461 1446.97,711.589 1448.37,711.716 1449.78,711.839 1451.18,711.959 1452.58,712.073 1453.98,712.181 1455.38,712.284 1456.79,712.38 1458.19,712.47 1459.59,712.554 1460.99,712.632 1462.4,712.702 1463.8,712.765 1465.2,712.82 1466.6,712.867 1468,712.907 1469.41,712.938 1470.81,712.961 1472.21,712.975 1473.61,712.979 1475.01,712.975 1476.42,712.962 1477.82,712.942 1479.22,712.914 1480.62,712.88 1482.03,712.841 1483.43,712.798 1484.83,712.754 1486.23,712.709 1487.63,712.665 1489.04,712.624 1490.44,712.586 1491.84,712.553 1493.24,712.525 1494.64,712.501 1496.05,712.483 1497.45,712.469 1498.85,712.46 1500.25,712.455 1501.66,712.455 1503.06,712.46 1504.46,712.469 1505.86,712.483 1507.26,712.502 1508.67,712.525 1510.07,712.552 1511.47,712.585 1512.87,712.623 1514.27,712.665 1515.68,712.71 1517.08,712.76 1518.48,712.813 1519.88,712.869 1521.29,712.929 1522.69,712.992 1524.09,713.057 1525.49,713.123 1526.89,713.192 1528.3,713.261 1529.7,713.333 1531.1,713.407 1532.5,713.484 1533.9,713.565 1535.31,713.652 1536.71,713.747 1538.11,713.85 1539.51,713.963 1540.92,714.086 1542.32,714.219 1543.72,714.361 1545.12,714.51 1546.52,714.664 1547.93,714.821 1549.33,714.98 1550.73,715.138 1552.13,715.297 1553.53,715.457 1554.94,715.62 1556.34,715.786 1557.74,715.957 1559.14,716.134 1560.55,716.319 1561.95,716.511 1563.35,716.712 1564.75,716.919 1566.15,717.131 1567.56,717.346 1568.96,717.564 1570.36,717.784 1571.76,718.004 1573.16,718.226 1574.57,718.45 1575.97,718.676 1577.37,718.905 1578.77,719.137 1580.18,719.372 1581.58,719.61 1582.98,719.852 1584.38,720.095 1585.78,720.338 1587.19,720.582 1588.59,720.826 1589.31,720.951 1589.99,721.085 1591.39,721.362 1592.79,721.643 1594.2,721.927 1595.6,722.215 1597,722.507 1598.4,722.804 1599.81,723.106 1601.21,723.41 1602.61,723.718 1604.01,724.028 1605.41,724.338 1606.82,724.648 1608.22,724.954 1609.62,725.257 1611.02,725.556 1612.42,725.851 1613.83,726.143 1615.23,726.433 1616.63,726.723 1618.03,727.014 "/>
<polyline clip-path="url(#clip282)" style="stroke:#ff0000; stroke-linecap:round; stroke-linejoin:round; stroke-width:4; stroke-opacity:1; fill:none" points="1618.03,727.014 1619.44,727.307 1620.84,727.604 1622.24,727.905 1623.64,728.212 1625.04,728.524 1626.45,728.842 1627.85,729.165 1629.25,729.492 1630.65,729.821 1632.05,730.151 1633.46,730.482 1634.86,730.811 1636.26,731.139 1636.86,731.278 1637.66,731.456 1639.07,731.761 1640.47,732.06 1641.87,732.357 1643.27,732.65 1644.67,732.943 1646.08,733.236 1647.48,733.53 1648.88,733.825 1650.28,734.122 1651.68,734.421 1653.09,734.721 1654.49,735.023 1655.89,735.326 1657.29,735.63 1658.7,735.936 1660.1,736.242 1661.5,736.549 1662.9,736.857 1664.3,737.165 1665.71,737.472 1667.11,737.779 1668.51,738.084 1669.91,738.388 1671.31,738.69 1672.72,738.989 1674.12,739.285 1675.52,739.578 1676.92,739.869 1678.33,740.158 1679.73,740.446 1681.13,740.735 1682.53,741.026 1683.93,741.319 1685.28,741.605 1685.34,741.618 1686.74,741.928 1688.14,742.242 1689.54,742.56 1690.94,742.881 1692.35,743.202 1693.75,743.524 1695.15,743.843 1696.55,744.16 1697.96,744.472 1699.36,744.779 1700.76,745.082 1702.16,745.38 1703.56,745.673 1704.97,745.96 1706.37,746.243 1707.77,746.52 1709.17,746.792 1710.57,747.06 1711.98,747.326 1713.38,747.593 1714.78,747.863 1716.18,748.138 1717.59,748.419 1718.99,748.707 1720.39,749.003 1721.79,749.307 1723.19,749.619 1724.6,749.94 1726,750.268 1727.4,750.599 1728.8,750.931 1730.2,751.257 1731.61,751.574 1733.01,751.877 1733.28,751.931 1734.41,752.09 1735.81,752.273 1737.22,752.445 1738.62,752.61 1740.02,752.768 1741.42,752.922 1742.82,753.072 1744.23,753.218 1745.63,753.361 1747.03,753.503 1748.43,753.643 1749.83,753.781 1751.24,753.916 1752.64,754.045 1754.04,754.168 1755.44,754.281 1756.85,754.385 1758.25,754.48 1759.65,754.566 1761.05,754.646 1762.45,754.719 1763.86,754.787 1765.26,754.849 1766.66,754.906 1768.06,754.958 1769.46,755.005 1770.87,755.049 1772.27,755.09 1773.67,755.128 1775.07,755.165 1776.48,755.199 1777.88,755.231 1779.28,755.26 1780.68,755.288 1782.08,755.315 1783.49,755.341 1784.89,755.368 1786.29,755.395 1787.69,755.424 1789.09,755.452 1790.5,755.481 1791.9,755.51 1793.3,755.539 1794.7,755.566 1796.11,755.591 1797.51,755.613 1798.91,755.632 1800.31,755.647 1801.71,755.656 1803.12,755.661 1804.52,755.661 1805.92,755.655 1807.32,755.643 1808.72,755.626 1810.13,755.603 1811.53,755.574 1812.93,755.539 1814.33,755.499 1815.74,755.452 1817.14,755.4 1818.54,755.34 1819.94,755.27 1821.34,755.19 1822.75,755.096 1824.15,754.988 1825.55,754.862 1826.95,754.719 1828.35,754.559 1829.76,754.382 1831.16,754.187 1832.56,753.976 1833.96,753.748 1835.37,753.502 1836.77,753.237 1838.17,752.951 1839.57,752.643 1840.97,752.31 1842.38,751.951 1842.45,751.931 1843.78,751.27 1845.18,750.458 1846.58,749.502 1847.98,748.364 1849.39,746.993 1850.79,745.316 1852.19,743.231 1853.09,741.605 1852.19,737.671 1850.89,731.278 1852.19,727.037 1853.59,723.583 1854.99,720.951 1855,720.95 1856.4,720.316 1857.8,719.769 1859.2,719.301 1860.6,718.903 1862.01,718.565 1863.41,718.28 1864.81,718.039 1866.21,717.835 1867.61,717.661 1869.02,717.51 1870.42,717.379 1871.82,717.264 1873.22,717.163 1874.63,717.076 1876.03,717.002 1877.43,716.939 1878.83,716.888 1880.23,716.846 1881.64,716.814 1883.04,716.79 1884.44,716.774 1885.84,716.766 1887.24,716.766 1888.65,716.77 1890.05,716.779 1891.45,716.789 1892.85,716.801 1894.26,716.813 1895.66,716.823 1897.06,716.83 1898.46,716.834 1899.86,716.832 1901.27,716.822 1902.67,716.803 1904.07,716.772 1905.47,716.729 1906.87,716.676 1908.28,716.612 1909.68,716.539 1911.08,716.458 1912.48,716.37 1913.89,716.274 1915.29,716.172 1916.69,716.066 1918.09,715.957 1919.49,715.848 1920.9,715.74 1922.3,715.633 1923.7,715.525 1925.1,715.415 1926.5,715.303 1927.91,715.189 1929.31,715.076 1930.71,714.968 1932.11,714.868 1933.52,714.779 1934.92,714.701 1936.32,714.636 1937.72,714.583 1939.12,714.542 1940.53,714.513 1941.93,714.495 1943.33,714.488 1944.73,714.492 1946.13,714.504 1947.54,714.523 1948.94,714.549 1950.34,714.579 1951.74,714.613 1953.15,714.65 1954.55,714.689 1955.95,714.729 1957.35,714.771 1958.75,714.816 1960.16,714.863 1961.56,714.912 1962.96,714.964 1964.36,715.016 1965.76,715.07 1967.17,715.123 1968.57,715.177 1969.97,715.23 1971.37,715.285 1972.78,715.341 1974.18,715.399 1975.58,715.46 1976.98,715.524 1978.38,715.588 1979.79,715.652 1981.19,715.715 1982.59,715.777 1983.99,715.836 1985.39,715.894 1986.8,715.948 1988.2,715.998 1989.6,716.043 1991,716.081 1992.41,716.112 1993.81,716.134 1995.21,716.149 1996.61,716.157 1998.01,716.157 1999.42,716.152 2000.82,716.139 2002.22,716.12 2003.62,716.094 2005.02,716.06 2006.43,716.016 2007.83,715.961 2009.23,715.895 2010.63,715.815 2012.04,715.72 2013.44,715.608 2014.84,715.475 2016.24,715.319 2017.64,715.136 2019.05,714.922 2020.45,714.674 2021.85,714.386 2023.25,714.053 2024.65,713.669 2026.06,713.226 2027.46,712.717 2028.86,712.132 2030.26,711.458 2031.67,710.682 2031.76,710.624 2033.07,705.671 2034.16,700.297 2034.47,699.883 2035.87,698.199 2037.27,696.795 2038.68,695.625 2040.08,694.652 2041.48,693.843 2042.88,693.171 2044.28,692.613 2045.69,692.148 2047.09,691.758 2048.49,691.426 2049.89,691.138 2051.3,690.883 2052.7,690.656 2054.1,690.451 2055.5,690.265 2056.9,690.099 2058.1,689.97 2058.31,689.955 2059.71,689.859 2061.11,689.771 2062.51,689.693 2063.91,689.624 2065.32,689.566 2066.72,689.52 2068.12,689.487 2069.52,689.465 2070.93,689.457 2072.33,689.463 2073.73,689.483 2075.13,689.517 2076.53,689.564 2077.94,689.623 2079.34,689.692 2080.74,689.769 2082.14,689.85 2083.54,689.934 2084.15,689.97 2084.95,690.017 2086.35,690.093 2087.75,690.159 2089.15,690.218 2090.56,690.267 2091.96,690.309 2093.36,690.343 2094.76,690.37 2096.16,690.391 2097.57,690.406 2098.97,690.418 2100.37,690.426 2101.77,690.431 2103.17,690.43 2104.58,690.424 2105.98,690.411 2107.38,690.391 2108.78,690.368 2110.19,690.343 2111.59,690.318 2112.99,690.297 2114.39,690.279 2115.79,690.266 2117.2,690.258 2118.6,690.258 2120,690.266 2121.4,690.285 2122.8,690.315 2124.21,690.355 2125.61,690.401 2127.01,690.451 2128.41,690.501 2129.82,690.548 2131.22,690.591 2132.62,690.63 2134.02,690.663 2135.42,690.691 2136.83,690.713 2138.23,690.727 2139.63,690.735 2141.03,690.737 2142.43,690.731 2143.84,690.719 2145.24,690.7 2146.64,690.675 2148.04,690.644 2149.45,690.608 2150.85,690.568 2152.25,690.524 2153.65,690.477 2155.05,690.426 2156.46,690.373 2157.86,690.319 2159.26,690.262 2160.66,690.206 2162.06,690.148 2163.47,690.089 2164.87,690.027 2166.05,689.97 2166.27,689.958 2167.67,689.87 2169.08,689.772 2170.48,689.663 2171.88,689.541 2173.28,689.407 2174.68,689.26 2176.09,689.1 2177.49,688.93 2178.89,688.749 2180.29,688.559 2181.69,688.362 2183.1,688.155 2184.5,687.941 2185.9,687.717 2187.3,687.484 2188.71,687.24 2190.11,686.983 2191.51,686.713 2192.91,686.427 2194.31,686.126 2195.72,685.81 2197.12,685.48 2198.52,685.137 2199.92,684.782 2201.32,684.413 2202.73,684.028 2204.13,683.622 2205.53,683.19 2206.93,682.725 2208.34,682.222 2209.74,681.673 2211.14,681.07 2212.54,680.405 2213.94,679.67 2213.99,679.643 2215.35,678.531 2216.75,677.42 2218.15,676.37 2219.55,675.393 2220.95,674.495 2222.36,673.676 2223.76,672.938 2225.16,672.278 2226.56,671.695 2227.97,671.188 2229.37,670.754 2230.77,670.391 2232.17,670.098 2233.57,669.869 2234.98,669.702 2236.38,669.589 2237.78,669.522 2239.18,669.493 2240.58,669.493 2241.99,669.515 2243.39,669.552 2244.79,669.599 2246.19,669.652 2247.6,669.71 2249,669.769 2250.4,669.828 2251.8,669.888 2253.2,669.946 2254.61,670.001 2256.01,670.054 2257.41,670.102 2258.81,670.145 2260.21,670.181 2261.62,670.211 2263.02,670.235 2264.42,670.257 2265.82,670.277 2267.23,670.297 2268.63,670.318 2270.03,670.34 2271.43,670.361 2272.83,670.382 2274.24,670.401 2275.64,670.418 2277.04,670.432 2278.44,670.444 2279.84,670.452 2281.25,670.455 2282.65,670.454 2284.05,670.445 2285.45,670.429 2286.86,670.404 2288.26,670.37 2289.66,670.325 2291.06,670.271 2292.46,670.207 2293.87,670.13 2295.27,670.037 2296.67,669.926 2298.07,669.792 2299.47,669.635 2300.88,669.455 2301.83,669.316 2302.28,669.179 2303.68,668.696 2305.08,668.151 2306.49,667.544 2307.89,666.872 2309.29,666.136 2310.69,665.338 2312.09,664.483 2313.5,663.577 2314.9,662.625 2316.3,661.634 2317.7,660.614 2319.1,659.581 2319.91,658.989 2320.51,658.774 2321.91,658.31 2323.31,657.903 2324.71,657.544 2326.12,657.228 2327.52,656.949 2328.92,656.702 2330.32,656.484 2331.72,656.292 2333.13,656.123 2334.53,655.977 2335.93,655.851 2337.33,655.745 2338.73,655.656 2340.14,655.585 2341.54,655.53 2342.94,655.491 2344.34,655.467 2345.75,655.458 2347.15,655.461 2348.55,655.476 2349.95,655.501 2351.35,655.532 2352.76,655.566 "/>
<polyline clip-path="url(#clip282)" style="stroke:#008000; stroke-linecap:round; stroke-linejoin:round; stroke-width:8; stroke-opacity:0.5; fill:none" stroke-dasharray="32, 20" points="263.563,714.507 263.704,714.525 263.886,714.547 264.123,714.577 264.431,714.617 264.831,714.67 265.352,714.741 266.028,714.838 266.908,714.97 268.052,715.152 269.195,715.346 270.338,715.549 271.482,715.759 272.625,715.976 273.769,716.197 274.912,716.423 276.055,716.653 277.199,716.887 278.342,717.126 279.485,717.369 280.629,717.618 281.772,717.873 282.915,718.134 284.058,718.403 285.201,718.68 286.344,718.963 287.488,719.255 288.631,719.552 289.774,719.856 290.917,720.166 292.06,720.481 293.203,720.8 294.346,721.126 295.488,721.457 296.631,721.795 297.774,722.141 298.917,722.496 300.06,722.86 301.202,723.235 302.345,723.621 303.487,724.017 304.63,724.424 305.772,724.842 306.914,725.27 308.057,725.707 309.199,726.154 310.341,726.608 311.483,727.068 312.625,727.532 313.767,727.999 314.909,728.466 316.051,728.931 317.193,729.394 318.335,729.854 319.477,730.309 320.619,730.76 321.761,731.208 322.904,731.651 324.046,732.089 325.188,732.523 326.33,732.953 327.473,733.378 328.615,733.799 329.757,734.217 330.9,734.631 332.042,735.042 333.185,735.45 334.327,735.856 335.47,736.26 336.612,736.662 337.754,737.064 338.897,737.464 340.039,737.865 341.182,738.266 342.324,738.668 343.467,739.071 344.609,739.477 345.752,739.886 346.894,740.298 348.036,740.714 349.179,741.135 350.321,741.56 351.463,741.991 352.606,742.427 353.748,742.869 354.89,743.316 356.032,743.77 357.174,744.228 358.316,744.69 359.458,745.156 360.6,745.623 361.742,746.091 362.884,746.558 364.026,747.023 365.168,747.485 366.31,747.942 367.453,748.395 368.595,748.841 369.737,749.278 370.879,749.704 372.022,750.117 373.164,750.513 374.307,750.89 375.45,751.246 376.592,751.579 377.735,751.89 378.879,752.178 380.022,752.446 381.165,752.694 382.308,752.926 383.452,753.142 384.595,753.345 385.739,753.533 386.882,753.71 388.026,753.874 389.169,754.027 390.313,754.169 391.457,754.301 392.6,754.424 393.744,754.539 394.888,754.646 396.031,754.746 397.175,754.836 398.319,754.918 399.462,754.99 400.606,755.053 401.75,755.106 402.894,755.15 404.037,755.187 405.181,755.218 406.325,755.243 407.469,755.264 408.612,755.281 409.756,755.295 410.9,755.305 412.044,755.312 413.188,755.317 414.331,755.319 415.475,755.321 416.619,755.321 417.763,755.322 418.906,755.323 420.05,755.324 421.194,755.327 422.338,755.331 423.481,755.337 424.625,755.345 425.769,755.354 426.913,755.366 428.057,755.381 429.2,755.398 430.344,755.418 431.488,755.441 432.632,755.466 433.775,755.494 434.919,755.524 436.063,755.556 437.207,755.589 438.35,755.624 439.494,755.658 440.638,755.69 441.782,755.721 442.926,755.749 444.069,755.773 445.213,755.792 446.357,755.806 447.501,755.815 448.644,755.817 449.788,755.812 450.932,755.801 452.076,755.782 453.219,755.756 454.363,755.722 455.507,755.681 456.651,755.632 457.794,755.577 458.938,755.515 460.082,755.447 461.226,755.373 462.369,755.294 463.513,755.209 464.657,755.118 465.8,755.02 466.944,754.915 468.088,754.801 469.231,754.679 470.375,754.547 471.519,754.408 472.662,754.26 473.806,754.105 474.949,753.945 476.093,753.779 477.237,753.609 478.38,753.434 479.524,753.255 480.667,753.071 481.811,752.882 482.954,752.687 484.097,752.486 485.241,752.279 486.384,752.065 487.528,751.844 488.671,751.615 489.814,751.378 490.958,751.133 492.101,750.878 493.244,750.613 494.387,750.336 495.53,750.048 496.673,749.746 497.816,749.431 498.959,749.103 500.102,748.761 501.245,748.406 502.388,748.036 503.53,747.653 504.673,747.257 505.815,746.848 506.957,746.427 508.1,745.996 509.242,745.554 510.384,745.101 511.526,744.637 512.668,744.162 513.81,743.672 514.952,743.168 516.093,742.646 517.235,742.106 518.376,741.545 519.517,740.964 520.658,740.362 521.798,739.739 522.939,739.096 524.079,738.436 525.219,737.76 526.359,737.073 527.499,736.378 528.639,735.677 529.779,734.976 530.918,734.278 532.058,733.586 533.198,732.902 534.338,732.227 535.479,731.564 536.619,730.914 537.759,730.277 538.9,729.655 540.041,729.049 541.182,728.46 542.323,727.887 543.464,727.333 544.606,726.796 545.747,726.278 546.889,725.777 548.031,725.292 549.173,724.821 550.315,724.359 551.457,723.906 552.599,723.459 553.741,723.017 554.884,722.581 556.026,722.153 557.168,721.735 558.311,721.329 559.453,720.939 560.596,720.565 561.739,720.21 562.882,719.874 564.025,719.559 565.168,719.264 566.311,718.989 567.454,718.733 568.597,718.494 569.741,718.272 570.884,718.064 572.028,717.869 573.171,717.685 574.315,717.513 575.458,717.353 576.602,717.206 577.745,717.073 578.889,716.956 580.033,716.854 581.177,716.768 582.32,716.698 583.464,716.643 584.608,716.604 585.752,716.58 586.895,716.569 588.039,716.571 589.183,716.585 590.327,716.608 591.47,716.639 592.614,716.677 593.758,716.718 594.902,716.763 596.045,716.808 597.189,716.853 598.333,716.897 599.477,716.938 600.62,716.975 601.764,717.009 602.908,717.038 604.052,717.061 605.196,717.079 606.339,717.09 607.483,717.095 608.627,717.094 609.771,717.086 610.914,717.073 612.058,717.054 613.202,717.03 614.346,717.002 615.489,716.969 616.633,716.933 617.777,716.893 618.921,716.851 620.064,716.807 621.208,716.762 622.352,716.716 623.496,716.669 624.639,716.621 625.783,716.57 626.927,716.515 628.071,716.453 629.214,716.384 630.358,716.307 631.502,716.223 632.646,716.132 633.789,716.035 634.933,715.935 636.077,715.83 637.22,715.722 638.364,715.611 639.508,715.498 640.651,715.382 641.795,715.266 642.939,715.15 644.082,715.037 645.226,714.927 646.37,714.821 647.513,714.719 648.657,714.621 649.801,714.526 650.944,714.435 652.088,714.348 653.232,714.267 654.376,714.193 655.519,714.128 656.663,714.073 657.807,714.03 658.951,713.999 660.094,713.979 661.238,713.971 662.382,713.974 663.526,713.988 664.669,714.011 665.813,714.044 666.957,714.086 668.101,714.137 669.244,714.194 670.388,714.259 671.532,714.33 672.676,714.406 673.819,714.488 674.963,714.575 676.107,714.665 677.25,714.758 678.394,714.851 679.538,714.945 680.682,715.037 681.825,715.128 682.969,715.216 684.113,715.302 685.256,715.385 686.4,715.465 687.544,715.543 688.688,715.617 689.831,715.687 690.975,715.753 692.119,715.813 693.263,715.867 694.406,715.915 695.55,715.958 696.694,715.995 697.838,716.029 698.981,716.059 700.125,716.088 701.269,716.115 702.413,716.141 703.556,716.167 704.7,716.192 705.844,716.217 706.988,716.24 708.131,716.263 709.275,716.284 710.419,716.304 711.563,716.322 712.707,716.338 713.85,716.352 714.994,716.363 716.138,716.371 717.282,716.374 718.425,716.374 719.569,716.368 720.713,716.356 721.857,716.339 723,716.315 724.144,716.284 725.288,716.245 726.432,716.198 727.576,716.142 728.719,716.076 729.863,716.001 731.007,715.915 732.15,715.817 733.294,715.708 734.438,715.586 735.581,715.45 736.725,715.3 737.868,715.135 739.012,714.955 740.155,714.758 741.299,714.545 742.442,714.313 743.585,714.064 744.729,713.796 745.872,713.509 747.015,713.205 748.158,712.882 749.301,712.543 750.443,712.187 751.586,711.814 752.729,711.427 753.871,711.024 755.013,710.605 756.156,710.169 757.298,709.715 758.44,709.242 759.581,708.748 760.723,708.23 761.864,707.687 763.006,707.12 764.147,706.53 765.287,705.922 766.428,705.302 767.569,704.675 768.709,704.046 769.85,703.417 770.99,702.79 772.131,702.166 773.272,701.545 774.412,700.929 775.553,700.321 776.694,699.726 777.835,699.147 778.976,698.588 780.118,698.051 781.26,697.539 782.401,697.052 783.544,696.592 784.686,696.156 785.828,695.745 786.971,695.355 788.113,694.982 789.256,694.622 790.399,694.273 791.542,693.934 792.685,693.606 793.828,693.291 794.971,692.991 796.114,692.707 797.257,692.441 798.4,692.194 799.544,691.965 800.687,691.755 801.831,691.562 802.974,691.387 804.118,691.227 805.261,691.082 806.405,690.949 807.548,690.826 808.692,690.711 809.836,690.602 810.98,690.496 812.123,690.393 813.267,690.294 814.411,690.197 815.554,690.103 816.698,690.013 817.842,689.927 818.985,689.844 820.129,689.766 821.273,689.694 822.417,689.628 823.56,689.569 824.704,689.519 825.848,689.478 826.992,689.447 828.135,689.426 829.279,689.415 830.423,689.415 831.567,689.426 832.71,689.447 833.854,689.478 834.998,689.519 836.142,689.567 837.285,689.623 838.429,689.684 839.573,689.749 840.717,689.816 841.86,689.885 843.004,689.952 844.148,690.018 845.292,690.08 846.435,690.139 847.579,690.193 848.723,690.243 849.867,690.288 851.01,690.328 852.154,690.363 853.298,690.393 854.442,690.417 855.585,690.437 856.729,690.453 857.873,690.465 859.017,690.474 860.161,690.48 861.304,690.482 862.448,690.48 863.592,690.473 864.736,690.461 865.879,690.443 867.023,690.421 868.167,690.397 869.311,690.371 870.454,690.345 871.598,690.322 872.742,690.302 873.886,690.285 875.03,690.272 876.173,690.263 877.317,690.258 878.461,690.259 879.605,690.267 880.748,690.283 881.892,690.305 883.036,690.335 884.18,690.369 885.323,690.408 886.467,690.449 887.611,690.491 888.755,690.531 889.898,690.57 891.042,690.607 892.186,690.641 893.33,690.673 894.473,690.701 895.617,690.725 896.761,690.745 897.905,690.76 899.049,690.77 900.192,690.775 901.336,690.775 902.48,690.768 903.624,690.757 904.767,690.74 905.911,690.718 907.055,690.691 908.199,690.659 909.342,690.622 910.486,690.583 911.63,690.541 912.774,690.497 913.918,690.451 915.061,690.404 916.205,690.356 917.349,690.307 918.493,690.259 919.636,690.211 920.78,690.163 921.924,690.115 923.068,690.067 924.211,690.017 925.355,689.964 926.499,689.908 927.643,689.848 928.786,689.782 929.93,689.711 931.074,689.634 932.217,689.551 933.361,689.462 934.505,689.366 935.649,689.265 936.792,689.157 937.936,689.045 939.08,688.927 940.223,688.803 941.367,688.675 942.51,688.541 943.654,688.403 944.798,688.26 945.941,688.113 947.085,687.962 948.228,687.809 949.372,687.653 950.516,687.495 951.659,687.335 952.803,687.173 953.946,687.01 955.09,686.846 956.233,686.683 957.377,686.521 958.52,686.363 959.664,686.207 960.808,686.056 961.951,685.907 963.095,685.761 964.238,685.615 965.382,685.468 966.526,685.317 967.669,685.16 968.813,684.994 969.956,684.814 971.1,684.619 972.243,684.407 973.386,684.179 974.53,683.936 975.673,683.682 976.816,683.421 977.959,683.155 979.103,682.885 980.246,682.609 981.389,682.327 982.532,682.034 983.675,681.729 984.818,681.41 985.961,681.076 987.104,680.728 988.246,680.365 989.389,679.988 990.531,679.594 991.674,679.185 992.816,678.762 993.958,678.327 995.101,677.885 996.243,677.439 997.385,676.994 998.527,676.553 999.669,676.119 1000.81,675.692 1001.95,675.274 1003.1,674.864 1004.24,674.463 1005.38,674.073 1006.52,673.697 1007.67,673.337 1008.81,672.996 1009.95,672.673 1011.1,672.371 1012.24,672.086 1013.38,671.817 1014.53,671.561 1015.67,671.316 1016.81,671.081 1017.96,670.856 1019.1,670.644 1020.24,670.445 1021.39,670.261 1022.53,670.094 1023.67,669.945 1024.82,669.814 1025.96,669.704 1027.1,669.613 1028.25,669.543 1029.39,669.491 1030.54,669.456 1031.68,669.437 1032.82,669.432 1033.97,669.439 1035.11,669.455 1036.25,669.48 1037.4,669.512 1038.54,669.548 1039.69,669.59 1040.83,669.635 1041.97,669.683 1043.12,669.733 1044.26,669.785 1045.4,669.839 1046.55,669.894 1047.69,669.949 1048.84,670.004 1049.98,670.057 1051.12,670.109 1052.27,670.157 1053.41,670.201 1054.55,670.24 1055.7,670.275 1056.84,670.304 1057.99,670.33 1059.13,670.353 1060.27,670.375 1061.42,670.396 1062.56,670.416 1063.7,670.436 1064.85,670.455 1065.99,670.473 1067.14,670.489 1068.28,670.504 1069.42,670.517 1070.57,670.527 1071.71,670.535 1072.85,670.54 1074,670.542 1075.14,670.54 1076.29,670.534 1077.43,670.524 1078.57,670.509 1079.72,670.487 1080.86,670.459 1082,670.424 1083.15,670.381 1084.29,670.332 1085.44,670.275 1086.58,670.211 1087.72,670.136 1088.87,670.05 1090.01,669.95 1091.15,669.833 1092.3,669.699 1093.44,669.548 1094.58,669.381 1095.73,669.2 1096.87,669.004 1098.02,668.795 1099.16,668.57 1100.3,668.33 1101.45,668.074 1102.59,667.802 1103.73,667.516 1104.87,667.217 1106.02,666.903 1107.16,666.573 1108.3,666.224 1109.45,665.856 1110.59,665.471 1111.73,665.076 1112.87,664.676 1114.02,664.277 1115.16,663.879 1116.3,663.485 1117.44,663.093 1118.59,662.703 1119.73,662.313 1120.87,661.923 1122.01,661.529 1123.16,661.133 1124.3,660.735 1125.44,660.336 1126.58,659.94 1127.73,659.547 1128.87,659.16 1130.01,658.781 1131.15,658.414 1132.3,658.061 1133.44,657.726 1134.58,657.411 1135.73,657.116 1136.87,656.845 1138.01,656.598 1139.16,656.377 1140.3,656.18 1141.44,656.007 1142.59,655.858 1143.73,655.73 1144.87,655.624 1146.02,655.539 1147.16,655.472 1148.3,655.425 1149.45,655.394 1150.59,655.379 1151.74,655.378 1152.88,655.389 1154.02,655.408 1155.17,655.434 1156.31,655.465 1157.45,655.497 1158.6,655.528 1159.74,655.558 1160.89,655.583 1162.03,655.605 1163.17,655.621 1164.32,655.632 1165.46,655.639 1166.6,655.643 1167.75,655.644 1168.89,655.644 1170.04,655.642 1171.18,655.639 1172.32,655.636 1173.47,655.631 1174.61,655.626 1175.76,655.619 1176.9,655.613 1178.04,655.606 1179.19,655.602 1180.33,655.599 1181.47,655.599 1182.62,655.602 1183.76,655.61 1184.91,655.622 1186.05,655.641 1187.19,655.666 1188.34,655.697 1189.48,655.736 1190.62,655.782 1191.77,655.836 1192.91,655.896 1194.06,655.962 1195.2,656.034 1196.34,656.112 1197.49,656.195 1198.63,656.282 1199.77,656.373 1200.92,656.467 1202.06,656.564 1203.21,656.663 1204.35,656.765 1205.49,656.868 1206.64,656.974 1207.78,657.081 1208.92,657.191 1210.07,657.303 1211.21,657.418 1212.35,657.536 1213.5,657.657 1214.64,657.782 1215.79,657.91 1216.93,658.041 1218.07,658.177 1219.22,658.317 1220.36,658.462 1221.5,658.612 1222.65,658.767 1223.79,658.928 1224.93,659.094 1226.08,659.266 1227.22,659.443 1228.36,659.628 1229.51,659.818 1230.65,660.016 1231.8,660.222 1232.94,660.435 1234.08,660.656 1235.23,660.884 1236.37,661.121 1237.51,661.365 1238.66,661.616 1239.8,661.874 1240.94,662.139 1242.08,662.41 1243.23,662.686 1244.37,662.967 1245.51,663.253 1246.66,663.542 1247.8,663.835 1248.94,664.13 1250.09,664.428 1251.23,664.729 1252.37,665.031 1253.52,665.335 1254.66,665.641 1255.8,665.948 1256.94,666.257 1258.09,666.568 1259.23,666.88 1260.37,667.195 1261.52,667.512 1262.66,667.831 1263.8,668.153 1264.95,668.478 1266.09,668.805 1267.23,669.135 1268.37,669.468 1269.52,669.804 1270.66,670.141 1271.8,670.48 1272.95,670.821 1274.09,671.164 1275.23,671.507 1276.37,671.852 1277.52,672.197 1278.66,672.542 1279.8,672.889 1280.94,673.235 1282.09,673.582 1283.23,673.929 1284.37,674.277 1285.52,674.625 1286.66,674.974 1287.8,675.323 1288.94,675.673 1290.09,676.023 1291.23,676.373 1292.37,676.724 1293.52,677.076 1294.66,677.428 1295.8,677.78 1296.94,678.132 1298.09,678.485 1299.23,678.838 1300.37,679.191 1301.51,679.545 1302.66,679.898 1303.8,680.252 1304.94,680.606 1306.09,680.96 1307.23,681.314 1308.37,681.669 1309.51,682.023 1310.66,682.378 1311.8,682.732 1312.94,683.086 1314.09,683.441 1315.23,683.795 1316.37,684.148 1317.51,684.502 1318.66,684.855 1319.8,685.208 1320.94,685.56 1322.08,685.913 1323.23,686.264 1324.37,686.615 1325.51,686.966 1326.66,687.316 1327.8,687.666 1328.94,688.015 1330.08,688.363 1331.23,688.711 1332.37,689.058 1333.51,689.404 1334.66,689.75 1335.8,690.094 1336.94,690.438 1338.08,690.781 1339.23,691.123 1340.37,691.464 1341.51,691.804 1342.66,692.143 1343.8,692.481 1344.94,692.817 1346.08,693.152 1347.23,693.486 1348.37,693.819 1349.51,694.15 1350.66,694.479 1351.8,694.808 1352.94,695.134 1354.08,695.46 1355.23,695.783 1356.37,696.105 1357.51,696.426 1358.66,696.745 1359.8,697.062 1360.94,697.377 1362.08,697.691 1363.23,698.002 1364.37,698.312 1365.51,698.62 1366.66,698.926 1367.8,699.23 1368.94,699.532 1370.09,699.832 1371.23,700.13 1372.37,700.426 1373.51,700.72 1374.66,701.01 1375.8,701.298 1376.94,701.582 1378.09,701.863 1379.23,702.141 1380.37,702.415 1381.52,702.685 1382.66,702.952 1383.8,703.215 1384.95,703.475 1386.09,703.731 1387.23,703.985 1388.38,704.235 1389.52,704.482 1390.66,704.726 1391.81,704.967 1392.95,705.205 1394.09,705.439 1395.24,705.67 1396.38,705.897 1397.52,706.121 1398.67,706.341 1399.81,706.558 1400.95,706.773 1402.1,706.985 1403.24,707.194 1404.38,707.4 1405.53,707.603 1406.67,707.803 1407.81,707.997 1408.96,708.187 1410.1,708.369 1411.24,708.544 1412.39,708.709 1413.53,708.865 1414.67,709.01 1415.82,709.145 1416.96,709.269 1418.11,709.384 1419.25,709.49 1420.39,709.588 1421.54,709.679 1422.68,709.765 1423.82,709.847 1424.97,709.925 1426.11,710 1427.26,710.073 1428.4,710.145 1429.54,710.216 1430.69,710.288 1431.83,710.362 1432.97,710.436 1434.12,710.513 1435.26,710.593 1436.41,710.675 1437.55,710.761 1438.69,710.85 1439.84,710.941 1440.98,711.036 1442.12,711.133 1443.27,711.233 1444.41,711.335 1445.55,711.438 1446.7,711.543 1447.84,711.648 1448.99,711.754 1450.13,711.859 1451.27,711.964 1452.42,712.066 1453.56,712.167 1454.7,712.265 1455.85,712.36 1456.99,712.451 1458.14,712.538 1459.28,712.62 1460.42,712.698 1461.57,712.771 1462.71,712.839 1463.85,712.901 1465,712.956 1466.14,713.006 1467.29,713.048 1468.43,713.083 1469.57,713.111 1470.72,713.132 1471.86,713.146 1473,713.152 1474.15,713.151 1475.29,713.143 1476.44,713.127 1477.58,713.104 1478.72,713.073 1479.87,713.037 1481.01,712.994 1482.15,712.947 1483.3,712.896 1484.44,712.843 1485.59,712.788 1486.73,712.733 1487.87,712.68 1489.02,712.629 1490.16,712.581 1491.3,712.538 1492.45,712.499 1493.59,712.467 1494.74,712.44 1495.88,712.419 1497.02,712.403 1498.17,712.392 1499.31,712.386 1500.45,712.384 1501.6,712.385 1502.74,712.39 1503.89,712.399 1505.03,712.411 1506.17,712.426 1507.32,712.444 1508.46,712.465 1509.6,712.488 1510.75,712.514 1511.89,712.543 1513.04,712.574 1514.18,712.608 1515.32,712.645 1516.47,712.684 1517.61,712.726 1518.75,712.771 1519.9,712.817 1521.04,712.866 1522.19,712.917 1523.33,712.969 1524.47,713.024 1525.62,713.081 1526.76,713.14 1527.9,713.2 1529.05,713.261 1530.19,713.324 1531.34,713.387 1532.48,713.451 1533.62,713.516 1534.77,713.581 1535.91,713.648 1537.05,713.716 1538.2,713.786 1539.34,713.859 1540.49,713.935 1541.63,714.016 1542.77,714.102 1543.92,714.194 1545.06,714.291 1546.2,714.395 1547.35,714.506 1548.49,714.624 1549.64,714.748 1550.78,714.879 1551.92,715.016 1553.07,715.158 1554.21,715.306 1555.35,715.458 1556.5,715.613 1557.64,715.772 1558.78,715.933 1559.93,716.096 1561.07,716.26 1562.21,716.427 1563.36,716.595 1564.5,716.765 1565.65,716.936 1566.79,717.109 1567.93,717.283 1569.08,717.46 1570.22,717.639 1571.36,717.82 1572.51,718.003 1573.65,718.189 1574.79,718.377 1575.94,718.568 1577.08,718.761 1578.22,718.956 1579.37,719.154 1580.51,719.354 1581.65,719.556 1582.8,719.76 1583.94,719.966 1585.08,720.173 1586.23,720.381 1587.37,720.591 1588.51,720.803 1589.66,721.016 1590.8,721.23 1591.94,721.446 1593.09,721.665 1594.23,721.885 1595.38,722.107 1596.52,722.331 1597.66,722.558 1598.81,722.787 1599.95,723.018 1601.09,723.253 1602.24,723.489 1603.38,723.728 1604.52,723.969 1605.66,724.213 1606.81,724.459 1607.95,724.707 1609.09,724.957 1610.24,725.21 1611.38,725.464 1612.52,725.72 1613.67,725.977 1614.81,726.236 1615.95,726.497 1617.1,726.758 1618.24,727.021 1619.38,727.284 1620.53,727.548 1621.67,727.812 1622.81,728.076 1623.96,728.34 1625.1,728.604 1626.24,728.867 1627.39,729.13 1628.53,729.392 1629.67,729.654 1630.82,729.915 1631.96,730.175 1633.1,730.434 1634.25,730.692 1635.39,730.949 1636.53,731.205 1637.68,731.461 1638.82,731.716 1639.96,731.969 1641.11,732.222 1642.25,732.474 1643.39,732.725 1644.53,732.975 1645.68,733.224 1646.82,733.472 1647.96,733.719 1649.11,733.965 1650.25,734.21 1651.39,734.455 "/>
<path clip-path="url(#clip280)" d="M319.649 328.94 L827.145 328.94 L827.145 225.26 L319.649 225.26  Z" fill="#ffffff" fill-rule="evenodd" fill-opacity="1"/>
<polyline clip-path="url(#clip280)" style="stroke:#000000; stroke-linecap:round; stroke-linejoin:round; stroke-width:4; stroke-opacity:1; fill:none" points="319.649,328.94 827.145,328.94 827.145,225.26 319.649,225.26 319.649,328.94 "/>
<polyline clip-path="url(#clip280)" style="stroke:#008000; stroke-linecap:round; stroke-linejoin:round; stroke-width:8; stroke-opacity:0.5; fill:none" stroke-dasharray="32, 20" points="343.018,277.1 483.232,277.1 "/>
<path clip-path="url(#clip280)" d="M534.472 262.482 L534.472 267.412 Q532.111 265.213 529.425 264.125 Q526.763 263.037 523.754 263.037 Q517.828 263.037 514.68 266.672 Q511.532 270.283 511.532 277.134 Q511.532 283.963 514.68 287.597 Q517.828 291.208 523.754 291.208 Q526.763 291.208 529.425 290.12 Q532.111 289.033 534.472 286.833 L534.472 291.718 Q532.018 293.384 529.263 294.218 Q526.532 295.051 523.476 295.051 Q515.629 295.051 511.115 290.259 Q506.602 285.445 506.602 277.134 Q506.602 268.801 511.115 264.01 Q515.629 259.195 523.476 259.195 Q526.578 259.195 529.31 260.028 Q532.064 260.838 534.472 262.482 Z" fill="#000000" fill-rule="nonzero" fill-opacity="1" /><path clip-path="url(#clip280)" d="M551.555 271.44 Q548.129 271.44 546.138 274.125 Q544.148 276.787 544.148 281.44 Q544.148 286.093 546.115 288.778 Q548.106 291.44 551.555 291.44 Q554.958 291.44 556.948 288.755 Q558.939 286.07 558.939 281.44 Q558.939 276.834 556.948 274.148 Q554.958 271.44 551.555 271.44 M551.555 267.829 Q557.11 267.829 560.282 271.44 Q563.453 275.051 563.453 281.44 Q563.453 287.806 560.282 291.44 Q557.11 295.051 551.555 295.051 Q545.976 295.051 542.805 291.44 Q539.657 287.806 539.657 281.44 Q539.657 275.051 542.805 271.44 Q545.976 267.829 551.555 267.829 Z" fill="#000000" fill-rule="nonzero" fill-opacity="1" /><path clip-path="url(#clip280)" d="M592.064 278.732 L592.064 294.38 L587.805 294.38 L587.805 278.871 Q587.805 275.19 586.37 273.361 Q584.934 271.533 582.064 271.533 Q578.615 271.533 576.624 273.732 Q574.634 275.931 574.634 279.727 L574.634 294.38 L570.351 294.38 L570.351 268.454 L574.634 268.454 L574.634 272.482 Q576.161 270.144 578.221 268.986 Q580.305 267.829 583.013 267.829 Q587.481 267.829 589.772 270.607 Q592.064 273.361 592.064 278.732 Z" fill="#000000" fill-rule="nonzero" fill-opacity="1" /><path clip-path="url(#clip280)" d="M604.772 261.093 L604.772 268.454 L613.545 268.454 L613.545 271.764 L604.772 271.764 L604.772 285.838 Q604.772 289.009 605.629 289.912 Q606.508 290.815 609.17 290.815 L613.545 290.815 L613.545 294.38 L609.17 294.38 Q604.24 294.38 602.365 292.551 Q600.49 290.699 600.49 285.838 L600.49 271.764 L597.365 271.764 L597.365 268.454 L600.49 268.454 L600.49 261.093 L604.772 261.093 Z" fill="#000000" fill-rule="nonzero" fill-opacity="1" /><path clip-path="url(#clip280)" d="M619.147 268.454 L623.406 268.454 L623.406 294.38 L619.147 294.38 L619.147 268.454 M619.147 258.361 L623.406 258.361 L623.406 263.755 L619.147 263.755 L619.147 258.361 Z" fill="#000000" fill-rule="nonzero" fill-opacity="1" /><path clip-path="url(#clip280)" d="M653.869 278.732 L653.869 294.38 L649.61 294.38 L649.61 278.871 Q649.61 275.19 648.175 273.361 Q646.74 271.533 643.869 271.533 Q640.42 271.533 638.43 273.732 Q636.439 275.931 636.439 279.727 L636.439 294.38 L632.156 294.38 L632.156 268.454 L636.439 268.454 L636.439 272.482 Q637.967 270.144 640.027 268.986 Q642.11 267.829 644.818 267.829 Q649.286 267.829 651.578 270.607 Q653.869 273.361 653.869 278.732 Z" fill="#000000" fill-rule="nonzero" fill-opacity="1" /><path clip-path="url(#clip280)" d="M661.925 284.148 L661.925 268.454 L666.184 268.454 L666.184 283.986 Q666.184 287.667 667.619 289.519 Q669.054 291.347 671.925 291.347 Q675.374 291.347 677.364 289.148 Q679.378 286.949 679.378 283.153 L679.378 268.454 L683.638 268.454 L683.638 294.38 L679.378 294.38 L679.378 290.398 Q677.827 292.759 675.767 293.917 Q673.73 295.051 671.022 295.051 Q666.554 295.051 664.24 292.273 Q661.925 289.495 661.925 284.148 M672.642 267.829 L672.642 267.829 Z" fill="#000000" fill-rule="nonzero" fill-opacity="1" /><path clip-path="url(#clip280)" d="M704.193 281.347 Q699.031 281.347 697.04 282.528 Q695.05 283.708 695.05 286.556 Q695.05 288.824 696.531 290.167 Q698.036 291.486 700.605 291.486 Q704.147 291.486 706.276 288.986 Q708.429 286.463 708.429 282.296 L708.429 281.347 L704.193 281.347 M712.688 279.588 L712.688 294.38 L708.429 294.38 L708.429 290.445 Q706.971 292.806 704.795 293.94 Q702.619 295.051 699.471 295.051 Q695.489 295.051 693.128 292.829 Q690.79 290.583 690.79 286.833 Q690.79 282.458 693.707 280.236 Q696.647 278.014 702.457 278.014 L708.429 278.014 L708.429 277.597 Q708.429 274.658 706.485 273.06 Q704.563 271.44 701.068 271.44 Q698.846 271.44 696.739 271.972 Q694.633 272.505 692.688 273.57 L692.688 269.634 Q695.026 268.732 697.225 268.292 Q699.425 267.829 701.508 267.829 Q707.133 267.829 709.911 270.746 Q712.688 273.662 712.688 279.588 Z" fill="#000000" fill-rule="nonzero" fill-opacity="1" /><path clip-path="url(#clip280)" d="M725.674 261.093 L725.674 268.454 L734.448 268.454 L734.448 271.764 L725.674 271.764 L725.674 285.838 Q725.674 289.009 726.531 289.912 Q727.411 290.815 730.073 290.815 L734.448 290.815 L734.448 294.38 L730.073 294.38 Q725.142 294.38 723.267 292.551 Q721.392 290.699 721.392 285.838 L721.392 271.764 L718.267 271.764 L718.267 268.454 L721.392 268.454 L721.392 261.093 L725.674 261.093 Z" fill="#000000" fill-rule="nonzero" fill-opacity="1" /><path clip-path="url(#clip280)" d="M740.049 268.454 L744.309 268.454 L744.309 294.38 L740.049 294.38 L740.049 268.454 M740.049 258.361 L744.309 258.361 L744.309 263.755 L740.049 263.755 L740.049 258.361 Z" fill="#000000" fill-rule="nonzero" fill-opacity="1" /><path clip-path="url(#clip280)" d="M763.267 271.44 Q759.841 271.44 757.85 274.125 Q755.859 276.787 755.859 281.44 Q755.859 286.093 757.827 288.778 Q759.818 291.44 763.267 291.44 Q766.67 291.44 768.66 288.755 Q770.651 286.07 770.651 281.44 Q770.651 276.834 768.66 274.148 Q766.67 271.44 763.267 271.44 M763.267 267.829 Q768.822 267.829 771.994 271.44 Q775.165 275.051 775.165 281.44 Q775.165 287.806 771.994 291.44 Q768.822 295.051 763.267 295.051 Q757.688 295.051 754.517 291.44 Q751.369 287.806 751.369 281.44 Q751.369 275.051 754.517 271.44 Q757.688 267.829 763.267 267.829 Z" fill="#000000" fill-rule="nonzero" fill-opacity="1" /><path clip-path="url(#clip280)" d="M803.776 278.732 L803.776 294.38 L799.517 294.38 L799.517 278.871 Q799.517 275.19 798.081 273.361 Q796.646 271.533 793.776 271.533 Q790.327 271.533 788.336 273.732 Q786.345 275.931 786.345 279.727 L786.345 294.38 L782.063 294.38 L782.063 268.454 L786.345 268.454 L786.345 272.482 Q787.873 270.144 789.933 268.986 Q792.017 267.829 794.725 267.829 Q799.193 267.829 801.484 270.607 Q803.776 273.361 803.776 278.732 Z" fill="#000000" fill-rule="nonzero" fill-opacity="1" /></svg>
