<?xml version="1.0" encoding="utf-8"?>
<svg xmlns="http://www.w3.org/2000/svg" xmlns:xlink="http://www.w3.org/1999/xlink" width="600" height="400" viewBox="0 0 2400 1600">
<defs>
  <clipPath id="clip010">
    <rect x="0" y="0" width="2400" height="1600"/>
  </clipPath>
</defs>
<path clip-path="url(#clip010)" d="M0 1600 L2400 1600 L2400 0 L0 0  Z" fill="#ffffff" fill-rule="evenodd" fill-opacity="1"/>
<defs>
  <clipPath id="clip011">
    <rect x="219" y="123" width="2135" height="1301"/>
  </clipPath>
</defs>
<path clip-path="url(#clip010)" d="M219.033 1423.18 L2352.76 1423.18 L2352.76 183.952 L219.033 183.952  Z" fill="#ffffff" fill-rule="evenodd" fill-opacity="1"/>
<defs>
  <clipPath id="clip012">
    <rect x="219" y="183" width="2135" height="1240"/>
  </clipPath>
</defs>
<polyline clip-path="url(#clip012)" style="stroke:#000000; stroke-linecap:round; stroke-linejoin:round; stroke-width:2; stroke-opacity:0.1; fill:none" points="219.033,1423.18 219.033,183.952 "/>
<polyline clip-path="url(#clip012)" style="stroke:#000000; stroke-linecap:round; stroke-linejoin:round; stroke-width:2; stroke-opacity:0.1; fill:none" points="645.778,1423.18 645.778,183.952 "/>
<polyline clip-path="url(#clip012)" style="stroke:#000000; stroke-linecap:round; stroke-linejoin:round; stroke-width:2; stroke-opacity:0.1; fill:none" points="1072.52,1423.18 1072.52,183.952 "/>
<polyline clip-path="url(#clip012)" style="stroke:#000000; stroke-linecap:round; stroke-linejoin:round; stroke-width:2; stroke-opacity:0.1; fill:none" points="1499.27,1423.18 1499.27,183.952 "/>
<polyline clip-path="url(#clip012)" style="stroke:#000000; stroke-linecap:round; stroke-linejoin:round; stroke-width:2; stroke-opacity:0.1; fill:none" points="1926.01,1423.18 1926.01,183.952 "/>
<polyline clip-path="url(#clip012)" style="stroke:#000000; stroke-linecap:round; stroke-linejoin:round; stroke-width:2; stroke-opacity:0.1; fill:none" points="2352.76,1423.18 2352.76,183.952 "/>
<polyline clip-path="url(#clip012)" style="stroke:#000000; stroke-linecap:round; stroke-linejoin:round; stroke-width:2; stroke-opacity:0.1; fill:none" points="219.033,1334.66 2352.76,1334.66 "/>
<polyline clip-path="url(#clip012)" style="stroke:#000000; stroke-linecap:round; stroke-linejoin:round; stroke-width:2; stroke-opacity:0.1; fill:none" points="219.033,1113.37 2352.76,1113.37 "/>
<polyline clip-path="url(#clip012)" style="stroke:#000000; stroke-linecap:round; stroke-linejoin:round; stroke-width:2; stroke-opacity:0.1; fill:none" points="219.033,892.082 2352.76,892.082 "/>
<polyline clip-path="url(#clip012)" style="stroke:#000000; stroke-linecap:round; stroke-linejoin:round; stroke-width:2; stroke-opacity:0.1; fill:none" points="219.033,670.792 2352.76,670.792 "/>
<polyline clip-path="url(#clip012)" style="stroke:#000000; stroke-linecap:round; stroke-linejoin:round; stroke-width:2; stroke-opacity:0.1; fill:none" points="219.033,449.501 2352.76,449.501 "/>
<polyline clip-path="url(#clip012)" style="stroke:#000000; stroke-linecap:round; stroke-linejoin:round; stroke-width:2; stroke-opacity:0.1; fill:none" points="219.033,228.21 2352.76,228.21 "/>
<polyline clip-path="url(#clip010)" style="stroke:#000000; stroke-linecap:round; stroke-linejoin:round; stroke-width:4; stroke-opacity:1; fill:none" points="219.033,1423.18 2352.76,1423.18 "/>
<polyline clip-path="url(#clip010)" style="stroke:#000000; stroke-linecap:round; stroke-linejoin:round; stroke-width:4; stroke-opacity:1; fill:none" points="219.033,1423.18 219.033,1404.28 "/>
<polyline clip-path="url(#clip010)" style="stroke:#000000; stroke-linecap:round; stroke-linejoin:round; stroke-width:4; stroke-opacity:1; fill:none" points="645.778,1423.18 645.778,1404.28 "/>
<polyline clip-path="url(#clip010)" style="stroke:#000000; stroke-linecap:round; stroke-linejoin:round; stroke-width:4; stroke-opacity:1; fill:none" points="1072.52,1423.18 1072.52,1404.28 "/>
<polyline clip-path="url(#clip010)" style="stroke:#000000; stroke-linecap:round; stroke-linejoin:round; stroke-width:4; stroke-opacity:1; fill:none" points="1499.27,1423.18 1499.27,1404.28 "/>
<polyline clip-path="url(#clip010)" style="stroke:#000000; stroke-linecap:round; stroke-linejoin:round; stroke-width:4; stroke-opacity:1; fill:none" points="1926.01,1423.18 1926.01,1404.28 "/>
<polyline clip-path="url(#clip010)" style="stroke:#000000; stroke-linecap:round; stroke-linejoin:round; stroke-width:4; stroke-opacity:1; fill:none" points="2352.76,1423.18 2352.76,1404.28 "/>
<path clip-path="url(#clip010)" d="M219.033 1454.1 Q215.422 1454.1 213.593 1457.66 Q211.788 1461.2 211.788 1468.33 Q211.788 1475.44 213.593 1479.01 Q215.422 1482.55 219.033 1482.55 Q222.667 1482.55 224.473 1479.01 Q226.301 1475.44 226.301 1468.33 Q226.301 1461.2 224.473 1457.66 Q222.667 1454.1 219.033 1454.1 M219.033 1450.39 Q224.843 1450.39 227.899 1455 Q230.977 1459.58 230.977 1468.33 Q230.977 1477.06 227.899 1481.67 Q224.843 1486.25 219.033 1486.25 Q213.223 1486.25 210.144 1481.67 Q207.089 1477.06 207.089 1468.33 Q207.089 1459.58 210.144 1455 Q213.223 1450.39 219.033 1450.39 Z" fill="#000000" fill-rule="nonzero" fill-opacity="1" /><path clip-path="url(#clip010)" d="M636.16 1481.64 L643.798 1481.64 L643.798 1455.28 L635.488 1456.95 L635.488 1452.69 L643.752 1451.02 L648.428 1451.02 L648.428 1481.64 L656.067 1481.64 L656.067 1485.58 L636.16 1485.58 L636.16 1481.64 Z" fill="#000000" fill-rule="nonzero" fill-opacity="1" /><path clip-path="url(#clip010)" d="M1067.17 1481.64 L1083.49 1481.64 L1083.49 1485.58 L1061.55 1485.58 L1061.55 1481.64 Q1064.21 1478.89 1068.8 1474.26 Q1073.4 1469.61 1074.58 1468.27 Q1076.83 1465.74 1077.71 1464.01 Q1078.61 1462.25 1078.61 1460.56 Q1078.61 1457.8 1076.67 1456.07 Q1074.74 1454.33 1071.64 1454.33 Q1069.44 1454.33 1066.99 1455.09 Q1064.56 1455.86 1061.78 1457.41 L1061.78 1452.69 Q1064.61 1451.55 1067.06 1450.97 Q1069.51 1450.39 1071.55 1450.39 Q1076.92 1450.39 1080.11 1453.08 Q1083.31 1455.77 1083.31 1460.26 Q1083.31 1462.39 1082.5 1464.31 Q1081.71 1466.2 1079.61 1468.8 Q1079.03 1469.47 1075.92 1472.69 Q1072.82 1475.88 1067.17 1481.64 Z" fill="#000000" fill-rule="nonzero" fill-opacity="1" /><path clip-path="url(#clip010)" d="M1503.51 1466.95 Q1506.87 1467.66 1508.75 1469.93 Q1510.64 1472.2 1510.64 1475.53 Q1510.64 1480.65 1507.13 1483.45 Q1503.61 1486.25 1497.13 1486.25 Q1494.95 1486.25 1492.63 1485.81 Q1490.34 1485.39 1487.89 1484.54 L1487.89 1480.02 Q1489.83 1481.16 1492.15 1481.74 Q1494.46 1482.32 1496.99 1482.32 Q1501.38 1482.32 1503.68 1480.58 Q1505.99 1478.84 1505.99 1475.53 Q1505.99 1472.48 1503.84 1470.77 Q1501.71 1469.03 1497.89 1469.03 L1493.86 1469.03 L1493.86 1465.19 L1498.07 1465.19 Q1501.52 1465.19 1503.35 1463.82 Q1505.18 1462.43 1505.18 1459.84 Q1505.18 1457.18 1503.28 1455.77 Q1501.41 1454.33 1497.89 1454.33 Q1495.97 1454.33 1493.77 1454.75 Q1491.57 1455.16 1488.93 1456.04 L1488.93 1451.88 Q1491.59 1451.14 1493.91 1450.77 Q1496.25 1450.39 1498.31 1450.39 Q1503.63 1450.39 1506.73 1452.83 Q1509.83 1455.23 1509.83 1459.35 Q1509.83 1462.22 1508.19 1464.21 Q1506.55 1466.18 1503.51 1466.95 Z" fill="#000000" fill-rule="nonzero" fill-opacity="1" /><path clip-path="url(#clip010)" d="M1929.02 1455.09 L1917.22 1473.54 L1929.02 1473.54 L1929.02 1455.09 M1927.79 1451.02 L1933.67 1451.02 L1933.67 1473.54 L1938.6 1473.54 L1938.6 1477.43 L1933.67 1477.43 L1933.67 1485.58 L1929.02 1485.58 L1929.02 1477.43 L1913.42 1477.43 L1913.42 1472.92 L1927.79 1451.02 Z" fill="#000000" fill-rule="nonzero" fill-opacity="1" /><path clip-path="url(#clip010)" d="M2343.03 1451.02 L2361.39 1451.02 L2361.39 1454.96 L2347.32 1454.96 L2347.32 1463.43 Q2348.33 1463.08 2349.35 1462.92 Q2350.37 1462.73 2351.39 1462.73 Q2357.18 1462.73 2360.56 1465.9 Q2363.94 1469.08 2363.94 1474.49 Q2363.94 1480.07 2360.46 1483.17 Q2356.99 1486.25 2350.67 1486.25 Q2348.5 1486.25 2346.23 1485.88 Q2343.98 1485.51 2341.58 1484.77 L2341.58 1480.07 Q2343.66 1481.2 2345.88 1481.76 Q2348.1 1482.32 2350.58 1482.32 Q2354.58 1482.32 2356.92 1480.21 Q2359.26 1478.1 2359.26 1474.49 Q2359.26 1470.88 2356.92 1468.77 Q2354.58 1466.67 2350.58 1466.67 Q2348.71 1466.67 2346.83 1467.08 Q2344.98 1467.5 2343.03 1468.38 L2343.03 1451.02 Z" fill="#000000" fill-rule="nonzero" fill-opacity="1" /><path clip-path="url(#clip010)" d="M1270.57 1561.55 Q1271.71 1563.08 1275.15 1563.08 L1277.99 1563.08 L1277.99 1568.04 L1274.45 1568.04 Q1268.72 1568.04 1266.11 1564.99 Q1263.5 1561.87 1263.5 1555.12 L1263.5 1538.25 L1250.14 1538.25 L1250.14 1532.4 L1283.01 1532.4 L1283.01 1538.25 L1269.49 1538.25 L1269.49 1555.47 Q1269.49 1560.09 1270.57 1561.55 Z" fill="#000000" fill-rule="nonzero" fill-opacity="1" /><path clip-path="url(#clip010)" d="M1294.28 1562.63 L1304.78 1562.63 L1304.78 1526.38 L1293.36 1528.67 L1293.36 1522.82 L1304.72 1520.52 L1311.15 1520.52 L1311.15 1562.63 L1321.65 1562.63 L1321.65 1568.04 L1294.28 1568.04 L1294.28 1562.63 Z" fill="#000000" fill-rule="nonzero" fill-opacity="1" /><polyline clip-path="url(#clip010)" style="stroke:#000000; stroke-linecap:round; stroke-linejoin:round; stroke-width:4; stroke-opacity:1; fill:none" points="219.033,1423.18 219.033,183.952 "/>
<polyline clip-path="url(#clip010)" style="stroke:#000000; stroke-linecap:round; stroke-linejoin:round; stroke-width:4; stroke-opacity:1; fill:none" points="219.033,1334.66 237.931,1334.66 "/>
<polyline clip-path="url(#clip010)" style="stroke:#000000; stroke-linecap:round; stroke-linejoin:round; stroke-width:4; stroke-opacity:1; fill:none" points="219.033,1113.37 237.931,1113.37 "/>
<polyline clip-path="url(#clip010)" style="stroke:#000000; stroke-linecap:round; stroke-linejoin:round; stroke-width:4; stroke-opacity:1; fill:none" points="219.033,892.082 237.931,892.082 "/>
<polyline clip-path="url(#clip010)" style="stroke:#000000; stroke-linecap:round; stroke-linejoin:round; stroke-width:4; stroke-opacity:1; fill:none" points="219.033,670.792 237.931,670.792 "/>
<polyline clip-path="url(#clip010)" style="stroke:#000000; stroke-linecap:round; stroke-linejoin:round; stroke-width:4; stroke-opacity:1; fill:none" points="219.033,449.501 237.931,449.501 "/>
<polyline clip-path="url(#clip010)" style="stroke:#000000; stroke-linecap:round; stroke-linejoin:round; stroke-width:4; stroke-opacity:1; fill:none" points="219.033,228.21 237.931,228.21 "/>
<path clip-path="url(#clip010)" d="M116.668 1348.01 L124.306 1348.01 L124.306 1321.64 L115.996 1323.31 L115.996 1319.05 L124.26 1317.38 L128.936 1317.38 L128.936 1348.01 L136.575 1348.01 L136.575 1351.94 L116.668 1351.94 L116.668 1348.01 Z" fill="#000000" fill-rule="nonzero" fill-opacity="1" /><path clip-path="url(#clip010)" d="M146.019 1346.06 L150.903 1346.06 L150.903 1351.94 L146.019 1351.94 L146.019 1346.06 Z" fill="#000000" fill-rule="nonzero" fill-opacity="1" /><path clip-path="url(#clip010)" d="M171.089 1320.46 Q167.477 1320.46 165.649 1324.03 Q163.843 1327.57 163.843 1334.7 Q163.843 1341.8 165.649 1345.37 Q167.477 1348.91 171.089 1348.91 Q174.723 1348.91 176.528 1345.37 Q178.357 1341.8 178.357 1334.7 Q178.357 1327.57 176.528 1324.03 Q174.723 1320.46 171.089 1320.46 M171.089 1316.76 Q176.899 1316.76 179.954 1321.37 Q183.033 1325.95 183.033 1334.7 Q183.033 1343.43 179.954 1348.03 Q176.899 1352.61 171.089 1352.61 Q165.278 1352.61 162.2 1348.03 Q159.144 1343.43 159.144 1334.7 Q159.144 1325.95 162.2 1321.37 Q165.278 1316.76 171.089 1316.76 Z" fill="#000000" fill-rule="nonzero" fill-opacity="1" /><path clip-path="url(#clip010)" d="M117.663 1126.72 L125.302 1126.72 L125.302 1100.35 L116.992 1102.02 L116.992 1097.76 L125.255 1096.09 L129.931 1096.09 L129.931 1126.72 L137.57 1126.72 L137.57 1130.65 L117.663 1130.65 L117.663 1126.72 Z" fill="#000000" fill-rule="nonzero" fill-opacity="1" /><path clip-path="url(#clip010)" d="M147.015 1124.77 L151.899 1124.77 L151.899 1130.65 L147.015 1130.65 L147.015 1124.77 Z" fill="#000000" fill-rule="nonzero" fill-opacity="1" /><path clip-path="url(#clip010)" d="M162.13 1096.09 L180.487 1096.09 L180.487 1100.03 L166.413 1100.03 L166.413 1108.5 Q167.431 1108.15 168.45 1107.99 Q169.468 1107.81 170.487 1107.81 Q176.274 1107.81 179.653 1110.98 Q183.033 1114.15 183.033 1119.57 Q183.033 1125.14 179.561 1128.25 Q176.089 1131.32 169.769 1131.32 Q167.593 1131.32 165.325 1130.95 Q163.079 1130.58 160.672 1129.84 L160.672 1125.14 Q162.755 1126.28 164.977 1126.83 Q167.2 1127.39 169.677 1127.39 Q173.681 1127.39 176.019 1125.28 Q178.357 1123.18 178.357 1119.57 Q178.357 1115.95 176.019 1113.85 Q173.681 1111.74 169.677 1111.74 Q167.802 1111.74 165.927 1112.16 Q164.075 1112.57 162.13 1113.45 L162.13 1096.09 Z" fill="#000000" fill-rule="nonzero" fill-opacity="1" /><path clip-path="url(#clip010)" d="M119.885 905.427 L136.204 905.427 L136.204 909.362 L114.26 909.362 L114.26 905.427 Q116.922 902.672 121.505 898.043 Q126.112 893.39 127.292 892.048 Q129.538 889.524 130.417 887.788 Q131.32 886.029 131.32 884.339 Q131.32 881.585 129.376 879.849 Q127.455 878.112 124.353 878.112 Q122.154 878.112 119.7 878.876 Q117.269 879.64 114.492 881.191 L114.492 876.469 Q117.316 875.335 119.769 874.756 Q122.223 874.177 124.26 874.177 Q129.63 874.177 132.825 876.862 Q136.019 879.548 136.019 884.038 Q136.019 886.168 135.209 888.089 Q134.422 889.987 132.316 892.58 Q131.737 893.251 128.635 896.469 Q125.533 899.663 119.885 905.427 Z" fill="#000000" fill-rule="nonzero" fill-opacity="1" /><path clip-path="url(#clip010)" d="M146.019 903.483 L150.903 903.483 L150.903 909.362 L146.019 909.362 L146.019 903.483 Z" fill="#000000" fill-rule="nonzero" fill-opacity="1" /><path clip-path="url(#clip010)" d="M171.089 877.881 Q167.477 877.881 165.649 881.446 Q163.843 884.987 163.843 892.117 Q163.843 899.223 165.649 902.788 Q167.477 906.33 171.089 906.33 Q174.723 906.33 176.528 902.788 Q178.357 899.223 178.357 892.117 Q178.357 884.987 176.528 881.446 Q174.723 877.881 171.089 877.881 M171.089 874.177 Q176.899 874.177 179.954 878.784 Q183.033 883.367 183.033 892.117 Q183.033 900.844 179.954 905.45 Q176.899 910.034 171.089 910.034 Q165.278 910.034 162.2 905.45 Q159.144 900.844 159.144 892.117 Q159.144 883.367 162.2 878.784 Q165.278 874.177 171.089 874.177 Z" fill="#000000" fill-rule="nonzero" fill-opacity="1" /><path clip-path="url(#clip010)" d="M120.88 684.136 L137.2 684.136 L137.2 688.072 L115.256 688.072 L115.256 684.136 Q117.918 681.382 122.501 676.752 Q127.107 672.099 128.288 670.757 Q130.533 668.234 131.413 666.498 Q132.316 664.738 132.316 663.049 Q132.316 660.294 130.371 658.558 Q128.45 656.822 125.348 656.822 Q123.149 656.822 120.695 657.586 Q118.265 658.35 115.487 659.9 L115.487 655.178 Q118.311 654.044 120.765 653.465 Q123.218 652.887 125.255 652.887 Q130.626 652.887 133.82 655.572 Q137.015 658.257 137.015 662.748 Q137.015 664.877 136.204 666.799 Q135.417 668.697 133.311 671.289 Q132.732 671.961 129.63 675.178 Q126.529 678.373 120.88 684.136 Z" fill="#000000" fill-rule="nonzero" fill-opacity="1" /><path clip-path="url(#clip010)" d="M147.015 682.192 L151.899 682.192 L151.899 688.072 L147.015 688.072 L147.015 682.192 Z" fill="#000000" fill-rule="nonzero" fill-opacity="1" /><path clip-path="url(#clip010)" d="M162.13 653.512 L180.487 653.512 L180.487 657.447 L166.413 657.447 L166.413 665.919 Q167.431 665.572 168.45 665.41 Q169.468 665.224 170.487 665.224 Q176.274 665.224 179.653 668.396 Q183.033 671.567 183.033 676.984 Q183.033 682.562 179.561 685.664 Q176.089 688.743 169.769 688.743 Q167.593 688.743 165.325 688.373 Q163.079 688.002 160.672 687.261 L160.672 682.562 Q162.755 683.697 164.977 684.252 Q167.2 684.808 169.677 684.808 Q173.681 684.808 176.019 682.701 Q178.357 680.595 178.357 676.984 Q178.357 673.373 176.019 671.266 Q173.681 669.16 169.677 669.16 Q167.802 669.16 165.927 669.576 Q164.075 669.993 162.13 670.873 L162.13 653.512 Z" fill="#000000" fill-rule="nonzero" fill-opacity="1" /><path clip-path="url(#clip010)" d="M130.024 448.147 Q133.38 448.864 135.255 451.133 Q137.154 453.401 137.154 456.735 Q137.154 461.85 133.635 464.651 Q130.117 467.452 123.635 467.452 Q121.459 467.452 119.144 467.012 Q116.853 466.596 114.399 465.739 L114.399 461.225 Q116.343 462.36 118.658 462.938 Q120.973 463.517 123.496 463.517 Q127.894 463.517 130.186 461.781 Q132.501 460.045 132.501 456.735 Q132.501 453.679 130.348 451.966 Q128.218 450.23 124.399 450.23 L120.371 450.23 L120.371 446.388 L124.584 446.388 Q128.033 446.388 129.862 445.022 Q131.691 443.633 131.691 441.04 Q131.691 438.378 129.792 436.966 Q127.917 435.531 124.399 435.531 Q122.478 435.531 120.279 435.948 Q118.08 436.364 115.441 437.244 L115.441 433.077 Q118.103 432.337 120.418 431.966 Q122.755 431.596 124.816 431.596 Q130.14 431.596 133.242 434.026 Q136.343 436.434 136.343 440.554 Q136.343 443.425 134.7 445.415 Q133.056 447.383 130.024 448.147 Z" fill="#000000" fill-rule="nonzero" fill-opacity="1" /><path clip-path="url(#clip010)" d="M146.019 460.901 L150.903 460.901 L150.903 466.781 L146.019 466.781 L146.019 460.901 Z" fill="#000000" fill-rule="nonzero" fill-opacity="1" /><path clip-path="url(#clip010)" d="M171.089 435.3 Q167.477 435.3 165.649 438.864 Q163.843 442.406 163.843 449.536 Q163.843 456.642 165.649 460.207 Q167.477 463.749 171.089 463.749 Q174.723 463.749 176.528 460.207 Q178.357 456.642 178.357 449.536 Q178.357 442.406 176.528 438.864 Q174.723 435.3 171.089 435.3 M171.089 431.596 Q176.899 431.596 179.954 436.202 Q183.033 440.786 183.033 449.536 Q183.033 458.262 179.954 462.869 Q176.899 467.452 171.089 467.452 Q165.278 467.452 162.2 462.869 Q159.144 458.262 159.144 449.536 Q159.144 440.786 162.2 436.202 Q165.278 431.596 171.089 431.596 Z" fill="#000000" fill-rule="nonzero" fill-opacity="1" /><path clip-path="url(#clip010)" d="M131.019 226.856 Q134.376 227.574 136.251 229.842 Q138.149 232.111 138.149 235.444 Q138.149 240.56 134.63 243.361 Q131.112 246.162 124.63 246.162 Q122.455 246.162 120.14 245.722 Q117.848 245.305 115.394 244.449 L115.394 239.935 Q117.339 241.069 119.654 241.648 Q121.968 242.226 124.492 242.226 Q128.89 242.226 131.181 240.49 Q133.496 238.754 133.496 235.444 Q133.496 232.388 131.343 230.676 Q129.214 228.939 125.394 228.939 L121.367 228.939 L121.367 225.097 L125.58 225.097 Q129.029 225.097 130.857 223.731 Q132.686 222.342 132.686 219.75 Q132.686 217.088 130.788 215.676 Q128.913 214.24 125.394 214.24 Q123.473 214.24 121.274 214.657 Q119.075 215.074 116.436 215.953 L116.436 211.787 Q119.098 211.046 121.413 210.676 Q123.751 210.305 125.811 210.305 Q131.135 210.305 134.237 212.736 Q137.339 215.143 137.339 219.264 Q137.339 222.134 135.695 224.125 Q134.052 226.092 131.019 226.856 Z" fill="#000000" fill-rule="nonzero" fill-opacity="1" /><path clip-path="url(#clip010)" d="M147.015 239.611 L151.899 239.611 L151.899 245.49 L147.015 245.49 L147.015 239.611 Z" fill="#000000" fill-rule="nonzero" fill-opacity="1" /><path clip-path="url(#clip010)" d="M162.13 210.93 L180.487 210.93 L180.487 214.865 L166.413 214.865 L166.413 223.338 Q167.431 222.99 168.45 222.828 Q169.468 222.643 170.487 222.643 Q176.274 222.643 179.653 225.814 Q183.033 228.986 183.033 234.402 Q183.033 239.981 179.561 243.083 Q176.089 246.162 169.769 246.162 Q167.593 246.162 165.325 245.791 Q163.079 245.421 160.672 244.68 L160.672 239.981 Q162.755 241.115 164.977 241.671 Q167.2 242.226 169.677 242.226 Q173.681 242.226 176.019 240.12 Q178.357 238.013 178.357 234.402 Q178.357 230.791 176.019 228.685 Q173.681 226.578 169.677 226.578 Q167.802 226.578 165.927 226.995 Q164.075 227.412 162.13 228.291 L162.13 210.93 Z" fill="#000000" fill-rule="nonzero" fill-opacity="1" /><path clip-path="url(#clip010)" d="M58.3387 781.143 L64.0042 781.143 L64.0042 800.24 L58.3387 800.24 Q55.2513 794.606 49.9678 791.455 Q44.6842 788.304 38.2549 788.304 Q30.616 788.304 26.0009 792.506 Q21.3858 796.707 21.3858 803.582 Q21.3858 810.457 26.0327 814.69 Q30.6479 818.891 38.2549 818.891 Q44.6842 818.891 49.9678 815.74 Q55.2513 812.558 58.3387 806.892 L64.0042 806.892 L64.0042 825.989 L58.3387 825.989 L58.3387 815.836 Q53.9145 820.865 49.1721 823.188 Q44.4296 825.48 38.5732 825.48 Q28.4517 825.48 22.1815 819.369 Q15.9112 813.29 15.9112 803.582 Q15.9112 793.938 22.1815 787.795 Q28.4199 781.684 38.2549 781.684 Q44.4296 781.684 49.1402 783.944 Q53.8509 786.204 58.3387 791.328 L58.3387 781.143 Z" fill="#000000" fill-rule="nonzero" fill-opacity="1" /><path clip-path="url(#clip010)" d="M744.815 39.9885 L744.815 62.7141 L755.104 62.7141 Q760.816 62.7141 763.935 59.7569 Q767.055 56.7998 767.055 51.331 Q767.055 45.9028 763.935 42.9457 Q760.816 39.9885 755.104 39.9885 L744.815 39.9885 M736.632 33.264 L755.104 33.264 Q765.272 33.264 770.457 37.882 Q775.683 42.4596 775.683 51.331 Q775.683 60.2835 770.457 64.8611 Q765.272 69.4386 755.104 69.4386 L744.815 69.4386 L744.815 93.744 L736.632 93.744 L736.632 33.264 Z" fill="#000000" fill-rule="nonzero" fill-opacity="1" /><path clip-path="url(#clip010)" d="M786.337 30.7119 L793.791 30.7119 L793.791 93.744 L786.337 93.744 L786.337 30.7119 Z" fill="#000000" fill-rule="nonzero" fill-opacity="1" /><path clip-path="url(#clip010)" d="M826.967 53.5995 Q820.972 53.5995 817.488 58.2986 Q814.005 62.9571 814.005 71.0994 Q814.005 79.2418 817.448 83.9408 Q820.932 88.5994 826.967 88.5994 Q832.922 88.5994 836.406 83.9003 Q839.89 79.2013 839.89 71.0994 Q839.89 63.0381 836.406 58.3391 Q832.922 53.5995 826.967 53.5995 M826.967 47.2801 Q836.69 47.2801 842.239 53.5995 Q847.789 59.9189 847.789 71.0994 Q847.789 82.2394 842.239 88.5994 Q836.69 94.9188 826.967 94.9188 Q817.205 94.9188 811.655 88.5994 Q806.146 82.2394 806.146 71.0994 Q806.146 59.9189 811.655 53.5995 Q817.205 47.2801 826.967 47.2801 Z" fill="#000000" fill-rule="nonzero" fill-opacity="1" /><path clip-path="url(#clip010)" d="M867.517 35.492 L867.517 48.3739 L882.87 48.3739 L882.87 54.1667 L867.517 54.1667 L867.517 78.7962 Q867.517 84.3459 869.016 85.9258 Q870.555 87.5056 875.214 87.5056 L882.87 87.5056 L882.87 93.744 L875.214 93.744 Q866.585 93.744 863.304 90.5438 Q860.023 87.3031 860.023 78.7962 L860.023 54.1667 L854.554 54.1667 L854.554 48.3739 L860.023 48.3739 L860.023 35.492 L867.517 35.492 Z" fill="#000000" fill-rule="nonzero" fill-opacity="1" /><path clip-path="url(#clip010)" d="M942.013 30.7119 L942.013 36.9098 L934.884 36.9098 Q930.873 36.9098 929.293 38.5302 Q927.754 40.1505 927.754 44.3635 L927.754 48.3739 L940.028 48.3739 L940.028 54.1667 L927.754 54.1667 L927.754 93.744 L920.26 93.744 L920.26 54.1667 L913.13 54.1667 L913.13 48.3739 L920.26 48.3739 L920.26 45.2142 Q920.26 37.639 923.784 34.1957 Q927.308 30.7119 934.965 30.7119 L942.013 30.7119 Z" fill="#000000" fill-rule="nonzero" fill-opacity="1" /><path clip-path="url(#clip010)" d="M965.832 53.5995 Q959.837 53.5995 956.353 58.2986 Q952.87 62.9571 952.87 71.0994 Q952.87 79.2418 956.313 83.9408 Q959.797 88.5994 965.832 88.5994 Q971.787 88.5994 975.271 83.9003 Q978.755 79.2013 978.755 71.0994 Q978.755 63.0381 975.271 58.3391 Q971.787 53.5995 965.832 53.5995 M965.832 47.2801 Q975.555 47.2801 981.104 53.5995 Q986.654 59.9189 986.654 71.0994 Q986.654 82.2394 981.104 88.5994 Q975.555 94.9188 965.832 94.9188 Q956.07 94.9188 950.52 88.5994 Q945.011 82.2394 945.011 71.0994 Q945.011 59.9189 950.52 53.5995 Q956.07 47.2801 965.832 47.2801 Z" fill="#000000" fill-rule="nonzero" fill-opacity="1" /><path clip-path="url(#clip010)" d="M1025.3 55.3414 Q1024.04 54.6123 1022.55 54.2882 Q1021.09 53.9236 1019.3 53.9236 Q1012.99 53.9236 1009.58 58.0555 Q1006.22 62.1469 1006.22 69.8437 L1006.22 93.744 L998.726 93.744 L998.726 48.3739 L1006.22 48.3739 L1006.22 55.4224 Q1008.57 51.2905 1012.34 49.3056 Q1016.1 47.2801 1021.49 47.2801 Q1022.26 47.2801 1023.19 47.4017 Q1024.12 47.4827 1025.26 47.6852 L1025.3 55.3414 Z" fill="#000000" fill-rule="nonzero" fill-opacity="1" /><path clip-path="url(#clip010)" d="M1075.21 94.7567 Q1065.85 93.2579 1061.51 89.3285 Q1056.21 84.5079 1056.21 74.6642 L1056.21 48.3739 L1063.74 48.3739 L1063.74 74.3807 Q1063.74 81.7938 1067.19 84.8725 Q1070.18 87.5461 1075.21 88.1132 L1075.21 48.3739 L1082.62 48.3739 L1082.62 88.0727 Q1087.93 87.5056 1090.64 84.832 Q1094.08 81.4293 1094.08 74.3402 L1094.08 48.3739 L1101.62 48.3739 L1101.62 74.6237 Q1101.62 84.832 1096.31 89.288 Q1091.53 93.2984 1082.62 94.7162 L1082.62 111.001 L1075.21 111.001 L1075.21 94.7567 Z" fill="#000000" fill-rule="nonzero" fill-opacity="1" /><path clip-path="url(#clip010)" d="M1141.56 56.0706 L1193.49 56.0706 L1193.49 62.8761 L1141.56 62.8761 L1141.56 56.0706 M1141.56 72.5983 L1193.49 72.5983 L1193.49 79.4848 L1141.56 79.4848 L1141.56 72.5983 Z" fill="#000000" fill-rule="nonzero" fill-opacity="1" /><path clip-path="url(#clip010)" d="M1255.03 38.6517 Q1248.71 38.6517 1245.51 44.8901 Q1242.35 51.088 1242.35 63.5648 Q1242.35 76.001 1245.51 82.2394 Q1248.71 88.4373 1255.03 88.4373 Q1261.39 88.4373 1264.55 82.2394 Q1267.75 76.001 1267.75 63.5648 Q1267.75 51.088 1264.55 44.8901 Q1261.39 38.6517 1255.03 38.6517 M1255.03 32.1703 Q1265.19 32.1703 1270.54 40.2316 Q1275.93 48.2523 1275.93 63.5648 Q1275.93 78.8367 1270.54 86.898 Q1265.19 94.9188 1255.03 94.9188 Q1244.86 94.9188 1239.47 86.898 Q1234.12 78.8367 1234.12 63.5648 Q1234.12 48.2523 1239.47 40.2316 Q1244.86 32.1703 1255.03 32.1703 Z" fill="#000000" fill-rule="nonzero" fill-opacity="1" /><path clip-path="url(#clip010)" d="M1290.31 83.4547 L1298.86 83.4547 L1298.86 93.744 L1290.31 93.744 L1290.31 83.4547 Z" fill="#000000" fill-rule="nonzero" fill-opacity="1" /><path clip-path="url(#clip010)" d="M1316.76 33.264 L1348.89 33.264 L1348.89 40.1505 L1324.26 40.1505 L1324.26 54.9768 Q1326.04 54.3692 1327.82 54.0856 Q1329.6 53.7616 1331.39 53.7616 Q1341.51 53.7616 1347.43 59.3113 Q1353.34 64.8611 1353.34 74.3402 Q1353.34 84.1028 1347.27 89.5311 Q1341.19 94.9188 1330.13 94.9188 Q1326.32 94.9188 1322.35 94.2706 Q1318.42 93.6225 1314.21 92.3262 L1314.21 84.1028 Q1317.86 86.0878 1321.74 87.06 Q1325.63 88.0322 1329.97 88.0322 Q1336.98 88.0322 1341.07 84.3459 Q1345.16 80.6596 1345.16 74.3402 Q1345.16 68.0208 1341.07 64.3344 Q1336.98 60.6481 1329.97 60.6481 Q1326.69 60.6481 1323.41 61.3773 Q1320.17 62.1064 1316.76 63.6458 L1316.76 33.264 Z" fill="#000000" fill-rule="nonzero" fill-opacity="1" /><path clip-path="url(#clip010)" d="M1367.4 33.264 L1406.29 33.264 L1406.29 36.7478 L1384.33 93.744 L1375.78 93.744 L1396.44 40.1505 L1367.4 40.1505 L1367.4 33.264 Z" fill="#000000" fill-rule="nonzero" fill-opacity="1" /><path clip-path="url(#clip010)" d="M1423.67 86.8575 L1437.03 86.8575 L1437.03 40.7177 L1422.49 43.6343 L1422.49 36.1807 L1436.95 33.264 L1445.14 33.264 L1445.14 86.8575 L1458.5 86.8575 L1458.5 93.744 L1423.67 93.744 L1423.67 86.8575 Z" fill="#000000" fill-rule="nonzero" fill-opacity="1" /><path clip-path="url(#clip010)" d="M1475.88 83.4547 L1484.43 83.4547 L1484.43 90.4223 L1477.79 103.385 L1472.56 103.385 L1475.88 90.4223 L1475.88 83.4547 Z" fill="#000000" fill-rule="nonzero" fill-opacity="1" /><path clip-path="url(#clip010)" d="M1527.04 33.264 L1538.06 33.264 L1564.88 83.8598 L1564.88 33.264 L1572.82 33.264 L1572.82 93.744 L1561.8 93.744 L1534.98 43.1482 L1534.98 93.744 L1527.04 93.744 L1527.04 33.264 Z" fill="#000000" fill-rule="nonzero" fill-opacity="1" /><path clip-path="url(#clip010)" d="M1616.12 56.0706 L1668.06 56.0706 L1668.06 62.8761 L1616.12 62.8761 L1616.12 56.0706 M1616.12 72.5983 L1668.06 72.5983 L1668.06 79.4848 L1616.12 79.4848 L1616.12 72.5983 Z" fill="#000000" fill-rule="nonzero" fill-opacity="1" /><path clip-path="url(#clip010)" d="M1713.51 86.8575 L1726.88 86.8575 L1726.88 40.7177 L1712.33 43.6343 L1712.33 36.1807 L1726.79 33.264 L1734.98 33.264 L1734.98 86.8575 L1748.35 86.8575 L1748.35 93.744 L1713.51 93.744 L1713.51 86.8575 Z" fill="#000000" fill-rule="nonzero" fill-opacity="1" /><path clip-path="url(#clip010)" d="M1766.29 86.8575 L1779.66 86.8575 L1779.66 40.7177 L1765.12 43.6343 L1765.12 36.1807 L1779.58 33.264 L1787.76 33.264 L1787.76 86.8575 L1801.13 86.8575 L1801.13 93.744 L1766.29 93.744 L1766.29 86.8575 Z" fill="#000000" fill-rule="nonzero" fill-opacity="1" /><path clip-path="url(#clip010)" d="M874.12 139.094 L881.574 139.094 L890.891 174.499 L900.167 139.094 L908.958 139.094 L918.275 174.499 L927.551 139.094 L935.005 139.094 L923.136 184.464 L914.345 184.464 L904.583 147.277 L894.78 184.464 L885.989 184.464 L874.12 139.094 Z" fill="#000000" fill-rule="nonzero" fill-opacity="1" /><path clip-path="url(#clip010)" d="M946.307 139.094 L953.761 139.094 L953.761 184.464 L946.307 184.464 L946.307 139.094 M946.307 121.432 L953.761 121.432 L953.761 130.871 L946.307 130.871 L946.307 121.432 Z" fill="#000000" fill-rule="nonzero" fill-opacity="1" /><path clip-path="url(#clip010)" d="M976.729 126.212 L976.729 139.094 L992.082 139.094 L992.082 144.887 L976.729 144.887 L976.729 169.516 Q976.729 175.066 978.228 176.646 Q979.768 178.226 984.426 178.226 L992.082 178.226 L992.082 184.464 L984.426 184.464 Q975.798 184.464 972.516 181.264 Q969.235 178.023 969.235 169.516 L969.235 144.887 L963.767 144.887 L963.767 139.094 L969.235 139.094 L969.235 126.212 L976.729 126.212 Z" fill="#000000" fill-rule="nonzero" fill-opacity="1" /><path clip-path="url(#clip010)" d="M1039.6 157.08 L1039.6 184.464 L1032.15 184.464 L1032.15 157.323 Q1032.15 150.882 1029.63 147.682 Q1027.12 144.482 1022.1 144.482 Q1016.06 144.482 1012.58 148.33 Q1009.1 152.178 1009.1 158.822 L1009.1 184.464 L1001.6 184.464 L1001.6 121.432 L1009.1 121.432 L1009.1 146.142 Q1011.77 142.051 1015.38 140.026 Q1019.02 138 1023.76 138 Q1031.58 138 1035.59 142.861 Q1039.6 147.682 1039.6 157.08 Z" fill="#000000" fill-rule="nonzero" fill-opacity="1" /><path clip-path="url(#clip010)" d="M1103.08 176.2 Q1104.54 178.145 1108.91 178.145 L1112.52 178.145 L1112.52 184.464 L1108.02 184.464 Q1100.73 184.464 1097.41 180.575 Q1094.08 176.605 1094.08 168.017 L1094.08 146.548 L1077.07 146.548 L1077.07 139.094 L1118.92 139.094 L1118.92 146.548 L1101.7 146.548 L1101.7 168.463 Q1101.7 174.337 1103.08 176.2 Z" fill="#000000" fill-rule="nonzero" fill-opacity="1" /><path clip-path="url(#clip010)" d="M1149.34 129.372 Q1143.02 129.372 1139.82 135.61 Q1136.66 141.808 1136.66 154.285 Q1136.66 166.721 1139.82 172.959 Q1143.02 179.157 1149.34 179.157 Q1155.7 179.157 1158.86 172.959 Q1162.06 166.721 1162.06 154.285 Q1162.06 141.808 1158.86 135.61 Q1155.7 129.372 1149.34 129.372 M1149.34 122.89 Q1159.51 122.89 1164.85 130.952 Q1170.24 138.972 1170.24 154.285 Q1170.24 169.557 1164.85 177.618 Q1159.51 185.639 1149.34 185.639 Q1139.17 185.639 1133.78 177.618 Q1128.44 169.557 1128.44 154.285 Q1128.44 138.972 1133.78 130.952 Q1139.17 122.89 1149.34 122.89 Z" fill="#000000" fill-rule="nonzero" fill-opacity="1" /><path clip-path="url(#clip010)" d="M1210.91 146.791 L1262.84 146.791 L1262.84 153.596 L1210.91 153.596 L1210.91 146.791 M1210.91 163.318 L1262.84 163.318 L1262.84 170.205 L1210.91 170.205 L1210.91 163.318 Z" fill="#000000" fill-rule="nonzero" fill-opacity="1" /><path clip-path="url(#clip010)" d="M1324.38 129.372 Q1318.06 129.372 1314.86 135.61 Q1311.7 141.808 1311.7 154.285 Q1311.7 166.721 1314.86 172.959 Q1318.06 179.157 1324.38 179.157 Q1330.74 179.157 1333.9 172.959 Q1337.1 166.721 1337.1 154.285 Q1337.1 141.808 1333.9 135.61 Q1330.74 129.372 1324.38 129.372 M1324.38 122.89 Q1334.55 122.89 1339.89 130.952 Q1345.28 138.972 1345.28 154.285 Q1345.28 169.557 1339.89 177.618 Q1334.55 185.639 1324.38 185.639 Q1314.21 185.639 1308.82 177.618 Q1303.48 169.557 1303.48 154.285 Q1303.48 138.972 1308.82 130.952 Q1314.21 122.89 1324.38 122.89 Z" fill="#000000" fill-rule="nonzero" fill-opacity="1" /><path clip-path="url(#clip010)" d="M1359.66 174.175 L1368.21 174.175 L1368.21 184.464 L1359.66 184.464 L1359.66 174.175 Z" fill="#000000" fill-rule="nonzero" fill-opacity="1" /><path clip-path="url(#clip010)" d="M1393.08 177.577 L1421.64 177.577 L1421.64 184.464 L1383.24 184.464 L1383.24 177.577 Q1387.9 172.757 1395.92 164.655 Q1403.98 156.513 1406.04 154.163 Q1409.97 149.748 1411.51 146.71 Q1413.09 143.631 1413.09 140.674 Q1413.09 135.853 1409.69 132.815 Q1406.33 129.777 1400.9 129.777 Q1397.05 129.777 1392.76 131.114 Q1388.5 132.45 1383.64 135.164 L1383.64 126.901 Q1388.58 124.916 1392.88 123.903 Q1397.17 122.89 1400.74 122.89 Q1410.14 122.89 1415.73 127.589 Q1421.32 132.288 1421.32 140.147 Q1421.32 143.874 1419.9 147.236 Q1418.52 150.558 1414.83 155.095 Q1413.82 156.27 1408.39 161.9 Q1402.97 167.491 1393.08 177.577 Z" fill="#000000" fill-rule="nonzero" fill-opacity="1" /><path clip-path="url(#clip010)" d="M1439.67 174.175 L1448.21 174.175 L1448.21 181.142 L1441.57 194.105 L1436.35 194.105 L1439.67 181.142 L1439.67 174.175 Z" fill="#000000" fill-rule="nonzero" fill-opacity="1" /><path clip-path="url(#clip010)" d="M1522.55 146.304 Q1521.05 145.778 1519.55 145.373 Q1515.54 144.32 1511.25 144.32 Q1503.83 144.32 1499.7 148.33 Q1495.85 152.057 1495.12 158.903 L1522.55 158.903 L1522.55 164.736 L1495.12 164.736 Q1495.85 171.582 1499.7 175.309 Q1503.83 179.319 1511.25 179.319 Q1516.43 179.319 1519.55 178.266 L1522.55 177.253 L1522.55 184.018 L1519.35 184.748 Q1515.14 185.639 1510.8 185.639 Q1499.94 185.639 1493.62 179.319 Q1487.26 173 1487.26 161.819 Q1487.26 150.639 1493.62 144.32 Q1499.94 138 1510.8 138 Q1514.89 138 1519.35 138.891 Q1520.97 139.215 1522.55 139.702 L1522.55 146.304 Z" fill="#000000" fill-rule="nonzero" fill-opacity="1" /><path clip-path="url(#clip010)" d="M1542.52 146.791 L1594.45 146.791 L1594.45 153.596 L1542.52 153.596 L1542.52 146.791 M1542.52 163.318 L1594.45 163.318 L1594.45 170.205 L1542.52 170.205 L1542.52 163.318 Z" fill="#000000" fill-rule="nonzero" fill-opacity="1" /><path clip-path="url(#clip010)" d="M1629.61 129.372 Q1623.29 129.372 1620.09 135.61 Q1616.93 141.808 1616.93 154.285 Q1616.93 166.721 1620.09 172.959 Q1623.29 179.157 1629.61 179.157 Q1635.97 179.157 1639.13 172.959 Q1642.33 166.721 1642.33 154.285 Q1642.33 141.808 1639.13 135.61 Q1635.97 129.372 1629.61 129.372 M1629.61 122.89 Q1639.78 122.89 1645.13 130.952 Q1650.52 138.972 1650.52 154.285 Q1650.52 169.557 1645.13 177.618 Q1639.78 185.639 1629.61 185.639 Q1619.45 185.639 1614.06 177.618 Q1608.71 169.557 1608.71 154.285 Q1608.71 138.972 1614.06 130.952 Q1619.45 122.89 1629.61 122.89 Z" fill="#000000" fill-rule="nonzero" fill-opacity="1" /><path clip-path="url(#clip010)" d="M1664.9 174.175 L1673.44 174.175 L1673.44 184.464 L1664.9 184.464 L1664.9 174.175 Z" fill="#000000" fill-rule="nonzero" fill-opacity="1" /><path clip-path="url(#clip010)" d="M1692.69 177.577 L1706.05 177.577 L1706.05 131.438 L1691.51 134.354 L1691.51 126.901 L1705.97 123.984 L1714.16 123.984 L1714.16 177.577 L1727.52 177.577 L1727.52 184.464 L1692.69 184.464 L1692.69 177.577 Z" fill="#000000" fill-rule="nonzero" fill-opacity="1" /><polyline clip-path="url(#clip012)" style="stroke:#ff0000; stroke-linecap:round; stroke-linejoin:round; stroke-width:4; stroke-opacity:1; fill:none" points="219.033,814.563 223.3,814.902 227.568,815.369 231.835,815.972 236.103,816.714 236.721,816.843 240.37,817.603 244.638,818.641 248.905,819.829 253.173,821.166 253.471,821.269 257.44,822.644 261.707,824.256 265.256,825.695 265.975,825.986 270.242,827.82 274.51,829.737 275.336,830.121 278.777,831.716 283.045,833.732 284.758,834.547 287.312,835.759 291.58,837.771 294.183,838.972 295.847,839.74 300.114,841.646 304.207,843.398 304.382,843.473 308.649,845.212 312.917,846.851 315.643,847.824 317.184,848.375 321.452,849.767 325.719,851.005 329.987,852.06 330.959,852.25 334.254,852.897 338.521,853.48 342.789,853.799 347.056,853.882 351.324,853.768 355.591,853.486 359.859,853.045 364.126,852.448 365.273,852.25 368.394,851.708 372.661,850.847 376.928,849.875 381.196,848.802 384.777,847.824 385.463,847.636 389.731,846.388 393.998,845.071 398.266,843.698 399.168,843.398 402.533,842.277 406.801,840.816 411.068,839.317 412.021,838.972 415.335,837.772 419.603,836.165 423.698,834.547 423.87,834.478 428.138,832.709 432.405,830.872 434.104,830.121 436.673,828.98 440.94,827.038 443.811,825.695 445.208,825.039 449.475,822.976 452.885,821.269 453.742,820.838 458.01,818.614 461.28,816.843 462.277,816.3 466.545,813.901 469.113,812.418 470.812,811.432 475.08,808.917 476.643,807.992 479.347,806.391 483.615,803.89 484.182,803.566 487.882,801.46 492.149,799.14 492.149,799.14 496.417,796.972 500.684,794.98 501.309,794.714 504.952,793.188 509.219,791.596 513.204,790.289 513.487,790.197 517.754,788.99 522.022,787.969 526.289,787.131 530.556,786.461 534.824,785.937 535.61,785.863 539.091,785.538 543.359,785.246 547.626,785.041 551.894,784.901 556.161,784.804 560.429,784.732 564.696,784.67 568.964,784.6 573.231,784.511 577.498,784.408 581.766,784.304 586.033,784.198 590.301,784.08 594.568,783.945 598.836,783.812 603.103,783.712 607.371,783.663 611.638,783.674 615.905,783.745 620.173,783.871 624.44,784.037 628.708,784.223 632.975,784.413 637.243,784.605 641.51,784.805 645.778,785.015 650.045,785.228 654.312,785.427 658.58,785.586 662.847,785.676 667.115,785.664 671.382,785.522 675.65,785.229 679.917,784.771 684.185,784.14 688.452,783.335 692.719,782.357 696.146,781.437 696.987,781.206 701.254,779.879 705.522,778.371 708.954,777.011 709.789,776.673 714.057,774.809 718.324,772.853 718.901,772.585 722.592,770.878 726.859,768.954 728.728,768.159 731.126,767.159 735.394,765.56 739.661,764.193 741.388,763.734 743.929,763.082 748.196,762.217 752.464,761.57 756.731,761.106 760.999,760.789 765.266,760.594 769.533,760.502 773.801,760.498 778.068,760.563 782.336,760.679 786.603,760.832 790.871,761.012 795.138,761.204 799.406,761.404 803.673,761.621 807.94,761.87 812.208,762.151 816.475,762.446 820.743,762.738 825.01,763.025 829.278,763.309 833.545,763.591 835.81,763.734 837.813,763.86 842.08,764.109 846.347,764.331 850.615,764.522 854.882,764.676 859.15,764.787 863.417,764.846 867.685,764.84 871.952,764.756 876.22,764.583 880.487,764.317 884.755,763.953 886.769,763.734 889.022,763.482 893.289,762.887 897.557,762.151 901.824,761.259 906.092,760.199 909.168,759.308 910.359,758.951 914.627,757.495 918.894,755.884 921.426,754.882 923.162,754.192 927.429,752.503 931.696,750.876 932.858,750.456 935.964,749.358 940.231,747.974 944.499,746.749 947.435,746.03 948.766,745.718 953.034,744.912 957.301,744.325 961.569,743.95 965.836,743.771 970.103,743.759 974.371,743.871 978.638,744.062 982.906,744.292 987.173,744.543 991.441,744.812 995.708,745.094 999.976,745.376 1004.24,745.64 1008.51,745.87 1012.35,746.03 1012.78,746.049 1017.05,746.153 1021.31,746.167 1025.58,746.093 1027.34,746.03 1029.85,745.938 1034.12,745.69 1038.38,745.324 1042.65,744.829 1046.92,744.233 1051.18,743.574 1055.45,742.887 1059.72,742.202 1063.6,741.605 1063.99,741.545 1068.25,740.949 1072.52,740.43 1076.79,740.002 1081.06,739.668 1085.32,739.426 1089.59,739.268 1093.86,739.19 1098.13,739.198 1102.39,739.301 1106.66,739.508 1110.93,739.82 1115.2,740.234 1119.46,740.745 1123.73,741.349 1125.29,741.605 1128,742.049 1132.27,742.836 1136.53,743.697 1140.8,744.626 1145.07,745.617 1146.73,746.03 1149.34,746.68 1153.6,747.811 1157.87,749.002 1162.14,750.25 1162.8,750.456 1166.41,751.583 1170.67,752.979 1174.94,754.428 1176.21,754.882 1179.21,755.955 1183.48,757.541 1187.74,759.166 1188.1,759.308 1192.01,760.87 1196.28,762.605 1198.99,763.734 1200.55,764.38 1204.81,766.2 1209.08,768.034 1209.37,768.159 1213.35,769.91 1217.62,771.794 1219.39,772.585 1221.88,773.7 1226.15,775.62 1229.23,777.011 1230.42,777.549 1234.69,779.493 1238.95,781.437 1238.95,781.437 1243.22,783.39 1247.49,785.337 1248.64,785.863 1251.75,787.279 1256.02,789.211 1258.41,790.289 1260.29,791.132 1264.56,793.031 1268.36,794.714 1268.82,794.922 1273.09,796.773 1277.36,798.613 1278.61,799.14 1281.63,800.412 1285.89,802.182 1289.27,803.566 1290.16,803.928 1294.43,805.61 1298.7,807.273 1300.6,807.992 1302.96,808.878 1307.23,810.428 1311.5,811.947 1312.89,812.418 1315.77,813.385 1320.03,814.756 1324.3,816.08 1326.91,816.843 1328.57,817.323 1332.84,818.467 1337.1,819.541 1341.37,820.534 1344.92,821.269 1345.64,821.417 1349.91,822.116 1354.17,822.647 1358.44,822.991 1362.71,823.138 1366.98,823.096 1371.24,822.882 1375.51,822.517 1379.78,822.021 1384.05,821.417 1384.97,821.269 1388.31,820.719 1392.58,819.967 1396.85,819.188 1401.12,818.408 1405.38,817.649 1409.65,816.931 1410.21,816.843 1413.92,816.283 1418.19,815.71 1422.45,815.223 1426.72,814.83 1430.99,814.536 1435.26,814.346 1439.52,814.261 1443.79,814.28 1448.06,814.402 1452.32,814.624 1456.59,814.94 1460.86,815.345 1465.13,815.834 1469.39,816.401 1472.32,816.843 1473.66,817.05 1477.93,817.789 1482.2,818.591 1486.46,819.449 1490.73,820.355 1494.83,821.269 1495,821.308 1499.27,822.34 1503.53,823.403 1507.8,824.493 1512.07,825.608 1512.39,825.695 1516.34,826.776 1520.6,827.959 1524.87,829.153 1528.29,830.121 1529.14,830.364 1533.41,831.597 1537.67,832.83 1541.94,834.066 1543.59,834.547 1546.21,835.307 1550.48,836.54 1554.74,837.768 1558.94,838.972 1559.01,838.992 1563.28,840.188 1567.55,841.37 1571.81,842.54 1574.99,843.398 1576.08,843.69 1580.35,844.799 1584.62,845.887 1588.88,846.954 1592.44,847.824 1593.15,847.994 1597.42,848.964 1601.69,849.893 1605.95,850.776 1610.22,851.606 1613.85,852.25 1614.49,852.359 1618.76,852.953 1623.02,853.412 1627.29,853.709 1631.56,853.824 1635.82,853.743 1640.09,853.456 1644.36,852.943 1648.24,852.25 1648.63,852.169 1652.89,851.036 1657.16,849.617 1661.43,847.904 1661.61,847.824 1665.7,845.775 1669.94,843.398 1669.96,843.385 1674.23,840.688 1676.79,838.972 1678.5,837.738 1682.53,834.547 1682.77,834.334 1687.03,830.153 1687.07,830.121 1690.94,825.695 1691.3,825.239 1694.23,821.269 1695.57,819.142 1696.91,816.843 1699.08,812.418 1699.84,810.681 1700.99,807.992 1702.96,803.566 1704.1,801.421 1705.44,799.14 1708.37,795.482 1709.11,794.714 1712.64,792.031 1715.63,790.289 1716.91,789.702 1721.17,788.16 1725.44,787.045 1729.71,786.254 1732.66,785.863 1733.98,785.71 1738.24,785.348 1742.51,785.102 1746.78,784.938 1751.05,784.827 1755.31,784.746 1759.58,784.678 1763.85,784.606 1768.12,784.519 1772.38,784.417 1776.65,784.309 1780.92,784.197 1785.19,784.074 1789.45,783.941 1793.72,783.814 1797.99,783.721 1802.26,783.68 1806.52,783.698 1810.79,783.772 1815.06,783.892 1819.33,784.045 1823.59,784.218 1827.86,784.398 1832.13,784.581 1836.39,784.769 1840.66,784.963 1844.93,785.162 1849.2,785.353 1853.46,785.521 1857.73,785.641 1862,785.677 1866.27,785.588 1870.53,785.328 1874.8,784.845 1879.07,784.09 1883.34,783.01 1887.6,781.546 1887.87,781.437 1891.87,779.356 1895.38,777.011 1896.14,776.366 1900.1,772.585 1900.41,772.274 1904.67,768.192 1904.71,768.159 1908.94,765.336 1912.24,763.734 1913.21,763.387 1917.48,762.253 1921.74,761.502 1926.01,761.018 1930.28,760.722 1934.55,760.565 1938.81,760.513 1943.08,760.54 1947.35,760.625 1951.62,760.751 1955.88,760.907 1960.15,761.08 1964.42,761.264 1968.69,761.461 1972.95,761.676 1977.22,761.912 1981.49,762.168 1985.76,762.437 1990.02,762.709 1994.29,762.976 1998.56,763.24 2002.83,763.502 2006.67,763.734 2007.09,763.759 2011.36,763.999 2015.63,764.219 2019.9,764.413 2024.16,764.579 2028.43,764.71 2032.7,764.799 2036.96,764.834 2041.23,764.8 2045.5,764.681 2049.77,764.463 2054.03,764.13 2057.71,763.734 2058.3,763.66 2062.57,762.971 2066.84,762.039 2071.1,760.793 2074.99,759.308 2075.37,759.12 2079.64,756.611 2082.17,754.882 2083.91,753.638 2088.17,750.716 2088.59,750.456 2092.44,748.393 2096.71,746.545 2098.22,746.03 2100.98,745.305 2105.24,744.526 2109.51,744.061 2113.78,743.843 2118.05,743.804 2122.31,743.887 2126.58,744.047 2130.85,744.252 2135.12,744.483 2139.38,744.728 2143.65,744.983 2147.92,745.243 2152.19,745.498 2156.45,745.734 2160.72,745.938 2163.29,746.03 2164.99,746.09 2169.26,746.163 2173.52,746.15 2177.79,746.051 2178.27,746.03 2182.06,745.849 2186.33,745.516 2190.59,745.017 2194.86,744.356 2199.13,743.582 2203.4,742.757 2207.66,741.935 2209.48,741.605 2211.93,741.191 2216.2,740.572 2220.47,740.078 2224.73,739.708 2229,739.449 2233.27,739.289 2237.53,739.221 2241.8,739.244 2246.07,739.358 2250.34,739.561 2254.6,739.847 2258.87,740.208 2263.14,740.637 2267.41,741.124 2271.2,741.605 2271.67,741.668 2275.94,742.308 2280.21,742.985 2284.48,743.694 2288.74,744.432 2293.01,745.195 2297.28,745.979 2297.54,746.03 2301.55,746.843 2305.81,747.731 2310.08,748.634 2314.35,749.548 2318.56,750.456 2318.62,750.468 2322.88,751.489 2327.15,752.517 2331.42,753.545 2335.69,754.569 2336.95,754.882 2339.95,755.668 2344.22,756.794 2348.49,757.909 2352.76,759.013 "/>
<polyline clip-path="url(#clip012)" style="stroke:#008000; stroke-linecap:round; stroke-linejoin:round; stroke-width:8; stroke-opacity:0.5; fill:none" stroke-dasharray="32, 20" points="304.382,843.473 304.778,843.638 305.293,843.852 305.963,844.128 306.836,844.484 307.972,844.942 309.452,845.528 311.382,846.274 313.902,847.213 317.197,848.38 320.515,849.475 323.858,850.486 327.227,851.4 330.623,852.2 334.048,852.862 337.499,853.365 340.969,853.695 344.451,853.858 347.935,853.874 351.416,853.764 354.892,853.544 358.361,853.218 361.819,852.79 365.264,852.264 368.696,851.651 372.114,850.964 375.519,850.208 378.909,849.389 382.287,848.512 385.651,847.583 389.003,846.606 392.343,845.59 395.674,844.539 398.995,843.458 402.309,842.353 405.616,841.225 408.917,840.078 412.21,838.908 415.495,837.713 418.769,836.485 422.028,835.217 425.272,833.906 428.501,832.555 431.717,831.173 434.922,829.763 438.116,828.329 441.301,826.871 444.475,825.387 447.636,823.874 450.782,822.33 453.913,820.751 457.026,819.135 460.121,817.481 463.197,815.79 466.256,814.067 469.299,812.314 472.331,810.541 475.356,808.753 478.379,806.963 481.405,805.178 484.441,803.412 487.494,801.676 490.569,799.983 493.672,798.347 496.809,796.779 499.983,795.293 503.195,793.9 506.447,792.606 509.735,791.415 513.056,790.329 516.408,789.349 519.788,788.478 523.194,787.719 526.62,787.072 530.063,786.53 533.519,786.083 536.983,785.72 540.454,785.433 543.929,785.213 547.407,785.049 550.887,784.929 554.367,784.841 557.847,784.774 561.328,784.719 564.809,784.668 568.289,784.613 571.77,784.544 575.25,784.463 578.73,784.377 582.21,784.293 585.69,784.207 589.17,784.114 592.65,784.007 596.129,783.894 599.609,783.79 603.089,783.711 606.57,783.667 610.052,783.661 613.533,783.697 617.013,783.772 620.493,783.881 623.972,784.017 627.45,784.167 630.928,784.322 634.406,784.477 637.883,784.634 641.361,784.798 644.838,784.968 648.315,785.142 651.792,785.313 655.27,785.467 658.749,785.591 662.23,785.669 665.712,785.681 669.193,785.614 672.672,785.452 676.145,785.187 679.609,784.813 683.06,784.327 686.495,783.73 689.91,783.023 693.304,782.211 696.673,781.298 700.016,780.285 703.329,779.172 706.609,777.959 709.854,776.647 713.067,775.254 716.257,773.808 719.436,772.337 722.615,770.866 725.804,769.419 729.015,768.024 732.259,766.709 735.541,765.503 738.866,764.425 742.232,763.49 745.633,762.704 749.061,762.063 752.511,761.558 755.974,761.172 759.445,760.885 762.922,760.684 766.402,760.557 769.883,760.496 773.364,760.493 776.845,760.537 780.326,760.617 783.805,760.726 787.284,760.858 790.762,761.007 794.24,761.163 797.718,761.323 801.195,761.49 804.672,761.675 808.147,761.882 811.621,762.11 815.095,762.35 818.568,762.591 822.042,762.826 825.516,763.058 828.99,763.29 832.464,763.52 835.938,763.744 839.413,763.957 842.889,764.154 846.366,764.333 849.844,764.491 853.322,764.625 856.802,764.733 860.282,764.811 863.764,764.851 867.245,764.847 870.726,764.792 874.206,764.679 877.683,764.506 881.157,764.269 884.627,763.967 888.09,763.596 891.545,763.149 894.989,762.617 898.419,761.991 901.83,761.264 905.22,760.435 908.583,759.498 911.915,758.446 915.214,757.287 918.484,756.046 921.737,754.76 924.986,753.463 928.241,752.184 931.51,750.943 934.799,749.757 938.109,748.638 941.444,747.601 944.807,746.662 948.199,745.84 951.618,745.148 955.061,744.595 958.522,744.185 961.996,743.912 965.476,743.768 968.959,743.738 972.44,743.801 975.92,743.93 979.397,744.099 982.874,744.289 986.349,744.492 989.824,744.707 993.298,744.934 996.772,745.166 1000.25,745.394 1003.72,745.61 1007.2,745.804 1010.68,745.968 1014.15,746.092 1017.64,746.162 1021.12,746.17 1024.6,746.118 1028.08,746.013 1031.56,745.852 1035.03,745.626 1038.5,745.317 1041.96,744.922 1045.41,744.456 1048.86,743.941 1052.3,743.397 1055.74,742.84 1059.18,742.286 1062.62,741.75 1066.07,741.244 1069.52,740.782 1072.98,740.373 1076.45,740.025 1079.92,739.74 1083.39,739.518 1086.87,739.352 1090.35,739.241 1093.83,739.182 1097.31,739.18 1100.79,739.241 1104.27,739.369 1107.75,739.567 1111.22,739.834 1114.69,740.169 1118.15,740.569 1121.6,741.031 1125.05,741.552 1128.48,742.13 1131.91,742.759 1135.33,743.436 1138.74,744.159 1142.15,744.923 1145.54,745.727 1148.92,746.569 1152.3,747.449 1155.67,748.367 1159.02,749.323 1162.37,750.318 1165.71,751.35 1169.03,752.42 1172.35,753.527 1175.65,754.669 1178.94,755.845 1182.22,757.054 1185.49,758.292 1188.75,759.559 1192,760.851 1195.24,762.167 1198.48,763.505 1201.7,764.862 1204.92,766.235 1208.14,767.622 1211.34,769.021 1214.55,770.43 1217.75,771.849 1220.95,773.275 1224.14,774.709 1227.33,776.149 1230.52,777.595 1233.71,779.045 1236.9,780.499 1240.08,781.954 1243.27,783.411 1246.46,784.866 1249.64,786.32 1252.83,787.769 1256.02,789.214 1259.21,790.652 1262.41,792.083 1265.61,793.505 1268.81,794.918 1272.02,796.319 1275.23,797.708 1278.45,799.084 1281.68,800.445 1284.91,801.79 1288.14,803.117 1291.39,804.425 1294.64,805.713 1297.9,806.979 1301.17,808.222 1304.45,809.44 1307.73,810.631 1311.03,811.794 1314.33,812.925 1317.65,814.022 1320.98,815.082 1324.32,816.102 1327.67,817.08 1331.03,818.014 1334.41,818.902 1337.79,819.738 1341.19,820.516 1344.61,821.225 1348.04,821.849 1351.48,822.369 1354.95,822.767 1358.42,823.032 1361.9,823.163 1365.38,823.165 1368.87,823.048 1372.34,822.824 1375.81,822.503 1379.27,822.097 1382.72,821.619 1386.16,821.082 1389.6,820.5 1393.03,819.888 1396.46,819.259 1399.89,818.629 1403.32,818.009 1406.75,817.411 1410.19,816.845 1413.63,816.319 1417.08,815.841 1420.54,815.417 1424,815.053 1427.47,814.753 1430.95,814.52 1434.43,814.355 1437.91,814.26 1441.39,814.235 1444.87,814.279 1448.35,814.391 1451.83,814.568 1455.3,814.809 1458.77,815.111 1462.23,815.472 1465.69,815.887 1469.14,816.355 1472.59,816.874 1476.03,817.439 1479.46,818.049 1482.88,818.7 1486.3,819.39 1489.71,820.115 1493.11,820.874 1496.51,821.662 1499.9,822.479 1503.29,823.32 1506.67,824.183 1510.04,825.067 1513.41,825.969 1516.78,826.886 1520.14,827.817 1523.51,828.759 1526.86,829.711 1530.22,830.671 1533.57,831.638 1536.93,832.609 1540.28,833.583 1543.63,834.557 1546.98,835.531 1550.33,836.503 1553.69,837.47 1557.04,838.432 1560.4,839.386 1563.76,840.331 1567.12,841.266 1570.49,842.19 1573.86,843.101 1577.23,843.998 1580.6,844.88 1583.98,845.747 1587.37,846.596 1590.75,847.425 1594.15,848.233 1597.55,849.015 1600.95,849.769 1604.36,850.49 1607.78,851.172 1611.21,851.809 1614.64,852.389 1618.09,852.899 1621.55,853.32 1625.02,853.634 1628.5,853.824 1631.98,853.883 1635.46,853.809 1638.94,853.6 1642.41,853.246 1645.86,852.726 1649.27,852.024 1652.66,851.141 1655.99,850.081 1659.26,848.841 1662.47,847.426 1665.61,845.852 1668.68,844.145 1671.69,842.33 1674.65,840.429 1677.56,838.442 1680.39,836.334 1683.09,834.05 1685.65,831.591 1688.09,829.01 1690.42,826.327 1692.63,823.533 1694.68,820.607 1696.54,817.541 1698.19,814.352 1699.67,811.081 1701.08,807.777 1702.52,804.491 1704.13,801.283 1706.03,798.24 1708.32,795.476 1710.99,793.098 1713.96,791.143 1717.12,789.572 1720.41,788.332 1723.78,787.377 1727.2,786.652 1730.64,786.105 1734.1,785.692 1737.57,785.385 1741.05,785.163 1744.53,785.006 1748.01,784.894 1751.49,784.812 1754.97,784.75 1758.45,784.697 1761.93,784.645 1765.41,784.582 1768.89,784.504 1772.37,784.418 1775.85,784.33 1779.33,784.243 1782.81,784.15 1786.29,784.045 1789.77,783.928 1793.25,783.816 1796.73,783.727 1800.21,783.673 1803.69,783.659 1807.17,783.686 1810.65,783.75 1814.13,783.848 1817.61,783.972 1821.09,784.112 1824.57,784.258 1828.05,784.405 1831.52,784.553 1835,784.704 1838.48,784.861 1841.96,785.024 1845.43,785.188 1848.91,785.347 1852.39,785.489 1855.87,785.604 1859.35,785.673 1862.83,785.679 1866.31,785.599 1869.79,785.41 1873.26,785.087 1876.71,784.6 1880.14,783.921 1883.52,783.021 1886.82,781.87 1890.03,780.438 1893.1,778.685 1895.94,776.564 1898.55,774.145 1901.05,771.618 1903.58,769.147 1906.32,766.898 1909.33,765.025 1912.56,763.588 1915.92,762.546 1919.34,761.811 1922.79,761.299 1926.26,760.947 1929.74,760.712 1933.22,760.569 1936.7,760.5 1940.18,760.491 1943.66,760.53 1947.14,760.605 1950.62,760.707 1954.1,760.829 1957.58,760.968 1961.06,761.116 1964.53,761.267 1968.01,761.422 1971.49,761.588 1974.97,761.772 1978.44,761.974 1981.92,762.192 1985.39,762.415 1988.87,762.637 1992.34,762.855 1995.81,763.071 1999.29,763.286 2002.76,763.5 2006.24,763.709 2009.72,763.91 2013.19,764.099 2016.67,764.274 2020.15,764.431 2023.63,764.569 2027.1,764.685 2030.58,764.775 2034.07,764.835 2037.55,764.855 2041.03,764.828 2044.51,764.743 2047.99,764.592 2051.46,764.365 2054.93,764.056 2058.39,763.652 2061.84,763.134 2065.26,762.471 2068.65,761.624 2071.98,760.552 2075.23,759.204 2078.32,757.517 2081.26,755.545 2084.11,753.471 2087,751.46 2090,749.614 2093.12,747.993 2096.36,746.638 2099.7,745.575 2103.11,744.795 2106.56,744.264 2110.03,743.937 2113.51,743.774 2117,743.737 2120.48,743.794 2123.96,743.913 2127.44,744.07 2130.91,744.247 2134.39,744.435 2137.87,744.633 2141.34,744.841 2144.82,745.055 2148.29,745.271 2151.77,745.48 2155.24,745.676 2158.72,745.852 2162.2,746 2165.68,746.11 2169.16,746.168 2172.64,746.165 2176.12,746.102 2179.6,745.981 2183.08,745.794 2186.55,745.52 2190.01,745.129 2193.46,744.619 2196.89,744.019 2200.32,743.364 2203.74,742.689 2207.16,742.026 2210.59,741.404 2214.03,740.848 2217.48,740.374 2220.94,739.987 2224.41,739.687 2227.89,739.465 2231.37,739.309 2234.85,739.213 2238.33,739.174 2241.81,739.195 2245.29,739.277 2248.77,739.421 2252.25,739.624 2255.72,739.881 2259.19,740.19 2262.65,740.545 2266.11,740.943 2269.57,741.38 2273.02,741.854 2276.47,742.359 2279.91,742.895 2283.35,743.457 2286.78,744.044 2290.21,744.654 2293.64,745.284 2297.06,745.935 2300.49,746.605 2303.9,747.293 2307.32,747.999 2310.73,748.723 2314.13,749.465 2317.54,750.223 2320.94,750.999 2324.33,751.79 2327.73,752.598 2331.12,753.42 2334.5,754.257 2337.89,755.108 2341.27,755.971 2344.64,756.847 2348.02,757.734 2351.39,758.632 2354.76,759.54 2358.12,760.457 2361.49,761.383 2364.85,762.317 2368.21,763.258 2371.57,764.205 2374.93,765.158 2378.29,766.117 2381.64,767.079 2384.99,768.046 2388.35,769.016 2391.7,769.989 2395.05,770.965 2398.4,771.943 2401.75,772.923 2405.1,773.905 2408.45,774.888 2411.8,775.874 2415.15,776.86 2418.5,777.848 2421.85,778.836 2425.19,779.825 2428.54,780.815 2431.89,781.804 2435.24,782.793 2438.59,783.781 2441.93,784.768 2445.28,785.753 2448.63,786.737 2451.98,787.719 2455.33,788.699 2458.68,789.677 2462.04,790.651 2465.39,791.622 2468.74,792.59 2472.1,793.555 2475.45,794.515 2478.81,795.472 2482.17,796.424 2485.53,797.371 2488.89,798.314 2492.25,799.251 2495.61,800.183 2498.98,801.109 2502.34,802.028 2505.71,802.941 2509.08,803.847 2512.45,804.746 2515.82,805.637 2519.2,806.52 2522.58,807.395 2525.96,808.261 2529.34,809.117 2532.72,809.964 2536.11,810.8 2539.5,811.625 2542.89,812.439 2546.28,813.24 2549.68,814.027 2553.08,814.799 2556.49,815.555 2559.89,816.295 2563.3,817.017 2566.72,817.721 2570.14,818.405 2573.56,819.068 2576.98,819.706 2580.42,820.318 2583.85,820.898 2587.29,821.439 2590.74,821.931 2594.2,822.362 2597.66,822.717 2601.14,822.98 2604.62,823.137 2608.1,823.178 2611.58,823.094 2615.06,822.879 2618.53,822.531 2621.98,822.052 2625.41,821.452 2628.83,820.749 2632.23,819.973 2635.62,819.159 2639.01,818.345 2642.41,817.564 2645.82,816.844 2649.25,816.201 2652.69,815.648 2656.14,815.189 2659.61,814.825 2663.08,814.552 2666.56,814.367 2670.04,814.263 2673.52,814.235 2677,814.275 2680.48,814.377 2683.96,814.537 2687.44,814.748 2690.91,815.006 2694.38,815.307 2697.84,815.647 2701.31,816.023 2704.77,816.431 2708.22,816.869 2711.67,817.334 2715.12,817.825 2718.57,818.339 2722.01,818.874 2725.45,819.428 2728.89,820 2732.32,820.589 2735.75,821.193 2739.18,821.81 2742.61,822.439 2746.04,823.08 2749.46,823.731 2752.88,824.391 2756.31,825.059 2759.72,825.735 2763.14,826.418 2766.56,827.107 2769.98,827.8 2773.39,828.499 2776.81,829.202 2780.22,829.907 2783.63,830.616 2787.05,831.327 2790.46,832.04 2793.87,832.754 2797.28,833.469 2800.7,834.184 2804.11,834.899 2807.52,835.613 2810.93,836.325 2814.35,837.036 2817.76,837.744 2821.17,838.45 2824.59,839.152 2828,839.851 2831.42,840.545 2834.84,841.235 2838.25,841.919 2841.67,842.599 2845.09,843.273 2848.51,843.94 2851.94,844.602 2855.36,845.256 2858.78,845.903 2862.21,846.543 2865.64,847.173 2869.07,847.794 2872.5,848.404 2875.93,849.003 2879.37,849.588 2882.8,850.158 2886.24,850.711 2889.69,851.244 2893.13,851.753 2896.58,852.233 2900.04,852.677 2903.5,853.074 2906.96,853.411 2910.44,853.671 2913.92,853.834 2917.4,853.882 2920.88,853.795 2924.36,853.542 2927.81,853.064 2931.22,852.243 2934.5,850.915 2937.46,848.858 2939.72,845.862 2941,842.326 2941.6,838.699 2941.45,835.012 2940.5,831.439 2939.18,828.072 2937.63,824.828 2935.86,821.705 2933.9,818.713 2931.79,815.839 2929.57,813.054 2927.29,810.32 2925,807.6 2922.75,804.852 2920.58,802.022 2918.61,799.031 2917.12,795.717 2917.12,791.735 2920.83,788.119 2924.44,786.832 2927.88,786.116 2931.34,785.643 2934.81,785.322 2938.29,785.106 2941.77,784.959 2945.25,784.857 2948.73,784.783 2952.21,784.725 2955.69,784.673 2959.17,784.615 2962.65,784.543 2966.13,784.457 2969.61,784.366 2973.09,784.277 2976.57,784.184 2980.05,784.08 2983.53,783.961 2987.01,783.841 2990.49,783.742 2993.97,783.68 2997.45,783.658 3000.93,783.678 3004.41,783.735 3007.89,783.823 3011.37,783.937 3014.85,784.067 3018.33,784.205 3021.81,784.345 3025.28,784.485 3028.76,784.626 3032.24,784.773 3035.72,784.924 3039.2,785.079 3042.68,785.234 3046.15,785.382 3049.63,785.513 3053.11,785.617 3056.59,785.678 3060.07,785.674 3063.56,785.576 3067.03,785.345 3070.49,784.916 3073.92,784.188 3077.23,782.964 3080.19,780.839 3081.83,776.943 3081.33,772.781 3080.76,769.217 3081.43,765.44 3085.45,762.539 3089.05,761.596 3092.52,761.09 3095.99,760.783 3099.47,760.602 3102.95,760.511 3106.44,760.489 3109.92,760.516 3113.4,760.581 3116.88,760.672 3120.36,760.784 3123.84,760.912 3127.32,761.05 3130.79,761.193 3134.27,761.338 3137.75,761.489 3141.23,761.652 3144.7,761.831 3148.18,762.025 3151.66,762.23 3155.13,762.438 3158.61,762.645 3162.08,762.848 3165.56,763.049 3169.03,763.25 3172.51,763.45 3175.99,763.647 3179.46,763.839 3182.94,764.021 3186.42,764.192 3189.89,764.35 3193.37,764.492 3196.85,764.616 3200.33,764.719 3203.81,764.798 3207.29,764.845 3210.77,764.852 3214.25,764.808 3217.73,764.698 3221.21,764.507 3224.68,764.218 3228.14,763.805 3231.58,763.225 3234.98,762.384 3238.26,761.086 3241.18,758.892 3242.85,755.141 3243.81,751.621 3245.69,748.42 3248.74,746.119 3252.17,744.878 3255.64,744.227 3259.12,743.893 3262.61,743.755 3266.09,743.744 3269.57,743.816 3273.05,743.94 3276.53,744.093 3280,744.261 3283.48,744.44 3286.96,744.626 3290.43,744.82 3293.91,745.021 3297.39,745.223 3300.86,745.421 3304.34,745.61 3307.81,745.784 3311.29,745.937 3314.77,746.061 3318.25,746.145 3321.73,746.174 3325.21,746.142 3328.7,746.048 3332.17,745.885 3335.65,745.629 3339.11,745.23 3342.55,744.643 3345.96,743.896 3349.35,743.057 3352.73,742.209 3356.13,741.426 3359.55,740.76 3363,740.233 3366.46,739.838 3369.93,739.555 3373.41,739.362 3376.89,739.24 3380.37,739.181 3383.85,739.181 3387.33,739.241 3390.81,739.358 3394.29,739.528 3397.77,739.744 3401.24,740.003 3404.71,740.298 3408.17,740.627 3411.64,740.986 3415.1,741.371 3418.56,741.781 3422.01,742.212 3425.47,742.662 3428.92,743.13 3432.37,743.614 3435.82,744.113 3439.26,744.625 3442.71,745.149 3446.15,745.684 3449.59,746.231 3453.03,746.788 3456.47,747.355 3459.91,747.933 3463.34,748.519 3466.77,749.116 3470.21,749.721 3473.64,750.335 3477.06,750.958 3480.49,751.589 3483.92,752.228 3487.34,752.875 3490.77,753.529 3494.19,754.19 3497.61,754.857 3501.03,755.531 3504.45,756.211 3507.87,756.896 3511.28,757.587 3514.7,758.283 3518.11,758.983 3521.53,759.688 3524.94,760.397 3528.35,761.109 3531.77,761.826 3535.18,762.545 3538.59,763.267 3542,763.992 3545.41,764.72 3548.82,765.45 3552.23,766.181 3555.63,766.915 3559.04,767.65 3562.45,768.386 3565.86,769.123 3569.27,769.862 3572.67,770.601 3576.08,771.342 3579.49,772.083 3582.89,772.824 3586.3,773.566 3589.71,774.309 3593.11,775.052 3596.52,775.796 3599.93,776.54 3603.33,777.284 3606.74,778.028 3610.15,778.772 3613.55,779.517 3616.96,780.261 3620.36,781.005 3623.77,781.748 3627.18,782.491 3630.58,783.234 3633.99,783.976 3637.4,784.717 3640.8,785.458 3644.21,786.197 3647.62,786.935 3651.03,787.673 3654.44,788.409 3657.84,789.143 3661.25,789.876 3664.66,790.608 3668.07,791.338 3671.48,792.067 3674.89,792.793 3678.3,793.518 3681.71,794.241 3685.12,794.962 3688.53,795.681 3691.94,796.397 3695.36,797.112 3698.77,797.824 3702.18,798.533 3705.6,799.24 3709.01,799.944 3712.43,800.646 3715.84,801.344 3719.26,802.04 3722.67,802.732 3726.09,803.421 3729.51,804.107 3732.93,804.789 3736.35,805.468 3739.77,806.142 3743.19,806.813 3746.61,807.48 3750.03,808.142 3753.45,808.801 3756.87,809.454 3760.3,810.103 3763.72,810.746 3767.15,811.385 3770.58,812.018 3774.01,812.645 3777.44,813.265 3780.87,813.879 3784.3,814.486 3787.73,815.085 3791.16,815.676 3794.6,816.259 3798.04,816.832 3801.48,817.397 3804.91,817.951 3808.36,818.496 3811.8,819.028 3815.24,819.549 3818.69,820.055 3822.14,820.544 3825.59,821.015 3829.05,821.461 3832.5,821.879 3835.97,822.26 3839.43,822.593 3842.9,822.866 3846.38,823.064 3849.86,823.168 3853.34,823.158 3856.82,823.01 3860.3,822.691 3863.75,822.167 3867.16,821.412 3870.52,820.432 3873.83,819.303 3877.13,818.159 3880.46,817.119 3883.84,816.249 3887.27,815.563 3890.72,815.047 3894.18,814.678 3897.66,814.433 3901.14,814.292 3904.62,814.236 3908.1,814.253 3911.58,814.332 3915.06,814.463 3918.54,814.639 3922.01,814.854 3925.49,815.104 3928.96,815.385 3932.43,815.692 3935.89,816.024 3939.36,816.377 3942.82,816.75 3946.28,817.141 3949.74,817.549 3953.2,817.971 3956.65,818.406 3960.11,818.854 3963.56,819.313 3967.01,819.782 3970.46,820.261 3973.91,820.748 3977.36,821.244 3980.8,821.746 3984.25,822.256 3987.7,822.771 3991.14,823.292 3994.59,823.818 3998.03,824.349 4001.47,824.884 4004.91,825.422 4008.35,825.965 4011.8,826.51 4015.24,827.059 4018.68,827.61 4022.12,828.163 4025.56,828.718 4029,829.275 4032.44,829.834 4035.87,830.394 4039.31,830.954 4042.75,831.516 4046.19,832.079 4049.63,832.642 4053.07,833.205 4056.51,833.768 4059.94,834.331 4063.38,834.894 4066.82,835.456 4070.26,836.018 4073.7,836.578 4077.14,837.138 4080.58,837.696 4084.02,838.252 4087.46,838.807 4090.9,839.36 4094.34,839.911 4097.78,840.46 4101.22,841.006 4104.66,841.55 4108.1,842.091 4111.54,842.629 4114.99,843.164 4118.43,843.696 4121.87,844.225 4125.32,844.75 4128.76,845.272 4132.21,845.79 4135.65,846.303 4139.1,846.812 4142.55,847.317 4145.99,847.816 4149.44,848.309 4152.89,848.796 4156.34,849.277 4159.79,849.749 4163.24,850.213 4166.7,850.667 4170.15,851.11 4173.61,851.54 4177.07,851.954 4180.53,852.35 4183.99,852.722 4187.46,853.063 4190.92,853.365 4194.4,853.614 4197.88,853.794 4201.36,853.88 4204.84,853.841 4208.32,853.623 4211.77,853.087 4215.08,851.566 4215.67,850.724 4215.85,849.747 4215.68,848.792 4215.17,847.697 4214.52,846.718 4213.8,845.811 4213.03,844.952 4212.22,844.126 4211.39,843.324 4210.55,842.542 4209.69,841.775 4208.83,841.022 4207.68,840.061 4206.53,839.119 4205.36,838.197 4204.17,837.298 4202.96,836.423 4201.74,835.573 4200.5,834.745 4199.26,833.938 4198,833.146 4196.73,832.368 4195.46,831.6 4193.81,830.613 4191.64,829.347 4189.47,828.097 4187.28,826.862 4185.1,825.642 4182.9,824.436 4180.69,823.247 4178.48,822.073 4176.26,820.914 4174.03,819.77 4171.8,818.641 4169.56,817.524 4167.31,816.419 4164.39,814.996 4161.45,813.586 4157.64,811.767 4153.82,809.956 4150,808.144 4146.18,806.322 4142.37,804.48 4138.58,802.604 4134.82,800.676 4131.09,798.667 4127.43,796.526 4123.9,794.138 4120.79,791.113 4120.41,788.354 4122.28,786.972 4123.31,786.597 4124.33,786.314 4125.35,786.085 4126.39,785.894 4127.43,785.733 4128.47,785.595 4129.51,785.477 4130.56,785.376 4131.61,785.288 4132.65,785.211 4133.7,785.145 4135.06,785.071 4136.43,785.008 4138.2,784.941 4140.51,784.871 4142.82,784.816 4145.81,784.758 4149.71,784.696 4153.61,784.635 4157.51,784.556 4161.41,784.458 4165.31,784.353 4169.2,784.249 4173.1,784.138 4177,784.007 4180.9,783.864 4184.79,783.746 4188.69,783.676 4192.59,783.659 4196.49,783.693 4200.39,783.769 4204.29,783.878 4208.18,784.011 4212.08,784.156 4215.98,784.306 4219.87,784.455 4223.77,784.606 4227.67,784.761 4231.56,784.922 4235.46,785.087 4239.35,785.251 4243.25,785.407 4247.15,785.543 4251.05,785.644 4254.95,785.685 4258.85,785.63 4262.74,785.409 4266.62,784.865 4270.36,783.358 4271.07,782.473 4271.26,781.322 4270.95,780.24 4270.43,779.346 4269.81,778.555 4269.12,777.829 4268.4,777.148 4267.65,776.499 4266.89,775.874 4266.11,775.265 4265.32,774.667 4264.29,773.902 4262.94,772.917 4261.19,771.638 4258.94,769.947 4256.74,768.162 4254.75,766.123 4254.01,764.843 4254.57,762.816 4256.46,761.874 4257.84,761.511 4259.21,761.254 4260.59,761.06 4261.98,760.909 4263.36,760.791 4264.75,760.699 4266.14,760.627 4267.54,760.573 4268.93,760.534 4270.32,760.508 4271.71,760.494 4273.1,760.488 4274.91,760.494 4276.72,760.511 4279.08,760.548 4281.43,760.598 4284.48,760.679 4287.54,760.774 4291.52,760.914 4295.49,761.065 4299.46,761.221 4303.43,761.38 4307.41,761.548 4311.38,761.731 4315.35,761.932 4319.32,762.148 4323.29,762.37 4327.26,762.591 4331.23,762.809 4335.2,763.025 4339.17,763.24 4343.14,763.455 4347.11,763.666 4351.08,763.87 4355.06,764.064 4359.03,764.245 4363,764.411 4366.97,764.557 4370.95,764.682 4374.92,764.779 4378.9,764.84 4382.87,764.853 4386.85,764.797 4390.82,764.644 4394.79,764.355 4398.74,763.864 4402.65,763.006 4406.27,760.828 4400.09,745.682 4400.37,745.491 4400.42,745.458 4400.49,745.416 4400.58,745.362 4400.7,745.296 4400.86,745.215 4401.07,745.116 4401.35,744.999 4401.63,744.892 4401.92,744.794 4402.2,744.705 4402.49,744.624 4402.87,744.527 4403.25,744.44 4403.64,744.362 4404.02,744.292 4404.41,744.228 4404.91,744.154 4405.41,744.089 4405.91,744.031 4406.42,743.981 4407.07,743.925 4407.73,743.879 4408.39,743.84 4409.05,743.809 4409.9,743.778 4410.76,743.756 4411.62,743.743 4412.47,743.737 4413.59,743.738 4414.7,743.748 4415.81,743.766 4417.26,743.799 4418.71,743.841 4420.59,743.905 4423.03,744.001 4426.21,744.14 4430.34,744.334 4434.47,744.539 4438.6,744.753 4442.72,744.975 4446.85,745.2 4450.98,745.422 4455.11,745.633 4459.24,745.824 4463.37,745.989 4467.5,746.112 4471.64,746.172 4475.77,746.148 4479.9,746.032 4484.03,745.8 "/>
<path clip-path="url(#clip010)" d="M290.157 328.94 L800.704 328.94 L800.704 225.26 L290.157 225.26  Z" fill="#ffffff" fill-rule="evenodd" fill-opacity="1"/>
<polyline clip-path="url(#clip010)" style="stroke:#000000; stroke-linecap:round; stroke-linejoin:round; stroke-width:4; stroke-opacity:1; fill:none" points="290.157,328.94 800.704,328.94 800.704,225.26 290.157,225.26 290.157,328.94 "/>
<polyline clip-path="url(#clip010)" style="stroke:#008000; stroke-linecap:round; stroke-linejoin:round; stroke-width:8; stroke-opacity:0.5; fill:none" stroke-dasharray="32, 20" points="313.865,277.1 456.113,277.1 "/>
<path clip-path="url(#clip010)" d="M507.692 262.482 L507.692 267.412 Q505.33 265.213 502.645 264.125 Q499.983 263.037 496.974 263.037 Q491.048 263.037 487.9 266.672 Q484.752 270.283 484.752 277.134 Q484.752 283.963 487.9 287.597 Q491.048 291.208 496.974 291.208 Q499.983 291.208 502.645 290.12 Q505.33 289.033 507.692 286.833 L507.692 291.718 Q505.238 293.384 502.483 294.218 Q499.752 295.051 496.696 295.051 Q488.849 295.051 484.335 290.259 Q479.821 285.445 479.821 277.134 Q479.821 268.801 484.335 264.01 Q488.849 259.195 496.696 259.195 Q499.798 259.195 502.53 260.028 Q505.284 260.838 507.692 262.482 Z" fill="#000000" fill-rule="nonzero" fill-opacity="1" /><path clip-path="url(#clip010)" d="M524.775 271.44 Q521.349 271.44 519.358 274.125 Q517.367 276.787 517.367 281.44 Q517.367 286.093 519.335 288.778 Q521.326 291.44 524.775 291.44 Q528.178 291.44 530.168 288.755 Q532.159 286.07 532.159 281.44 Q532.159 276.834 530.168 274.148 Q528.178 271.44 524.775 271.44 M524.775 267.829 Q530.33 267.829 533.502 271.44 Q536.673 275.051 536.673 281.44 Q536.673 287.806 533.502 291.44 Q530.33 295.051 524.775 295.051 Q519.196 295.051 516.025 291.44 Q512.877 287.806 512.877 281.44 Q512.877 275.051 516.025 271.44 Q519.196 267.829 524.775 267.829 Z" fill="#000000" fill-rule="nonzero" fill-opacity="1" /><path clip-path="url(#clip010)" d="M565.284 278.732 L565.284 294.38 L561.025 294.38 L561.025 278.871 Q561.025 275.19 559.589 273.361 Q558.154 271.533 555.284 271.533 Q551.835 271.533 549.844 273.732 Q547.853 275.931 547.853 279.727 L547.853 294.38 L543.571 294.38 L543.571 268.454 L547.853 268.454 L547.853 272.482 Q549.381 270.144 551.441 268.986 Q553.525 267.829 556.233 267.829 Q560.7 267.829 562.992 270.607 Q565.284 273.361 565.284 278.732 Z" fill="#000000" fill-rule="nonzero" fill-opacity="1" /><path clip-path="url(#clip010)" d="M577.992 261.093 L577.992 268.454 L586.765 268.454 L586.765 271.764 L577.992 271.764 L577.992 285.838 Q577.992 289.009 578.849 289.912 Q579.728 290.815 582.39 290.815 L586.765 290.815 L586.765 294.38 L582.39 294.38 Q577.46 294.38 575.585 292.551 Q573.71 290.699 573.71 285.838 L573.71 271.764 L570.585 271.764 L570.585 268.454 L573.71 268.454 L573.71 261.093 L577.992 261.093 Z" fill="#000000" fill-rule="nonzero" fill-opacity="1" /><path clip-path="url(#clip010)" d="M592.367 268.454 L596.626 268.454 L596.626 294.38 L592.367 294.38 L592.367 268.454 M592.367 258.361 L596.626 258.361 L596.626 263.755 L592.367 263.755 L592.367 258.361 Z" fill="#000000" fill-rule="nonzero" fill-opacity="1" /><path clip-path="url(#clip010)" d="M627.089 278.732 L627.089 294.38 L622.83 294.38 L622.83 278.871 Q622.83 275.19 621.395 273.361 Q619.959 271.533 617.089 271.533 Q613.64 271.533 611.649 273.732 Q609.659 275.931 609.659 279.727 L609.659 294.38 L605.376 294.38 L605.376 268.454 L609.659 268.454 L609.659 272.482 Q611.186 270.144 613.247 268.986 Q615.33 267.829 618.038 267.829 Q622.506 267.829 624.797 270.607 Q627.089 273.361 627.089 278.732 Z" fill="#000000" fill-rule="nonzero" fill-opacity="1" /><path clip-path="url(#clip010)" d="M635.145 284.148 L635.145 268.454 L639.404 268.454 L639.404 283.986 Q639.404 287.667 640.839 289.519 Q642.274 291.347 645.144 291.347 Q648.594 291.347 650.584 289.148 Q652.598 286.949 652.598 283.153 L652.598 268.454 L656.857 268.454 L656.857 294.38 L652.598 294.38 L652.598 290.398 Q651.047 292.759 648.987 293.917 Q646.95 295.051 644.242 295.051 Q639.774 295.051 637.459 292.273 Q635.145 289.495 635.145 284.148 M645.862 267.829 L645.862 267.829 Z" fill="#000000" fill-rule="nonzero" fill-opacity="1" /><path clip-path="url(#clip010)" d="M677.413 281.347 Q672.251 281.347 670.26 282.528 Q668.269 283.708 668.269 286.556 Q668.269 288.824 669.751 290.167 Q671.255 291.486 673.825 291.486 Q677.367 291.486 679.496 288.986 Q681.649 286.463 681.649 282.296 L681.649 281.347 L677.413 281.347 M685.908 279.588 L685.908 294.38 L681.649 294.38 L681.649 290.445 Q680.191 292.806 678.015 293.94 Q675.839 295.051 672.691 295.051 Q668.709 295.051 666.348 292.829 Q664.01 290.583 664.01 286.833 Q664.01 282.458 666.927 280.236 Q669.867 278.014 675.677 278.014 L681.649 278.014 L681.649 277.597 Q681.649 274.658 679.704 273.06 Q677.783 271.44 674.288 271.44 Q672.066 271.44 669.959 271.972 Q667.853 272.505 665.908 273.57 L665.908 269.634 Q668.246 268.732 670.445 268.292 Q672.644 267.829 674.728 267.829 Q680.353 267.829 683.13 270.746 Q685.908 273.662 685.908 279.588 Z" fill="#000000" fill-rule="nonzero" fill-opacity="1" /><path clip-path="url(#clip010)" d="M698.894 261.093 L698.894 268.454 L707.667 268.454 L707.667 271.764 L698.894 271.764 L698.894 285.838 Q698.894 289.009 699.751 289.912 Q700.63 290.815 703.292 290.815 L707.667 290.815 L707.667 294.38 L703.292 294.38 Q698.362 294.38 696.487 292.551 Q694.612 290.699 694.612 285.838 L694.612 271.764 L691.487 271.764 L691.487 268.454 L694.612 268.454 L694.612 261.093 L698.894 261.093 Z" fill="#000000" fill-rule="nonzero" fill-opacity="1" /><path clip-path="url(#clip010)" d="M713.269 268.454 L717.528 268.454 L717.528 294.38 L713.269 294.38 L713.269 268.454 M713.269 258.361 L717.528 258.361 L717.528 263.755 L713.269 263.755 L713.269 258.361 Z" fill="#000000" fill-rule="nonzero" fill-opacity="1" /><path clip-path="url(#clip010)" d="M736.487 271.44 Q733.061 271.44 731.07 274.125 Q729.079 276.787 729.079 281.44 Q729.079 286.093 731.047 288.778 Q733.038 291.44 736.487 291.44 Q739.889 291.44 741.88 288.755 Q743.871 286.07 743.871 281.44 Q743.871 276.834 741.88 274.148 Q739.889 271.44 736.487 271.44 M736.487 267.829 Q742.042 267.829 745.213 271.44 Q748.385 275.051 748.385 281.44 Q748.385 287.806 745.213 291.44 Q742.042 295.051 736.487 295.051 Q730.908 295.051 727.737 291.44 Q724.589 287.806 724.589 281.44 Q724.589 275.051 727.737 271.44 Q730.908 267.829 736.487 267.829 Z" fill="#000000" fill-rule="nonzero" fill-opacity="1" /><path clip-path="url(#clip010)" d="M776.996 278.732 L776.996 294.38 L772.736 294.38 L772.736 278.871 Q772.736 275.19 771.301 273.361 Q769.866 271.533 766.996 271.533 Q763.547 271.533 761.556 273.732 Q759.565 275.931 759.565 279.727 L759.565 294.38 L755.283 294.38 L755.283 268.454 L759.565 268.454 L759.565 272.482 Q761.093 270.144 763.153 268.986 Q765.236 267.829 767.945 267.829 Q772.412 267.829 774.704 270.607 Q776.996 273.361 776.996 278.732 Z" fill="#000000" fill-rule="nonzero" fill-opacity="1" /></svg>
