<?xml version="1.0" encoding="utf-8"?>
<svg xmlns="http://www.w3.org/2000/svg" xmlns:xlink="http://www.w3.org/1999/xlink" width="600" height="400" viewBox="0 0 2400 1600">
<defs>
  <clipPath id="clip250">
    <rect x="0" y="0" width="2400" height="1600"/>
  </clipPath>
</defs>
<path clip-path="url(#clip250)" d="M0 1600 L2400 1600 L2400 0 L0 0  Z" fill="#ffffff" fill-rule="evenodd" fill-opacity="1"/>
<defs>
  <clipPath id="clip251">
    <rect x="219" y="183" width="2135" height="1240"/>
  </clipPath>
</defs>
<path clip-path="url(#clip250)" d="M250.028 1423.18 L2352.76 1423.18 L2352.76 123.472 L250.028 123.472  Z" fill="#ffffff" fill-rule="evenodd" fill-opacity="1"/>
<defs>
  <clipPath id="clip252">
    <rect x="250" y="123" width="2104" height="1301"/>
  </clipPath>
</defs>
<polyline clip-path="url(#clip252)" style="stroke:#000000; stroke-linecap:round; stroke-linejoin:round; stroke-width:2; stroke-opacity:0.1; fill:none" points="289.498,1423.18 289.498,123.472 "/>
<polyline clip-path="url(#clip252)" style="stroke:#000000; stroke-linecap:round; stroke-linejoin:round; stroke-width:2; stroke-opacity:0.1; fill:none" points="790.538,1423.18 790.538,123.472 "/>
<polyline clip-path="url(#clip252)" style="stroke:#000000; stroke-linecap:round; stroke-linejoin:round; stroke-width:2; stroke-opacity:0.1; fill:none" points="1291.58,1423.18 1291.58,123.472 "/>
<polyline clip-path="url(#clip252)" style="stroke:#000000; stroke-linecap:round; stroke-linejoin:round; stroke-width:2; stroke-opacity:0.1; fill:none" points="1792.62,1423.18 1792.62,123.472 "/>
<polyline clip-path="url(#clip252)" style="stroke:#000000; stroke-linecap:round; stroke-linejoin:round; stroke-width:2; stroke-opacity:0.1; fill:none" points="2293.66,1423.18 2293.66,123.472 "/>
<polyline clip-path="url(#clip252)" style="stroke:#000000; stroke-linecap:round; stroke-linejoin:round; stroke-width:2; stroke-opacity:0.1; fill:none" points="250.028,1212.89 2352.76,1212.89 "/>
<polyline clip-path="url(#clip252)" style="stroke:#000000; stroke-linecap:round; stroke-linejoin:round; stroke-width:2; stroke-opacity:0.1; fill:none" points="250.028,960.755 2352.76,960.755 "/>
<polyline clip-path="url(#clip252)" style="stroke:#000000; stroke-linecap:round; stroke-linejoin:round; stroke-width:2; stroke-opacity:0.1; fill:none" points="250.028,708.617 2352.76,708.617 "/>
<polyline clip-path="url(#clip252)" style="stroke:#000000; stroke-linecap:round; stroke-linejoin:round; stroke-width:2; stroke-opacity:0.1; fill:none" points="250.028,456.478 2352.76,456.478 "/>
<polyline clip-path="url(#clip252)" style="stroke:#000000; stroke-linecap:round; stroke-linejoin:round; stroke-width:2; stroke-opacity:0.1; fill:none" points="250.028,204.34 2352.76,204.34 "/>
<polyline clip-path="url(#clip250)" style="stroke:#000000; stroke-linecap:round; stroke-linejoin:round; stroke-width:4; stroke-opacity:1; fill:none" points="250.028,1423.18 2352.76,1423.18 "/>
<polyline clip-path="url(#clip250)" style="stroke:#000000; stroke-linecap:round; stroke-linejoin:round; stroke-width:4; stroke-opacity:1; fill:none" points="289.498,1423.18 289.498,1404.28 "/>
<polyline clip-path="url(#clip250)" style="stroke:#000000; stroke-linecap:round; stroke-linejoin:round; stroke-width:4; stroke-opacity:1; fill:none" points="790.538,1423.18 790.538,1404.28 "/>
<polyline clip-path="url(#clip250)" style="stroke:#000000; stroke-linecap:round; stroke-linejoin:round; stroke-width:4; stroke-opacity:1; fill:none" points="1291.58,1423.18 1291.58,1404.28 "/>
<polyline clip-path="url(#clip250)" style="stroke:#000000; stroke-linecap:round; stroke-linejoin:round; stroke-width:4; stroke-opacity:1; fill:none" points="1792.62,1423.18 1792.62,1404.28 "/>
<polyline clip-path="url(#clip250)" style="stroke:#000000; stroke-linecap:round; stroke-linejoin:round; stroke-width:4; stroke-opacity:1; fill:none" points="2293.66,1423.18 2293.66,1404.28 "/>
<path clip-path="url(#clip250)" d="M266.882 1454.1 Q263.271 1454.1 261.442 1457.66 Q259.637 1461.2 259.637 1468.33 Q259.637 1475.44 261.442 1479.01 Q263.271 1482.55 266.882 1482.55 Q270.516 1482.55 272.322 1479.01 Q274.151 1475.44 274.151 1468.33 Q274.151 1461.2 272.322 1457.66 Q270.516 1454.1 266.882 1454.1 M266.882 1450.39 Q272.692 1450.39 275.748 1455 Q278.826 1459.58 278.826 1468.33 Q278.826 1477.06 275.748 1481.67 Q272.692 1486.25 266.882 1486.25 Q261.072 1486.25 257.993 1481.67 Q254.938 1477.06 254.938 1468.33 Q254.938 1459.58 257.993 1455 Q261.072 1450.39 266.882 1450.39 Z" fill="#000000" fill-rule="nonzero" fill-opacity="1" /><path clip-path="url(#clip250)" d="M287.044 1479.7 L291.928 1479.7 L291.928 1485.58 L287.044 1485.58 L287.044 1479.7 Z" fill="#000000" fill-rule="nonzero" fill-opacity="1" /><path clip-path="url(#clip250)" d="M312.113 1454.1 Q308.502 1454.1 306.674 1457.66 Q304.868 1461.2 304.868 1468.33 Q304.868 1475.44 306.674 1479.01 Q308.502 1482.55 312.113 1482.55 Q315.748 1482.55 317.553 1479.01 Q319.382 1475.44 319.382 1468.33 Q319.382 1461.2 317.553 1457.66 Q315.748 1454.1 312.113 1454.1 M312.113 1450.39 Q317.923 1450.39 320.979 1455 Q324.058 1459.58 324.058 1468.33 Q324.058 1477.06 320.979 1481.67 Q317.923 1486.25 312.113 1486.25 Q306.303 1486.25 303.224 1481.67 Q300.169 1477.06 300.169 1468.33 Q300.169 1459.58 303.224 1455 Q306.303 1450.39 312.113 1450.39 Z" fill="#000000" fill-rule="nonzero" fill-opacity="1" /><path clip-path="url(#clip250)" d="M762.274 1481.64 L778.594 1481.64 L778.594 1485.58 L756.649 1485.58 L756.649 1481.64 Q759.311 1478.89 763.895 1474.26 Q768.501 1469.61 769.682 1468.27 Q771.927 1465.74 772.807 1464.01 Q773.709 1462.25 773.709 1460.56 Q773.709 1457.8 771.765 1456.07 Q769.844 1454.33 766.742 1454.33 Q764.543 1454.33 762.089 1455.09 Q759.659 1455.86 756.881 1457.41 L756.881 1452.69 Q759.705 1451.55 762.159 1450.97 Q764.612 1450.39 766.649 1450.39 Q772.02 1450.39 775.214 1453.08 Q778.409 1455.77 778.409 1460.26 Q778.409 1462.39 777.598 1464.31 Q776.811 1466.2 774.705 1468.8 Q774.126 1469.47 771.024 1472.69 Q767.922 1475.88 762.274 1481.64 Z" fill="#000000" fill-rule="nonzero" fill-opacity="1" /><path clip-path="url(#clip250)" d="M788.408 1479.7 L793.293 1479.7 L793.293 1485.58 L788.408 1485.58 L788.408 1479.7 Z" fill="#000000" fill-rule="nonzero" fill-opacity="1" /><path clip-path="url(#clip250)" d="M803.524 1451.02 L821.88 1451.02 L821.88 1454.96 L807.806 1454.96 L807.806 1463.43 Q808.825 1463.08 809.844 1462.92 Q810.862 1462.73 811.881 1462.73 Q817.668 1462.73 821.047 1465.9 Q824.427 1469.08 824.427 1474.49 Q824.427 1480.07 820.955 1483.17 Q817.482 1486.25 811.163 1486.25 Q808.987 1486.25 806.719 1485.88 Q804.473 1485.51 802.066 1484.77 L802.066 1480.07 Q804.149 1481.2 806.371 1481.76 Q808.594 1482.32 811.07 1482.32 Q815.075 1482.32 817.413 1480.21 Q819.751 1478.1 819.751 1474.49 Q819.751 1470.88 817.413 1468.77 Q815.075 1466.67 811.07 1466.67 Q809.195 1466.67 807.32 1467.08 Q805.469 1467.5 803.524 1468.38 L803.524 1451.02 Z" fill="#000000" fill-rule="nonzero" fill-opacity="1" /><path clip-path="url(#clip250)" d="M1258.74 1451.02 L1277.1 1451.02 L1277.1 1454.96 L1263.03 1454.96 L1263.03 1463.43 Q1264.04 1463.08 1265.06 1462.92 Q1266.08 1462.73 1267.1 1462.73 Q1272.89 1462.73 1276.27 1465.9 Q1279.65 1469.08 1279.65 1474.49 Q1279.65 1480.07 1276.17 1483.17 Q1272.7 1486.25 1266.38 1486.25 Q1264.21 1486.25 1261.94 1485.88 Q1259.69 1485.51 1257.28 1484.77 L1257.28 1480.07 Q1259.37 1481.2 1261.59 1481.76 Q1263.81 1482.32 1266.29 1482.32 Q1270.29 1482.32 1272.63 1480.21 Q1274.97 1478.1 1274.97 1474.49 Q1274.97 1470.88 1272.63 1468.77 Q1270.29 1466.67 1266.29 1466.67 Q1264.41 1466.67 1262.54 1467.08 Q1260.69 1467.5 1258.74 1468.38 L1258.74 1451.02 Z" fill="#000000" fill-rule="nonzero" fill-opacity="1" /><path clip-path="url(#clip250)" d="M1288.86 1479.7 L1293.74 1479.7 L1293.74 1485.58 L1288.86 1485.58 L1288.86 1479.7 Z" fill="#000000" fill-rule="nonzero" fill-opacity="1" /><path clip-path="url(#clip250)" d="M1313.93 1454.1 Q1310.32 1454.1 1308.49 1457.66 Q1306.68 1461.2 1306.68 1468.33 Q1306.68 1475.44 1308.49 1479.01 Q1310.32 1482.55 1313.93 1482.55 Q1317.56 1482.55 1319.37 1479.01 Q1321.2 1475.44 1321.2 1468.33 Q1321.2 1461.2 1319.37 1457.66 Q1317.56 1454.1 1313.93 1454.1 M1313.93 1450.39 Q1319.74 1450.39 1322.79 1455 Q1325.87 1459.58 1325.87 1468.33 Q1325.87 1477.06 1322.79 1481.67 Q1319.74 1486.25 1313.93 1486.25 Q1308.12 1486.25 1305.04 1481.67 Q1301.98 1477.06 1301.98 1468.33 Q1301.98 1459.58 1305.04 1455 Q1308.12 1450.39 1313.93 1450.39 Z" fill="#000000" fill-rule="nonzero" fill-opacity="1" /><path clip-path="url(#clip250)" d="M1758.94 1451.02 L1781.16 1451.02 L1781.16 1453.01 L1768.61 1485.58 L1763.73 1485.58 L1775.54 1454.96 L1758.94 1454.96 L1758.94 1451.02 Z" fill="#000000" fill-rule="nonzero" fill-opacity="1" /><path clip-path="url(#clip250)" d="M1790.28 1479.7 L1795.17 1479.7 L1795.17 1485.58 L1790.28 1485.58 L1790.28 1479.7 Z" fill="#000000" fill-rule="nonzero" fill-opacity="1" /><path clip-path="url(#clip250)" d="M1805.4 1451.02 L1823.75 1451.02 L1823.75 1454.96 L1809.68 1454.96 L1809.68 1463.43 Q1810.7 1463.08 1811.72 1462.92 Q1812.73 1462.73 1813.75 1462.73 Q1819.54 1462.73 1822.92 1465.9 Q1826.3 1469.08 1826.3 1474.49 Q1826.3 1480.07 1822.83 1483.17 Q1819.35 1486.25 1813.04 1486.25 Q1810.86 1486.25 1808.59 1485.88 Q1806.35 1485.51 1803.94 1484.77 L1803.94 1480.07 Q1806.02 1481.2 1808.24 1481.76 Q1810.47 1482.32 1812.94 1482.32 Q1816.95 1482.32 1819.29 1480.21 Q1821.62 1478.1 1821.62 1474.49 Q1821.62 1470.88 1819.29 1468.77 Q1816.95 1466.67 1812.94 1466.67 Q1811.07 1466.67 1809.19 1467.08 Q1807.34 1467.5 1805.4 1468.38 L1805.4 1451.02 Z" fill="#000000" fill-rule="nonzero" fill-opacity="1" /><path clip-path="url(#clip250)" d="M2245.73 1481.64 L2253.37 1481.64 L2253.37 1455.28 L2245.06 1456.95 L2245.06 1452.69 L2253.32 1451.02 L2258 1451.02 L2258 1481.64 L2265.64 1481.64 L2265.64 1485.58 L2245.73 1485.58 L2245.73 1481.64 Z" fill="#000000" fill-rule="nonzero" fill-opacity="1" /><path clip-path="url(#clip250)" d="M2285.08 1454.1 Q2281.47 1454.1 2279.64 1457.66 Q2277.84 1461.2 2277.84 1468.33 Q2277.84 1475.44 2279.64 1479.01 Q2281.47 1482.55 2285.08 1482.55 Q2288.72 1482.55 2290.52 1479.01 Q2292.35 1475.44 2292.35 1468.33 Q2292.35 1461.2 2290.52 1457.66 Q2288.72 1454.1 2285.08 1454.1 M2285.08 1450.39 Q2290.89 1450.39 2293.95 1455 Q2297.03 1459.58 2297.03 1468.33 Q2297.03 1477.06 2293.95 1481.67 Q2290.89 1486.25 2285.08 1486.25 Q2279.27 1486.25 2276.19 1481.67 Q2273.14 1477.06 2273.14 1468.33 Q2273.14 1459.58 2276.19 1455 Q2279.27 1450.39 2285.08 1450.39 Z" fill="#000000" fill-rule="nonzero" fill-opacity="1" /><path clip-path="url(#clip250)" d="M2305.24 1479.7 L2310.13 1479.7 L2310.13 1485.58 L2305.24 1485.58 L2305.24 1479.7 Z" fill="#000000" fill-rule="nonzero" fill-opacity="1" /><path clip-path="url(#clip250)" d="M2330.31 1454.1 Q2326.7 1454.1 2324.87 1457.66 Q2323.07 1461.2 2323.07 1468.33 Q2323.07 1475.44 2324.87 1479.01 Q2326.7 1482.55 2330.31 1482.55 Q2333.95 1482.55 2335.75 1479.01 Q2337.58 1475.44 2337.58 1468.33 Q2337.58 1461.2 2335.75 1457.66 Q2333.95 1454.1 2330.31 1454.1 M2330.31 1450.39 Q2336.12 1450.39 2339.18 1455 Q2342.26 1459.58 2342.26 1468.33 Q2342.26 1477.06 2339.18 1481.67 Q2336.12 1486.25 2330.31 1486.25 Q2324.5 1486.25 2321.43 1481.67 Q2318.37 1477.06 2318.37 1468.33 Q2318.37 1459.58 2321.43 1455 Q2324.5 1450.39 2330.31 1450.39 Z" fill="#000000" fill-rule="nonzero" fill-opacity="1" /><path clip-path="url(#clip250)" d="M1269.77 1561.55 Q1270.92 1563.08 1274.35 1563.08 L1277.19 1563.08 L1277.19 1568.04 L1273.65 1568.04 Q1267.92 1568.04 1265.31 1564.99 Q1262.7 1561.87 1262.7 1555.12 L1262.7 1538.25 L1249.34 1538.25 L1249.34 1532.4 L1282.22 1532.4 L1282.22 1538.25 L1268.69 1538.25 L1268.69 1555.47 Q1268.69 1560.09 1269.77 1561.55 Z" fill="#000000" fill-rule="nonzero" fill-opacity="1" /><path clip-path="url(#clip250)" d="M1318.63 1578.87 L1318.63 1583.42 L1284.76 1583.42 L1284.76 1578.87 L1318.63 1578.87 Z" fill="#000000" fill-rule="nonzero" fill-opacity="1" /><path clip-path="url(#clip250)" d="M1326.08 1562.63 L1336.58 1562.63 L1336.58 1526.38 L1325.15 1528.67 L1325.15 1522.82 L1336.51 1520.52 L1342.94 1520.52 L1342.94 1562.63 L1353.45 1562.63 L1353.45 1568.04 L1326.08 1568.04 L1326.08 1562.63 Z" fill="#000000" fill-rule="nonzero" fill-opacity="1" /><polyline clip-path="url(#clip250)" style="stroke:#000000; stroke-linecap:round; stroke-linejoin:round; stroke-width:4; stroke-opacity:1; fill:none" points="250.028,1423.18 250.028,123.472 "/>
<polyline clip-path="url(#clip250)" style="stroke:#000000; stroke-linecap:round; stroke-linejoin:round; stroke-width:4; stroke-opacity:1; fill:none" points="250.028,1212.89 268.926,1212.89 "/>
<polyline clip-path="url(#clip250)" style="stroke:#000000; stroke-linecap:round; stroke-linejoin:round; stroke-width:4; stroke-opacity:1; fill:none" points="250.028,960.755 268.926,960.755 "/>
<polyline clip-path="url(#clip250)" style="stroke:#000000; stroke-linecap:round; stroke-linejoin:round; stroke-width:4; stroke-opacity:1; fill:none" points="250.028,708.617 268.926,708.617 "/>
<polyline clip-path="url(#clip250)" style="stroke:#000000; stroke-linecap:round; stroke-linejoin:round; stroke-width:4; stroke-opacity:1; fill:none" points="250.028,456.478 268.926,456.478 "/>
<polyline clip-path="url(#clip250)" style="stroke:#000000; stroke-linecap:round; stroke-linejoin:round; stroke-width:4; stroke-opacity:1; fill:none" points="250.028,204.34 268.926,204.34 "/>
<path clip-path="url(#clip250)" d="M126.529 1198.69 Q122.918 1198.69 121.089 1202.26 Q119.283 1205.8 119.283 1212.93 Q119.283 1220.03 121.089 1223.6 Q122.918 1227.14 126.529 1227.14 Q130.163 1227.14 131.968 1223.6 Q133.797 1220.03 133.797 1212.93 Q133.797 1205.8 131.968 1202.26 Q130.163 1198.69 126.529 1198.69 M126.529 1194.99 Q132.339 1194.99 135.394 1199.59 Q138.473 1204.18 138.473 1212.93 Q138.473 1221.65 135.394 1226.26 Q132.339 1230.84 126.529 1230.84 Q120.718 1230.84 117.64 1226.26 Q114.584 1221.65 114.584 1212.93 Q114.584 1204.18 117.64 1199.59 Q120.718 1194.99 126.529 1194.99 Z" fill="#000000" fill-rule="nonzero" fill-opacity="1" /><path clip-path="url(#clip250)" d="M146.691 1224.29 L151.575 1224.29 L151.575 1230.17 L146.691 1230.17 L146.691 1224.29 Z" fill="#000000" fill-rule="nonzero" fill-opacity="1" /><path clip-path="url(#clip250)" d="M172.339 1211.03 Q169.19 1211.03 167.339 1213.18 Q165.51 1215.34 165.51 1219.09 Q165.51 1222.81 167.339 1224.99 Q169.19 1227.14 172.339 1227.14 Q175.487 1227.14 177.315 1224.99 Q179.167 1222.81 179.167 1219.09 Q179.167 1215.34 177.315 1213.18 Q175.487 1211.03 172.339 1211.03 M181.621 1196.38 L181.621 1200.64 Q179.862 1199.8 178.056 1199.36 Q176.274 1198.92 174.514 1198.92 Q169.885 1198.92 167.431 1202.05 Q165.001 1205.17 164.653 1211.49 Q166.019 1209.48 168.079 1208.41 Q170.139 1207.33 172.616 1207.33 Q177.825 1207.33 180.834 1210.5 Q183.866 1213.65 183.866 1219.09 Q183.866 1224.41 180.718 1227.63 Q177.57 1230.84 172.339 1230.84 Q166.343 1230.84 163.172 1226.26 Q160.001 1221.65 160.001 1212.93 Q160.001 1204.73 163.89 1199.87 Q167.778 1194.99 174.329 1194.99 Q176.089 1194.99 177.871 1195.34 Q179.676 1195.68 181.621 1196.38 Z" fill="#000000" fill-rule="nonzero" fill-opacity="1" /><path clip-path="url(#clip250)" d="M202.5 1211.03 Q199.352 1211.03 197.5 1213.18 Q195.672 1215.34 195.672 1219.09 Q195.672 1222.81 197.5 1224.99 Q199.352 1227.14 202.5 1227.14 Q205.649 1227.14 207.477 1224.99 Q209.329 1222.81 209.329 1219.09 Q209.329 1215.34 207.477 1213.18 Q205.649 1211.03 202.5 1211.03 M211.783 1196.38 L211.783 1200.64 Q210.024 1199.8 208.218 1199.36 Q206.436 1198.92 204.676 1198.92 Q200.047 1198.92 197.593 1202.05 Q195.163 1205.17 194.815 1211.49 Q196.181 1209.48 198.241 1208.41 Q200.301 1207.33 202.778 1207.33 Q207.987 1207.33 210.996 1210.5 Q214.028 1213.65 214.028 1219.09 Q214.028 1224.41 210.88 1227.63 Q207.732 1230.84 202.5 1230.84 Q196.505 1230.84 193.334 1226.26 Q190.163 1221.65 190.163 1212.93 Q190.163 1204.73 194.051 1199.87 Q197.94 1194.99 204.491 1194.99 Q206.25 1194.99 208.033 1195.34 Q209.838 1195.68 211.783 1196.38 Z" fill="#000000" fill-rule="nonzero" fill-opacity="1" /><path clip-path="url(#clip250)" d="M126.783 946.554 Q123.172 946.554 121.343 950.118 Q119.538 953.66 119.538 960.79 Q119.538 967.896 121.343 971.461 Q123.172 975.002 126.783 975.002 Q130.417 975.002 132.223 971.461 Q134.052 967.896 134.052 960.79 Q134.052 953.66 132.223 950.118 Q130.417 946.554 126.783 946.554 M126.783 942.85 Q132.593 942.85 135.649 947.456 Q138.728 952.04 138.728 960.79 Q138.728 969.516 135.649 974.123 Q132.593 978.706 126.783 978.706 Q120.973 978.706 117.894 974.123 Q114.839 969.516 114.839 960.79 Q114.839 952.04 117.894 947.456 Q120.973 942.85 126.783 942.85 Z" fill="#000000" fill-rule="nonzero" fill-opacity="1" /><path clip-path="url(#clip250)" d="M146.945 972.155 L151.829 972.155 L151.829 978.035 L146.945 978.035 L146.945 972.155 Z" fill="#000000" fill-rule="nonzero" fill-opacity="1" /><path clip-path="url(#clip250)" d="M172.593 958.891 Q169.445 958.891 167.593 961.044 Q165.765 963.197 165.765 966.947 Q165.765 970.674 167.593 972.85 Q169.445 975.002 172.593 975.002 Q175.741 975.002 177.57 972.85 Q179.422 970.674 179.422 966.947 Q179.422 963.197 177.57 961.044 Q175.741 958.891 172.593 958.891 M181.876 944.239 L181.876 948.498 Q180.116 947.665 178.311 947.225 Q176.528 946.785 174.769 946.785 Q170.139 946.785 167.686 949.91 Q165.255 953.035 164.908 959.354 Q166.274 957.341 168.334 956.276 Q170.394 955.188 172.871 955.188 Q178.079 955.188 181.089 958.359 Q184.121 961.507 184.121 966.947 Q184.121 972.271 180.973 975.489 Q177.825 978.706 172.593 978.706 Q166.598 978.706 163.427 974.123 Q160.255 969.516 160.255 960.79 Q160.255 952.595 164.144 947.734 Q168.033 942.85 174.584 942.85 Q176.343 942.85 178.126 943.197 Q179.931 943.544 181.876 944.239 Z" fill="#000000" fill-rule="nonzero" fill-opacity="1" /><path clip-path="url(#clip250)" d="M202.176 961.623 Q198.843 961.623 196.922 963.405 Q195.024 965.188 195.024 968.313 Q195.024 971.438 196.922 973.22 Q198.843 975.002 202.176 975.002 Q205.51 975.002 207.431 973.22 Q209.352 971.415 209.352 968.313 Q209.352 965.188 207.431 963.405 Q205.533 961.623 202.176 961.623 M197.5 959.632 Q194.491 958.891 192.801 956.831 Q191.135 954.771 191.135 951.808 Q191.135 947.665 194.075 945.257 Q197.037 942.85 202.176 942.85 Q207.338 942.85 210.278 945.257 Q213.218 947.665 213.218 951.808 Q213.218 954.771 211.528 956.831 Q209.861 958.891 206.875 959.632 Q210.255 960.419 212.13 962.711 Q214.028 965.003 214.028 968.313 Q214.028 973.336 210.949 976.021 Q207.894 978.706 202.176 978.706 Q196.459 978.706 193.38 976.021 Q190.325 973.336 190.325 968.313 Q190.325 965.003 192.223 962.711 Q194.121 960.419 197.5 959.632 M195.787 952.248 Q195.787 954.933 197.454 956.438 Q199.144 957.942 202.176 957.942 Q205.186 957.942 206.875 956.438 Q208.588 954.933 208.588 952.248 Q208.588 949.563 206.875 948.058 Q205.186 946.554 202.176 946.554 Q199.144 946.554 197.454 948.058 Q195.787 949.563 195.787 952.248 Z" fill="#000000" fill-rule="nonzero" fill-opacity="1" /><path clip-path="url(#clip250)" d="M126.691 694.415 Q123.08 694.415 121.251 697.98 Q119.445 701.522 119.445 708.651 Q119.445 715.758 121.251 719.323 Q123.08 722.864 126.691 722.864 Q130.325 722.864 132.13 719.323 Q133.959 715.758 133.959 708.651 Q133.959 701.522 132.13 697.98 Q130.325 694.415 126.691 694.415 M126.691 690.712 Q132.501 690.712 135.556 695.318 Q138.635 699.901 138.635 708.651 Q138.635 717.378 135.556 721.985 Q132.501 726.568 126.691 726.568 Q120.88 726.568 117.802 721.985 Q114.746 717.378 114.746 708.651 Q114.746 699.901 117.802 695.318 Q120.88 690.712 126.691 690.712 Z" fill="#000000" fill-rule="nonzero" fill-opacity="1" /><path clip-path="url(#clip250)" d="M146.853 720.017 L151.737 720.017 L151.737 725.897 L146.853 725.897 L146.853 720.017 Z" fill="#000000" fill-rule="nonzero" fill-opacity="1" /><path clip-path="url(#clip250)" d="M160.741 691.337 L182.963 691.337 L182.963 693.327 L170.417 725.897 L165.533 725.897 L177.339 695.272 L160.741 695.272 L160.741 691.337 Z" fill="#000000" fill-rule="nonzero" fill-opacity="1" /><path clip-path="url(#clip250)" d="M202.084 694.415 Q198.473 694.415 196.644 697.98 Q194.838 701.522 194.838 708.651 Q194.838 715.758 196.644 719.323 Q198.473 722.864 202.084 722.864 Q205.718 722.864 207.524 719.323 Q209.352 715.758 209.352 708.651 Q209.352 701.522 207.524 697.98 Q205.718 694.415 202.084 694.415 M202.084 690.712 Q207.894 690.712 210.949 695.318 Q214.028 699.901 214.028 708.651 Q214.028 717.378 210.949 721.985 Q207.894 726.568 202.084 726.568 Q196.274 726.568 193.195 721.985 Q190.139 717.378 190.139 708.651 Q190.139 699.901 193.195 695.318 Q196.274 690.712 202.084 690.712 Z" fill="#000000" fill-rule="nonzero" fill-opacity="1" /><path clip-path="url(#clip250)" d="M128.288 442.277 Q124.677 442.277 122.848 445.842 Q121.043 449.384 121.043 456.513 Q121.043 463.62 122.848 467.184 Q124.677 470.726 128.288 470.726 Q131.922 470.726 133.728 467.184 Q135.556 463.62 135.556 456.513 Q135.556 449.384 133.728 445.842 Q131.922 442.277 128.288 442.277 M128.288 438.574 Q134.098 438.574 137.154 443.18 Q140.232 447.763 140.232 456.513 Q140.232 465.24 137.154 469.846 Q134.098 474.43 128.288 474.43 Q122.478 474.43 119.399 469.846 Q116.343 465.24 116.343 456.513 Q116.343 447.763 119.399 443.18 Q122.478 438.574 128.288 438.574 Z" fill="#000000" fill-rule="nonzero" fill-opacity="1" /><path clip-path="url(#clip250)" d="M148.45 467.879 L153.334 467.879 L153.334 473.758 L148.45 473.758 L148.45 467.879 Z" fill="#000000" fill-rule="nonzero" fill-opacity="1" /><path clip-path="url(#clip250)" d="M162.339 439.198 L184.561 439.198 L184.561 441.189 L172.014 473.758 L167.13 473.758 L178.936 443.134 L162.339 443.134 L162.339 439.198 Z" fill="#000000" fill-rule="nonzero" fill-opacity="1" /><path clip-path="url(#clip250)" d="M197.709 469.823 L214.028 469.823 L214.028 473.758 L192.084 473.758 L192.084 469.823 Q194.746 467.069 199.329 462.439 Q203.936 457.786 205.116 456.444 Q207.362 453.921 208.241 452.185 Q209.144 450.425 209.144 448.735 Q209.144 445.981 207.199 444.245 Q205.278 442.509 202.176 442.509 Q199.977 442.509 197.524 443.273 Q195.093 444.036 192.315 445.587 L192.315 440.865 Q195.139 439.731 197.593 439.152 Q200.047 438.574 202.084 438.574 Q207.454 438.574 210.649 441.259 Q213.843 443.944 213.843 448.435 Q213.843 450.564 213.033 452.485 Q212.246 454.384 210.139 456.976 Q209.561 457.647 206.459 460.865 Q203.357 464.059 197.709 469.823 Z" fill="#000000" fill-rule="nonzero" fill-opacity="1" /><path clip-path="url(#clip250)" d="M126.205 190.139 Q122.593 190.139 120.765 193.704 Q118.959 197.245 118.959 204.375 Q118.959 211.481 120.765 215.046 Q122.593 218.588 126.205 218.588 Q129.839 218.588 131.644 215.046 Q133.473 211.481 133.473 204.375 Q133.473 197.245 131.644 193.704 Q129.839 190.139 126.205 190.139 M126.205 186.435 Q132.015 186.435 135.07 191.042 Q138.149 195.625 138.149 204.375 Q138.149 213.102 135.07 217.708 Q132.015 222.292 126.205 222.292 Q120.394 222.292 117.316 217.708 Q114.26 213.102 114.26 204.375 Q114.26 195.625 117.316 191.042 Q120.394 186.435 126.205 186.435 Z" fill="#000000" fill-rule="nonzero" fill-opacity="1" /><path clip-path="url(#clip250)" d="M146.366 215.741 L151.251 215.741 L151.251 221.62 L146.366 221.62 L146.366 215.741 Z" fill="#000000" fill-rule="nonzero" fill-opacity="1" /><path clip-path="url(#clip250)" d="M160.255 187.06 L182.477 187.06 L182.477 189.051 L169.931 221.62 L165.047 221.62 L176.852 190.995 L160.255 190.995 L160.255 187.06 Z" fill="#000000" fill-rule="nonzero" fill-opacity="1" /><path clip-path="url(#clip250)" d="M204.445 191.134 L192.639 209.583 L204.445 209.583 L204.445 191.134 M203.218 187.06 L209.098 187.06 L209.098 209.583 L214.028 209.583 L214.028 213.472 L209.098 213.472 L209.098 221.62 L204.445 221.62 L204.445 213.472 L188.843 213.472 L188.843 208.958 L203.218 187.06 Z" fill="#000000" fill-rule="nonzero" fill-opacity="1" /><path clip-path="url(#clip250)" d="M58.3387 750.903 L64.0042 750.903 L64.0042 770 L58.3387 770 Q55.2513 764.366 49.9678 761.215 Q44.6842 758.064 38.2549 758.064 Q30.616 758.064 26.0009 762.266 Q21.3858 766.467 21.3858 773.342 Q21.3858 780.217 26.0327 784.45 Q30.6479 788.651 38.2549 788.651 Q44.6842 788.651 49.9678 785.5 Q55.2513 782.318 58.3387 776.652 L64.0042 776.652 L64.0042 795.749 L58.3387 795.749 L58.3387 785.596 Q53.9145 790.625 49.1721 792.948 Q44.4296 795.24 38.5732 795.24 Q28.4517 795.24 22.1815 789.129 Q15.9112 783.05 15.9112 773.342 Q15.9112 763.698 22.1815 757.555 Q28.4199 751.444 38.2549 751.444 Q44.4296 751.444 49.1402 753.704 Q53.8509 755.964 58.3387 761.088 L58.3387 750.903 Z" fill="#000000" fill-rule="nonzero" fill-opacity="1" /><path clip-path="url(#clip250)" d="M248.4 16.7545 L248.4 25.383 Q244.268 21.5346 239.569 19.6307 Q234.91 17.7268 229.644 17.7268 Q219.274 17.7268 213.765 24.0867 Q208.256 30.4061 208.256 42.3968 Q208.256 54.3469 213.765 60.7069 Q219.274 67.0263 229.644 67.0263 Q234.91 67.0263 239.569 65.1223 Q244.268 63.2184 248.4 59.3701 L248.4 67.9175 Q244.106 70.8341 239.285 72.2924 Q234.505 73.7508 229.158 73.7508 Q215.426 73.7508 207.526 65.3654 Q199.627 56.9395 199.627 42.3968 Q199.627 27.8135 207.526 19.4281 Q215.426 11.0023 229.158 11.0023 Q234.586 11.0023 239.366 12.4606 Q244.187 13.8784 248.4 16.7545 Z" fill="#000000" fill-rule="nonzero" fill-opacity="1" /><path clip-path="url(#clip250)" d="M278.296 32.4315 Q272.3 32.4315 268.817 37.1306 Q265.333 41.7891 265.333 49.9314 Q265.333 58.0738 268.776 62.7728 Q272.26 67.4314 278.296 67.4314 Q284.25 67.4314 287.734 62.7323 Q291.218 58.0333 291.218 49.9314 Q291.218 41.8701 287.734 37.1711 Q284.25 32.4315 278.296 32.4315 M278.296 26.1121 Q288.018 26.1121 293.568 32.4315 Q299.117 38.7509 299.117 49.9314 Q299.117 61.0714 293.568 67.4314 Q288.018 73.7508 278.296 73.7508 Q268.533 73.7508 262.983 67.4314 Q257.474 61.0714 257.474 49.9314 Q257.474 38.7509 262.983 32.4315 Q268.533 26.1121 278.296 26.1121 Z" fill="#000000" fill-rule="nonzero" fill-opacity="1" /><path clip-path="url(#clip250)" d="M349.186 45.1919 L349.186 72.576 L341.733 72.576 L341.733 45.4349 Q341.733 38.994 339.221 35.7938 Q336.71 32.5936 331.687 32.5936 Q325.651 32.5936 322.167 36.4419 Q318.683 40.2903 318.683 46.9338 L318.683 72.576 L311.189 72.576 L311.189 27.2059 L318.683 27.2059 L318.683 34.2544 Q321.357 30.163 324.962 28.1376 Q328.608 26.1121 333.347 26.1121 Q341.166 26.1121 345.176 30.9732 Q349.186 35.7938 349.186 45.1919 Z" fill="#000000" fill-rule="nonzero" fill-opacity="1" /><path clip-path="url(#clip250)" d="M371.426 14.324 L371.426 27.2059 L386.779 27.2059 L386.779 32.9987 L371.426 32.9987 L371.426 57.6282 Q371.426 63.1779 372.925 64.7578 Q374.464 66.3376 379.123 66.3376 L386.779 66.3376 L386.779 72.576 L379.123 72.576 Q370.494 72.576 367.213 69.3758 Q363.932 66.1351 363.932 57.6282 L363.932 32.9987 L358.463 32.9987 L358.463 27.2059 L363.932 27.2059 L363.932 14.324 L371.426 14.324 Z" fill="#000000" fill-rule="nonzero" fill-opacity="1" /><path clip-path="url(#clip250)" d="M396.582 27.2059 L404.036 27.2059 L404.036 72.576 L396.582 72.576 L396.582 27.2059 M396.582 9.54393 L404.036 9.54393 L404.036 18.9825 L396.582 18.9825 L396.582 9.54393 Z" fill="#000000" fill-rule="nonzero" fill-opacity="1" /><path clip-path="url(#clip250)" d="M457.346 45.1919 L457.346 72.576 L449.892 72.576 L449.892 45.4349 Q449.892 38.994 447.38 35.7938 Q444.869 32.5936 439.846 32.5936 Q433.81 32.5936 430.326 36.4419 Q426.842 40.2903 426.842 46.9338 L426.842 72.576 L419.348 72.576 L419.348 27.2059 L426.842 27.2059 L426.842 34.2544 Q429.516 30.163 433.121 28.1376 Q436.767 26.1121 441.507 26.1121 Q449.325 26.1121 453.335 30.9732 Q457.346 35.7938 457.346 45.1919 Z" fill="#000000" fill-rule="nonzero" fill-opacity="1" /><path clip-path="url(#clip250)" d="M471.443 54.671 L471.443 27.2059 L478.896 27.2059 L478.896 54.3874 Q478.896 60.8284 481.408 64.0691 Q483.92 67.2693 488.943 67.2693 Q494.979 67.2693 498.462 63.421 Q501.987 59.5726 501.987 52.9291 L501.987 27.2059 L509.44 27.2059 L509.44 72.576 L501.987 72.576 L501.987 65.6084 Q499.272 69.7404 495.667 71.7658 Q492.102 73.7508 487.363 73.7508 Q479.545 73.7508 475.494 68.8897 Q471.443 64.0286 471.443 54.671 M490.198 26.1121 L490.198 26.1121 Z" fill="#000000" fill-rule="nonzero" fill-opacity="1" /><path clip-path="url(#clip250)" d="M545.412 49.7694 Q536.379 49.7694 532.895 51.8354 Q529.411 53.9013 529.411 58.8839 Q529.411 62.8538 532.004 65.2034 Q534.637 67.5124 539.133 67.5124 Q545.331 67.5124 549.058 63.1374 Q552.825 58.7219 552.825 51.4303 L552.825 49.7694 L545.412 49.7694 M560.279 46.6907 L560.279 72.576 L552.825 72.576 L552.825 65.6895 Q550.273 69.8214 546.466 71.8063 Q542.658 73.7508 537.148 73.7508 Q530.181 73.7508 526.049 69.8619 Q521.958 65.9325 521.958 59.3701 Q521.958 51.7138 527.062 47.825 Q532.206 43.9361 542.374 43.9361 L552.825 43.9361 L552.825 43.2069 Q552.825 38.0623 549.423 35.2672 Q546.06 32.4315 539.944 32.4315 Q536.055 32.4315 532.368 33.3632 Q528.682 34.295 525.279 36.1584 L525.279 29.2718 Q529.371 27.692 533.219 26.9223 Q537.067 26.1121 540.713 26.1121 Q550.557 26.1121 555.418 31.2163 Q560.279 36.3204 560.279 46.6907 Z" fill="#000000" fill-rule="nonzero" fill-opacity="1" /><path clip-path="url(#clip250)" d="M583.005 14.324 L583.005 27.2059 L598.358 27.2059 L598.358 32.9987 L583.005 32.9987 L583.005 57.6282 Q583.005 63.1779 584.504 64.7578 Q586.043 66.3376 590.701 66.3376 L598.358 66.3376 L598.358 72.576 L590.701 72.576 Q582.073 72.576 578.792 69.3758 Q575.51 66.1351 575.51 57.6282 L575.51 32.9987 L570.042 32.9987 L570.042 27.2059 L575.51 27.2059 L575.51 14.324 L583.005 14.324 Z" fill="#000000" fill-rule="nonzero" fill-opacity="1" /><path clip-path="url(#clip250)" d="M608.161 27.2059 L615.614 27.2059 L615.614 72.576 L608.161 72.576 L608.161 27.2059 M608.161 9.54393 L615.614 9.54393 L615.614 18.9825 L608.161 18.9825 L608.161 9.54393 Z" fill="#000000" fill-rule="nonzero" fill-opacity="1" /><path clip-path="url(#clip250)" d="M648.791 32.4315 Q642.796 32.4315 639.312 37.1306 Q635.828 41.7891 635.828 49.9314 Q635.828 58.0738 639.272 62.7728 Q642.756 67.4314 648.791 67.4314 Q654.746 67.4314 658.23 62.7323 Q661.714 58.0333 661.714 49.9314 Q661.714 41.8701 658.23 37.1711 Q654.746 32.4315 648.791 32.4315 M648.791 26.1121 Q658.514 26.1121 664.063 32.4315 Q669.613 38.7509 669.613 49.9314 Q669.613 61.0714 664.063 67.4314 Q658.514 73.7508 648.791 73.7508 Q639.029 73.7508 633.479 67.4314 Q627.97 61.0714 627.97 49.9314 Q627.97 38.7509 633.479 32.4315 Q639.029 26.1121 648.791 26.1121 Z" fill="#000000" fill-rule="nonzero" fill-opacity="1" /><path clip-path="url(#clip250)" d="M719.682 45.1919 L719.682 72.576 L712.229 72.576 L712.229 45.4349 Q712.229 38.994 709.717 35.7938 Q707.205 32.5936 702.182 32.5936 Q696.146 32.5936 692.663 36.4419 Q689.179 40.2903 689.179 46.9338 L689.179 72.576 L681.685 72.576 L681.685 27.2059 L689.179 27.2059 L689.179 34.2544 Q691.852 30.163 695.458 28.1376 Q699.104 26.1121 703.843 26.1121 Q711.661 26.1121 715.672 30.9732 Q719.682 35.7938 719.682 45.1919 Z" fill="#000000" fill-rule="nonzero" fill-opacity="1" /><path clip-path="url(#clip250)" d="M768.131 65.7705 L768.131 89.8329 L760.637 89.8329 L760.637 27.2059 L768.131 27.2059 L768.131 34.0924 Q770.481 30.0415 774.045 28.0971 Q777.651 26.1121 782.633 26.1121 Q790.897 26.1121 796.042 32.6746 Q801.227 39.2371 801.227 49.9314 Q801.227 60.6258 796.042 67.1883 Q790.897 73.7508 782.633 73.7508 Q777.651 73.7508 774.045 71.8063 Q770.481 69.8214 768.131 65.7705 M793.49 49.9314 Q793.49 41.7081 790.087 37.0496 Q786.725 32.3505 780.81 32.3505 Q774.896 32.3505 771.493 37.0496 Q768.131 41.7081 768.131 49.9314 Q768.131 58.1548 771.493 62.8538 Q774.896 67.5124 780.81 67.5124 Q786.725 67.5124 790.087 62.8538 Q793.49 58.1548 793.49 49.9314 Z" fill="#000000" fill-rule="nonzero" fill-opacity="1" /><path clip-path="url(#clip250)" d="M813.582 9.54393 L821.036 9.54393 L821.036 72.576 L813.582 72.576 L813.582 9.54393 Z" fill="#000000" fill-rule="nonzero" fill-opacity="1" /><path clip-path="url(#clip250)" d="M854.213 32.4315 Q848.217 32.4315 844.734 37.1306 Q841.25 41.7891 841.25 49.9314 Q841.25 58.0738 844.693 62.7728 Q848.177 67.4314 854.213 67.4314 Q860.168 67.4314 863.651 62.7323 Q867.135 58.0333 867.135 49.9314 Q867.135 41.8701 863.651 37.1711 Q860.168 32.4315 854.213 32.4315 M854.213 26.1121 Q863.935 26.1121 869.485 32.4315 Q875.034 38.7509 875.034 49.9314 Q875.034 61.0714 869.485 67.4314 Q863.935 73.7508 854.213 73.7508 Q844.45 73.7508 838.9 67.4314 Q833.391 61.0714 833.391 49.9314 Q833.391 38.7509 838.9 32.4315 Q844.45 26.1121 854.213 26.1121 Z" fill="#000000" fill-rule="nonzero" fill-opacity="1" /><path clip-path="url(#clip250)" d="M894.762 14.324 L894.762 27.2059 L910.115 27.2059 L910.115 32.9987 L894.762 32.9987 L894.762 57.6282 Q894.762 63.1779 896.261 64.7578 Q897.8 66.3376 902.459 66.3376 L910.115 66.3376 L910.115 72.576 L902.459 72.576 Q893.831 72.576 890.549 69.3758 Q887.268 66.1351 887.268 57.6282 L887.268 32.9987 L881.799 32.9987 L881.799 27.2059 L887.268 27.2059 L887.268 14.324 L894.762 14.324 Z" fill="#000000" fill-rule="nonzero" fill-opacity="1" /><path clip-path="url(#clip250)" d="M969.258 9.54393 L969.258 15.7418 L962.129 15.7418 Q958.118 15.7418 956.539 17.3622 Q954.999 18.9825 954.999 23.1955 L954.999 27.2059 L967.273 27.2059 L967.273 32.9987 L954.999 32.9987 L954.999 72.576 L947.505 72.576 L947.505 32.9987 L940.375 32.9987 L940.375 27.2059 L947.505 27.2059 L947.505 24.0462 Q947.505 16.471 951.029 13.0277 Q954.554 9.54393 962.21 9.54393 L969.258 9.54393 Z" fill="#000000" fill-rule="nonzero" fill-opacity="1" /><path clip-path="url(#clip250)" d="M993.078 32.4315 Q987.082 32.4315 983.599 37.1306 Q980.115 41.7891 980.115 49.9314 Q980.115 58.0738 983.558 62.7728 Q987.042 67.4314 993.078 67.4314 Q999.033 67.4314 1002.52 62.7323 Q1006 58.0333 1006 49.9314 Q1006 41.8701 1002.52 37.1711 Q999.033 32.4315 993.078 32.4315 M993.078 26.1121 Q1002.8 26.1121 1008.35 32.4315 Q1013.9 38.7509 1013.9 49.9314 Q1013.9 61.0714 1008.35 67.4314 Q1002.8 73.7508 993.078 73.7508 Q983.315 73.7508 977.765 67.4314 Q972.256 61.0714 972.256 49.9314 Q972.256 38.7509 977.765 32.4315 Q983.315 26.1121 993.078 26.1121 Z" fill="#000000" fill-rule="nonzero" fill-opacity="1" /><path clip-path="url(#clip250)" d="M1052.54 34.1734 Q1051.29 33.4443 1049.79 33.1202 Q1048.33 32.7556 1046.55 32.7556 Q1040.23 32.7556 1036.83 36.8875 Q1033.47 40.9789 1033.47 48.6757 L1033.47 72.576 L1025.97 72.576 L1025.97 27.2059 L1033.47 27.2059 L1033.47 34.2544 Q1035.81 30.1225 1039.58 28.1376 Q1043.35 26.1121 1048.74 26.1121 Q1049.51 26.1121 1050.44 26.2337 Q1051.37 26.3147 1052.5 26.5172 L1052.54 34.1734 Z" fill="#000000" fill-rule="nonzero" fill-opacity="1" /><path clip-path="url(#clip250)" d="M1102.45 73.5887 Q1093.09 72.0899 1088.76 68.1605 Q1083.45 63.3399 1083.45 53.4962 L1083.45 27.2059 L1090.99 27.2059 L1090.99 53.2127 Q1090.99 60.6258 1094.43 63.7045 Q1097.43 66.3781 1102.45 66.9452 L1102.45 27.2059 L1109.87 27.2059 L1109.87 66.9047 Q1115.17 66.3376 1117.89 63.664 Q1121.33 60.2613 1121.33 53.1722 L1121.33 27.2059 L1128.86 27.2059 L1128.86 53.4557 Q1128.86 63.664 1123.56 68.12 Q1118.78 72.1304 1109.87 73.5482 L1109.87 89.8329 L1102.45 89.8329 L1102.45 73.5887 Z" fill="#000000" fill-rule="nonzero" fill-opacity="1" /><path clip-path="url(#clip250)" d="M1168.81 34.9026 L1220.74 34.9026 L1220.74 41.7081 L1168.81 41.7081 L1168.81 34.9026 M1168.81 51.4303 L1220.74 51.4303 L1220.74 58.3168 L1168.81 58.3168 L1168.81 51.4303 Z" fill="#000000" fill-rule="nonzero" fill-opacity="1" /><path clip-path="url(#clip250)" d="M1282.27 17.4837 Q1275.95 17.4837 1272.75 23.7221 Q1269.59 29.92 1269.59 42.3968 Q1269.59 54.833 1272.75 61.0714 Q1275.95 67.2693 1282.27 67.2693 Q1288.63 67.2693 1291.79 61.0714 Q1294.99 54.833 1294.99 42.3968 Q1294.99 29.92 1291.79 23.7221 Q1288.63 17.4837 1282.27 17.4837 M1282.27 11.0023 Q1292.44 11.0023 1297.79 19.0636 Q1303.17 27.0843 1303.17 42.3968 Q1303.17 57.6687 1297.79 65.73 Q1292.44 73.7508 1282.27 73.7508 Q1272.1 73.7508 1266.72 65.73 Q1261.37 57.6687 1261.37 42.3968 Q1261.37 27.0843 1266.72 19.0636 Q1272.1 11.0023 1282.27 11.0023 Z" fill="#000000" fill-rule="nonzero" fill-opacity="1" /><path clip-path="url(#clip250)" d="M1317.56 62.2867 L1326.1 62.2867 L1326.1 72.576 L1317.56 72.576 L1317.56 62.2867 Z" fill="#000000" fill-rule="nonzero" fill-opacity="1" /><path clip-path="url(#clip250)" d="M1344.01 12.096 L1376.13 12.096 L1376.13 18.9825 L1351.5 18.9825 L1351.5 33.8088 Q1353.28 33.2012 1355.07 32.9176 Q1356.85 32.5936 1358.63 32.5936 Q1368.76 32.5936 1374.67 38.1433 Q1380.59 43.6931 1380.59 53.1722 Q1380.59 62.9348 1374.51 68.3631 Q1368.43 73.7508 1357.38 73.7508 Q1353.57 73.7508 1349.6 73.1026 Q1345.67 72.4545 1341.46 71.1582 L1341.46 62.9348 Q1345.1 64.9198 1348.99 65.892 Q1352.88 66.8642 1357.21 66.8642 Q1364.22 66.8642 1368.31 63.1779 Q1372.4 59.4916 1372.4 53.1722 Q1372.4 46.8528 1368.31 43.1664 Q1364.22 39.4801 1357.21 39.4801 Q1353.93 39.4801 1350.65 40.2093 Q1347.41 40.9384 1344.01 42.4778 L1344.01 12.096 Z" fill="#000000" fill-rule="nonzero" fill-opacity="1" /><path clip-path="url(#clip250)" d="M1394.64 12.096 L1433.53 12.096 L1433.53 15.5798 L1411.58 72.576 L1403.03 72.576 L1423.69 18.9825 L1394.64 18.9825 L1394.64 12.096 Z" fill="#000000" fill-rule="nonzero" fill-opacity="1" /><path clip-path="url(#clip250)" d="M1450.34 62.2867 L1458.89 62.2867 L1458.89 69.2543 L1452.25 82.2172 L1447.02 82.2172 L1450.34 69.2543 L1450.34 62.2867 Z" fill="#000000" fill-rule="nonzero" fill-opacity="1" /><path clip-path="url(#clip250)" d="M1501.51 12.096 L1512.53 12.096 L1539.34 62.6918 L1539.34 12.096 L1547.28 12.096 L1547.28 72.576 L1536.26 72.576 L1509.45 21.9802 L1509.45 72.576 L1501.51 72.576 L1501.51 12.096 Z" fill="#000000" fill-rule="nonzero" fill-opacity="1" /><path clip-path="url(#clip250)" d="M1590.59 34.9026 L1642.52 34.9026 L1642.52 41.7081 L1590.59 41.7081 L1590.59 34.9026 M1590.59 51.4303 L1642.52 51.4303 L1642.52 58.3168 L1590.59 58.3168 L1590.59 51.4303 Z" fill="#000000" fill-rule="nonzero" fill-opacity="1" /><path clip-path="url(#clip250)" d="M1687.97 65.6895 L1701.34 65.6895 L1701.34 19.5497 L1686.8 22.4663 L1686.8 15.0127 L1701.26 12.096 L1709.44 12.096 L1709.44 65.6895 L1722.81 65.6895 L1722.81 72.576 L1687.97 72.576 L1687.97 65.6895 Z" fill="#000000" fill-rule="nonzero" fill-opacity="1" /><path clip-path="url(#clip250)" d="M1740.75 65.6895 L1754.12 65.6895 L1754.12 19.5497 L1739.58 22.4663 L1739.58 15.0127 L1754.04 12.096 L1762.22 12.096 L1762.22 65.6895 L1775.59 65.6895 L1775.59 72.576 L1740.75 72.576 L1740.75 65.6895 Z" fill="#000000" fill-rule="nonzero" fill-opacity="1" /><path clip-path="url(#clip250)" d="M1813.1 27.2059 L1820.56 27.2059 L1829.87 62.6108 L1839.15 27.2059 L1847.94 27.2059 L1857.26 62.6108 L1866.53 27.2059 L1873.99 27.2059 L1862.12 72.576 L1853.33 72.576 L1843.57 35.3887 L1833.76 72.576 L1824.97 72.576 L1813.1 27.2059 Z" fill="#000000" fill-rule="nonzero" fill-opacity="1" /><path clip-path="url(#clip250)" d="M1885.29 27.2059 L1892.74 27.2059 L1892.74 72.576 L1885.29 72.576 L1885.29 27.2059 M1885.29 9.54393 L1892.74 9.54393 L1892.74 18.9825 L1885.29 18.9825 L1885.29 9.54393 Z" fill="#000000" fill-rule="nonzero" fill-opacity="1" /><path clip-path="url(#clip250)" d="M1915.71 14.324 L1915.71 27.2059 L1931.06 27.2059 L1931.06 32.9987 L1915.71 32.9987 L1915.71 57.6282 Q1915.71 63.1779 1917.21 64.7578 Q1918.75 66.3376 1923.41 66.3376 L1931.06 66.3376 L1931.06 72.576 L1923.41 72.576 Q1914.78 72.576 1911.5 69.3758 Q1908.22 66.1351 1908.22 57.6282 L1908.22 32.9987 L1902.75 32.9987 L1902.75 27.2059 L1908.22 27.2059 L1908.22 14.324 L1915.71 14.324 Z" fill="#000000" fill-rule="nonzero" fill-opacity="1" /><path clip-path="url(#clip250)" d="M1978.58 45.1919 L1978.58 72.576 L1971.13 72.576 L1971.13 45.4349 Q1971.13 38.994 1968.62 35.7938 Q1966.1 32.5936 1961.08 32.5936 Q1955.05 32.5936 1951.56 36.4419 Q1948.08 40.2903 1948.08 46.9338 L1948.08 72.576 L1940.58 72.576 L1940.58 9.54393 L1948.08 9.54393 L1948.08 34.2544 Q1950.75 30.163 1954.36 28.1376 Q1958 26.1121 1962.74 26.1121 Q1970.56 26.1121 1974.57 30.9732 Q1978.58 35.7938 1978.58 45.1919 Z" fill="#000000" fill-rule="nonzero" fill-opacity="1" /><path clip-path="url(#clip250)" d="M2042.06 64.3122 Q2043.52 66.2566 2047.89 66.2566 L2051.5 66.2566 L2051.5 72.576 L2047 72.576 Q2039.71 72.576 2036.39 68.6871 Q2033.07 64.7172 2033.07 56.1293 L2033.07 34.6595 L2016.05 34.6595 L2016.05 27.2059 L2057.9 27.2059 L2057.9 34.6595 L2040.68 34.6595 L2040.68 56.5749 Q2040.68 62.4487 2042.06 64.3122 Z" fill="#000000" fill-rule="nonzero" fill-opacity="1" /><path clip-path="url(#clip250)" d="M2104.24 86.3491 L2104.24 92.1419 L2061.14 92.1419 L2061.14 86.3491 L2104.24 86.3491 Z" fill="#000000" fill-rule="nonzero" fill-opacity="1" /><path clip-path="url(#clip250)" d="M2129.8 17.4837 Q2123.48 17.4837 2120.28 23.7221 Q2117.12 29.92 2117.12 42.3968 Q2117.12 54.833 2120.28 61.0714 Q2123.48 67.2693 2129.8 67.2693 Q2136.16 67.2693 2139.32 61.0714 Q2142.52 54.833 2142.52 42.3968 Q2142.52 29.92 2139.32 23.7221 Q2136.16 17.4837 2129.8 17.4837 M2129.8 11.0023 Q2139.97 11.0023 2145.32 19.0636 Q2150.7 27.0843 2150.7 42.3968 Q2150.7 57.6687 2145.32 65.73 Q2139.97 73.7508 2129.8 73.7508 Q2119.63 73.7508 2114.25 65.73 Q2108.9 57.6687 2108.9 42.3968 Q2108.9 27.0843 2114.25 19.0636 Q2119.63 11.0023 2129.8 11.0023 Z" fill="#000000" fill-rule="nonzero" fill-opacity="1" /><path clip-path="url(#clip250)" d="M2191.38 34.9026 L2243.31 34.9026 L2243.31 41.7081 L2191.38 41.7081 L2191.38 34.9026 M2191.38 51.4303 L2243.31 51.4303 L2243.31 58.3168 L2191.38 58.3168 L2191.38 51.4303 Z" fill="#000000" fill-rule="nonzero" fill-opacity="1" /><path clip-path="url(#clip250)" d="M2288.76 65.6895 L2302.13 65.6895 L2302.13 19.5497 L2287.58 22.4663 L2287.58 15.0127 L2302.05 12.096 L2310.23 12.096 L2310.23 65.6895 L2323.6 65.6895 L2323.6 72.576 L2288.76 72.576 L2288.76 65.6895 Z" fill="#000000" fill-rule="nonzero" fill-opacity="1" /><path clip-path="url(#clip250)" d="M2340.12 62.2867 L2348.67 62.2867 L2348.67 72.576 L2340.12 72.576 L2340.12 62.2867 Z" fill="#000000" fill-rule="nonzero" fill-opacity="1" /><path clip-path="url(#clip250)" d="M2366.58 12.096 L2398.7 12.096 L2398.7 18.9825 L2374.07 18.9825 L2374.07 33.8088 Q2375.85 33.2012 2377.64 32.9176 Q2379.42 32.5936 2381.2 32.5936 Q2391.33 32.5936 2397.24 38.1433 Q2403.16 43.6931 2403.16 53.1722 Q2403.16 62.9348 2397.08 68.3631 Q2391 73.7508 2379.95 73.7508 Q2376.14 73.7508 2372.17 73.1026 Q2368.24 72.4545 2364.03 71.1582 L2364.03 62.9348 Q2367.67 64.9198 2371.56 65.892 Q2375.45 66.8642 2379.78 66.8642 Q2386.79 66.8642 2390.88 63.1779 Q2394.97 59.4916 2394.97 53.1722 Q2394.97 46.8528 2390.88 43.1664 Q2386.79 39.4801 2379.78 39.4801 Q2376.5 39.4801 2373.22 40.2093 Q2369.98 40.9384 2366.58 42.4778 L2366.58 12.096 Z" fill="#000000" fill-rule="nonzero" fill-opacity="1" /><polyline clip-path="url(#clip252)" style="stroke:#0000ff; stroke-linecap:round; stroke-linejoin:round; stroke-width:8; stroke-opacity:1; fill:none" stroke-dasharray="32, 20" points="309.539,882.094 309.74,882.304 310,882.58 310.339,882.945 310.779,883.43 311.351,884.077 312.095,884.947 313.063,886.127 314.32,887.741 315.954,889.969 317.589,892.33 319.223,894.806 320.858,897.376 322.492,900.02 324.126,902.725 325.76,905.483 327.395,908.289 329.029,911.145 330.663,914.057 332.297,917.028 333.931,920.066 335.566,923.179 337.2,926.373 338.834,929.654 340.468,933.027 342.102,936.493 343.735,940.047 345.369,943.684 347.003,947.396 348.637,951.174 350.271,955.015 351.904,958.919 353.538,962.888 355.171,966.932 356.805,971.06 358.438,975.284 360.072,979.616 361.705,984.066 363.338,988.641 364.972,993.347 366.605,998.185 368.238,1003.15 369.87,1008.25 371.503,1013.48 373.136,1018.82 374.768,1024.27 376.401,1029.81 378.033,1035.43 379.666,1041.1 381.298,1046.79 382.93,1052.49 384.563,1058.18 386.195,1063.83 387.827,1069.44 389.46,1075 391.092,1080.51 392.725,1085.97 394.358,1091.38 395.99,1096.73 397.623,1102.03 399.256,1107.27 400.888,1112.47 402.521,1117.61 404.154,1122.7 405.787,1127.76 407.42,1132.77 409.053,1137.76 410.686,1142.71 412.319,1147.65 413.952,1152.56 415.585,1157.46 417.218,1162.35 418.851,1167.24 420.484,1172.13 422.117,1177.04 423.75,1181.96 425.383,1186.92 427.016,1191.91 428.648,1196.94 430.281,1202.02 431.914,1207.15 433.547,1212.35 435.18,1217.61 436.812,1222.93 438.445,1228.33 440.077,1233.79 441.71,1239.32 443.342,1244.92 444.975,1250.56 446.607,1256.25 448.239,1261.95 449.872,1267.67 451.504,1273.37 453.137,1279.04 454.769,1284.68 456.401,1290.26 458.034,1295.79 459.666,1301.23 461.299,1306.57 462.932,1311.77 464.565,1316.81 466.198,1321.65 467.831,1326.25 469.464,1330.59 471.098,1334.66 472.732,1338.45 474.366,1341.97 476,1345.24 477.634,1348.28 479.268,1351.1 480.902,1353.74 482.537,1356.21 484.171,1358.52 485.806,1360.67 487.44,1362.67 489.075,1364.54 490.709,1366.27 492.344,1367.89 493.979,1369.39 495.614,1370.8 497.248,1372.11 498.883,1373.32 500.518,1374.42 502.153,1375.42 503.787,1376.3 505.422,1377.07 507.057,1377.72 508.692,1378.26 510.327,1378.71 511.961,1379.08 513.596,1379.39 515.231,1379.64 516.866,1379.85 518.501,1380.02 520.136,1380.14 521.771,1380.23 523.405,1380.29 525.04,1380.32 526.675,1380.34 528.31,1380.34 529.945,1380.35 531.58,1380.36 533.215,1380.38 534.849,1380.41 536.484,1380.47 538.119,1380.54 539.754,1380.63 541.389,1380.75 543.024,1380.89 544.659,1381.07 546.293,1381.29 547.928,1381.53 549.563,1381.81 551.198,1382.12 552.833,1382.45 554.468,1382.82 556.103,1383.21 557.737,1383.62 559.372,1384.03 561.007,1384.45 562.642,1384.85 564.277,1385.23 565.912,1385.57 567.546,1385.86 569.181,1386.09 570.816,1386.27 572.451,1386.37 574.086,1386.4 575.721,1386.34 577.356,1386.2 578.99,1385.97 580.625,1385.65 582.26,1385.24 583.895,1384.73 585.53,1384.14 587.165,1383.47 588.799,1382.71 590.434,1381.88 592.069,1380.98 593.704,1380.01 595.339,1378.97 596.973,1377.86 598.608,1376.66 600.243,1375.38 601.878,1373.99 603.512,1372.5 605.147,1370.9 606.781,1369.19 608.416,1367.39 610.051,1365.5 611.685,1363.54 613.32,1361.52 614.954,1359.44 616.589,1357.31 618.223,1355.12 619.858,1352.87 621.492,1350.56 623.127,1348.18 624.761,1345.73 626.395,1343.2 628.03,1340.59 629.664,1337.89 631.298,1335.1 632.932,1332.21 634.567,1329.22 636.201,1326.1 637.835,1322.87 639.469,1319.49 641.103,1315.96 642.736,1312.28 644.37,1308.44 646.004,1304.43 647.637,1300.26 649.271,1295.92 650.904,1291.41 652.537,1286.73 654.17,1281.9 655.803,1276.91 657.436,1271.77 659.069,1266.5 660.701,1261.1 662.334,1255.58 663.966,1249.92 665.598,1244.11 667.231,1238.13 668.862,1231.97 670.494,1225.61 672.126,1219.01 673.757,1212.17 675.388,1205.08 677.019,1197.72 678.649,1190.11 680.279,1182.27 681.909,1174.21 683.538,1165.96 685.168,1157.58 686.797,1149.08 688.426,1140.54 690.055,1131.98 691.685,1123.45 693.314,1115 694.944,1106.65 696.573,1098.42 698.203,1090.32 699.833,1082.38 701.463,1074.61 703.093,1067.02 704.724,1059.62 706.355,1052.42 707.986,1045.43 709.617,1038.66 711.249,1032.11 712.881,1025.79 714.513,1019.67 716.145,1013.75 717.777,1008 719.409,1002.37 721.042,996.831 722.674,991.371 724.307,985.976 725.94,980.656 727.573,975.43 729.205,970.326 730.838,965.375 732.471,960.606 734.105,956.044 735.738,951.707 737.372,947.61 739.005,943.76 740.639,940.158 742.273,936.801 743.907,933.676 745.541,930.768 747.176,928.056 748.81,925.517 750.445,923.132 752.079,920.89 753.714,918.788 755.348,916.833 756.983,915.037 758.617,913.417 760.252,911.982 761.887,910.739 763.522,909.691 765.156,908.836 766.791,908.171 768.426,907.691 770.061,907.391 771.696,907.26 773.331,907.286 774.965,907.453 776.6,907.738 778.235,908.121 779.87,908.578 781.505,909.087 783.14,909.628 784.775,910.182 786.409,910.732 788.044,911.264 789.679,911.764 791.314,912.223 792.949,912.632 794.584,912.982 796.218,913.269 797.853,913.485 799.488,913.626 801.123,913.689 802.758,913.672 804.393,913.579 806.028,913.413 807.662,913.182 809.297,912.891 810.932,912.546 812.567,912.15 814.202,911.708 815.837,911.224 817.471,910.707 819.106,910.167 820.741,909.615 822.376,909.055 824.011,908.486 825.646,907.9 827.28,907.278 828.915,906.6 830.55,905.847 832.185,905.003 833.82,904.064 835.454,903.035 837.089,901.925 838.724,900.748 840.359,899.518 841.993,898.242 843.628,896.925 845.263,895.571 846.898,894.184 848.532,892.772 850.167,891.352 851.802,889.941 853.436,888.557 855.071,887.216 856.706,885.923 858.341,884.679 859.975,883.481 861.61,882.323 863.245,881.208 864.88,880.147 866.514,879.154 868.149,878.252 869.784,877.461 871.419,876.797 873.054,876.272 874.688,875.89 876.323,875.65 877.958,875.549 879.593,875.584 881.228,875.748 882.863,876.037 884.498,876.442 886.132,876.955 887.767,877.568 889.402,878.272 891.037,879.06 892.672,879.926 894.306,880.863 895.941,881.864 897.576,882.92 899.211,884.021 900.846,885.151 902.48,886.295 904.115,887.437 905.75,888.565 907.385,889.67 909.019,890.745 910.654,891.79 912.289,892.804 913.924,893.786 915.558,894.734 917.193,895.641 918.828,896.499 920.463,897.299 922.098,898.032 923.732,898.693 925.367,899.281 927.002,899.8 928.637,900.259 930.272,900.668 931.907,901.04 933.542,901.387 935.176,901.718 936.811,902.04 938.446,902.354 940.081,902.663 941.716,902.963 943.351,903.252 944.985,903.527 946.62,903.786 948.255,904.027 949.89,904.248 951.525,904.445 953.16,904.614 954.795,904.749 956.429,904.843 958.064,904.887 959.699,904.876 961.334,904.804 962.969,904.663 964.604,904.45 966.239,904.158 967.873,903.779 969.508,903.306 971.143,902.732 972.778,902.048 974.413,901.249 976.048,900.327 977.682,899.276 979.317,898.086 980.952,896.751 982.586,895.258 984.221,893.601 985.856,891.77 987.49,889.758 989.125,887.556 990.759,885.156 992.393,882.549 994.028,879.725 995.662,876.679 997.296,873.407 998.93,869.909 1000.56,866.191 1002.2,862.256 1003.83,858.111 1005.46,853.764 1007.1,849.22 1008.73,844.487 1010.36,839.564 1012,834.449 1013.63,829.131 1015.26,823.595 1016.89,817.82 1018.53,811.782 1020.16,805.459 1021.79,798.835 1023.42,791.911 1025.05,784.711 1026.68,777.289 1028.31,769.716 1029.94,762.062 1031.57,754.382 1033.2,746.707 1034.83,739.053 1036.46,731.43 1038.09,723.848 1039.72,716.331 1041.36,708.915 1042.99,701.646 1044.62,694.575 1046.25,687.748 1047.88,681.198 1049.51,674.946 1051.14,669.005 1052.78,663.381 1054.41,658.07 1056.04,653.05 1057.67,648.287 1059.31,643.732 1060.94,639.34 1062.57,635.08 1064.21,630.942 1065.84,626.937 1067.48,623.088 1069.11,619.421 1070.74,615.96 1072.38,612.716 1074.01,609.698 1075.65,606.904 1077.28,604.335 1078.91,601.983 1080.55,599.84 1082.18,597.892 1083.82,596.119 1085.45,594.498 1087.09,592.999 1088.72,591.594 1090.36,590.256 1091.99,588.966 1093.63,587.714 1095.26,586.496 1096.9,585.314 1098.53,584.172 1100.17,583.072 1101.8,582.018 1103.44,581.012 1105.07,580.061 1106.7,579.175 1108.34,578.367 1109.97,577.651 1111.61,577.038 1113.24,576.539 1114.88,576.159 1116.51,575.903 1118.15,575.773 1119.78,575.774 1121.42,575.904 1123.05,576.163 1124.69,576.544 1126.32,577.037 1127.96,577.63 1129.59,578.307 1131.23,579.052 1132.86,579.846 1134.5,580.669 1136.13,581.503 1137.77,582.329 1139.4,583.13 1141.04,583.893 1142.67,584.608 1144.31,585.271 1145.94,585.877 1147.58,586.426 1149.21,586.915 1150.85,587.341 1152.48,587.705 1154.11,588.006 1155.75,588.249 1157.38,588.441 1159.02,588.588 1160.65,588.696 1162.29,588.766 1163.92,588.794 1165.56,588.77 1167.19,588.687 1168.83,588.538 1170.46,588.324 1172.1,588.056 1173.73,587.753 1175.37,587.436 1177,587.127 1178.64,586.843 1180.27,586.595 1181.91,586.389 1183.54,586.228 1185.18,586.117 1186.81,586.064 1188.45,586.08 1190.08,586.177 1191.72,586.362 1193.35,586.638 1194.99,586.996 1196.62,587.423 1198.26,587.897 1199.89,588.396 1201.53,588.902 1203.16,589.397 1204.8,589.872 1206.43,590.321 1208.06,590.74 1209.7,591.124 1211.33,591.468 1212.97,591.766 1214.6,592.01 1216.24,592.195 1217.87,592.318 1219.51,592.375 1221.14,592.368 1222.78,592.294 1224.41,592.154 1226.05,591.949 1227.68,591.677 1229.32,591.343 1230.95,590.952 1232.59,590.511 1234.22,590.03 1235.86,589.517 1237.49,588.978 1239.13,588.418 1240.76,587.842 1242.4,587.256 1244.03,586.663 1245.67,586.071 1247.3,585.483 1248.94,584.899 1250.57,584.316 1252.21,583.725 1253.84,583.115 1255.48,582.474 1257.11,581.789 1258.74,581.051 1260.38,580.252 1262.01,579.386 1263.65,578.448 1265.28,577.434 1266.92,576.344 1268.55,575.177 1270.19,573.937 1271.82,572.627 1273.46,571.25 1275.09,569.808 1276.73,568.303 1278.36,566.735 1280,565.104 1281.63,563.414 1283.27,561.669 1284.9,559.875 1286.53,558.038 1288.17,556.165 1289.8,554.262 1291.44,552.331 1293.07,550.377 1294.71,548.403 1296.34,546.412 1297.98,544.413 1299.61,542.42 1301.25,540.447 1302.88,538.508 1304.52,536.612 1306.15,534.762 1307.78,532.951 1309.42,531.165 1311.05,529.385 1312.69,527.589 1314.32,525.749 1315.96,523.83 1317.59,521.795 1319.23,519.604 1320.86,517.224 1322.5,514.638 1324.13,511.85 1325.76,508.887 1327.4,505.789 1329.03,502.599 1330.67,499.349 1332.3,496.049 1333.93,492.687 1335.57,489.238 1337.2,485.666 1338.84,481.942 1340.47,478.047 1342.1,473.975 1343.74,469.724 1345.37,465.296 1347,460.684 1348.64,455.881 1350.27,450.888 1351.9,445.72 1353.53,440.412 1355.17,435.01 1356.8,429.568 1358.43,424.136 1360.06,418.754 1361.7,413.453 1363.33,408.246 1364.96,403.137 1366.6,398.13 1368.23,393.237 1369.86,388.48 1371.5,383.89 1373.13,379.497 1374.76,375.327 1376.4,371.393 1378.03,367.696 1379.66,364.218 1381.3,360.933 1382.93,357.807 1384.57,354.816 1386.2,351.948 1387.83,349.209 1389.47,346.614 1391.1,344.185 1392.74,341.942 1394.37,339.902 1396.01,338.081 1397.64,336.491 1399.28,335.142 1400.91,334.037 1402.55,333.173 1404.18,332.539 1405.82,332.117 1407.45,331.887 1409.08,331.824 1410.72,331.904 1412.35,332.106 1413.99,332.408 1415.62,332.792 1417.26,333.243 1418.89,333.748 1420.53,334.297 1422.16,334.882 1423.8,335.498 1425.43,336.136 1427.07,336.792 1428.7,337.46 1430.34,338.131 1431.97,338.799 1433.61,339.453 1435.24,340.081 1436.88,340.67 1438.51,341.209 1440.15,341.689 1441.78,342.107 1443.42,342.469 1445.05,342.785 1446.69,343.068 1448.32,343.332 1449.96,343.587 1451.59,343.836 1453.23,344.079 1454.86,344.312 1456.5,344.53 1458.13,344.73 1459.76,344.909 1461.4,345.064 1463.03,345.19 1464.67,345.286 1466.3,345.347 1467.94,345.369 1469.57,345.349 1471.21,345.281 1472.84,345.156 1474.48,344.967 1476.11,344.704 1477.75,344.359 1479.38,343.928 1481.02,343.411 1482.65,342.809 1484.29,342.117 1485.92,341.328 1487.56,340.421 1489.19,339.369 1490.83,338.144 1492.46,336.721 1494.1,335.086 1495.73,333.243 1497.37,331.204 1499,328.986 1500.63,326.599 1502.27,324.043 1503.9,321.304 1505.54,318.372 1507.17,315.241 1508.81,311.922 1510.44,308.431 1512.07,304.778 1513.71,300.951 1515.34,296.921 1516.97,292.661 1518.61,288.164 1520.24,283.467 1521.87,278.641 1523.51,273.762 1525.14,268.885 1526.77,264.037 1528.41,259.221 1530.04,254.436 1531.67,249.674 1533.3,244.918 1534.94,240.148 1536.57,235.347 1538.2,230.51 1539.84,225.648 1541.47,220.784 1543.1,215.942 1544.74,211.145 1546.37,206.419 1548,201.797 1549.64,197.315 1551.27,193.011 1552.9,188.919 1554.54,185.066 1556.17,181.474 1557.8,178.164 1559.44,175.152 1561.07,172.445 1562.71,170.042 1564.34,167.934 1565.98,166.108 1567.61,164.553 1569.25,163.258 1570.88,162.213 1572.52,161.406 1574.15,160.825 1575.78,160.453 1577.42,160.271 1579.05,160.256 1580.69,160.382 1582.32,160.621 1583.96,160.941 1585.59,161.311 1587.23,161.703 1588.86,162.089 1590.5,162.448 1592.13,162.761 1593.77,163.019 1595.4,163.216 1597.04,163.354 1598.67,163.441 1600.31,163.486 1601.94,163.5 1603.58,163.494 1605.21,163.474 1606.85,163.443 1608.48,163.4 1610.12,163.343 1611.75,163.274 1613.39,163.196 1615.02,163.116 1616.66,163.042 1618.29,162.983 1619.93,162.95 1621.56,162.949 1623.2,162.991 1624.83,163.084 1626.47,163.238 1628.1,163.462 1629.73,163.764 1631.37,164.152 1633,164.626 1634.64,165.189 1636.27,165.838 1637.91,166.571 1639.54,167.382 1641.18,168.267 1642.81,169.219 1644.45,170.23 1646.08,171.294 1647.72,172.403 1649.35,173.552 1650.99,174.734 1652.62,175.945 1654.26,177.182 1655.89,178.445 1657.53,179.732 1659.16,181.044 1660.8,182.385 1662.43,183.755 1664.07,185.159 1665.7,186.599 1667.33,188.077 1668.97,189.596 1670.6,191.159 1672.24,192.767 1673.87,194.425 1675.51,196.136 1677.14,197.905 1678.78,199.735 1680.41,201.628 1682.05,203.587 1683.68,205.614 1685.32,207.711 1686.95,209.883 1688.58,212.131 1690.22,214.461 1691.85,216.878 1693.49,219.385 1695.12,221.986 1696.76,224.682 1698.39,227.474 1700.02,230.36 1701.66,233.34 1703.29,236.408 1704.93,239.56 1706.56,242.792 1708.19,246.097 1709.83,249.469 1711.46,252.9 1713.1,256.385 1714.73,259.917 1716.36,263.49 1718,267.099 1719.63,270.738 1721.27,274.404 1722.9,278.094 1724.53,281.805 1726.17,285.537 1727.8,289.288 1729.43,293.06 1731.07,296.852 1732.7,300.668 1734.34,304.509 1735.97,308.378 1737.6,312.277 1739.24,316.208 1740.87,320.172 1742.5,324.17 1744.14,328.202 1745.77,332.265 1747.41,336.357 1749.04,340.477 1750.67,344.62 1752.31,348.783 1753.94,352.963 1755.57,357.156 1757.21,361.36 1758.84,365.573 1760.47,369.793 1762.11,374.019 1763.74,378.25 1765.37,382.485 1767.01,386.725 1768.64,390.971 1770.27,395.221 1771.91,399.477 1773.54,403.739 1775.17,408.006 1776.81,412.28 1778.44,416.559 1780.07,420.844 1781.71,425.135 1783.34,429.43 1784.97,433.73 1786.61,438.034 1788.24,442.341 1789.88,446.651 1791.51,450.963 1793.14,455.278 1794.78,459.595 1796.41,463.914 1798.04,468.234 1799.68,472.557 1801.31,476.881 1802.94,481.207 1804.58,485.533 1806.21,489.86 1807.84,494.187 1809.48,498.512 1811.11,502.836 1812.74,507.158 1814.38,511.477 1816.01,515.792 1817.64,520.104 1819.28,524.412 1820.91,528.715 1822.54,533.014 1824.18,537.307 1825.81,541.595 1827.44,545.876 1829.08,550.152 1830.71,554.42 1832.34,558.68 1833.98,562.932 1835.61,567.176 1837.24,571.411 1838.88,575.638 1840.51,579.855 1842.14,584.062 1843.78,588.259 1845.41,592.446 1847.05,596.622 1848.68,600.786 1850.31,604.937 1851.95,609.075 1853.58,613.198 1855.21,617.306 1856.85,621.397 1858.48,625.473 1860.11,629.531 1861.75,633.572 1863.38,637.596 1865.01,641.603 1866.65,645.592 1868.28,649.562 1869.92,653.514 1871.55,657.447 1873.18,661.36 1874.82,665.252 1876.45,669.123 1878.08,672.972 1879.72,676.798 1881.35,680.602 1882.99,684.383 1884.62,688.141 1886.25,691.877 1887.89,695.59 1889.52,699.279 1891.15,702.944 1892.79,706.583 1894.42,710.195 1896.06,713.776 1897.69,717.323 1899.32,720.835 1900.96,724.308 1902.59,727.74 1904.23,731.128 1905.86,734.472 1907.49,737.772 1909.13,741.027 1910.76,744.24 1912.4,747.411 1914.03,750.543 1915.66,753.636 1917.3,756.692 1918.93,759.711 1920.57,762.691 1922.2,765.633 1923.83,768.534 1925.47,771.393 1927.1,774.209 1928.74,776.982 1930.37,779.713 1932.01,782.403 1933.64,785.056 1935.27,787.674 1936.91,790.258 1938.54,792.811 1940.18,795.329 1941.81,797.809 1943.45,800.243 1945.08,802.621 1946.72,804.931 1948.35,807.158 1949.98,809.289 1951.62,811.31 1953.25,813.21 1954.89,814.984 1956.52,816.628 1958.16,818.146 1959.79,819.545 1961.43,820.837 1963.06,822.035 1964.7,823.153 1966.33,824.203 1967.97,825.198 1969.6,826.148 1971.24,827.065 1972.87,827.957 1974.5,828.836 1976.14,829.71 1977.77,830.589 1979.41,831.482 1981.04,832.396 1982.68,833.337 1984.31,834.309 1985.95,835.316 1987.58,836.36 1989.22,837.442 1990.85,838.561 1992.49,839.716 1994.12,840.904 1995.76,842.122 1997.39,843.365 1999.03,844.628 2000.66,845.906 2002.3,847.193 2003.93,848.482 2005.57,849.767 2007.2,851.042 2008.83,852.297 2010.47,853.526 2012.1,854.721 2013.74,855.878 2015.37,856.989 2017.01,858.051 2018.64,859.059 2020.28,860.011 2021.91,860.901 2023.55,861.726 2025.18,862.482 2026.82,863.162 2028.45,863.762 2030.09,864.278 2031.72,864.707 2033.36,865.05 2034.99,865.304 2036.63,865.471 2038.26,865.55 2039.9,865.538 2041.53,865.436 2043.17,865.243 2044.8,864.959 2046.44,864.589 2048.07,864.141 2049.71,863.623 2051.34,863.047 2052.97,862.426 2054.61,861.774 2056.24,861.106 2057.88,860.438 2059.51,859.783 2061.15,859.158 2062.78,858.576 2064.42,858.047 2066.05,857.58 2067.69,857.182 2069.32,856.854 2070.96,856.596 2072.59,856.403 2074.23,856.271 2075.86,856.194 2077.5,856.167 2079.13,856.187 2080.77,856.25 2082.4,856.356 2084.04,856.502 2085.67,856.687 2087.31,856.907 2088.94,857.161 2090.58,857.445 2092.21,857.762 2093.85,858.11 2095.48,858.491 2097.12,858.907 2098.75,859.357 2100.39,859.839 2102.02,860.352 2103.66,860.893 2105.29,861.461 2106.92,862.054 2108.56,862.674 2110.19,863.319 2111.83,863.989 2113.46,864.683 2115.1,865.399 2116.73,866.134 2118.37,866.885 2120,867.648 2121.64,868.421 2123.27,869.202 2124.91,869.991 2126.54,870.79 2128.18,871.602 2129.81,872.432 2131.45,873.287 2133.08,874.177 2134.72,875.111 2136.35,876.098 2137.99,877.146 2139.62,878.263 2141.26,879.455 2142.89,880.726 2144.52,882.079 2146.16,883.515 2147.79,885.033 2149.43,886.631 2151.06,888.303 2152.7,890.043 2154.33,891.844 2155.97,893.697 2157.6,895.595 2159.24,897.529 2160.87,899.494 2162.51,901.484 2164.14,903.496 2165.77,905.528 2167.41,907.58 2169.04,909.65 2170.68,911.74 2172.31,913.851 2173.95,915.984 2175.58,918.142 2177.22,920.324 2178.85,922.533 2180.49,924.77 2182.12,927.037 2183.75,929.334 2185.39,931.661 2187.02,934.019 2188.66,936.406 2190.29,938.822 2191.93,941.264 2193.56,943.731 2195.2,946.22 2196.83,948.729 2198.46,951.257 2200.1,953.803 2201.73,956.367 2203.37,958.948 2205,961.547 2206.64,964.166 2208.27,966.806 2209.9,969.468 2211.54,972.154 2213.17,974.866 2214.81,977.605 2216.44,980.373 2218.08,983.17 2219.71,985.997 2221.34,988.854 2222.98,991.741 2224.61,994.658 2226.25,997.605 2227.88,1000.58 2229.51,1003.58 2231.15,1006.61 2232.78,1009.67 2234.42,1012.75 2236.05,1015.85 2237.69,1018.97 2239.32,1022.12 2240.95,1025.28 2242.59,1028.46 2244.22,1031.65 2245.86,1034.86 2247.49,1038.07 2249.12,1041.29 2250.76,1044.51 2252.39,1047.74 2254.03,1050.96 2255.66,1054.18 2257.29,1057.4 2258.93,1060.61 2260.56,1063.81 2262.2,1067 2263.83,1070.18 2265.46,1073.36 2267.1,1076.52 2268.73,1079.67 2270.37,1082.81 2272,1085.94 2273.64,1089.06 2275.27,1092.17 2276.9,1095.27 2278.54,1098.35 2280.17,1101.43 2281.81,1104.49 2283.44,1107.54 2285.07,1110.58 2286.71,1113.61 2288.34,1116.62 2289.98,1119.63 2291.61,1122.63 2293.24,1125.61 "/>
<polyline clip-path="url(#clip252)" style="stroke:#e26f46; stroke-linecap:round; stroke-linejoin:round; stroke-width:4; stroke-opacity:1; fill:none" points="309.539,882.094 509.928,1090.98 "/>
<polyline clip-path="url(#clip252)" style="stroke:#e26f46; stroke-linecap:round; stroke-linejoin:round; stroke-width:4; stroke-opacity:1; fill:none" points="497.995,1052.54 509.928,1090.98 472.017,1077.46 "/>
<polyline clip-path="url(#clip252)" style="stroke:#e26f46; stroke-linecap:round; stroke-linejoin:round; stroke-width:4; stroke-opacity:1; fill:none" points="509.928,1090.98 309.539,882.094 "/>
<path clip-path="url(#clip250)" d="M2019.96 270.476 L2282.66 270.476 L2282.66 166.796 L2019.96 166.796  Z" fill="#ffffff" fill-rule="evenodd" fill-opacity="1"/>
<polyline clip-path="url(#clip250)" style="stroke:#000000; stroke-linecap:round; stroke-linejoin:round; stroke-width:4; stroke-opacity:1; fill:none" points="2019.96,270.476 2282.66,270.476 2282.66,166.796 2019.96,166.796 2019.96,270.476 "/>
<polyline clip-path="url(#clip250)" style="stroke:#0000ff; stroke-linecap:round; stroke-linejoin:round; stroke-width:8; stroke-opacity:1; fill:none" stroke-dasharray="32, 20" points="2043.33,218.636 2183.51,218.636 "/>
<path clip-path="url(#clip250)" d="M2220.71 238.323 Q2218.91 242.953 2217.2 244.365 Q2215.48 245.777 2212.61 245.777 L2209.21 245.777 L2209.21 242.212 L2211.71 242.212 Q2213.47 242.212 2214.44 241.379 Q2215.41 240.545 2216.59 237.443 L2217.36 235.499 L2206.87 209.99 L2211.38 209.99 L2219.49 230.268 L2227.59 209.99 L2232.1 209.99 L2220.71 238.323 Z" fill="#000000" fill-rule="nonzero" fill-opacity="1" /><path clip-path="url(#clip250)" d="M2239.39 231.981 L2247.03 231.981 L2247.03 205.615 L2238.72 207.282 L2238.72 203.022 L2246.99 201.356 L2251.66 201.356 L2251.66 231.981 L2259.3 231.981 L2259.3 235.916 L2239.39 235.916 L2239.39 231.981 Z" fill="#000000" fill-rule="nonzero" fill-opacity="1" /></svg>
