<?xml version="1.0" encoding="utf-8"?>
<svg xmlns="http://www.w3.org/2000/svg" xmlns:xlink="http://www.w3.org/1999/xlink" width="600" height="400" viewBox="0 0 2400 1600">
<defs>
  <clipPath id="clip990">
    <rect x="0" y="0" width="2400" height="1600"/>
  </clipPath>
</defs>
<path clip-path="url(#clip990)" d="M0 1600 L2400 1600 L2400 0 L0 0  Z" fill="#ffffff" fill-rule="evenodd" fill-opacity="1"/>
<defs>
  <clipPath id="clip991">
    <rect x="175" y="123" width="2178" height="1301"/>
  </clipPath>
</defs>
<path clip-path="url(#clip990)" d="M219.866 1423.18 L2352.76 1423.18 L2352.76 123.472 L219.866 123.472  Z" fill="#ffffff" fill-rule="evenodd" fill-opacity="1"/>
<defs>
  <clipPath id="clip992">
    <rect x="219" y="123" width="2134" height="1301"/>
  </clipPath>
</defs>
<polyline clip-path="url(#clip992)" style="stroke:#000000; stroke-linecap:round; stroke-linejoin:round; stroke-width:2; stroke-opacity:0.1; fill:none" points="277.813,1423.18 277.813,123.472 "/>
<polyline clip-path="url(#clip992)" style="stroke:#000000; stroke-linecap:round; stroke-linejoin:round; stroke-width:2; stroke-opacity:0.1; fill:none" points="953.577,1423.18 953.577,123.472 "/>
<polyline clip-path="url(#clip992)" style="stroke:#000000; stroke-linecap:round; stroke-linejoin:round; stroke-width:2; stroke-opacity:0.1; fill:none" points="1629.34,1423.18 1629.34,123.472 "/>
<polyline clip-path="url(#clip992)" style="stroke:#000000; stroke-linecap:round; stroke-linejoin:round; stroke-width:2; stroke-opacity:0.1; fill:none" points="2305.11,1423.18 2305.11,123.472 "/>
<polyline clip-path="url(#clip992)" style="stroke:#000000; stroke-linecap:round; stroke-linejoin:round; stroke-width:2; stroke-opacity:0.1; fill:none" points="219.866,1369.94 2352.76,1369.94 "/>
<polyline clip-path="url(#clip992)" style="stroke:#000000; stroke-linecap:round; stroke-linejoin:round; stroke-width:2; stroke-opacity:0.1; fill:none" points="219.866,1031.8 2352.76,1031.8 "/>
<polyline clip-path="url(#clip992)" style="stroke:#000000; stroke-linecap:round; stroke-linejoin:round; stroke-width:2; stroke-opacity:0.1; fill:none" points="219.866,693.649 2352.76,693.649 "/>
<polyline clip-path="url(#clip992)" style="stroke:#000000; stroke-linecap:round; stroke-linejoin:round; stroke-width:2; stroke-opacity:0.1; fill:none" points="219.866,355.501 2352.76,355.501 "/>
<polyline clip-path="url(#clip990)" style="stroke:#000000; stroke-linecap:round; stroke-linejoin:round; stroke-width:4; stroke-opacity:1; fill:none" points="219.866,1423.18 2352.76,1423.18 "/>
<polyline clip-path="url(#clip990)" style="stroke:#000000; stroke-linecap:round; stroke-linejoin:round; stroke-width:4; stroke-opacity:1; fill:none" points="277.813,1423.18 277.813,1404.28 "/>
<polyline clip-path="url(#clip990)" style="stroke:#000000; stroke-linecap:round; stroke-linejoin:round; stroke-width:4; stroke-opacity:1; fill:none" points="953.577,1423.18 953.577,1404.28 "/>
<polyline clip-path="url(#clip990)" style="stroke:#000000; stroke-linecap:round; stroke-linejoin:round; stroke-width:4; stroke-opacity:1; fill:none" points="1629.34,1423.18 1629.34,1404.28 "/>
<polyline clip-path="url(#clip990)" style="stroke:#000000; stroke-linecap:round; stroke-linejoin:round; stroke-width:4; stroke-opacity:1; fill:none" points="2305.11,1423.18 2305.11,1404.28 "/>
<path clip-path="url(#clip990)" d="M277.813 1454.1 Q274.202 1454.1 272.373 1457.66 Q270.567 1461.2 270.567 1468.33 Q270.567 1475.44 272.373 1479.01 Q274.202 1482.55 277.813 1482.55 Q281.447 1482.55 283.253 1479.01 Q285.081 1475.44 285.081 1468.33 Q285.081 1461.2 283.253 1457.66 Q281.447 1454.1 277.813 1454.1 M277.813 1450.39 Q283.623 1450.39 286.678 1455 Q289.757 1459.58 289.757 1468.33 Q289.757 1477.06 286.678 1481.67 Q283.623 1486.25 277.813 1486.25 Q272.003 1486.25 268.924 1481.67 Q265.868 1477.06 265.868 1468.33 Q265.868 1459.58 268.924 1455 Q272.003 1450.39 277.813 1450.39 Z" fill="#000000" fill-rule="nonzero" fill-opacity="1" /><path clip-path="url(#clip990)" d="M943.959 1481.64 L951.598 1481.64 L951.598 1455.28 L943.288 1456.95 L943.288 1452.69 L951.552 1451.02 L956.228 1451.02 L956.228 1481.64 L963.866 1481.64 L963.866 1485.58 L943.959 1485.58 L943.959 1481.64 Z" fill="#000000" fill-rule="nonzero" fill-opacity="1" /><path clip-path="url(#clip990)" d="M1623.99 1481.64 L1640.31 1481.64 L1640.31 1485.58 L1618.37 1485.58 L1618.37 1481.64 Q1621.03 1478.89 1625.61 1474.26 Q1630.22 1469.61 1631.4 1468.27 Q1633.65 1465.74 1634.53 1464.01 Q1635.43 1462.25 1635.43 1460.56 Q1635.43 1457.8 1633.48 1456.07 Q1631.56 1454.33 1628.46 1454.33 Q1626.26 1454.33 1623.81 1455.09 Q1621.38 1455.86 1618.6 1457.41 L1618.6 1452.69 Q1621.42 1451.55 1623.88 1450.97 Q1626.33 1450.39 1628.37 1450.39 Q1633.74 1450.39 1636.93 1453.08 Q1640.13 1455.77 1640.13 1460.26 Q1640.13 1462.39 1639.32 1464.31 Q1638.53 1466.2 1636.42 1468.8 Q1635.85 1469.47 1632.74 1472.69 Q1629.64 1475.88 1623.99 1481.64 Z" fill="#000000" fill-rule="nonzero" fill-opacity="1" /><path clip-path="url(#clip990)" d="M2309.35 1466.95 Q2312.71 1467.66 2314.58 1469.93 Q2316.48 1472.2 2316.48 1475.53 Q2316.48 1480.65 2312.96 1483.45 Q2309.45 1486.25 2302.96 1486.25 Q2300.79 1486.25 2298.47 1485.81 Q2296.18 1485.39 2293.73 1484.54 L2293.73 1480.02 Q2295.67 1481.16 2297.99 1481.74 Q2300.3 1482.32 2302.83 1482.32 Q2307.22 1482.32 2309.52 1480.58 Q2311.83 1478.84 2311.83 1475.53 Q2311.83 1472.48 2309.68 1470.77 Q2307.55 1469.03 2303.73 1469.03 L2299.7 1469.03 L2299.7 1465.19 L2303.91 1465.19 Q2307.36 1465.19 2309.19 1463.82 Q2311.02 1462.43 2311.02 1459.84 Q2311.02 1457.18 2309.12 1455.77 Q2307.25 1454.33 2303.73 1454.33 Q2301.81 1454.33 2299.61 1454.75 Q2297.41 1455.16 2294.77 1456.04 L2294.77 1451.88 Q2297.43 1451.14 2299.75 1450.77 Q2302.09 1450.39 2304.15 1450.39 Q2309.47 1450.39 2312.57 1452.83 Q2315.67 1455.23 2315.67 1459.35 Q2315.67 1462.22 2314.03 1464.21 Q2312.39 1466.18 2309.35 1466.95 Z" fill="#000000" fill-rule="nonzero" fill-opacity="1" /><path clip-path="url(#clip990)" d="M1254.69 1561.55 Q1255.84 1563.08 1259.27 1563.08 L1262.11 1563.08 L1262.11 1568.04 L1258.57 1568.04 Q1252.84 1568.04 1250.23 1564.99 Q1247.62 1561.87 1247.62 1555.12 L1247.62 1538.25 L1234.26 1538.25 L1234.26 1532.4 L1267.13 1532.4 L1267.13 1538.25 L1253.61 1538.25 L1253.61 1555.47 Q1253.61 1560.09 1254.69 1561.55 Z" fill="#000000" fill-rule="nonzero" fill-opacity="1" /><path clip-path="url(#clip990)" d="M1303.55 1578.87 L1303.55 1583.42 L1269.68 1583.42 L1269.68 1578.87 L1303.55 1578.87 Z" fill="#000000" fill-rule="nonzero" fill-opacity="1" /><path clip-path="url(#clip990)" d="M1310.99 1562.63 L1321.5 1562.63 L1321.5 1526.38 L1310.07 1528.67 L1310.07 1522.82 L1321.43 1520.52 L1327.86 1520.52 L1327.86 1562.63 L1338.37 1562.63 L1338.37 1568.04 L1310.99 1568.04 L1310.99 1562.63 Z" fill="#000000" fill-rule="nonzero" fill-opacity="1" /><polyline clip-path="url(#clip990)" style="stroke:#000000; stroke-linecap:round; stroke-linejoin:round; stroke-width:4; stroke-opacity:1; fill:none" points="219.866,1423.18 219.866,123.472 "/>
<polyline clip-path="url(#clip990)" style="stroke:#000000; stroke-linecap:round; stroke-linejoin:round; stroke-width:4; stroke-opacity:1; fill:none" points="219.866,1369.94 238.764,1369.94 "/>
<polyline clip-path="url(#clip990)" style="stroke:#000000; stroke-linecap:round; stroke-linejoin:round; stroke-width:4; stroke-opacity:1; fill:none" points="219.866,1031.8 238.764,1031.8 "/>
<polyline clip-path="url(#clip990)" style="stroke:#000000; stroke-linecap:round; stroke-linejoin:round; stroke-width:4; stroke-opacity:1; fill:none" points="219.866,693.649 238.764,693.649 "/>
<polyline clip-path="url(#clip990)" style="stroke:#000000; stroke-linecap:round; stroke-linejoin:round; stroke-width:4; stroke-opacity:1; fill:none" points="219.866,355.501 238.764,355.501 "/>
<path clip-path="url(#clip990)" d="M126.205 1355.74 Q122.593 1355.74 120.765 1359.31 Q118.959 1362.85 118.959 1369.98 Q118.959 1377.08 120.765 1380.65 Q122.593 1384.19 126.205 1384.19 Q129.839 1384.19 131.644 1380.65 Q133.473 1377.08 133.473 1369.98 Q133.473 1362.85 131.644 1359.31 Q129.839 1355.74 126.205 1355.74 M126.205 1352.04 Q132.015 1352.04 135.07 1356.64 Q138.149 1361.23 138.149 1369.98 Q138.149 1378.7 135.07 1383.31 Q132.015 1387.89 126.205 1387.89 Q120.394 1387.89 117.316 1383.31 Q114.26 1378.7 114.26 1369.98 Q114.26 1361.23 117.316 1356.64 Q120.394 1352.04 126.205 1352.04 Z" fill="#000000" fill-rule="nonzero" fill-opacity="1" /><path clip-path="url(#clip990)" d="M146.366 1381.34 L151.251 1381.34 L151.251 1387.22 L146.366 1387.22 L146.366 1381.34 Z" fill="#000000" fill-rule="nonzero" fill-opacity="1" /><path clip-path="url(#clip990)" d="M174.283 1356.74 L162.477 1375.19 L174.283 1375.19 L174.283 1356.74 M173.056 1352.66 L178.936 1352.66 L178.936 1375.19 L183.866 1375.19 L183.866 1379.08 L178.936 1379.08 L178.936 1387.22 L174.283 1387.22 L174.283 1379.08 L158.681 1379.08 L158.681 1374.56 L173.056 1352.66 Z" fill="#000000" fill-rule="nonzero" fill-opacity="1" /><path clip-path="url(#clip990)" d="M126.529 1017.59 Q122.918 1017.59 121.089 1021.16 Q119.283 1024.7 119.283 1031.83 Q119.283 1038.94 121.089 1042.5 Q122.918 1046.04 126.529 1046.04 Q130.163 1046.04 131.968 1042.5 Q133.797 1038.94 133.797 1031.83 Q133.797 1024.7 131.968 1021.16 Q130.163 1017.59 126.529 1017.59 M126.529 1013.89 Q132.339 1013.89 135.394 1018.5 Q138.473 1023.08 138.473 1031.83 Q138.473 1040.56 135.394 1045.16 Q132.339 1049.75 126.529 1049.75 Q120.718 1049.75 117.64 1045.16 Q114.584 1040.56 114.584 1031.83 Q114.584 1023.08 117.64 1018.5 Q120.718 1013.89 126.529 1013.89 Z" fill="#000000" fill-rule="nonzero" fill-opacity="1" /><path clip-path="url(#clip990)" d="M146.691 1043.2 L151.575 1043.2 L151.575 1049.08 L146.691 1049.08 L146.691 1043.2 Z" fill="#000000" fill-rule="nonzero" fill-opacity="1" /><path clip-path="url(#clip990)" d="M172.339 1029.93 Q169.19 1029.93 167.339 1032.09 Q165.51 1034.24 165.51 1037.99 Q165.51 1041.71 167.339 1043.89 Q169.19 1046.04 172.339 1046.04 Q175.487 1046.04 177.315 1043.89 Q179.167 1041.71 179.167 1037.99 Q179.167 1034.24 177.315 1032.09 Q175.487 1029.93 172.339 1029.93 M181.621 1015.28 L181.621 1019.54 Q179.862 1018.71 178.056 1018.27 Q176.274 1017.83 174.514 1017.83 Q169.885 1017.83 167.431 1020.95 Q165.001 1024.08 164.653 1030.4 Q166.019 1028.38 168.079 1027.32 Q170.139 1026.23 172.616 1026.23 Q177.825 1026.23 180.834 1029.4 Q183.866 1032.55 183.866 1037.99 Q183.866 1043.31 180.718 1046.53 Q177.57 1049.75 172.339 1049.75 Q166.343 1049.75 163.172 1045.16 Q160.001 1040.56 160.001 1031.83 Q160.001 1023.64 163.89 1018.78 Q167.778 1013.89 174.329 1013.89 Q176.089 1013.89 177.871 1014.24 Q179.676 1014.59 181.621 1015.28 Z" fill="#000000" fill-rule="nonzero" fill-opacity="1" /><path clip-path="url(#clip990)" d="M126.783 679.447 Q123.172 679.447 121.343 683.012 Q119.538 686.554 119.538 693.683 Q119.538 700.79 121.343 704.355 Q123.172 707.896 126.783 707.896 Q130.417 707.896 132.223 704.355 Q134.052 700.79 134.052 693.683 Q134.052 686.554 132.223 683.012 Q130.417 679.447 126.783 679.447 M126.783 675.744 Q132.593 675.744 135.649 680.35 Q138.728 684.933 138.728 693.683 Q138.728 702.41 135.649 707.017 Q132.593 711.6 126.783 711.6 Q120.973 711.6 117.894 707.017 Q114.839 702.41 114.839 693.683 Q114.839 684.933 117.894 680.35 Q120.973 675.744 126.783 675.744 Z" fill="#000000" fill-rule="nonzero" fill-opacity="1" /><path clip-path="url(#clip990)" d="M146.945 705.049 L151.829 705.049 L151.829 710.929 L146.945 710.929 L146.945 705.049 Z" fill="#000000" fill-rule="nonzero" fill-opacity="1" /><path clip-path="url(#clip990)" d="M172.014 694.517 Q168.681 694.517 166.76 696.299 Q164.862 698.082 164.862 701.207 Q164.862 704.331 166.76 706.114 Q168.681 707.896 172.014 707.896 Q175.348 707.896 177.269 706.114 Q179.19 704.308 179.19 701.207 Q179.19 698.082 177.269 696.299 Q175.371 694.517 172.014 694.517 M167.339 692.526 Q164.329 691.785 162.64 689.725 Q160.973 687.665 160.973 684.702 Q160.973 680.558 163.913 678.151 Q166.876 675.744 172.014 675.744 Q177.176 675.744 180.116 678.151 Q183.056 680.558 183.056 684.702 Q183.056 687.665 181.366 689.725 Q179.7 691.785 176.714 692.526 Q180.093 693.313 181.968 695.605 Q183.866 697.896 183.866 701.207 Q183.866 706.23 180.788 708.915 Q177.732 711.6 172.014 711.6 Q166.297 711.6 163.218 708.915 Q160.163 706.23 160.163 701.207 Q160.163 697.896 162.061 695.605 Q163.959 693.313 167.339 692.526 M165.626 685.142 Q165.626 687.827 167.292 689.332 Q168.982 690.836 172.014 690.836 Q175.024 690.836 176.714 689.332 Q178.426 687.827 178.426 685.142 Q178.426 682.457 176.714 680.952 Q175.024 679.447 172.014 679.447 Q168.982 679.447 167.292 680.952 Q165.626 682.457 165.626 685.142 Z" fill="#000000" fill-rule="nonzero" fill-opacity="1" /><path clip-path="url(#clip990)" d="M117.501 368.846 L125.14 368.846 L125.14 342.481 L116.83 344.147 L116.83 339.888 L125.093 338.221 L129.769 338.221 L129.769 368.846 L137.408 368.846 L137.408 372.781 L117.501 372.781 L117.501 368.846 Z" fill="#000000" fill-rule="nonzero" fill-opacity="1" /><path clip-path="url(#clip990)" d="M146.853 366.902 L151.737 366.902 L151.737 372.781 L146.853 372.781 L146.853 366.902 Z" fill="#000000" fill-rule="nonzero" fill-opacity="1" /><path clip-path="url(#clip990)" d="M171.922 341.3 Q168.311 341.3 166.482 344.865 Q164.677 348.407 164.677 355.536 Q164.677 362.643 166.482 366.207 Q168.311 369.749 171.922 369.749 Q175.556 369.749 177.362 366.207 Q179.19 362.643 179.19 355.536 Q179.19 348.407 177.362 344.865 Q175.556 341.3 171.922 341.3 M171.922 337.596 Q177.732 337.596 180.788 342.203 Q183.866 346.786 183.866 355.536 Q183.866 364.263 180.788 368.869 Q177.732 373.453 171.922 373.453 Q166.112 373.453 163.033 368.869 Q159.978 364.263 159.978 355.536 Q159.978 346.786 163.033 342.203 Q166.112 337.596 171.922 337.596 Z" fill="#000000" fill-rule="nonzero" fill-opacity="1" /><path clip-path="url(#clip990)" d="M58.3387 750.903 L64.0042 750.903 L64.0042 770 L58.3387 770 Q55.2513 764.366 49.9678 761.215 Q44.6842 758.064 38.2549 758.064 Q30.616 758.064 26.0009 762.266 Q21.3858 766.467 21.3858 773.342 Q21.3858 780.217 26.0327 784.45 Q30.6479 788.651 38.2549 788.651 Q44.6842 788.651 49.9678 785.5 Q55.2513 782.318 58.3387 776.652 L64.0042 776.652 L64.0042 795.749 L58.3387 795.749 L58.3387 785.596 Q53.9145 790.625 49.1721 792.948 Q44.4296 795.24 38.5732 795.24 Q28.4517 795.24 22.1815 789.129 Q15.9112 783.05 15.9112 773.342 Q15.9112 763.698 22.1815 757.555 Q28.4199 751.444 38.2549 751.444 Q44.4296 751.444 49.1402 753.704 Q53.8509 755.964 58.3387 761.088 L58.3387 750.903 Z" fill="#000000" fill-rule="nonzero" fill-opacity="1" /><path clip-path="url(#clip990)" d="M259.711 16.7545 L259.711 25.383 Q255.579 21.5346 250.88 19.6307 Q246.221 17.7268 240.955 17.7268 Q230.585 17.7268 225.075 24.0867 Q219.566 30.4061 219.566 42.3968 Q219.566 54.3469 225.075 60.7069 Q230.585 67.0263 240.955 67.0263 Q246.221 67.0263 250.88 65.1223 Q255.579 63.2184 259.711 59.3701 L259.711 67.9175 Q255.417 70.8341 250.596 72.2924 Q245.816 73.7508 240.469 73.7508 Q226.736 73.7508 218.837 65.3654 Q210.938 56.9395 210.938 42.3968 Q210.938 27.8135 218.837 19.4281 Q226.736 11.0023 240.469 11.0023 Q245.897 11.0023 250.677 12.4606 Q255.498 13.8784 259.711 16.7545 Z" fill="#000000" fill-rule="nonzero" fill-opacity="1" /><path clip-path="url(#clip990)" d="M289.606 32.4315 Q283.611 32.4315 280.127 37.1306 Q276.643 41.7891 276.643 49.9314 Q276.643 58.0738 280.087 62.7728 Q283.571 67.4314 289.606 67.4314 Q295.561 67.4314 299.045 62.7323 Q302.529 58.0333 302.529 49.9314 Q302.529 41.8701 299.045 37.1711 Q295.561 32.4315 289.606 32.4315 M289.606 26.1121 Q299.329 26.1121 304.878 32.4315 Q310.428 38.7509 310.428 49.9314 Q310.428 61.0714 304.878 67.4314 Q299.329 73.7508 289.606 73.7508 Q279.844 73.7508 274.294 67.4314 Q268.785 61.0714 268.785 49.9314 Q268.785 38.7509 274.294 32.4315 Q279.844 26.1121 289.606 26.1121 Z" fill="#000000" fill-rule="nonzero" fill-opacity="1" /><path clip-path="url(#clip990)" d="M360.497 45.1919 L360.497 72.576 L353.044 72.576 L353.044 45.4349 Q353.044 38.994 350.532 35.7938 Q348.02 32.5936 342.997 32.5936 Q336.961 32.5936 333.478 36.4419 Q329.994 40.2903 329.994 46.9338 L329.994 72.576 L322.5 72.576 L322.5 27.2059 L329.994 27.2059 L329.994 34.2544 Q332.667 30.163 336.273 28.1376 Q339.919 26.1121 344.658 26.1121 Q352.476 26.1121 356.487 30.9732 Q360.497 35.7938 360.497 45.1919 Z" fill="#000000" fill-rule="nonzero" fill-opacity="1" /><path clip-path="url(#clip990)" d="M382.737 14.324 L382.737 27.2059 L398.09 27.2059 L398.09 32.9987 L382.737 32.9987 L382.737 57.6282 Q382.737 63.1779 384.235 64.7578 Q385.775 66.3376 390.433 66.3376 L398.09 66.3376 L398.09 72.576 L390.433 72.576 Q381.805 72.576 378.524 69.3758 Q375.242 66.1351 375.242 57.6282 L375.242 32.9987 L369.774 32.9987 L369.774 27.2059 L375.242 27.2059 L375.242 14.324 L382.737 14.324 Z" fill="#000000" fill-rule="nonzero" fill-opacity="1" /><path clip-path="url(#clip990)" d="M407.893 27.2059 L415.346 27.2059 L415.346 72.576 L407.893 72.576 L407.893 27.2059 M407.893 9.54393 L415.346 9.54393 L415.346 18.9825 L407.893 18.9825 L407.893 9.54393 Z" fill="#000000" fill-rule="nonzero" fill-opacity="1" /><path clip-path="url(#clip990)" d="M468.656 45.1919 L468.656 72.576 L461.203 72.576 L461.203 45.4349 Q461.203 38.994 458.691 35.7938 Q456.18 32.5936 451.156 32.5936 Q445.121 32.5936 441.637 36.4419 Q438.153 40.2903 438.153 46.9338 L438.153 72.576 L430.659 72.576 L430.659 27.2059 L438.153 27.2059 L438.153 34.2544 Q440.827 30.163 444.432 28.1376 Q448.078 26.1121 452.817 26.1121 Q460.636 26.1121 464.646 30.9732 Q468.656 35.7938 468.656 45.1919 Z" fill="#000000" fill-rule="nonzero" fill-opacity="1" /><path clip-path="url(#clip990)" d="M482.753 54.671 L482.753 27.2059 L490.207 27.2059 L490.207 54.3874 Q490.207 60.8284 492.719 64.0691 Q495.23 67.2693 500.253 67.2693 Q506.289 67.2693 509.773 63.421 Q513.297 59.5726 513.297 52.9291 L513.297 27.2059 L520.751 27.2059 L520.751 72.576 L513.297 72.576 L513.297 65.6084 Q510.583 69.7404 506.978 71.7658 Q503.413 73.7508 498.674 73.7508 Q490.855 73.7508 486.804 68.8897 Q482.753 64.0286 482.753 54.671 M501.509 26.1121 L501.509 26.1121 Z" fill="#000000" fill-rule="nonzero" fill-opacity="1" /><path clip-path="url(#clip990)" d="M556.723 49.7694 Q547.689 49.7694 544.206 51.8354 Q540.722 53.9013 540.722 58.8839 Q540.722 62.8538 543.314 65.2034 Q545.948 67.5124 550.444 67.5124 Q556.642 67.5124 560.369 63.1374 Q564.136 58.7219 564.136 51.4303 L564.136 49.7694 L556.723 49.7694 M571.59 46.6907 L571.59 72.576 L564.136 72.576 L564.136 65.6895 Q561.584 69.8214 557.776 71.8063 Q553.968 73.7508 548.459 73.7508 Q541.492 73.7508 537.36 69.8619 Q533.268 65.9325 533.268 59.3701 Q533.268 51.7138 538.372 47.825 Q543.517 43.9361 553.685 43.9361 L564.136 43.9361 L564.136 43.2069 Q564.136 38.0623 560.733 35.2672 Q557.371 32.4315 551.254 32.4315 Q547.365 32.4315 543.679 33.3632 Q539.993 34.295 536.59 36.1584 L536.59 29.2718 Q540.681 27.692 544.53 26.9223 Q548.378 26.1121 552.024 26.1121 Q561.868 26.1121 566.729 31.2163 Q571.59 36.3204 571.59 46.6907 Z" fill="#000000" fill-rule="nonzero" fill-opacity="1" /><path clip-path="url(#clip990)" d="M594.315 14.324 L594.315 27.2059 L609.668 27.2059 L609.668 32.9987 L594.315 32.9987 L594.315 57.6282 Q594.315 63.1779 595.814 64.7578 Q597.354 66.3376 602.012 66.3376 L609.668 66.3376 L609.668 72.576 L602.012 72.576 Q593.384 72.576 590.102 69.3758 Q586.821 66.1351 586.821 57.6282 L586.821 32.9987 L581.352 32.9987 L581.352 27.2059 L586.821 27.2059 L586.821 14.324 L594.315 14.324 Z" fill="#000000" fill-rule="nonzero" fill-opacity="1" /><path clip-path="url(#clip990)" d="M619.471 27.2059 L626.925 27.2059 L626.925 72.576 L619.471 72.576 L619.471 27.2059 M619.471 9.54393 L626.925 9.54393 L626.925 18.9825 L619.471 18.9825 L619.471 9.54393 Z" fill="#000000" fill-rule="nonzero" fill-opacity="1" /><path clip-path="url(#clip990)" d="M660.102 32.4315 Q654.107 32.4315 650.623 37.1306 Q647.139 41.7891 647.139 49.9314 Q647.139 58.0738 650.582 62.7728 Q654.066 67.4314 660.102 67.4314 Q666.057 67.4314 669.541 62.7323 Q673.024 58.0333 673.024 49.9314 Q673.024 41.8701 669.541 37.1711 Q666.057 32.4315 660.102 32.4315 M660.102 26.1121 Q669.824 26.1121 675.374 32.4315 Q680.924 38.7509 680.924 49.9314 Q680.924 61.0714 675.374 67.4314 Q669.824 73.7508 660.102 73.7508 Q650.339 73.7508 644.79 67.4314 Q639.28 61.0714 639.28 49.9314 Q639.28 38.7509 644.79 32.4315 Q650.339 26.1121 660.102 26.1121 Z" fill="#000000" fill-rule="nonzero" fill-opacity="1" /><path clip-path="url(#clip990)" d="M730.993 45.1919 L730.993 72.576 L723.539 72.576 L723.539 45.4349 Q723.539 38.994 721.028 35.7938 Q718.516 32.5936 713.493 32.5936 Q707.457 32.5936 703.973 36.4419 Q700.49 40.2903 700.49 46.9338 L700.49 72.576 L692.995 72.576 L692.995 27.2059 L700.49 27.2059 L700.49 34.2544 Q703.163 30.163 706.768 28.1376 Q710.414 26.1121 715.154 26.1121 Q722.972 26.1121 726.982 30.9732 Q730.993 35.7938 730.993 45.1919 Z" fill="#000000" fill-rule="nonzero" fill-opacity="1" /><path clip-path="url(#clip990)" d="M779.442 65.7705 L779.442 89.8329 L771.948 89.8329 L771.948 27.2059 L779.442 27.2059 L779.442 34.0924 Q781.791 30.0415 785.356 28.0971 Q788.961 26.1121 793.944 26.1121 Q802.208 26.1121 807.352 32.6746 Q812.538 39.2371 812.538 49.9314 Q812.538 60.6258 807.352 67.1883 Q802.208 73.7508 793.944 73.7508 Q788.961 73.7508 785.356 71.8063 Q781.791 69.8214 779.442 65.7705 M804.8 49.9314 Q804.8 41.7081 801.398 37.0496 Q798.035 32.3505 792.121 32.3505 Q786.207 32.3505 782.804 37.0496 Q779.442 41.7081 779.442 49.9314 Q779.442 58.1548 782.804 62.8538 Q786.207 67.5124 792.121 67.5124 Q798.035 67.5124 801.398 62.8538 Q804.8 58.1548 804.8 49.9314 Z" fill="#000000" fill-rule="nonzero" fill-opacity="1" /><path clip-path="url(#clip990)" d="M824.893 9.54393 L832.347 9.54393 L832.347 72.576 L824.893 72.576 L824.893 9.54393 Z" fill="#000000" fill-rule="nonzero" fill-opacity="1" /><path clip-path="url(#clip990)" d="M865.523 32.4315 Q859.528 32.4315 856.044 37.1306 Q852.561 41.7891 852.561 49.9314 Q852.561 58.0738 856.004 62.7728 Q859.488 67.4314 865.523 67.4314 Q871.478 67.4314 874.962 62.7323 Q878.446 58.0333 878.446 49.9314 Q878.446 41.8701 874.962 37.1711 Q871.478 32.4315 865.523 32.4315 M865.523 26.1121 Q875.246 26.1121 880.795 32.4315 Q886.345 38.7509 886.345 49.9314 Q886.345 61.0714 880.795 67.4314 Q875.246 73.7508 865.523 73.7508 Q855.761 73.7508 850.211 67.4314 Q844.702 61.0714 844.702 49.9314 Q844.702 38.7509 850.211 32.4315 Q855.761 26.1121 865.523 26.1121 Z" fill="#000000" fill-rule="nonzero" fill-opacity="1" /><path clip-path="url(#clip990)" d="M906.073 14.324 L906.073 27.2059 L921.426 27.2059 L921.426 32.9987 L906.073 32.9987 L906.073 57.6282 Q906.073 63.1779 907.572 64.7578 Q909.111 66.3376 913.77 66.3376 L921.426 66.3376 L921.426 72.576 L913.77 72.576 Q905.141 72.576 901.86 69.3758 Q898.579 66.1351 898.579 57.6282 L898.579 32.9987 L893.11 32.9987 L893.11 27.2059 L898.579 27.2059 L898.579 14.324 L906.073 14.324 Z" fill="#000000" fill-rule="nonzero" fill-opacity="1" /><path clip-path="url(#clip990)" d="M980.569 9.54393 L980.569 15.7418 L973.439 15.7418 Q969.429 15.7418 967.849 17.3622 Q966.31 18.9825 966.31 23.1955 L966.31 27.2059 L978.584 27.2059 L978.584 32.9987 L966.31 32.9987 L966.31 72.576 L958.816 72.576 L958.816 32.9987 L951.686 32.9987 L951.686 27.2059 L958.816 27.2059 L958.816 24.0462 Q958.816 16.471 962.34 13.0277 Q965.864 9.54393 973.521 9.54393 L980.569 9.54393 Z" fill="#000000" fill-rule="nonzero" fill-opacity="1" /><path clip-path="url(#clip990)" d="M1004.39 32.4315 Q998.393 32.4315 994.909 37.1306 Q991.426 41.7891 991.426 49.9314 Q991.426 58.0738 994.869 62.7728 Q998.353 67.4314 1004.39 67.4314 Q1010.34 67.4314 1013.83 62.7323 Q1017.31 58.0333 1017.31 49.9314 Q1017.31 41.8701 1013.83 37.1711 Q1010.34 32.4315 1004.39 32.4315 M1004.39 26.1121 Q1014.11 26.1121 1019.66 32.4315 Q1025.21 38.7509 1025.21 49.9314 Q1025.21 61.0714 1019.66 67.4314 Q1014.11 73.7508 1004.39 73.7508 Q994.626 73.7508 989.076 67.4314 Q983.567 61.0714 983.567 49.9314 Q983.567 38.7509 989.076 32.4315 Q994.626 26.1121 1004.39 26.1121 Z" fill="#000000" fill-rule="nonzero" fill-opacity="1" /><path clip-path="url(#clip990)" d="M1063.86 34.1734 Q1062.6 33.4443 1061.1 33.1202 Q1059.64 32.7556 1057.86 32.7556 Q1051.54 32.7556 1048.14 36.8875 Q1044.78 40.9789 1044.78 48.6757 L1044.78 72.576 L1037.28 72.576 L1037.28 27.2059 L1044.78 27.2059 L1044.78 34.2544 Q1047.13 30.1225 1050.89 28.1376 Q1054.66 26.1121 1060.05 26.1121 Q1060.82 26.1121 1061.75 26.2337 Q1062.68 26.3147 1063.82 26.5172 L1063.86 34.1734 Z" fill="#000000" fill-rule="nonzero" fill-opacity="1" /><path clip-path="url(#clip990)" d="M1113.76 73.5887 Q1104.41 72.0899 1100.07 68.1605 Q1094.76 63.3399 1094.76 53.4962 L1094.76 27.2059 L1102.3 27.2059 L1102.3 53.2127 Q1102.3 60.6258 1105.74 63.7045 Q1108.74 66.3781 1113.76 66.9452 L1113.76 27.2059 L1121.18 27.2059 L1121.18 66.9047 Q1126.48 66.3376 1129.2 63.664 Q1132.64 60.2613 1132.64 53.1722 L1132.64 27.2059 L1140.17 27.2059 L1140.17 53.4557 Q1140.17 63.664 1134.87 68.12 Q1130.09 72.1304 1121.18 73.5482 L1121.18 89.8329 L1113.76 89.8329 L1113.76 73.5887 Z" fill="#000000" fill-rule="nonzero" fill-opacity="1" /><path clip-path="url(#clip990)" d="M1180.12 34.9026 L1232.05 34.9026 L1232.05 41.7081 L1180.12 41.7081 L1180.12 34.9026 M1180.12 51.4303 L1232.05 51.4303 L1232.05 58.3168 L1180.12 58.3168 L1180.12 51.4303 Z" fill="#000000" fill-rule="nonzero" fill-opacity="1" /><path clip-path="url(#clip990)" d="M1293.58 17.4837 Q1287.26 17.4837 1284.06 23.7221 Q1280.9 29.92 1280.9 42.3968 Q1280.9 54.833 1284.06 61.0714 Q1287.26 67.2693 1293.58 67.2693 Q1299.94 67.2693 1303.1 61.0714 Q1306.3 54.833 1306.3 42.3968 Q1306.3 29.92 1303.1 23.7221 Q1299.94 17.4837 1293.58 17.4837 M1293.58 11.0023 Q1303.75 11.0023 1309.1 19.0636 Q1314.49 27.0843 1314.49 42.3968 Q1314.49 57.6687 1309.1 65.73 Q1303.75 73.7508 1293.58 73.7508 Q1283.41 73.7508 1278.03 65.73 Q1272.68 57.6687 1272.68 42.3968 Q1272.68 27.0843 1278.03 19.0636 Q1283.41 11.0023 1293.58 11.0023 Z" fill="#000000" fill-rule="nonzero" fill-opacity="1" /><path clip-path="url(#clip990)" d="M1328.87 62.2867 L1337.41 62.2867 L1337.41 72.576 L1328.87 72.576 L1328.87 62.2867 Z" fill="#000000" fill-rule="nonzero" fill-opacity="1" /><path clip-path="url(#clip990)" d="M1372.74 17.4837 Q1366.42 17.4837 1363.22 23.7221 Q1360.06 29.92 1360.06 42.3968 Q1360.06 54.833 1363.22 61.0714 Q1366.42 67.2693 1372.74 67.2693 Q1379.1 67.2693 1382.26 61.0714 Q1385.46 54.833 1385.46 42.3968 Q1385.46 29.92 1382.26 23.7221 Q1379.1 17.4837 1372.74 17.4837 M1372.74 11.0023 Q1382.9 11.0023 1388.25 19.0636 Q1393.64 27.0843 1393.64 42.3968 Q1393.64 57.6687 1388.25 65.73 Q1382.9 73.7508 1372.74 73.7508 Q1362.57 73.7508 1357.18 65.73 Q1351.83 57.6687 1351.83 42.3968 Q1351.83 27.0843 1357.18 19.0636 Q1362.57 11.0023 1372.74 11.0023 Z" fill="#000000" fill-rule="nonzero" fill-opacity="1" /><path clip-path="url(#clip990)" d="M1408.87 62.2867 L1417.42 62.2867 L1417.42 69.2543 L1410.78 82.2172 L1405.55 82.2172 L1408.87 69.2543 L1408.87 62.2867 Z" fill="#000000" fill-rule="nonzero" fill-opacity="1" /><path clip-path="url(#clip990)" d="M1460.03 12.096 L1471.05 12.096 L1497.87 62.6918 L1497.87 12.096 L1505.81 12.096 L1505.81 72.576 L1494.79 72.576 L1467.97 21.9802 L1467.97 72.576 L1460.03 72.576 L1460.03 12.096 Z" fill="#000000" fill-rule="nonzero" fill-opacity="1" /><path clip-path="url(#clip990)" d="M1549.11 34.9026 L1601.05 34.9026 L1601.05 41.7081 L1549.11 41.7081 L1549.11 34.9026 M1549.11 51.4303 L1601.05 51.4303 L1601.05 58.3168 L1549.11 58.3168 L1549.11 51.4303 Z" fill="#000000" fill-rule="nonzero" fill-opacity="1" /><path clip-path="url(#clip990)" d="M1646.5 65.6895 L1659.87 65.6895 L1659.87 19.5497 L1645.32 22.4663 L1645.32 15.0127 L1659.78 12.096 L1667.97 12.096 L1667.97 65.6895 L1681.34 65.6895 L1681.34 72.576 L1646.5 72.576 L1646.5 65.6895 Z" fill="#000000" fill-rule="nonzero" fill-opacity="1" /><path clip-path="url(#clip990)" d="M1699.28 65.6895 L1712.65 65.6895 L1712.65 19.5497 L1698.11 22.4663 L1698.11 15.0127 L1712.57 12.096 L1720.75 12.096 L1720.75 65.6895 L1734.12 65.6895 L1734.12 72.576 L1699.28 72.576 L1699.28 65.6895 Z" fill="#000000" fill-rule="nonzero" fill-opacity="1" /><path clip-path="url(#clip990)" d="M1771.63 27.2059 L1779.08 27.2059 L1788.4 62.6108 L1797.68 27.2059 L1806.47 27.2059 L1815.78 62.6108 L1825.06 27.2059 L1832.51 27.2059 L1820.65 72.576 L1811.86 72.576 L1802.09 35.3887 L1792.29 72.576 L1783.5 72.576 L1771.63 27.2059 Z" fill="#000000" fill-rule="nonzero" fill-opacity="1" /><path clip-path="url(#clip990)" d="M1843.82 27.2059 L1851.27 27.2059 L1851.27 72.576 L1843.82 72.576 L1843.82 27.2059 M1843.82 9.54393 L1851.27 9.54393 L1851.27 18.9825 L1843.82 18.9825 L1843.82 9.54393 Z" fill="#000000" fill-rule="nonzero" fill-opacity="1" /><path clip-path="url(#clip990)" d="M1874.24 14.324 L1874.24 27.2059 L1889.59 27.2059 L1889.59 32.9987 L1874.24 32.9987 L1874.24 57.6282 Q1874.24 63.1779 1875.74 64.7578 Q1877.28 66.3376 1881.94 66.3376 L1889.59 66.3376 L1889.59 72.576 L1881.94 72.576 Q1873.31 72.576 1870.03 69.3758 Q1866.74 66.1351 1866.74 57.6282 L1866.74 32.9987 L1861.28 32.9987 L1861.28 27.2059 L1866.74 27.2059 L1866.74 14.324 L1874.24 14.324 Z" fill="#000000" fill-rule="nonzero" fill-opacity="1" /><path clip-path="url(#clip990)" d="M1937.11 45.1919 L1937.11 72.576 L1929.66 72.576 L1929.66 45.4349 Q1929.66 38.994 1927.14 35.7938 Q1924.63 32.5936 1919.61 32.5936 Q1913.57 32.5936 1910.09 36.4419 Q1906.61 40.2903 1906.61 46.9338 L1906.61 72.576 L1899.11 72.576 L1899.11 9.54393 L1906.61 9.54393 L1906.61 34.2544 Q1909.28 30.163 1912.88 28.1376 Q1916.53 26.1121 1921.27 26.1121 Q1929.09 26.1121 1933.1 30.9732 Q1937.11 35.7938 1937.11 45.1919 Z" fill="#000000" fill-rule="nonzero" fill-opacity="1" /><path clip-path="url(#clip990)" d="M2000.59 64.3122 Q2002.05 66.2566 2006.42 66.2566 L2010.03 66.2566 L2010.03 72.576 L2005.53 72.576 Q1998.24 72.576 1994.92 68.6871 Q1991.59 64.7172 1991.59 56.1293 L1991.59 34.6595 L1974.58 34.6595 L1974.58 27.2059 L2016.43 27.2059 L2016.43 34.6595 L1999.21 34.6595 L1999.21 56.5749 Q1999.21 62.4487 2000.59 64.3122 Z" fill="#000000" fill-rule="nonzero" fill-opacity="1" /><path clip-path="url(#clip990)" d="M2062.77 86.3491 L2062.77 92.1419 L2019.67 92.1419 L2019.67 86.3491 L2062.77 86.3491 Z" fill="#000000" fill-rule="nonzero" fill-opacity="1" /><path clip-path="url(#clip990)" d="M2088.33 17.4837 Q2082.01 17.4837 2078.81 23.7221 Q2075.65 29.92 2075.65 42.3968 Q2075.65 54.833 2078.81 61.0714 Q2082.01 67.2693 2088.33 67.2693 Q2094.69 67.2693 2097.85 61.0714 Q2101.05 54.833 2101.05 42.3968 Q2101.05 29.92 2097.85 23.7221 Q2094.69 17.4837 2088.33 17.4837 M2088.33 11.0023 Q2098.5 11.0023 2103.84 19.0636 Q2109.23 27.0843 2109.23 42.3968 Q2109.23 57.6687 2103.84 65.73 Q2098.5 73.7508 2088.33 73.7508 Q2078.16 73.7508 2072.77 65.73 Q2067.43 57.6687 2067.43 42.3968 Q2067.43 27.0843 2072.77 19.0636 Q2078.16 11.0023 2088.33 11.0023 Z" fill="#000000" fill-rule="nonzero" fill-opacity="1" /><path clip-path="url(#clip990)" d="M2149.9 34.9026 L2201.84 34.9026 L2201.84 41.7081 L2149.9 41.7081 L2149.9 34.9026 M2149.9 51.4303 L2201.84 51.4303 L2201.84 58.3168 L2149.9 58.3168 L2149.9 51.4303 Z" fill="#000000" fill-rule="nonzero" fill-opacity="1" /><path clip-path="url(#clip990)" d="M2247.29 65.6895 L2260.65 65.6895 L2260.65 19.5497 L2246.11 22.4663 L2246.11 15.0127 L2260.57 12.096 L2268.76 12.096 L2268.76 65.6895 L2282.12 65.6895 L2282.12 72.576 L2247.29 72.576 L2247.29 65.6895 Z" fill="#000000" fill-rule="nonzero" fill-opacity="1" /><path clip-path="url(#clip990)" d="M2298.65 62.2867 L2307.2 62.2867 L2307.2 72.576 L2298.65 72.576 L2298.65 62.2867 Z" fill="#000000" fill-rule="nonzero" fill-opacity="1" /><path clip-path="url(#clip990)" d="M2325.1 12.096 L2357.23 12.096 L2357.23 18.9825 L2332.6 18.9825 L2332.6 33.8088 Q2334.38 33.2012 2336.16 32.9176 Q2337.95 32.5936 2339.73 32.5936 Q2349.86 32.5936 2355.77 38.1433 Q2361.68 43.6931 2361.68 53.1722 Q2361.68 62.9348 2355.61 68.3631 Q2349.53 73.7508 2338.47 73.7508 Q2334.66 73.7508 2330.69 73.1026 Q2326.77 72.4545 2322.55 71.1582 L2322.55 62.9348 Q2326.2 64.9198 2330.09 65.892 Q2333.98 66.8642 2338.31 66.8642 Q2345.32 66.8642 2349.41 63.1779 Q2353.5 59.4916 2353.5 53.1722 Q2353.5 46.8528 2349.41 43.1664 Q2345.32 39.4801 2338.31 39.4801 Q2335.03 39.4801 2331.75 40.2093 Q2328.51 40.9384 2325.1 42.4778 L2325.1 12.096 Z" fill="#000000" fill-rule="nonzero" fill-opacity="1" /><polyline clip-path="url(#clip992)" style="stroke:#0000ff; stroke-linecap:round; stroke-linejoin:round; stroke-width:8; stroke-opacity:1; fill:none" stroke-dasharray="32, 20" points="615.695,325.496 616.221,326.557 616.905,327.936 617.794,329.729 618.95,332.059 620.453,335.09 622.407,339.029 624.946,344.15 628.25,350.802 632.549,359.435 636.853,368.051 641.163,376.648 645.482,385.218 649.814,393.748 654.16,402.233 658.521,410.67 662.898,419.052 667.299,427.359 671.726,435.576 676.181,443.699 680.662,451.734 685.169,459.674 689.706,467.509 694.271,475.244 698.854,482.907 703.449,490.527 708.054,498.108 712.67,505.644 717.292,513.162 721.902,520.724 726.487,528.379 731.048,536.127 735.596,543.92 740.147,551.702 744.712,559.434 749.291,567.111 753.882,574.749 758.477,582.366 763.076,589.97 767.679,597.557 772.29,605.118 776.909,612.642 781.542,620.116 786.193,627.522 790.865,634.843 795.56,642.068 800.279,649.199 805.018,656.244 809.776,663.208 814.555,670.083 819.362,676.837 824.207,683.414 829.106,689.748 834.066,695.772 839.092,701.452 844.174,706.806 849.299,711.893 854.458,716.758 859.65,721.399 864.877,725.784 870.14,729.897 875.433,733.755 880.754,737.374 886.102,740.724 891.48,743.771 896.881,746.543 902.299,749.098 907.735,751.39 913.203,753.205 918.711,754.21 924.242,754.072 929.749,752.596 935.169,749.716 940.407,745.029 945.236,737.857 949.355,728.2 952.34,715.998 953.868,702.169 954.037,687.976 953.195,674.116 951.663,660.748 949.656,647.84 947.338,635.298 944.818,623.018 942.166,610.922 939.427,598.95 936.632,587.062 933.803,575.224 930.958,563.41 928.114,551.596 925.283,539.762 922.477,527.89 919.705,515.968 916.975,503.986 914.291,491.939 911.654,479.827 909.063,467.653 906.514,455.424 904.003,443.145 901.525,430.825 899.076,418.469 896.653,406.081 894.253,393.664 891.875,381.221 889.521,368.75 887.192,356.249 884.894,343.713 882.632,331.135 880.416,318.507 878.256,305.817 876.167,293.052 874.169,280.195 872.29,267.226 870.573,254.113 869.093,240.813 868.011,227.25 867.782,213.3 868.476,206.327 870.618,200.555 874.016,199.039 876.879,199.924 879.578,201.504 882.232,203.4 884.865,205.443 887.49,207.546 890.113,209.662 893.526,212.388 897.972,215.867 902.426,219.281 906.888,222.629 911.359,225.894 915.836,229.111 920.312,232.341 926.123,236.604 931.907,241.092 937.638,246.005 943.307,251.35 948.91,257.11 954.443,263.282 959.914,269.791 965.337,276.536 970.727,283.44 976.098,290.437 981.464,297.46 986.834,304.461 992.214,311.415 997.605,318.312 1003.01,325.134 1008.44,331.855 1013.89,338.451 1019.37,344.904 1024.88,351.183 1030.43,357.235 1036.03,363.011 1041.68,368.463 1047.4,373.519 1053.17,378.075 1059.02,382.077 1064.92,385.524 1070.87,388.443 1076.83,391.112 1082.78,393.919 1088.7,397.102 1094.57,400.846 1100.39,405.112 1106.15,409.759 1111.88,414.719 1117.56,419.945 1123.22,425.344 1128.87,430.81 1134.52,436.269 1140.17,441.683 1145.84,447.024 1151.52,452.248 1157.23,457.305 1162.97,462.135 1168.75,466.644 1174.59,470.669 1180.51,473.987 1186.51,476.263 1192.62,476.587 1198.7,473.363 1204.28,466.099 1209.55,458.625 1215.47,454.042 1221.71,453.242 1227.8,454.468 1233.8,456.577 1239.78,459.007 1245.76,461.472 1251.75,463.668 1257.79,465.114 1263.86,465.216 1269.93,461.833 1272.58,456.763 1273.88,448.535 1273.74,440.261 1273.04,432.75 1272.02,425.565 1270.81,418.604 1269.47,411.805 1268.04,405.122 1266.54,398.534 1264.99,392.028 1263.39,385.596 1261.75,379.227 1260.08,372.909 1258.38,366.631 1256.67,360.386 1254.94,354.168 1253.2,347.977 1251.44,341.809 1249.67,335.664 1247.89,329.536 1246.1,323.421 1244.31,317.313 1241.98,309.376 1238.96,299.046 1235.05,285.574 1231.19,272.026 1227.39,258.358 1223.72,244.481 1220.28,230.217 1217.36,215.189 1216.41,207.088 1217.29,197.778 1221.38,195.915 1223.12,196.568 1224.75,197.484 1226.35,198.587 1227.94,199.82 1229.52,201.148 1231.08,202.547 1232.64,204 1234.19,205.495 1235.74,207.022 1237.28,208.575 1238.82,210.146 1240.36,211.733 1242.36,213.813 1244.95,216.537 1248.31,220.098 1252.69,224.742 1258.37,230.781 1264.05,236.804 1269.74,242.802 1275.44,248.766 1281.14,254.679 1286.86,260.521 1292.59,266.272 1298.34,271.915 1304.11,277.418 1309.91,282.735 1315.74,287.818 1321.61,292.619 1327.52,297.069 1333.49,301.048 1339.53,304.397 1345.63,306.919 1351.78,308.471 1357.94,309.538 1364.1,310.826 1370.23,312.797 1376.31,315.579 1382.34,318.998 1388.31,322.954 1394.23,327.336 1400.12,331.997 1405.99,336.827 1411.84,341.76 1417.68,346.739 1423.53,351.697 1429.39,356.565 1435.27,361.288 1441.17,365.835 1447.1,370.183 1453.05,374.293 1459.03,378.13 1465.04,381.706 1471.07,385.03 1477.13,388.064 1483.2,390.831 1489.29,393.399 1495.39,395.797 1501.49,398.221 1507.57,400.844 1513.66,403.469 1519.76,405.81 1525.89,407.701 1532.06,408.899 1538.24,409.04 1544.42,407.642 1550.5,404.163 1556.42,399.633 1562.48,396.422 1568.7,395.371 1574.9,395.707 1581.07,396.87 1587.22,398.323 1593.38,399.449 1599.54,400.208 1605.72,400.351 1611.9,399.79 1618.06,398.337 1624.16,395.773 1630.09,390.827 1632.44,384.021 1631.95,372.765 1630.36,365.428 1628.55,359.096 1626.6,353.097 1624.54,347.314 1622.42,341.697 1620.25,336.209 1618.04,330.824 1615.79,325.517 1613.52,320.273 1611.24,315.079 1608.94,309.927 1606.63,304.81 1604.3,299.723 1601.97,294.663 1599.63,289.624 1597.28,284.603 1594.93,279.596 1592.58,274.598 1589.52,268.109 1585.53,259.676 1581.56,251.233 1577.59,242.764 1573.63,234.254 1569.69,225.683 1565.79,217.024 1561.93,208.239 1558.13,199.278 1554.44,190.058 1550.92,180.407 1547.85,169.729 1547.42,162.47 1547.79,161.508 1548.08,161.079 1548.39,160.776 1548.71,160.561 1549.03,160.415 1549.35,160.322 1549.68,160.272 1550.01,160.256 1550.33,160.269 1550.66,160.307 1550.98,160.365 1551.31,160.441 1551.63,160.532 1551.96,160.638 1552.28,160.755 1552.6,160.884 1552.92,161.023 1553.24,161.17 1553.56,161.326 1553.88,161.489 1554.3,161.711 1554.71,161.943 1555.12,162.185 1555.54,162.435 1555.95,162.692 1556.48,163.038 1557.01,163.394 1557.54,163.759 1558.07,164.133 1558.6,164.515 1559.29,165.022 1559.98,165.539 1560.66,166.065 1561.35,166.6 1562.23,167.306 1563.12,168.024 1564,168.75 1565.15,169.708 1566.3,170.676 1567.45,171.655 1568.93,172.941 1570.42,174.238 1572.35,175.939 1574.28,177.653 1576.78,179.898 1579.28,182.158 1582.53,185.114 1585.78,188.088 1589.03,191.076 1593.24,194.977 1598.72,200.068 1604.2,205.171 1609.67,210.282 1615.15,215.4 1620.62,220.519 1626.1,225.632 1631.57,230.73 1637.05,235.807 1642.54,240.857 1648.03,245.88 1653.52,250.874 1659.02,255.838 1664.52,260.769 1670.02,265.665 1675.54,270.522 1681.06,275.335 1686.58,280.099 1692.11,284.806 1697.66,289.449 1703.21,294.022 1708.77,298.521 1714.34,302.943 1719.92,307.283 1725.51,311.538 1731.11,315.707 1736.72,319.792 1742.34,323.802 1747.97,327.735 1753.61,331.583 1759.26,335.327 1764.92,338.951 1770.6,342.433 1776.29,345.733 1782.01,348.772 1787.76,351.431 1793.55,353.508 1799.4,354.435 1805.33,351.244 1808.81,322.103 1855.03,341.349 1860.72,344.862 1866.39,348.375 1872.07,351.893 1877.74,355.399 1883.42,358.873 1889.1,362.3 1894.78,365.68 1900.47,369.007 1906.17,372.269 1911.88,375.45 1917.59,378.548 1923.3,381.576 1929.03,384.534 1934.76,387.417 1940.49,390.223 1946.23,392.972 1951.98,395.678 1957.72,398.348 1963.47,400.996 1969.22,403.645 1974.96,406.291 1980.71,408.903 1986.47,411.446 1992.23,413.904 1998,416.24 2003.78,418.376 2009.58,420.213 2015.4,421.588 2021.26,421.879 2024.19,420.886 2025.59,419.563 2026.54,415.508 2025.14,409.216 2024.12,406.452 2023.07,403.919 2021.97,401.497 2020.85,399.161 2019.7,396.893 2018.54,394.678 2017.36,392.507 2016.18,390.371 2014.98,388.263 2013.78,386.177 2012.58,384.108 2011.37,382.051 2009.8,379.393 2007.75,375.952 2005.08,371.495 2001.6,365.711 1997.09,358.188 1992.58,350.621 1988.11,342.94 1983.69,335.062 1979.35,326.919 1975.11,318.431 1971.07,309.354 1967.37,299.36 1963.75,289.248 1959.85,279.751 1955.75,270.839 1951.52,262.321 1947.22,254.033 1942.89,245.866 1938.55,237.725 1934.23,229.505 1929.99,221.058 1925.91,212.075 1924.05,207.087 1923.03,200.185 1923.27,199.513 1923.42,199.264 1923.57,199.062 1923.72,198.896 1923.88,198.76 1924.05,198.648 1924.21,198.557 1924.38,198.482 1924.55,198.423 1924.72,198.377 1924.89,198.341 1925.06,198.316 1925.22,198.299 1925.39,198.291 1925.56,198.289 1925.78,198.296 1926,198.313 1926.22,198.338 1926.44,198.371 1926.66,198.411 1926.88,198.457 1927.17,198.525 1927.45,198.602 1927.74,198.687 1928.02,198.779 1928.31,198.878 1928.67,199.014 1929.04,199.16 1929.41,199.314 1929.78,199.475 1930.14,199.643 1930.51,199.817 1930.98,200.051 1931.46,200.294 1931.93,200.545 1932.41,200.803 1932.88,201.067 1933.35,201.337 1933.96,201.696 1934.57,202.064 1935.19,202.439 1935.8,202.821 1936.41,203.21 1937.2,203.723 1937.99,204.245 1938.78,204.775 1939.57,205.312 1940.36,205.855 1941.38,206.569 1942.41,207.292 1943.43,208.023 1944.45,208.761 1945.78,209.729 1947.11,210.705 1948.43,211.69 1950.15,212.98 1951.88,214.279 1953.6,215.586 1955.83,217.296 1958.06,219.015 1960.97,221.261 1963.87,223.516 1967.64,226.459 1972.54,230.296 1978.91,235.292 1985.28,240.29 1991.64,245.283 1998.01,250.272 2004.38,255.257 2010.76,260.238 2017.13,265.211 2023.5,270.171 2029.88,275.114 2036.25,280.034 2042.64,284.932 2049.02,289.809 2055.41,294.663 2061.79,299.494 2068.19,304.299 2074.58,309.071 2080.98,313.808 2087.39,318.506 2093.8,323.164 2100.21,327.784 2106.63,332.366 2113.05,336.91 2119.48,341.412 2125.91,345.869 2132.35,350.278 2138.8,354.637 2145.24,358.949 2151.7,363.212 2158.16,367.426 2164.62,371.588 2171.09,375.694 2177.56,379.746 2184.05,383.745 2190.53,387.698 2197.02,391.609 2203.51,395.477 2210.01,399.298 2216.51,403.07 2223.02,406.788 2229.53,410.447 2236.05,414.038 2242.58,417.551 2249.11,420.971 2255.65,424.281 2262.2,427.455 2268.77,430.439 2275.36,433.129 2281.98,435.325 2288.66,436.379 2292.04,434.753 2292.38,433.648 2292.39,432.348 2292.22,431.297 2291.99,430.404 2291.73,429.589 2291.44,428.824 2291.14,428.098 2290.83,427.401 2290.51,426.729 2290.18,426.077 2289.85,425.441 2289.52,424.82 2289.18,424.211 2288.84,423.613 2288.49,423.024 2288.14,422.444 2287.8,421.872 2287.34,421.138 2286.88,420.415 2286.42,419.7 2285.96,418.994 2285.35,418.086 2284.75,417.189 2284.14,416.302 2283.53,415.422 2282.73,414.29 2281.93,413.169 2281.13,412.058 2280.32,410.955 2279.28,409.533 2278.23,408.122 2277.17,406.721 2275.81,404.912 2274.43,403.116 2273.06,401.331 2271.27,399.024 2269.47,396.73 2267.68,394.447 2265.34,391.491 2262.3,387.661 2258.35,382.686 2253.22,376.196 2248.1,369.647 2243,363.007 2237.92,356.243 2232.89,349.28 2227.95,341.906 2223.34,333.124 2198.09,392.251 2187.92,386.112 2182.33,382.693 2176.75,379.239 2171.17,375.745 2165.6,372.211 2160.03,368.636 2154.46,365.021 2148.9,361.368 2143.34,357.68 2137.78,353.955 2132.23,350.195 2126.68,346.399 2121.14,342.566 2115.6,338.7 2110.07,334.801 2104.53,330.873 2099,326.916 2093.48,322.932 2087.95,318.919 2082.44,314.876 2076.92,310.805 2071.41,306.706 2065.9,302.581 2060.39,298.434 2054.89,294.269 2049.38,290.086 2043.88,285.887 2038.38,281.672 2032.89,277.44 2027.39,273.191 2021.9,268.927 2016.41,264.651 2010.92,260.366 2005.43,256.075 1999.94,251.78 1994.45,247.483 1988.96,243.183 1983.48,238.879 1977.99,234.572 1972.5,230.268 1967.01,225.971 1961.52,221.693 1956.03,217.448 1950.53,213.259 1945.01,209.168 1939.48,205.249 1933.91,201.663 1928.26,198.86 1925.37,198.291 1923.91,198.738 1923.23,199.599 1922.93,202.102 1923.26,204.229 1923.66,205.776 1924.09,207.211 1924.56,208.581 1925.05,209.904 1925.55,211.19 1926.07,212.448 1926.59,213.683 1927.12,214.898 1927.65,216.096 1928.2,217.28 1928.74,218.451 1929.29,219.612 1929.84,220.762 1930.57,222.245 1931.29,223.715 1932.24,225.61 1933.2,227.489 1934.45,229.913 1936.07,233.037 1938.2,237.069 1940.34,241.079 1942.47,245.082 1945.25,250.294 1948.84,257.12 1952.4,264.053 1955.9,271.163 1959.32,278.543 1962.6,286.311 1965.69,294.553 1968.66,303.055 1971.82,311.147 1975.21,318.632 1978.73,325.712 1982.32,332.541 1985.97,339.173 1989.67,345.644 1993.4,351.998 1997.14,358.284 2000.9,364.541 2004.65,370.793 2009.53,378.945 2014.38,387.205 2019.13,395.8 2023.64,405.253 2025.63,410.733 2026.38,413.97 2026.1,418.634 2023.38,421.309 2021.88,421.773 2020.41,421.964 2018.95,421.984 2017.48,421.882 2016.01,421.69 2014.55,421.431 2013.09,421.119 2011.63,420.766 2010.17,420.379 2008.72,419.963 2007.26,419.522 2005.81,419.058 2004.35,418.573 2002.9,418.069 2001.45,417.547 1999.57,416.844 1997.68,416.117 1995.8,415.369 1993.36,414.372 1990.91,413.351 1987.74,411.996 1984.56,410.613 1981.39,409.207 1977.27,407.346 1973.15,405.46 1967.8,402.992 1962.45,400.526 1957.09,398.058 1951.74,395.569 1946.39,393.048 1941.05,390.491 1935.7,387.885 1930.37,385.215 1925.03,382.478 1919.71,379.679 1914.39,376.821 1909.07,373.896 1903.76,370.898 1898.46,367.834 1893.16,364.718 1887.86,361.559 1882.57,358.358 1877.28,355.119 1872,351.852 1866.72,348.575 1861.43,345.302 1856.15,342.038 1850.86,338.787 1845.57,335.579 1840.27,332.48 1834.95,329.592 1829.61,326.998 1824.24,324.707 1818.85,322.747 1813.42,321.498 1807.91,322.715 1803.53,353.247 1783.02,349.272 1777.64,346.482 1772.34,343.465 1767.04,340.273 1761.76,336.948 1756.5,333.512 1751.24,329.979 1745.99,326.362 1740.75,322.676 1735.52,318.924 1730.3,315.105 1725.08,311.214 1719.87,307.247 1714.67,303.207 1709.48,299.095 1704.3,294.917 1699.13,290.673 1693.97,286.367 1688.81,282.004 1683.66,277.589 1678.52,273.129 1673.38,268.628 1668.25,264.09 1663.12,259.521 1658,254.92 1652.88,250.293 1647.76,245.639 1642.65,240.961 1637.54,236.258 1632.44,231.533 1627.34,226.787 1622.24,222.028 1617.14,217.261 1612.04,212.493 1606.94,207.729 1601.84,202.972 1596.74,198.222 1591.63,193.487 1586.53,188.774 1581.42,184.094 1576.3,179.462 1571.17,174.896 1566.02,170.442 1560.85,166.211 1555.61,162.481 1550.2,160.261 1548.81,160.509 1547.49,162.218 1547.2,164.505 1547.31,166.376 1547.53,168.017 1547.82,169.568 1548.15,171.06 1548.51,172.508 1548.89,173.919 1549.29,175.301 1549.7,176.659 1550.12,177.997 1550.55,179.316 1550.99,180.62 1551.43,181.91 1551.88,183.187 1552.34,184.454 1552.8,185.71 1553.26,186.958 1553.73,188.197 1554.34,189.796 1554.95,191.384 1555.57,192.961 1556.2,194.528 1557.02,196.552 1557.84,198.562 1558.67,200.559 1559.5,202.545 1560.59,205.111 1561.68,207.661 1562.78,210.196 1564.21,213.472 1565.66,216.728 1567.54,220.936 1570.01,226.369 1572.48,231.769 1574.97,237.142 1577.46,242.493 1579.96,247.828 1582.46,253.151 1585.72,260.058 1588.97,266.959 1593.21,275.933 1597.44,284.93 1601.65,293.971 1605.84,303.081 1610,312.285 1614.11,321.613 1618.16,331.114 1622.11,340.88 1625.89,351.057 1629.38,361.886 1632.16,374.124 1632.63,381.438 1631.06,389.107 1628.11,393.127 1625.38,395.112 1622.65,396.487 1619.92,397.639 1617.17,398.634 1614.41,399.363 1611.64,399.825 1608.86,400.13 1606.09,400.334 1603.31,400.398 1600.54,400.286 1597.76,400.028 1594.99,399.681 1592.22,399.27 1589.45,398.784 1586.69,398.206 1583.92,397.557 1581.16,396.893 1577.57,396.127 1573.96,395.597 1570.36,395.365 1566.75,395.497 1563.14,396.207 1559.57,397.706 1556.06,399.885 1552.6,402.539 1549.15,405.112 1545.62,407.123 1542.04,408.419 1538.43,409.024 1534.82,409.111 1531.21,408.79 1527.61,408.121 1524.02,407.181 1520.44,406.043 1516.87,404.749 1513.3,403.322 1509.75,401.799 1506.19,400.237 1501.57,398.255 1496.94,396.398 1492.31,394.6 1487.68,392.737 1483.05,390.766 1478.44,388.682 1473.83,386.452 1469.24,384.051 1464.66,381.489 1460.1,378.784 1455.55,375.932 1451.02,372.921 1446.5,369.756 1442,366.455 1437.51,363.038 1433.04,359.516 1428.58,355.897 1424.13,352.197 1419.68,348.44 1415.24,344.657 1409.47,339.753 1403.69,334.916 1397.89,330.202 1392.06,325.687 1386.2,321.496 1380.28,317.766 1374.32,314.587 1368.3,312.082 1362.23,310.382 1356.15,309.228 1350.07,308.124 1344,306.345 1337.99,303.619 1332.05,300.141 1326.17,296.088 1320.34,291.608 1314.55,286.804 1308.8,281.735 1303.08,276.447 1297.38,270.986 1291.71,265.395 1286.05,259.702 1280.41,253.923 1274.78,248.077 1269.16,242.183 1263.54,236.258 1257.92,230.309 1252.31,224.345 1246.7,218.387 1241.08,212.477 1235.43,206.715 1229.73,201.329 1223.87,196.96 1217.44,197.474 1214.63,454.421 1202.54,468.852 1196.91,474.747 1190.64,476.797 1184.43,475.631 1178.4,472.906 1172.47,469.277 1166.61,465.02 1160.8,460.343 1155.03,455.384 1149.3,450.221 1143.58,444.909 1137.88,439.497 1132.19,434.024 1126.5,428.519 1120.81,423.033 1115.11,417.658 1109.37,412.504 1103.59,407.646 1097.76,403.127 1091.88,399.053 1085.94,395.556 1079.96,392.556 1073.96,389.833 1067.97,387.078 1062,383.892 1056.09,380.144 1050.23,375.832 1044.45,370.974 1038.73,365.664 1033.07,359.997 1027.46,354.027 1021.89,347.803 1016.36,341.38 1010.86,334.8 1005.38,328.086 999.93,321.258 994.495,314.343 989.074,307.364 983.663,300.333 978.26,293.266 972.856,286.203 967.438,279.207 961.992,272.346 956.505,265.693 950.96,259.342 945.344,253.387 939.659,247.857 933.911,242.751 928.101,238.097 922.255,233.755 916.398,229.515 910.539,225.3 904.69,220.991 898.857,216.551 893.037,212.001 887.232,207.339 881.412,202.791 875.455,199.342 868.619,205.592 867.778,222.055 868.174,229.871 868.769,237.371 869.501,244.783 870.333,252.125 871.241,259.409 872.209,266.643 873.228,273.833 874.288,280.984 875.384,288.102 876.854,297.311 878.366,306.477 879.915,315.604 881.495,324.698 883.1,333.763 884.729,342.803 886.376,351.821 888.04,360.82 889.719,369.802 891.41,378.769 893.114,387.721 894.829,396.66 896.556,405.584 898.295,414.494 900.047,423.388 901.812,432.265 903.593,441.123 905.391,449.96 907.207,458.773 909.043,467.56 910.901,476.318 912.782,485.045 914.688,493.739 916.618,502.399 918.572,511.025 920.549,519.62 922.546,528.184 924.561,536.722 926.59,545.239 928.629,553.741 930.674,562.234 933.334,573.274 936.772,587.654 940.159,602.111 943.451,616.706 946.585,631.522 949.455,646.68 951.878,662.35 953.566,678.684 954.096,695.649 952.851,712.7 949.373,728.145 944.073,739.907 937.855,747.619 931.239,751.955 924.532,754.029 917.788,754.114 911.088,752.581 904.455,750.048 897.864,747.023 891.3,743.675 884.771,739.919 878.284,735.727 871.838,731.163 865.435,726.234 859.083,720.906 852.783,715.206 846.532,709.181 840.338,702.798 834.221,695.953 828.198,688.602 822.265,680.811 816.403,672.702 810.588,664.385 804.805,655.929 799.051,647.355 793.328,638.649 787.639,629.802 781.984,620.824 776.355,611.743 770.745,602.59 765.148,593.388 759.558,584.155 753.974,574.903 748.399,565.62 742.84,556.273 737.303,546.845 731.777,537.375 726.237,527.958 720.661,518.677 715.052,509.518 709.439,500.376 703.841,491.176 698.259,481.916 692.695,472.589 687.164,463.139 681.676,453.533 676.228,443.784 670.818,433.903 665.449,423.885 660.118,413.741 654.815,403.505 649.534,393.199 644.274,382.826 639.031,372.399 633.798,361.94 628.574,351.454 623.357,340.946 618.143,330.431 612.928,319.916 607.716,309.391 602.506,298.863 597.291,288.347 592.073,277.844 586.852,267.349 581.624,256.874 576.39,246.419 571.144,236.003 565.879,225.645 560.599,215.335 555.296,205.1 549.937,195.047 544.457,185.399 538.72,176.682 532.576,169.709 525.956,165.659 518.97,166.594 512.536,179.351 509.385,196.384 507.583,212.762 506.313,229.267 505.355,245.87 504.603,262.529 503.998,279.221 503.501,295.934 503.084,312.66 502.728,329.394 502.417,346.133 502.14,362.875 501.888,379.62 501.658,396.367 501.448,413.116 501.264,429.867 501.112,446.619 501.002,463.374 500.943,480.131 500.94,496.888 500.994,513.645 501.101,530.4 501.249,547.153 501.419,563.905 501.585,580.656 501.717,597.41 501.779,614.167 501.733,630.926 501.541,647.68 501.165,664.416 500.568,681.116 499.72,697.75 498.599,714.284 497.189,730.682 495.48,746.903 493.467,762.904 491.148,778.645 488.535,794.095 485.651,809.236 482.515,824.059 479.131,838.538 475.509,852.65 471.679,866.411 467.662,879.831 463.445,892.864 459.021,905.463 454.401,917.614 449.582,929.272 444.542,940.336 439.273,950.719 433.777,960.343 428.038,969.049 422.043,976.631 415.801,982.879 409.327,987.505 402.67,990.209 395.927,990.86 389.203,989.463 382.592,986.177 376.149,981.325 369.89,975.212 363.811,968.092 357.889,960.219 352.096,951.787 346.41,942.917 340.806,933.734 335.257,924.348 329.755,914.79 324.298,905.074 318.874,895.242 313.506,885.219 308.241,874.852 303.096,864.114 298.15,852.789 293.653,840.263 289.783,826.437 286.418,811.875 283.298,797.032 280.231,782.135 "/>
<polyline clip-path="url(#clip992)" style="stroke:#e26f46; stroke-linecap:round; stroke-linejoin:round; stroke-width:4; stroke-opacity:1; fill:none" points="615.695,325.496 1141.87,1386.4 "/>
<polyline clip-path="url(#clip992)" style="stroke:#e26f46; stroke-linecap:round; stroke-linejoin:round; stroke-width:4; stroke-opacity:1; fill:none" points="1142,1346.15 1141.87,1386.4 1109.75,1362.14 "/>
<polyline clip-path="url(#clip992)" style="stroke:#e26f46; stroke-linecap:round; stroke-linejoin:round; stroke-width:4; stroke-opacity:1; fill:none" points="1141.87,1386.4 615.695,325.496 "/>
<path clip-path="url(#clip990)" d="M2015.94 1379.86 L2281.66 1379.86 L2281.66 1276.18 L2015.94 1276.18  Z" fill="#ffffff" fill-rule="evenodd" fill-opacity="1"/>
<polyline clip-path="url(#clip990)" style="stroke:#000000; stroke-linecap:round; stroke-linejoin:round; stroke-width:4; stroke-opacity:1; fill:none" points="2015.94,1379.86 2281.66,1379.86 2281.66,1276.18 2015.94,1276.18 2015.94,1379.86 "/>
<polyline clip-path="url(#clip990)" style="stroke:#0000ff; stroke-linecap:round; stroke-linejoin:round; stroke-width:8; stroke-opacity:1; fill:none" stroke-dasharray="32, 20" points="2039.64,1328.02 2181.83,1328.02 "/>
<path clip-path="url(#clip990)" d="M2219.37 1347.7 Q2217.57 1352.33 2215.85 1353.75 Q2214.14 1355.16 2211.27 1355.16 L2207.87 1355.16 L2207.87 1351.59 L2210.37 1351.59 Q2212.13 1351.59 2213.1 1350.76 Q2214.07 1349.93 2215.25 1346.82 L2216.02 1344.88 L2205.53 1319.37 L2210.04 1319.37 L2218.15 1339.65 L2226.25 1319.37 L2230.76 1319.37 L2219.37 1347.7 Z" fill="#000000" fill-rule="nonzero" fill-opacity="1" /><path clip-path="url(#clip990)" d="M2238.05 1341.36 L2245.69 1341.36 L2245.69 1315 L2237.38 1316.66 L2237.38 1312.4 L2245.65 1310.74 L2250.32 1310.74 L2250.32 1341.36 L2257.96 1341.36 L2257.96 1345.3 L2238.05 1345.3 L2238.05 1341.36 Z" fill="#000000" fill-rule="nonzero" fill-opacity="1" /></svg>
