<?xml version="1.0" encoding="utf-8"?>
<svg xmlns="http://www.w3.org/2000/svg" xmlns:xlink="http://www.w3.org/1999/xlink" width="600" height="400" viewBox="0 0 2400 1600">
<defs>
  <clipPath id="clip500">
    <rect x="0" y="0" width="2400" height="1600"/>
  </clipPath>
</defs>
<path clip-path="url(#clip500)" d="M0 1600 L2400 1600 L2400 0 L0 0  Z" fill="#ffffff" fill-rule="evenodd" fill-opacity="1"/>
<defs>
  <clipPath id="clip501">
    <rect x="219" y="47" width="2134" height="1377"/>
  </clipPath>
</defs>
<path clip-path="url(#clip500)" d="M219.519 1423.18 L2352.76 1423.18 L2352.76 123.472 L219.519 123.472  Z" fill="#ffffff" fill-rule="evenodd" fill-opacity="1"/>
<defs>
  <clipPath id="clip502">
    <rect x="219" y="123" width="2134" height="1301"/>
  </clipPath>
</defs>
<polyline clip-path="url(#clip502)" style="stroke:#000000; stroke-linecap:round; stroke-linejoin:round; stroke-width:2; stroke-opacity:0.1; fill:none" points="238.803,1423.18 238.803,123.472 "/>
<polyline clip-path="url(#clip502)" style="stroke:#000000; stroke-linecap:round; stroke-linejoin:round; stroke-width:2; stroke-opacity:0.1; fill:none" points="752.433,1423.18 752.433,123.472 "/>
<polyline clip-path="url(#clip502)" style="stroke:#000000; stroke-linecap:round; stroke-linejoin:round; stroke-width:2; stroke-opacity:0.1; fill:none" points="1266.06,1423.18 1266.06,123.472 "/>
<polyline clip-path="url(#clip502)" style="stroke:#000000; stroke-linecap:round; stroke-linejoin:round; stroke-width:2; stroke-opacity:0.1; fill:none" points="1779.69,1423.18 1779.69,123.472 "/>
<polyline clip-path="url(#clip502)" style="stroke:#000000; stroke-linecap:round; stroke-linejoin:round; stroke-width:2; stroke-opacity:0.1; fill:none" points="2293.32,1423.18 2293.32,123.472 "/>
<polyline clip-path="url(#clip502)" style="stroke:#000000; stroke-linecap:round; stroke-linejoin:round; stroke-width:2; stroke-opacity:0.1; fill:none" points="219.519,1290.85 2352.76,1290.85 "/>
<polyline clip-path="url(#clip502)" style="stroke:#000000; stroke-linecap:round; stroke-linejoin:round; stroke-width:2; stroke-opacity:0.1; fill:none" points="219.519,1068.45 2352.76,1068.45 "/>
<polyline clip-path="url(#clip502)" style="stroke:#000000; stroke-linecap:round; stroke-linejoin:round; stroke-width:2; stroke-opacity:0.1; fill:none" points="219.519,846.056 2352.76,846.056 "/>
<polyline clip-path="url(#clip502)" style="stroke:#000000; stroke-linecap:round; stroke-linejoin:round; stroke-width:2; stroke-opacity:0.1; fill:none" points="219.519,623.66 2352.76,623.66 "/>
<polyline clip-path="url(#clip502)" style="stroke:#000000; stroke-linecap:round; stroke-linejoin:round; stroke-width:2; stroke-opacity:0.1; fill:none" points="219.519,401.264 2352.76,401.264 "/>
<polyline clip-path="url(#clip502)" style="stroke:#000000; stroke-linecap:round; stroke-linejoin:round; stroke-width:2; stroke-opacity:0.1; fill:none" points="219.519,178.869 2352.76,178.869 "/>
<polyline clip-path="url(#clip500)" style="stroke:#000000; stroke-linecap:round; stroke-linejoin:round; stroke-width:4; stroke-opacity:1; fill:none" points="219.519,1423.18 2352.76,1423.18 "/>
<polyline clip-path="url(#clip500)" style="stroke:#000000; stroke-linecap:round; stroke-linejoin:round; stroke-width:4; stroke-opacity:1; fill:none" points="238.803,1423.18 238.803,1404.28 "/>
<polyline clip-path="url(#clip500)" style="stroke:#000000; stroke-linecap:round; stroke-linejoin:round; stroke-width:4; stroke-opacity:1; fill:none" points="752.433,1423.18 752.433,1404.28 "/>
<polyline clip-path="url(#clip500)" style="stroke:#000000; stroke-linecap:round; stroke-linejoin:round; stroke-width:4; stroke-opacity:1; fill:none" points="1266.06,1423.18 1266.06,1404.28 "/>
<polyline clip-path="url(#clip500)" style="stroke:#000000; stroke-linecap:round; stroke-linejoin:round; stroke-width:4; stroke-opacity:1; fill:none" points="1779.69,1423.18 1779.69,1404.28 "/>
<polyline clip-path="url(#clip500)" style="stroke:#000000; stroke-linecap:round; stroke-linejoin:round; stroke-width:4; stroke-opacity:1; fill:none" points="2293.32,1423.18 2293.32,1404.28 "/>
<path clip-path="url(#clip500)" d="M216.188 1454.1 Q212.577 1454.1 210.748 1457.66 Q208.942 1461.2 208.942 1468.33 Q208.942 1475.44 210.748 1479.01 Q212.577 1482.55 216.188 1482.55 Q219.822 1482.55 221.627 1479.01 Q223.456 1475.44 223.456 1468.33 Q223.456 1461.2 221.627 1457.66 Q219.822 1454.1 216.188 1454.1 M216.188 1450.39 Q221.998 1450.39 225.053 1455 Q228.132 1459.58 228.132 1468.33 Q228.132 1477.06 225.053 1481.67 Q221.998 1486.25 216.188 1486.25 Q210.377 1486.25 207.299 1481.67 Q204.243 1477.06 204.243 1468.33 Q204.243 1459.58 207.299 1455 Q210.377 1450.39 216.188 1450.39 Z" fill="#000000" fill-rule="nonzero" fill-opacity="1" /><path clip-path="url(#clip500)" d="M236.35 1479.7 L241.234 1479.7 L241.234 1485.58 L236.35 1485.58 L236.35 1479.7 Z" fill="#000000" fill-rule="nonzero" fill-opacity="1" /><path clip-path="url(#clip500)" d="M261.419 1454.1 Q257.808 1454.1 255.979 1457.66 Q254.174 1461.2 254.174 1468.33 Q254.174 1475.44 255.979 1479.01 Q257.808 1482.55 261.419 1482.55 Q265.053 1482.55 266.859 1479.01 Q268.687 1475.44 268.687 1468.33 Q268.687 1461.2 266.859 1457.66 Q265.053 1454.1 261.419 1454.1 M261.419 1450.39 Q267.229 1450.39 270.285 1455 Q273.363 1459.58 273.363 1468.33 Q273.363 1477.06 270.285 1481.67 Q267.229 1486.25 261.419 1486.25 Q255.609 1486.25 252.53 1481.67 Q249.474 1477.06 249.474 1468.33 Q249.474 1459.58 252.53 1455 Q255.609 1450.39 261.419 1450.39 Z" fill="#000000" fill-rule="nonzero" fill-opacity="1" /><path clip-path="url(#clip500)" d="M724.17 1481.64 L740.489 1481.64 L740.489 1485.58 L718.545 1485.58 L718.545 1481.64 Q721.207 1478.89 725.79 1474.26 Q730.397 1469.61 731.577 1468.27 Q733.822 1465.74 734.702 1464.01 Q735.605 1462.25 735.605 1460.56 Q735.605 1457.8 733.66 1456.07 Q731.739 1454.33 728.637 1454.33 Q726.438 1454.33 723.985 1455.09 Q721.554 1455.86 718.776 1457.41 L718.776 1452.69 Q721.6 1451.55 724.054 1450.97 Q726.508 1450.39 728.545 1450.39 Q733.915 1450.39 737.109 1453.08 Q740.304 1455.77 740.304 1460.26 Q740.304 1462.39 739.494 1464.31 Q738.707 1466.2 736.6 1468.8 Q736.022 1469.47 732.92 1472.69 Q729.818 1475.88 724.17 1481.64 Z" fill="#000000" fill-rule="nonzero" fill-opacity="1" /><path clip-path="url(#clip500)" d="M750.304 1479.7 L755.188 1479.7 L755.188 1485.58 L750.304 1485.58 L750.304 1479.7 Z" fill="#000000" fill-rule="nonzero" fill-opacity="1" /><path clip-path="url(#clip500)" d="M765.42 1451.02 L783.776 1451.02 L783.776 1454.96 L769.702 1454.96 L769.702 1463.43 Q770.72 1463.08 771.739 1462.92 Q772.757 1462.73 773.776 1462.73 Q779.563 1462.73 782.943 1465.9 Q786.322 1469.08 786.322 1474.49 Q786.322 1480.07 782.85 1483.17 Q779.378 1486.25 773.058 1486.25 Q770.882 1486.25 768.614 1485.88 Q766.369 1485.51 763.961 1484.77 L763.961 1480.07 Q766.045 1481.2 768.267 1481.76 Q770.489 1482.32 772.966 1482.32 Q776.97 1482.32 779.308 1480.21 Q781.646 1478.1 781.646 1474.49 Q781.646 1470.88 779.308 1468.77 Q776.97 1466.67 772.966 1466.67 Q771.091 1466.67 769.216 1467.08 Q767.364 1467.5 765.42 1468.38 L765.42 1451.02 Z" fill="#000000" fill-rule="nonzero" fill-opacity="1" /><path clip-path="url(#clip500)" d="M1233.23 1451.02 L1251.58 1451.02 L1251.58 1454.96 L1237.51 1454.96 L1237.51 1463.43 Q1238.53 1463.08 1239.55 1462.92 Q1240.57 1462.73 1241.58 1462.73 Q1247.37 1462.73 1250.75 1465.9 Q1254.13 1469.08 1254.13 1474.49 Q1254.13 1480.07 1250.66 1483.17 Q1247.19 1486.25 1240.87 1486.25 Q1238.69 1486.25 1236.42 1485.88 Q1234.18 1485.51 1231.77 1484.77 L1231.77 1480.07 Q1233.85 1481.2 1236.08 1481.76 Q1238.3 1482.32 1240.77 1482.32 Q1244.78 1482.32 1247.12 1480.21 Q1249.46 1478.1 1249.46 1474.49 Q1249.46 1470.88 1247.12 1468.77 Q1244.78 1466.67 1240.77 1466.67 Q1238.9 1466.67 1237.02 1467.08 Q1235.17 1467.5 1233.23 1468.38 L1233.23 1451.02 Z" fill="#000000" fill-rule="nonzero" fill-opacity="1" /><path clip-path="url(#clip500)" d="M1263.34 1479.7 L1268.23 1479.7 L1268.23 1485.58 L1263.34 1485.58 L1263.34 1479.7 Z" fill="#000000" fill-rule="nonzero" fill-opacity="1" /><path clip-path="url(#clip500)" d="M1288.41 1454.1 Q1284.8 1454.1 1282.97 1457.66 Q1281.17 1461.2 1281.17 1468.33 Q1281.17 1475.44 1282.97 1479.01 Q1284.8 1482.55 1288.41 1482.55 Q1292.05 1482.55 1293.85 1479.01 Q1295.68 1475.44 1295.68 1468.33 Q1295.68 1461.2 1293.85 1457.66 Q1292.05 1454.1 1288.41 1454.1 M1288.41 1450.39 Q1294.22 1450.39 1297.28 1455 Q1300.36 1459.58 1300.36 1468.33 Q1300.36 1477.06 1297.28 1481.67 Q1294.22 1486.25 1288.41 1486.25 Q1282.6 1486.25 1279.52 1481.67 Q1276.47 1477.06 1276.47 1468.33 Q1276.47 1459.58 1279.52 1455 Q1282.6 1450.39 1288.41 1450.39 Z" fill="#000000" fill-rule="nonzero" fill-opacity="1" /><path clip-path="url(#clip500)" d="M1746.01 1451.02 L1768.24 1451.02 L1768.24 1453.01 L1755.69 1485.58 L1750.81 1485.58 L1762.61 1454.96 L1746.01 1454.96 L1746.01 1451.02 Z" fill="#000000" fill-rule="nonzero" fill-opacity="1" /><path clip-path="url(#clip500)" d="M1777.36 1479.7 L1782.24 1479.7 L1782.24 1485.58 L1777.36 1485.58 L1777.36 1479.7 Z" fill="#000000" fill-rule="nonzero" fill-opacity="1" /><path clip-path="url(#clip500)" d="M1792.47 1451.02 L1810.83 1451.02 L1810.83 1454.96 L1796.75 1454.96 L1796.75 1463.43 Q1797.77 1463.08 1798.79 1462.92 Q1799.81 1462.73 1800.83 1462.73 Q1806.62 1462.73 1809.99 1465.9 Q1813.37 1469.08 1813.37 1474.49 Q1813.37 1480.07 1809.9 1483.17 Q1806.43 1486.25 1800.11 1486.25 Q1797.93 1486.25 1795.67 1485.88 Q1793.42 1485.51 1791.01 1484.77 L1791.01 1480.07 Q1793.1 1481.2 1795.32 1481.76 Q1797.54 1482.32 1800.02 1482.32 Q1804.02 1482.32 1806.36 1480.21 Q1808.7 1478.1 1808.7 1474.49 Q1808.7 1470.88 1806.36 1468.77 Q1804.02 1466.67 1800.02 1466.67 Q1798.14 1466.67 1796.27 1467.08 Q1794.42 1467.5 1792.47 1468.38 L1792.47 1451.02 Z" fill="#000000" fill-rule="nonzero" fill-opacity="1" /><path clip-path="url(#clip500)" d="M2245.4 1481.64 L2253.04 1481.64 L2253.04 1455.28 L2244.72 1456.95 L2244.72 1452.69 L2252.99 1451.02 L2257.66 1451.02 L2257.66 1481.64 L2265.3 1481.64 L2265.3 1485.58 L2245.4 1485.58 L2245.4 1481.64 Z" fill="#000000" fill-rule="nonzero" fill-opacity="1" /><path clip-path="url(#clip500)" d="M2284.75 1454.1 Q2281.14 1454.1 2279.31 1457.66 Q2277.5 1461.2 2277.5 1468.33 Q2277.5 1475.44 2279.31 1479.01 Q2281.14 1482.55 2284.75 1482.55 Q2288.38 1482.55 2290.19 1479.01 Q2292.02 1475.44 2292.02 1468.33 Q2292.02 1461.2 2290.19 1457.66 Q2288.38 1454.1 2284.75 1454.1 M2284.75 1450.39 Q2290.56 1450.39 2293.61 1455 Q2296.69 1459.58 2296.69 1468.33 Q2296.69 1477.06 2293.61 1481.67 Q2290.56 1486.25 2284.75 1486.25 Q2278.94 1486.25 2275.86 1481.67 Q2272.8 1477.06 2272.8 1468.33 Q2272.8 1459.58 2275.86 1455 Q2278.94 1450.39 2284.75 1450.39 Z" fill="#000000" fill-rule="nonzero" fill-opacity="1" /><path clip-path="url(#clip500)" d="M2304.91 1479.7 L2309.79 1479.7 L2309.79 1485.58 L2304.91 1485.58 L2304.91 1479.7 Z" fill="#000000" fill-rule="nonzero" fill-opacity="1" /><path clip-path="url(#clip500)" d="M2329.98 1454.1 Q2326.37 1454.1 2324.54 1457.66 Q2322.73 1461.2 2322.73 1468.33 Q2322.73 1475.44 2324.54 1479.01 Q2326.37 1482.55 2329.98 1482.55 Q2333.61 1482.55 2335.42 1479.01 Q2337.25 1475.44 2337.25 1468.33 Q2337.25 1461.2 2335.42 1457.66 Q2333.61 1454.1 2329.98 1454.1 M2329.98 1450.39 Q2335.79 1450.39 2338.84 1455 Q2341.92 1459.58 2341.92 1468.33 Q2341.92 1477.06 2338.84 1481.67 Q2335.79 1486.25 2329.98 1486.25 Q2324.17 1486.25 2321.09 1481.67 Q2318.03 1477.06 2318.03 1468.33 Q2318.03 1459.58 2321.09 1455 Q2324.17 1450.39 2329.98 1450.39 Z" fill="#000000" fill-rule="nonzero" fill-opacity="1" /><path clip-path="url(#clip500)" d="M1254.52 1561.55 Q1255.66 1563.08 1259.1 1563.08 L1261.93 1563.08 L1261.93 1568.04 L1258.4 1568.04 Q1252.67 1568.04 1250.06 1564.99 Q1247.45 1561.87 1247.45 1555.12 L1247.45 1538.25 L1234.08 1538.25 L1234.08 1532.4 L1266.96 1532.4 L1266.96 1538.25 L1253.43 1538.25 L1253.43 1555.47 Q1253.43 1560.09 1254.52 1561.55 Z" fill="#000000" fill-rule="nonzero" fill-opacity="1" /><path clip-path="url(#clip500)" d="M1303.37 1578.87 L1303.37 1583.42 L1269.51 1583.42 L1269.51 1578.87 L1303.37 1578.87 Z" fill="#000000" fill-rule="nonzero" fill-opacity="1" /><path clip-path="url(#clip500)" d="M1310.82 1562.63 L1321.32 1562.63 L1321.32 1526.38 L1309.9 1528.67 L1309.9 1522.82 L1321.26 1520.52 L1327.69 1520.52 L1327.69 1562.63 L1338.19 1562.63 L1338.19 1568.04 L1310.82 1568.04 L1310.82 1562.63 Z" fill="#000000" fill-rule="nonzero" fill-opacity="1" /><polyline clip-path="url(#clip500)" style="stroke:#000000; stroke-linecap:round; stroke-linejoin:round; stroke-width:4; stroke-opacity:1; fill:none" points="219.519,1423.18 219.519,123.472 "/>
<polyline clip-path="url(#clip500)" style="stroke:#000000; stroke-linecap:round; stroke-linejoin:round; stroke-width:4; stroke-opacity:1; fill:none" points="219.519,1290.85 238.417,1290.85 "/>
<polyline clip-path="url(#clip500)" style="stroke:#000000; stroke-linecap:round; stroke-linejoin:round; stroke-width:4; stroke-opacity:1; fill:none" points="219.519,1068.45 238.417,1068.45 "/>
<polyline clip-path="url(#clip500)" style="stroke:#000000; stroke-linecap:round; stroke-linejoin:round; stroke-width:4; stroke-opacity:1; fill:none" points="219.519,846.056 238.417,846.056 "/>
<polyline clip-path="url(#clip500)" style="stroke:#000000; stroke-linecap:round; stroke-linejoin:round; stroke-width:4; stroke-opacity:1; fill:none" points="219.519,623.66 238.417,623.66 "/>
<polyline clip-path="url(#clip500)" style="stroke:#000000; stroke-linecap:round; stroke-linejoin:round; stroke-width:4; stroke-opacity:1; fill:none" points="219.519,401.264 238.417,401.264 "/>
<polyline clip-path="url(#clip500)" style="stroke:#000000; stroke-linecap:round; stroke-linejoin:round; stroke-width:4; stroke-opacity:1; fill:none" points="219.519,178.869 238.417,178.869 "/>
<path clip-path="url(#clip500)" d="M120.371 1304.19 L136.691 1304.19 L136.691 1308.13 L114.746 1308.13 L114.746 1304.19 Q117.408 1301.44 121.992 1296.81 Q126.598 1292.16 127.779 1290.81 Q130.024 1288.29 130.904 1286.55 Q131.806 1284.79 131.806 1283.1 Q131.806 1280.35 129.862 1278.61 Q127.941 1276.88 124.839 1276.88 Q122.64 1276.88 120.186 1277.64 Q117.756 1278.41 114.978 1279.96 L114.978 1275.23 Q117.802 1274.1 120.255 1273.52 Q122.709 1272.94 124.746 1272.94 Q130.117 1272.94 133.311 1275.63 Q136.505 1278.31 136.505 1282.8 Q136.505 1284.93 135.695 1286.85 Q134.908 1288.75 132.802 1291.35 Q132.223 1292.02 129.121 1295.23 Q126.019 1298.43 120.371 1304.19 Z" fill="#000000" fill-rule="nonzero" fill-opacity="1" /><path clip-path="url(#clip500)" d="M146.505 1302.25 L151.39 1302.25 L151.39 1308.13 L146.505 1308.13 L146.505 1302.25 Z" fill="#000000" fill-rule="nonzero" fill-opacity="1" /><path clip-path="url(#clip500)" d="M171.575 1276.65 Q167.964 1276.65 166.135 1280.21 Q164.329 1283.75 164.329 1290.88 Q164.329 1297.99 166.135 1301.55 Q167.964 1305.1 171.575 1305.1 Q175.209 1305.1 177.014 1301.55 Q178.843 1297.99 178.843 1290.88 Q178.843 1283.75 177.014 1280.21 Q175.209 1276.65 171.575 1276.65 M171.575 1272.94 Q177.385 1272.94 180.44 1277.55 Q183.519 1282.13 183.519 1290.88 Q183.519 1299.61 180.44 1304.22 Q177.385 1308.8 171.575 1308.8 Q165.765 1308.8 162.686 1304.22 Q159.63 1299.61 159.63 1290.88 Q159.63 1282.13 162.686 1277.55 Q165.765 1272.94 171.575 1272.94 Z" fill="#000000" fill-rule="nonzero" fill-opacity="1" /><path clip-path="url(#clip500)" d="M121.598 1081.8 L137.917 1081.8 L137.917 1085.73 L115.973 1085.73 L115.973 1081.8 Q118.635 1079.04 123.218 1074.41 Q127.825 1069.76 129.005 1068.42 Q131.251 1065.89 132.13 1064.16 Q133.033 1062.4 133.033 1060.71 Q133.033 1057.95 131.089 1056.22 Q129.167 1054.48 126.066 1054.48 Q123.867 1054.48 121.413 1055.25 Q118.982 1056.01 116.205 1057.56 L116.205 1052.84 Q119.029 1051.7 121.482 1051.13 Q123.936 1050.55 125.973 1050.55 Q131.343 1050.55 134.538 1053.23 Q137.732 1055.92 137.732 1060.41 Q137.732 1062.54 136.922 1064.46 Q136.135 1066.36 134.029 1068.95 Q133.45 1069.62 130.348 1072.84 Q127.246 1076.03 121.598 1081.8 Z" fill="#000000" fill-rule="nonzero" fill-opacity="1" /><path clip-path="url(#clip500)" d="M147.732 1079.85 L152.616 1079.85 L152.616 1085.73 L147.732 1085.73 L147.732 1079.85 Z" fill="#000000" fill-rule="nonzero" fill-opacity="1" /><path clip-path="url(#clip500)" d="M163.612 1081.8 L171.251 1081.8 L171.251 1055.43 L162.94 1057.1 L162.94 1052.84 L171.204 1051.17 L175.88 1051.17 L175.88 1081.8 L183.519 1081.8 L183.519 1085.73 L163.612 1085.73 L163.612 1081.8 Z" fill="#000000" fill-rule="nonzero" fill-opacity="1" /><path clip-path="url(#clip500)" d="M121.968 859.401 L138.288 859.401 L138.288 863.336 L116.343 863.336 L116.343 859.401 Q119.006 856.646 123.589 852.017 Q128.195 847.364 129.376 846.021 Q131.621 843.498 132.501 841.762 Q133.404 840.003 133.404 838.313 Q133.404 835.558 131.459 833.822 Q129.538 832.086 126.436 832.086 Q124.237 832.086 121.783 832.85 Q119.353 833.614 116.575 835.165 L116.575 830.443 Q119.399 829.308 121.853 828.73 Q124.306 828.151 126.343 828.151 Q131.714 828.151 134.908 830.836 Q138.103 833.521 138.103 838.012 Q138.103 840.142 137.292 842.063 Q136.505 843.961 134.399 846.554 Q133.82 847.225 130.718 850.443 Q127.617 853.637 121.968 859.401 Z" fill="#000000" fill-rule="nonzero" fill-opacity="1" /><path clip-path="url(#clip500)" d="M148.103 857.456 L152.987 857.456 L152.987 863.336 L148.103 863.336 L148.103 857.456 Z" fill="#000000" fill-rule="nonzero" fill-opacity="1" /><path clip-path="url(#clip500)" d="M167.2 859.401 L183.519 859.401 L183.519 863.336 L161.575 863.336 L161.575 859.401 Q164.237 856.646 168.82 852.017 Q173.427 847.364 174.607 846.021 Q176.852 843.498 177.732 841.762 Q178.635 840.003 178.635 838.313 Q178.635 835.558 176.69 833.822 Q174.769 832.086 171.667 832.086 Q169.468 832.086 167.015 832.85 Q164.584 833.614 161.806 835.165 L161.806 830.443 Q164.63 829.308 167.084 828.73 Q169.538 828.151 171.575 828.151 Q176.945 828.151 180.139 830.836 Q183.334 833.521 183.334 838.012 Q183.334 840.142 182.524 842.063 Q181.737 843.961 179.63 846.554 Q179.051 847.225 175.95 850.443 Q172.848 853.637 167.2 859.401 Z" fill="#000000" fill-rule="nonzero" fill-opacity="1" /><path clip-path="url(#clip500)" d="M121.019 637.005 L137.339 637.005 L137.339 640.94 L115.394 640.94 L115.394 637.005 Q118.056 634.25 122.64 629.621 Q127.246 624.968 128.427 623.625 Q130.672 621.102 131.552 619.366 Q132.455 617.607 132.455 615.917 Q132.455 613.163 130.51 611.426 Q128.589 609.69 125.487 609.69 Q123.288 609.69 120.834 610.454 Q118.404 611.218 115.626 612.769 L115.626 608.047 Q118.45 606.913 120.904 606.334 Q123.357 605.755 125.394 605.755 Q130.765 605.755 133.959 608.44 Q137.154 611.126 137.154 615.616 Q137.154 617.746 136.343 619.667 Q135.556 621.565 133.45 624.158 Q132.871 624.829 129.769 628.047 Q126.667 631.241 121.019 637.005 Z" fill="#000000" fill-rule="nonzero" fill-opacity="1" /><path clip-path="url(#clip500)" d="M147.153 635.061 L152.038 635.061 L152.038 640.94 L147.153 640.94 L147.153 635.061 Z" fill="#000000" fill-rule="nonzero" fill-opacity="1" /><path clip-path="url(#clip500)" d="M176.389 622.306 Q179.746 623.024 181.621 625.292 Q183.519 627.561 183.519 630.894 Q183.519 636.01 180.001 638.811 Q176.482 641.612 170.001 641.612 Q167.825 641.612 165.51 641.172 Q163.218 640.755 160.765 639.899 L160.765 635.385 Q162.709 636.519 165.024 637.098 Q167.339 637.676 169.862 637.676 Q174.26 637.676 176.551 635.94 Q178.866 634.204 178.866 630.894 Q178.866 627.838 176.714 626.125 Q174.584 624.389 170.764 624.389 L166.737 624.389 L166.737 620.547 L170.95 620.547 Q174.399 620.547 176.227 619.181 Q178.056 617.792 178.056 615.2 Q178.056 612.538 176.158 611.126 Q174.283 609.69 170.764 609.69 Q168.843 609.69 166.644 610.107 Q164.445 610.524 161.806 611.403 L161.806 607.237 Q164.468 606.496 166.783 606.126 Q169.121 605.755 171.181 605.755 Q176.505 605.755 179.607 608.186 Q182.709 610.593 182.709 614.714 Q182.709 617.584 181.065 619.575 Q179.422 621.542 176.389 622.306 Z" fill="#000000" fill-rule="nonzero" fill-opacity="1" /><path clip-path="url(#clip500)" d="M119.885 414.609 L136.204 414.609 L136.204 418.544 L114.26 418.544 L114.26 414.609 Q116.922 411.855 121.505 407.225 Q126.112 402.572 127.292 401.23 Q129.538 398.707 130.417 396.971 Q131.32 395.211 131.32 393.521 Q131.32 390.767 129.376 389.031 Q127.455 387.295 124.353 387.295 Q122.154 387.295 119.7 388.059 Q117.269 388.822 114.492 390.373 L114.492 385.651 Q117.316 384.517 119.769 383.938 Q122.223 383.359 124.26 383.359 Q129.63 383.359 132.825 386.045 Q136.019 388.73 136.019 393.221 Q136.019 395.35 135.209 397.271 Q134.422 399.17 132.316 401.762 Q131.737 402.433 128.635 405.651 Q125.533 408.845 119.885 414.609 Z" fill="#000000" fill-rule="nonzero" fill-opacity="1" /><path clip-path="url(#clip500)" d="M146.019 412.665 L150.903 412.665 L150.903 418.544 L146.019 418.544 L146.019 412.665 Z" fill="#000000" fill-rule="nonzero" fill-opacity="1" /><path clip-path="url(#clip500)" d="M173.936 388.059 L162.13 406.508 L173.936 406.508 L173.936 388.059 M172.709 383.984 L178.589 383.984 L178.589 406.508 L183.519 406.508 L183.519 410.396 L178.589 410.396 L178.589 418.544 L173.936 418.544 L173.936 410.396 L158.334 410.396 L158.334 405.883 L172.709 383.984 Z" fill="#000000" fill-rule="nonzero" fill-opacity="1" /><path clip-path="url(#clip500)" d="M121.367 192.214 L137.686 192.214 L137.686 196.149 L115.742 196.149 L115.742 192.214 Q118.404 189.459 122.987 184.829 Q127.593 180.177 128.774 178.834 Q131.019 176.311 131.899 174.575 Q132.802 172.816 132.802 171.126 Q132.802 168.371 130.857 166.635 Q128.936 164.899 125.834 164.899 Q123.635 164.899 121.181 165.663 Q118.751 166.427 115.973 167.978 L115.973 163.255 Q118.797 162.121 121.251 161.542 Q123.705 160.964 125.742 160.964 Q131.112 160.964 134.306 163.649 Q137.501 166.334 137.501 170.825 Q137.501 172.954 136.691 174.876 Q135.904 176.774 133.797 179.366 Q133.218 180.038 130.117 183.255 Q127.015 186.45 121.367 192.214 Z" fill="#000000" fill-rule="nonzero" fill-opacity="1" /><path clip-path="url(#clip500)" d="M147.501 190.269 L152.385 190.269 L152.385 196.149 L147.501 196.149 L147.501 190.269 Z" fill="#000000" fill-rule="nonzero" fill-opacity="1" /><path clip-path="url(#clip500)" d="M162.616 161.589 L180.973 161.589 L180.973 165.524 L166.899 165.524 L166.899 173.996 Q167.917 173.649 168.936 173.487 Q169.954 173.302 170.973 173.302 Q176.76 173.302 180.139 176.473 Q183.519 179.644 183.519 185.061 Q183.519 190.64 180.047 193.741 Q176.575 196.82 170.255 196.82 Q168.079 196.82 165.811 196.45 Q163.565 196.079 161.158 195.339 L161.158 190.64 Q163.241 191.774 165.464 192.329 Q167.686 192.885 170.163 192.885 Q174.167 192.885 176.505 190.778 Q178.843 188.672 178.843 185.061 Q178.843 181.45 176.505 179.343 Q174.167 177.237 170.163 177.237 Q168.288 177.237 166.413 177.653 Q164.561 178.07 162.616 178.95 L162.616 161.589 Z" fill="#000000" fill-rule="nonzero" fill-opacity="1" /><path clip-path="url(#clip500)" d="M58.3387 750.903 L64.0042 750.903 L64.0042 770 L58.3387 770 Q55.2513 764.366 49.9678 761.215 Q44.6842 758.064 38.2549 758.064 Q30.616 758.064 26.0009 762.266 Q21.3858 766.467 21.3858 773.342 Q21.3858 780.217 26.0327 784.45 Q30.6479 788.651 38.2549 788.651 Q44.6842 788.651 49.9678 785.5 Q55.2513 782.318 58.3387 776.652 L64.0042 776.652 L64.0042 795.749 L58.3387 795.749 L58.3387 785.596 Q53.9145 790.625 49.1721 792.948 Q44.4296 795.24 38.5732 795.24 Q28.4517 795.24 22.1815 789.129 Q15.9112 783.05 15.9112 773.342 Q15.9112 763.698 22.1815 757.555 Q28.4199 751.444 38.2549 751.444 Q44.4296 751.444 49.1402 753.704 Q53.8509 755.964 58.3387 761.088 L58.3387 750.903 Z" fill="#000000" fill-rule="nonzero" fill-opacity="1" /><path clip-path="url(#clip500)" d="M260.064 16.7545 L260.064 25.383 Q255.932 21.5346 251.233 19.6307 Q246.574 17.7268 241.308 17.7268 Q230.938 17.7268 225.428 24.0867 Q219.919 30.4061 219.919 42.3968 Q219.919 54.3469 225.428 60.7069 Q230.938 67.0263 241.308 67.0263 Q246.574 67.0263 251.233 65.1223 Q255.932 63.2184 260.064 59.3701 L260.064 67.9175 Q255.77 70.8341 250.949 72.2924 Q246.169 73.7508 240.822 73.7508 Q227.089 73.7508 219.19 65.3654 Q211.291 56.9395 211.291 42.3968 Q211.291 27.8135 219.19 19.4281 Q227.089 11.0023 240.822 11.0023 Q246.25 11.0023 251.03 12.4606 Q255.851 13.8784 260.064 16.7545 Z" fill="#000000" fill-rule="nonzero" fill-opacity="1" /><path clip-path="url(#clip500)" d="M289.959 32.4315 Q283.964 32.4315 280.48 37.1306 Q276.996 41.7891 276.996 49.9314 Q276.996 58.0738 280.44 62.7728 Q283.924 67.4314 289.959 67.4314 Q295.914 67.4314 299.398 62.7323 Q302.882 58.0333 302.882 49.9314 Q302.882 41.8701 299.398 37.1711 Q295.914 32.4315 289.959 32.4315 M289.959 26.1121 Q299.682 26.1121 305.231 32.4315 Q310.781 38.7509 310.781 49.9314 Q310.781 61.0714 305.231 67.4314 Q299.682 73.7508 289.959 73.7508 Q280.197 73.7508 274.647 67.4314 Q269.138 61.0714 269.138 49.9314 Q269.138 38.7509 274.647 32.4315 Q280.197 26.1121 289.959 26.1121 Z" fill="#000000" fill-rule="nonzero" fill-opacity="1" /><path clip-path="url(#clip500)" d="M360.85 45.1919 L360.85 72.576 L353.397 72.576 L353.397 45.4349 Q353.397 38.994 350.885 35.7938 Q348.373 32.5936 343.35 32.5936 Q337.314 32.5936 333.831 36.4419 Q330.347 40.2903 330.347 46.9338 L330.347 72.576 L322.853 72.576 L322.853 27.2059 L330.347 27.2059 L330.347 34.2544 Q333.02 30.163 336.626 28.1376 Q340.272 26.1121 345.011 26.1121 Q352.829 26.1121 356.84 30.9732 Q360.85 35.7938 360.85 45.1919 Z" fill="#000000" fill-rule="nonzero" fill-opacity="1" /><path clip-path="url(#clip500)" d="M383.09 14.324 L383.09 27.2059 L398.443 27.2059 L398.443 32.9987 L383.09 32.9987 L383.09 57.6282 Q383.09 63.1779 384.588 64.7578 Q386.128 66.3376 390.786 66.3376 L398.443 66.3376 L398.443 72.576 L390.786 72.576 Q382.158 72.576 378.877 69.3758 Q375.595 66.1351 375.595 57.6282 L375.595 32.9987 L370.127 32.9987 L370.127 27.2059 L375.595 27.2059 L375.595 14.324 L383.09 14.324 Z" fill="#000000" fill-rule="nonzero" fill-opacity="1" /><path clip-path="url(#clip500)" d="M408.246 27.2059 L415.699 27.2059 L415.699 72.576 L408.246 72.576 L408.246 27.2059 M408.246 9.54393 L415.699 9.54393 L415.699 18.9825 L408.246 18.9825 L408.246 9.54393 Z" fill="#000000" fill-rule="nonzero" fill-opacity="1" /><path clip-path="url(#clip500)" d="M469.009 45.1919 L469.009 72.576 L461.556 72.576 L461.556 45.4349 Q461.556 38.994 459.044 35.7938 Q456.533 32.5936 451.509 32.5936 Q445.474 32.5936 441.99 36.4419 Q438.506 40.2903 438.506 46.9338 L438.506 72.576 L431.012 72.576 L431.012 27.2059 L438.506 27.2059 L438.506 34.2544 Q441.18 30.163 444.785 28.1376 Q448.431 26.1121 453.17 26.1121 Q460.989 26.1121 464.999 30.9732 Q469.009 35.7938 469.009 45.1919 Z" fill="#000000" fill-rule="nonzero" fill-opacity="1" /><path clip-path="url(#clip500)" d="M483.106 54.671 L483.106 27.2059 L490.56 27.2059 L490.56 54.3874 Q490.56 60.8284 493.072 64.0691 Q495.583 67.2693 500.606 67.2693 Q506.642 67.2693 510.126 63.421 Q513.65 59.5726 513.65 52.9291 L513.65 27.2059 L521.104 27.2059 L521.104 72.576 L513.65 72.576 L513.65 65.6084 Q510.936 69.7404 507.331 71.7658 Q503.766 73.7508 499.027 73.7508 Q491.208 73.7508 487.157 68.8897 Q483.106 64.0286 483.106 54.671 M501.862 26.1121 L501.862 26.1121 Z" fill="#000000" fill-rule="nonzero" fill-opacity="1" /><path clip-path="url(#clip500)" d="M557.076 49.7694 Q548.042 49.7694 544.559 51.8354 Q541.075 53.9013 541.075 58.8839 Q541.075 62.8538 543.667 65.2034 Q546.301 67.5124 550.797 67.5124 Q556.995 67.5124 560.722 63.1374 Q564.489 58.7219 564.489 51.4303 L564.489 49.7694 L557.076 49.7694 M571.943 46.6907 L571.943 72.576 L564.489 72.576 L564.489 65.6895 Q561.937 69.8214 558.129 71.8063 Q554.321 73.7508 548.812 73.7508 Q541.845 73.7508 537.713 69.8619 Q533.621 65.9325 533.621 59.3701 Q533.621 51.7138 538.725 47.825 Q543.87 43.9361 554.038 43.9361 L564.489 43.9361 L564.489 43.2069 Q564.489 38.0623 561.086 35.2672 Q557.724 32.4315 551.607 32.4315 Q547.718 32.4315 544.032 33.3632 Q540.346 34.295 536.943 36.1584 L536.943 29.2718 Q541.034 27.692 544.883 26.9223 Q548.731 26.1121 552.377 26.1121 Q562.221 26.1121 567.082 31.2163 Q571.943 36.3204 571.943 46.6907 Z" fill="#000000" fill-rule="nonzero" fill-opacity="1" /><path clip-path="url(#clip500)" d="M594.668 14.324 L594.668 27.2059 L610.021 27.2059 L610.021 32.9987 L594.668 32.9987 L594.668 57.6282 Q594.668 63.1779 596.167 64.7578 Q597.707 66.3376 602.365 66.3376 L610.021 66.3376 L610.021 72.576 L602.365 72.576 Q593.737 72.576 590.455 69.3758 Q587.174 66.1351 587.174 57.6282 L587.174 32.9987 L581.705 32.9987 L581.705 27.2059 L587.174 27.2059 L587.174 14.324 L594.668 14.324 Z" fill="#000000" fill-rule="nonzero" fill-opacity="1" /><path clip-path="url(#clip500)" d="M619.824 27.2059 L627.278 27.2059 L627.278 72.576 L619.824 72.576 L619.824 27.2059 M619.824 9.54393 L627.278 9.54393 L627.278 18.9825 L619.824 18.9825 L619.824 9.54393 Z" fill="#000000" fill-rule="nonzero" fill-opacity="1" /><path clip-path="url(#clip500)" d="M660.455 32.4315 Q654.46 32.4315 650.976 37.1306 Q647.492 41.7891 647.492 49.9314 Q647.492 58.0738 650.935 62.7728 Q654.419 67.4314 660.455 67.4314 Q666.41 67.4314 669.894 62.7323 Q673.377 58.0333 673.377 49.9314 Q673.377 41.8701 669.894 37.1711 Q666.41 32.4315 660.455 32.4315 M660.455 26.1121 Q670.177 26.1121 675.727 32.4315 Q681.277 38.7509 681.277 49.9314 Q681.277 61.0714 675.727 67.4314 Q670.177 73.7508 660.455 73.7508 Q650.692 73.7508 645.143 67.4314 Q639.633 61.0714 639.633 49.9314 Q639.633 38.7509 645.143 32.4315 Q650.692 26.1121 660.455 26.1121 Z" fill="#000000" fill-rule="nonzero" fill-opacity="1" /><path clip-path="url(#clip500)" d="M731.346 45.1919 L731.346 72.576 L723.892 72.576 L723.892 45.4349 Q723.892 38.994 721.381 35.7938 Q718.869 32.5936 713.846 32.5936 Q707.81 32.5936 704.326 36.4419 Q700.843 40.2903 700.843 46.9338 L700.843 72.576 L693.348 72.576 L693.348 27.2059 L700.843 27.2059 L700.843 34.2544 Q703.516 30.163 707.121 28.1376 Q710.767 26.1121 715.507 26.1121 Q723.325 26.1121 727.335 30.9732 Q731.346 35.7938 731.346 45.1919 Z" fill="#000000" fill-rule="nonzero" fill-opacity="1" /><path clip-path="url(#clip500)" d="M779.795 65.7705 L779.795 89.8329 L772.301 89.8329 L772.301 27.2059 L779.795 27.2059 L779.795 34.0924 Q782.144 30.0415 785.709 28.0971 Q789.314 26.1121 794.297 26.1121 Q802.561 26.1121 807.705 32.6746 Q812.891 39.2371 812.891 49.9314 Q812.891 60.6258 807.705 67.1883 Q802.561 73.7508 794.297 73.7508 Q789.314 73.7508 785.709 71.8063 Q782.144 69.8214 779.795 65.7705 M805.153 49.9314 Q805.153 41.7081 801.751 37.0496 Q798.388 32.3505 792.474 32.3505 Q786.56 32.3505 783.157 37.0496 Q779.795 41.7081 779.795 49.9314 Q779.795 58.1548 783.157 62.8538 Q786.56 67.5124 792.474 67.5124 Q798.388 67.5124 801.751 62.8538 Q805.153 58.1548 805.153 49.9314 Z" fill="#000000" fill-rule="nonzero" fill-opacity="1" /><path clip-path="url(#clip500)" d="M825.246 9.54393 L832.7 9.54393 L832.7 72.576 L825.246 72.576 L825.246 9.54393 Z" fill="#000000" fill-rule="nonzero" fill-opacity="1" /><path clip-path="url(#clip500)" d="M865.876 32.4315 Q859.881 32.4315 856.397 37.1306 Q852.914 41.7891 852.914 49.9314 Q852.914 58.0738 856.357 62.7728 Q859.841 67.4314 865.876 67.4314 Q871.831 67.4314 875.315 62.7323 Q878.799 58.0333 878.799 49.9314 Q878.799 41.8701 875.315 37.1711 Q871.831 32.4315 865.876 32.4315 M865.876 26.1121 Q875.599 26.1121 881.148 32.4315 Q886.698 38.7509 886.698 49.9314 Q886.698 61.0714 881.148 67.4314 Q875.599 73.7508 865.876 73.7508 Q856.114 73.7508 850.564 67.4314 Q845.055 61.0714 845.055 49.9314 Q845.055 38.7509 850.564 32.4315 Q856.114 26.1121 865.876 26.1121 Z" fill="#000000" fill-rule="nonzero" fill-opacity="1" /><path clip-path="url(#clip500)" d="M906.426 14.324 L906.426 27.2059 L921.779 27.2059 L921.779 32.9987 L906.426 32.9987 L906.426 57.6282 Q906.426 63.1779 907.925 64.7578 Q909.464 66.3376 914.123 66.3376 L921.779 66.3376 L921.779 72.576 L914.123 72.576 Q905.494 72.576 902.213 69.3758 Q898.932 66.1351 898.932 57.6282 L898.932 32.9987 L893.463 32.9987 L893.463 27.2059 L898.932 27.2059 L898.932 14.324 L906.426 14.324 Z" fill="#000000" fill-rule="nonzero" fill-opacity="1" /><path clip-path="url(#clip500)" d="M980.922 9.54393 L980.922 15.7418 L973.793 15.7418 Q969.782 15.7418 968.202 17.3622 Q966.663 18.9825 966.663 23.1955 L966.663 27.2059 L978.937 27.2059 L978.937 32.9987 L966.663 32.9987 L966.663 72.576 L959.169 72.576 L959.169 32.9987 L952.039 32.9987 L952.039 27.2059 L959.169 27.2059 L959.169 24.0462 Q959.169 16.471 962.693 13.0277 Q966.217 9.54393 973.874 9.54393 L980.922 9.54393 Z" fill="#000000" fill-rule="nonzero" fill-opacity="1" /><path clip-path="url(#clip500)" d="M1004.74 32.4315 Q998.746 32.4315 995.262 37.1306 Q991.779 41.7891 991.779 49.9314 Q991.779 58.0738 995.222 62.7728 Q998.706 67.4314 1004.74 67.4314 Q1010.7 67.4314 1014.18 62.7323 Q1017.66 58.0333 1017.66 49.9314 Q1017.66 41.8701 1014.18 37.1711 Q1010.7 32.4315 1004.74 32.4315 M1004.74 26.1121 Q1014.46 26.1121 1020.01 32.4315 Q1025.56 38.7509 1025.56 49.9314 Q1025.56 61.0714 1020.01 67.4314 Q1014.46 73.7508 1004.74 73.7508 Q994.979 73.7508 989.429 67.4314 Q983.92 61.0714 983.92 49.9314 Q983.92 38.7509 989.429 32.4315 Q994.979 26.1121 1004.74 26.1121 Z" fill="#000000" fill-rule="nonzero" fill-opacity="1" /><path clip-path="url(#clip500)" d="M1064.21 34.1734 Q1062.95 33.4443 1061.45 33.1202 Q1060 32.7556 1058.21 32.7556 Q1051.89 32.7556 1048.49 36.8875 Q1045.13 40.9789 1045.13 48.6757 L1045.13 72.576 L1037.63 72.576 L1037.63 27.2059 L1045.13 27.2059 L1045.13 34.2544 Q1047.48 30.1225 1051.25 28.1376 Q1055.01 26.1121 1060.4 26.1121 Q1061.17 26.1121 1062.1 26.2337 Q1063.03 26.3147 1064.17 26.5172 L1064.21 34.1734 Z" fill="#000000" fill-rule="nonzero" fill-opacity="1" /><path clip-path="url(#clip500)" d="M1114.12 73.5887 Q1104.76 72.0899 1100.42 68.1605 Q1095.12 63.3399 1095.12 53.4962 L1095.12 27.2059 L1102.65 27.2059 L1102.65 53.2127 Q1102.65 60.6258 1106.1 63.7045 Q1109.09 66.3781 1114.12 66.9452 L1114.12 27.2059 L1121.53 27.2059 L1121.53 66.9047 Q1126.84 66.3376 1129.55 63.664 Q1132.99 60.2613 1132.99 53.1722 L1132.99 27.2059 L1140.53 27.2059 L1140.53 53.4557 Q1140.53 63.664 1135.22 68.12 Q1130.44 72.1304 1121.53 73.5482 L1121.53 89.8329 L1114.12 89.8329 L1114.12 73.5887 Z" fill="#000000" fill-rule="nonzero" fill-opacity="1" /><path clip-path="url(#clip500)" d="M1180.47 34.9026 L1232.4 34.9026 L1232.4 41.7081 L1180.47 41.7081 L1180.47 34.9026 M1180.47 51.4303 L1232.4 51.4303 L1232.4 58.3168 L1180.47 58.3168 L1180.47 51.4303 Z" fill="#000000" fill-rule="nonzero" fill-opacity="1" /><path clip-path="url(#clip500)" d="M1293.94 17.4837 Q1287.62 17.4837 1284.42 23.7221 Q1281.26 29.92 1281.26 42.3968 Q1281.26 54.833 1284.42 61.0714 Q1287.62 67.2693 1293.94 67.2693 Q1300.3 67.2693 1303.46 61.0714 Q1306.66 54.833 1306.66 42.3968 Q1306.66 29.92 1303.46 23.7221 Q1300.3 17.4837 1293.94 17.4837 M1293.94 11.0023 Q1304.1 11.0023 1309.45 19.0636 Q1314.84 27.0843 1314.84 42.3968 Q1314.84 57.6687 1309.45 65.73 Q1304.1 73.7508 1293.94 73.7508 Q1283.77 73.7508 1278.38 65.73 Q1273.03 57.6687 1273.03 42.3968 Q1273.03 27.0843 1278.38 19.0636 Q1283.77 11.0023 1293.94 11.0023 Z" fill="#000000" fill-rule="nonzero" fill-opacity="1" /><path clip-path="url(#clip500)" d="M1329.22 62.2867 L1337.77 62.2867 L1337.77 72.576 L1329.22 72.576 L1329.22 62.2867 Z" fill="#000000" fill-rule="nonzero" fill-opacity="1" /><path clip-path="url(#clip500)" d="M1373.09 17.4837 Q1366.77 17.4837 1363.57 23.7221 Q1360.41 29.92 1360.41 42.3968 Q1360.41 54.833 1363.57 61.0714 Q1366.77 67.2693 1373.09 67.2693 Q1379.45 67.2693 1382.61 61.0714 Q1385.81 54.833 1385.81 42.3968 Q1385.81 29.92 1382.61 23.7221 Q1379.45 17.4837 1373.09 17.4837 M1373.09 11.0023 Q1383.26 11.0023 1388.61 19.0636 Q1393.99 27.0843 1393.99 42.3968 Q1393.99 57.6687 1388.61 65.73 Q1383.26 73.7508 1373.09 73.7508 Q1362.92 73.7508 1357.53 65.73 Q1352.19 57.6687 1352.19 42.3968 Q1352.19 27.0843 1357.53 19.0636 Q1362.92 11.0023 1373.09 11.0023 Z" fill="#000000" fill-rule="nonzero" fill-opacity="1" /><path clip-path="url(#clip500)" d="M1409.22 62.2867 L1417.77 62.2867 L1417.77 69.2543 L1411.13 82.2172 L1405.9 82.2172 L1409.22 69.2543 L1409.22 62.2867 Z" fill="#000000" fill-rule="nonzero" fill-opacity="1" /><path clip-path="url(#clip500)" d="M1460.39 12.096 L1471.41 12.096 L1498.22 62.6918 L1498.22 12.096 L1506.16 12.096 L1506.16 72.576 L1495.14 72.576 L1468.33 21.9802 L1468.33 72.576 L1460.39 72.576 L1460.39 12.096 Z" fill="#000000" fill-rule="nonzero" fill-opacity="1" /><path clip-path="url(#clip500)" d="M1549.47 34.9026 L1601.4 34.9026 L1601.4 41.7081 L1549.47 41.7081 L1549.47 34.9026 M1549.47 51.4303 L1601.4 51.4303 L1601.4 58.3168 L1549.47 58.3168 L1549.47 51.4303 Z" fill="#000000" fill-rule="nonzero" fill-opacity="1" /><path clip-path="url(#clip500)" d="M1646.85 65.6895 L1660.22 65.6895 L1660.22 19.5497 L1645.68 22.4663 L1645.68 15.0127 L1660.14 12.096 L1668.32 12.096 L1668.32 65.6895 L1681.69 65.6895 L1681.69 72.576 L1646.85 72.576 L1646.85 65.6895 Z" fill="#000000" fill-rule="nonzero" fill-opacity="1" /><path clip-path="url(#clip500)" d="M1699.63 65.6895 L1713 65.6895 L1713 19.5497 L1698.46 22.4663 L1698.46 15.0127 L1712.92 12.096 L1721.1 12.096 L1721.1 65.6895 L1734.47 65.6895 L1734.47 72.576 L1699.63 72.576 L1699.63 65.6895 Z" fill="#000000" fill-rule="nonzero" fill-opacity="1" /><path clip-path="url(#clip500)" d="M1771.98 27.2059 L1779.44 27.2059 L1788.75 62.6108 L1798.03 27.2059 L1806.82 27.2059 L1816.14 62.6108 L1825.41 27.2059 L1832.87 27.2059 L1821 72.576 L1812.21 72.576 L1802.45 35.3887 L1792.64 72.576 L1783.85 72.576 L1771.98 27.2059 Z" fill="#000000" fill-rule="nonzero" fill-opacity="1" /><path clip-path="url(#clip500)" d="M1844.17 27.2059 L1851.62 27.2059 L1851.62 72.576 L1844.17 72.576 L1844.17 27.2059 M1844.17 9.54393 L1851.62 9.54393 L1851.62 18.9825 L1844.17 18.9825 L1844.17 9.54393 Z" fill="#000000" fill-rule="nonzero" fill-opacity="1" /><path clip-path="url(#clip500)" d="M1874.59 14.324 L1874.59 27.2059 L1889.95 27.2059 L1889.95 32.9987 L1874.59 32.9987 L1874.59 57.6282 Q1874.59 63.1779 1876.09 64.7578 Q1877.63 66.3376 1882.29 66.3376 L1889.95 66.3376 L1889.95 72.576 L1882.29 72.576 Q1873.66 72.576 1870.38 69.3758 Q1867.1 66.1351 1867.1 57.6282 L1867.1 32.9987 L1861.63 32.9987 L1861.63 27.2059 L1867.1 27.2059 L1867.1 14.324 L1874.59 14.324 Z" fill="#000000" fill-rule="nonzero" fill-opacity="1" /><path clip-path="url(#clip500)" d="M1937.46 45.1919 L1937.46 72.576 L1930.01 72.576 L1930.01 45.4349 Q1930.01 38.994 1927.5 35.7938 Q1924.99 32.5936 1919.96 32.5936 Q1913.93 32.5936 1910.44 36.4419 Q1906.96 40.2903 1906.96 46.9338 L1906.96 72.576 L1899.46 72.576 L1899.46 9.54393 L1906.96 9.54393 L1906.96 34.2544 Q1909.63 30.163 1913.24 28.1376 Q1916.88 26.1121 1921.62 26.1121 Q1929.44 26.1121 1933.45 30.9732 Q1937.46 35.7938 1937.46 45.1919 Z" fill="#000000" fill-rule="nonzero" fill-opacity="1" /><path clip-path="url(#clip500)" d="M2000.94 64.3122 Q2002.4 66.2566 2006.77 66.2566 L2010.38 66.2566 L2010.38 72.576 L2005.88 72.576 Q1998.59 72.576 1995.27 68.6871 Q1991.95 64.7172 1991.95 56.1293 L1991.95 34.6595 L1974.93 34.6595 L1974.93 27.2059 L2016.78 27.2059 L2016.78 34.6595 L1999.56 34.6595 L1999.56 56.5749 Q1999.56 62.4487 2000.94 64.3122 Z" fill="#000000" fill-rule="nonzero" fill-opacity="1" /><path clip-path="url(#clip500)" d="M2063.12 86.3491 L2063.12 92.1419 L2020.02 92.1419 L2020.02 86.3491 L2063.12 86.3491 Z" fill="#000000" fill-rule="nonzero" fill-opacity="1" /><path clip-path="url(#clip500)" d="M2088.68 17.4837 Q2082.36 17.4837 2079.16 23.7221 Q2076 29.92 2076 42.3968 Q2076 54.833 2079.16 61.0714 Q2082.36 67.2693 2088.68 67.2693 Q2095.04 67.2693 2098.2 61.0714 Q2101.4 54.833 2101.4 42.3968 Q2101.4 29.92 2098.2 23.7221 Q2095.04 17.4837 2088.68 17.4837 M2088.68 11.0023 Q2098.85 11.0023 2104.2 19.0636 Q2109.59 27.0843 2109.59 42.3968 Q2109.59 57.6687 2104.2 65.73 Q2098.85 73.7508 2088.68 73.7508 Q2078.51 73.7508 2073.13 65.73 Q2067.78 57.6687 2067.78 42.3968 Q2067.78 27.0843 2073.13 19.0636 Q2078.51 11.0023 2088.68 11.0023 Z" fill="#000000" fill-rule="nonzero" fill-opacity="1" /><path clip-path="url(#clip500)" d="M2150.26 34.9026 L2202.19 34.9026 L2202.19 41.7081 L2150.26 41.7081 L2150.26 34.9026 M2150.26 51.4303 L2202.19 51.4303 L2202.19 58.3168 L2150.26 58.3168 L2150.26 51.4303 Z" fill="#000000" fill-rule="nonzero" fill-opacity="1" /><path clip-path="url(#clip500)" d="M2263.72 17.4837 Q2257.4 17.4837 2254.2 23.7221 Q2251.04 29.92 2251.04 42.3968 Q2251.04 54.833 2254.2 61.0714 Q2257.4 67.2693 2263.72 67.2693 Q2270.08 67.2693 2273.24 61.0714 Q2276.44 54.833 2276.44 42.3968 Q2276.44 29.92 2273.24 23.7221 Q2270.08 17.4837 2263.72 17.4837 M2263.72 11.0023 Q2273.89 11.0023 2279.24 19.0636 Q2284.62 27.0843 2284.62 42.3968 Q2284.62 57.6687 2279.24 65.73 Q2273.89 73.7508 2263.72 73.7508 Q2253.55 73.7508 2248.17 65.73 Q2242.82 57.6687 2242.82 42.3968 Q2242.82 27.0843 2248.17 19.0636 Q2253.55 11.0023 2263.72 11.0023 Z" fill="#000000" fill-rule="nonzero" fill-opacity="1" /><path clip-path="url(#clip500)" d="M2299.01 62.2867 L2307.55 62.2867 L2307.55 72.576 L2299.01 72.576 L2299.01 62.2867 Z" fill="#000000" fill-rule="nonzero" fill-opacity="1" /><path clip-path="url(#clip500)" d="M2332.43 65.6895 L2360.98 65.6895 L2360.98 72.576 L2322.58 72.576 L2322.58 65.6895 Q2327.24 60.8689 2335.26 52.7671 Q2343.32 44.6248 2345.39 42.2752 Q2349.32 37.8598 2350.86 34.8216 Q2352.44 31.7429 2352.44 28.7857 Q2352.44 23.9651 2349.03 20.927 Q2345.67 17.8888 2340.24 17.8888 Q2336.4 17.8888 2332.1 19.2256 Q2327.85 20.5624 2322.99 23.2765 L2322.99 15.0127 Q2327.93 13.0277 2332.22 12.015 Q2336.52 11.0023 2340.08 11.0023 Q2349.48 11.0023 2355.07 15.7013 Q2360.66 20.4004 2360.66 28.2591 Q2360.66 31.9859 2359.24 35.3482 Q2357.86 38.6699 2354.18 43.2069 Q2353.17 44.3817 2347.74 50.0125 Q2342.31 55.6027 2332.43 65.6895 Z" fill="#000000" fill-rule="nonzero" fill-opacity="1" /><polyline clip-path="url(#clip502)" style="stroke:#0000ff; stroke-linecap:round; stroke-linejoin:round; stroke-width:8; stroke-opacity:1; fill:none" stroke-dasharray="32, 20" points="279.894,1262.93 280.072,1261.83 280.304,1260.39 280.604,1258.51 280.995,1256.06 281.502,1252.85 282.159,1248.66 283.01,1243.15 284.112,1235.9 285.536,1226.34 286.951,1216.61 288.356,1206.73 289.752,1196.69 291.138,1186.49 292.515,1176.14 293.881,1165.63 295.237,1154.97 296.583,1144.17 297.92,1133.22 299.247,1122.13 300.564,1110.92 301.873,1099.59 303.174,1088.16 304.469,1076.63 305.758,1065.04 307.043,1053.39 308.325,1041.71 309.607,1030.02 310.89,1018.35 312.176,1006.72 313.468,995.167 314.769,983.719 316.079,972.412 317.403,961.283 318.742,950.372 320.099,939.722 321.477,929.378 322.876,919.388 324.299,909.799 325.748,900.657 327.222,892.006 328.721,883.886 330.246,876.334 331.795,869.378 333.367,863.033 334.957,857.283 336.564,852.077 338.182,847.336 339.809,842.976 341.443,838.93 343.083,835.166 344.728,831.677 346.377,828.468 348.032,825.544 349.69,822.903 351.352,820.535 353.016,818.403 354.682,816.424 356.348,814.47 358.014,812.437 359.678,810.319 361.342,808.161 363.006,805.98 364.669,803.763 366.332,801.499 367.995,799.191 369.657,796.858 371.319,794.53 372.981,792.238 374.644,790.013 376.309,787.875 377.974,785.833 379.64,783.875 381.307,781.955 382.973,779.987 384.637,777.866 386.299,775.525 387.959,772.986 389.617,770.334 391.274,767.65 392.932,764.975 394.59,762.309 396.247,759.623 397.904,756.87 399.558,753.991 401.21,750.925 402.858,747.619 404.502,744.034 406.139,740.15 407.77,735.973 409.395,731.529 411.015,726.862 412.63,722.033 414.243,717.111 415.856,712.175 417.471,707.309 419.089,702.6 420.714,698.131 422.345,693.977 423.985,690.195 425.632,686.81 427.285,683.816 428.944,681.184 430.606,678.891 432.273,676.948 433.943,675.399 435.617,674.305 437.292,673.703 438.969,673.6 440.645,673.972 442.32,674.776 443.993,675.945 445.663,677.389 447.333,679.004 449.002,680.68 450.671,682.326 452.34,683.884 454.011,685.33 455.682,686.673 457.354,687.937 459.026,689.157 460.699,690.366 462.371,691.596 464.043,692.857 465.714,694.13 467.386,695.358 469.059,696.512 470.732,697.652 472.404,698.898 474.074,700.348 475.743,702.049 477.409,704.014 479.073,706.242 480.733,708.719 482.39,711.429 484.045,714.352 485.696,717.467 487.344,720.75 488.99,724.179 490.633,727.73 492.275,731.378 493.915,735.098 495.555,738.862 497.194,742.635 498.834,746.377 500.476,750.036 502.12,753.547 503.768,756.839 505.421,759.83 507.08,762.436 508.745,764.573 510.415,766.164 512.09,767.135 513.767,767.422 515.444,766.959 517.117,765.68 518.783,763.515 520.436,760.387 522.07,756.209 523.676,750.872 525.241,744.235 526.748,736.155 528.182,726.619 529.538,715.851 530.828,704.213 532.072,692.038 533.292,679.59 534.506,667.087 535.733,654.725 536.988,642.692 538.284,631.175 539.633,620.367 541.04,610.455 542.508,601.605 544.032,593.942 545.604,587.528 547.216,582.364 548.855,578.394 550.513,575.51 552.181,573.556 553.855,572.337 555.53,571.655 557.206,571.34 558.882,571.271 560.558,571.382 562.234,571.635 563.91,572.01 565.585,572.487 567.26,573.042 568.935,573.642 570.61,574.224 572.286,574.679 573.962,574.859 575.638,574.659 577.313,574.081 578.988,573.17 580.66,571.93 582.33,570.324 583.996,568.306 585.657,565.846 587.311,562.945 588.96,559.635 590.602,555.983 592.238,552.079 593.872,548.029 595.505,543.94 597.139,539.914 598.776,536.041 600.418,532.391 602.065,529.004 603.716,525.88 605.37,522.978 607.027,520.232 608.685,517.595 610.345,515.081 612.007,512.765 613.673,510.737 615.342,509.06 617.014,507.751 618.688,506.802 620.363,506.191 622.039,505.885 623.715,505.844 625.391,506.013 627.067,506.33 628.743,506.726 630.418,507.145 632.094,507.551 633.769,507.941 635.445,508.345 637.12,508.812 638.795,509.399 640.47,510.16 642.143,511.135 643.816,512.35 645.486,513.811 647.155,515.506 648.822,517.399 650.487,519.426 652.152,521.507 653.817,523.565 655.483,525.562 657.149,527.511 658.816,529.443 660.482,531.361 662.149,533.228 663.818,534.978 665.487,536.545 667.159,537.873 668.832,538.935 670.507,539.726 672.182,540.258 673.858,540.549 675.534,540.619 677.21,540.48 678.886,540.12 680.561,539.475 682.234,538.433 683.905,536.966 685.574,535.21 687.241,533.357 688.908,531.537 690.577,529.822 692.247,528.258 693.918,526.883 695.59,525.728 697.264,524.825 698.94,524.201 700.615,523.879 702.292,523.878 703.968,524.207 705.643,524.87 707.316,525.868 708.988,527.195 710.657,528.845 712.324,530.81 713.987,533.08 715.646,535.648 717.301,538.504 718.952,541.639 720.599,545.046 722.24,548.716 723.876,552.641 725.508,556.813 727.133,561.225 728.754,565.868 730.368,570.735 731.977,575.818 733.58,581.108 735.178,586.597 736.77,592.277 738.356,598.139 739.936,604.174 741.511,610.376 743.081,616.734 744.646,623.242 746.205,629.89 747.76,636.671 749.309,643.578 750.855,650.602 752.395,657.738 753.932,664.978 755.465,672.315 756.994,679.743 758.519,687.257 760.042,694.85 761.56,702.518 763.076,710.255 764.589,718.056 766.1,725.918 767.608,733.834 769.113,741.802 770.617,749.818 772.118,757.877 773.618,765.977 775.116,774.113 776.612,782.283 778.107,790.484 779.601,798.712 781.093,806.964 782.585,815.239 784.075,823.533 785.565,831.843 787.054,840.169 788.543,848.506 790.031,856.853 791.518,865.208 793.006,873.569 794.493,881.934 795.98,890.301 797.467,898.667 798.954,907.033 800.441,915.395 801.929,923.753 803.417,932.104 804.905,940.447 806.393,948.781 807.883,957.105 809.372,965.416 810.863,973.714 812.354,981.998 813.845,990.265 815.338,998.516 816.831,1006.75 818.326,1014.96 819.821,1023.15 821.318,1031.32 822.815,1039.47 824.314,1047.59 825.813,1055.69 827.314,1063.76 828.817,1071.8 830.32,1079.81 831.825,1087.8 833.332,1095.75 834.839,1103.66 836.349,1111.55 837.86,1119.4 839.372,1127.21 840.887,1134.98 842.403,1142.72 843.92,1150.41 845.44,1158.06 846.961,1165.67 848.485,1173.23 850.01,1180.75 851.538,1188.21 853.067,1195.63 854.599,1203 856.132,1210.31 857.668,1217.57 859.206,1224.78 860.747,1231.93 862.289,1239.02 863.834,1246.05 865.382,1253.01 866.932,1259.92 868.484,1266.76 870.039,1273.53 871.596,1280.23 873.156,1286.86 874.719,1293.41 876.285,1299.88 877.853,1306.27 879.425,1312.57 881,1318.77 882.578,1324.87 884.16,1330.87 885.746,1336.74 887.336,1342.47 888.931,1348.05 890.531,1353.46 892.136,1358.66 893.749,1363.62 895.368,1368.29 896.997,1372.6 898.634,1376.48 900.282,1379.86 901.939,1382.64 903.605,1384.73 905.278,1386.02 906.956,1386.4 908.633,1385.68 910.303,1383.68 911.953,1380.11 913.562,1374.67 915.097,1367.02 916.514,1356.97 917.77,1344.61 918.833,1330.31 919.702,1314.59 920.391,1297.91 920.922,1280.61 921.315,1262.9 921.587,1244.95 921.752,1226.86 921.821,1208.71 921.804,1190.54 921.709,1172.41 921.544,1154.34 921.32,1136.35 921.045,1118.45 920.73,1100.62 920.385,1082.87 920.023,1065.15 919.655,1047.45 919.295,1029.73 918.96,1011.96 918.667,994.089 918.44,976.1 918.31,957.982 918.321,939.777 918.53,921.65 919.008,904.013 919.811,887.656 920.932,873.561 922.289,862.268 923.778,853.467 925.331,846.4 926.917,840.435 928.525,835.24 930.148,830.7 931.786,826.765 933.433,823.392 935.089,820.516 936.749,818.033 938.412,815.758 940.074,813.457 941.735,811.013 943.395,808.481 945.054,805.909 946.712,803.28 948.369,800.571 950.025,797.8 951.681,795.017 953.338,792.285 954.997,789.661 956.657,787.184 958.319,784.856 959.982,782.629 961.645,780.38 963.306,777.922 964.962,775.109 966.613,771.977 968.261,768.704 969.91,765.424 971.558,762.164 973.206,758.863 974.852,755.408 976.492,751.653 978.122,747.436 979.739,742.608 981.336,737.073 982.911,730.83 984.465,724.004 986.005,716.834 987.544,709.649 989.096,702.803 990.673,696.611 992.277,691.269 993.904,686.815 995.547,683.15 997.2,680.131 998.862,677.672 1000.53,675.773 1002.2,674.468 1003.88,673.755 1005.55,673.586 1007.23,673.891 1008.91,674.593 1010.58,675.613 1012.25,676.871 1013.92,678.286 1015.59,679.781 1017.26,681.287 1018.93,682.751 1020.6,684.142 1022.28,685.449 1023.95,686.678 1025.62,687.845 1027.29,688.975 1028.97,690.093 1030.64,691.222 1032.31,692.376 1033.98,693.55 1035.66,694.709 1037.33,695.816 1039,696.872 1040.67,697.945 1042.35,699.126 1044.02,700.47 1045.69,702.002 1047.36,703.721 1049.02,705.618 1050.69,707.681 1052.35,709.895 1054.01,712.245 1055.67,714.718 1057.33,717.299 1058.99,719.974 1060.65,722.733 1062.3,725.562 1063.96,728.449 1065.61,731.385 1067.26,734.358 1068.92,737.355 1070.57,740.365 1072.22,743.371 1073.88,746.355 1075.53,749.296 1077.18,752.166 1078.84,754.936 1080.5,757.566 1082.16,760.014 1083.82,762.229 1085.49,764.151 1087.16,765.71 1088.83,766.822 1090.51,767.384 1092.19,767.256 1093.86,766.243 1095.53,764.05 1097.17,760.192 1098.76,753.776 1100.17,742.858 1101.01,724.391 1101.07,704.454 1100.85,686.236 1100.59,668.315 1100.38,650.299 1100.36,632.046 1100.72,613.857 1101.69,597.535 1103.16,586.204 1104.78,579.564 1106.43,575.686 1108.1,573.445 1109.78,572.203 1111.45,571.57 1113.13,571.308 1114.81,571.281 1116.48,571.423 1118.16,571.696 1119.83,572.08 1121.51,572.555 1123.19,573.098 1124.86,573.677 1126.54,574.236 1128.21,574.677 1129.89,574.859 1131.56,574.661 1133.24,574.055 1134.91,573.063 1136.58,571.657 1138.25,569.743 1139.91,567.2 1141.56,563.921 1143.2,559.862 1144.81,555.1 1146.42,549.842 1148.02,544.389 1149.62,539.058 1151.23,534.107 1152.86,529.676 1154.5,525.768 1156.14,522.267 1157.79,519.016 1159.44,515.952 1161.1,513.163 1162.76,510.798 1164.43,508.936 1166.1,507.566 1167.77,506.635 1169.45,506.083 1171.13,505.849 1172.8,505.872 1174.48,506.085 1176.15,506.42 1177.83,506.816 1179.5,507.224 1181.18,507.616 1182.86,507.997 1184.53,508.395 1186.21,508.858 1187.88,509.434 1189.56,510.166 1191.23,511.08 1192.9,512.191 1194.57,513.496 1196.24,514.984 1197.91,516.626 1199.58,518.385 1201.25,520.212 1202.92,522.053 1204.58,523.867 1206.25,525.638 1207.92,527.375 1209.59,529.098 1211.26,530.814 1212.93,532.504 1214.59,534.131 1216.27,535.646 1217.94,537.003 1219.61,538.164 1221.28,539.106 1222.96,539.819 1224.63,540.303 1226.31,540.565 1227.98,540.614 1229.66,540.453 1231.34,540.054 1233.01,539.322 1234.68,538.097 1236.35,536.347 1238.02,534.297 1239.68,532.21 1241.35,530.24 1243.02,528.466 1244.69,526.938 1246.36,525.692 1248.03,524.754 1249.71,524.14 1251.38,523.858 1253.06,523.905 1254.74,524.271 1256.41,524.94 1258.09,525.894 1259.76,527.115 1261.43,528.583 1263.1,530.283 1264.76,532.197 1266.43,534.311 1268.09,536.613 1269.75,539.09 1271.41,541.733 1273.07,544.53 1274.72,547.474 1276.37,550.557 1278.02,553.77 1279.67,557.107 1281.31,560.561 1282.96,564.126 1284.6,567.797 1286.24,571.569 1287.87,575.435 1289.51,579.392 1291.14,583.435 1292.78,587.558 1294.41,591.759 1296.04,596.033 1297.66,600.376 1299.29,604.785 1300.91,609.256 1302.54,613.786 1304.16,618.371 1305.78,623.009 1307.4,627.697 1309.01,632.432 1310.63,637.211 1312.25,642.032 1313.86,646.892 1315.47,651.79 1317.09,656.723 1318.7,661.689 1320.31,666.687 1321.92,671.713 1323.53,676.767 1325.14,681.847 1326.75,686.951 1328.36,692.079 1329.96,697.227 1331.57,702.395 1333.17,707.583 1334.78,712.787 1336.39,718.008 1337.99,723.245 1339.59,728.495 1341.2,733.758 1342.8,739.034 1344.4,744.321 1346.01,749.618 1347.61,754.925 1349.21,760.241 1350.81,765.564 1352.42,770.894 1354.02,776.231 1355.62,781.574 1357.22,786.922 1358.82,792.274 1360.42,797.63 1362.03,802.989 1363.63,808.351 1365.23,813.715 1366.83,819.08 1368.43,824.447 1370.03,829.814 1371.63,835.181 1373.23,840.548 1374.83,845.913 1376.43,851.278 1378.03,856.641 1379.64,862.002 1381.24,867.36 1382.84,872.715 1384.44,878.068 1386.04,883.416 1387.64,888.761 1389.24,894.102 1390.85,899.438 1392.45,904.769 1394.05,910.095 1395.65,915.415 1397.25,920.73 1398.86,926.039 1400.46,931.342 1402.06,936.638 1403.67,941.927 1405.27,947.21 1406.87,952.485 1408.48,957.752 1410.08,963.012 1411.68,968.265 1413.29,973.509 1414.89,978.744 1416.5,983.971 1418.1,989.19 1419.71,994.399 1421.31,999.599 1422.92,1004.79 1424.53,1009.97 1426.13,1015.14 1427.74,1020.31 1429.35,1025.46 1430.95,1030.6 1432.56,1035.73 1434.17,1040.85 1435.78,1045.96 1437.39,1051.06 1438.99,1056.15 1440.6,1061.22 1442.21,1066.29 1443.82,1071.34 1445.43,1076.38 1447.04,1081.41 1448.65,1086.43 1450.26,1091.43 1451.88,1096.42 1453.49,1101.4 1455.1,1106.37 1456.71,1111.32 1458.32,1116.26 1459.94,1121.19 1461.55,1126.1 1463.16,1131 1464.78,1135.88 1466.39,1140.75 1468.01,1145.6 1469.62,1150.44 1471.24,1155.27 1472.85,1160.08 1474.47,1164.87 1476.09,1169.65 1477.7,1174.41 1479.32,1179.15 1480.94,1183.88 1482.56,1188.6 1484.18,1193.29 1485.8,1197.97 1487.42,1202.63 1489.04,1207.27 1490.66,1211.9 1492.28,1216.51 1493.9,1221.09 1495.52,1225.66 1497.14,1230.22 1498.77,1234.75 1500.39,1239.26 1502.01,1243.75 1503.64,1248.23 1505.26,1252.68 1506.89,1257.11 1508.51,1261.52 1510.14,1265.91 1511.77,1270.28 1513.39,1274.62 1515.02,1278.95 1516.65,1283.24 1518.28,1287.52 1519.91,1291.77 1521.54,1295.99 1523.17,1300.19 1524.8,1304.37 1526.43,1308.51 1528.06,1312.62 1529.69,1316.71 1531.33,1320.76 1532.96,1324.78 1534.6,1328.76 1536.23,1332.71 1537.87,1336.61 1539.51,1340.48 1541.15,1344.29 1542.79,1348.05 1544.43,1351.75 1546.07,1355.39 1547.71,1358.95 1549.36,1362.43 1551,1365.81 1552.65,1369.07 1554.3,1372.19 1555.96,1375.14 1557.61,1377.88 1559.27,1380.38 1560.94,1382.58 1562.61,1384.39 1564.28,1385.72 1565.95,1386.38 1567.63,1386.06 1569.3,1384.1 1570.93,1378.45 1571.62,1371.8 1571.78,1360.2 1571.44,1350.46 1570.99,1342.62 1570.47,1335.42 1569.91,1328.61 1569.33,1322.08 1568.73,1315.77 1568.11,1309.62 1567.48,1303.62 1566.85,1297.74 1566.2,1291.95 1565.55,1286.26 1564.89,1280.64 1564.23,1275.08 1563.56,1269.59 1562.89,1264.16 1562.01,1257.17 1561.13,1250.26 1560.24,1243.41 1559.35,1236.63 1558.19,1227.91 1557.02,1219.27 1555.84,1210.71 1554.66,1202.22 1553.48,1193.8 1552.29,1185.45 1550.74,1174.67 1549.19,1163.99 1547.63,1153.38 1546.07,1142.84 1544.5,1132.35 1542.93,1121.92 1541.36,1111.54 1539.79,1101.18 1538.21,1090.84 1536.64,1080.51 1535.07,1070.18 1533.49,1059.84 1531.92,1049.47 1530.35,1039.07 1528.78,1028.6 1527.22,1018.06 1525.66,1007.43 1524.11,996.681 1522.57,985.786 1521.04,974.708 1519.53,963.401 1518.03,951.802 1516.56,939.823 1515.12,927.329 1513.74,914.1 1512.46,899.731 1511.38,883.314 1511.03,861.535 1513.83,836.059 1515.66,828.652 1517.45,823.516 1519.26,819.661 1521.08,816.554 1522.9,813.566 1524.71,810.309 1526.53,806.903 1528.34,803.392 1530.15,799.713 1531.96,795.928 1533.77,792.213 1535.58,788.738 1537.4,785.581 1539.22,782.668 1541.04,779.709 1542.85,776.211 1544.65,771.927 1546.44,767.295 1548.23,762.687 1550.02,758.003 1551.8,752.812 1553.55,746.397 1555.22,737.72 1556.74,725.986 1558.11,712.451 1559.55,699.954 1561.21,690.547 1562.99,684.293 1564.8,679.988 1566.62,676.931 1568.45,674.933 1570.29,673.875 1572.14,673.58 1573.98,673.869 1575.82,674.597 1577.66,675.651 1579.49,676.934 1581.33,678.359 1583.17,679.854 1585,681.356 1586.84,682.819 1588.67,684.213 1590.51,685.529 1592.35,686.771 1594.19,687.956 1596.02,689.108 1597.86,690.25 1599.7,691.407 1601.54,692.588 1603.38,693.783 1605.21,694.957 1607.05,696.075 1608.89,697.154 1610.73,698.274 1612.56,699.518 1614.4,700.924 1616.24,702.501 1618.07,704.241 1619.9,706.129 1621.74,708.15 1623.57,710.29 1625.39,712.535 1627.22,714.872 1629.05,717.29 1630.88,719.778 1632.7,722.326 1634.53,724.927 1636.35,727.571 1638.18,730.251 1640,732.959 1641.83,735.688 1643.65,738.431 1645.47,741.177 1647.3,743.917 1649.12,746.64 1650.94,749.329 1652.77,751.969 1654.59,754.538 1656.42,757.009 1658.25,759.352 1660.08,761.528 1661.91,763.485 1663.75,765.16 1665.58,766.464 1667.42,767.266 1669.27,767.359 1671.11,766.35 1672.94,763.302 1674.66,753.829 1674.88,747.515 1674.79,741.789 1674.57,737.162 1674.3,733.072 1673.99,729.287 1673.67,725.709 1673.34,722.28 1672.99,718.963 1672.64,715.732 1672.29,712.568 1671.93,709.457 1671.57,706.39 1671.2,703.357 1670.72,699.456 1670.1,694.436 1669.28,687.968 1668.22,679.604 1666.84,668.711 1665.47,657.675 1664.11,646.348 1662.8,634.52 1661.55,621.81 1660.47,607.271 1660.11,598.524 1660.23,587.84 1661.2,579.766 1662.06,576.706 1662.9,574.861 1663.75,573.626 1664.6,572.781 1665.45,572.2 1666.31,571.804 1667.16,571.544 1668.02,571.382 1668.87,571.296 1669.98,571.271 1671.43,571.352 1672.87,571.536 1674.75,571.902 1676.62,572.383 1678.5,572.953 1680.38,573.573 1682.25,574.184 1684.13,574.674 1686.01,574.858 1687.88,574.552 1689.76,573.691 1691.63,572.234 1693.5,569.978 1695.35,566.504 1697.17,561.219 1698.93,553.739 1700.63,544.842 1702.33,536.305 1704.1,529.301 1705.91,523.801 1707.74,519.148 1709.58,514.976 1711.43,511.523 1713.29,509.022 1715.17,507.377 1717.04,506.4 1718.92,505.93 1720.8,505.838 1722.68,506.014 1724.55,506.359 1726.43,506.787 1728.31,507.232 1730.18,507.66 1732.06,508.077 1733.94,508.525 1735.81,509.065 1737.69,509.752 1739.57,510.626 1741.44,511.702 1743.31,512.98 1745.19,514.444 1747.06,516.067 1748.93,517.812 1750.8,519.634 1752.67,521.484 1754.54,523.319 1756.41,525.116 1758.28,526.877 1760.15,528.621 1762.02,530.359 1763.89,532.079 1765.76,533.749 1767.63,535.326 1769.5,536.76 1771.38,538.006 1773.25,539.029 1775.13,539.806 1777,540.327 1778.88,540.588 1780.76,540.59 1782.64,540.316 1784.51,539.675 1786.39,538.404 1788.25,536.262 1790.12,533.601 1791.98,530.978 1793.84,528.665 1795.71,526.773 1797.59,525.347 1799.46,524.4 1801.34,523.917 1803.22,523.868 1805.09,524.212 1806.97,524.907 1808.85,525.911 1810.72,527.19 1812.59,528.71 1814.46,530.447 1816.33,532.377 1818.2,534.482 1820.06,536.745 1821.93,539.152 1823.79,541.69 1825.65,544.351 1827.51,547.124 1829.37,550 1831.23,552.974 1833.08,556.037 1834.94,559.185 1836.79,562.411 1838.64,565.711 1840.49,569.081 1842.34,572.515 1844.19,576.01 1846.04,579.563 1847.89,583.17 1849.73,586.828 1851.58,590.534 1853.43,594.285 1855.27,598.078 1857.11,601.912 1858.96,605.783 1860.8,609.69 1862.64,613.631 1864.48,617.603 1866.32,621.605 1868.16,625.635 1870,629.692 1871.84,633.774 1873.68,637.879 1875.52,642.006 1877.35,646.154 1879.19,650.322 1881.03,654.508 1882.86,658.711 1884.7,662.931 1886.54,667.166 1888.37,671.415 1890.21,675.677 1892.04,679.952 1893.88,684.238 1895.71,688.536 1897.55,692.844 1899.38,697.161 1901.22,701.487 1903.05,705.821 1904.88,710.163 1906.72,714.512 1908.55,718.867 1910.38,723.228 1912.22,727.595 1914.05,731.967 1915.88,736.343 1917.72,740.724 1919.55,745.108 1921.38,749.495 1923.22,753.885 1925.05,758.278 1926.88,762.673 1928.72,767.07 1930.55,771.468 1932.38,775.867 1934.21,780.268 1936.05,784.668 1937.88,789.069 1939.71,793.471 1941.54,797.872 1943.38,802.272 1945.21,806.672 1947.04,811.07 1948.87,815.468 1950.71,819.864 1952.54,824.258 1954.37,828.651 1956.21,833.041 1958.04,837.429 1959.87,841.815 1961.7,846.198 1963.54,850.579 1965.37,854.956 1967.2,859.331 1969.04,863.702 1970.87,868.069 1972.7,872.433 1974.54,876.793 1976.37,881.15 1978.2,885.502 1980.04,889.85 1981.87,894.194 1983.71,898.534 1985.54,902.869 1987.37,907.2 1989.21,911.525 1991.04,915.846 1992.88,920.162 1994.71,924.473 1996.55,928.779 1998.38,933.079 2000.22,937.375 2002.05,941.664 2003.89,945.948 2005.72,950.227 2007.56,954.5 2009.39,958.767 2011.23,963.028 2013.06,967.283 2014.9,971.533 2016.73,975.776 2018.57,980.013 2020.41,984.243 2022.24,988.468 2024.08,992.685 2025.92,996.897 2027.75,1001.1 2029.59,1005.3 2031.43,1009.49 2033.26,1013.68 2035.1,1017.85 2036.94,1022.03 2038.77,1026.19 2040.61,1030.35 2042.45,1034.5 2044.29,1038.64 2046.12,1042.78 2047.96,1046.9 2049.8,1051.03 2051.64,1055.14 2053.48,1059.25 2055.32,1063.34 2057.16,1067.43 2058.99,1071.52 2060.83,1075.59 2062.67,1079.66 2064.51,1083.72 2066.35,1087.77 2068.19,1091.82 2070.03,1095.86 2071.87,1099.88 2073.71,1103.9 2075.55,1107.91 2077.39,1111.92 2079.23,1115.91 2081.07,1119.9 2082.91,1123.88 2084.76,1127.85 2086.6,1131.81 2088.44,1135.76 2090.28,1139.7 2092.12,1143.64 2093.96,1147.56 2095.8,1151.48 2097.65,1155.38 2099.49,1159.28 2101.33,1163.17 2103.17,1167.05 2105.02,1170.92 2106.86,1174.78 2108.7,1178.63 2110.55,1182.47 2112.39,1186.3 2114.23,1190.12 2116.08,1193.93 2117.92,1197.73 2119.77,1201.52 2121.61,1205.29 2123.46,1209.06 2125.3,1212.82 2127.15,1216.57 2128.99,1220.31 2130.84,1224.03 2132.68,1227.75 2134.53,1231.45 2136.37,1235.15 2138.22,1238.83 2140.07,1242.5 2141.91,1246.16 2143.76,1249.81 2145.61,1253.44 2147.45,1257.07 2149.3,1260.68 2151.15,1264.28 2153,1267.87 2154.84,1271.44 2156.69,1275 2158.54,1278.55 2160.39,1282.09 2162.24,1285.61 2164.09,1289.12 2165.94,1292.62 2167.79,1296.1 2169.64,1299.56 2171.49,1303.01 2173.34,1306.45 2175.19,1309.87 2177.04,1313.27 2178.89,1316.66 2180.74,1320.02 2182.59,1323.37 2184.44,1326.7 2186.29,1330.01 2188.15,1333.3 2190,1336.57 2191.85,1339.81 2193.71,1343.02 2195.56,1346.21 2197.41,1349.36 2199.27,1352.48 2201.13,1355.57 2202.98,1358.61 2204.84,1361.6 2206.7,1364.53 2208.55,1367.41 2210.41,1370.2 2212.27,1372.9 2214.14,1375.5 2216,1377.96 2217.86,1380.25 2219.73,1382.33 2221.6,1384.13 2223.48,1385.53 2225.35,1386.34 2227.23,1386.04 2229.1,1381.88 2229.3,1379.8 2229.33,1376.4 2229.19,1373.74 2229.03,1371.8 2228.85,1370.08 2228.67,1368.49 2228.48,1367 2228.29,1365.58 2228.09,1364.22 2227.89,1362.9 2227.68,1361.62 2227.48,1360.38 2227.27,1359.16 2227,1357.62 2226.73,1356.11 2226.46,1354.63 2226.1,1352.75 2225.74,1350.91 2225.38,1349.11 2225.02,1347.33 2224.55,1345.06 2224.08,1342.83 2223.61,1340.64 2222.99,1337.83 2222.37,1335.06 2221.75,1332.33 2221.13,1329.63 2220.32,1326.17 2219.5,1322.75 2218.69,1319.37 2217.63,1315.03 2216.57,1310.73 2215.51,1306.48 2214.12,1301 2212.74,1295.58 2211.35,1290.2 2209.97,1284.87 2208.16,1277.99 2206.35,1271.16 2204.55,1264.38 2202.73,1257.64 2200.92,1250.94 2199.11,1244.27 2197.3,1237.63 2195.48,1231.02 2193.67,1224.44 2191.85,1217.87 2190.04,1211.33 2188.22,1204.81 2186.4,1198.3 2184.59,1191.81 2182.77,1185.34 2180.95,1178.89 2179.13,1172.44 2177.31,1166.01 2175.49,1159.59 2173.67,1153.18 2171.85,1146.78 2170.03,1140.38 2168.21,1133.99 2166.39,1127.61 2164.57,1121.23 2162.74,1114.85 2160.92,1108.48 2159.1,1102.1 2157.28,1095.72 2155.46,1089.34 2153.64,1082.95 2151.82,1076.56 2150,1070.16 2148.18,1063.74 2146.36,1057.32 2144.54,1050.87 2142.72,1044.41 2140.9,1037.94 2139.08,1031.44 2137.27,1024.91 2135.45,1018.35 2133.64,1011.77 2131.82,1005.15 2130.01,998.487 2128.2,991.782 2126.39,985.028 2124.58,978.218 2122.78,971.346 2120.97,964.404 2119.17,957.381 2117.37,950.266 2115.58,943.044 2113.79,935.696 2112.01,928.198 2110.23,920.518 2108.46,912.612 2106.7,904.416 2104.96,895.829 2103.24,886.682 2101.56,876.63 2099.98,864.731 2098.99,843.984 2099.45,835.526 2099.84,831.994 2100.25,829.232 2100.68,826.94 2101.12,825.001 2101.58,823.335 2102.04,821.883 2102.5,820.599 2102.97,819.446 2103.44,818.392 2103.91,817.406 2104.52,816.177 2105.31,814.577 2106.35,812.357 2107.37,809.962 2108.71,806.736 2110.44,802.346 2112.16,797.642 2113.88,792.913 2115.61,788.597 2117.36,784.861 2119.11,781.455 2120.85,777.615 2122.56,772.293 2124.25,766.077 2125.93,759.894 2127.58,752.878 2129.07,741.341 2129.27,711.203 2129.73,692.271 2132.35,679.862 2134.15,676.37 2135.92,674.506 2137.7,673.703 2139.48,673.612 2141.26,674.008 2143.03,674.748 2144.81,675.73 2146.58,676.881 2148.35,678.14 2150.13,679.455 2151.9,680.787 2153.67,682.101 2155.44,683.375 2157.22,684.594 2158.99,685.754 2160.77,686.862 2162.54,687.927 2164.31,688.967 2166.09,689.997 2167.86,691.035 2169.64,692.09 2171.41,693.162 2173.18,694.234 2174.96,695.278 2176.73,696.276 2178.51,697.253 2180.28,698.267 2182.06,699.375 2183.83,700.601 2185.6,701.952 2187.37,703.419 2189.14,704.992 2190.91,706.662 2192.68,708.416 2194.45,710.246 2196.22,712.144 2197.99,714.1 2199.75,716.109 2201.52,718.164 2203.29,720.259 2205.05,722.39 2206.82,724.551 2208.58,726.739 2210.35,728.95 2212.11,731.179 2213.88,733.422 2215.64,735.678 2217.41,737.94 2219.17,740.206 2220.94,742.469 2222.7,744.726 2224.46,746.97 2226.23,749.194 2227.99,751.388 2229.76,753.543 2231.53,755.646 2233.29,757.682 2235.06,759.632 2236.83,761.473 2238.6,763.174 2240.37,764.695 2242.14,765.976 2243.92,766.931 2245.69,767.409 2247.47,767.112 2249.25,765.201 2250.12,762.589 2250.51,759.837 2250.63,757.451 2250.61,754.579 2250.49,752.265 2250.35,750.361 2250.19,748.661 2250.02,747.097 2249.85,745.632 2249.66,744.244 2249.48,742.917 2249.29,741.641 2249.1,740.408 2248.91,739.211 2248.71,738.045 2248.52,736.906 2248.32,735.791 2248.12,734.697 2247.86,733.302 2247.61,731.935 2247.34,730.593 2247.08,729.271 2246.74,727.581 2246.4,725.918 2246.06,724.279 2245.61,722.179 2245.16,720.108 2244.71,718.063 2244.12,715.436 2243.54,712.839 2242.77,709.5 2242.01,706.195 2241.01,701.936 2240.01,697.71 2238.71,692.25 2237.02,685.184 2235.33,678.127 2233.64,671.052 2231.95,663.936 2230.27,656.751 2228.58,649.469 2226.91,642.052 2225.24,634.45 2223.58,626.591 2221.93,618.353 2220.31,609.506 2218.75,599.473 2217.48,584.294 2201.21,717.804 2198.74,714.95 2196.94,712.932 2195.14,710.973 2193.33,709.08 2191.53,707.262 2189.72,705.53 2187.92,703.893 2186.11,702.363 2184.31,700.953 2182.5,699.669 2180.69,698.512 2178.88,697.46 2177.07,696.462 2175.26,695.451 2173.45,694.394 2171.64,693.303 2169.83,692.209 2168.03,691.131 2166.22,690.072 2164.41,689.021 2162.6,687.962 2160.79,686.876 2158.98,685.747 2157.17,684.563 2155.36,683.318 2153.56,682.017 2151.75,680.674 2149.94,679.316 2148.13,677.979 2146.33,676.707 2144.52,675.556 2142.71,674.591 2140.9,673.897 2139.09,673.584 2137.27,673.821 2135.46,674.872 2133.66,677.136 2131.88,681.156 2130.17,688.541 2129.4,720.647 2129.15,740.193 2126.81,756.431 2125.05,763.13 2123.34,769.45 2121.61,775.47 2119.84,779.959 2118.06,783.49 2116.28,787.112 2114.51,791.291 2112.75,796.009 2110.99,800.864 2109.23,805.444 2107.46,809.751 2105.69,813.795 2103.91,817.406 2102.14,821.596 2100.42,828.273 2099,843.49 2131.33,1225.03 2133.56,1229.51 2135.34,1233.08 2137.12,1236.64 2138.9,1240.19 2140.68,1243.73 2142.47,1247.25 2144.25,1250.77 2146.03,1254.28 2147.81,1257.77 2149.6,1261.26 2151.38,1264.73 2153.16,1268.19 2154.95,1271.64 2156.73,1275.08 2158.51,1278.5 2160.3,1281.92 2162.08,1285.32 2163.87,1288.7 2165.65,1292.08 2167.44,1295.44 2169.22,1298.79 2171.01,1302.12 2172.79,1305.44 2174.58,1308.75 2176.36,1312.04 2178.15,1315.31 2179.94,1318.57 2181.72,1321.81 2183.51,1325.03 2185.3,1328.24 2187.09,1331.42 2188.87,1334.59 2190.66,1337.73 2192.45,1340.85 2194.24,1343.94 2196.03,1347.01 2197.82,1350.05 2199.61,1353.05 2201.4,1356.02 2203.19,1358.95 2204.98,1361.83 2206.78,1364.66 2208.57,1367.43 2210.36,1370.13 2212.16,1372.74 2213.96,1375.25 2215.75,1377.64 2217.55,1379.88 2219.36,1381.93 2221.16,1383.73 2222.97,1385.2 2224.78,1386.18 2226.59,1386.33 2228.4,1384.52 2229.28,1380.23 2229.34,1378.79 2229.35,1377.47 2229.32,1376.22 2229.27,1375.09 2229.21,1374.05 2229.14,1373.09 2229.06,1372.18 2228.98,1371.32 2228.9,1370.49 2228.81,1369.7 2228.72,1368.94 2228.61,1367.97 2228.49,1367.05 2228.36,1366.15 2228.2,1365.01 2228.04,1363.91 2227.88,1362.84 2227.71,1361.8 2227.5,1360.48 2227.28,1359.19 2227.06,1357.92 2226.77,1356.32 2226.48,1354.75 2226.19,1353.21 2225.81,1351.25 2225.43,1349.33 2225.05,1347.45 2224.66,1345.59 2224.16,1343.22 2223.66,1340.89 2223.16,1338.59 2222.5,1335.65 2221.84,1332.75 2221.18,1329.88 2220.32,1326.21 2219.46,1322.59 2218.6,1319.01 2217.74,1315.46 2216.61,1310.9 2215.49,1306.39 2214.36,1301.92 2212.89,1296.17 2211.42,1290.46 2209.95,1284.81 2208.48,1279.19 2206.56,1271.95 2204.65,1264.76 2202.73,1257.61 2200.81,1250.51 2198.89,1243.44 2196.96,1236.41 2195.04,1229.4 2193.11,1222.43 2191.19,1215.48 2189.26,1208.55 2187.34,1201.64 2185.41,1194.76 2183.48,1187.89 2181.56,1181.04 2179.63,1174.2 2177.7,1167.38 2175.77,1160.57 2173.84,1153.77 2171.91,1146.99 2169.98,1140.21 2168.05,1133.43 2166.12,1126.67 2164.19,1119.9 2162.26,1113.14 2160.33,1106.39 2158.39,1099.62 2156.46,1092.86 2154.53,1086.09 2152.6,1079.32 2150.67,1072.53 2148.74,1065.74 2146.81,1058.93 2144.89,1052.1 2142.96,1045.26 2141.03,1038.39 2139.1,1031.5 2137.18,1024.58 2135.25,1017.63 2133.33,1010.64 2131.4,1003.62 2129.48,996.543 2127.56,989.419 2125.65,982.237 2123.73,974.989 2121.82,967.668 2119.91,960.261 2118,952.757 2116.1,945.138 2114.2,937.384 2112.3,929.469 2110.42,921.356 2108.54,912.995 2106.68,904.311 2104.83,895.186 2103.01,885.409 2101.25,874.526 2099.62,861.079 2099.02,851.45 2099.6,834.039 2100.72,826.735 2101.7,822.945 2102.68,820.143 2103.68,817.886 2104.67,815.87 2105.67,813.835 2106.96,810.936 2108.25,807.852 2109.92,803.691 2111.59,799.237 2113.25,794.628 2114.91,790.27 2116.59,786.434 2118.28,783.061 2119.97,779.693 2121.64,775.395 2123.27,769.684 2124.9,763.694 2126.52,757.615 2128.09,750.07 2129.36,735.375 2129.25,708.718 2130.01,689.74 2132.26,680.095 2133.98,676.624 2135.69,674.683 2137.4,673.78 2139.12,673.586 2140.84,673.879 2142.55,674.519 2144.26,675.407 2145.97,676.472 2147.69,677.656 2149.4,678.909 2151.11,680.192 2152.82,681.472 2154.53,682.723 2156.24,683.929 2157.95,685.081 2159.66,686.179 2161.38,687.232 2163.09,688.25 2164.8,689.249 2166.51,690.244 2168.22,691.249 2169.94,692.271 2171.65,693.307 2173.36,694.34 2175.07,695.344 2176.79,696.305 2178.5,697.247 2180.21,698.225 2181.92,699.287 2183.63,700.46 2185.34,701.748 2187.05,703.146 2188.76,704.646 2190.47,706.236 2192.18,707.909 2193.89,709.654 2195.59,711.464 2197.3,713.332 2199,715.251 2200.71,717.215 2202.41,719.219 2204.12,721.259 2205.82,723.329 2207.53,725.426 2209.23,727.547 2210.93,729.686 2212.64,731.843 2214.34,734.012 2216.04,736.19 2217.75,738.375 2219.45,740.561 2221.15,742.745 2222.85,744.923 2224.56,747.087 2226.26,749.232 2227.96,751.35 2229.67,753.431 2231.37,755.464 2233.08,757.437 2234.78,759.332 2236.49,761.129 2238.2,762.802 2239.91,764.317 2241.62,765.625 2243.33,766.658 2245.04,767.303 2246.76,767.356 2248.47,766.347 2250.17,762.319 2250.55,759.288 2238.4,574.263 2237.69,574.05 2237.26,573.916 2236.7,573.739 2235.98,573.505 2235.04,573.202 2233.82,572.82 2232.22,572.36 2230.63,571.959 2229.04,571.633 2227.45,571.399 2225.86,571.278 2224.27,571.308 2222.68,571.565 2221.08,572.222 2219.5,573.728 2217.93,577.963 2220.07,741.358 2226.28,749.252 2227.86,751.219 2229.44,753.154 2231.02,755.05 2232.6,756.896 2234.19,758.68 2235.77,760.386 2237.36,761.995 2238.94,763.484 2240.53,764.82 2242.12,765.959 2243.71,766.838 2245.3,767.355 2246.89,767.326 2248.48,766.339 2250.06,762.854 2250.42,760.676 2250.64,755.942 2250.22,748.976 2249.9,746.085 2249.58,743.599 2249.24,741.3 2248.89,739.133 2248.55,737.066 2248.19,735.077 2247.84,733.151 2247.48,731.278 2247.12,729.447 2246.76,727.653 2246.39,725.889 2246.03,724.153 2245.66,722.439 2245.19,720.241 2244.71,718.072 2244.23,715.927 2243.61,713.17 2242.99,710.441 2242.18,706.928 2241.36,703.447 2240.3,698.957 2238.93,693.162 2237.14,685.668 2235.34,678.186 2233.55,670.685 2231.76,663.135 2229.98,655.505 2228.19,647.759 2226.42,639.85 2224.65,631.713 2222.9,623.246 2221.16,614.266 2219.47,604.374 2217.9,592.117 2217.59,587.907 2217.53,581.748 2218.68,575.255 2219.18,574.234 2219.65,573.516 2220.13,572.971 2220.61,572.549 2221.09,572.219 2221.57,571.962 2222.05,571.761 2222.53,571.605 2223.15,571.457 2223.78,571.358 2224.59,571.287 2225.64,571.272 2226.7,571.326 2228.07,571.477 2229.44,571.706 2231.22,572.1 2233,572.579 2234.79,573.121 2236.57,573.695 2238.35,574.248 2240.13,574.687 2241.92,574.859 2243.7,574.585 2245.48,573.759 2247.26,572.282 2249.03,569.795 2250.77,565.281 2252.4,555.886 2253.69,541.029 2255.16,529.485 2256.87,522.16 2258.58,516.607 2260.32,512.18 2262.09,509.225 2263.87,507.439 2265.65,506.43 2267.43,505.947 2269.22,505.833 2271,505.97 2272.78,506.269 2274.56,506.652 2276.35,507.065 2278.13,507.47 2279.91,507.858 2281.69,508.251 2283.48,508.69 2285.26,509.221 2287.04,509.881 2288.82,510.691 2290.6,511.658 2292.38,512.776 "/>
<polyline clip-path="url(#clip502)" style="stroke:#e26f46; stroke-linecap:round; stroke-linejoin:round; stroke-width:4; stroke-opacity:1; fill:none" points="279.894,1262.93 458.314,160.256 "/>
<polyline clip-path="url(#clip502)" style="stroke:#e26f46; stroke-linecap:round; stroke-linejoin:round; stroke-width:4; stroke-opacity:1; fill:none" points="434.795,192.919 458.314,160.256 470.333,198.669 "/>
<polyline clip-path="url(#clip502)" style="stroke:#e26f46; stroke-linecap:round; stroke-linejoin:round; stroke-width:4; stroke-opacity:1; fill:none" points="458.314,160.256 279.894,1262.93 "/>
<path clip-path="url(#clip500)" d="M2015.89 270.476 L2281.65 270.476 L2281.65 166.796 L2015.89 166.796  Z" fill="#ffffff" fill-rule="evenodd" fill-opacity="1"/>
<polyline clip-path="url(#clip500)" style="stroke:#000000; stroke-linecap:round; stroke-linejoin:round; stroke-width:4; stroke-opacity:1; fill:none" points="2015.89,270.476 2281.65,270.476 2281.65,166.796 2015.89,166.796 2015.89,270.476 "/>
<polyline clip-path="url(#clip500)" style="stroke:#0000ff; stroke-linecap:round; stroke-linejoin:round; stroke-width:8; stroke-opacity:1; fill:none" stroke-dasharray="32, 20" points="2039.6,218.636 2181.81,218.636 "/>
<path clip-path="url(#clip500)" d="M2219.36 238.323 Q2217.55 242.953 2215.84 244.365 Q2214.13 245.777 2211.26 245.777 L2207.85 245.777 L2207.85 242.212 L2210.35 242.212 Q2212.11 242.212 2213.08 241.379 Q2214.06 240.545 2215.24 237.443 L2216 235.499 L2205.52 209.99 L2210.03 209.99 L2218.13 230.268 L2226.23 209.99 L2230.75 209.99 L2219.36 238.323 Z" fill="#000000" fill-rule="nonzero" fill-opacity="1" /><path clip-path="url(#clip500)" d="M2238.04 231.981 L2245.68 231.981 L2245.68 205.615 L2237.37 207.282 L2237.37 203.022 L2245.63 201.356 L2250.31 201.356 L2250.31 231.981 L2257.95 231.981 L2257.95 235.916 L2238.04 235.916 L2238.04 231.981 Z" fill="#000000" fill-rule="nonzero" fill-opacity="1" /></svg>
