<?xml version="1.0" encoding="utf-8"?>
<svg xmlns="http://www.w3.org/2000/svg" xmlns:xlink="http://www.w3.org/1999/xlink" width="600" height="400" viewBox="0 0 2400 1600">
<defs>
  <clipPath id="clip190">
    <rect x="0" y="0" width="2400" height="1600"/>
  </clipPath>
</defs>
<path clip-path="url(#clip190)" d="M0 1600 L2400 1600 L2400 0 L0 0  Z" fill="#ffffff" fill-rule="evenodd" fill-opacity="1"/>
<defs>
  <clipPath id="clip191">
    <rect x="219" y="47" width="2134" height="1377"/>
  </clipPath>
</defs>
<path clip-path="url(#clip190)" d="M219.033 1423.18 L2352.76 1423.18 L2352.76 123.472 L219.033 123.472  Z" fill="#ffffff" fill-rule="evenodd" fill-opacity="1"/>
<defs>
  <clipPath id="clip192">
    <rect x="219" y="123" width="2135" height="1301"/>
  </clipPath>
</defs>
<polyline clip-path="url(#clip192)" style="stroke:#000000; stroke-linecap:round; stroke-linejoin:round; stroke-width:2; stroke-opacity:0.1; fill:none" points="227.806,1423.18 227.806,123.472 "/>
<polyline clip-path="url(#clip192)" style="stroke:#000000; stroke-linecap:round; stroke-linejoin:round; stroke-width:2; stroke-opacity:0.1; fill:none" points="743.959,1423.18 743.959,123.472 "/>
<polyline clip-path="url(#clip192)" style="stroke:#000000; stroke-linecap:round; stroke-linejoin:round; stroke-width:2; stroke-opacity:0.1; fill:none" points="1260.11,1423.18 1260.11,123.472 "/>
<polyline clip-path="url(#clip192)" style="stroke:#000000; stroke-linecap:round; stroke-linejoin:round; stroke-width:2; stroke-opacity:0.1; fill:none" points="1776.27,1423.18 1776.27,123.472 "/>
<polyline clip-path="url(#clip192)" style="stroke:#000000; stroke-linecap:round; stroke-linejoin:round; stroke-width:2; stroke-opacity:0.1; fill:none" points="2292.42,1423.18 2292.42,123.472 "/>
<polyline clip-path="url(#clip192)" style="stroke:#000000; stroke-linecap:round; stroke-linejoin:round; stroke-width:2; stroke-opacity:0.1; fill:none" points="219.033,1243.06 2352.76,1243.06 "/>
<polyline clip-path="url(#clip192)" style="stroke:#000000; stroke-linecap:round; stroke-linejoin:round; stroke-width:2; stroke-opacity:0.1; fill:none" points="219.033,1000 2352.76,1000 "/>
<polyline clip-path="url(#clip192)" style="stroke:#000000; stroke-linecap:round; stroke-linejoin:round; stroke-width:2; stroke-opacity:0.1; fill:none" points="219.033,756.946 2352.76,756.946 "/>
<polyline clip-path="url(#clip192)" style="stroke:#000000; stroke-linecap:round; stroke-linejoin:round; stroke-width:2; stroke-opacity:0.1; fill:none" points="219.033,513.886 2352.76,513.886 "/>
<polyline clip-path="url(#clip192)" style="stroke:#000000; stroke-linecap:round; stroke-linejoin:round; stroke-width:2; stroke-opacity:0.1; fill:none" points="219.033,270.827 2352.76,270.827 "/>
<polyline clip-path="url(#clip190)" style="stroke:#000000; stroke-linecap:round; stroke-linejoin:round; stroke-width:4; stroke-opacity:1; fill:none" points="219.033,1423.18 2352.76,1423.18 "/>
<polyline clip-path="url(#clip190)" style="stroke:#000000; stroke-linecap:round; stroke-linejoin:round; stroke-width:4; stroke-opacity:1; fill:none" points="227.806,1423.18 227.806,1404.28 "/>
<polyline clip-path="url(#clip190)" style="stroke:#000000; stroke-linecap:round; stroke-linejoin:round; stroke-width:4; stroke-opacity:1; fill:none" points="743.959,1423.18 743.959,1404.28 "/>
<polyline clip-path="url(#clip190)" style="stroke:#000000; stroke-linecap:round; stroke-linejoin:round; stroke-width:4; stroke-opacity:1; fill:none" points="1260.11,1423.18 1260.11,1404.28 "/>
<polyline clip-path="url(#clip190)" style="stroke:#000000; stroke-linecap:round; stroke-linejoin:round; stroke-width:4; stroke-opacity:1; fill:none" points="1776.27,1423.18 1776.27,1404.28 "/>
<polyline clip-path="url(#clip190)" style="stroke:#000000; stroke-linecap:round; stroke-linejoin:round; stroke-width:4; stroke-opacity:1; fill:none" points="2292.42,1423.18 2292.42,1404.28 "/>
<path clip-path="url(#clip190)" d="M205.19 1454.1 Q201.579 1454.1 199.751 1457.66 Q197.945 1461.2 197.945 1468.33 Q197.945 1475.44 199.751 1479.01 Q201.579 1482.55 205.19 1482.55 Q208.825 1482.55 210.63 1479.01 Q212.459 1475.44 212.459 1468.33 Q212.459 1461.2 210.63 1457.66 Q208.825 1454.1 205.19 1454.1 M205.19 1450.39 Q211.001 1450.39 214.056 1455 Q217.135 1459.58 217.135 1468.33 Q217.135 1477.06 214.056 1481.67 Q211.001 1486.25 205.19 1486.25 Q199.38 1486.25 196.302 1481.67 Q193.246 1477.06 193.246 1468.33 Q193.246 1459.58 196.302 1455 Q199.38 1450.39 205.19 1450.39 Z" fill="#000000" fill-rule="nonzero" fill-opacity="1" /><path clip-path="url(#clip190)" d="M225.352 1479.7 L230.237 1479.7 L230.237 1485.58 L225.352 1485.58 L225.352 1479.7 Z" fill="#000000" fill-rule="nonzero" fill-opacity="1" /><path clip-path="url(#clip190)" d="M250.422 1454.1 Q246.811 1454.1 244.982 1457.66 Q243.176 1461.2 243.176 1468.33 Q243.176 1475.44 244.982 1479.01 Q246.811 1482.55 250.422 1482.55 Q254.056 1482.55 255.861 1479.01 Q257.69 1475.44 257.69 1468.33 Q257.69 1461.2 255.861 1457.66 Q254.056 1454.1 250.422 1454.1 M250.422 1450.39 Q256.232 1450.39 259.287 1455 Q262.366 1459.58 262.366 1468.33 Q262.366 1477.06 259.287 1481.67 Q256.232 1486.25 250.422 1486.25 Q244.611 1486.25 241.533 1481.67 Q238.477 1477.06 238.477 1468.33 Q238.477 1459.58 241.533 1455 Q244.611 1450.39 250.422 1450.39 Z" fill="#000000" fill-rule="nonzero" fill-opacity="1" /><path clip-path="url(#clip190)" d="M715.695 1481.64 L732.015 1481.64 L732.015 1485.58 L710.07 1485.58 L710.07 1481.64 Q712.732 1478.89 717.316 1474.26 Q721.922 1469.61 723.103 1468.27 Q725.348 1465.74 726.228 1464.01 Q727.13 1462.25 727.13 1460.56 Q727.13 1457.8 725.186 1456.07 Q723.265 1454.33 720.163 1454.33 Q717.964 1454.33 715.51 1455.09 Q713.08 1455.86 710.302 1457.41 L710.302 1452.69 Q713.126 1451.55 715.58 1450.97 Q718.033 1450.39 720.07 1450.39 Q725.441 1450.39 728.635 1453.08 Q731.829 1455.77 731.829 1460.26 Q731.829 1462.39 731.019 1464.31 Q730.232 1466.2 728.126 1468.8 Q727.547 1469.47 724.445 1472.69 Q721.343 1475.88 715.695 1481.64 Z" fill="#000000" fill-rule="nonzero" fill-opacity="1" /><path clip-path="url(#clip190)" d="M741.829 1479.7 L746.714 1479.7 L746.714 1485.58 L741.829 1485.58 L741.829 1479.7 Z" fill="#000000" fill-rule="nonzero" fill-opacity="1" /><path clip-path="url(#clip190)" d="M756.945 1451.02 L775.301 1451.02 L775.301 1454.96 L761.227 1454.96 L761.227 1463.43 Q762.246 1463.08 763.265 1462.92 Q764.283 1462.73 765.302 1462.73 Q771.089 1462.73 774.468 1465.9 Q777.848 1469.08 777.848 1474.49 Q777.848 1480.07 774.376 1483.17 Q770.903 1486.25 764.584 1486.25 Q762.408 1486.25 760.14 1485.88 Q757.894 1485.51 755.487 1484.77 L755.487 1480.07 Q757.57 1481.2 759.792 1481.76 Q762.015 1482.32 764.491 1482.32 Q768.496 1482.32 770.834 1480.21 Q773.172 1478.1 773.172 1474.49 Q773.172 1470.88 770.834 1468.77 Q768.496 1466.67 764.491 1466.67 Q762.616 1466.67 760.741 1467.08 Q758.89 1467.5 756.945 1468.38 L756.945 1451.02 Z" fill="#000000" fill-rule="nonzero" fill-opacity="1" /><path clip-path="url(#clip190)" d="M1227.28 1451.02 L1245.63 1451.02 L1245.63 1454.96 L1231.56 1454.96 L1231.56 1463.43 Q1232.58 1463.08 1233.6 1462.92 Q1234.61 1462.73 1235.63 1462.73 Q1241.42 1462.73 1244.8 1465.9 Q1248.18 1469.08 1248.18 1474.49 Q1248.18 1480.07 1244.71 1483.17 Q1241.23 1486.25 1234.92 1486.25 Q1232.74 1486.25 1230.47 1485.88 Q1228.23 1485.51 1225.82 1484.77 L1225.82 1480.07 Q1227.9 1481.2 1230.12 1481.76 Q1232.35 1482.32 1234.82 1482.32 Q1238.83 1482.32 1241.17 1480.21 Q1243.5 1478.1 1243.5 1474.49 Q1243.5 1470.88 1241.17 1468.77 Q1238.83 1466.67 1234.82 1466.67 Q1232.95 1466.67 1231.07 1467.08 Q1229.22 1467.5 1227.28 1468.38 L1227.28 1451.02 Z" fill="#000000" fill-rule="nonzero" fill-opacity="1" /><path clip-path="url(#clip190)" d="M1257.39 1479.7 L1262.28 1479.7 L1262.28 1485.58 L1257.39 1485.58 L1257.39 1479.7 Z" fill="#000000" fill-rule="nonzero" fill-opacity="1" /><path clip-path="url(#clip190)" d="M1282.46 1454.1 Q1278.85 1454.1 1277.02 1457.66 Q1275.22 1461.2 1275.22 1468.33 Q1275.22 1475.44 1277.02 1479.01 Q1278.85 1482.55 1282.46 1482.55 Q1286.1 1482.55 1287.9 1479.01 Q1289.73 1475.44 1289.73 1468.33 Q1289.73 1461.2 1287.9 1457.66 Q1286.1 1454.1 1282.46 1454.1 M1282.46 1450.39 Q1288.27 1450.39 1291.33 1455 Q1294.41 1459.58 1294.41 1468.33 Q1294.41 1477.06 1291.33 1481.67 Q1288.27 1486.25 1282.46 1486.25 Q1276.65 1486.25 1273.57 1481.67 Q1270.52 1477.06 1270.52 1468.33 Q1270.52 1459.58 1273.57 1455 Q1276.65 1450.39 1282.46 1450.39 Z" fill="#000000" fill-rule="nonzero" fill-opacity="1" /><path clip-path="url(#clip190)" d="M1742.58 1451.02 L1764.81 1451.02 L1764.81 1453.01 L1752.26 1485.58 L1747.38 1485.58 L1759.18 1454.96 L1742.58 1454.96 L1742.58 1451.02 Z" fill="#000000" fill-rule="nonzero" fill-opacity="1" /><path clip-path="url(#clip190)" d="M1773.93 1479.7 L1778.81 1479.7 L1778.81 1485.58 L1773.93 1485.58 L1773.93 1479.7 Z" fill="#000000" fill-rule="nonzero" fill-opacity="1" /><path clip-path="url(#clip190)" d="M1789.04 1451.02 L1807.4 1451.02 L1807.4 1454.96 L1793.33 1454.96 L1793.33 1463.43 Q1794.34 1463.08 1795.36 1462.92 Q1796.38 1462.73 1797.4 1462.73 Q1803.19 1462.73 1806.57 1465.9 Q1809.95 1469.08 1809.95 1474.49 Q1809.95 1480.07 1806.47 1483.17 Q1803 1486.25 1796.68 1486.25 Q1794.51 1486.25 1792.24 1485.88 Q1789.99 1485.51 1787.58 1484.77 L1787.58 1480.07 Q1789.67 1481.2 1791.89 1481.76 Q1794.11 1482.32 1796.59 1482.32 Q1800.59 1482.32 1802.93 1480.21 Q1805.27 1478.1 1805.27 1474.49 Q1805.27 1470.88 1802.93 1468.77 Q1800.59 1466.67 1796.59 1466.67 Q1794.71 1466.67 1792.84 1467.08 Q1790.99 1467.5 1789.04 1468.38 L1789.04 1451.02 Z" fill="#000000" fill-rule="nonzero" fill-opacity="1" /><path clip-path="url(#clip190)" d="M2244.49 1481.64 L2252.13 1481.64 L2252.13 1455.28 L2243.82 1456.95 L2243.82 1452.69 L2252.08 1451.02 L2256.76 1451.02 L2256.76 1481.64 L2264.4 1481.64 L2264.4 1485.58 L2244.49 1485.58 L2244.49 1481.64 Z" fill="#000000" fill-rule="nonzero" fill-opacity="1" /><path clip-path="url(#clip190)" d="M2283.84 1454.1 Q2280.23 1454.1 2278.4 1457.66 Q2276.6 1461.2 2276.6 1468.33 Q2276.6 1475.44 2278.4 1479.01 Q2280.23 1482.55 2283.84 1482.55 Q2287.48 1482.55 2289.28 1479.01 Q2291.11 1475.44 2291.11 1468.33 Q2291.11 1461.2 2289.28 1457.66 Q2287.48 1454.1 2283.84 1454.1 M2283.84 1450.39 Q2289.65 1450.39 2292.71 1455 Q2295.79 1459.58 2295.79 1468.33 Q2295.79 1477.06 2292.71 1481.67 Q2289.65 1486.25 2283.84 1486.25 Q2278.03 1486.25 2274.95 1481.67 Q2271.9 1477.06 2271.9 1468.33 Q2271.9 1459.58 2274.95 1455 Q2278.03 1450.39 2283.84 1450.39 Z" fill="#000000" fill-rule="nonzero" fill-opacity="1" /><path clip-path="url(#clip190)" d="M2304 1479.7 L2308.89 1479.7 L2308.89 1485.58 L2304 1485.58 L2304 1479.7 Z" fill="#000000" fill-rule="nonzero" fill-opacity="1" /><path clip-path="url(#clip190)" d="M2329.07 1454.1 Q2325.46 1454.1 2323.63 1457.66 Q2321.83 1461.2 2321.83 1468.33 Q2321.83 1475.44 2323.63 1479.01 Q2325.46 1482.55 2329.07 1482.55 Q2332.71 1482.55 2334.51 1479.01 Q2336.34 1475.44 2336.34 1468.33 Q2336.34 1461.2 2334.51 1457.66 Q2332.71 1454.1 2329.07 1454.1 M2329.07 1450.39 Q2334.88 1450.39 2337.94 1455 Q2341.02 1459.58 2341.02 1468.33 Q2341.02 1477.06 2337.94 1481.67 Q2334.88 1486.25 2329.07 1486.25 Q2323.26 1486.25 2320.18 1481.67 Q2317.13 1477.06 2317.13 1468.33 Q2317.13 1459.58 2320.18 1455 Q2323.26 1450.39 2329.07 1450.39 Z" fill="#000000" fill-rule="nonzero" fill-opacity="1" /><path clip-path="url(#clip190)" d="M1254.27 1561.55 Q1255.42 1563.08 1258.86 1563.08 L1261.69 1563.08 L1261.69 1568.04 L1258.16 1568.04 Q1252.43 1568.04 1249.82 1564.99 Q1247.21 1561.87 1247.21 1555.12 L1247.21 1538.25 L1233.84 1538.25 L1233.84 1532.4 L1266.72 1532.4 L1266.72 1538.25 L1253.19 1538.25 L1253.19 1555.47 Q1253.19 1560.09 1254.27 1561.55 Z" fill="#000000" fill-rule="nonzero" fill-opacity="1" /><path clip-path="url(#clip190)" d="M1303.13 1578.87 L1303.13 1583.42 L1269.26 1583.42 L1269.26 1578.87 L1303.13 1578.87 Z" fill="#000000" fill-rule="nonzero" fill-opacity="1" /><path clip-path="url(#clip190)" d="M1310.58 1562.63 L1321.08 1562.63 L1321.08 1526.38 L1309.65 1528.67 L1309.65 1522.82 L1321.02 1520.52 L1327.45 1520.52 L1327.45 1562.63 L1337.95 1562.63 L1337.95 1568.04 L1310.58 1568.04 L1310.58 1562.63 Z" fill="#000000" fill-rule="nonzero" fill-opacity="1" /><polyline clip-path="url(#clip190)" style="stroke:#000000; stroke-linecap:round; stroke-linejoin:round; stroke-width:4; stroke-opacity:1; fill:none" points="219.033,1423.18 219.033,123.472 "/>
<polyline clip-path="url(#clip190)" style="stroke:#000000; stroke-linecap:round; stroke-linejoin:round; stroke-width:4; stroke-opacity:1; fill:none" points="219.033,1243.06 237.931,1243.06 "/>
<polyline clip-path="url(#clip190)" style="stroke:#000000; stroke-linecap:round; stroke-linejoin:round; stroke-width:4; stroke-opacity:1; fill:none" points="219.033,1000 237.931,1000 "/>
<polyline clip-path="url(#clip190)" style="stroke:#000000; stroke-linecap:round; stroke-linejoin:round; stroke-width:4; stroke-opacity:1; fill:none" points="219.033,756.946 237.931,756.946 "/>
<polyline clip-path="url(#clip190)" style="stroke:#000000; stroke-linecap:round; stroke-linejoin:round; stroke-width:4; stroke-opacity:1; fill:none" points="219.033,513.886 237.931,513.886 "/>
<polyline clip-path="url(#clip190)" style="stroke:#000000; stroke-linecap:round; stroke-linejoin:round; stroke-width:4; stroke-opacity:1; fill:none" points="219.033,270.827 237.931,270.827 "/>
<path clip-path="url(#clip190)" d="M116.853 1256.41 L124.492 1256.41 L124.492 1230.04 L116.181 1231.71 L116.181 1227.45 L124.445 1225.78 L129.121 1225.78 L129.121 1256.41 L136.76 1256.41 L136.76 1260.34 L116.853 1260.34 L116.853 1256.41 Z" fill="#000000" fill-rule="nonzero" fill-opacity="1" /><path clip-path="url(#clip190)" d="M146.204 1254.46 L151.089 1254.46 L151.089 1260.34 L146.204 1260.34 L146.204 1254.46 Z" fill="#000000" fill-rule="nonzero" fill-opacity="1" /><path clip-path="url(#clip190)" d="M161.413 1259.63 L161.413 1255.37 Q163.172 1256.2 164.977 1256.64 Q166.783 1257.08 168.519 1257.08 Q173.149 1257.08 175.579 1253.98 Q178.033 1250.85 178.38 1244.51 Q177.038 1246.5 174.977 1247.57 Q172.917 1248.63 170.417 1248.63 Q165.232 1248.63 162.2 1245.51 Q159.19 1242.36 159.19 1236.92 Q159.19 1231.59 162.339 1228.38 Q165.487 1225.16 170.718 1225.16 Q176.714 1225.16 179.862 1229.77 Q183.033 1234.35 183.033 1243.1 Q183.033 1251.27 179.144 1256.15 Q175.278 1261.02 168.727 1261.02 Q166.968 1261.02 165.163 1260.67 Q163.357 1260.32 161.413 1259.63 M170.718 1244.97 Q173.866 1244.97 175.695 1242.82 Q177.547 1240.67 177.547 1236.92 Q177.547 1233.19 175.695 1231.04 Q173.866 1228.86 170.718 1228.86 Q167.57 1228.86 165.718 1231.04 Q163.89 1233.19 163.89 1236.92 Q163.89 1240.67 165.718 1242.82 Q167.57 1244.97 170.718 1244.97 Z" fill="#000000" fill-rule="nonzero" fill-opacity="1" /><path clip-path="url(#clip190)" d="M119.885 1013.35 L136.204 1013.35 L136.204 1017.28 L114.26 1017.28 L114.26 1013.35 Q116.922 1010.6 121.505 1005.97 Q126.112 1001.31 127.292 999.97 Q129.538 997.447 130.417 995.711 Q131.32 993.952 131.32 992.262 Q131.32 989.507 129.376 987.771 Q127.455 986.035 124.353 986.035 Q122.154 986.035 119.7 986.799 Q117.269 987.563 114.492 989.114 L114.492 984.392 Q117.316 983.257 119.769 982.679 Q122.223 982.1 124.26 982.1 Q129.63 982.1 132.825 984.785 Q136.019 987.47 136.019 991.961 Q136.019 994.091 135.209 996.012 Q134.422 997.91 132.316 1000.5 Q131.737 1001.17 128.635 1004.39 Q125.533 1007.59 119.885 1013.35 Z" fill="#000000" fill-rule="nonzero" fill-opacity="1" /><path clip-path="url(#clip190)" d="M146.019 1011.41 L150.903 1011.41 L150.903 1017.28 L146.019 1017.28 L146.019 1011.41 Z" fill="#000000" fill-rule="nonzero" fill-opacity="1" /><path clip-path="url(#clip190)" d="M171.089 985.804 Q167.477 985.804 165.649 989.368 Q163.843 992.91 163.843 1000.04 Q163.843 1007.15 165.649 1010.71 Q167.477 1014.25 171.089 1014.25 Q174.723 1014.25 176.528 1010.71 Q178.357 1007.15 178.357 1000.04 Q178.357 992.91 176.528 989.368 Q174.723 985.804 171.089 985.804 M171.089 982.1 Q176.899 982.1 179.954 986.706 Q183.033 991.29 183.033 1000.04 Q183.033 1008.77 179.954 1013.37 Q176.899 1017.96 171.089 1017.96 Q165.278 1017.96 162.2 1013.37 Q159.144 1008.77 159.144 1000.04 Q159.144 991.29 162.2 986.706 Q165.278 982.1 171.089 982.1 Z" fill="#000000" fill-rule="nonzero" fill-opacity="1" /><path clip-path="url(#clip190)" d="M121.112 770.29 L137.431 770.29 L137.431 774.226 L115.487 774.226 L115.487 770.29 Q118.149 767.536 122.732 762.906 Q127.339 758.254 128.519 756.911 Q130.765 754.388 131.644 752.652 Q132.547 750.892 132.547 749.203 Q132.547 746.448 130.603 744.712 Q128.681 742.976 125.58 742.976 Q123.38 742.976 120.927 743.74 Q118.496 744.504 115.718 746.055 L115.718 741.332 Q118.543 740.198 120.996 739.619 Q123.45 739.041 125.487 739.041 Q130.857 739.041 134.052 741.726 Q137.246 744.411 137.246 748.902 Q137.246 751.031 136.436 752.953 Q135.649 754.851 133.542 757.443 Q132.964 758.115 129.862 761.332 Q126.76 764.527 121.112 770.29 Z" fill="#000000" fill-rule="nonzero" fill-opacity="1" /><path clip-path="url(#clip190)" d="M147.246 768.346 L152.13 768.346 L152.13 774.226 L147.246 774.226 L147.246 768.346 Z" fill="#000000" fill-rule="nonzero" fill-opacity="1" /><path clip-path="url(#clip190)" d="M163.126 770.29 L170.764 770.29 L170.764 743.925 L162.454 745.592 L162.454 741.332 L170.718 739.666 L175.394 739.666 L175.394 770.29 L183.033 770.29 L183.033 774.226 L163.126 774.226 L163.126 770.29 Z" fill="#000000" fill-rule="nonzero" fill-opacity="1" /><path clip-path="url(#clip190)" d="M121.482 527.231 L137.802 527.231 L137.802 531.166 L115.857 531.166 L115.857 527.231 Q118.519 524.477 123.103 519.847 Q127.709 515.194 128.89 513.852 Q131.135 511.328 132.015 509.592 Q132.917 507.833 132.917 506.143 Q132.917 503.389 130.973 501.653 Q129.052 499.917 125.95 499.917 Q123.751 499.917 121.297 500.68 Q118.867 501.444 116.089 502.995 L116.089 498.273 Q118.913 497.139 121.367 496.56 Q123.82 495.981 125.857 495.981 Q131.228 495.981 134.422 498.667 Q137.617 501.352 137.617 505.842 Q137.617 507.972 136.806 509.893 Q136.019 511.791 133.913 514.384 Q133.334 515.055 130.232 518.273 Q127.13 521.467 121.482 527.231 Z" fill="#000000" fill-rule="nonzero" fill-opacity="1" /><path clip-path="url(#clip190)" d="M147.616 525.287 L152.501 525.287 L152.501 531.166 L147.616 531.166 L147.616 525.287 Z" fill="#000000" fill-rule="nonzero" fill-opacity="1" /><path clip-path="url(#clip190)" d="M166.714 527.231 L183.033 527.231 L183.033 531.166 L161.089 531.166 L161.089 527.231 Q163.751 524.477 168.334 519.847 Q172.94 515.194 174.121 513.852 Q176.366 511.328 177.246 509.592 Q178.149 507.833 178.149 506.143 Q178.149 503.389 176.204 501.653 Q174.283 499.917 171.181 499.917 Q168.982 499.917 166.528 500.68 Q164.098 501.444 161.32 502.995 L161.32 498.273 Q164.144 497.139 166.598 496.56 Q169.052 495.981 171.089 495.981 Q176.459 495.981 179.653 498.667 Q182.848 501.352 182.848 505.842 Q182.848 507.972 182.038 509.893 Q181.251 511.791 179.144 514.384 Q178.565 515.055 175.464 518.273 Q172.362 521.467 166.714 527.231 Z" fill="#000000" fill-rule="nonzero" fill-opacity="1" /><path clip-path="url(#clip190)" d="M120.533 284.172 L136.853 284.172 L136.853 288.107 L114.908 288.107 L114.908 284.172 Q117.57 281.417 122.154 276.788 Q126.76 272.135 127.941 270.792 Q130.186 268.269 131.066 266.533 Q131.968 264.774 131.968 263.084 Q131.968 260.329 130.024 258.593 Q128.103 256.857 125.001 256.857 Q122.802 256.857 120.348 257.621 Q117.918 258.385 115.14 259.936 L115.14 255.214 Q117.964 254.079 120.418 253.501 Q122.871 252.922 124.908 252.922 Q130.279 252.922 133.473 255.607 Q136.667 258.292 136.667 262.783 Q136.667 264.913 135.857 266.834 Q135.07 268.732 132.964 271.325 Q132.385 271.996 129.283 275.214 Q126.181 278.408 120.533 284.172 Z" fill="#000000" fill-rule="nonzero" fill-opacity="1" /><path clip-path="url(#clip190)" d="M146.667 282.227 L151.552 282.227 L151.552 288.107 L146.667 288.107 L146.667 282.227 Z" fill="#000000" fill-rule="nonzero" fill-opacity="1" /><path clip-path="url(#clip190)" d="M175.903 269.473 Q179.26 270.19 181.135 272.459 Q183.033 274.727 183.033 278.061 Q183.033 283.177 179.514 285.977 Q175.996 288.778 169.514 288.778 Q167.339 288.778 165.024 288.339 Q162.732 287.922 160.278 287.065 L160.278 282.552 Q162.223 283.686 164.538 284.264 Q166.852 284.843 169.376 284.843 Q173.774 284.843 176.065 283.107 Q178.38 281.371 178.38 278.061 Q178.38 275.005 176.227 273.292 Q174.098 271.556 170.278 271.556 L166.251 271.556 L166.251 267.714 L170.464 267.714 Q173.913 267.714 175.741 266.348 Q177.57 264.959 177.57 262.366 Q177.57 259.704 175.672 258.292 Q173.797 256.857 170.278 256.857 Q168.357 256.857 166.158 257.274 Q163.959 257.691 161.32 258.57 L161.32 254.404 Q163.982 253.663 166.297 253.292 Q168.635 252.922 170.695 252.922 Q176.019 252.922 179.121 255.353 Q182.223 257.76 182.223 261.88 Q182.223 264.751 180.579 266.741 Q178.936 268.709 175.903 269.473 Z" fill="#000000" fill-rule="nonzero" fill-opacity="1" /><path clip-path="url(#clip190)" d="M58.3387 750.903 L64.0042 750.903 L64.0042 770 L58.3387 770 Q55.2513 764.366 49.9678 761.215 Q44.6842 758.064 38.2549 758.064 Q30.616 758.064 26.0009 762.266 Q21.3858 766.467 21.3858 773.342 Q21.3858 780.217 26.0327 784.45 Q30.6479 788.651 38.2549 788.651 Q44.6842 788.651 49.9678 785.5 Q55.2513 782.318 58.3387 776.652 L64.0042 776.652 L64.0042 795.749 L58.3387 795.749 L58.3387 785.596 Q53.9145 790.625 49.1721 792.948 Q44.4296 795.24 38.5732 795.24 Q28.4517 795.24 22.1815 789.129 Q15.9112 783.05 15.9112 773.342 Q15.9112 763.698 22.1815 757.555 Q28.4199 751.444 38.2549 751.444 Q44.4296 751.444 49.1402 753.704 Q53.8509 755.964 58.3387 761.088 L58.3387 750.903 Z" fill="#000000" fill-rule="nonzero" fill-opacity="1" /><path clip-path="url(#clip190)" d="M233.429 16.7545 L233.429 25.383 Q229.297 21.5346 224.598 19.6307 Q219.939 17.7268 214.673 17.7268 Q204.303 17.7268 198.794 24.0867 Q193.285 30.4061 193.285 42.3968 Q193.285 54.3469 198.794 60.7069 Q204.303 67.0263 214.673 67.0263 Q219.939 67.0263 224.598 65.1223 Q229.297 63.2184 233.429 59.3701 L233.429 67.9175 Q229.135 70.8341 224.314 72.2924 Q219.534 73.7508 214.187 73.7508 Q200.455 73.7508 192.555 65.3654 Q184.656 56.9395 184.656 42.3968 Q184.656 27.8135 192.555 19.4281 Q200.455 11.0023 214.187 11.0023 Q219.615 11.0023 224.395 12.4606 Q229.216 13.8784 233.429 16.7545 Z" fill="#000000" fill-rule="nonzero" fill-opacity="1" /><path clip-path="url(#clip190)" d="M263.325 32.4315 Q257.329 32.4315 253.846 37.1306 Q250.362 41.7891 250.362 49.9314 Q250.362 58.0738 253.805 62.7728 Q257.289 67.4314 263.325 67.4314 Q269.279 67.4314 272.763 62.7323 Q276.247 58.0333 276.247 49.9314 Q276.247 41.8701 272.763 37.1711 Q269.279 32.4315 263.325 32.4315 M263.325 26.1121 Q273.047 26.1121 278.597 32.4315 Q284.146 38.7509 284.146 49.9314 Q284.146 61.0714 278.597 67.4314 Q273.047 73.7508 263.325 73.7508 Q253.562 73.7508 248.012 67.4314 Q242.503 61.0714 242.503 49.9314 Q242.503 38.7509 248.012 32.4315 Q253.562 26.1121 263.325 26.1121 Z" fill="#000000" fill-rule="nonzero" fill-opacity="1" /><path clip-path="url(#clip190)" d="M334.215 45.1919 L334.215 72.576 L326.762 72.576 L326.762 45.4349 Q326.762 38.994 324.25 35.7938 Q321.739 32.5936 316.716 32.5936 Q310.68 32.5936 307.196 36.4419 Q303.712 40.2903 303.712 46.9338 L303.712 72.576 L296.218 72.576 L296.218 27.2059 L303.712 27.2059 L303.712 34.2544 Q306.386 30.163 309.991 28.1376 Q313.637 26.1121 318.376 26.1121 Q326.195 26.1121 330.205 30.9732 Q334.215 35.7938 334.215 45.1919 Z" fill="#000000" fill-rule="nonzero" fill-opacity="1" /><path clip-path="url(#clip190)" d="M356.455 14.324 L356.455 27.2059 L371.808 27.2059 L371.808 32.9987 L356.455 32.9987 L356.455 57.6282 Q356.455 63.1779 357.954 64.7578 Q359.493 66.3376 364.152 66.3376 L371.808 66.3376 L371.808 72.576 L364.152 72.576 Q355.523 72.576 352.242 69.3758 Q348.961 66.1351 348.961 57.6282 L348.961 32.9987 L343.492 32.9987 L343.492 27.2059 L348.961 27.2059 L348.961 14.324 L356.455 14.324 Z" fill="#000000" fill-rule="nonzero" fill-opacity="1" /><path clip-path="url(#clip190)" d="M381.611 27.2059 L389.065 27.2059 L389.065 72.576 L381.611 72.576 L381.611 27.2059 M381.611 9.54393 L389.065 9.54393 L389.065 18.9825 L381.611 18.9825 L381.611 9.54393 Z" fill="#000000" fill-rule="nonzero" fill-opacity="1" /><path clip-path="url(#clip190)" d="M442.375 45.1919 L442.375 72.576 L434.921 72.576 L434.921 45.4349 Q434.921 38.994 432.409 35.7938 Q429.898 32.5936 424.875 32.5936 Q418.839 32.5936 415.355 36.4419 Q411.871 40.2903 411.871 46.9338 L411.871 72.576 L404.377 72.576 L404.377 27.2059 L411.871 27.2059 L411.871 34.2544 Q414.545 30.163 418.15 28.1376 Q421.796 26.1121 426.536 26.1121 Q434.354 26.1121 438.364 30.9732 Q442.375 35.7938 442.375 45.1919 Z" fill="#000000" fill-rule="nonzero" fill-opacity="1" /><path clip-path="url(#clip190)" d="M456.472 54.671 L456.472 27.2059 L463.925 27.2059 L463.925 54.3874 Q463.925 60.8284 466.437 64.0691 Q468.949 67.2693 473.972 67.2693 Q480.008 67.2693 483.491 63.421 Q487.016 59.5726 487.016 52.9291 L487.016 27.2059 L494.469 27.2059 L494.469 72.576 L487.016 72.576 L487.016 65.6084 Q484.301 69.7404 480.696 71.7658 Q477.131 73.7508 472.392 73.7508 Q464.574 73.7508 460.523 68.8897 Q456.472 64.0286 456.472 54.671 M475.227 26.1121 L475.227 26.1121 Z" fill="#000000" fill-rule="nonzero" fill-opacity="1" /><path clip-path="url(#clip190)" d="M530.441 49.7694 Q521.408 49.7694 517.924 51.8354 Q514.44 53.9013 514.44 58.8839 Q514.44 62.8538 517.033 65.2034 Q519.666 67.5124 524.162 67.5124 Q530.36 67.5124 534.087 63.1374 Q537.854 58.7219 537.854 51.4303 L537.854 49.7694 L530.441 49.7694 M545.308 46.6907 L545.308 72.576 L537.854 72.576 L537.854 65.6895 Q535.302 69.8214 531.495 71.8063 Q527.687 73.7508 522.177 73.7508 Q515.21 73.7508 511.078 69.8619 Q506.987 65.9325 506.987 59.3701 Q506.987 51.7138 512.091 47.825 Q517.235 43.9361 527.403 43.9361 L537.854 43.9361 L537.854 43.2069 Q537.854 38.0623 534.452 35.2672 Q531.089 32.4315 524.973 32.4315 Q521.084 32.4315 517.397 33.3632 Q513.711 34.295 510.308 36.1584 L510.308 29.2718 Q514.4 27.692 518.248 26.9223 Q522.096 26.1121 525.742 26.1121 Q535.586 26.1121 540.447 31.2163 Q545.308 36.3204 545.308 46.6907 Z" fill="#000000" fill-rule="nonzero" fill-opacity="1" /><path clip-path="url(#clip190)" d="M568.034 14.324 L568.034 27.2059 L583.387 27.2059 L583.387 32.9987 L568.034 32.9987 L568.034 57.6282 Q568.034 63.1779 569.533 64.7578 Q571.072 66.3376 575.73 66.3376 L583.387 66.3376 L583.387 72.576 L575.73 72.576 Q567.102 72.576 563.821 69.3758 Q560.54 66.1351 560.54 57.6282 L560.54 32.9987 L555.071 32.9987 L555.071 27.2059 L560.54 27.2059 L560.54 14.324 L568.034 14.324 Z" fill="#000000" fill-rule="nonzero" fill-opacity="1" /><path clip-path="url(#clip190)" d="M593.19 27.2059 L600.643 27.2059 L600.643 72.576 L593.19 72.576 L593.19 27.2059 M593.19 9.54393 L600.643 9.54393 L600.643 18.9825 L593.19 18.9825 L593.19 9.54393 Z" fill="#000000" fill-rule="nonzero" fill-opacity="1" /><path clip-path="url(#clip190)" d="M633.82 32.4315 Q627.825 32.4315 624.341 37.1306 Q620.857 41.7891 620.857 49.9314 Q620.857 58.0738 624.301 62.7728 Q627.785 67.4314 633.82 67.4314 Q639.775 67.4314 643.259 62.7323 Q646.743 58.0333 646.743 49.9314 Q646.743 41.8701 643.259 37.1711 Q639.775 32.4315 633.82 32.4315 M633.82 26.1121 Q643.543 26.1121 649.092 32.4315 Q654.642 38.7509 654.642 49.9314 Q654.642 61.0714 649.092 67.4314 Q643.543 73.7508 633.82 73.7508 Q624.058 73.7508 618.508 67.4314 Q612.999 61.0714 612.999 49.9314 Q612.999 38.7509 618.508 32.4315 Q624.058 26.1121 633.82 26.1121 Z" fill="#000000" fill-rule="nonzero" fill-opacity="1" /><path clip-path="url(#clip190)" d="M704.711 45.1919 L704.711 72.576 L697.258 72.576 L697.258 45.4349 Q697.258 38.994 694.746 35.7938 Q692.234 32.5936 687.211 32.5936 Q681.175 32.5936 677.692 36.4419 Q674.208 40.2903 674.208 46.9338 L674.208 72.576 L666.714 72.576 L666.714 27.2059 L674.208 27.2059 L674.208 34.2544 Q676.881 30.163 680.487 28.1376 Q684.133 26.1121 688.872 26.1121 Q696.69 26.1121 700.701 30.9732 Q704.711 35.7938 704.711 45.1919 Z" fill="#000000" fill-rule="nonzero" fill-opacity="1" /><path clip-path="url(#clip190)" d="M753.16 65.7705 L753.16 89.8329 L745.666 89.8329 L745.666 27.2059 L753.16 27.2059 L753.16 34.0924 Q755.51 30.0415 759.074 28.0971 Q762.68 26.1121 767.662 26.1121 Q775.926 26.1121 781.071 32.6746 Q786.256 39.2371 786.256 49.9314 Q786.256 60.6258 781.071 67.1883 Q775.926 73.7508 767.662 73.7508 Q762.68 73.7508 759.074 71.8063 Q755.51 69.8214 753.16 65.7705 M778.519 49.9314 Q778.519 41.7081 775.116 37.0496 Q771.754 32.3505 765.839 32.3505 Q759.925 32.3505 756.522 37.0496 Q753.16 41.7081 753.16 49.9314 Q753.16 58.1548 756.522 62.8538 Q759.925 67.5124 765.839 67.5124 Q771.754 67.5124 775.116 62.8538 Q778.519 58.1548 778.519 49.9314 Z" fill="#000000" fill-rule="nonzero" fill-opacity="1" /><path clip-path="url(#clip190)" d="M798.611 9.54393 L806.065 9.54393 L806.065 72.576 L798.611 72.576 L798.611 9.54393 Z" fill="#000000" fill-rule="nonzero" fill-opacity="1" /><path clip-path="url(#clip190)" d="M839.242 32.4315 Q833.246 32.4315 829.763 37.1306 Q826.279 41.7891 826.279 49.9314 Q826.279 58.0738 829.722 62.7728 Q833.206 67.4314 839.242 67.4314 Q845.197 67.4314 848.68 62.7323 Q852.164 58.0333 852.164 49.9314 Q852.164 41.8701 848.68 37.1711 Q845.197 32.4315 839.242 32.4315 M839.242 26.1121 Q848.964 26.1121 854.514 32.4315 Q860.063 38.7509 860.063 49.9314 Q860.063 61.0714 854.514 67.4314 Q848.964 73.7508 839.242 73.7508 Q829.479 73.7508 823.929 67.4314 Q818.42 61.0714 818.42 49.9314 Q818.42 38.7509 823.929 32.4315 Q829.479 26.1121 839.242 26.1121 Z" fill="#000000" fill-rule="nonzero" fill-opacity="1" /><path clip-path="url(#clip190)" d="M879.791 14.324 L879.791 27.2059 L895.144 27.2059 L895.144 32.9987 L879.791 32.9987 L879.791 57.6282 Q879.791 63.1779 881.29 64.7578 Q882.829 66.3376 887.488 66.3376 L895.144 66.3376 L895.144 72.576 L887.488 72.576 Q878.86 72.576 875.578 69.3758 Q872.297 66.1351 872.297 57.6282 L872.297 32.9987 L866.828 32.9987 L866.828 27.2059 L872.297 27.2059 L872.297 14.324 L879.791 14.324 Z" fill="#000000" fill-rule="nonzero" fill-opacity="1" /><path clip-path="url(#clip190)" d="M954.287 9.54393 L954.287 15.7418 L947.158 15.7418 Q943.147 15.7418 941.568 17.3622 Q940.028 18.9825 940.028 23.1955 L940.028 27.2059 L952.302 27.2059 L952.302 32.9987 L940.028 32.9987 L940.028 72.576 L932.534 72.576 L932.534 32.9987 L925.404 32.9987 L925.404 27.2059 L932.534 27.2059 L932.534 24.0462 Q932.534 16.471 936.058 13.0277 Q939.583 9.54393 947.239 9.54393 L954.287 9.54393 Z" fill="#000000" fill-rule="nonzero" fill-opacity="1" /><path clip-path="url(#clip190)" d="M978.107 32.4315 Q972.111 32.4315 968.628 37.1306 Q965.144 41.7891 965.144 49.9314 Q965.144 58.0738 968.587 62.7728 Q972.071 67.4314 978.107 67.4314 Q984.062 67.4314 987.545 62.7323 Q991.029 58.0333 991.029 49.9314 Q991.029 41.8701 987.545 37.1711 Q984.062 32.4315 978.107 32.4315 M978.107 26.1121 Q987.829 26.1121 993.379 32.4315 Q998.928 38.7509 998.928 49.9314 Q998.928 61.0714 993.379 67.4314 Q987.829 73.7508 978.107 73.7508 Q968.344 73.7508 962.794 67.4314 Q957.285 61.0714 957.285 49.9314 Q957.285 38.7509 962.794 32.4315 Q968.344 26.1121 978.107 26.1121 Z" fill="#000000" fill-rule="nonzero" fill-opacity="1" /><path clip-path="url(#clip190)" d="M1037.57 34.1734 Q1036.32 33.4443 1034.82 33.1202 Q1033.36 32.7556 1031.58 32.7556 Q1025.26 32.7556 1021.86 36.8875 Q1018.49 40.9789 1018.49 48.6757 L1018.49 72.576 L1011 72.576 L1011 27.2059 L1018.49 27.2059 L1018.49 34.2544 Q1020.84 30.1225 1024.61 28.1376 Q1028.38 26.1121 1033.77 26.1121 Q1034.54 26.1121 1035.47 26.2337 Q1036.4 26.3147 1037.53 26.5172 L1037.57 34.1734 Z" fill="#000000" fill-rule="nonzero" fill-opacity="1" /><path clip-path="url(#clip190)" d="M1087.48 73.5887 Q1078.12 72.0899 1073.79 68.1605 Q1068.48 63.3399 1068.48 53.4962 L1068.48 27.2059 L1076.02 27.2059 L1076.02 53.2127 Q1076.02 60.6258 1079.46 63.7045 Q1082.46 66.3781 1087.48 66.9452 L1087.48 27.2059 L1094.89 27.2059 L1094.89 66.9047 Q1100.2 66.3376 1102.92 63.664 Q1106.36 60.2613 1106.36 53.1722 L1106.36 27.2059 L1113.89 27.2059 L1113.89 53.4557 Q1113.89 63.664 1108.59 68.12 Q1103.81 72.1304 1094.89 73.5482 L1094.89 89.8329 L1087.48 89.8329 L1087.48 73.5887 Z" fill="#000000" fill-rule="nonzero" fill-opacity="1" /><path clip-path="url(#clip190)" d="M1153.83 34.9026 L1205.77 34.9026 L1205.77 41.7081 L1153.83 41.7081 L1153.83 34.9026 M1153.83 51.4303 L1205.77 51.4303 L1205.77 58.3168 L1153.83 58.3168 L1153.83 51.4303 Z" fill="#000000" fill-rule="nonzero" fill-opacity="1" /><path clip-path="url(#clip190)" d="M1267.3 17.4837 Q1260.98 17.4837 1257.78 23.7221 Q1254.62 29.92 1254.62 42.3968 Q1254.62 54.833 1257.78 61.0714 Q1260.98 67.2693 1267.3 67.2693 Q1273.66 67.2693 1276.82 61.0714 Q1280.02 54.833 1280.02 42.3968 Q1280.02 29.92 1276.82 23.7221 Q1273.66 17.4837 1267.3 17.4837 M1267.3 11.0023 Q1277.47 11.0023 1282.82 19.0636 Q1288.2 27.0843 1288.2 42.3968 Q1288.2 57.6687 1282.82 65.73 Q1277.47 73.7508 1267.3 73.7508 Q1257.13 73.7508 1251.75 65.73 Q1246.4 57.6687 1246.4 42.3968 Q1246.4 27.0843 1251.75 19.0636 Q1257.13 11.0023 1267.3 11.0023 Z" fill="#000000" fill-rule="nonzero" fill-opacity="1" /><path clip-path="url(#clip190)" d="M1302.58 62.2867 L1311.13 62.2867 L1311.13 72.576 L1302.58 72.576 L1302.58 62.2867 Z" fill="#000000" fill-rule="nonzero" fill-opacity="1" /><path clip-path="url(#clip190)" d="M1329.04 12.096 L1361.16 12.096 L1361.16 18.9825 L1336.53 18.9825 L1336.53 33.8088 Q1338.31 33.2012 1340.1 32.9176 Q1341.88 32.5936 1343.66 32.5936 Q1353.79 32.5936 1359.7 38.1433 Q1365.62 43.6931 1365.62 53.1722 Q1365.62 62.9348 1359.54 68.3631 Q1353.46 73.7508 1342.4 73.7508 Q1338.6 73.7508 1334.63 73.1026 Q1330.7 72.4545 1326.48 71.1582 L1326.48 62.9348 Q1330.13 64.9198 1334.02 65.892 Q1337.91 66.8642 1342.24 66.8642 Q1349.25 66.8642 1353.34 63.1779 Q1357.43 59.4916 1357.43 53.1722 Q1357.43 46.8528 1353.34 43.1664 Q1349.25 39.4801 1342.24 39.4801 Q1338.96 39.4801 1335.68 40.2093 Q1332.44 40.9384 1329.04 42.4778 L1329.04 12.096 Z" fill="#000000" fill-rule="nonzero" fill-opacity="1" /><path clip-path="url(#clip190)" d="M1379.67 12.096 L1418.56 12.096 L1418.56 15.5798 L1396.61 72.576 L1388.06 72.576 L1408.72 18.9825 L1379.67 18.9825 L1379.67 12.096 Z" fill="#000000" fill-rule="nonzero" fill-opacity="1" /><path clip-path="url(#clip190)" d="M1435.37 62.2867 L1443.92 62.2867 L1443.92 69.2543 L1437.28 82.2172 L1432.05 82.2172 L1435.37 69.2543 L1435.37 62.2867 Z" fill="#000000" fill-rule="nonzero" fill-opacity="1" /><path clip-path="url(#clip190)" d="M1486.54 12.096 L1497.55 12.096 L1524.37 62.6918 L1524.37 12.096 L1532.31 12.096 L1532.31 72.576 L1521.29 72.576 L1494.48 21.9802 L1494.48 72.576 L1486.54 72.576 L1486.54 12.096 Z" fill="#000000" fill-rule="nonzero" fill-opacity="1" /><path clip-path="url(#clip190)" d="M1575.62 34.9026 L1627.55 34.9026 L1627.55 41.7081 L1575.62 41.7081 L1575.62 34.9026 M1575.62 51.4303 L1627.55 51.4303 L1627.55 58.3168 L1575.62 58.3168 L1575.62 51.4303 Z" fill="#000000" fill-rule="nonzero" fill-opacity="1" /><path clip-path="url(#clip190)" d="M1673 65.6895 L1686.37 65.6895 L1686.37 19.5497 L1671.82 22.4663 L1671.82 15.0127 L1686.29 12.096 L1694.47 12.096 L1694.47 65.6895 L1707.84 65.6895 L1707.84 72.576 L1673 72.576 L1673 65.6895 Z" fill="#000000" fill-rule="nonzero" fill-opacity="1" /><path clip-path="url(#clip190)" d="M1725.78 65.6895 L1739.15 65.6895 L1739.15 19.5497 L1724.61 22.4663 L1724.61 15.0127 L1739.07 12.096 L1747.25 12.096 L1747.25 65.6895 L1760.62 65.6895 L1760.62 72.576 L1725.78 72.576 L1725.78 65.6895 Z" fill="#000000" fill-rule="nonzero" fill-opacity="1" /><path clip-path="url(#clip190)" d="M1798.13 27.2059 L1805.58 27.2059 L1814.9 62.6108 L1824.18 27.2059 L1832.97 27.2059 L1842.29 62.6108 L1851.56 27.2059 L1859.02 27.2059 L1847.15 72.576 L1838.36 72.576 L1828.59 35.3887 L1818.79 72.576 L1810 72.576 L1798.13 27.2059 Z" fill="#000000" fill-rule="nonzero" fill-opacity="1" /><path clip-path="url(#clip190)" d="M1870.32 27.2059 L1877.77 27.2059 L1877.77 72.576 L1870.32 72.576 L1870.32 27.2059 M1870.32 9.54393 L1877.77 9.54393 L1877.77 18.9825 L1870.32 18.9825 L1870.32 9.54393 Z" fill="#000000" fill-rule="nonzero" fill-opacity="1" /><path clip-path="url(#clip190)" d="M1900.74 14.324 L1900.74 27.2059 L1916.09 27.2059 L1916.09 32.9987 L1900.74 32.9987 L1900.74 57.6282 Q1900.74 63.1779 1902.24 64.7578 Q1903.78 66.3376 1908.44 66.3376 L1916.09 66.3376 L1916.09 72.576 L1908.44 72.576 Q1899.81 72.576 1896.53 69.3758 Q1893.25 66.1351 1893.25 57.6282 L1893.25 32.9987 L1887.78 32.9987 L1887.78 27.2059 L1893.25 27.2059 L1893.25 14.324 L1900.74 14.324 Z" fill="#000000" fill-rule="nonzero" fill-opacity="1" /><path clip-path="url(#clip190)" d="M1963.61 45.1919 L1963.61 72.576 L1956.16 72.576 L1956.16 45.4349 Q1956.16 38.994 1953.65 35.7938 Q1951.13 32.5936 1946.11 32.5936 Q1940.07 32.5936 1936.59 36.4419 Q1933.11 40.2903 1933.11 46.9338 L1933.11 72.576 L1925.61 72.576 L1925.61 9.54393 L1933.11 9.54393 L1933.11 34.2544 Q1935.78 30.163 1939.39 28.1376 Q1943.03 26.1121 1947.77 26.1121 Q1955.59 26.1121 1959.6 30.9732 Q1963.61 35.7938 1963.61 45.1919 Z" fill="#000000" fill-rule="nonzero" fill-opacity="1" /><path clip-path="url(#clip190)" d="M2027.09 64.3122 Q2028.55 66.2566 2032.92 66.2566 L2036.53 66.2566 L2036.53 72.576 L2032.03 72.576 Q2024.74 72.576 2021.42 68.6871 Q2018.1 64.7172 2018.1 56.1293 L2018.1 34.6595 L2001.08 34.6595 L2001.08 27.2059 L2042.93 27.2059 L2042.93 34.6595 L2025.71 34.6595 L2025.71 56.5749 Q2025.71 62.4487 2027.09 64.3122 Z" fill="#000000" fill-rule="nonzero" fill-opacity="1" /><path clip-path="url(#clip190)" d="M2089.27 86.3491 L2089.27 92.1419 L2046.17 92.1419 L2046.17 86.3491 L2089.27 86.3491 Z" fill="#000000" fill-rule="nonzero" fill-opacity="1" /><path clip-path="url(#clip190)" d="M2114.83 17.4837 Q2108.51 17.4837 2105.31 23.7221 Q2102.15 29.92 2102.15 42.3968 Q2102.15 54.833 2105.31 61.0714 Q2108.51 67.2693 2114.83 67.2693 Q2121.19 67.2693 2124.35 61.0714 Q2127.55 54.833 2127.55 42.3968 Q2127.55 29.92 2124.35 23.7221 Q2121.19 17.4837 2114.83 17.4837 M2114.83 11.0023 Q2125 11.0023 2130.35 19.0636 Q2135.73 27.0843 2135.73 42.3968 Q2135.73 57.6687 2130.35 65.73 Q2125 73.7508 2114.83 73.7508 Q2104.66 73.7508 2099.28 65.73 Q2093.93 57.6687 2093.93 42.3968 Q2093.93 27.0843 2099.28 19.0636 Q2104.66 11.0023 2114.83 11.0023 Z" fill="#000000" fill-rule="nonzero" fill-opacity="1" /><path clip-path="url(#clip190)" d="M2176.4 34.9026 L2228.34 34.9026 L2228.34 41.7081 L2176.4 41.7081 L2176.4 34.9026 M2176.4 51.4303 L2228.34 51.4303 L2228.34 58.3168 L2176.4 58.3168 L2176.4 51.4303 Z" fill="#000000" fill-rule="nonzero" fill-opacity="1" /><path clip-path="url(#clip190)" d="M2289.87 17.4837 Q2283.55 17.4837 2280.35 23.7221 Q2277.19 29.92 2277.19 42.3968 Q2277.19 54.833 2280.35 61.0714 Q2283.55 67.2693 2289.87 67.2693 Q2296.23 67.2693 2299.39 61.0714 Q2302.59 54.833 2302.59 42.3968 Q2302.59 29.92 2299.39 23.7221 Q2296.23 17.4837 2289.87 17.4837 M2289.87 11.0023 Q2300.04 11.0023 2305.39 19.0636 Q2310.77 27.0843 2310.77 42.3968 Q2310.77 57.6687 2305.39 65.73 Q2300.04 73.7508 2289.87 73.7508 Q2279.7 73.7508 2274.32 65.73 Q2268.97 57.6687 2268.97 42.3968 Q2268.97 27.0843 2274.32 19.0636 Q2279.7 11.0023 2289.87 11.0023 Z" fill="#000000" fill-rule="nonzero" fill-opacity="1" /><path clip-path="url(#clip190)" d="M2325.15 62.2867 L2333.7 62.2867 L2333.7 72.576 L2325.15 72.576 L2325.15 62.2867 Z" fill="#000000" fill-rule="nonzero" fill-opacity="1" /><path clip-path="url(#clip190)" d="M2358.57 65.6895 L2387.13 65.6895 L2387.13 72.576 L2348.73 72.576 L2348.73 65.6895 Q2353.39 60.8689 2361.41 52.7671 Q2369.47 44.6248 2371.54 42.2752 Q2375.47 37.8598 2377.01 34.8216 Q2378.59 31.7429 2378.59 28.7857 Q2378.59 23.9651 2375.18 20.927 Q2371.82 17.8888 2366.39 17.8888 Q2362.54 17.8888 2358.25 19.2256 Q2354 20.5624 2349.14 23.2765 L2349.14 15.0127 Q2354.08 13.0277 2358.37 12.015 Q2362.67 11.0023 2366.23 11.0023 Q2375.63 11.0023 2381.22 15.7013 Q2386.81 20.4004 2386.81 28.2591 Q2386.81 31.9859 2385.39 35.3482 Q2384.01 38.6699 2380.33 43.2069 Q2379.31 44.3817 2373.89 50.0125 Q2368.46 55.6027 2358.57 65.6895 Z" fill="#000000" fill-rule="nonzero" fill-opacity="1" /><polyline clip-path="url(#clip192)" style="stroke:#0000ff; stroke-linecap:round; stroke-linejoin:round; stroke-width:8; stroke-opacity:1; fill:none" stroke-dasharray="32, 20" points="279.421,774.414 279.621,775.022 279.881,775.798 280.22,776.785 280.661,778.026 281.236,779.567 281.986,781.441 282.965,783.637 284.245,786.046 285.532,787.908 286.824,789.205 288.508,790.087 290.193,790.165 291.877,789.555 293.559,788.335 295.237,786.539 296.91,784.179 298.577,781.283 300.237,777.914 301.891,774.132 303.538,769.976 305.178,765.476 306.812,760.656 308.44,755.546 310.061,750.181 311.677,744.595 313.288,738.819 314.895,732.884 316.499,726.811 318.099,720.619 319.695,714.313 321.289,707.889 322.878,701.322 324.462,694.575 326.038,687.607 327.608,680.404 329.17,672.987 330.725,665.39 332.276,657.646 333.821,649.769 335.362,641.76 336.897,633.608 338.427,625.299 339.949,616.815 341.463,608.139 342.969,599.261 344.466,590.175 345.955,580.889 347.434,571.419 348.907,561.794 350.374,552.052 351.837,542.237 353.299,532.402 354.764,522.604 356.233,512.907 357.71,503.376 359.197,494.082 360.699,485.098 362.217,476.496 363.753,468.343 365.307,460.697 366.881,453.598 368.472,447.067 370.079,441.111 371.701,435.737 373.336,430.963 374.984,426.804 376.642,423.257 378.308,420.288 379.979,417.84 381.656,415.856 383.335,414.285 385.016,413.08 386.699,412.184 388.382,411.529 390.066,411.045 391.75,410.676 393.434,410.376 395.118,410.1 396.802,409.794 398.486,409.413 400.169,408.967 401.853,408.499 403.537,408.034 405.221,407.563 406.904,407.049 408.588,406.464 410.271,405.843 411.954,405.274 413.638,404.842 415.322,404.6 417.007,404.574 418.691,404.772 420.375,405.187 422.058,405.79 423.741,406.537 425.424,407.363 427.107,408.214 428.789,409.065 430.472,409.928 432.154,410.826 433.836,411.763 435.519,412.72 437.201,413.654 438.884,414.502 440.567,415.181 442.251,415.6 443.935,415.665 445.619,415.285 447.302,414.39 448.983,412.926 450.659,410.862 452.328,408.185 453.99,404.897 455.642,401.01 457.284,396.543 458.914,391.517 460.531,385.946 462.133,379.83 463.72,373.157 465.29,365.946 466.844,358.29 468.387,350.345 469.925,342.265 471.463,334.188 473.006,326.246 474.56,318.589 476.129,311.377 477.718,304.76 479.327,298.853 480.955,293.729 482.601,289.422 484.26,285.916 485.929,283.152 487.604,281.036 489.284,279.469 490.966,278.37 492.649,277.679 494.334,277.353 496.018,277.339 497.702,277.582 499.386,278.026 501.07,278.627 502.753,279.352 504.435,280.168 506.118,281.03 507.8,281.908 509.483,282.827 511.165,283.84 512.846,284.98 514.527,286.235 516.207,287.554 517.888,288.875 519.569,290.167 521.249,291.443 522.93,292.716 524.611,293.978 526.292,295.206 527.973,296.374 529.654,297.457 531.337,298.438 533.019,299.303 534.702,300.039 536.386,300.63 538.07,301.052 539.754,301.27 541.438,301.245 543.122,300.937 544.806,300.315 546.488,299.356 548.169,298.051 549.847,296.387 551.523,294.343 553.194,291.883 554.861,288.955 556.52,285.508 558.17,281.512 559.81,276.95 561.437,271.792 563.049,266.008 564.644,259.633 566.226,252.814 567.8,245.751 569.372,238.63 570.947,231.606 572.529,224.795 574.12,218.284 575.721,212.146 577.335,206.458 578.962,201.312 580.603,196.804 582.258,193.015 583.924,189.991 585.598,187.746 587.279,186.258 588.963,185.478 590.648,185.322 592.332,185.672 594.016,186.383 595.698,187.314 597.38,188.361 599.061,189.478 600.742,190.661 602.423,191.904 604.104,193.178 605.785,194.433 607.466,195.617 609.148,196.681 610.83,197.579 612.514,198.254 614.198,198.633 615.882,198.672 617.566,198.385 619.25,197.803 620.933,196.917 622.614,195.666 624.292,193.966 625.967,191.79 627.637,189.225 629.304,186.395 630.969,183.405 632.633,180.347 634.297,177.305 635.963,174.36 637.63,171.586 639.301,169.052 640.974,166.813 642.651,164.905 644.33,163.346 646.011,162.127 647.694,161.224 649.378,160.616 651.062,160.297 652.746,160.29 654.43,160.627 656.114,161.336 657.796,162.429 659.475,163.902 661.153,165.746 662.827,167.948 664.497,170.491 666.164,173.359 667.827,176.533 669.485,179.993 671.139,183.718 672.79,187.688 674.436,191.888 676.078,196.305 677.715,200.933 679.349,205.769 680.978,210.814 682.602,216.068 684.221,221.532 685.835,227.206 687.443,233.086 689.046,239.167 690.644,245.443 692.236,251.904 693.823,258.542 695.405,265.345 696.982,272.303 698.555,279.404 700.123,286.634 701.687,293.982 703.248,301.434 704.806,308.975 706.361,316.593 707.913,324.278 709.464,332.019 711.012,339.809 712.559,347.644 714.105,355.518 715.649,363.428 717.193,371.368 718.735,379.333 720.277,387.317 721.818,395.312 723.359,403.31 724.9,411.303 726.442,419.284 727.984,427.245 729.528,435.178 731.072,443.077 732.619,450.935 734.167,458.745 735.717,466.501 737.269,474.196 738.823,481.825 740.381,489.379 741.94,496.852 743.504,504.236 745.07,511.523 746.64,518.706 748.213,525.778 749.79,532.729 751.372,539.552 752.957,546.239 754.547,552.779 756.142,559.161 757.741,565.371 759.346,571.392 760.956,577.21 762.572,582.808 764.193,588.177 765.82,593.304 767.453,598.175 769.092,602.765 770.737,607.033 772.388,610.919 774.048,614.338 775.715,617.186 777.39,619.363 779.071,620.808 780.755,621.514 782.441,621.516 784.125,620.867 785.806,619.626 787.484,617.855 789.158,615.619 790.828,612.989 792.494,610.036 794.156,606.838 795.816,603.474 797.474,600.024 799.132,596.562 800.792,593.159 802.453,589.876 804.116,586.769 805.782,583.885 807.452,581.264 809.125,578.942 810.801,576.948 812.479,575.304 814.16,574.027 815.843,573.128 817.527,572.612 819.211,572.48 820.896,572.727 822.579,573.346 824.262,574.326 825.942,575.655 827.621,577.318 829.297,579.3 830.97,581.586 832.64,584.162 834.307,587.012 835.97,590.12 837.63,593.472 839.287,597.051 840.94,600.842 842.59,604.83 844.237,608.998 845.88,613.332 847.521,617.816 849.158,622.437 850.794,627.182 852.427,632.036 854.057,636.988 855.686,642.026 857.314,647.139 858.939,652.316 860.564,657.546 862.187,662.82 863.81,668.128 865.432,673.461 867.054,678.808 868.676,684.162 870.297,689.511 871.919,694.847 873.542,700.16 875.165,705.44 876.79,710.68 878.415,715.87 880.042,721.003 881.67,726.074 883.3,731.075 884.931,736.002 886.564,740.847 888.199,745.605 889.836,750.266 891.475,754.819 893.117,759.251 894.761,763.546 896.408,767.684 898.059,771.641 899.712,775.385 901.37,778.876 903.033,782.058 904.701,784.851 906.374,787.159 908.053,788.873 909.735,789.908 911.421,790.221 913.106,789.804 914.788,788.647 916.465,786.691 918.134,783.821 919.788,779.951 921.423,775.088 923.034,769.251 924.618,762.43 926.17,754.645 927.687,745.989 929.172,736.601 930.629,726.631 932.061,716.185 933.468,705.263 934.836,693.673 936.143,681.114 937.38,667.602 938.56,653.418 939.688,638.676 940.757,623.321 941.747,607.241 942.642,590.391 943.438,572.871 944.156,554.904 944.836,536.759 945.534,518.715 946.314,501.107 947.237,484.41 948.346,469.256 949.642,456.231 951.08,445.526 952.611,436.925 954.202,430.141 955.833,424.914 957.486,420.95 959.153,417.954 960.828,415.697 962.507,414.021 964.188,412.807 965.871,411.946 967.554,411.335 969.238,410.889 970.922,410.545 972.606,410.256 974.29,409.969 975.974,409.624 977.658,409.196 979.341,408.719 981.025,408.238 982.709,407.759 984.392,407.251 986.076,406.671 987.759,406.029 989.443,405.413 991.126,404.926 992.81,404.634 994.495,404.561 996.179,404.71 997.863,405.069 999.546,405.609 1001.23,406.289 1002.91,407.056 1004.6,407.86 1006.28,408.668 1007.96,409.479 1009.64,410.31 1011.33,411.174 1013.01,412.068 1014.69,412.97 1016.37,413.84 1018.06,414.623 1019.74,415.247 1021.42,415.623 1023.11,415.649 1024.79,415.205 1026.48,414.159 1028.15,412.369 1029.82,409.682 1031.48,405.939 1033.11,400.976 1034.71,394.633 1036.27,386.747 1037.75,377.091 1039.12,365.417 1040.38,352.115 1041.59,338.237 1042.82,324.679 1044.15,312.349 1045.6,302.095 1047.17,294.241 1048.79,288.542 1050.45,284.525 1052.12,281.73 1053.8,279.806 1055.48,278.524 1057.16,277.742 1058.84,277.37 1060.53,277.328 1062.21,277.545 1063.9,277.957 1065.58,278.517 1067.26,279.193 1068.95,279.955 1070.63,280.767 1072.31,281.597 1073.99,282.448 1075.68,283.361 1077.36,284.372 1079.04,285.488 1080.72,286.683 1082.4,287.911 1084.08,289.129 1085.76,290.325 1087.45,291.509 1089.13,292.691 1090.81,293.865 1092.49,295.014 1094.17,296.117 1095.85,297.155 1097.54,298.111 1099.22,298.973 1100.9,299.729 1102.58,300.365 1104.27,300.859 1105.95,301.182 1107.64,301.291 1109.32,301.138 1111,300.667 1112.69,299.83 1114.37,298.581 1116.05,296.875 1117.72,294.648 1119.39,291.793 1121.05,288.139 1122.68,283.472 1124.3,277.568 1125.86,270.138 1127.36,260.848 1128.78,250.001 1130.16,238.613 1131.56,227.578 1133.01,217.458 1134.52,208.572 1136.09,201.153 1137.7,195.337 1139.36,191.076 1141.03,188.175 1142.71,186.394 1144.39,185.509 1146.07,185.316 1147.76,185.633 1149.44,186.292 1151.13,187.155 1152.81,188.127 1154.49,189.161 1156.17,190.25 1157.85,191.392 1159.53,192.571 1161.21,193.755 1162.9,194.904 1164.58,195.979 1166.26,196.942 1167.94,197.752 1169.63,198.35 1171.31,198.664 1172.99,198.645 1174.68,198.296 1176.36,197.627 1178.04,196.595 1179.72,195.079 1181.4,192.926 1183.07,190.117 1184.73,186.813 1186.39,183.215 1188.04,179.506 1189.7,175.866 1191.35,172.457 1193.02,169.409 1194.69,166.81 1196.36,164.695 1198.04,163.052 1199.72,161.836 1201.41,160.987 1203.09,160.465 1204.78,160.256 1206.46,160.374 1208.14,160.829 1209.83,161.624 1211.51,162.742 1213.19,164.162 1214.87,165.861 1216.54,167.815 1218.22,170.004 1219.89,172.408 1221.56,175.008 1223.23,177.788 1224.89,180.73 1226.56,183.821 1228.22,187.047 1229.88,190.397 1231.54,193.862 1233.19,197.437 1234.85,201.116 1236.5,204.896 1238.15,208.776 1239.8,212.754 1241.45,216.827 1243.1,220.995 1244.74,225.255 1246.38,229.604 1248.03,234.04 1249.67,238.557 1251.3,243.154 1252.94,247.826 1254.58,252.569 1256.21,257.379 1257.84,262.253 1259.47,267.185 1261.1,272.172 1262.73,277.211 1264.36,282.297 1265.99,287.426 1267.61,292.594 1269.24,297.797 1270.86,303.032 1272.49,308.295 1274.11,313.582 1275.73,318.891 1277.35,324.218 1278.98,329.562 1280.6,334.92 1282.22,340.291 1283.84,345.674 1285.46,351.067 1287.08,356.47 1288.7,361.881 1290.32,367.299 1291.94,372.723 1293.56,378.151 1295.18,383.583 1296.8,389.015 1298.42,394.448 1300.04,399.878 1301.66,405.304 1303.28,410.725 1304.9,416.138 1306.52,421.542 1308.14,426.935 1309.76,432.316 1311.38,437.683 1313.01,443.034 1314.63,448.369 1316.25,453.685 1317.87,458.981 1319.5,464.256 1321.12,469.509 1322.74,474.737 1324.37,479.94 1326,485.115 1327.62,490.262 1329.25,495.378 1330.88,500.462 1332.51,505.511 1334.14,510.525 1335.77,515.5 1337.4,520.436 1339.03,525.329 1340.66,530.178 1342.3,534.981 1343.93,539.735 1345.57,544.439 1347.2,549.088 1348.84,553.68 1350.48,558.211 1352.12,562.678 1353.77,567.074 1355.41,571.395 1357.05,575.634 1358.7,579.788 1360.35,583.849 1362,587.814 1363.65,591.677 1365.31,595.432 1366.96,599.069 1368.62,602.576 1370.28,605.933 1371.94,609.114 1373.61,612.08 1375.27,614.779 1376.95,617.141 1378.62,619.083 1380.3,620.519 1381.99,621.374 1383.67,621.589 1385.36,621.118 1387.04,619.929 1388.72,618.009 1390.39,615.369 1392.05,612.064 1393.7,608.197 1395.35,603.927 1396.99,599.455 1398.63,594.986 1400.27,590.704 1401.92,586.753 1403.58,583.232 1405.25,580.201 1406.92,577.688 1408.59,575.694 1410.27,574.204 1411.96,573.194 1413.64,572.63 1415.32,572.477 1417.01,572.702 1418.69,573.271 1420.37,574.151 1422.06,575.315 1423.74,576.737 1425.41,578.393 1427.09,580.262 1428.77,582.327 1430.44,584.571 1432.11,586.978 1433.78,589.537 1435.45,592.233 1437.12,595.056 1438.78,597.996 1440.45,601.043 1442.11,604.187 1443.77,607.421 1445.43,610.736 1447.09,614.126 1448.75,617.584 1450.41,621.103 1452.06,624.679 1453.72,628.305 1455.37,631.976 1457.03,635.689 1458.68,639.439 1460.34,643.221 1461.99,647.032 1463.64,650.869 1465.29,654.728 1466.94,658.605 1468.6,662.497 1470.25,666.403 1471.9,670.317 1473.55,674.239 1475.2,678.165 1476.85,682.091 1478.5,686.016 1480.15,689.937 1481.8,693.85 1483.45,697.753 1485.11,701.643 1486.76,705.518 1488.41,709.374 1490.06,713.21 1491.72,717.023 1493.37,720.81 1495.02,724.57 1496.68,728.301 1498.33,732.001 1499.99,735.668 1501.64,739.299 1503.3,742.893 1504.95,746.447 1506.61,749.956 1508.27,753.418 1509.93,756.828 1511.59,760.179 1513.25,763.466 1514.91,766.679 1516.58,769.809 1518.24,772.844 1519.91,775.769 1521.57,778.562 1523.24,781.194 1524.91,783.627 1526.59,785.804 1528.26,787.65 1529.94,789.071 1531.63,789.962 1533.31,790.216 1535,789.722 1536.68,788.318 1538.35,785.675 1540,781.133 1541.58,773.792 1543.01,762.429 1544.1,745.909 1544.72,726.472 1545,706.547 1544.92,686.296 1544.46,666.692 1543.82,648.216 1543.06,630.407 1542.21,613.268 1541.26,596.844 1540.24,581.07 1539.16,565.779 1538.06,550.769 1536.95,535.83 1535.86,520.732 1534.81,505.186 1533.87,488.738 1533.15,470.506 1533.16,448.567 1534.97,428.924 1536.71,421.928 1538.38,418.014 1540.05,415.429 1541.73,413.677 1543.42,412.493 1545.1,411.692 1546.78,411.136 1548.47,410.729 1550.15,410.409 1551.83,410.123 1553.52,409.808 1555.2,409.41 1556.89,408.936 1558.57,408.439 1560.25,407.946 1561.94,407.438 1563.62,406.865 1565.3,406.21 1566.99,405.55 1568.67,405.011 1570.35,404.671 1572.04,404.557 1573.72,404.667 1575.41,404.981 1577.09,405.469 1578.77,406.093 1580.46,406.808 1582.14,407.566 1583.82,408.335 1585.51,409.104 1587.19,409.882 1588.87,410.686 1590.55,411.518 1592.24,412.37 1593.92,413.219 1595.6,414.03 1597.28,414.752 1598.97,415.32 1600.65,415.648 1602.34,415.621 1604.02,415.079 1605.7,413.797 1607.38,411.429 1609.03,407.401 1610.63,400.639 1612.06,388.884 1612.84,367.353 1612.6,344.579 1612.32,325.003 1612.66,304.242 1614.61,288.491 1616.35,283.353 1618.03,280.592 1619.71,278.915 1621.4,277.927 1623.08,277.433 1624.76,277.312 1626.45,277.466 1628.13,277.821 1629.82,278.325 1631.5,278.941 1633.18,279.644 1634.87,280.403 1636.55,281.188 1638.23,281.985 1639.91,282.814 1641.6,283.71 1643.28,284.695 1644.96,285.762 1646.64,286.887 1648.32,288.031 1650,289.165 1651.69,290.28 1653.37,291.386 1655.05,292.49 1656.73,293.589 1658.41,294.671 1660.09,295.721 1661.78,296.722 1663.46,297.661 1665.14,298.525 1666.82,299.303 1668.51,299.984 1670.19,300.551 1671.87,300.982 1673.56,301.239 1675.24,301.275 1676.93,301.027 1678.61,300.418 1680.29,299.365 1681.97,297.77 1683.65,295.498 1685.31,292.301 1686.95,287.659 1688.54,280.499 1689.95,268.374 1690.75,247.72 1691.22,228.417 1692.13,210.863 1693.61,198.299 1695.27,191.532 1696.95,187.977 1698.63,186.157 1700.32,185.407 1702,185.353 1703.69,185.753 1705.37,186.435 1707.06,187.278 1708.74,188.205 1710.42,189.183 1712.1,190.207 1713.78,191.275 1715.46,192.375 1717.15,193.485 1718.83,194.573 1720.51,195.61 1722.19,196.564 1723.87,197.403 1725.56,198.083 1727.24,198.539 1728.93,198.698 1730.61,198.519 1732.29,197.998 1733.98,197.1 1735.66,195.688 1737.33,193.482 1739,190.249 1740.65,186.138 1742.28,181.532 1743.92,176.873 1745.57,172.578 1747.22,168.932 1748.89,166.044 1750.57,163.881 1752.25,162.334 1753.93,161.277 1755.61,160.612 1757.3,160.29 1758.98,160.298 1760.66,160.63 1762.35,161.275 1764.03,162.208 1765.71,163.4 1767.39,164.821 1769.07,166.447 1770.75,168.255 1772.42,170.227 1774.1,172.345 1775.77,174.594 1777.44,176.963 1779.11,179.438 1780.78,182.01 1782.45,184.669 1784.12,187.407 1785.79,190.219 1787.45,193.098 1789.12,196.04 1790.78,199.043 1792.45,202.103 1794.11,205.219 1795.77,208.39 1797.44,211.613 1799.1,214.888 1800.76,218.213 1802.42,221.586 1804.08,225.007 1805.73,228.473 1807.39,231.983 1809.05,235.535 1810.7,239.127 1812.36,242.757 1814.02,246.424 1815.67,250.125 1817.32,253.858 1818.98,257.623 1820.63,261.417 1822.28,265.238 1823.94,269.084 1825.59,272.955 1827.24,276.848 1828.89,280.762 1830.54,284.695 1832.19,288.647 1833.84,292.614 1835.49,296.596 1837.14,300.591 1838.79,304.599 1840.44,308.617 1842.09,312.645 1843.74,316.681 1845.39,320.725 1847.03,324.775 1848.68,328.831 1850.33,332.892 1851.98,336.957 1853.63,341.027 1855.28,345.1 1856.92,349.176 1858.57,353.255 1860.22,357.336 1861.87,361.42 1863.52,365.505 1865.16,369.592 1866.81,373.679 1868.46,377.767 1870.11,381.854 1871.76,385.941 1873.4,390.026 1875.05,394.11 1876.7,398.191 1878.35,402.27 1880,406.344 1881.65,410.415 1883.29,414.481 1884.94,418.541 1886.59,422.596 1888.24,426.645 1889.89,430.686 1891.54,434.721 1893.19,438.747 1894.84,442.766 1896.49,446.775 1898.13,450.776 1899.78,454.766 1901.43,458.747 1903.08,462.717 1904.73,466.676 1906.39,470.623 1908.04,474.558 1909.69,478.481 1911.34,482.391 1912.99,486.287 1914.64,490.169 1916.29,494.036 1917.94,497.888 1919.6,501.724 1921.25,505.544 1922.9,509.346 1924.56,513.13 1926.21,516.896 1927.86,520.642 1929.52,524.369 1931.17,528.074 1932.83,531.758 1934.48,535.42 1936.14,539.058 1937.79,542.672 1939.45,546.261 1941.11,549.823 1942.76,553.358 1944.42,556.863 1946.08,560.338 1947.74,563.781 1949.4,567.188 1951.06,570.559 1952.72,573.89 1954.38,577.18 1956.04,580.426 1957.7,583.625 1959.36,586.776 1961.03,589.876 1962.69,592.921 1964.36,595.909 1966.02,598.834 1967.69,601.69 1969.36,604.468 1971.03,607.156 1972.7,609.738 1974.37,612.191 1976.04,614.483 1977.71,616.571 1979.39,618.399 1981.07,619.895 1982.75,620.975 1984.44,621.541 1986.12,621.481 1987.81,620.655 1989.49,618.893 1991.15,616.006 1992.8,611.843 1994.43,606.448 1996.03,600.246 1997.63,593.964 1999.24,588.261 2000.88,583.493 2002.53,579.735 2004.2,576.912 2005.88,574.896 2007.56,573.558 2009.24,572.785 2010.93,572.485 2012.61,572.583 2014.3,573.016 2015.98,573.738 2017.66,574.708 2019.34,575.893 2021.02,577.268 2022.7,578.81 2024.38,580.5 2026.06,582.323 2027.74,584.265 2029.41,586.315 2031.08,588.464 2032.76,590.701 2034.43,593.019 2036.1,595.411 2037.77,597.871 2039.44,600.392 2041.11,602.97 2042.78,605.6 2044.45,608.278 2046.12,610.999 2047.79,613.759 2049.46,616.557 2051.12,619.387 2052.79,622.249 2054.46,625.138 2056.12,628.053 2057.79,630.991 2059.45,633.95 2061.12,636.929 2062.78,639.925 2064.45,642.937 2066.11,645.962 2067.78,649.001 2069.44,652.05 2071.1,655.11 2072.77,658.177 2074.43,661.252 2076.09,664.333 2077.76,667.418 2079.42,670.507 2081.09,673.599 2082.75,676.692 2084.41,679.785 2086.08,682.877 2087.74,685.968 2089.4,689.055 2091.07,692.139 2092.73,695.217 2094.39,698.289 2096.06,701.354 2097.72,704.411 2099.39,707.458 2101.05,710.494 2102.72,713.52 2104.38,716.533 2106.04,719.533 2107.71,722.518 2109.37,725.489 2111.04,728.445 2112.71,731.384 2114.37,734.306 2116.04,737.209 2117.7,740.094 2119.37,742.959 2121.04,745.802 2122.7,748.622 2124.37,751.418 2126.04,754.188 2127.71,756.928 2129.38,759.638 2131.04,762.313 2132.71,764.95 2134.38,767.544 2136.05,770.092 2137.72,772.585 2139.4,775.017 2141.07,777.377 2142.74,779.652 2144.41,781.822 2146.09,783.863 2147.77,785.737 2149.45,787.392 2151.13,788.758 2152.81,789.738 2154.49,790.205 2156.18,789.983 2157.86,788.773 2159.53,785.802 2161.13,777.325 2161.41,772.603 2161.49,767.202 2161.4,761.987 2161.21,757.365 2160.99,753.14 2160.73,749.178 2160.46,745.405 2160.17,741.776 2159.87,738.256 2159.57,734.826 2159.26,731.467 2158.95,728.168 2158.53,723.954 2157.98,718.584 2157.43,713.324 2156.87,708.17 2156.3,703.13 2155.72,698.217 2155.14,693.439 2154.55,688.795 2153.95,684.273 2153.34,679.856 2152.73,675.525 2152.12,671.262 2151.51,667.052 2150.7,661.644 2149.66,654.702 2148.6,647.846 2147.55,641.071 2146.49,634.378 2145.42,627.768 2144.36,621.244 2143.29,614.806 2142.21,608.453 2141.13,602.181 2140.05,595.986 2138.97,589.86 2137.88,583.795 2136.47,575.989 2135.05,568.254 2133.2,558.269 2131.35,548.323 2129.5,538.37 2127.66,528.359 2125.82,518.232 2123.98,507.914 2122.16,497.302 2120.36,486.232 2118.59,474.408 2116.89,461.163 2115.42,444.08 2115.2,438.147 2115.26,431.312 2115.7,425.864 2116.18,422.932 2116.66,420.884 2117.15,419.294 2117.65,418.006 2118.15,416.938 2118.65,416.037 2119.16,415.27 2119.66,414.611 2120.17,414.043 2120.67,413.552 2121.18,413.126 2121.69,412.756 2122.35,412.344 2123.01,411.997 2123.87,411.623 2124.72,411.317 2125.84,410.993 2127.29,410.659 2129.18,410.31 2131.06,409.978 2132.95,409.568 2134.84,409.043 2136.72,408.468 2138.61,407.898 2140.49,407.3 2142.38,406.599 2144.26,405.814 2146.15,405.128 2148.04,404.695 2149.92,404.557 2151.81,404.699 2153.69,405.081 2155.58,405.655 2157.47,406.367 2159.35,407.157 2161.24,407.976 2163.12,408.797 2165.01,409.623 2166.89,410.471 2168.78,411.35 2170.66,412.254 2172.55,413.158 2174.43,414.024 2176.32,414.794 2178.2,415.386 2180.09,415.68 2181.98,415.486 2183.86,414.463 2185.74,411.872 2187.57,405.158 2188.29,394.882 2188.18,386.622 2187.93,381.467 2187.63,377.064 2187.3,373.037 2186.96,369.269 2186.6,365.687 2186.23,362.238 2185.85,358.883 2185.47,355.596 2185.09,352.354 2184.59,348.18 2183.93,342.783 2183.09,335.737 2182,326.341 2180.96,316.258 2180.06,304.13 2146.06,631.681 2143.04,613.355 2141.84,606.265 2140.63,599.275 2139.42,592.378 2138.2,585.561 2136.98,578.815 2135.76,572.126 2134.17,563.495 2132.58,554.911 2130.98,546.344 2129.39,537.765 2127.8,529.141 2126.21,520.434 2124.63,511.599 2123.06,502.578 2121.49,493.285 2119.95,483.592 2118.43,473.268 2116.97,461.839 2115.65,447.919 2115.2,438.385 2115.22,432.355 2115.54,427.346 2115.93,424.324 2116.33,422.211 2116.75,420.569 2117.17,419.235 2117.6,418.122 2118.03,417.174 2118.46,416.358 2118.9,415.649 2119.33,415.029 2119.77,414.485 2120.2,414.006 2120.64,413.583 2121.21,413.105 2121.78,412.696 2122.34,412.345 2123.08,411.96 2123.82,411.64 2124.78,411.297 2126.03,410.944 2127.66,410.585 2129.28,410.291 2130.91,410.007 2132.53,409.669 2134.16,409.241 2135.78,408.754 2137.41,408.259 2139.03,407.767 2140.66,407.244 2142.28,406.637 2143.91,405.961 2145.53,405.33 2147.16,404.86 2148.78,404.605 2150.41,404.568 2152.03,404.733 2153.66,405.072 2155.28,405.554 2156.91,406.146 2158.53,406.808 2160.16,407.506 2161.78,408.214 2163.41,408.921 2165.03,409.634 2166.65,410.362 2168.28,411.115 2169.9,411.888 2171.53,412.671 2173.15,413.442 2174.77,414.173 2176.4,414.824 2178.02,415.34 2179.65,415.647 2181.27,415.632 2182.9,415.119 2184.52,413.793 2186.14,410.966 2187.69,404.286 2188.28,395.309 2187.69,377.882 2187.07,370.488 2186.45,364.297 2185.8,358.473 2185.15,352.846 2184.48,347.314 2183.62,340.159 2182.5,330.734 2181.41,320.85 2180.41,309.709 2180.01,302.912 2179.98,293.34 2181.2,284.683 2181.9,282.688 2182.58,281.315 2183.26,280.277 2183.94,279.474 2184.63,278.846 2185.31,278.358 2186,277.985 2186.69,277.707 2187.37,277.512 2188.06,277.387 2188.75,277.323 2189.43,277.312 2190.33,277.364 2191.22,277.479 2192.38,277.707 2193.54,278.005 2195.05,278.477 2197.01,279.203 2198.97,280.019 2200.93,280.883 2202.89,281.764 2204.85,282.673 2206.81,283.654 2208.77,284.736 2210.73,285.91 2212.68,287.143 2214.64,288.389 2216.6,289.618 2218.56,290.829 2220.52,292.035 2222.48,293.238 2224.44,294.427 2226.39,295.584 2228.35,296.688 2230.31,297.722 2232.27,298.667 2234.23,299.51 2236.19,300.231 2238.15,300.802 2240.12,301.179 2242.08,301.287 2244.04,301.018 2246,300.215 2247.96,298.654 2249.91,295.966 2251.84,291.227 2253.62,278.995 2253.75,270.206 2253.54,263.899 2253.27,258.981 2252.96,254.466 2252.63,250.137 2252.3,245.895 2251.87,240.403 2251.31,233.133 2250.8,225.483 2250.36,217.119 2250.12,207.394 2250.73,195.164 2251.69,190.489 2252.51,188.385 2253.34,187.061 2254.16,186.214 2254.99,185.694 2255.82,185.413 2256.65,185.311 2257.48,185.347 2258.3,185.49 2259.13,185.716 2259.96,186.006 2260.79,186.343 2261.87,186.835 2263.27,187.533 2265.08,188.5 2266.9,189.515 2268.72,190.575 2270.54,191.675 2272.36,192.799 2274.18,193.921 2275.99,195.011 2277.81,196.038 2279.63,196.969 2281.45,197.765 2283.27,198.364 2285.09,198.675 2286.91,198.611 2288.73,198.13 2290.55,197.169 2292.37,195.478 "/>
<polyline clip-path="url(#clip192)" style="stroke:#e26f46; stroke-linecap:round; stroke-linejoin:round; stroke-width:4; stroke-opacity:1; fill:none" points="279.421,774.414 479.231,1386.4 "/>
<polyline clip-path="url(#clip192)" style="stroke:#e26f46; stroke-linecap:round; stroke-linejoin:round; stroke-width:4; stroke-opacity:1; fill:none" points="485.169,1346.59 479.231,1386.4 450.947,1357.76 "/>
<polyline clip-path="url(#clip192)" style="stroke:#e26f46; stroke-linecap:round; stroke-linejoin:round; stroke-width:4; stroke-opacity:1; fill:none" points="479.231,1386.4 279.421,774.414 "/>
<path clip-path="url(#clip190)" d="M2015.83 1379.86 L2281.63 1379.86 L2281.63 1276.18 L2015.83 1276.18  Z" fill="#ffffff" fill-rule="evenodd" fill-opacity="1"/>
<polyline clip-path="url(#clip190)" style="stroke:#000000; stroke-linecap:round; stroke-linejoin:round; stroke-width:4; stroke-opacity:1; fill:none" points="2015.83,1379.86 2281.63,1379.86 2281.63,1276.18 2015.83,1276.18 2015.83,1379.86 "/>
<polyline clip-path="url(#clip190)" style="stroke:#0000ff; stroke-linecap:round; stroke-linejoin:round; stroke-width:8; stroke-opacity:1; fill:none" stroke-dasharray="32, 20" points="2039.54,1328.02 2181.79,1328.02 "/>
<path clip-path="url(#clip190)" d="M2219.34 1347.7 Q2217.53 1352.33 2215.82 1353.75 Q2214.1 1355.16 2211.23 1355.16 L2207.83 1355.16 L2207.83 1351.59 L2210.33 1351.59 Q2212.09 1351.59 2213.06 1350.76 Q2214.04 1349.93 2215.22 1346.82 L2215.98 1344.88 L2205.49 1319.37 L2210.01 1319.37 L2218.11 1339.65 L2226.21 1319.37 L2230.72 1319.37 L2219.34 1347.7 Z" fill="#000000" fill-rule="nonzero" fill-opacity="1" /><path clip-path="url(#clip190)" d="M2238.02 1341.36 L2245.66 1341.36 L2245.66 1315 L2237.35 1316.66 L2237.35 1312.4 L2245.61 1310.74 L2250.28 1310.74 L2250.28 1341.36 L2257.92 1341.36 L2257.92 1345.3 L2238.02 1345.3 L2238.02 1341.36 Z" fill="#000000" fill-rule="nonzero" fill-opacity="1" /></svg>
