<?xml version="1.0" encoding="utf-8"?>
<svg xmlns="http://www.w3.org/2000/svg" xmlns:xlink="http://www.w3.org/1999/xlink" width="600" height="400" viewBox="0 0 2400 1600">
<defs>
  <clipPath id="clip220">
    <rect x="0" y="0" width="2400" height="1600"/>
  </clipPath>
</defs>
<path clip-path="url(#clip220)" d="M0 1600 L2400 1600 L2400 0 L0 0  Z" fill="#ffffff" fill-rule="evenodd" fill-opacity="1"/>
<defs>
  <clipPath id="clip221">
    <rect x="219" y="123" width="2135" height="1301"/>
  </clipPath>
</defs>
<path clip-path="url(#clip220)" d="M219.033 1423.18 L2352.76 1423.18 L2352.76 183.952 L219.033 183.952  Z" fill="#ffffff" fill-rule="evenodd" fill-opacity="1"/>
<defs>
  <clipPath id="clip222">
    <rect x="219" y="183" width="2135" height="1240"/>
  </clipPath>
</defs>
<polyline clip-path="url(#clip222)" style="stroke:#000000; stroke-linecap:round; stroke-linejoin:round; stroke-width:2; stroke-opacity:0.1; fill:none" points="219.033,1423.18 219.033,183.952 "/>
<polyline clip-path="url(#clip222)" style="stroke:#000000; stroke-linecap:round; stroke-linejoin:round; stroke-width:2; stroke-opacity:0.1; fill:none" points="645.778,1423.18 645.778,183.952 "/>
<polyline clip-path="url(#clip222)" style="stroke:#000000; stroke-linecap:round; stroke-linejoin:round; stroke-width:2; stroke-opacity:0.1; fill:none" points="1072.52,1423.18 1072.52,183.952 "/>
<polyline clip-path="url(#clip222)" style="stroke:#000000; stroke-linecap:round; stroke-linejoin:round; stroke-width:2; stroke-opacity:0.1; fill:none" points="1499.27,1423.18 1499.27,183.952 "/>
<polyline clip-path="url(#clip222)" style="stroke:#000000; stroke-linecap:round; stroke-linejoin:round; stroke-width:2; stroke-opacity:0.1; fill:none" points="1926.01,1423.18 1926.01,183.952 "/>
<polyline clip-path="url(#clip222)" style="stroke:#000000; stroke-linecap:round; stroke-linejoin:round; stroke-width:2; stroke-opacity:0.1; fill:none" points="2352.76,1423.18 2352.76,183.952 "/>
<polyline clip-path="url(#clip222)" style="stroke:#000000; stroke-linecap:round; stroke-linejoin:round; stroke-width:2; stroke-opacity:0.1; fill:none" points="219.033,1334.66 2352.76,1334.66 "/>
<polyline clip-path="url(#clip222)" style="stroke:#000000; stroke-linecap:round; stroke-linejoin:round; stroke-width:2; stroke-opacity:0.1; fill:none" points="219.033,1113.37 2352.76,1113.37 "/>
<polyline clip-path="url(#clip222)" style="stroke:#000000; stroke-linecap:round; stroke-linejoin:round; stroke-width:2; stroke-opacity:0.1; fill:none" points="219.033,892.082 2352.76,892.082 "/>
<polyline clip-path="url(#clip222)" style="stroke:#000000; stroke-linecap:round; stroke-linejoin:round; stroke-width:2; stroke-opacity:0.1; fill:none" points="219.033,670.792 2352.76,670.792 "/>
<polyline clip-path="url(#clip222)" style="stroke:#000000; stroke-linecap:round; stroke-linejoin:round; stroke-width:2; stroke-opacity:0.1; fill:none" points="219.033,449.501 2352.76,449.501 "/>
<polyline clip-path="url(#clip222)" style="stroke:#000000; stroke-linecap:round; stroke-linejoin:round; stroke-width:2; stroke-opacity:0.1; fill:none" points="219.033,228.21 2352.76,228.21 "/>
<polyline clip-path="url(#clip220)" style="stroke:#000000; stroke-linecap:round; stroke-linejoin:round; stroke-width:4; stroke-opacity:1; fill:none" points="219.033,1423.18 2352.76,1423.18 "/>
<polyline clip-path="url(#clip220)" style="stroke:#000000; stroke-linecap:round; stroke-linejoin:round; stroke-width:4; stroke-opacity:1; fill:none" points="219.033,1423.18 219.033,1404.28 "/>
<polyline clip-path="url(#clip220)" style="stroke:#000000; stroke-linecap:round; stroke-linejoin:round; stroke-width:4; stroke-opacity:1; fill:none" points="645.778,1423.18 645.778,1404.28 "/>
<polyline clip-path="url(#clip220)" style="stroke:#000000; stroke-linecap:round; stroke-linejoin:round; stroke-width:4; stroke-opacity:1; fill:none" points="1072.52,1423.18 1072.52,1404.28 "/>
<polyline clip-path="url(#clip220)" style="stroke:#000000; stroke-linecap:round; stroke-linejoin:round; stroke-width:4; stroke-opacity:1; fill:none" points="1499.27,1423.18 1499.27,1404.28 "/>
<polyline clip-path="url(#clip220)" style="stroke:#000000; stroke-linecap:round; stroke-linejoin:round; stroke-width:4; stroke-opacity:1; fill:none" points="1926.01,1423.18 1926.01,1404.28 "/>
<polyline clip-path="url(#clip220)" style="stroke:#000000; stroke-linecap:round; stroke-linejoin:round; stroke-width:4; stroke-opacity:1; fill:none" points="2352.76,1423.18 2352.76,1404.28 "/>
<path clip-path="url(#clip220)" d="M219.033 1454.1 Q215.422 1454.1 213.593 1457.66 Q211.788 1461.2 211.788 1468.33 Q211.788 1475.44 213.593 1479.01 Q215.422 1482.55 219.033 1482.55 Q222.667 1482.55 224.473 1479.01 Q226.301 1475.44 226.301 1468.33 Q226.301 1461.2 224.473 1457.66 Q222.667 1454.1 219.033 1454.1 M219.033 1450.39 Q224.843 1450.39 227.899 1455 Q230.977 1459.58 230.977 1468.33 Q230.977 1477.06 227.899 1481.67 Q224.843 1486.25 219.033 1486.25 Q213.223 1486.25 210.144 1481.67 Q207.089 1477.06 207.089 1468.33 Q207.089 1459.58 210.144 1455 Q213.223 1450.39 219.033 1450.39 Z" fill="#000000" fill-rule="nonzero" fill-opacity="1" /><path clip-path="url(#clip220)" d="M636.16 1481.64 L643.798 1481.64 L643.798 1455.28 L635.488 1456.95 L635.488 1452.69 L643.752 1451.02 L648.428 1451.02 L648.428 1481.64 L656.067 1481.64 L656.067 1485.58 L636.16 1485.58 L636.16 1481.64 Z" fill="#000000" fill-rule="nonzero" fill-opacity="1" /><path clip-path="url(#clip220)" d="M1067.17 1481.64 L1083.49 1481.64 L1083.49 1485.58 L1061.55 1485.58 L1061.55 1481.64 Q1064.21 1478.89 1068.8 1474.26 Q1073.4 1469.61 1074.58 1468.27 Q1076.83 1465.74 1077.71 1464.01 Q1078.61 1462.25 1078.61 1460.56 Q1078.61 1457.8 1076.67 1456.07 Q1074.74 1454.33 1071.64 1454.33 Q1069.44 1454.33 1066.99 1455.09 Q1064.56 1455.86 1061.78 1457.41 L1061.78 1452.69 Q1064.61 1451.55 1067.06 1450.97 Q1069.51 1450.39 1071.55 1450.39 Q1076.92 1450.39 1080.11 1453.08 Q1083.31 1455.77 1083.31 1460.26 Q1083.31 1462.39 1082.5 1464.31 Q1081.71 1466.2 1079.61 1468.8 Q1079.03 1469.47 1075.92 1472.69 Q1072.82 1475.88 1067.17 1481.64 Z" fill="#000000" fill-rule="nonzero" fill-opacity="1" /><path clip-path="url(#clip220)" d="M1503.51 1466.95 Q1506.87 1467.66 1508.75 1469.93 Q1510.64 1472.2 1510.64 1475.53 Q1510.64 1480.65 1507.13 1483.45 Q1503.61 1486.25 1497.13 1486.25 Q1494.95 1486.25 1492.63 1485.81 Q1490.34 1485.39 1487.89 1484.54 L1487.89 1480.02 Q1489.83 1481.16 1492.15 1481.74 Q1494.46 1482.32 1496.99 1482.32 Q1501.38 1482.32 1503.68 1480.58 Q1505.99 1478.84 1505.99 1475.53 Q1505.99 1472.48 1503.84 1470.77 Q1501.71 1469.03 1497.89 1469.03 L1493.86 1469.03 L1493.86 1465.19 L1498.07 1465.19 Q1501.52 1465.19 1503.35 1463.82 Q1505.18 1462.43 1505.18 1459.84 Q1505.18 1457.18 1503.28 1455.77 Q1501.41 1454.33 1497.89 1454.33 Q1495.97 1454.33 1493.77 1454.75 Q1491.57 1455.16 1488.93 1456.04 L1488.93 1451.88 Q1491.59 1451.14 1493.91 1450.77 Q1496.25 1450.39 1498.31 1450.39 Q1503.63 1450.39 1506.73 1452.83 Q1509.83 1455.23 1509.83 1459.35 Q1509.83 1462.22 1508.19 1464.21 Q1506.55 1466.18 1503.51 1466.95 Z" fill="#000000" fill-rule="nonzero" fill-opacity="1" /><path clip-path="url(#clip220)" d="M1929.02 1455.09 L1917.22 1473.54 L1929.02 1473.54 L1929.02 1455.09 M1927.79 1451.02 L1933.67 1451.02 L1933.67 1473.54 L1938.6 1473.54 L1938.6 1477.43 L1933.67 1477.43 L1933.67 1485.58 L1929.02 1485.58 L1929.02 1477.43 L1913.42 1477.43 L1913.42 1472.92 L1927.79 1451.02 Z" fill="#000000" fill-rule="nonzero" fill-opacity="1" /><path clip-path="url(#clip220)" d="M2343.03 1451.02 L2361.39 1451.02 L2361.39 1454.96 L2347.32 1454.96 L2347.32 1463.43 Q2348.33 1463.08 2349.35 1462.92 Q2350.37 1462.73 2351.39 1462.73 Q2357.18 1462.73 2360.56 1465.9 Q2363.94 1469.08 2363.94 1474.49 Q2363.94 1480.07 2360.46 1483.17 Q2356.99 1486.25 2350.67 1486.25 Q2348.5 1486.25 2346.23 1485.88 Q2343.98 1485.51 2341.58 1484.77 L2341.58 1480.07 Q2343.66 1481.2 2345.88 1481.76 Q2348.1 1482.32 2350.58 1482.32 Q2354.58 1482.32 2356.92 1480.21 Q2359.26 1478.1 2359.26 1474.49 Q2359.26 1470.88 2356.92 1468.77 Q2354.58 1466.67 2350.58 1466.67 Q2348.71 1466.67 2346.83 1467.08 Q2344.98 1467.5 2343.03 1468.38 L2343.03 1451.02 Z" fill="#000000" fill-rule="nonzero" fill-opacity="1" /><path clip-path="url(#clip220)" d="M1270.57 1561.55 Q1271.71 1563.08 1275.15 1563.08 L1277.99 1563.08 L1277.99 1568.04 L1274.45 1568.04 Q1268.72 1568.04 1266.11 1564.99 Q1263.5 1561.87 1263.5 1555.12 L1263.5 1538.25 L1250.14 1538.25 L1250.14 1532.4 L1283.01 1532.4 L1283.01 1538.25 L1269.49 1538.25 L1269.49 1555.47 Q1269.49 1560.09 1270.57 1561.55 Z" fill="#000000" fill-rule="nonzero" fill-opacity="1" /><path clip-path="url(#clip220)" d="M1294.28 1562.63 L1304.78 1562.63 L1304.78 1526.38 L1293.36 1528.67 L1293.36 1522.82 L1304.72 1520.52 L1311.15 1520.52 L1311.15 1562.63 L1321.65 1562.63 L1321.65 1568.04 L1294.28 1568.04 L1294.28 1562.63 Z" fill="#000000" fill-rule="nonzero" fill-opacity="1" /><polyline clip-path="url(#clip220)" style="stroke:#000000; stroke-linecap:round; stroke-linejoin:round; stroke-width:4; stroke-opacity:1; fill:none" points="219.033,1423.18 219.033,183.952 "/>
<polyline clip-path="url(#clip220)" style="stroke:#000000; stroke-linecap:round; stroke-linejoin:round; stroke-width:4; stroke-opacity:1; fill:none" points="219.033,1334.66 237.931,1334.66 "/>
<polyline clip-path="url(#clip220)" style="stroke:#000000; stroke-linecap:round; stroke-linejoin:round; stroke-width:4; stroke-opacity:1; fill:none" points="219.033,1113.37 237.931,1113.37 "/>
<polyline clip-path="url(#clip220)" style="stroke:#000000; stroke-linecap:round; stroke-linejoin:round; stroke-width:4; stroke-opacity:1; fill:none" points="219.033,892.082 237.931,892.082 "/>
<polyline clip-path="url(#clip220)" style="stroke:#000000; stroke-linecap:round; stroke-linejoin:round; stroke-width:4; stroke-opacity:1; fill:none" points="219.033,670.792 237.931,670.792 "/>
<polyline clip-path="url(#clip220)" style="stroke:#000000; stroke-linecap:round; stroke-linejoin:round; stroke-width:4; stroke-opacity:1; fill:none" points="219.033,449.501 237.931,449.501 "/>
<polyline clip-path="url(#clip220)" style="stroke:#000000; stroke-linecap:round; stroke-linejoin:round; stroke-width:4; stroke-opacity:1; fill:none" points="219.033,228.21 237.931,228.21 "/>
<path clip-path="url(#clip220)" d="M116.668 1348.01 L124.306 1348.01 L124.306 1321.64 L115.996 1323.31 L115.996 1319.05 L124.26 1317.38 L128.936 1317.38 L128.936 1348.01 L136.575 1348.01 L136.575 1351.94 L116.668 1351.94 L116.668 1348.01 Z" fill="#000000" fill-rule="nonzero" fill-opacity="1" /><path clip-path="url(#clip220)" d="M146.019 1346.06 L150.903 1346.06 L150.903 1351.94 L146.019 1351.94 L146.019 1346.06 Z" fill="#000000" fill-rule="nonzero" fill-opacity="1" /><path clip-path="url(#clip220)" d="M171.089 1320.46 Q167.477 1320.46 165.649 1324.03 Q163.843 1327.57 163.843 1334.7 Q163.843 1341.8 165.649 1345.37 Q167.477 1348.91 171.089 1348.91 Q174.723 1348.91 176.528 1345.37 Q178.357 1341.8 178.357 1334.7 Q178.357 1327.57 176.528 1324.03 Q174.723 1320.46 171.089 1320.46 M171.089 1316.76 Q176.899 1316.76 179.954 1321.37 Q183.033 1325.95 183.033 1334.7 Q183.033 1343.43 179.954 1348.03 Q176.899 1352.61 171.089 1352.61 Q165.278 1352.61 162.2 1348.03 Q159.144 1343.43 159.144 1334.7 Q159.144 1325.95 162.2 1321.37 Q165.278 1316.76 171.089 1316.76 Z" fill="#000000" fill-rule="nonzero" fill-opacity="1" /><path clip-path="url(#clip220)" d="M117.663 1126.72 L125.302 1126.72 L125.302 1100.35 L116.992 1102.02 L116.992 1097.76 L125.255 1096.09 L129.931 1096.09 L129.931 1126.72 L137.57 1126.72 L137.57 1130.65 L117.663 1130.65 L117.663 1126.72 Z" fill="#000000" fill-rule="nonzero" fill-opacity="1" /><path clip-path="url(#clip220)" d="M147.015 1124.77 L151.899 1124.77 L151.899 1130.65 L147.015 1130.65 L147.015 1124.77 Z" fill="#000000" fill-rule="nonzero" fill-opacity="1" /><path clip-path="url(#clip220)" d="M162.13 1096.09 L180.487 1096.09 L180.487 1100.03 L166.413 1100.03 L166.413 1108.5 Q167.431 1108.15 168.45 1107.99 Q169.468 1107.81 170.487 1107.81 Q176.274 1107.81 179.653 1110.98 Q183.033 1114.15 183.033 1119.57 Q183.033 1125.14 179.561 1128.25 Q176.089 1131.32 169.769 1131.32 Q167.593 1131.32 165.325 1130.95 Q163.079 1130.58 160.672 1129.84 L160.672 1125.14 Q162.755 1126.28 164.977 1126.83 Q167.2 1127.39 169.677 1127.39 Q173.681 1127.39 176.019 1125.28 Q178.357 1123.18 178.357 1119.57 Q178.357 1115.95 176.019 1113.85 Q173.681 1111.74 169.677 1111.74 Q167.802 1111.74 165.927 1112.16 Q164.075 1112.57 162.13 1113.45 L162.13 1096.09 Z" fill="#000000" fill-rule="nonzero" fill-opacity="1" /><path clip-path="url(#clip220)" d="M119.885 905.427 L136.204 905.427 L136.204 909.362 L114.26 909.362 L114.26 905.427 Q116.922 902.672 121.505 898.043 Q126.112 893.39 127.292 892.048 Q129.538 889.524 130.417 887.788 Q131.32 886.029 131.32 884.339 Q131.32 881.585 129.376 879.849 Q127.455 878.112 124.353 878.112 Q122.154 878.112 119.7 878.876 Q117.269 879.64 114.492 881.191 L114.492 876.469 Q117.316 875.335 119.769 874.756 Q122.223 874.177 124.26 874.177 Q129.63 874.177 132.825 876.862 Q136.019 879.548 136.019 884.038 Q136.019 886.168 135.209 888.089 Q134.422 889.987 132.316 892.58 Q131.737 893.251 128.635 896.469 Q125.533 899.663 119.885 905.427 Z" fill="#000000" fill-rule="nonzero" fill-opacity="1" /><path clip-path="url(#clip220)" d="M146.019 903.483 L150.903 903.483 L150.903 909.362 L146.019 909.362 L146.019 903.483 Z" fill="#000000" fill-rule="nonzero" fill-opacity="1" /><path clip-path="url(#clip220)" d="M171.089 877.881 Q167.477 877.881 165.649 881.446 Q163.843 884.987 163.843 892.117 Q163.843 899.223 165.649 902.788 Q167.477 906.33 171.089 906.33 Q174.723 906.33 176.528 902.788 Q178.357 899.223 178.357 892.117 Q178.357 884.987 176.528 881.446 Q174.723 877.881 171.089 877.881 M171.089 874.177 Q176.899 874.177 179.954 878.784 Q183.033 883.367 183.033 892.117 Q183.033 900.844 179.954 905.45 Q176.899 910.034 171.089 910.034 Q165.278 910.034 162.2 905.45 Q159.144 900.844 159.144 892.117 Q159.144 883.367 162.2 878.784 Q165.278 874.177 171.089 874.177 Z" fill="#000000" fill-rule="nonzero" fill-opacity="1" /><path clip-path="url(#clip220)" d="M120.88 684.136 L137.2 684.136 L137.2 688.072 L115.256 688.072 L115.256 684.136 Q117.918 681.382 122.501 676.752 Q127.107 672.099 128.288 670.757 Q130.533 668.234 131.413 666.498 Q132.316 664.738 132.316 663.049 Q132.316 660.294 130.371 658.558 Q128.45 656.822 125.348 656.822 Q123.149 656.822 120.695 657.586 Q118.265 658.35 115.487 659.9 L115.487 655.178 Q118.311 654.044 120.765 653.465 Q123.218 652.887 125.255 652.887 Q130.626 652.887 133.82 655.572 Q137.015 658.257 137.015 662.748 Q137.015 664.877 136.204 666.799 Q135.417 668.697 133.311 671.289 Q132.732 671.961 129.63 675.178 Q126.529 678.373 120.88 684.136 Z" fill="#000000" fill-rule="nonzero" fill-opacity="1" /><path clip-path="url(#clip220)" d="M147.015 682.192 L151.899 682.192 L151.899 688.072 L147.015 688.072 L147.015 682.192 Z" fill="#000000" fill-rule="nonzero" fill-opacity="1" /><path clip-path="url(#clip220)" d="M162.13 653.512 L180.487 653.512 L180.487 657.447 L166.413 657.447 L166.413 665.919 Q167.431 665.572 168.45 665.41 Q169.468 665.224 170.487 665.224 Q176.274 665.224 179.653 668.396 Q183.033 671.567 183.033 676.984 Q183.033 682.562 179.561 685.664 Q176.089 688.743 169.769 688.743 Q167.593 688.743 165.325 688.373 Q163.079 688.002 160.672 687.261 L160.672 682.562 Q162.755 683.697 164.977 684.252 Q167.2 684.808 169.677 684.808 Q173.681 684.808 176.019 682.701 Q178.357 680.595 178.357 676.984 Q178.357 673.373 176.019 671.266 Q173.681 669.16 169.677 669.16 Q167.802 669.16 165.927 669.576 Q164.075 669.993 162.13 670.873 L162.13 653.512 Z" fill="#000000" fill-rule="nonzero" fill-opacity="1" /><path clip-path="url(#clip220)" d="M130.024 448.147 Q133.38 448.864 135.255 451.133 Q137.154 453.401 137.154 456.735 Q137.154 461.85 133.635 464.651 Q130.117 467.452 123.635 467.452 Q121.459 467.452 119.144 467.012 Q116.853 466.596 114.399 465.739 L114.399 461.225 Q116.343 462.36 118.658 462.938 Q120.973 463.517 123.496 463.517 Q127.894 463.517 130.186 461.781 Q132.501 460.045 132.501 456.735 Q132.501 453.679 130.348 451.966 Q128.218 450.23 124.399 450.23 L120.371 450.23 L120.371 446.388 L124.584 446.388 Q128.033 446.388 129.862 445.022 Q131.691 443.633 131.691 441.04 Q131.691 438.378 129.792 436.966 Q127.917 435.531 124.399 435.531 Q122.478 435.531 120.279 435.948 Q118.08 436.364 115.441 437.244 L115.441 433.077 Q118.103 432.337 120.418 431.966 Q122.755 431.596 124.816 431.596 Q130.14 431.596 133.242 434.026 Q136.343 436.434 136.343 440.554 Q136.343 443.425 134.7 445.415 Q133.056 447.383 130.024 448.147 Z" fill="#000000" fill-rule="nonzero" fill-opacity="1" /><path clip-path="url(#clip220)" d="M146.019 460.901 L150.903 460.901 L150.903 466.781 L146.019 466.781 L146.019 460.901 Z" fill="#000000" fill-rule="nonzero" fill-opacity="1" /><path clip-path="url(#clip220)" d="M171.089 435.3 Q167.477 435.3 165.649 438.864 Q163.843 442.406 163.843 449.536 Q163.843 456.642 165.649 460.207 Q167.477 463.749 171.089 463.749 Q174.723 463.749 176.528 460.207 Q178.357 456.642 178.357 449.536 Q178.357 442.406 176.528 438.864 Q174.723 435.3 171.089 435.3 M171.089 431.596 Q176.899 431.596 179.954 436.202 Q183.033 440.786 183.033 449.536 Q183.033 458.262 179.954 462.869 Q176.899 467.452 171.089 467.452 Q165.278 467.452 162.2 462.869 Q159.144 458.262 159.144 449.536 Q159.144 440.786 162.2 436.202 Q165.278 431.596 171.089 431.596 Z" fill="#000000" fill-rule="nonzero" fill-opacity="1" /><path clip-path="url(#clip220)" d="M131.019 226.856 Q134.376 227.574 136.251 229.842 Q138.149 232.111 138.149 235.444 Q138.149 240.56 134.63 243.361 Q131.112 246.162 124.63 246.162 Q122.455 246.162 120.14 245.722 Q117.848 245.305 115.394 244.449 L115.394 239.935 Q117.339 241.069 119.654 241.648 Q121.968 242.226 124.492 242.226 Q128.89 242.226 131.181 240.49 Q133.496 238.754 133.496 235.444 Q133.496 232.388 131.343 230.676 Q129.214 228.939 125.394 228.939 L121.367 228.939 L121.367 225.097 L125.58 225.097 Q129.029 225.097 130.857 223.731 Q132.686 222.342 132.686 219.75 Q132.686 217.088 130.788 215.676 Q128.913 214.24 125.394 214.24 Q123.473 214.24 121.274 214.657 Q119.075 215.074 116.436 215.953 L116.436 211.787 Q119.098 211.046 121.413 210.676 Q123.751 210.305 125.811 210.305 Q131.135 210.305 134.237 212.736 Q137.339 215.143 137.339 219.264 Q137.339 222.134 135.695 224.125 Q134.052 226.092 131.019 226.856 Z" fill="#000000" fill-rule="nonzero" fill-opacity="1" /><path clip-path="url(#clip220)" d="M147.015 239.611 L151.899 239.611 L151.899 245.49 L147.015 245.49 L147.015 239.611 Z" fill="#000000" fill-rule="nonzero" fill-opacity="1" /><path clip-path="url(#clip220)" d="M162.13 210.93 L180.487 210.93 L180.487 214.865 L166.413 214.865 L166.413 223.338 Q167.431 222.99 168.45 222.828 Q169.468 222.643 170.487 222.643 Q176.274 222.643 179.653 225.814 Q183.033 228.986 183.033 234.402 Q183.033 239.981 179.561 243.083 Q176.089 246.162 169.769 246.162 Q167.593 246.162 165.325 245.791 Q163.079 245.421 160.672 244.68 L160.672 239.981 Q162.755 241.115 164.977 241.671 Q167.2 242.226 169.677 242.226 Q173.681 242.226 176.019 240.12 Q178.357 238.013 178.357 234.402 Q178.357 230.791 176.019 228.685 Q173.681 226.578 169.677 226.578 Q167.802 226.578 165.927 226.995 Q164.075 227.412 162.13 228.291 L162.13 210.93 Z" fill="#000000" fill-rule="nonzero" fill-opacity="1" /><path clip-path="url(#clip220)" d="M58.3387 781.143 L64.0042 781.143 L64.0042 800.24 L58.3387 800.24 Q55.2513 794.606 49.9678 791.455 Q44.6842 788.304 38.2549 788.304 Q30.616 788.304 26.0009 792.506 Q21.3858 796.707 21.3858 803.582 Q21.3858 810.457 26.0327 814.69 Q30.6479 818.891 38.2549 818.891 Q44.6842 818.891 49.9678 815.74 Q55.2513 812.558 58.3387 806.892 L64.0042 806.892 L64.0042 825.989 L58.3387 825.989 L58.3387 815.836 Q53.9145 820.865 49.1721 823.188 Q44.4296 825.48 38.5732 825.48 Q28.4517 825.48 22.1815 819.369 Q15.9112 813.29 15.9112 803.582 Q15.9112 793.938 22.1815 787.795 Q28.4199 781.684 38.2549 781.684 Q44.4296 781.684 49.1402 783.944 Q53.8509 786.204 58.3387 791.328 L58.3387 781.143 Z" fill="#000000" fill-rule="nonzero" fill-opacity="1" /><path clip-path="url(#clip220)" d="M744.815 39.9885 L744.815 62.7141 L755.104 62.7141 Q760.816 62.7141 763.935 59.7569 Q767.055 56.7998 767.055 51.331 Q767.055 45.9028 763.935 42.9457 Q760.816 39.9885 755.104 39.9885 L744.815 39.9885 M736.632 33.264 L755.104 33.264 Q765.272 33.264 770.457 37.882 Q775.683 42.4596 775.683 51.331 Q775.683 60.2835 770.457 64.8611 Q765.272 69.4386 755.104 69.4386 L744.815 69.4386 L744.815 93.744 L736.632 93.744 L736.632 33.264 Z" fill="#000000" fill-rule="nonzero" fill-opacity="1" /><path clip-path="url(#clip220)" d="M786.337 30.7119 L793.791 30.7119 L793.791 93.744 L786.337 93.744 L786.337 30.7119 Z" fill="#000000" fill-rule="nonzero" fill-opacity="1" /><path clip-path="url(#clip220)" d="M826.967 53.5995 Q820.972 53.5995 817.488 58.2986 Q814.005 62.9571 814.005 71.0994 Q814.005 79.2418 817.448 83.9408 Q820.932 88.5994 826.967 88.5994 Q832.922 88.5994 836.406 83.9003 Q839.89 79.2013 839.89 71.0994 Q839.89 63.0381 836.406 58.3391 Q832.922 53.5995 826.967 53.5995 M826.967 47.2801 Q836.69 47.2801 842.239 53.5995 Q847.789 59.9189 847.789 71.0994 Q847.789 82.2394 842.239 88.5994 Q836.69 94.9188 826.967 94.9188 Q817.205 94.9188 811.655 88.5994 Q806.146 82.2394 806.146 71.0994 Q806.146 59.9189 811.655 53.5995 Q817.205 47.2801 826.967 47.2801 Z" fill="#000000" fill-rule="nonzero" fill-opacity="1" /><path clip-path="url(#clip220)" d="M867.517 35.492 L867.517 48.3739 L882.87 48.3739 L882.87 54.1667 L867.517 54.1667 L867.517 78.7962 Q867.517 84.3459 869.016 85.9258 Q870.555 87.5056 875.214 87.5056 L882.87 87.5056 L882.87 93.744 L875.214 93.744 Q866.585 93.744 863.304 90.5438 Q860.023 87.3031 860.023 78.7962 L860.023 54.1667 L854.554 54.1667 L854.554 48.3739 L860.023 48.3739 L860.023 35.492 L867.517 35.492 Z" fill="#000000" fill-rule="nonzero" fill-opacity="1" /><path clip-path="url(#clip220)" d="M942.013 30.7119 L942.013 36.9098 L934.884 36.9098 Q930.873 36.9098 929.293 38.5302 Q927.754 40.1505 927.754 44.3635 L927.754 48.3739 L940.028 48.3739 L940.028 54.1667 L927.754 54.1667 L927.754 93.744 L920.26 93.744 L920.26 54.1667 L913.13 54.1667 L913.13 48.3739 L920.26 48.3739 L920.26 45.2142 Q920.26 37.639 923.784 34.1957 Q927.308 30.7119 934.965 30.7119 L942.013 30.7119 Z" fill="#000000" fill-rule="nonzero" fill-opacity="1" /><path clip-path="url(#clip220)" d="M965.832 53.5995 Q959.837 53.5995 956.353 58.2986 Q952.87 62.9571 952.87 71.0994 Q952.87 79.2418 956.313 83.9408 Q959.797 88.5994 965.832 88.5994 Q971.787 88.5994 975.271 83.9003 Q978.755 79.2013 978.755 71.0994 Q978.755 63.0381 975.271 58.3391 Q971.787 53.5995 965.832 53.5995 M965.832 47.2801 Q975.555 47.2801 981.104 53.5995 Q986.654 59.9189 986.654 71.0994 Q986.654 82.2394 981.104 88.5994 Q975.555 94.9188 965.832 94.9188 Q956.07 94.9188 950.52 88.5994 Q945.011 82.2394 945.011 71.0994 Q945.011 59.9189 950.52 53.5995 Q956.07 47.2801 965.832 47.2801 Z" fill="#000000" fill-rule="nonzero" fill-opacity="1" /><path clip-path="url(#clip220)" d="M1025.3 55.3414 Q1024.04 54.6123 1022.55 54.2882 Q1021.09 53.9236 1019.3 53.9236 Q1012.99 53.9236 1009.58 58.0555 Q1006.22 62.1469 1006.22 69.8437 L1006.22 93.744 L998.726 93.744 L998.726 48.3739 L1006.22 48.3739 L1006.22 55.4224 Q1008.57 51.2905 1012.34 49.3056 Q1016.1 47.2801 1021.49 47.2801 Q1022.26 47.2801 1023.19 47.4017 Q1024.12 47.4827 1025.26 47.6852 L1025.3 55.3414 Z" fill="#000000" fill-rule="nonzero" fill-opacity="1" /><path clip-path="url(#clip220)" d="M1075.21 94.7567 Q1065.85 93.2579 1061.51 89.3285 Q1056.21 84.5079 1056.21 74.6642 L1056.21 48.3739 L1063.74 48.3739 L1063.74 74.3807 Q1063.74 81.7938 1067.19 84.8725 Q1070.18 87.5461 1075.21 88.1132 L1075.21 48.3739 L1082.62 48.3739 L1082.62 88.0727 Q1087.93 87.5056 1090.64 84.832 Q1094.08 81.4293 1094.08 74.3402 L1094.08 48.3739 L1101.62 48.3739 L1101.62 74.6237 Q1101.62 84.832 1096.31 89.288 Q1091.53 93.2984 1082.62 94.7162 L1082.62 111.001 L1075.21 111.001 L1075.21 94.7567 Z" fill="#000000" fill-rule="nonzero" fill-opacity="1" /><path clip-path="url(#clip220)" d="M1141.56 56.0706 L1193.49 56.0706 L1193.49 62.8761 L1141.56 62.8761 L1141.56 56.0706 M1141.56 72.5983 L1193.49 72.5983 L1193.49 79.4848 L1141.56 79.4848 L1141.56 72.5983 Z" fill="#000000" fill-rule="nonzero" fill-opacity="1" /><path clip-path="url(#clip220)" d="M1255.03 38.6517 Q1248.71 38.6517 1245.51 44.8901 Q1242.35 51.088 1242.35 63.5648 Q1242.35 76.001 1245.51 82.2394 Q1248.71 88.4373 1255.03 88.4373 Q1261.39 88.4373 1264.55 82.2394 Q1267.75 76.001 1267.75 63.5648 Q1267.75 51.088 1264.55 44.8901 Q1261.39 38.6517 1255.03 38.6517 M1255.03 32.1703 Q1265.19 32.1703 1270.54 40.2316 Q1275.93 48.2523 1275.93 63.5648 Q1275.93 78.8367 1270.54 86.898 Q1265.19 94.9188 1255.03 94.9188 Q1244.86 94.9188 1239.47 86.898 Q1234.12 78.8367 1234.12 63.5648 Q1234.12 48.2523 1239.47 40.2316 Q1244.86 32.1703 1255.03 32.1703 Z" fill="#000000" fill-rule="nonzero" fill-opacity="1" /><path clip-path="url(#clip220)" d="M1290.31 83.4547 L1298.86 83.4547 L1298.86 93.744 L1290.31 93.744 L1290.31 83.4547 Z" fill="#000000" fill-rule="nonzero" fill-opacity="1" /><path clip-path="url(#clip220)" d="M1316.76 33.264 L1348.89 33.264 L1348.89 40.1505 L1324.26 40.1505 L1324.26 54.9768 Q1326.04 54.3692 1327.82 54.0856 Q1329.6 53.7616 1331.39 53.7616 Q1341.51 53.7616 1347.43 59.3113 Q1353.34 64.8611 1353.34 74.3402 Q1353.34 84.1028 1347.27 89.5311 Q1341.19 94.9188 1330.13 94.9188 Q1326.32 94.9188 1322.35 94.2706 Q1318.42 93.6225 1314.21 92.3262 L1314.21 84.1028 Q1317.86 86.0878 1321.74 87.06 Q1325.63 88.0322 1329.97 88.0322 Q1336.98 88.0322 1341.07 84.3459 Q1345.16 80.6596 1345.16 74.3402 Q1345.16 68.0208 1341.07 64.3344 Q1336.98 60.6481 1329.97 60.6481 Q1326.69 60.6481 1323.41 61.3773 Q1320.17 62.1064 1316.76 63.6458 L1316.76 33.264 Z" fill="#000000" fill-rule="nonzero" fill-opacity="1" /><path clip-path="url(#clip220)" d="M1367.4 33.264 L1406.29 33.264 L1406.29 36.7478 L1384.33 93.744 L1375.78 93.744 L1396.44 40.1505 L1367.4 40.1505 L1367.4 33.264 Z" fill="#000000" fill-rule="nonzero" fill-opacity="1" /><path clip-path="url(#clip220)" d="M1423.67 86.8575 L1437.03 86.8575 L1437.03 40.7177 L1422.49 43.6343 L1422.49 36.1807 L1436.95 33.264 L1445.14 33.264 L1445.14 86.8575 L1458.5 86.8575 L1458.5 93.744 L1423.67 93.744 L1423.67 86.8575 Z" fill="#000000" fill-rule="nonzero" fill-opacity="1" /><path clip-path="url(#clip220)" d="M1475.88 83.4547 L1484.43 83.4547 L1484.43 90.4223 L1477.79 103.385 L1472.56 103.385 L1475.88 90.4223 L1475.88 83.4547 Z" fill="#000000" fill-rule="nonzero" fill-opacity="1" /><path clip-path="url(#clip220)" d="M1527.04 33.264 L1538.06 33.264 L1564.88 83.8598 L1564.88 33.264 L1572.82 33.264 L1572.82 93.744 L1561.8 93.744 L1534.98 43.1482 L1534.98 93.744 L1527.04 93.744 L1527.04 33.264 Z" fill="#000000" fill-rule="nonzero" fill-opacity="1" /><path clip-path="url(#clip220)" d="M1616.12 56.0706 L1668.06 56.0706 L1668.06 62.8761 L1616.12 62.8761 L1616.12 56.0706 M1616.12 72.5983 L1668.06 72.5983 L1668.06 79.4848 L1616.12 79.4848 L1616.12 72.5983 Z" fill="#000000" fill-rule="nonzero" fill-opacity="1" /><path clip-path="url(#clip220)" d="M1713.51 86.8575 L1726.88 86.8575 L1726.88 40.7177 L1712.33 43.6343 L1712.33 36.1807 L1726.79 33.264 L1734.98 33.264 L1734.98 86.8575 L1748.35 86.8575 L1748.35 93.744 L1713.51 93.744 L1713.51 86.8575 Z" fill="#000000" fill-rule="nonzero" fill-opacity="1" /><path clip-path="url(#clip220)" d="M1766.29 86.8575 L1779.66 86.8575 L1779.66 40.7177 L1765.12 43.6343 L1765.12 36.1807 L1779.58 33.264 L1787.76 33.264 L1787.76 86.8575 L1801.13 86.8575 L1801.13 93.744 L1766.29 93.744 L1766.29 86.8575 Z" fill="#000000" fill-rule="nonzero" fill-opacity="1" /><path clip-path="url(#clip220)" d="M874.12 139.094 L881.574 139.094 L890.891 174.499 L900.167 139.094 L908.958 139.094 L918.275 174.499 L927.551 139.094 L935.005 139.094 L923.136 184.464 L914.345 184.464 L904.583 147.277 L894.78 184.464 L885.989 184.464 L874.12 139.094 Z" fill="#000000" fill-rule="nonzero" fill-opacity="1" /><path clip-path="url(#clip220)" d="M946.307 139.094 L953.761 139.094 L953.761 184.464 L946.307 184.464 L946.307 139.094 M946.307 121.432 L953.761 121.432 L953.761 130.871 L946.307 130.871 L946.307 121.432 Z" fill="#000000" fill-rule="nonzero" fill-opacity="1" /><path clip-path="url(#clip220)" d="M976.729 126.212 L976.729 139.094 L992.082 139.094 L992.082 144.887 L976.729 144.887 L976.729 169.516 Q976.729 175.066 978.228 176.646 Q979.768 178.226 984.426 178.226 L992.082 178.226 L992.082 184.464 L984.426 184.464 Q975.798 184.464 972.516 181.264 Q969.235 178.023 969.235 169.516 L969.235 144.887 L963.767 144.887 L963.767 139.094 L969.235 139.094 L969.235 126.212 L976.729 126.212 Z" fill="#000000" fill-rule="nonzero" fill-opacity="1" /><path clip-path="url(#clip220)" d="M1039.6 157.08 L1039.6 184.464 L1032.15 184.464 L1032.15 157.323 Q1032.15 150.882 1029.63 147.682 Q1027.12 144.482 1022.1 144.482 Q1016.06 144.482 1012.58 148.33 Q1009.1 152.178 1009.1 158.822 L1009.1 184.464 L1001.6 184.464 L1001.6 121.432 L1009.1 121.432 L1009.1 146.142 Q1011.77 142.051 1015.38 140.026 Q1019.02 138 1023.76 138 Q1031.58 138 1035.59 142.861 Q1039.6 147.682 1039.6 157.08 Z" fill="#000000" fill-rule="nonzero" fill-opacity="1" /><path clip-path="url(#clip220)" d="M1103.08 176.2 Q1104.54 178.145 1108.91 178.145 L1112.52 178.145 L1112.52 184.464 L1108.02 184.464 Q1100.73 184.464 1097.41 180.575 Q1094.08 176.605 1094.08 168.017 L1094.08 146.548 L1077.07 146.548 L1077.07 139.094 L1118.92 139.094 L1118.92 146.548 L1101.7 146.548 L1101.7 168.463 Q1101.7 174.337 1103.08 176.2 Z" fill="#000000" fill-rule="nonzero" fill-opacity="1" /><path clip-path="url(#clip220)" d="M1149.34 129.372 Q1143.02 129.372 1139.82 135.61 Q1136.66 141.808 1136.66 154.285 Q1136.66 166.721 1139.82 172.959 Q1143.02 179.157 1149.34 179.157 Q1155.7 179.157 1158.86 172.959 Q1162.06 166.721 1162.06 154.285 Q1162.06 141.808 1158.86 135.61 Q1155.7 129.372 1149.34 129.372 M1149.34 122.89 Q1159.51 122.89 1164.85 130.952 Q1170.24 138.972 1170.24 154.285 Q1170.24 169.557 1164.85 177.618 Q1159.51 185.639 1149.34 185.639 Q1139.17 185.639 1133.78 177.618 Q1128.44 169.557 1128.44 154.285 Q1128.44 138.972 1133.78 130.952 Q1139.17 122.89 1149.34 122.89 Z" fill="#000000" fill-rule="nonzero" fill-opacity="1" /><path clip-path="url(#clip220)" d="M1210.91 146.791 L1262.84 146.791 L1262.84 153.596 L1210.91 153.596 L1210.91 146.791 M1210.91 163.318 L1262.84 163.318 L1262.84 170.205 L1210.91 170.205 L1210.91 163.318 Z" fill="#000000" fill-rule="nonzero" fill-opacity="1" /><path clip-path="url(#clip220)" d="M1324.38 129.372 Q1318.06 129.372 1314.86 135.61 Q1311.7 141.808 1311.7 154.285 Q1311.7 166.721 1314.86 172.959 Q1318.06 179.157 1324.38 179.157 Q1330.74 179.157 1333.9 172.959 Q1337.1 166.721 1337.1 154.285 Q1337.1 141.808 1333.9 135.61 Q1330.74 129.372 1324.38 129.372 M1324.38 122.89 Q1334.55 122.89 1339.89 130.952 Q1345.28 138.972 1345.28 154.285 Q1345.28 169.557 1339.89 177.618 Q1334.55 185.639 1324.38 185.639 Q1314.21 185.639 1308.82 177.618 Q1303.48 169.557 1303.48 154.285 Q1303.48 138.972 1308.82 130.952 Q1314.21 122.89 1324.38 122.89 Z" fill="#000000" fill-rule="nonzero" fill-opacity="1" /><path clip-path="url(#clip220)" d="M1359.66 174.175 L1368.21 174.175 L1368.21 184.464 L1359.66 184.464 L1359.66 174.175 Z" fill="#000000" fill-rule="nonzero" fill-opacity="1" /><path clip-path="url(#clip220)" d="M1393.08 177.577 L1421.64 177.577 L1421.64 184.464 L1383.24 184.464 L1383.24 177.577 Q1387.9 172.757 1395.92 164.655 Q1403.98 156.513 1406.04 154.163 Q1409.97 149.748 1411.51 146.71 Q1413.09 143.631 1413.09 140.674 Q1413.09 135.853 1409.69 132.815 Q1406.33 129.777 1400.9 129.777 Q1397.05 129.777 1392.76 131.114 Q1388.5 132.45 1383.64 135.164 L1383.64 126.901 Q1388.58 124.916 1392.88 123.903 Q1397.17 122.89 1400.74 122.89 Q1410.14 122.89 1415.73 127.589 Q1421.32 132.288 1421.32 140.147 Q1421.32 143.874 1419.9 147.236 Q1418.52 150.558 1414.83 155.095 Q1413.82 156.27 1408.39 161.9 Q1402.97 167.491 1393.08 177.577 Z" fill="#000000" fill-rule="nonzero" fill-opacity="1" /><path clip-path="url(#clip220)" d="M1439.67 174.175 L1448.21 174.175 L1448.21 181.142 L1441.57 194.105 L1436.35 194.105 L1439.67 181.142 L1439.67 174.175 Z" fill="#000000" fill-rule="nonzero" fill-opacity="1" /><path clip-path="url(#clip220)" d="M1522.55 146.304 Q1521.05 145.778 1519.55 145.373 Q1515.54 144.32 1511.25 144.32 Q1503.83 144.32 1499.7 148.33 Q1495.85 152.057 1495.12 158.903 L1522.55 158.903 L1522.55 164.736 L1495.12 164.736 Q1495.85 171.582 1499.7 175.309 Q1503.83 179.319 1511.25 179.319 Q1516.43 179.319 1519.55 178.266 L1522.55 177.253 L1522.55 184.018 L1519.35 184.748 Q1515.14 185.639 1510.8 185.639 Q1499.94 185.639 1493.62 179.319 Q1487.26 173 1487.26 161.819 Q1487.26 150.639 1493.62 144.32 Q1499.94 138 1510.8 138 Q1514.89 138 1519.35 138.891 Q1520.97 139.215 1522.55 139.702 L1522.55 146.304 Z" fill="#000000" fill-rule="nonzero" fill-opacity="1" /><path clip-path="url(#clip220)" d="M1542.52 146.791 L1594.45 146.791 L1594.45 153.596 L1542.52 153.596 L1542.52 146.791 M1542.52 163.318 L1594.45 163.318 L1594.45 170.205 L1542.52 170.205 L1542.52 163.318 Z" fill="#000000" fill-rule="nonzero" fill-opacity="1" /><path clip-path="url(#clip220)" d="M1629.61 129.372 Q1623.29 129.372 1620.09 135.61 Q1616.93 141.808 1616.93 154.285 Q1616.93 166.721 1620.09 172.959 Q1623.29 179.157 1629.61 179.157 Q1635.97 179.157 1639.13 172.959 Q1642.33 166.721 1642.33 154.285 Q1642.33 141.808 1639.13 135.61 Q1635.97 129.372 1629.61 129.372 M1629.61 122.89 Q1639.78 122.89 1645.13 130.952 Q1650.52 138.972 1650.52 154.285 Q1650.52 169.557 1645.13 177.618 Q1639.78 185.639 1629.61 185.639 Q1619.45 185.639 1614.06 177.618 Q1608.71 169.557 1608.71 154.285 Q1608.71 138.972 1614.06 130.952 Q1619.45 122.89 1629.61 122.89 Z" fill="#000000" fill-rule="nonzero" fill-opacity="1" /><path clip-path="url(#clip220)" d="M1664.9 174.175 L1673.44 174.175 L1673.44 184.464 L1664.9 184.464 L1664.9 174.175 Z" fill="#000000" fill-rule="nonzero" fill-opacity="1" /><path clip-path="url(#clip220)" d="M1692.69 177.577 L1706.05 177.577 L1706.05 131.438 L1691.51 134.354 L1691.51 126.901 L1705.97 123.984 L1714.16 123.984 L1714.16 177.577 L1727.52 177.577 L1727.52 184.464 L1692.69 184.464 L1692.69 177.577 Z" fill="#000000" fill-rule="nonzero" fill-opacity="1" /><polyline clip-path="url(#clip222)" style="stroke:#ff0000; stroke-linecap:round; stroke-linejoin:round; stroke-width:4; stroke-opacity:1; fill:none" points="219.033,814.563 223.3,814.902 227.568,815.369 231.835,815.972 236.103,816.714 236.721,816.843 240.37,817.603 244.638,818.641 248.905,819.829 253.173,821.166 253.471,821.269 257.44,822.644 261.707,824.256 265.256,825.695 265.975,825.986 270.242,827.82 274.51,829.737 275.336,830.121 278.777,831.716 283.045,833.732 284.758,834.547 287.312,835.759 291.58,837.771 294.183,838.972 295.847,839.74 300.114,841.646 304.207,843.398 304.382,843.473 308.649,845.212 312.917,846.851 315.643,847.824 317.184,848.375 321.452,849.767 325.719,851.005 329.987,852.06 330.959,852.25 334.254,852.897 338.521,853.48 342.789,853.799 347.056,853.882 351.324,853.768 355.591,853.486 359.859,853.045 364.126,852.448 365.273,852.25 368.394,851.708 372.661,850.847 376.928,849.875 381.196,848.802 384.777,847.824 385.463,847.636 389.731,846.388 393.998,845.071 398.266,843.698 399.168,843.398 402.533,842.277 406.801,840.816 411.068,839.317 412.021,838.972 415.335,837.772 419.603,836.165 423.698,834.547 423.87,834.478 428.138,832.709 432.405,830.872 434.104,830.121 436.673,828.98 440.94,827.038 443.811,825.695 445.208,825.039 449.475,822.976 452.885,821.269 453.742,820.838 458.01,818.614 461.28,816.843 462.277,816.3 466.545,813.901 469.113,812.418 470.812,811.432 475.08,808.917 476.643,807.992 479.347,806.391 483.615,803.89 484.182,803.566 487.882,801.46 492.149,799.14 492.149,799.14 496.417,796.972 500.684,794.98 501.309,794.714 504.952,793.188 509.219,791.596 513.204,790.289 513.487,790.197 517.754,788.99 522.022,787.969 526.289,787.131 530.556,786.461 534.824,785.937 535.61,785.863 539.091,785.538 543.359,785.246 547.626,785.041 551.894,784.901 556.161,784.804 560.429,784.732 564.696,784.67 568.964,784.6 573.231,784.511 577.498,784.408 581.766,784.304 586.033,784.198 590.301,784.08 594.568,783.945 598.836,783.812 603.103,783.712 607.371,783.663 611.638,783.674 615.905,783.745 620.173,783.871 624.44,784.037 628.708,784.223 632.975,784.413 637.243,784.605 641.51,784.805 645.778,785.015 650.045,785.228 654.312,785.427 658.58,785.586 662.847,785.676 667.115,785.664 671.382,785.522 675.65,785.229 679.917,784.771 684.185,784.14 688.452,783.335 692.719,782.357 696.146,781.437 696.987,781.206 701.254,779.879 705.522,778.371 708.954,777.011 709.789,776.673 714.057,774.809 718.324,772.853 718.901,772.585 722.592,770.878 726.859,768.954 728.728,768.159 731.126,767.159 735.394,765.56 739.661,764.193 741.388,763.734 743.929,763.082 748.196,762.217 752.464,761.57 756.731,761.106 760.999,760.789 765.266,760.594 769.533,760.502 773.801,760.498 778.068,760.563 782.336,760.679 786.603,760.832 790.871,761.012 795.138,761.204 799.406,761.404 803.673,761.621 807.94,761.87 812.208,762.151 816.475,762.446 820.743,762.738 825.01,763.025 829.278,763.309 833.545,763.591 835.81,763.734 837.813,763.86 842.08,764.109 846.347,764.331 850.615,764.522 854.882,764.676 859.15,764.787 863.417,764.846 867.685,764.84 871.952,764.756 876.22,764.583 880.487,764.317 884.755,763.953 886.769,763.734 889.022,763.482 893.289,762.887 897.557,762.151 901.824,761.259 906.092,760.199 909.168,759.308 910.359,758.951 914.627,757.495 918.894,755.884 921.426,754.882 923.162,754.192 927.429,752.503 931.696,750.876 932.858,750.456 935.964,749.358 940.231,747.974 944.499,746.749 947.435,746.03 948.766,745.718 953.034,744.912 957.301,744.325 961.569,743.95 965.836,743.771 970.103,743.759 974.371,743.871 978.638,744.062 982.906,744.292 987.173,744.543 991.441,744.812 995.708,745.094 999.976,745.376 1004.24,745.64 1008.51,745.87 1012.35,746.03 1012.78,746.049 1017.05,746.153 1021.31,746.167 1025.58,746.093 1027.34,746.03 1029.85,745.938 1034.12,745.69 1038.38,745.324 1042.65,744.829 1046.92,744.233 1051.18,743.574 1055.45,742.887 1059.72,742.202 1063.6,741.605 1063.99,741.545 1068.25,740.949 1072.52,740.43 1076.79,740.002 1081.06,739.668 1085.32,739.426 1089.59,739.268 1093.86,739.19 1098.13,739.198 1102.39,739.301 1106.66,739.508 1110.93,739.82 1115.2,740.234 1119.46,740.745 1123.73,741.349 1125.29,741.605 1128,742.049 1132.27,742.836 1136.53,743.697 1140.8,744.626 1145.07,745.617 1146.73,746.03 1149.34,746.68 1153.6,747.811 1157.87,749.002 1162.14,750.25 1162.8,750.456 1166.41,751.583 1170.67,752.979 1174.94,754.428 1176.21,754.882 1179.21,755.955 1183.48,757.541 1187.74,759.166 1188.1,759.308 1192.01,760.87 1196.28,762.605 1198.99,763.734 1200.55,764.38 1204.81,766.2 1209.08,768.034 1209.37,768.159 1213.35,769.91 1217.62,771.794 1219.39,772.585 1221.88,773.7 1226.15,775.62 1229.23,777.011 1230.42,777.549 1234.69,779.493 1238.95,781.437 1238.95,781.437 1243.22,783.39 1247.49,785.337 1248.64,785.863 1251.75,787.279 1256.02,789.211 1258.41,790.289 1260.29,791.132 1264.56,793.031 1268.36,794.714 1268.82,794.922 1273.09,796.773 1277.36,798.613 1278.61,799.14 1281.63,800.412 1285.89,802.182 1289.27,803.566 1290.16,803.928 1294.43,805.61 1298.7,807.273 1300.6,807.992 1302.96,808.878 1307.23,810.428 1311.5,811.947 1312.89,812.418 1315.77,813.385 1320.03,814.756 1324.3,816.08 1326.91,816.843 1328.57,817.323 1332.84,818.467 1337.1,819.541 1341.37,820.534 1344.92,821.269 1345.64,821.417 1349.91,822.116 1354.17,822.647 1358.44,822.991 1362.71,823.138 1366.98,823.096 1371.24,822.882 1375.51,822.517 1379.78,822.021 1384.05,821.417 1384.97,821.269 1388.31,820.719 1392.58,819.967 1396.85,819.188 1401.12,818.408 1405.38,817.649 1409.65,816.931 1410.21,816.843 1413.92,816.283 1418.19,815.71 1422.45,815.223 1426.72,814.83 1430.99,814.536 1435.26,814.346 1439.52,814.261 1443.79,814.28 1448.06,814.402 1452.32,814.624 1456.59,814.94 1460.86,815.345 1465.13,815.834 1469.39,816.401 1472.32,816.843 1473.66,817.05 1477.93,817.789 1482.2,818.591 1486.46,819.449 1490.73,820.355 1494.83,821.269 1495,821.308 1499.27,822.34 1503.53,823.403 1507.8,824.493 1512.07,825.608 1512.39,825.695 1516.34,826.776 1520.6,827.959 1524.87,829.153 1528.29,830.121 1529.14,830.364 1533.41,831.597 1537.67,832.83 1541.94,834.066 1543.59,834.547 1546.21,835.307 1550.48,836.54 1554.74,837.768 1558.94,838.972 1559.01,838.992 1563.28,840.188 1567.55,841.37 1571.81,842.54 1574.99,843.398 1576.08,843.69 1580.35,844.799 1584.62,845.887 1588.88,846.954 1592.44,847.824 1593.15,847.994 1597.42,848.964 1601.69,849.893 1605.95,850.776 1610.22,851.606 1613.85,852.25 1614.49,852.359 1618.76,852.953 1623.02,853.412 1627.29,853.709 1631.56,853.824 1635.82,853.743 1640.09,853.456 1644.36,852.943 1648.24,852.25 1648.63,852.169 1652.89,851.036 1657.16,849.617 1661.43,847.904 1661.61,847.824 1665.7,845.775 1669.94,843.398 1669.96,843.385 1674.23,840.688 1676.79,838.972 1678.5,837.738 1682.53,834.547 1682.77,834.334 1687.03,830.153 1687.07,830.121 1690.94,825.695 1691.3,825.239 1694.23,821.269 1695.57,819.142 1696.91,816.843 1699.08,812.418 1699.84,810.681 1700.99,807.992 1702.96,803.566 1704.1,801.421 1705.44,799.14 1708.37,795.482 1709.11,794.714 1712.64,792.031 1715.63,790.289 1716.91,789.702 1721.17,788.16 1725.44,787.045 1729.71,786.254 1732.66,785.863 1733.98,785.71 1738.24,785.348 1742.51,785.102 1746.78,784.938 1751.05,784.827 1755.31,784.746 1759.58,784.678 1763.85,784.606 1768.12,784.519 1772.38,784.417 1776.65,784.309 1780.92,784.197 1785.19,784.074 1789.45,783.941 1793.72,783.814 1797.99,783.721 1802.26,783.68 1806.52,783.698 1810.79,783.772 1815.06,783.892 1819.33,784.045 1823.59,784.218 1827.86,784.398 1832.13,784.581 1836.39,784.769 1840.66,784.963 1844.93,785.162 1849.2,785.353 1853.46,785.521 1857.73,785.641 1862,785.677 1866.27,785.588 1870.53,785.328 1874.8,784.845 1879.07,784.09 1883.34,783.01 1887.6,781.546 1887.87,781.437 1891.87,779.356 1895.38,777.011 1896.14,776.366 1900.1,772.585 1900.41,772.274 1904.67,768.192 1904.71,768.159 1908.94,765.336 1912.24,763.734 1913.21,763.387 1917.48,762.253 1921.74,761.502 1926.01,761.018 1930.28,760.722 1934.55,760.565 1938.81,760.513 1943.08,760.54 1947.35,760.625 1951.62,760.751 1955.88,760.907 1960.15,761.08 1964.42,761.264 1968.69,761.461 1972.95,761.676 1977.22,761.912 1981.49,762.168 1985.76,762.437 1990.02,762.709 1994.29,762.976 1998.56,763.24 2002.83,763.502 2006.67,763.734 2007.09,763.759 2011.36,763.999 2015.63,764.219 2019.9,764.413 2024.16,764.579 2028.43,764.71 2032.7,764.799 2036.96,764.834 2041.23,764.8 2045.5,764.681 2049.77,764.463 2054.03,764.13 2057.71,763.734 2058.3,763.66 2062.57,762.971 2066.84,762.039 2071.1,760.793 2074.99,759.308 2075.37,759.12 2079.64,756.611 2082.17,754.882 2083.91,753.638 2088.17,750.716 2088.59,750.456 2092.44,748.393 2096.71,746.545 2098.22,746.03 2100.98,745.305 2105.24,744.526 2109.51,744.061 2113.78,743.843 2118.05,743.804 2122.31,743.887 2126.58,744.047 2130.85,744.252 2135.12,744.483 2139.38,744.728 2143.65,744.983 2147.92,745.243 2152.19,745.498 2156.45,745.734 2160.72,745.938 2163.29,746.03 2164.99,746.09 2169.26,746.163 2173.52,746.15 2177.79,746.051 2178.27,746.03 2182.06,745.849 2186.33,745.516 2190.59,745.017 2194.86,744.356 2199.13,743.582 2203.4,742.757 2207.66,741.935 2209.48,741.605 2211.93,741.191 2216.2,740.572 2220.47,740.078 2224.73,739.708 2229,739.449 2233.27,739.289 2237.53,739.221 2241.8,739.244 2246.07,739.358 2250.34,739.561 2254.6,739.847 2258.87,740.208 2263.14,740.637 2267.41,741.124 2271.2,741.605 2271.67,741.668 2275.94,742.308 2280.21,742.985 2284.48,743.694 2288.74,744.432 2293.01,745.195 2297.28,745.979 2297.54,746.03 2301.55,746.843 2305.81,747.731 2310.08,748.634 2314.35,749.548 2318.56,750.456 2318.62,750.468 2322.88,751.489 2327.15,752.517 2331.42,753.545 2335.69,754.569 2336.95,754.882 2339.95,755.668 2344.22,756.794 2348.49,757.909 2352.76,759.013 "/>
<polyline clip-path="url(#clip222)" style="stroke:#008000; stroke-linecap:round; stroke-linejoin:round; stroke-width:8; stroke-opacity:0.5; fill:none" stroke-dasharray="32, 20" points="325.719,851.005 326.132,851.116 326.67,851.257 327.37,851.437 328.282,851.663 329.471,851.943 331.021,852.284 333.045,852.684 335.69,853.123 338.349,853.462 341.019,853.698 344.5,853.859 347.984,853.873 351.465,853.762 354.941,853.54 358.41,853.213 361.867,852.783 365.313,852.256 368.744,851.642 372.162,850.953 375.566,850.197 378.957,849.377 382.334,848.5 385.698,847.569 389.05,846.592 392.39,845.575 395.72,844.524 399.042,843.443 402.356,842.337 405.663,841.209 408.963,840.061 412.257,838.891 415.541,837.696 418.815,836.467 422.074,835.198 425.318,833.887 428.546,832.536 431.762,831.153 434.967,829.743 438.161,828.309 441.346,826.85 444.519,825.366 447.68,823.853 450.826,822.308 453.957,820.728 457.07,819.112 460.164,817.457 463.24,815.766 466.299,814.042 469.342,812.289 472.374,810.515 475.399,808.728 478.421,806.937 481.448,805.153 484.484,803.388 487.537,801.652 490.612,799.96 493.716,798.324 496.853,796.758 500.028,795.273 503.241,793.881 506.493,792.588 509.781,791.399 513.103,790.314 516.456,789.336 519.836,788.467 523.242,787.709 526.668,787.064 530.112,786.523 533.567,786.077 537.032,785.716 540.503,785.43 543.978,785.21 547.456,785.047 550.936,784.928 554.416,784.84 557.896,784.773 561.377,784.718 564.858,784.668 568.338,784.612 571.819,784.543 575.299,784.462 578.779,784.376 582.259,784.292 585.74,784.206 589.219,784.112 592.699,784.006 596.178,783.893 599.658,783.789 603.138,783.71 606.619,783.666 610.101,783.661 613.582,783.698 617.062,783.773 620.542,783.883 624.021,784.019 627.499,784.169 630.977,784.324 634.455,784.479 637.932,784.636 641.41,784.8 644.887,784.971 648.364,785.145 651.841,785.315 655.319,785.469 658.798,785.593 662.279,785.669 665.761,785.681 669.242,785.612 672.721,785.449 676.194,785.182 679.658,784.806 683.108,784.319 686.543,783.72 689.958,783.013 693.351,782.199 696.72,781.284 700.063,780.27 703.375,779.156 706.655,777.941 709.899,776.628 713.112,775.234 716.301,773.787 719.481,772.316 722.66,770.845 725.849,769.399 729.061,768.005 732.305,766.692 735.588,765.487 738.914,764.411 742.279,763.478 745.681,762.694 749.11,762.055 752.56,761.552 756.023,761.167 759.494,760.881 762.971,760.681 766.451,760.556 769.932,760.496 773.413,760.494 776.894,760.538 780.375,760.619 783.854,760.728 787.333,760.86 790.811,761.009 794.289,761.166 797.767,761.326 801.244,761.493 804.721,761.677 808.196,761.885 811.67,762.113 815.144,762.354 818.617,762.594 822.091,762.829 825.565,763.062 829.039,763.293 832.513,763.523 835.987,763.747 839.462,763.96 842.938,764.157 846.415,764.336 849.893,764.493 853.371,764.627 856.851,764.735 860.332,764.811 863.813,764.851 867.294,764.847 870.775,764.791 874.255,764.677 877.732,764.503 881.206,764.265 884.676,763.962 888.139,763.59 891.594,763.142 895.038,762.609 898.467,761.981 901.878,761.254 905.267,760.423 908.63,759.484 911.962,758.43 915.26,757.27 918.53,756.028 921.783,754.742 925.032,753.445 928.287,752.166 931.557,750.926 934.845,749.74 938.156,748.623 941.492,747.587 944.855,746.65 948.247,745.829 951.666,745.139 955.109,744.589 958.571,744.18 962.045,743.909 965.525,743.767 969.008,743.738 972.49,743.802 975.969,743.932 979.446,744.101 982.923,744.292 986.398,744.495 989.873,744.711 993.347,744.937 996.821,745.169 1000.3,745.397 1003.77,745.613 1007.25,745.807 1010.72,745.97 1014.2,746.093 1017.68,746.162 1021.17,746.169 1024.65,746.117 1028.13,746.011 1031.61,745.85 1035.08,745.622 1038.55,745.312 1042.01,744.916 1045.46,744.449 1048.91,743.934 1052.35,743.389 1055.79,742.833 1059.23,742.279 1062.67,741.742 1066.12,741.237 1069.57,740.776 1073.03,740.368 1076.5,740.021 1079.97,739.737 1083.44,739.515 1086.92,739.351 1090.4,739.24 1093.88,739.182 1097.36,739.18 1100.84,739.242 1104.32,739.371 1107.8,739.57 1111.27,739.838 1114.74,740.174 1118.2,740.575 1121.65,741.038 1125.1,741.56 1128.53,742.138 1131.96,742.768 1135.38,743.446 1138.79,744.169 1142.19,744.934 1145.59,745.738 1148.97,746.581 1152.35,747.462 1155.71,748.38 1159.07,749.337 1162.42,750.332 1165.75,751.365 1169.08,752.436 1172.39,753.543 1175.69,754.686 1178.99,755.862 1182.27,757.071 1185.54,758.31 1188.8,759.577 1192.05,760.87 1195.29,762.186 1198.52,763.524 1201.75,764.881 1204.97,766.254 1208.18,767.641 1211.39,769.041 1214.59,770.45 1217.8,771.869 1220.99,773.295 1224.19,774.729 1227.38,776.169 1230.57,777.615 1233.76,779.066 1236.94,780.519 1240.13,781.975 1243.31,783.431 1246.5,784.887 1249.69,786.34 1252.88,787.79 1256.07,789.234 1259.26,790.672 1262.45,792.103 1265.65,793.525 1268.86,794.938 1272.07,796.339 1275.28,797.728 1278.5,799.103 1281.72,800.464 1284.95,801.809 1288.19,803.136 1291.43,804.444 1294.69,805.731 1297.95,806.997 1301.22,808.239 1304.49,809.457 1307.78,810.648 1311.08,811.81 1314.38,812.941 1317.7,814.037 1321.03,815.096 1324.37,816.116 1327.72,817.093 1331.08,818.027 1334.46,818.914 1337.84,819.75 1341.24,820.527 1344.66,821.234 1348.09,821.857 1351.53,822.376 1354.99,822.772 1358.47,823.035 1361.95,823.164 1365.43,823.164 1368.91,823.046 1372.39,822.82 1375.86,822.497 1379.32,822.09 1382.77,821.611 1386.21,821.074 1389.65,820.491 1393.08,819.879 1396.51,819.251 1399.93,818.62 1403.36,818.001 1406.8,817.403 1410.24,816.837 1413.68,816.312 1417.13,815.835 1420.59,815.412 1424.05,815.049 1427.52,814.749 1431,814.517 1434.47,814.353 1437.96,814.259 1441.44,814.235 1444.92,814.28 1448.4,814.393 1451.88,814.571 1455.35,814.813 1458.82,815.116 1462.28,815.477 1465.74,815.893 1469.19,816.362 1472.64,816.881 1476.08,817.447 1479.51,818.058 1482.93,818.709 1486.35,819.4 1489.76,820.126 1493.16,820.885 1496.56,821.674 1499.95,822.49 1503.34,823.332 1506.72,824.196 1510.09,825.08 1513.46,825.981 1516.83,826.899 1520.19,827.83 1523.55,828.772 1526.91,829.725 1530.27,830.685 1533.62,831.652 1536.97,832.623 1540.33,833.596 1543.68,834.571 1547.03,835.545 1550.38,836.517 1553.74,837.484 1557.09,838.446 1560.45,839.4 1563.81,840.345 1567.17,841.279 1570.54,842.203 1573.9,843.113 1577.28,844.01 1580.65,844.893 1584.03,845.759 1587.41,846.608 1590.8,847.437 1594.2,848.244 1597.59,849.026 1601,849.779 1604.41,850.5 1607.83,851.182 1611.26,851.817 1614.69,852.397 1618.14,852.905 1621.6,853.326 1625.07,853.638 1628.55,853.826 1632.03,853.883 1635.51,853.807 1638.99,853.597 1642.46,853.24 1645.9,852.718 1649.32,852.013 1652.7,851.128 1656.03,850.065 1659.31,848.823 1662.51,847.405 1665.65,845.829 1668.72,844.12 1671.73,842.304 1674.69,840.402 1677.6,838.413 1680.43,836.303 1683.13,834.016 1685.69,831.556 1688.12,828.973 1690.46,826.289 1692.66,823.493 1694.71,820.565 1696.56,817.497 1698.21,814.306 1699.69,811.035 1701.1,807.731 1702.54,804.445 1704.15,801.239 1706.06,798.199 1708.35,795.439 1711.03,793.068 1714,791.118 1717.17,789.552 1720.46,788.317 1723.83,787.365 1727.24,786.643 1730.69,786.098 1734.15,785.687 1737.62,785.382 1741.1,785.161 1744.57,785.004 1748.05,784.893 1751.53,784.811 1755.02,784.749 1758.5,784.696 1761.98,784.644 1765.46,784.581 1768.94,784.503 1772.42,784.416 1775.9,784.329 1779.38,784.241 1782.86,784.149 1786.34,784.043 1789.82,783.926 1793.3,783.814 1796.78,783.726 1800.26,783.672 1803.74,783.659 1807.22,783.686 1810.7,783.752 1814.18,783.85 1817.66,783.974 1821.14,784.114 1824.62,784.26 1828.09,784.407 1831.57,784.555 1835.05,784.706 1838.53,784.863 1842.01,785.026 1845.48,785.19 1848.96,785.349 1852.44,785.491 1855.92,785.605 1859.4,785.674 1862.88,785.678 1866.36,785.597 1869.84,785.407 1873.31,785.081 1876.76,784.592 1880.19,783.91 1883.56,783.006 1886.87,781.851 1890.08,780.415 1893.14,778.657 1895.98,776.532 1898.59,774.109 1901.08,771.582 1903.62,769.114 1906.36,766.869 1909.38,765.001 1912.61,763.571 1915.97,762.533 1919.39,761.802 1922.84,761.293 1926.31,760.943 1929.79,760.709 1933.26,760.567 1936.75,760.499 1940.23,760.492 1943.71,760.531 1947.19,760.606 1950.67,760.708 1954.15,760.831 1957.63,760.97 1961.1,761.118 1964.58,761.269 1968.06,761.424 1971.54,761.59 1975.01,761.774 1978.49,761.977 1981.97,762.195 1985.44,762.419 1988.91,762.64 1992.39,762.858 1995.86,763.074 1999.34,763.289 2002.81,763.503 2006.29,763.712 2009.76,763.913 2013.24,764.102 2016.72,764.276 2020.2,764.433 2023.67,764.571 2027.15,764.686 2030.63,764.776 2034.11,764.835 2037.6,764.855 2041.08,764.827 2044.56,764.741 2048.04,764.589 2051.51,764.362 2054.98,764.051 2058.44,763.645 2061.89,763.126 2065.31,762.46 2068.7,761.61 2072.03,760.535 2075.27,759.182 2078.37,757.491 2081.3,755.516 2084.15,753.442 2087.04,751.433 2090.04,749.59 2093.16,747.972 2096.4,746.621 2099.75,745.562 2103.16,744.786 2106.61,744.258 2110.08,743.934 2113.56,743.772 2117.05,743.737 2120.53,743.795 2124.01,743.915 2127.49,744.072 2130.96,744.249 2134.44,744.438 2137.92,744.636 2141.39,744.844 2144.87,745.058 2148.34,745.274 2151.82,745.483 2155.29,745.679 2158.77,745.854 2162.25,746.002 2165.73,746.111 2169.21,746.168 2172.69,746.164 2176.17,746.101 2179.65,745.979 2183.13,745.791 2186.6,745.515 2190.06,745.123 2193.51,744.611 2196.94,744.01 2200.37,743.355 2203.79,742.679 2207.21,742.017 2210.64,741.396 2214.08,740.841 2217.53,740.368 2220.99,739.982 2224.46,739.683 2227.94,739.462 2231.42,739.307 2234.9,739.212 2238.38,739.174 2241.86,739.196 2245.34,739.279 2248.82,739.423 2252.29,739.627 2255.77,739.885 2259.24,740.195 2262.7,740.551 2266.16,740.949 2269.62,741.387 2273.07,741.86 2276.51,742.367 2279.96,742.902 2283.4,743.465 2286.83,744.053 2290.26,744.662 2293.69,745.293 2297.11,745.944 2300.53,746.614 2303.95,747.303 2307.36,748.009 2310.77,748.733 2314.18,749.475 2317.59,750.234 2320.98,751.01 2324.38,751.802 2327.77,752.609 2331.16,753.432 2334.55,754.269 2337.93,755.12 2341.31,755.983 2344.69,756.859 2348.06,757.747 2351.44,758.645 2354.81,759.553 2358.17,760.47 2361.54,761.396 2364.9,762.33 2368.26,763.271 2371.62,764.219 2374.98,765.172 2378.33,766.13 2381.69,767.093 2385.04,768.06 2388.4,769.03 2391.75,770.003 2395.1,770.978 2398.45,771.956 2401.8,772.937 2405.15,773.919 2408.5,774.902 2411.85,775.888 2415.2,776.874 2418.55,777.862 2421.89,778.85 2425.24,779.839 2428.59,780.829 2431.94,781.818 2435.29,782.806 2438.63,783.795 2441.98,784.782 2445.33,785.767 2448.68,786.751 2452.03,787.733 2455.38,788.713 2458.73,789.69 2462.08,790.665 2465.44,791.636 2468.79,792.604 2472.14,793.568 2475.5,794.529 2478.86,795.485 2482.21,796.437 2485.57,797.385 2488.93,798.327 2492.3,799.264 2495.66,800.196 2499.02,801.122 2502.39,802.041 2505.76,802.954 2509.13,803.86 2512.5,804.759 2515.87,805.65 2519.25,806.533 2522.63,807.407 2526,808.273 2529.39,809.129 2532.77,809.976 2536.16,810.812 2539.55,811.637 2542.94,812.45 2546.33,813.251 2549.73,814.038 2553.13,814.81 2556.53,815.566 2559.94,816.305 2563.35,817.027 2566.77,817.731 2570.18,818.414 2573.61,819.077 2577.03,819.715 2580.46,820.327 2583.9,820.906 2587.34,821.446 2590.79,821.937 2594.25,822.367 2597.71,822.721 2601.19,822.983 2604.67,823.138 2608.15,823.177 2611.63,823.091 2615.11,822.875 2618.57,822.525 2622.03,822.045 2625.46,821.443 2628.88,820.739 2632.28,819.961 2635.67,819.147 2639.06,818.333 2642.46,817.554 2645.87,816.834 2649.3,816.193 2652.74,815.641 2656.19,815.183 2659.66,814.82 2663.13,814.549 2666.61,814.365 2670.09,814.262 2673.57,814.235 2677.05,814.276 2680.53,814.379 2684.01,814.54 2687.49,814.751 2690.96,815.01 2694.43,815.312 2697.89,815.652 2701.36,816.028 2704.81,816.437 2708.27,816.875 2711.72,817.341 2715.17,817.832 2718.62,818.346 2722.06,818.881 2725.5,819.436 2728.94,820.009 2732.37,820.597 2735.8,821.201 2739.23,821.818 2742.66,822.448 2746.09,823.089 2749.51,823.74 2752.93,824.4 2756.35,825.069 2759.77,825.745 2763.19,826.428 2766.61,827.116 2770.02,827.81 2773.44,828.509 2776.85,829.211 2780.27,829.917 2783.68,830.626 2787.09,831.337 2790.51,832.05 2793.92,832.764 2797.33,833.479 2800.74,834.194 2804.16,834.909 2807.57,835.623 2810.98,836.335 2814.39,837.046 2817.81,837.754 2821.22,838.46 2824.64,839.162 2828.05,839.86 2831.47,840.555 2834.88,841.244 2838.3,841.929 2841.72,842.608 2845.14,843.282 2848.56,843.95 2851.98,844.611 2855.41,845.265 2858.83,845.912 2862.26,846.551 2865.69,847.182 2869.12,847.803 2872.55,848.413 2875.98,849.011 2879.41,849.596 2882.85,850.166 2886.29,850.719 2889.73,851.252 2893.18,851.76 2896.63,852.24 2900.09,852.682 2903.55,853.079 2907.01,853.415 2910.49,853.674 2913.97,853.836 2917.45,853.882 2920.93,853.792 2924.41,853.537 2927.86,853.055 2931.27,852.228 2934.54,850.892 2937.5,848.823 2939.74,845.815 2941.02,842.275 2941.6,838.647 2941.44,834.96 2940.48,831.39 2939.16,828.026 2937.6,824.783 2935.84,821.662 2933.87,818.672 2931.76,815.799 2929.54,813.015 2927.26,810.282 2924.97,807.562 2922.71,804.813 2920.55,801.982 2918.59,798.987 2917.11,795.667 2917.14,791.672 2920.88,788.095 2924.48,786.821 2927.92,786.109 2931.38,785.638 2934.85,785.319 2938.33,785.104 2941.81,784.958 2945.29,784.856 2948.77,784.782 2952.25,784.724 2955.73,784.672 2959.21,784.615 2962.69,784.542 2966.17,784.456 2969.65,784.365 2973.13,784.275 2976.61,784.183 2980.09,784.079 2983.57,783.959 2987.05,783.839 2990.53,783.741 2994.01,783.679 2997.49,783.658 3000.97,783.678 3004.45,783.736 3007.93,783.825 3011.41,783.938 3014.89,784.068 3018.37,784.206 3021.85,784.346 3025.33,784.486 3028.8,784.628 3032.28,784.774 3035.76,784.926 3039.24,785.081 3042.72,785.236 3046.2,785.383 3049.67,785.515 3053.15,785.618 3056.63,785.678 3060.12,785.673 3063.6,785.574 3067.07,785.341 3070.53,784.91 3073.96,784.176 3077.27,782.945 3080.22,780.805 3081.83,776.884 3081.32,772.737 3080.75,769.173 3081.46,765.392 3085.49,762.524 3089.09,761.589 3092.56,761.086 3096.03,760.781 3099.51,760.601 3102.99,760.511 3106.47,760.489 3109.95,760.517 3113.43,760.581 3116.92,760.673 3120.39,760.785 3123.87,760.913 3127.35,761.052 3130.83,761.195 3134.31,761.34 3137.79,761.491 3141.26,761.654 3144.74,761.833 3148.22,762.027 3151.69,762.232 3155.17,762.441 3158.64,762.647 3162.12,762.85 3165.59,763.051 3169.07,763.252 3172.55,763.452 3176.02,763.65 3179.5,763.841 3182.97,764.023 3186.45,764.194 3189.93,764.351 3193.41,764.493 3196.89,764.617 3200.37,764.72 3203.85,764.799 3207.33,764.846 3210.81,764.852 3214.29,764.807 3217.77,764.696 3221.25,764.504 3224.72,764.214 3228.18,763.8 3231.62,763.218 3235.01,762.373 3238.29,761.069 3241.2,758.861 3242.86,755.1 3243.82,751.586 3245.72,748.389 3248.78,746.101 3252.21,744.869 3255.68,744.222 3259.16,743.891 3262.64,743.754 3266.13,743.744 3269.61,743.817 3273.09,743.941 3276.56,744.095 3280.04,744.263 3283.52,744.441 3286.99,744.628 3290.47,744.822 3293.95,745.023 3297.42,745.225 3300.9,745.423 3304.37,745.612 3307.85,745.785 3311.33,745.938 3314.81,746.062 3318.29,746.145 3321.77,746.174 3325.25,746.141 3328.73,746.047 3332.21,745.883 3335.68,745.626 3339.15,745.224 3342.59,744.636 3345.99,743.887 3349.38,743.048 3352.77,742.2 3356.16,741.418 3359.59,740.754 3363.03,740.228 3366.5,739.834 3369.97,739.553 3373.45,739.36 3376.93,739.239 3380.41,739.18 3383.89,739.182 3387.37,739.242 3390.85,739.36 3394.33,739.53 3397.8,739.747 3401.27,740.006 3404.74,740.302 3408.21,740.631 3411.68,740.99 3415.14,741.375 3418.59,741.785 3422.05,742.216 3425.51,742.667 3428.96,743.135 3432.41,743.619 3435.85,744.118 3439.3,744.63 3442.74,745.154 3446.19,745.69 3449.63,746.237 3453.07,746.794 3456.51,747.362 3459.94,747.939 3463.38,748.526 3466.81,749.122 3470.24,749.727 3473.67,750.342 3477.1,750.965 3480.53,751.596 3483.95,752.235 3487.38,752.882 3490.8,753.536 3494.22,754.197 3497.65,754.864 3501.07,755.538 3504.48,756.218 3507.9,756.904 3511.32,757.594 3514.73,758.29 3518.15,758.991 3521.56,759.695 3524.98,760.404 3528.39,761.117 3531.8,761.833 3535.21,762.553 3538.62,763.275 3542.03,764 3545.44,764.728 3548.85,765.457 3552.26,766.189 3555.67,766.922 3559.08,767.657 3562.49,768.394 3565.89,769.131 3569.3,769.87 3572.71,770.609 3576.12,771.349 3579.52,772.09 3582.93,772.832 3586.34,773.574 3589.74,774.317 3593.15,775.06 3596.56,775.804 3599.96,776.548 3603.37,777.292 3606.77,778.036 3610.18,778.78 3613.59,779.525 3616.99,780.269 3620.4,781.013 3623.81,781.756 3627.21,782.499 3630.62,783.242 3634.03,783.984 3637.43,784.725 3640.84,785.465 3644.25,786.205 3647.66,786.943 3651.06,787.68 3654.47,788.416 3657.88,789.151 3661.29,789.884 3664.7,790.616 3668.11,791.346 3671.52,792.074 3674.93,792.801 3678.34,793.526 3681.75,794.249 3685.16,794.97 3688.57,795.688 3691.98,796.405 3695.39,797.119 3698.81,797.831 3702.22,798.54 3705.63,799.247 3709.05,799.952 3712.46,800.653 3715.88,801.351 3719.29,802.047 3722.71,802.739 3726.13,803.428 3729.54,804.114 3732.96,804.796 3736.38,805.475 3739.8,806.149 3743.22,806.82 3746.64,807.487 3750.06,808.149 3753.49,808.807 3756.91,809.461 3760.34,810.11 3763.76,810.753 3767.19,811.392 3770.61,812.024 3774.04,812.651 3777.47,813.272 3780.9,813.885 3784.33,814.492 3787.77,815.091 3791.2,815.682 3794.64,816.265 3798.07,816.838 3801.51,817.403 3804.95,817.957 3808.39,818.501 3811.84,819.034 3815.28,819.554 3818.73,820.06 3822.18,820.549 3825.63,821.019 3829.08,821.466 3832.54,821.883 3836,822.264 3839.47,822.596 3842.94,822.869 3846.42,823.065 3849.9,823.169 3853.38,823.158 3856.86,823.007 3860.33,822.686 3863.78,822.161 3867.19,821.403 3870.55,820.42 3873.86,819.291 3877.16,818.147 3880.5,817.109 3883.88,816.24 3887.3,815.556 3890.75,815.042 3894.22,814.675 3897.69,814.431 3901.17,814.291 3904.66,814.236 3908.14,814.254 3911.62,814.333 3915.1,814.464 3918.57,814.641 3922.05,814.857 3925.52,815.107 3928.99,815.388 3932.46,815.695 3935.93,816.027 3939.39,816.381 3942.86,816.754 3946.32,817.146 3949.77,817.553 3953.23,817.975 3956.69,818.411 3960.14,818.859 3963.59,819.318 3967.05,819.787 3970.5,820.266 3973.95,820.754 3977.39,821.249 3980.84,821.752 3984.29,822.261 3987.73,822.776 3991.18,823.297 3994.62,823.824 3998.06,824.354 4001.51,824.889 4004.95,825.428 4008.39,825.971 4011.83,826.516 4015.27,827.064 4018.71,827.615 4022.15,828.169 4025.59,828.724 4029.03,829.281 4032.47,829.84 4035.91,830.399 4039.35,830.96 4042.79,831.522 4046.23,832.085 4049.66,832.648 4053.1,833.211 4056.54,833.774 4059.98,834.337 4063.42,834.9 4066.86,835.462 4070.3,836.024 4073.74,836.584 4077.17,837.144 4080.61,837.702 4084.05,838.258 4087.49,838.813 4090.93,839.366 4094.37,839.917 4097.81,840.465 4101.25,841.012 4104.7,841.555 4108.14,842.096 4111.58,842.634 4115.02,843.17 4118.47,843.702 4121.91,844.23 4125.35,844.756 4128.8,845.277 4132.24,845.795 4135.69,846.309 4139.13,846.818 4142.58,847.322 4146.03,847.821 4149.48,848.314 4152.93,848.801 4156.38,849.282 4159.83,849.754 4163.28,850.218 4166.73,850.672 4170.19,851.115 4173.65,851.544 4177.1,851.959 4180.56,852.354 4184.03,852.725 4187.49,853.067 4190.96,853.368 4194.43,853.617 4197.91,853.795 4201.39,853.88 4204.88,853.84 4208.36,853.62 4211.81,853.079 4215.11,851.535 4215.69,850.675 4215.85,849.692 4215.66,848.742 4215.29,847.9 4214.82,847.131 4214.29,846.41 4213.72,845.723 4213.13,845.062 4212.52,844.421 4211.89,843.796 4211.25,843.185 4210.6,842.584 4209.74,841.817 4208.61,840.839 4207.47,839.881 4206.31,838.943 4205.13,838.025 4203.94,837.13 4202.73,836.26 4201.51,835.415 4200.27,834.591 4199.02,833.787 4197.76,832.998 4196.49,832.222 4195.22,831.456 4193.56,830.471 4191.4,829.207 4189.22,827.958 4187.04,826.725 4184.85,825.506 4182.65,824.302 4180.45,823.115 4178.23,821.942 4176.01,820.785 4173.78,819.643 4171.55,818.515 4169.31,817.4 4167.06,816.296 4164.13,814.874 4161.2,813.466 4157.38,811.647 4153.56,809.836 4149.74,808.024 4145.93,806.201 4142.12,804.357 4138.33,802.479 4134.57,800.546 4130.84,798.53 4127.19,796.377 4123.68,793.966 4120.63,790.855 4120.18,789.775 4120.31,788.53 4121.22,787.538 4122.2,787.004 4123.2,786.631 4124.22,786.342 4125.24,786.107 4126.28,785.913 4127.32,785.749 4128.36,785.609 4129.4,785.489 4130.45,785.386 4131.49,785.296 4132.54,785.219 4133.59,785.151 4134.95,785.076 4136.32,785.013 4138.09,784.945 4139.86,784.889 4142.17,784.83 4145.17,784.77 4149.07,784.706 4152.97,784.646 4156.86,784.571 4160.76,784.475 4164.66,784.371 4168.56,784.267 4172.46,784.158 4176.35,784.03 4180.25,783.887 4184.15,783.762 4188.05,783.684 4191.95,783.658 4195.85,783.684 4199.74,783.754 4203.64,783.858 4207.54,783.988 4211.44,784.132 4215.33,784.281 4219.23,784.431 4223.13,784.581 4227.02,784.735 4230.92,784.895 4234.81,785.06 4238.71,785.225 4242.61,785.382 4246.5,785.522 4250.4,785.63 4254.3,785.684 4258.2,785.648 4262.1,785.462 4265.98,784.99 4269.77,783.768 4271.25,781.897 4271.02,780.393 4270.5,779.454 4269.89,778.652 4269.21,777.919 4268.49,777.233 4267.75,776.581 4266.98,775.953 4266.21,775.342 4265.42,774.743 4264.63,774.153 4263.6,773.393 4262.25,772.41 4260.5,771.127 4258.26,769.416 4256.1,767.58 4254.25,765.372 4183.96,825.015 4177.73,821.678 4175.24,820.387 4172.74,819.114 4170.23,817.858 4167.72,816.617 4165.2,815.389 4162.67,814.171 4159.39,812.599 4156.1,811.036 4152.8,809.476 4149.51,807.914 4146.23,806.344 4142.94,804.758 4139.67,803.15 4136.42,801.507 4133.19,799.815 4129.99,798.05 4126.86,796.17 4123.84,794.089 4121.12,791.554 4120.19,789.818 4120.23,788.72 4120.87,787.808 4121.68,787.258 4122.52,786.873 4123.38,786.574 4124.26,786.331 4125.14,786.128 4126.03,785.956 4126.93,785.807 4127.82,785.678 4128.72,785.565 4129.62,785.466 4130.52,785.379 4131.42,785.302 4132.6,785.215 4133.77,785.141 4134.95,785.077 4136.47,785.006 4138,784.948 4139.99,784.886 4142.57,784.821 4145.93,784.756 4149.29,784.703 4152.65,784.651 4156.01,784.589 4159.37,784.511 4162.73,784.423 4166.08,784.333 4169.44,784.243 4172.8,784.148 4176.16,784.037 4179.52,783.914 4182.87,783.799 4186.23,783.714 4189.59,783.667 4192.95,783.661 4196.31,783.69 4199.67,783.752 4203.03,783.84 4206.39,783.948 4209.75,784.068 4213.1,784.195 4216.46,784.324 4219.82,784.453 4223.17,784.583 4226.53,784.716 4229.89,784.853 4233.25,784.993 4236.6,785.136 4239.96,785.276 4243.32,785.409 4246.67,785.528 4250.03,785.622 4253.39,785.678 4256.75,785.675 4260.11,785.582 4263.47,785.34 4266.8,784.825 4270.02,783.609 4271.23,781.975 4270.02,778.801 4268.74,777.455 4267.45,776.328 4266.11,775.267 4264.75,774.242 4263.38,773.235 4261.59,771.932 4259.29,770.216 4257.04,768.416 4254.96,766.388 4254.14,765.15 4254.07,763.407 4256.6,761.831 4258.04,761.468 4259.45,761.218 4260.86,761.029 4262.27,760.882 4263.68,760.768 4265.1,760.679 4266.52,760.611 4267.94,760.561 4269.36,760.525 4270.78,760.502 4272.2,760.491 4273.61,760.489 4275.46,760.498 4277.31,760.519 4279.7,760.561 4282.1,760.615 4285.22,760.701 4289.27,760.833 4293.32,760.982 4297.37,761.139 4301.43,761.299 4305.48,761.465 4309.53,761.644 4313.58,761.84 4317.62,762.054 4321.67,762.279 4325.72,762.506 4329.77,762.729 4333.82,762.95 4337.87,763.17 4341.91,763.389 4345.96,763.605 4350.01,763.816 4354.06,764.017 4358.11,764.205 4362.16,764.377 4366.21,764.531 4370.27,764.662 4374.32,764.766 4378.37,764.835 4382.43,764.854 4386.48,764.805 4390.53,764.659 4394.58,764.375 4398.61,763.885 4402.6,763.022 4406.29,760.795 4406.56,759.195 4406.13,758.046 4405.55,757.151 4404.92,756.329 4404.24,755.54 4403.56,754.768 4402.66,753.768 4401.52,752.444 4400.45,751.051 4399.54,749.528 4399.05,747.757 4400.31,745.531 4402.29,744.679 4403.99,744.296 4405.7,744.055 4407.41,743.901 4409.12,743.806 4410.83,743.755 4412.54,743.736 4414.26,743.743 4415.97,743.769 4417.68,743.81 4419.39,743.863 4421.1,743.924 4423.33,744.014 4426.22,744.141 4429.98,744.317 4433.74,744.502 4437.5,744.695 4441.26,744.895 4445.01,745.1 4448.77,745.304 4452.53,745.503 4456.29,745.69 4460.05,745.859 4463.81,746.004 4467.57,746.113 4471.33,746.17 4475.1,746.158 4478.86,746.071 4482.62,745.896 4486.37,745.588 "/>
<path clip-path="url(#clip220)" d="M290.157 328.94 L800.704 328.94 L800.704 225.26 L290.157 225.26  Z" fill="#ffffff" fill-rule="evenodd" fill-opacity="1"/>
<polyline clip-path="url(#clip220)" style="stroke:#000000; stroke-linecap:round; stroke-linejoin:round; stroke-width:4; stroke-opacity:1; fill:none" points="290.157,328.94 800.704,328.94 800.704,225.26 290.157,225.26 290.157,328.94 "/>
<polyline clip-path="url(#clip220)" style="stroke:#008000; stroke-linecap:round; stroke-linejoin:round; stroke-width:8; stroke-opacity:0.5; fill:none" stroke-dasharray="32, 20" points="313.865,277.1 456.113,277.1 "/>
<path clip-path="url(#clip220)" d="M507.692 262.482 L507.692 267.412 Q505.33 265.213 502.645 264.125 Q499.983 263.037 496.974 263.037 Q491.048 263.037 487.9 266.672 Q484.752 270.283 484.752 277.134 Q484.752 283.963 487.9 287.597 Q491.048 291.208 496.974 291.208 Q499.983 291.208 502.645 290.12 Q505.33 289.033 507.692 286.833 L507.692 291.718 Q505.238 293.384 502.483 294.218 Q499.752 295.051 496.696 295.051 Q488.849 295.051 484.335 290.259 Q479.821 285.445 479.821 277.134 Q479.821 268.801 484.335 264.01 Q488.849 259.195 496.696 259.195 Q499.798 259.195 502.53 260.028 Q505.284 260.838 507.692 262.482 Z" fill="#000000" fill-rule="nonzero" fill-opacity="1" /><path clip-path="url(#clip220)" d="M524.775 271.44 Q521.349 271.44 519.358 274.125 Q517.367 276.787 517.367 281.44 Q517.367 286.093 519.335 288.778 Q521.326 291.44 524.775 291.44 Q528.178 291.44 530.168 288.755 Q532.159 286.07 532.159 281.44 Q532.159 276.834 530.168 274.148 Q528.178 271.44 524.775 271.44 M524.775 267.829 Q530.33 267.829 533.502 271.44 Q536.673 275.051 536.673 281.44 Q536.673 287.806 533.502 291.44 Q530.33 295.051 524.775 295.051 Q519.196 295.051 516.025 291.44 Q512.877 287.806 512.877 281.44 Q512.877 275.051 516.025 271.44 Q519.196 267.829 524.775 267.829 Z" fill="#000000" fill-rule="nonzero" fill-opacity="1" /><path clip-path="url(#clip220)" d="M565.284 278.732 L565.284 294.38 L561.025 294.38 L561.025 278.871 Q561.025 275.19 559.589 273.361 Q558.154 271.533 555.284 271.533 Q551.835 271.533 549.844 273.732 Q547.853 275.931 547.853 279.727 L547.853 294.38 L543.571 294.38 L543.571 268.454 L547.853 268.454 L547.853 272.482 Q549.381 270.144 551.441 268.986 Q553.525 267.829 556.233 267.829 Q560.7 267.829 562.992 270.607 Q565.284 273.361 565.284 278.732 Z" fill="#000000" fill-rule="nonzero" fill-opacity="1" /><path clip-path="url(#clip220)" d="M577.992 261.093 L577.992 268.454 L586.765 268.454 L586.765 271.764 L577.992 271.764 L577.992 285.838 Q577.992 289.009 578.849 289.912 Q579.728 290.815 582.39 290.815 L586.765 290.815 L586.765 294.38 L582.39 294.38 Q577.46 294.38 575.585 292.551 Q573.71 290.699 573.71 285.838 L573.71 271.764 L570.585 271.764 L570.585 268.454 L573.71 268.454 L573.71 261.093 L577.992 261.093 Z" fill="#000000" fill-rule="nonzero" fill-opacity="1" /><path clip-path="url(#clip220)" d="M592.367 268.454 L596.626 268.454 L596.626 294.38 L592.367 294.38 L592.367 268.454 M592.367 258.361 L596.626 258.361 L596.626 263.755 L592.367 263.755 L592.367 258.361 Z" fill="#000000" fill-rule="nonzero" fill-opacity="1" /><path clip-path="url(#clip220)" d="M627.089 278.732 L627.089 294.38 L622.83 294.38 L622.83 278.871 Q622.83 275.19 621.395 273.361 Q619.959 271.533 617.089 271.533 Q613.64 271.533 611.649 273.732 Q609.659 275.931 609.659 279.727 L609.659 294.38 L605.376 294.38 L605.376 268.454 L609.659 268.454 L609.659 272.482 Q611.186 270.144 613.247 268.986 Q615.33 267.829 618.038 267.829 Q622.506 267.829 624.797 270.607 Q627.089 273.361 627.089 278.732 Z" fill="#000000" fill-rule="nonzero" fill-opacity="1" /><path clip-path="url(#clip220)" d="M635.145 284.148 L635.145 268.454 L639.404 268.454 L639.404 283.986 Q639.404 287.667 640.839 289.519 Q642.274 291.347 645.144 291.347 Q648.594 291.347 650.584 289.148 Q652.598 286.949 652.598 283.153 L652.598 268.454 L656.857 268.454 L656.857 294.38 L652.598 294.38 L652.598 290.398 Q651.047 292.759 648.987 293.917 Q646.95 295.051 644.242 295.051 Q639.774 295.051 637.459 292.273 Q635.145 289.495 635.145 284.148 M645.862 267.829 L645.862 267.829 Z" fill="#000000" fill-rule="nonzero" fill-opacity="1" /><path clip-path="url(#clip220)" d="M677.413 281.347 Q672.251 281.347 670.26 282.528 Q668.269 283.708 668.269 286.556 Q668.269 288.824 669.751 290.167 Q671.255 291.486 673.825 291.486 Q677.367 291.486 679.496 288.986 Q681.649 286.463 681.649 282.296 L681.649 281.347 L677.413 281.347 M685.908 279.588 L685.908 294.38 L681.649 294.38 L681.649 290.445 Q680.191 292.806 678.015 293.94 Q675.839 295.051 672.691 295.051 Q668.709 295.051 666.348 292.829 Q664.01 290.583 664.01 286.833 Q664.01 282.458 666.927 280.236 Q669.867 278.014 675.677 278.014 L681.649 278.014 L681.649 277.597 Q681.649 274.658 679.704 273.06 Q677.783 271.44 674.288 271.44 Q672.066 271.44 669.959 271.972 Q667.853 272.505 665.908 273.57 L665.908 269.634 Q668.246 268.732 670.445 268.292 Q672.644 267.829 674.728 267.829 Q680.353 267.829 683.13 270.746 Q685.908 273.662 685.908 279.588 Z" fill="#000000" fill-rule="nonzero" fill-opacity="1" /><path clip-path="url(#clip220)" d="M698.894 261.093 L698.894 268.454 L707.667 268.454 L707.667 271.764 L698.894 271.764 L698.894 285.838 Q698.894 289.009 699.751 289.912 Q700.63 290.815 703.292 290.815 L707.667 290.815 L707.667 294.38 L703.292 294.38 Q698.362 294.38 696.487 292.551 Q694.612 290.699 694.612 285.838 L694.612 271.764 L691.487 271.764 L691.487 268.454 L694.612 268.454 L694.612 261.093 L698.894 261.093 Z" fill="#000000" fill-rule="nonzero" fill-opacity="1" /><path clip-path="url(#clip220)" d="M713.269 268.454 L717.528 268.454 L717.528 294.38 L713.269 294.38 L713.269 268.454 M713.269 258.361 L717.528 258.361 L717.528 263.755 L713.269 263.755 L713.269 258.361 Z" fill="#000000" fill-rule="nonzero" fill-opacity="1" /><path clip-path="url(#clip220)" d="M736.487 271.44 Q733.061 271.44 731.07 274.125 Q729.079 276.787 729.079 281.44 Q729.079 286.093 731.047 288.778 Q733.038 291.44 736.487 291.44 Q739.889 291.44 741.88 288.755 Q743.871 286.07 743.871 281.44 Q743.871 276.834 741.88 274.148 Q739.889 271.44 736.487 271.44 M736.487 267.829 Q742.042 267.829 745.213 271.44 Q748.385 275.051 748.385 281.44 Q748.385 287.806 745.213 291.44 Q742.042 295.051 736.487 295.051 Q730.908 295.051 727.737 291.44 Q724.589 287.806 724.589 281.44 Q724.589 275.051 727.737 271.44 Q730.908 267.829 736.487 267.829 Z" fill="#000000" fill-rule="nonzero" fill-opacity="1" /><path clip-path="url(#clip220)" d="M776.996 278.732 L776.996 294.38 L772.736 294.38 L772.736 278.871 Q772.736 275.19 771.301 273.361 Q769.866 271.533 766.996 271.533 Q763.547 271.533 761.556 273.732 Q759.565 275.931 759.565 279.727 L759.565 294.38 L755.283 294.38 L755.283 268.454 L759.565 268.454 L759.565 272.482 Q761.093 270.144 763.153 268.986 Q765.236 267.829 767.945 267.829 Q772.412 267.829 774.704 270.607 Q776.996 273.361 776.996 278.732 Z" fill="#000000" fill-rule="nonzero" fill-opacity="1" /></svg>
