<?xml version="1.0" encoding="utf-8"?>
<svg xmlns="http://www.w3.org/2000/svg" xmlns:xlink="http://www.w3.org/1999/xlink" width="600" height="400" viewBox="0 0 2400 1600">
<defs>
  <clipPath id="clip740">
    <rect x="0" y="0" width="2400" height="1600"/>
  </clipPath>
</defs>
<path clip-path="url(#clip740)" d="M0 1600 L2400 1600 L2400 0 L0 0  Z" fill="#ffffff" fill-rule="evenodd" fill-opacity="1"/>
<defs>
  <clipPath id="clip741">
    <rect x="219" y="47" width="2134" height="1377"/>
  </clipPath>
</defs>
<path clip-path="url(#clip740)" d="M219.033 1423.18 L2352.76 1423.18 L2352.76 123.472 L219.033 123.472  Z" fill="#ffffff" fill-rule="evenodd" fill-opacity="1"/>
<defs>
  <clipPath id="clip742">
    <rect x="219" y="123" width="2135" height="1301"/>
  </clipPath>
</defs>
<polyline clip-path="url(#clip742)" style="stroke:#000000; stroke-linecap:round; stroke-linejoin:round; stroke-width:2; stroke-opacity:0.1; fill:none" points="238.317,1423.18 238.317,123.472 "/>
<polyline clip-path="url(#clip742)" style="stroke:#000000; stroke-linecap:round; stroke-linejoin:round; stroke-width:2; stroke-opacity:0.1; fill:none" points="752.124,1423.18 752.124,123.472 "/>
<polyline clip-path="url(#clip742)" style="stroke:#000000; stroke-linecap:round; stroke-linejoin:round; stroke-width:2; stroke-opacity:0.1; fill:none" points="1265.93,1423.18 1265.93,123.472 "/>
<polyline clip-path="url(#clip742)" style="stroke:#000000; stroke-linecap:round; stroke-linejoin:round; stroke-width:2; stroke-opacity:0.1; fill:none" points="1779.74,1423.18 1779.74,123.472 "/>
<polyline clip-path="url(#clip742)" style="stroke:#000000; stroke-linecap:round; stroke-linejoin:round; stroke-width:2; stroke-opacity:0.1; fill:none" points="2293.55,1423.18 2293.55,123.472 "/>
<polyline clip-path="url(#clip742)" style="stroke:#000000; stroke-linecap:round; stroke-linejoin:round; stroke-width:2; stroke-opacity:0.1; fill:none" points="219.033,1257.42 2352.76,1257.42 "/>
<polyline clip-path="url(#clip742)" style="stroke:#000000; stroke-linecap:round; stroke-linejoin:round; stroke-width:2; stroke-opacity:0.1; fill:none" points="219.033,1056.28 2352.76,1056.28 "/>
<polyline clip-path="url(#clip742)" style="stroke:#000000; stroke-linecap:round; stroke-linejoin:round; stroke-width:2; stroke-opacity:0.1; fill:none" points="219.033,855.151 2352.76,855.151 "/>
<polyline clip-path="url(#clip742)" style="stroke:#000000; stroke-linecap:round; stroke-linejoin:round; stroke-width:2; stroke-opacity:0.1; fill:none" points="219.033,654.018 2352.76,654.018 "/>
<polyline clip-path="url(#clip742)" style="stroke:#000000; stroke-linecap:round; stroke-linejoin:round; stroke-width:2; stroke-opacity:0.1; fill:none" points="219.033,452.886 2352.76,452.886 "/>
<polyline clip-path="url(#clip742)" style="stroke:#000000; stroke-linecap:round; stroke-linejoin:round; stroke-width:2; stroke-opacity:0.1; fill:none" points="219.033,251.753 2352.76,251.753 "/>
<polyline clip-path="url(#clip740)" style="stroke:#000000; stroke-linecap:round; stroke-linejoin:round; stroke-width:4; stroke-opacity:1; fill:none" points="219.033,1423.18 2352.76,1423.18 "/>
<polyline clip-path="url(#clip740)" style="stroke:#000000; stroke-linecap:round; stroke-linejoin:round; stroke-width:4; stroke-opacity:1; fill:none" points="238.317,1423.18 238.317,1404.28 "/>
<polyline clip-path="url(#clip740)" style="stroke:#000000; stroke-linecap:round; stroke-linejoin:round; stroke-width:4; stroke-opacity:1; fill:none" points="752.124,1423.18 752.124,1404.28 "/>
<polyline clip-path="url(#clip740)" style="stroke:#000000; stroke-linecap:round; stroke-linejoin:round; stroke-width:4; stroke-opacity:1; fill:none" points="1265.93,1423.18 1265.93,1404.28 "/>
<polyline clip-path="url(#clip740)" style="stroke:#000000; stroke-linecap:round; stroke-linejoin:round; stroke-width:4; stroke-opacity:1; fill:none" points="1779.74,1423.18 1779.74,1404.28 "/>
<polyline clip-path="url(#clip740)" style="stroke:#000000; stroke-linecap:round; stroke-linejoin:round; stroke-width:4; stroke-opacity:1; fill:none" points="2293.55,1423.18 2293.55,1404.28 "/>
<path clip-path="url(#clip740)" d="M215.701 1454.1 Q212.09 1454.1 210.261 1457.66 Q208.456 1461.2 208.456 1468.33 Q208.456 1475.44 210.261 1479.01 Q212.09 1482.55 215.701 1482.55 Q219.335 1482.55 221.141 1479.01 Q222.97 1475.44 222.97 1468.33 Q222.97 1461.2 221.141 1457.66 Q219.335 1454.1 215.701 1454.1 M215.701 1450.39 Q221.511 1450.39 224.567 1455 Q227.645 1459.58 227.645 1468.33 Q227.645 1477.06 224.567 1481.67 Q221.511 1486.25 215.701 1486.25 Q209.891 1486.25 206.812 1481.67 Q203.757 1477.06 203.757 1468.33 Q203.757 1459.58 206.812 1455 Q209.891 1450.39 215.701 1450.39 Z" fill="#000000" fill-rule="nonzero" fill-opacity="1" /><path clip-path="url(#clip740)" d="M235.863 1479.7 L240.747 1479.7 L240.747 1485.58 L235.863 1485.58 L235.863 1479.7 Z" fill="#000000" fill-rule="nonzero" fill-opacity="1" /><path clip-path="url(#clip740)" d="M260.932 1454.1 Q257.321 1454.1 255.493 1457.66 Q253.687 1461.2 253.687 1468.33 Q253.687 1475.44 255.493 1479.01 Q257.321 1482.55 260.932 1482.55 Q264.567 1482.55 266.372 1479.01 Q268.201 1475.44 268.201 1468.33 Q268.201 1461.2 266.372 1457.66 Q264.567 1454.1 260.932 1454.1 M260.932 1450.39 Q266.743 1450.39 269.798 1455 Q272.877 1459.58 272.877 1468.33 Q272.877 1477.06 269.798 1481.67 Q266.743 1486.25 260.932 1486.25 Q255.122 1486.25 252.044 1481.67 Q248.988 1477.06 248.988 1468.33 Q248.988 1459.58 252.044 1455 Q255.122 1450.39 260.932 1450.39 Z" fill="#000000" fill-rule="nonzero" fill-opacity="1" /><path clip-path="url(#clip740)" d="M723.86 1481.64 L740.18 1481.64 L740.18 1485.58 L718.235 1485.58 L718.235 1481.64 Q720.897 1478.89 725.481 1474.26 Q730.087 1469.61 731.268 1468.27 Q733.513 1465.74 734.393 1464.01 Q735.295 1462.25 735.295 1460.56 Q735.295 1457.8 733.351 1456.07 Q731.43 1454.33 728.328 1454.33 Q726.129 1454.33 723.675 1455.09 Q721.245 1455.86 718.467 1457.41 L718.467 1452.69 Q721.291 1451.55 723.745 1450.97 Q726.198 1450.39 728.235 1450.39 Q733.606 1450.39 736.8 1453.08 Q739.994 1455.77 739.994 1460.26 Q739.994 1462.39 739.184 1464.31 Q738.397 1466.2 736.291 1468.8 Q735.712 1469.47 732.61 1472.69 Q729.508 1475.88 723.86 1481.64 Z" fill="#000000" fill-rule="nonzero" fill-opacity="1" /><path clip-path="url(#clip740)" d="M749.994 1479.7 L754.879 1479.7 L754.879 1485.58 L749.994 1485.58 L749.994 1479.7 Z" fill="#000000" fill-rule="nonzero" fill-opacity="1" /><path clip-path="url(#clip740)" d="M765.11 1451.02 L783.466 1451.02 L783.466 1454.96 L769.392 1454.96 L769.392 1463.43 Q770.411 1463.08 771.43 1462.92 Q772.448 1462.73 773.467 1462.73 Q779.254 1462.73 782.633 1465.9 Q786.013 1469.08 786.013 1474.49 Q786.013 1480.07 782.541 1483.17 Q779.068 1486.25 772.749 1486.25 Q770.573 1486.25 768.305 1485.88 Q766.059 1485.51 763.652 1484.77 L763.652 1480.07 Q765.735 1481.2 767.957 1481.76 Q770.18 1482.32 772.656 1482.32 Q776.661 1482.32 778.999 1480.21 Q781.337 1478.1 781.337 1474.49 Q781.337 1470.88 778.999 1468.77 Q776.661 1466.67 772.656 1466.67 Q770.781 1466.67 768.906 1467.08 Q767.055 1467.5 765.11 1468.38 L765.11 1451.02 Z" fill="#000000" fill-rule="nonzero" fill-opacity="1" /><path clip-path="url(#clip740)" d="M1233.1 1451.02 L1251.45 1451.02 L1251.45 1454.96 L1237.38 1454.96 L1237.38 1463.43 Q1238.4 1463.08 1239.42 1462.92 Q1240.43 1462.73 1241.45 1462.73 Q1247.24 1462.73 1250.62 1465.9 Q1254 1469.08 1254 1474.49 Q1254 1480.07 1250.53 1483.17 Q1247.05 1486.25 1240.73 1486.25 Q1238.56 1486.25 1236.29 1485.88 Q1234.04 1485.51 1231.64 1484.77 L1231.64 1480.07 Q1233.72 1481.2 1235.94 1481.76 Q1238.17 1482.32 1240.64 1482.32 Q1244.65 1482.32 1246.98 1480.21 Q1249.32 1478.1 1249.32 1474.49 Q1249.32 1470.88 1246.98 1468.77 Q1244.65 1466.67 1240.64 1466.67 Q1238.77 1466.67 1236.89 1467.08 Q1235.04 1467.5 1233.1 1468.38 L1233.1 1451.02 Z" fill="#000000" fill-rule="nonzero" fill-opacity="1" /><path clip-path="url(#clip740)" d="M1263.21 1479.7 L1268.1 1479.7 L1268.1 1485.58 L1263.21 1485.58 L1263.21 1479.7 Z" fill="#000000" fill-rule="nonzero" fill-opacity="1" /><path clip-path="url(#clip740)" d="M1288.28 1454.1 Q1284.67 1454.1 1282.84 1457.66 Q1281.04 1461.2 1281.04 1468.33 Q1281.04 1475.44 1282.84 1479.01 Q1284.67 1482.55 1288.28 1482.55 Q1291.92 1482.55 1293.72 1479.01 Q1295.55 1475.44 1295.55 1468.33 Q1295.55 1461.2 1293.72 1457.66 Q1291.92 1454.1 1288.28 1454.1 M1288.28 1450.39 Q1294.09 1450.39 1297.15 1455 Q1300.23 1459.58 1300.23 1468.33 Q1300.23 1477.06 1297.15 1481.67 Q1294.09 1486.25 1288.28 1486.25 Q1282.47 1486.25 1279.39 1481.67 Q1276.34 1477.06 1276.34 1468.33 Q1276.34 1459.58 1279.39 1455 Q1282.47 1450.39 1288.28 1450.39 Z" fill="#000000" fill-rule="nonzero" fill-opacity="1" /><path clip-path="url(#clip740)" d="M1746.06 1451.02 L1768.28 1451.02 L1768.28 1453.01 L1755.73 1485.58 L1750.85 1485.58 L1762.66 1454.96 L1746.06 1454.96 L1746.06 1451.02 Z" fill="#000000" fill-rule="nonzero" fill-opacity="1" /><path clip-path="url(#clip740)" d="M1777.4 1479.7 L1782.28 1479.7 L1782.28 1485.58 L1777.4 1485.58 L1777.4 1479.7 Z" fill="#000000" fill-rule="nonzero" fill-opacity="1" /><path clip-path="url(#clip740)" d="M1792.52 1451.02 L1810.87 1451.02 L1810.87 1454.96 L1796.8 1454.96 L1796.8 1463.43 Q1797.82 1463.08 1798.84 1462.92 Q1799.85 1462.73 1800.87 1462.73 Q1806.66 1462.73 1810.04 1465.9 Q1813.42 1469.08 1813.42 1474.49 Q1813.42 1480.07 1809.95 1483.17 Q1806.47 1486.25 1800.16 1486.25 Q1797.98 1486.25 1795.71 1485.88 Q1793.47 1485.51 1791.06 1484.77 L1791.06 1480.07 Q1793.14 1481.2 1795.36 1481.76 Q1797.59 1482.32 1800.06 1482.32 Q1804.07 1482.32 1806.41 1480.21 Q1808.74 1478.1 1808.74 1474.49 Q1808.74 1470.88 1806.41 1468.77 Q1804.07 1466.67 1800.06 1466.67 Q1798.19 1466.67 1796.31 1467.08 Q1794.46 1467.5 1792.52 1468.38 L1792.52 1451.02 Z" fill="#000000" fill-rule="nonzero" fill-opacity="1" /><path clip-path="url(#clip740)" d="M2245.62 1481.64 L2253.26 1481.64 L2253.26 1455.28 L2244.95 1456.95 L2244.95 1452.69 L2253.21 1451.02 L2257.89 1451.02 L2257.89 1481.64 L2265.53 1481.64 L2265.53 1485.58 L2245.62 1485.58 L2245.62 1481.64 Z" fill="#000000" fill-rule="nonzero" fill-opacity="1" /><path clip-path="url(#clip740)" d="M2284.97 1454.1 Q2281.36 1454.1 2279.53 1457.66 Q2277.72 1461.2 2277.72 1468.33 Q2277.72 1475.44 2279.53 1479.01 Q2281.36 1482.55 2284.97 1482.55 Q2288.6 1482.55 2290.41 1479.01 Q2292.24 1475.44 2292.24 1468.33 Q2292.24 1461.2 2290.41 1457.66 Q2288.6 1454.1 2284.97 1454.1 M2284.97 1450.39 Q2290.78 1450.39 2293.84 1455 Q2296.91 1459.58 2296.91 1468.33 Q2296.91 1477.06 2293.84 1481.67 Q2290.78 1486.25 2284.97 1486.25 Q2279.16 1486.25 2276.08 1481.67 Q2273.03 1477.06 2273.03 1468.33 Q2273.03 1459.58 2276.08 1455 Q2279.16 1450.39 2284.97 1450.39 Z" fill="#000000" fill-rule="nonzero" fill-opacity="1" /><path clip-path="url(#clip740)" d="M2305.13 1479.7 L2310.02 1479.7 L2310.02 1485.58 L2305.13 1485.58 L2305.13 1479.7 Z" fill="#000000" fill-rule="nonzero" fill-opacity="1" /><path clip-path="url(#clip740)" d="M2330.2 1454.1 Q2326.59 1454.1 2324.76 1457.66 Q2322.96 1461.2 2322.96 1468.33 Q2322.96 1475.44 2324.76 1479.01 Q2326.59 1482.55 2330.2 1482.55 Q2333.84 1482.55 2335.64 1479.01 Q2337.47 1475.44 2337.47 1468.33 Q2337.47 1461.2 2335.64 1457.66 Q2333.84 1454.1 2330.2 1454.1 M2330.2 1450.39 Q2336.01 1450.39 2339.07 1455 Q2342.15 1459.58 2342.15 1468.33 Q2342.15 1477.06 2339.07 1481.67 Q2336.01 1486.25 2330.2 1486.25 Q2324.39 1486.25 2321.31 1481.67 Q2318.26 1477.06 2318.26 1468.33 Q2318.26 1459.58 2321.31 1455 Q2324.39 1450.39 2330.2 1450.39 Z" fill="#000000" fill-rule="nonzero" fill-opacity="1" /><path clip-path="url(#clip740)" d="M1254.27 1561.55 Q1255.42 1563.08 1258.86 1563.08 L1261.69 1563.08 L1261.69 1568.04 L1258.16 1568.04 Q1252.43 1568.04 1249.82 1564.99 Q1247.21 1561.87 1247.21 1555.12 L1247.21 1538.25 L1233.84 1538.25 L1233.84 1532.4 L1266.72 1532.4 L1266.72 1538.25 L1253.19 1538.25 L1253.19 1555.47 Q1253.19 1560.09 1254.27 1561.55 Z" fill="#000000" fill-rule="nonzero" fill-opacity="1" /><path clip-path="url(#clip740)" d="M1303.13 1578.87 L1303.13 1583.42 L1269.26 1583.42 L1269.26 1578.87 L1303.13 1578.87 Z" fill="#000000" fill-rule="nonzero" fill-opacity="1" /><path clip-path="url(#clip740)" d="M1310.58 1562.63 L1321.08 1562.63 L1321.08 1526.38 L1309.65 1528.67 L1309.65 1522.82 L1321.02 1520.52 L1327.45 1520.52 L1327.45 1562.63 L1337.95 1562.63 L1337.95 1568.04 L1310.58 1568.04 L1310.58 1562.63 Z" fill="#000000" fill-rule="nonzero" fill-opacity="1" /><polyline clip-path="url(#clip740)" style="stroke:#000000; stroke-linecap:round; stroke-linejoin:round; stroke-width:4; stroke-opacity:1; fill:none" points="219.033,1423.18 219.033,123.472 "/>
<polyline clip-path="url(#clip740)" style="stroke:#000000; stroke-linecap:round; stroke-linejoin:round; stroke-width:4; stroke-opacity:1; fill:none" points="219.033,1257.42 237.931,1257.42 "/>
<polyline clip-path="url(#clip740)" style="stroke:#000000; stroke-linecap:round; stroke-linejoin:round; stroke-width:4; stroke-opacity:1; fill:none" points="219.033,1056.28 237.931,1056.28 "/>
<polyline clip-path="url(#clip740)" style="stroke:#000000; stroke-linecap:round; stroke-linejoin:round; stroke-width:4; stroke-opacity:1; fill:none" points="219.033,855.151 237.931,855.151 "/>
<polyline clip-path="url(#clip740)" style="stroke:#000000; stroke-linecap:round; stroke-linejoin:round; stroke-width:4; stroke-opacity:1; fill:none" points="219.033,654.018 237.931,654.018 "/>
<polyline clip-path="url(#clip740)" style="stroke:#000000; stroke-linecap:round; stroke-linejoin:round; stroke-width:4; stroke-opacity:1; fill:none" points="219.033,452.886 237.931,452.886 "/>
<polyline clip-path="url(#clip740)" style="stroke:#000000; stroke-linecap:round; stroke-linejoin:round; stroke-width:4; stroke-opacity:1; fill:none" points="219.033,251.753 237.931,251.753 "/>
<path clip-path="url(#clip740)" d="M116.76 1270.76 L124.399 1270.76 L124.399 1244.39 L116.089 1246.06 L116.089 1241.8 L124.353 1240.14 L129.029 1240.14 L129.029 1270.76 L136.667 1270.76 L136.667 1274.7 L116.76 1274.7 L116.76 1270.76 Z" fill="#000000" fill-rule="nonzero" fill-opacity="1" /><path clip-path="url(#clip740)" d="M146.112 1268.82 L150.996 1268.82 L150.996 1274.7 L146.112 1274.7 L146.112 1268.82 Z" fill="#000000" fill-rule="nonzero" fill-opacity="1" /><path clip-path="url(#clip740)" d="M171.181 1258.28 Q167.848 1258.28 165.927 1260.07 Q164.028 1261.85 164.028 1264.97 Q164.028 1268.1 165.927 1269.88 Q167.848 1271.66 171.181 1271.66 Q174.514 1271.66 176.436 1269.88 Q178.357 1268.07 178.357 1264.97 Q178.357 1261.85 176.436 1260.07 Q174.538 1258.28 171.181 1258.28 M166.505 1256.29 Q163.496 1255.55 161.806 1253.49 Q160.14 1251.43 160.14 1248.47 Q160.14 1244.33 163.079 1241.92 Q166.042 1239.51 171.181 1239.51 Q176.343 1239.51 179.283 1241.92 Q182.223 1244.33 182.223 1248.47 Q182.223 1251.43 180.533 1253.49 Q178.866 1255.55 175.88 1256.29 Q179.26 1257.08 181.135 1259.37 Q183.033 1261.66 183.033 1264.97 Q183.033 1270 179.954 1272.68 Q176.899 1275.37 171.181 1275.37 Q165.464 1275.37 162.385 1272.68 Q159.329 1270 159.329 1264.97 Q159.329 1261.66 161.227 1259.37 Q163.126 1257.08 166.505 1256.29 M164.792 1248.91 Q164.792 1251.59 166.459 1253.1 Q168.149 1254.6 171.181 1254.6 Q174.19 1254.6 175.88 1253.1 Q177.593 1251.59 177.593 1248.91 Q177.593 1246.22 175.88 1244.72 Q174.19 1243.21 171.181 1243.21 Q168.149 1243.21 166.459 1244.72 Q164.792 1246.22 164.792 1248.91 Z" fill="#000000" fill-rule="nonzero" fill-opacity="1" /><path clip-path="url(#clip740)" d="M116.853 1069.63 L124.492 1069.63 L124.492 1043.26 L116.181 1044.93 L116.181 1040.67 L124.445 1039 L129.121 1039 L129.121 1069.63 L136.76 1069.63 L136.76 1073.56 L116.853 1073.56 L116.853 1069.63 Z" fill="#000000" fill-rule="nonzero" fill-opacity="1" /><path clip-path="url(#clip740)" d="M146.204 1067.68 L151.089 1067.68 L151.089 1073.56 L146.204 1073.56 L146.204 1067.68 Z" fill="#000000" fill-rule="nonzero" fill-opacity="1" /><path clip-path="url(#clip740)" d="M161.413 1072.85 L161.413 1068.59 Q163.172 1069.42 164.977 1069.86 Q166.783 1070.3 168.519 1070.3 Q173.149 1070.3 175.579 1067.2 Q178.033 1064.07 178.38 1057.73 Q177.038 1059.72 174.977 1060.79 Q172.917 1061.85 170.417 1061.85 Q165.232 1061.85 162.2 1058.73 Q159.19 1055.58 159.19 1050.14 Q159.19 1044.81 162.339 1041.6 Q165.487 1038.38 170.718 1038.38 Q176.714 1038.38 179.862 1042.98 Q183.033 1047.57 183.033 1056.32 Q183.033 1064.49 179.144 1069.37 Q175.278 1074.23 168.727 1074.23 Q166.968 1074.23 165.163 1073.89 Q163.357 1073.54 161.413 1072.85 M170.718 1058.19 Q173.866 1058.19 175.695 1056.04 Q177.547 1053.89 177.547 1050.14 Q177.547 1046.41 175.695 1044.26 Q173.866 1042.08 170.718 1042.08 Q167.57 1042.08 165.718 1044.26 Q163.89 1046.41 163.89 1050.14 Q163.89 1053.89 165.718 1056.04 Q167.57 1058.19 170.718 1058.19 Z" fill="#000000" fill-rule="nonzero" fill-opacity="1" /><path clip-path="url(#clip740)" d="M119.885 868.495 L136.204 868.495 L136.204 872.431 L114.26 872.431 L114.26 868.495 Q116.922 865.741 121.505 861.111 Q126.112 856.458 127.292 855.116 Q129.538 852.593 130.417 850.857 Q131.32 849.097 131.32 847.408 Q131.32 844.653 129.376 842.917 Q127.455 841.181 124.353 841.181 Q122.154 841.181 119.7 841.945 Q117.269 842.708 114.492 844.259 L114.492 839.537 Q117.316 838.403 119.769 837.824 Q122.223 837.246 124.26 837.246 Q129.63 837.246 132.825 839.931 Q136.019 842.616 136.019 847.107 Q136.019 849.236 135.209 851.158 Q134.422 853.056 132.316 855.648 Q131.737 856.32 128.635 859.537 Q125.533 862.732 119.885 868.495 Z" fill="#000000" fill-rule="nonzero" fill-opacity="1" /><path clip-path="url(#clip740)" d="M146.019 866.551 L150.903 866.551 L150.903 872.431 L146.019 872.431 L146.019 866.551 Z" fill="#000000" fill-rule="nonzero" fill-opacity="1" /><path clip-path="url(#clip740)" d="M171.089 840.949 Q167.477 840.949 165.649 844.514 Q163.843 848.056 163.843 855.185 Q163.843 862.292 165.649 865.856 Q167.477 869.398 171.089 869.398 Q174.723 869.398 176.528 865.856 Q178.357 862.292 178.357 855.185 Q178.357 848.056 176.528 844.514 Q174.723 840.949 171.089 840.949 M171.089 837.246 Q176.899 837.246 179.954 841.852 Q183.033 846.435 183.033 855.185 Q183.033 863.912 179.954 868.519 Q176.899 873.102 171.089 873.102 Q165.278 873.102 162.2 868.519 Q159.144 863.912 159.144 855.185 Q159.144 846.435 162.2 841.852 Q165.278 837.246 171.089 837.246 Z" fill="#000000" fill-rule="nonzero" fill-opacity="1" /><path clip-path="url(#clip740)" d="M121.112 667.363 L137.431 667.363 L137.431 671.298 L115.487 671.298 L115.487 667.363 Q118.149 664.608 122.732 659.979 Q127.339 655.326 128.519 653.983 Q130.765 651.46 131.644 649.724 Q132.547 647.965 132.547 646.275 Q132.547 643.521 130.603 641.784 Q128.681 640.048 125.58 640.048 Q123.38 640.048 120.927 640.812 Q118.496 641.576 115.718 643.127 L115.718 638.405 Q118.543 637.271 120.996 636.692 Q123.45 636.113 125.487 636.113 Q130.857 636.113 134.052 638.798 Q137.246 641.483 137.246 645.974 Q137.246 648.104 136.436 650.025 Q135.649 651.923 133.542 654.516 Q132.964 655.187 129.862 658.405 Q126.76 661.599 121.112 667.363 Z" fill="#000000" fill-rule="nonzero" fill-opacity="1" /><path clip-path="url(#clip740)" d="M147.246 665.419 L152.13 665.419 L152.13 671.298 L147.246 671.298 L147.246 665.419 Z" fill="#000000" fill-rule="nonzero" fill-opacity="1" /><path clip-path="url(#clip740)" d="M163.126 667.363 L170.764 667.363 L170.764 640.997 L162.454 642.664 L162.454 638.405 L170.718 636.738 L175.394 636.738 L175.394 667.363 L183.033 667.363 L183.033 671.298 L163.126 671.298 L163.126 667.363 Z" fill="#000000" fill-rule="nonzero" fill-opacity="1" /><path clip-path="url(#clip740)" d="M121.482 466.231 L137.802 466.231 L137.802 470.166 L115.857 470.166 L115.857 466.231 Q118.519 463.476 123.103 458.846 Q127.709 454.194 128.89 452.851 Q131.135 450.328 132.015 448.592 Q132.917 446.833 132.917 445.143 Q132.917 442.388 130.973 440.652 Q129.052 438.916 125.95 438.916 Q123.751 438.916 121.297 439.68 Q118.867 440.444 116.089 441.995 L116.089 437.272 Q118.913 436.138 121.367 435.559 Q123.82 434.981 125.857 434.981 Q131.228 434.981 134.422 437.666 Q137.617 440.351 137.617 444.842 Q137.617 446.971 136.806 448.893 Q136.019 450.791 133.913 453.383 Q133.334 454.055 130.232 457.272 Q127.13 460.467 121.482 466.231 Z" fill="#000000" fill-rule="nonzero" fill-opacity="1" /><path clip-path="url(#clip740)" d="M147.616 464.286 L152.501 464.286 L152.501 470.166 L147.616 470.166 L147.616 464.286 Z" fill="#000000" fill-rule="nonzero" fill-opacity="1" /><path clip-path="url(#clip740)" d="M166.714 466.231 L183.033 466.231 L183.033 470.166 L161.089 470.166 L161.089 466.231 Q163.751 463.476 168.334 458.846 Q172.94 454.194 174.121 452.851 Q176.366 450.328 177.246 448.592 Q178.149 446.833 178.149 445.143 Q178.149 442.388 176.204 440.652 Q174.283 438.916 171.181 438.916 Q168.982 438.916 166.528 439.68 Q164.098 440.444 161.32 441.995 L161.32 437.272 Q164.144 436.138 166.598 435.559 Q169.052 434.981 171.089 434.981 Q176.459 434.981 179.653 437.666 Q182.848 440.351 182.848 444.842 Q182.848 446.971 182.038 448.893 Q181.251 450.791 179.144 453.383 Q178.565 454.055 175.464 457.272 Q172.362 460.467 166.714 466.231 Z" fill="#000000" fill-rule="nonzero" fill-opacity="1" /><path clip-path="url(#clip740)" d="M120.533 265.098 L136.853 265.098 L136.853 269.033 L114.908 269.033 L114.908 265.098 Q117.57 262.344 122.154 257.714 Q126.76 253.061 127.941 251.719 Q130.186 249.196 131.066 247.459 Q131.968 245.7 131.968 244.01 Q131.968 241.256 130.024 239.52 Q128.103 237.784 125.001 237.784 Q122.802 237.784 120.348 238.547 Q117.918 239.311 115.14 240.862 L115.14 236.14 Q117.964 235.006 120.418 234.427 Q122.871 233.848 124.908 233.848 Q130.279 233.848 133.473 236.534 Q136.667 239.219 136.667 243.709 Q136.667 245.839 135.857 247.76 Q135.07 249.658 132.964 252.251 Q132.385 252.922 129.283 256.14 Q126.181 259.334 120.533 265.098 Z" fill="#000000" fill-rule="nonzero" fill-opacity="1" /><path clip-path="url(#clip740)" d="M146.667 263.154 L151.552 263.154 L151.552 269.033 L146.667 269.033 L146.667 263.154 Z" fill="#000000" fill-rule="nonzero" fill-opacity="1" /><path clip-path="url(#clip740)" d="M175.903 250.399 Q179.26 251.117 181.135 253.385 Q183.033 255.654 183.033 258.987 Q183.033 264.103 179.514 266.904 Q175.996 269.705 169.514 269.705 Q167.339 269.705 165.024 269.265 Q162.732 268.848 160.278 267.992 L160.278 263.478 Q162.223 264.612 164.538 265.191 Q166.852 265.769 169.376 265.769 Q173.774 265.769 176.065 264.033 Q178.38 262.297 178.38 258.987 Q178.38 255.932 176.227 254.219 Q174.098 252.483 170.278 252.483 L166.251 252.483 L166.251 248.64 L170.464 248.64 Q173.913 248.64 175.741 247.274 Q177.57 245.885 177.57 243.293 Q177.57 240.631 175.672 239.219 Q173.797 237.784 170.278 237.784 Q168.357 237.784 166.158 238.2 Q163.959 238.617 161.32 239.496 L161.32 235.33 Q163.982 234.589 166.297 234.219 Q168.635 233.848 170.695 233.848 Q176.019 233.848 179.121 236.279 Q182.223 238.686 182.223 242.807 Q182.223 245.677 180.579 247.668 Q178.936 249.635 175.903 250.399 Z" fill="#000000" fill-rule="nonzero" fill-opacity="1" /><path clip-path="url(#clip740)" d="M58.3387 750.903 L64.0042 750.903 L64.0042 770 L58.3387 770 Q55.2513 764.366 49.9678 761.215 Q44.6842 758.064 38.2549 758.064 Q30.616 758.064 26.0009 762.266 Q21.3858 766.467 21.3858 773.342 Q21.3858 780.217 26.0327 784.45 Q30.6479 788.651 38.2549 788.651 Q44.6842 788.651 49.9678 785.5 Q55.2513 782.318 58.3387 776.652 L64.0042 776.652 L64.0042 795.749 L58.3387 795.749 L58.3387 785.596 Q53.9145 790.625 49.1721 792.948 Q44.4296 795.24 38.5732 795.24 Q28.4517 795.24 22.1815 789.129 Q15.9112 783.05 15.9112 773.342 Q15.9112 763.698 22.1815 757.555 Q28.4199 751.444 38.2549 751.444 Q44.4296 751.444 49.1402 753.704 Q53.8509 755.964 58.3387 761.088 L58.3387 750.903 Z" fill="#000000" fill-rule="nonzero" fill-opacity="1" /><path clip-path="url(#clip740)" d="M233.429 16.7545 L233.429 25.383 Q229.297 21.5346 224.598 19.6307 Q219.939 17.7268 214.673 17.7268 Q204.303 17.7268 198.794 24.0867 Q193.285 30.4061 193.285 42.3968 Q193.285 54.3469 198.794 60.7069 Q204.303 67.0263 214.673 67.0263 Q219.939 67.0263 224.598 65.1223 Q229.297 63.2184 233.429 59.3701 L233.429 67.9175 Q229.135 70.8341 224.314 72.2924 Q219.534 73.7508 214.187 73.7508 Q200.455 73.7508 192.555 65.3654 Q184.656 56.9395 184.656 42.3968 Q184.656 27.8135 192.555 19.4281 Q200.455 11.0023 214.187 11.0023 Q219.615 11.0023 224.395 12.4606 Q229.216 13.8784 233.429 16.7545 Z" fill="#000000" fill-rule="nonzero" fill-opacity="1" /><path clip-path="url(#clip740)" d="M263.325 32.4315 Q257.329 32.4315 253.846 37.1306 Q250.362 41.7891 250.362 49.9314 Q250.362 58.0738 253.805 62.7728 Q257.289 67.4314 263.325 67.4314 Q269.279 67.4314 272.763 62.7323 Q276.247 58.0333 276.247 49.9314 Q276.247 41.8701 272.763 37.1711 Q269.279 32.4315 263.325 32.4315 M263.325 26.1121 Q273.047 26.1121 278.597 32.4315 Q284.146 38.7509 284.146 49.9314 Q284.146 61.0714 278.597 67.4314 Q273.047 73.7508 263.325 73.7508 Q253.562 73.7508 248.012 67.4314 Q242.503 61.0714 242.503 49.9314 Q242.503 38.7509 248.012 32.4315 Q253.562 26.1121 263.325 26.1121 Z" fill="#000000" fill-rule="nonzero" fill-opacity="1" /><path clip-path="url(#clip740)" d="M334.215 45.1919 L334.215 72.576 L326.762 72.576 L326.762 45.4349 Q326.762 38.994 324.25 35.7938 Q321.739 32.5936 316.716 32.5936 Q310.68 32.5936 307.196 36.4419 Q303.712 40.2903 303.712 46.9338 L303.712 72.576 L296.218 72.576 L296.218 27.2059 L303.712 27.2059 L303.712 34.2544 Q306.386 30.163 309.991 28.1376 Q313.637 26.1121 318.376 26.1121 Q326.195 26.1121 330.205 30.9732 Q334.215 35.7938 334.215 45.1919 Z" fill="#000000" fill-rule="nonzero" fill-opacity="1" /><path clip-path="url(#clip740)" d="M356.455 14.324 L356.455 27.2059 L371.808 27.2059 L371.808 32.9987 L356.455 32.9987 L356.455 57.6282 Q356.455 63.1779 357.954 64.7578 Q359.493 66.3376 364.152 66.3376 L371.808 66.3376 L371.808 72.576 L364.152 72.576 Q355.523 72.576 352.242 69.3758 Q348.961 66.1351 348.961 57.6282 L348.961 32.9987 L343.492 32.9987 L343.492 27.2059 L348.961 27.2059 L348.961 14.324 L356.455 14.324 Z" fill="#000000" fill-rule="nonzero" fill-opacity="1" /><path clip-path="url(#clip740)" d="M381.611 27.2059 L389.065 27.2059 L389.065 72.576 L381.611 72.576 L381.611 27.2059 M381.611 9.54393 L389.065 9.54393 L389.065 18.9825 L381.611 18.9825 L381.611 9.54393 Z" fill="#000000" fill-rule="nonzero" fill-opacity="1" /><path clip-path="url(#clip740)" d="M442.375 45.1919 L442.375 72.576 L434.921 72.576 L434.921 45.4349 Q434.921 38.994 432.409 35.7938 Q429.898 32.5936 424.875 32.5936 Q418.839 32.5936 415.355 36.4419 Q411.871 40.2903 411.871 46.9338 L411.871 72.576 L404.377 72.576 L404.377 27.2059 L411.871 27.2059 L411.871 34.2544 Q414.545 30.163 418.15 28.1376 Q421.796 26.1121 426.536 26.1121 Q434.354 26.1121 438.364 30.9732 Q442.375 35.7938 442.375 45.1919 Z" fill="#000000" fill-rule="nonzero" fill-opacity="1" /><path clip-path="url(#clip740)" d="M456.472 54.671 L456.472 27.2059 L463.925 27.2059 L463.925 54.3874 Q463.925 60.8284 466.437 64.0691 Q468.949 67.2693 473.972 67.2693 Q480.008 67.2693 483.491 63.421 Q487.016 59.5726 487.016 52.9291 L487.016 27.2059 L494.469 27.2059 L494.469 72.576 L487.016 72.576 L487.016 65.6084 Q484.301 69.7404 480.696 71.7658 Q477.131 73.7508 472.392 73.7508 Q464.574 73.7508 460.523 68.8897 Q456.472 64.0286 456.472 54.671 M475.227 26.1121 L475.227 26.1121 Z" fill="#000000" fill-rule="nonzero" fill-opacity="1" /><path clip-path="url(#clip740)" d="M530.441 49.7694 Q521.408 49.7694 517.924 51.8354 Q514.44 53.9013 514.44 58.8839 Q514.44 62.8538 517.033 65.2034 Q519.666 67.5124 524.162 67.5124 Q530.36 67.5124 534.087 63.1374 Q537.854 58.7219 537.854 51.4303 L537.854 49.7694 L530.441 49.7694 M545.308 46.6907 L545.308 72.576 L537.854 72.576 L537.854 65.6895 Q535.302 69.8214 531.495 71.8063 Q527.687 73.7508 522.177 73.7508 Q515.21 73.7508 511.078 69.8619 Q506.987 65.9325 506.987 59.3701 Q506.987 51.7138 512.091 47.825 Q517.235 43.9361 527.403 43.9361 L537.854 43.9361 L537.854 43.2069 Q537.854 38.0623 534.452 35.2672 Q531.089 32.4315 524.973 32.4315 Q521.084 32.4315 517.397 33.3632 Q513.711 34.295 510.308 36.1584 L510.308 29.2718 Q514.4 27.692 518.248 26.9223 Q522.096 26.1121 525.742 26.1121 Q535.586 26.1121 540.447 31.2163 Q545.308 36.3204 545.308 46.6907 Z" fill="#000000" fill-rule="nonzero" fill-opacity="1" /><path clip-path="url(#clip740)" d="M568.034 14.324 L568.034 27.2059 L583.387 27.2059 L583.387 32.9987 L568.034 32.9987 L568.034 57.6282 Q568.034 63.1779 569.533 64.7578 Q571.072 66.3376 575.73 66.3376 L583.387 66.3376 L583.387 72.576 L575.73 72.576 Q567.102 72.576 563.821 69.3758 Q560.54 66.1351 560.54 57.6282 L560.54 32.9987 L555.071 32.9987 L555.071 27.2059 L560.54 27.2059 L560.54 14.324 L568.034 14.324 Z" fill="#000000" fill-rule="nonzero" fill-opacity="1" /><path clip-path="url(#clip740)" d="M593.19 27.2059 L600.643 27.2059 L600.643 72.576 L593.19 72.576 L593.19 27.2059 M593.19 9.54393 L600.643 9.54393 L600.643 18.9825 L593.19 18.9825 L593.19 9.54393 Z" fill="#000000" fill-rule="nonzero" fill-opacity="1" /><path clip-path="url(#clip740)" d="M633.82 32.4315 Q627.825 32.4315 624.341 37.1306 Q620.857 41.7891 620.857 49.9314 Q620.857 58.0738 624.301 62.7728 Q627.785 67.4314 633.82 67.4314 Q639.775 67.4314 643.259 62.7323 Q646.743 58.0333 646.743 49.9314 Q646.743 41.8701 643.259 37.1711 Q639.775 32.4315 633.82 32.4315 M633.82 26.1121 Q643.543 26.1121 649.092 32.4315 Q654.642 38.7509 654.642 49.9314 Q654.642 61.0714 649.092 67.4314 Q643.543 73.7508 633.82 73.7508 Q624.058 73.7508 618.508 67.4314 Q612.999 61.0714 612.999 49.9314 Q612.999 38.7509 618.508 32.4315 Q624.058 26.1121 633.82 26.1121 Z" fill="#000000" fill-rule="nonzero" fill-opacity="1" /><path clip-path="url(#clip740)" d="M704.711 45.1919 L704.711 72.576 L697.258 72.576 L697.258 45.4349 Q697.258 38.994 694.746 35.7938 Q692.234 32.5936 687.211 32.5936 Q681.175 32.5936 677.692 36.4419 Q674.208 40.2903 674.208 46.9338 L674.208 72.576 L666.714 72.576 L666.714 27.2059 L674.208 27.2059 L674.208 34.2544 Q676.881 30.163 680.487 28.1376 Q684.133 26.1121 688.872 26.1121 Q696.69 26.1121 700.701 30.9732 Q704.711 35.7938 704.711 45.1919 Z" fill="#000000" fill-rule="nonzero" fill-opacity="1" /><path clip-path="url(#clip740)" d="M753.16 65.7705 L753.16 89.8329 L745.666 89.8329 L745.666 27.2059 L753.16 27.2059 L753.16 34.0924 Q755.51 30.0415 759.074 28.0971 Q762.68 26.1121 767.662 26.1121 Q775.926 26.1121 781.071 32.6746 Q786.256 39.2371 786.256 49.9314 Q786.256 60.6258 781.071 67.1883 Q775.926 73.7508 767.662 73.7508 Q762.68 73.7508 759.074 71.8063 Q755.51 69.8214 753.16 65.7705 M778.519 49.9314 Q778.519 41.7081 775.116 37.0496 Q771.754 32.3505 765.839 32.3505 Q759.925 32.3505 756.522 37.0496 Q753.16 41.7081 753.16 49.9314 Q753.16 58.1548 756.522 62.8538 Q759.925 67.5124 765.839 67.5124 Q771.754 67.5124 775.116 62.8538 Q778.519 58.1548 778.519 49.9314 Z" fill="#000000" fill-rule="nonzero" fill-opacity="1" /><path clip-path="url(#clip740)" d="M798.611 9.54393 L806.065 9.54393 L806.065 72.576 L798.611 72.576 L798.611 9.54393 Z" fill="#000000" fill-rule="nonzero" fill-opacity="1" /><path clip-path="url(#clip740)" d="M839.242 32.4315 Q833.246 32.4315 829.763 37.1306 Q826.279 41.7891 826.279 49.9314 Q826.279 58.0738 829.722 62.7728 Q833.206 67.4314 839.242 67.4314 Q845.197 67.4314 848.68 62.7323 Q852.164 58.0333 852.164 49.9314 Q852.164 41.8701 848.68 37.1711 Q845.197 32.4315 839.242 32.4315 M839.242 26.1121 Q848.964 26.1121 854.514 32.4315 Q860.063 38.7509 860.063 49.9314 Q860.063 61.0714 854.514 67.4314 Q848.964 73.7508 839.242 73.7508 Q829.479 73.7508 823.929 67.4314 Q818.42 61.0714 818.42 49.9314 Q818.42 38.7509 823.929 32.4315 Q829.479 26.1121 839.242 26.1121 Z" fill="#000000" fill-rule="nonzero" fill-opacity="1" /><path clip-path="url(#clip740)" d="M879.791 14.324 L879.791 27.2059 L895.144 27.2059 L895.144 32.9987 L879.791 32.9987 L879.791 57.6282 Q879.791 63.1779 881.29 64.7578 Q882.829 66.3376 887.488 66.3376 L895.144 66.3376 L895.144 72.576 L887.488 72.576 Q878.86 72.576 875.578 69.3758 Q872.297 66.1351 872.297 57.6282 L872.297 32.9987 L866.828 32.9987 L866.828 27.2059 L872.297 27.2059 L872.297 14.324 L879.791 14.324 Z" fill="#000000" fill-rule="nonzero" fill-opacity="1" /><path clip-path="url(#clip740)" d="M954.287 9.54393 L954.287 15.7418 L947.158 15.7418 Q943.147 15.7418 941.568 17.3622 Q940.028 18.9825 940.028 23.1955 L940.028 27.2059 L952.302 27.2059 L952.302 32.9987 L940.028 32.9987 L940.028 72.576 L932.534 72.576 L932.534 32.9987 L925.404 32.9987 L925.404 27.2059 L932.534 27.2059 L932.534 24.0462 Q932.534 16.471 936.058 13.0277 Q939.583 9.54393 947.239 9.54393 L954.287 9.54393 Z" fill="#000000" fill-rule="nonzero" fill-opacity="1" /><path clip-path="url(#clip740)" d="M978.107 32.4315 Q972.111 32.4315 968.628 37.1306 Q965.144 41.7891 965.144 49.9314 Q965.144 58.0738 968.587 62.7728 Q972.071 67.4314 978.107 67.4314 Q984.062 67.4314 987.545 62.7323 Q991.029 58.0333 991.029 49.9314 Q991.029 41.8701 987.545 37.1711 Q984.062 32.4315 978.107 32.4315 M978.107 26.1121 Q987.829 26.1121 993.379 32.4315 Q998.928 38.7509 998.928 49.9314 Q998.928 61.0714 993.379 67.4314 Q987.829 73.7508 978.107 73.7508 Q968.344 73.7508 962.794 67.4314 Q957.285 61.0714 957.285 49.9314 Q957.285 38.7509 962.794 32.4315 Q968.344 26.1121 978.107 26.1121 Z" fill="#000000" fill-rule="nonzero" fill-opacity="1" /><path clip-path="url(#clip740)" d="M1037.57 34.1734 Q1036.32 33.4443 1034.82 33.1202 Q1033.36 32.7556 1031.58 32.7556 Q1025.26 32.7556 1021.86 36.8875 Q1018.49 40.9789 1018.49 48.6757 L1018.49 72.576 L1011 72.576 L1011 27.2059 L1018.49 27.2059 L1018.49 34.2544 Q1020.84 30.1225 1024.61 28.1376 Q1028.38 26.1121 1033.77 26.1121 Q1034.54 26.1121 1035.47 26.2337 Q1036.4 26.3147 1037.53 26.5172 L1037.57 34.1734 Z" fill="#000000" fill-rule="nonzero" fill-opacity="1" /><path clip-path="url(#clip740)" d="M1087.48 73.5887 Q1078.12 72.0899 1073.79 68.1605 Q1068.48 63.3399 1068.48 53.4962 L1068.48 27.2059 L1076.02 27.2059 L1076.02 53.2127 Q1076.02 60.6258 1079.46 63.7045 Q1082.46 66.3781 1087.48 66.9452 L1087.48 27.2059 L1094.89 27.2059 L1094.89 66.9047 Q1100.2 66.3376 1102.92 63.664 Q1106.36 60.2613 1106.36 53.1722 L1106.36 27.2059 L1113.89 27.2059 L1113.89 53.4557 Q1113.89 63.664 1108.59 68.12 Q1103.81 72.1304 1094.89 73.5482 L1094.89 89.8329 L1087.48 89.8329 L1087.48 73.5887 Z" fill="#000000" fill-rule="nonzero" fill-opacity="1" /><path clip-path="url(#clip740)" d="M1153.83 34.9026 L1205.77 34.9026 L1205.77 41.7081 L1153.83 41.7081 L1153.83 34.9026 M1153.83 51.4303 L1205.77 51.4303 L1205.77 58.3168 L1153.83 58.3168 L1153.83 51.4303 Z" fill="#000000" fill-rule="nonzero" fill-opacity="1" /><path clip-path="url(#clip740)" d="M1267.3 17.4837 Q1260.98 17.4837 1257.78 23.7221 Q1254.62 29.92 1254.62 42.3968 Q1254.62 54.833 1257.78 61.0714 Q1260.98 67.2693 1267.3 67.2693 Q1273.66 67.2693 1276.82 61.0714 Q1280.02 54.833 1280.02 42.3968 Q1280.02 29.92 1276.82 23.7221 Q1273.66 17.4837 1267.3 17.4837 M1267.3 11.0023 Q1277.47 11.0023 1282.82 19.0636 Q1288.2 27.0843 1288.2 42.3968 Q1288.2 57.6687 1282.82 65.73 Q1277.47 73.7508 1267.3 73.7508 Q1257.13 73.7508 1251.75 65.73 Q1246.4 57.6687 1246.4 42.3968 Q1246.4 27.0843 1251.75 19.0636 Q1257.13 11.0023 1267.3 11.0023 Z" fill="#000000" fill-rule="nonzero" fill-opacity="1" /><path clip-path="url(#clip740)" d="M1302.58 62.2867 L1311.13 62.2867 L1311.13 72.576 L1302.58 72.576 L1302.58 62.2867 Z" fill="#000000" fill-rule="nonzero" fill-opacity="1" /><path clip-path="url(#clip740)" d="M1329.04 12.096 L1361.16 12.096 L1361.16 18.9825 L1336.53 18.9825 L1336.53 33.8088 Q1338.31 33.2012 1340.1 32.9176 Q1341.88 32.5936 1343.66 32.5936 Q1353.79 32.5936 1359.7 38.1433 Q1365.62 43.6931 1365.62 53.1722 Q1365.62 62.9348 1359.54 68.3631 Q1353.46 73.7508 1342.4 73.7508 Q1338.6 73.7508 1334.63 73.1026 Q1330.7 72.4545 1326.48 71.1582 L1326.48 62.9348 Q1330.13 64.9198 1334.02 65.892 Q1337.91 66.8642 1342.24 66.8642 Q1349.25 66.8642 1353.34 63.1779 Q1357.43 59.4916 1357.43 53.1722 Q1357.43 46.8528 1353.34 43.1664 Q1349.25 39.4801 1342.24 39.4801 Q1338.96 39.4801 1335.68 40.2093 Q1332.44 40.9384 1329.04 42.4778 L1329.04 12.096 Z" fill="#000000" fill-rule="nonzero" fill-opacity="1" /><path clip-path="url(#clip740)" d="M1379.67 12.096 L1418.56 12.096 L1418.56 15.5798 L1396.61 72.576 L1388.06 72.576 L1408.72 18.9825 L1379.67 18.9825 L1379.67 12.096 Z" fill="#000000" fill-rule="nonzero" fill-opacity="1" /><path clip-path="url(#clip740)" d="M1435.37 62.2867 L1443.92 62.2867 L1443.92 69.2543 L1437.28 82.2172 L1432.05 82.2172 L1435.37 69.2543 L1435.37 62.2867 Z" fill="#000000" fill-rule="nonzero" fill-opacity="1" /><path clip-path="url(#clip740)" d="M1486.54 12.096 L1497.55 12.096 L1524.37 62.6918 L1524.37 12.096 L1532.31 12.096 L1532.31 72.576 L1521.29 72.576 L1494.48 21.9802 L1494.48 72.576 L1486.54 72.576 L1486.54 12.096 Z" fill="#000000" fill-rule="nonzero" fill-opacity="1" /><path clip-path="url(#clip740)" d="M1575.62 34.9026 L1627.55 34.9026 L1627.55 41.7081 L1575.62 41.7081 L1575.62 34.9026 M1575.62 51.4303 L1627.55 51.4303 L1627.55 58.3168 L1575.62 58.3168 L1575.62 51.4303 Z" fill="#000000" fill-rule="nonzero" fill-opacity="1" /><path clip-path="url(#clip740)" d="M1673 65.6895 L1686.37 65.6895 L1686.37 19.5497 L1671.82 22.4663 L1671.82 15.0127 L1686.29 12.096 L1694.47 12.096 L1694.47 65.6895 L1707.84 65.6895 L1707.84 72.576 L1673 72.576 L1673 65.6895 Z" fill="#000000" fill-rule="nonzero" fill-opacity="1" /><path clip-path="url(#clip740)" d="M1725.78 65.6895 L1739.15 65.6895 L1739.15 19.5497 L1724.61 22.4663 L1724.61 15.0127 L1739.07 12.096 L1747.25 12.096 L1747.25 65.6895 L1760.62 65.6895 L1760.62 72.576 L1725.78 72.576 L1725.78 65.6895 Z" fill="#000000" fill-rule="nonzero" fill-opacity="1" /><path clip-path="url(#clip740)" d="M1798.13 27.2059 L1805.58 27.2059 L1814.9 62.6108 L1824.18 27.2059 L1832.97 27.2059 L1842.29 62.6108 L1851.56 27.2059 L1859.02 27.2059 L1847.15 72.576 L1838.36 72.576 L1828.59 35.3887 L1818.79 72.576 L1810 72.576 L1798.13 27.2059 Z" fill="#000000" fill-rule="nonzero" fill-opacity="1" /><path clip-path="url(#clip740)" d="M1870.32 27.2059 L1877.77 27.2059 L1877.77 72.576 L1870.32 72.576 L1870.32 27.2059 M1870.32 9.54393 L1877.77 9.54393 L1877.77 18.9825 L1870.32 18.9825 L1870.32 9.54393 Z" fill="#000000" fill-rule="nonzero" fill-opacity="1" /><path clip-path="url(#clip740)" d="M1900.74 14.324 L1900.74 27.2059 L1916.09 27.2059 L1916.09 32.9987 L1900.74 32.9987 L1900.74 57.6282 Q1900.74 63.1779 1902.24 64.7578 Q1903.78 66.3376 1908.44 66.3376 L1916.09 66.3376 L1916.09 72.576 L1908.44 72.576 Q1899.81 72.576 1896.53 69.3758 Q1893.25 66.1351 1893.25 57.6282 L1893.25 32.9987 L1887.78 32.9987 L1887.78 27.2059 L1893.25 27.2059 L1893.25 14.324 L1900.74 14.324 Z" fill="#000000" fill-rule="nonzero" fill-opacity="1" /><path clip-path="url(#clip740)" d="M1963.61 45.1919 L1963.61 72.576 L1956.16 72.576 L1956.16 45.4349 Q1956.16 38.994 1953.65 35.7938 Q1951.13 32.5936 1946.11 32.5936 Q1940.07 32.5936 1936.59 36.4419 Q1933.11 40.2903 1933.11 46.9338 L1933.11 72.576 L1925.61 72.576 L1925.61 9.54393 L1933.11 9.54393 L1933.11 34.2544 Q1935.78 30.163 1939.39 28.1376 Q1943.03 26.1121 1947.77 26.1121 Q1955.59 26.1121 1959.6 30.9732 Q1963.61 35.7938 1963.61 45.1919 Z" fill="#000000" fill-rule="nonzero" fill-opacity="1" /><path clip-path="url(#clip740)" d="M2027.09 64.3122 Q2028.55 66.2566 2032.92 66.2566 L2036.53 66.2566 L2036.53 72.576 L2032.03 72.576 Q2024.74 72.576 2021.42 68.6871 Q2018.1 64.7172 2018.1 56.1293 L2018.1 34.6595 L2001.08 34.6595 L2001.08 27.2059 L2042.93 27.2059 L2042.93 34.6595 L2025.71 34.6595 L2025.71 56.5749 Q2025.71 62.4487 2027.09 64.3122 Z" fill="#000000" fill-rule="nonzero" fill-opacity="1" /><path clip-path="url(#clip740)" d="M2089.27 86.3491 L2089.27 92.1419 L2046.17 92.1419 L2046.17 86.3491 L2089.27 86.3491 Z" fill="#000000" fill-rule="nonzero" fill-opacity="1" /><path clip-path="url(#clip740)" d="M2114.83 17.4837 Q2108.51 17.4837 2105.31 23.7221 Q2102.15 29.92 2102.15 42.3968 Q2102.15 54.833 2105.31 61.0714 Q2108.51 67.2693 2114.83 67.2693 Q2121.19 67.2693 2124.35 61.0714 Q2127.55 54.833 2127.55 42.3968 Q2127.55 29.92 2124.35 23.7221 Q2121.19 17.4837 2114.83 17.4837 M2114.83 11.0023 Q2125 11.0023 2130.35 19.0636 Q2135.73 27.0843 2135.73 42.3968 Q2135.73 57.6687 2130.35 65.73 Q2125 73.7508 2114.83 73.7508 Q2104.66 73.7508 2099.28 65.73 Q2093.93 57.6687 2093.93 42.3968 Q2093.93 27.0843 2099.28 19.0636 Q2104.66 11.0023 2114.83 11.0023 Z" fill="#000000" fill-rule="nonzero" fill-opacity="1" /><path clip-path="url(#clip740)" d="M2176.4 34.9026 L2228.34 34.9026 L2228.34 41.7081 L2176.4 41.7081 L2176.4 34.9026 M2176.4 51.4303 L2228.34 51.4303 L2228.34 58.3168 L2176.4 58.3168 L2176.4 51.4303 Z" fill="#000000" fill-rule="nonzero" fill-opacity="1" /><path clip-path="url(#clip740)" d="M2289.87 17.4837 Q2283.55 17.4837 2280.35 23.7221 Q2277.19 29.92 2277.19 42.3968 Q2277.19 54.833 2280.35 61.0714 Q2283.55 67.2693 2289.87 67.2693 Q2296.23 67.2693 2299.39 61.0714 Q2302.59 54.833 2302.59 42.3968 Q2302.59 29.92 2299.39 23.7221 Q2296.23 17.4837 2289.87 17.4837 M2289.87 11.0023 Q2300.04 11.0023 2305.39 19.0636 Q2310.77 27.0843 2310.77 42.3968 Q2310.77 57.6687 2305.39 65.73 Q2300.04 73.7508 2289.87 73.7508 Q2279.7 73.7508 2274.32 65.73 Q2268.97 57.6687 2268.97 42.3968 Q2268.97 27.0843 2274.32 19.0636 Q2279.7 11.0023 2289.87 11.0023 Z" fill="#000000" fill-rule="nonzero" fill-opacity="1" /><path clip-path="url(#clip740)" d="M2325.15 62.2867 L2333.7 62.2867 L2333.7 72.576 L2325.15 72.576 L2325.15 62.2867 Z" fill="#000000" fill-rule="nonzero" fill-opacity="1" /><path clip-path="url(#clip740)" d="M2358.57 65.6895 L2387.13 65.6895 L2387.13 72.576 L2348.73 72.576 L2348.73 65.6895 Q2353.39 60.8689 2361.41 52.7671 Q2369.47 44.6248 2371.54 42.2752 Q2375.47 37.8598 2377.01 34.8216 Q2378.59 31.7429 2378.59 28.7857 Q2378.59 23.9651 2375.18 20.927 Q2371.82 17.8888 2366.39 17.8888 Q2362.54 17.8888 2358.25 19.2256 Q2354 20.5624 2349.14 23.2765 L2349.14 15.0127 Q2354.08 13.0277 2358.37 12.015 Q2362.67 11.0023 2366.23 11.0023 Q2375.63 11.0023 2381.22 15.7013 Q2386.81 20.4004 2386.81 28.2591 Q2386.81 31.9859 2385.39 35.3482 Q2384.01 38.6699 2380.33 43.2069 Q2379.31 44.3817 2373.89 50.0125 Q2368.46 55.6027 2358.57 65.6895 Z" fill="#000000" fill-rule="nonzero" fill-opacity="1" /><polyline clip-path="url(#clip742)" style="stroke:#0000ff; stroke-linecap:round; stroke-linejoin:round; stroke-width:8; stroke-opacity:1; fill:none" stroke-dasharray="32, 20" points="279.421,634.245 279.612,634.996 279.86,635.967 280.183,637.222 280.603,638.84 281.15,640.92 281.863,643.583 282.793,646.972 284.006,651.243 285.593,656.544 287.191,661.518 288.801,666.115 290.424,670.27 292.059,673.904 293.709,676.915 295.371,679.198 297.042,680.697 298.719,681.438 300.397,681.511 302.073,681.013 303.748,680.01 305.418,678.531 307.083,676.584 308.743,674.194 310.395,671.411 312.041,668.286 313.681,664.852 315.314,661.131 316.941,657.146 318.561,652.921 320.175,648.484 321.784,643.864 323.388,639.087 324.988,634.177 326.584,629.153 328.176,624.03 329.766,618.814 331.352,613.499 332.934,608.067 334.511,602.486 336.081,596.723 337.643,590.765 339.198,584.629 340.747,578.345 342.29,571.939 343.829,565.422 345.362,558.796 346.891,552.052 348.413,545.178 349.929,538.159 351.436,530.983 352.936,523.638 354.426,516.122 355.908,508.44 357.381,500.606 358.847,492.643 360.307,484.582 361.764,476.46 363.219,468.322 364.677,460.214 366.139,452.188 367.609,444.299 369.09,436.605 370.585,429.166 372.095,422.043 373.624,415.291 375.171,408.958 376.737,403.077 378.321,397.666 379.92,392.73 381.535,388.277 383.163,384.319 384.802,380.87 386.453,377.928 388.111,375.464 389.775,373.433 391.444,371.786 393.115,370.481 394.789,369.48 396.464,368.735 398.14,368.191 399.816,367.789 401.492,367.483 403.168,367.234 404.845,367.006 406.521,366.753 408.197,366.439 409.873,366.07 411.549,365.683 413.225,365.298 414.901,364.909 416.577,364.484 418.253,364.001 419.929,363.487 421.605,363.015 423.281,362.655 424.957,362.452 426.634,362.428 428.31,362.59 429.987,362.93 431.662,363.428 433.338,364.044 435.013,364.728 436.688,365.431 438.363,366.136 440.038,366.85 441.713,367.592 443.387,368.367 445.062,369.159 446.736,369.933 448.411,370.635 450.087,371.2 451.763,371.551 453.44,371.609 455.117,371.3 456.792,370.566 458.465,369.361 460.133,367.66 461.795,365.452 463.449,362.739 465.094,359.529 466.729,355.839 468.351,351.687 469.961,347.083 471.557,342.028 473.137,336.512 474.699,330.551 476.246,324.221 477.783,317.648 479.314,310.963 480.845,304.279 482.381,297.704 483.928,291.364 485.49,285.39 487.071,279.906 488.672,275.009 490.293,270.76 491.93,267.186 493.582,264.276 495.243,261.981 496.911,260.223 498.583,258.92 500.257,258.005 501.933,257.43 503.61,257.155 505.286,257.141 506.963,257.339 508.639,257.704 510.315,258.2 511.99,258.799 513.665,259.473 515.34,260.186 517.015,260.913 518.69,261.672 520.364,262.509 522.038,263.451 523.711,264.488 525.384,265.58 527.057,266.673 528.73,267.742 530.403,268.798 532.076,269.851 533.749,270.896 535.422,271.913 537.096,272.88 538.77,273.778 540.444,274.591 542.119,275.308 543.795,275.919 545.47,276.41 547.147,276.761 548.823,276.944 550.5,276.926 552.176,276.675 553.852,276.164 555.527,275.375 557.2,274.298 558.871,272.925 560.539,271.239 562.203,269.209 563.862,266.791 565.513,263.945 567.156,260.645 568.789,256.877 570.409,252.616 572.013,247.837 573.602,242.568 575.177,236.929 576.744,231.086 578.308,225.193 579.876,219.379 581.45,213.74 583.034,208.348 584.628,203.264 586.235,198.551 587.854,194.286 589.488,190.548 591.134,187.403 592.792,184.892 594.459,183.025 596.132,181.786 597.809,181.132 599.486,180.996 601.163,181.281 602.838,181.866 604.513,182.635 606.187,183.499 607.861,184.423 609.535,185.401 611.208,186.43 612.881,187.483 614.554,188.523 616.228,189.503 617.902,190.386 619.577,191.131 621.252,191.693 622.929,192.01 624.605,192.047 626.282,191.813 627.958,191.334 629.633,190.605 631.307,189.575 632.977,188.173 634.644,186.378 636.307,184.259 637.967,181.92 639.624,179.447 641.281,176.917 642.937,174.399 644.595,171.96 646.255,169.662 647.918,167.562 649.584,165.706 651.253,164.123 652.924,162.829 654.598,161.816 656.273,161.066 657.949,160.559 659.625,160.292 661.302,160.282 662.979,160.557 664.654,161.139 666.329,162.038 668.001,163.253 669.67,164.775 671.337,166.593 673,168.693 674.659,171.063 676.314,173.686 677.965,176.546 679.612,179.625 681.255,182.908 682.894,186.381 684.528,190.033 686.158,193.861 687.784,197.86 689.406,202.032 691.023,206.377 692.634,210.897 694.241,215.589 695.842,220.453 697.438,225.483 699.029,230.674 700.614,236.018 702.194,241.509 703.769,247.137 705.339,252.893 706.904,258.767 708.465,264.749 710.022,270.828 711.576,276.993 713.127,283.232 714.675,289.536 716.22,295.894 717.764,302.299 719.305,308.745 720.845,315.228 722.384,321.743 723.921,328.288 725.458,334.859 726.993,341.45 728.528,348.056 730.062,354.671 731.596,361.29 733.13,367.904 734.665,374.509 736.2,381.097 737.737,387.662 739.274,394.199 740.814,400.702 742.354,407.165 743.897,413.584 745.442,419.953 746.99,426.266 748.54,432.518 750.093,438.703 751.649,444.814 753.208,450.846 754.77,456.791 756.337,462.644 757.907,468.398 759.481,474.045 761.059,479.58 762.642,484.994 764.229,490.277 765.821,495.418 767.419,500.403 769.021,505.219 770.63,509.855 772.244,514.3 773.863,518.546 775.488,522.58 777.119,526.381 778.757,529.917 780.401,533.138 782.053,535.973 783.712,538.337 785.38,540.147 787.053,541.351 788.729,541.944 790.407,541.953 792.084,541.423 793.758,540.403 795.428,538.943 797.094,537.099 798.757,534.926 800.415,532.486 802.069,529.842 803.722,527.06 805.373,524.205 807.023,521.341 808.675,518.523 810.328,515.805 811.984,513.231 813.643,510.842 815.305,508.67 816.97,506.745 818.638,505.091 820.309,503.726 821.982,502.665 823.658,501.917 825.334,501.485 827.011,501.371 828.687,501.571 830.363,502.079 832.038,502.886 833.711,503.982 835.382,505.354 837.05,506.991 838.716,508.879 840.378,511.008 842.038,513.363 843.694,515.932 845.346,518.702 846.995,521.662 848.641,524.797 850.284,528.094 851.923,531.541 853.559,535.126 855.192,538.835 856.822,542.658 858.45,546.582 860.076,550.598 861.699,554.695 863.321,558.863 864.941,563.093 866.559,567.376 868.176,571.704 869.792,576.067 871.408,580.459 873.022,584.872 874.637,589.297 876.251,593.727 877.865,598.153 879.48,602.569 881.095,606.966 882.711,611.336 884.328,615.672 885.946,619.968 887.565,624.216 889.186,628.413 890.808,632.552 892.432,636.63 894.058,640.641 895.686,644.579 897.315,648.437 898.947,652.206 900.581,655.875 902.218,659.431 903.857,662.857 905.5,666.133 907.146,669.235 908.797,672.127 910.452,674.763 912.112,677.08 913.777,678.996 915.448,680.422 917.123,681.286 918.801,681.554 920.478,681.218 922.153,680.269 923.823,678.66 925.484,676.297 927.13,673.106 928.758,669.093 930.363,664.274 931.94,658.641 933.485,652.211 934.996,645.057 936.475,637.296 937.925,629.052 939.351,620.413 940.752,611.381 942.114,601.8 943.417,591.42 944.649,580.248 945.824,568.517 946.948,556.325 948.013,543.626 949,530.329 949.892,516.394 950.686,501.903 951.402,487.039 952.079,472.025 952.773,457.09 953.547,442.512 954.464,428.681 955.565,416.119 956.853,405.314 958.283,396.429 959.806,389.289 961.389,383.656 963.012,379.314 964.658,376.021 966.317,373.532 967.984,371.656 969.655,370.263 971.329,369.254 973.004,368.538 974.68,368.03 976.356,367.66 978.032,367.374 979.708,367.135 981.385,366.897 983.061,366.613 984.737,366.259 986.413,365.865 988.089,365.467 989.765,365.07 991.441,364.651 993.117,364.172 994.793,363.641 996.468,363.13 998.144,362.726 999.821,362.481 1001.5,362.418 1003.17,362.539 1004.85,362.833 1006.53,363.278 1008.2,363.84 1009.88,364.474 1011.55,365.139 1013.23,365.808 1014.9,366.479 1016.58,367.166 1018.25,367.881 1019.93,368.621 1021.6,369.367 1023.28,370.087 1024.95,370.737 1026.63,371.255 1028.3,371.57 1029.98,371.596 1031.66,371.235 1033.33,370.377 1035,368.905 1036.67,366.693 1038.32,363.609 1039.94,359.518 1041.54,354.286 1043.08,347.779 1044.56,339.811 1045.93,330.174 1047.18,319.18 1048.38,307.697 1049.61,296.469 1050.93,286.246 1052.38,277.734 1053.93,271.207 1055.55,266.468 1057.2,263.127 1058.86,260.803 1060.53,259.202 1062.2,258.134 1063.88,257.482 1065.55,257.17 1067.23,257.132 1068.91,257.309 1070.58,257.648 1072.26,258.11 1073.94,258.668 1075.61,259.298 1077.29,259.969 1078.96,260.656 1080.64,261.36 1082.31,262.114 1083.99,262.95 1085.66,263.872 1087.33,264.86 1089.01,265.876 1090.68,266.885 1092.35,267.874 1094.03,268.854 1095.7,269.832 1097.37,270.804 1099.05,271.755 1100.72,272.668 1102.4,273.528 1104.07,274.32 1105.74,275.035 1107.42,275.662 1109.1,276.189 1110.77,276.6 1112.45,276.87 1114.12,276.963 1115.8,276.839 1117.48,276.454 1119.15,275.766 1120.83,274.737 1122.5,273.331 1124.16,271.495 1125.82,269.14 1127.47,266.127 1129.11,262.278 1130.71,257.408 1132.27,251.28 1133.76,243.615 1135.18,234.651 1136.55,225.228 1137.94,216.089 1139.39,207.701 1140.89,200.332 1142.45,194.175 1144.06,189.344 1145.7,185.801 1147.36,183.385 1149.03,181.9 1150.71,181.158 1152.39,180.992 1154.07,181.249 1155.74,181.791 1157.42,182.504 1159.09,183.307 1160.77,184.162 1162.44,185.063 1164.11,186.007 1165.79,186.983 1167.46,187.963 1169.13,188.914 1170.81,189.805 1172.48,190.603 1174.16,191.275 1175.83,191.773 1177.51,192.037 1179.19,192.025 1180.86,191.74 1182.54,191.19 1184.21,190.341 1185.89,189.093 1187.55,187.319 1189.21,185.001 1190.87,182.272 1192.52,179.297 1194.16,176.228 1195.81,173.214 1197.46,170.39 1199.12,167.863 1200.78,165.706 1202.45,163.95 1204.12,162.586 1205.79,161.575 1207.47,160.869 1209.15,160.432 1210.82,160.256 1212.5,160.35 1214.18,160.723 1215.85,161.376 1217.52,162.298 1219.2,163.469 1220.87,164.872 1222.54,166.486 1224.2,168.295 1225.87,170.282 1227.53,172.432 1229.19,174.73 1230.85,177.163 1232.5,179.719 1234.16,182.387 1235.81,185.157 1237.46,188.024 1239.11,190.98 1240.76,194.023 1242.4,197.151 1244.05,200.36 1245.69,203.651 1247.33,207.02 1248.97,210.468 1250.61,213.992 1252.24,217.59 1253.88,221.259 1255.51,224.997 1257.14,228.8 1258.77,232.665 1260.4,236.589 1262.02,240.569 1263.65,244.601 1265.27,248.682 1266.9,252.808 1268.52,256.977 1270.14,261.185 1271.76,265.429 1273.38,269.705 1274.99,274.01 1276.61,278.342 1278.23,282.696 1279.84,287.071 1281.46,291.464 1283.07,295.872 1284.69,300.294 1286.3,304.728 1287.92,309.172 1289.53,313.627 1291.14,318.089 1292.76,322.56 1294.37,327.037 1295.98,331.521 1297.59,336.009 1299.21,340.501 1300.82,344.996 1302.43,349.491 1304.04,353.987 1305.66,358.48 1307.27,362.97 1308.88,367.456 1310.49,371.936 1312.11,376.408 1313.72,380.871 1315.33,385.323 1316.95,389.765 1318.56,394.193 1320.18,398.608 1321.79,403.007 1323.41,407.39 1325.02,411.755 1326.64,416.102 1328.26,420.429 1329.87,424.734 1331.49,429.017 1333.11,433.277 1334.73,437.511 1336.35,441.718 1337.97,445.897 1339.6,450.046 1341.22,454.163 1342.84,458.248 1344.47,462.298 1346.09,466.311 1347.72,470.286 1349.35,474.221 1350.97,478.113 1352.6,481.961 1354.24,485.762 1355.87,489.512 1357.5,493.209 1359.14,496.848 1360.77,500.424 1362.41,503.933 1364.05,507.371 1365.69,510.733 1367.33,514.016 1368.98,517.214 1370.62,520.322 1372.27,523.333 1373.92,526.236 1375.57,529.016 1377.23,531.651 1378.89,534.108 1380.55,536.345 1382.21,538.304 1383.88,539.916 1385.55,541.111 1387.23,541.826 1388.91,542.011 1390.58,541.629 1392.26,540.655 1393.93,539.074 1395.59,536.898 1397.24,534.17 1398.89,530.975 1400.53,527.446 1402.16,523.747 1403.79,520.047 1405.43,516.501 1407.07,513.227 1408.72,510.308 1410.38,507.794 1412.05,505.708 1413.71,504.052 1415.39,502.814 1417.06,501.972 1418.74,501.5 1420.41,501.37 1422.09,501.551 1423.77,502.018 1425.44,502.743 1427.12,503.703 1428.79,504.877 1430.46,506.244 1432.13,507.789 1433.8,509.496 1435.46,511.35 1437.13,513.341 1438.79,515.456 1440.45,517.686 1442.11,520.021 1443.77,522.452 1445.42,524.972 1447.08,527.573 1448.73,530.248 1450.39,532.99 1452.04,535.795 1453.69,538.655 1455.34,541.567 1456.99,544.525 1458.64,547.525 1460.28,550.563 1461.93,553.634 1463.58,556.737 1465.22,559.866 1466.87,563.02 1468.51,566.195 1470.16,569.387 1471.8,572.595 1473.44,575.816 1475.09,579.048 1476.73,582.287 1478.38,585.532 1480.02,588.781 1481.66,592.03 1483.31,595.278 1484.95,598.522 1486.59,601.761 1488.24,604.991 1489.88,608.21 1491.52,611.417 1493.17,614.608 1494.81,617.782 1496.46,620.938 1498.1,624.072 1499.75,627.184 1501.4,630.272 1503.04,633.333 1504.69,636.368 1506.34,639.374 1507.99,642.348 1509.64,645.289 1511.29,648.194 1512.94,651.059 1514.59,653.881 1516.24,656.655 1517.9,659.376 1519.55,662.035 1521.21,664.627 1522.86,667.14 1524.52,669.561 1526.18,671.874 1527.84,674.054 1529.51,676.07 1531.17,677.875 1532.84,679.407 1534.51,680.588 1536.19,681.332 1537.87,681.551 1539.54,681.151 1541.22,680.001 1542.88,677.831 1544.52,674.1 1546.1,668.064 1547.53,658.718 1548.61,645.103 1549.24,629.032 1549.52,612.547 1549.45,595.791 1548.99,579.553 1548.35,564.255 1547.61,549.511 1546.76,535.32 1545.81,521.721 1544.8,508.661 1543.73,496.003 1542.63,483.581 1541.53,471.219 1540.44,458.729 1539.4,445.871 1538.45,432.275 1537.73,417.217 1537.73,399.119 1539.52,382.686 1541.26,376.839 1542.92,373.582 1544.58,371.433 1546.25,369.977 1547.93,368.992 1549.6,368.326 1551.28,367.864 1552.95,367.526 1554.63,367.261 1556.31,367.024 1557.98,366.764 1559.66,366.436 1561.34,366.044 1563.01,365.632 1564.69,365.224 1566.36,364.805 1568.04,364.332 1569.72,363.79 1571.39,363.243 1573.07,362.795 1574.74,362.512 1576.42,362.416 1578.1,362.504 1579.77,362.762 1581.45,363.165 1583.12,363.68 1584.8,364.27 1586.48,364.898 1588.15,365.534 1589.83,366.17 1591.5,366.814 1593.18,367.479 1594.85,368.167 1596.53,368.872 1598.2,369.575 1599.88,370.246 1601.55,370.845 1603.23,371.317 1604.9,371.592 1606.58,371.573 1608.26,371.131 1609.93,370.079 1611.6,368.132 1613.25,364.82 1614.84,359.26 1616.27,349.6 1617.06,331.897 1616.82,312.983 1616.54,296.785 1616.87,279.621 1618.8,266.439 1620.54,262.15 1622.21,259.852 1623.88,258.458 1625.56,257.635 1627.23,257.223 1628.91,257.119 1630.59,257.245 1632.26,257.537 1633.94,257.953 1635.61,258.462 1637.29,259.043 1638.96,259.671 1640.64,260.32 1642.31,260.98 1643.99,261.665 1645.66,262.406 1647.34,263.22 1649.01,264.103 1650.69,265.033 1652.36,265.98 1654.03,266.918 1655.71,267.841 1657.38,268.756 1659.06,269.67 1660.73,270.579 1662.4,271.475 1664.08,272.344 1665.75,273.173 1667.43,273.95 1669.1,274.666 1670.78,275.311 1672.45,275.875 1674.13,276.346 1675.8,276.703 1677.48,276.918 1679.16,276.95 1680.83,276.747 1682.51,276.247 1684.19,275.38 1685.86,274.065 1687.52,272.192 1689.18,269.556 1690.81,265.731 1692.39,259.835 1693.8,249.865 1694.61,232.816 1695.07,216.821 1695.97,202.271 1697.44,191.818 1699.1,186.178 1700.77,183.217 1702.44,181.7 1704.12,181.071 1705.8,181.022 1707.47,181.35 1709.15,181.912 1710.83,182.608 1712.5,183.375 1714.17,184.184 1715.85,185.031 1717.52,185.914 1719.2,186.824 1720.87,187.743 1722.54,188.644 1724.22,189.502 1725.89,190.292 1727.57,190.988 1729.24,191.553 1730.92,191.932 1732.6,192.066 1734.27,191.921 1735.95,191.493 1737.63,190.754 1739.3,189.591 1740.97,187.774 1742.62,185.108 1744.26,181.711 1745.9,177.903 1747.52,174.046 1749.16,170.487 1750.81,167.463 1752.47,165.067 1754.14,163.271 1755.81,161.986 1757.48,161.108 1759.16,160.554 1760.84,160.285 1762.51,160.288 1764.19,160.561 1765.87,161.092 1767.54,161.862 1769.21,162.846 1770.89,164.02 1772.56,165.364 1774.23,166.858 1775.9,168.488 1777.56,170.24 1779.23,172.1 1780.89,174.059 1782.56,176.107 1784.22,178.234 1785.88,180.433 1787.54,182.699 1789.2,185.025 1790.86,187.407 1792.52,189.841 1794.17,192.325 1795.83,194.857 1797.49,197.435 1799.14,200.058 1800.8,202.725 1802.45,205.435 1804.1,208.186 1805.75,210.977 1807.41,213.807 1809.06,216.675 1810.71,219.579 1812.36,222.518 1814,225.49 1815.65,228.493 1817.3,231.527 1818.95,234.59 1820.59,237.679 1822.24,240.794 1823.89,243.933 1825.53,247.095 1827.18,250.278 1828.82,253.48 1830.46,256.702 1832.11,259.94 1833.75,263.195 1835.39,266.464 1837.04,269.747 1838.68,273.042 1840.32,276.348 1841.96,279.665 1843.6,282.99 1845.25,286.323 1846.89,289.662 1848.53,293.009 1850.17,296.36 1851.81,299.716 1853.45,303.077 1855.09,306.441 1856.73,309.808 1858.37,313.179 1860.01,316.552 1861.65,319.927 1863.3,323.305 1864.94,326.684 1866.58,330.064 1868.22,333.446 1869.86,336.828 1871.5,340.211 1873.14,343.593 1874.78,346.975 1876.42,350.356 1878.06,353.735 1879.7,357.112 1881.34,360.487 1882.98,363.859 1884.62,367.227 1886.26,370.592 1887.9,373.952 1889.55,377.307 1891.19,380.658 1892.83,384.002 1894.47,387.341 1896.11,390.673 1897.75,393.998 1899.4,397.316 1901.04,400.627 1902.68,403.929 1904.32,407.223 1905.96,410.508 1907.61,413.784 1909.25,417.051 1910.89,420.307 1912.54,423.554 1914.18,426.789 1915.82,430.013 1917.47,433.226 1919.11,436.426 1920.76,439.614 1922.4,442.788 1924.05,445.949 1925.69,449.095 1927.34,452.227 1928.98,455.343 1930.63,458.444 1932.28,461.527 1933.92,464.594 1935.57,467.643 1937.22,470.673 1938.87,473.684 1940.52,476.674 1942.16,479.644 1943.81,482.592 1945.46,485.518 1947.11,488.419 1948.76,491.295 1950.41,494.143 1952.07,496.964 1953.72,499.753 1955.37,502.51 1957.02,505.233 1958.68,507.919 1960.33,510.567 1961.99,513.175 1963.64,515.741 1965.3,518.261 1966.96,520.734 1968.62,523.155 1970.28,525.519 1971.94,527.818 1973.6,530.044 1975.26,532.181 1976.92,534.212 1978.59,536.111 1980.25,537.84 1981.92,539.355 1983.6,540.597 1985.27,541.494 1986.95,541.968 1988.62,541.924 1990.3,541.248 1991.97,539.799 1993.63,537.421 1995.28,533.987 1996.89,529.532 1998.49,524.404 2000.08,519.203 2001.68,514.477 2003.31,510.523 2004.96,507.405 2006.62,505.061 2008.29,503.386 2009.97,502.273 2011.64,501.63 2013.32,501.378 2015,501.455 2016.67,501.811 2018.35,502.406 2020.02,503.206 2021.7,504.186 2023.37,505.322 2025.04,506.596 2026.71,507.993 2028.38,509.501 2030.05,511.107 2031.72,512.803 2033.38,514.579 2035.05,516.43 2036.71,518.348 2038.38,520.326 2040.04,522.361 2041.7,524.447 2043.37,526.58 2045.03,528.756 2046.69,530.971 2048.35,533.223 2050.01,535.507 2051.67,537.821 2053.33,540.163 2054.99,542.531 2056.65,544.921 2058.31,547.333 2059.96,549.764 2061.62,552.213 2063.28,554.678 2064.94,557.157 2066.59,559.649 2068.25,562.153 2069.91,564.667 2071.56,567.19 2073.22,569.722 2074.88,572.26 2076.53,574.804 2078.19,577.354 2079.84,579.907 2081.5,582.463 2083.16,585.021 2084.81,587.581 2086.47,590.14 2088.12,592.699 2089.78,595.257 2091.44,597.812 2093.09,600.363 2094.75,602.911 2096.4,605.453 2098.06,607.989 2099.72,610.519 2101.37,613.04 2103.03,615.553 2104.69,618.057 2106.34,620.55 2108,623.033 2109.66,625.503 2111.32,627.962 2112.97,630.408 2114.63,632.84 2116.29,635.258 2117.95,637.661 2119.61,640.048 2121.27,642.419 2122.93,644.772 2124.59,647.106 2126.25,649.42 2127.91,651.712 2129.57,653.98 2131.23,656.222 2132.89,658.436 2134.55,660.619 2136.21,662.766 2137.87,664.874 2139.54,666.938 2141.2,668.951 2142.87,670.905 2144.53,672.788 2146.2,674.585 2147.87,676.275 2149.53,677.827 2151.21,679.2 2152.88,680.333 2154.55,681.147 2156.23,681.539 2157.91,681.362 2159.58,680.372 2161.25,677.936 2162.84,671.025 2163.12,667.198 2163.21,662.758 2163.13,658.417 2162.88,653.439 2162.57,648.991 2162.22,644.871 2161.85,640.965 2161.46,637.21 2161.06,633.568 2160.66,630.013 2160.24,626.53 2159.83,623.107 2159.28,618.737 2158.72,614.455 2158.16,610.266 2157.58,606.18 2157,602.205 2156.41,598.341 2155.82,594.581 2155.22,590.911 2154.61,587.315 2154,583.778 2153.39,580.287 2152.59,575.803 2151.55,570.05 2150.5,564.369 2149.45,558.755 2148.4,553.209 2147.34,547.732 2146.28,542.325 2145.21,536.99 2144.14,531.725 2143.07,526.527 2141.99,521.394 2140.91,516.318 2139.83,511.295 2138.42,504.83 2137.01,498.424 2135.17,490.158 2133.33,481.927 2131.49,473.692 2129.66,465.413 2127.82,457.041 2126,448.515 2124.18,439.753 2122.39,430.623 2120.62,420.892 2118.93,410.041 2117.43,396.292 2117.24,383.754 2118.14,377.476 2118.64,375.77 2119.13,374.485 2119.63,373.442 2120.12,372.575 2120.62,371.843 2121.13,371.218 2121.63,370.682 2122.13,370.219 2122.64,369.819 2123.14,369.471 2123.65,369.169 2124.3,368.833 2124.96,368.55 2125.81,368.245 2126.92,367.928 2128.04,367.676 2129.48,367.413 2131.36,367.131 2133.23,366.852 2135.11,366.496 2136.99,366.049 2138.87,365.573 2140.74,365.101 2142.62,364.597 2144.5,363.999 2146.37,363.352 2148.25,362.813 2150.13,362.494 2152.01,362.42 2153.89,362.572 2155.76,362.918 2157.64,363.415 2159.52,364.018 2161.39,364.678 2163.27,365.357 2165.15,366.037 2167.02,366.722 2168.9,367.428 2170.78,368.159 2172.65,368.909 2174.53,369.655 2176.41,370.362 2178.28,370.98 2180.16,371.437 2182.04,371.627 2183.92,371.377 2185.79,370.373 2187.66,367.897 2189.46,361.051 2189.8,357.027 2189.9,351.797 2189.75,346.878 2189.5,342.818 2189.2,339.223 2188.87,335.922 2188.52,332.827 2188.16,329.879 2187.79,327.037 2187.41,324.269 2187.03,321.554 2186.54,318.076 2185.89,313.6 2185.05,307.789 2183.96,300.103 2182.9,291.992 2181.94,282.724 2181.59,276.909 2181.86,267.695 2182.77,263.414 2183.43,261.767 2184.09,260.6 2184.76,259.717 2185.42,259.032 2186.09,258.495 2186.76,258.075 2187.43,257.75 2188.1,257.505 2188.77,257.328 2189.44,257.209 2190.11,257.142 2190.78,257.118 2191.65,257.144 2192.53,257.223 2193.66,257.391 2194.79,257.619 2196.26,257.986 2197.74,258.417 2199.65,259.051 2201.56,259.739 2203.48,260.449 2205.39,261.172 2207.3,261.934 2209.22,262.767 2211.13,263.681 2213.04,264.658 2214.95,265.667 2216.87,266.675 2218.78,267.666 2220.69,268.646 2222.6,269.624 2224.51,270.599 2226.43,271.558 2228.34,272.486 2230.25,273.369 2232.16,274.192 2234.08,274.943 2235.99,275.609 2237.91,276.174 2239.82,276.616 2241.73,276.895 2243.65,276.952 2245.56,276.697 2247.48,276.003 2249.39,274.69 2251.29,272.461 2253.17,268.56 2254.92,258.662 2251.94,189.829 2252.07,188.962 2252.1,188.811 2252.13,188.619 2252.18,188.378 2252.24,188.078 2252.31,187.708 2252.41,187.259 2252.55,186.725 2252.68,186.239 2252.82,185.796 2252.96,185.391 2253.1,185.02 2253.28,184.582 2253.46,184.188 2253.65,183.833 2253.83,183.512 2254.02,183.222 2254.26,182.885 2254.5,182.589 2254.75,182.329 2254.99,182.102 2255.3,181.847 2255.62,181.636 2255.94,181.461 2256.25,181.319 2256.67,181.178 2257.08,181.079 2257.49,181.018 2257.9,180.99 2258.44,180.995 2258.98,181.042 2259.51,181.123 2260.21,181.272 2260.91,181.462 2261.81,181.755 2262.99,182.193 2264.52,182.825 2266.51,183.706 2268.5,184.634 2270.49,185.607 2272.47,186.616 2274.46,187.641 2276.45,188.649 2278.44,189.606 2280.43,190.477 2282.42,191.224 2284.41,191.783 2286.4,192.055 2288.39,191.949 2290.38,191.42 2292.37,190.367 "/>
<polyline clip-path="url(#clip742)" style="stroke:#e26f46; stroke-linecap:round; stroke-linejoin:round; stroke-width:4; stroke-opacity:1; fill:none" points="279.421,634.245 470.033,1386.4 "/>
<polyline clip-path="url(#clip742)" style="stroke:#e26f46; stroke-linecap:round; stroke-linejoin:round; stroke-width:4; stroke-opacity:1; fill:none" points="478.637,1347.08 470.033,1386.4 443.741,1355.92 "/>
<polyline clip-path="url(#clip742)" style="stroke:#e26f46; stroke-linecap:round; stroke-linejoin:round; stroke-width:4; stroke-opacity:1; fill:none" points="470.033,1386.4 279.421,634.245 "/>
<path clip-path="url(#clip740)" d="M2015.83 1379.86 L2281.63 1379.86 L2281.63 1276.18 L2015.83 1276.18  Z" fill="#ffffff" fill-rule="evenodd" fill-opacity="1"/>
<polyline clip-path="url(#clip740)" style="stroke:#000000; stroke-linecap:round; stroke-linejoin:round; stroke-width:4; stroke-opacity:1; fill:none" points="2015.83,1379.86 2281.63,1379.86 2281.63,1276.18 2015.83,1276.18 2015.83,1379.86 "/>
<polyline clip-path="url(#clip740)" style="stroke:#0000ff; stroke-linecap:round; stroke-linejoin:round; stroke-width:8; stroke-opacity:1; fill:none" stroke-dasharray="32, 20" points="2039.54,1328.02 2181.79,1328.02 "/>
<path clip-path="url(#clip740)" d="M2219.34 1347.7 Q2217.53 1352.33 2215.82 1353.75 Q2214.1 1355.16 2211.23 1355.16 L2207.83 1355.16 L2207.83 1351.59 L2210.33 1351.59 Q2212.09 1351.59 2213.06 1350.76 Q2214.04 1349.93 2215.22 1346.82 L2215.98 1344.88 L2205.49 1319.37 L2210.01 1319.37 L2218.11 1339.65 L2226.21 1319.37 L2230.72 1319.37 L2219.34 1347.7 Z" fill="#000000" fill-rule="nonzero" fill-opacity="1" /><path clip-path="url(#clip740)" d="M2238.02 1341.36 L2245.66 1341.36 L2245.66 1315 L2237.35 1316.66 L2237.35 1312.4 L2245.61 1310.74 L2250.28 1310.74 L2250.28 1341.36 L2257.92 1341.36 L2257.92 1345.3 L2238.02 1345.3 L2238.02 1341.36 Z" fill="#000000" fill-rule="nonzero" fill-opacity="1" /></svg>
