<?xml version="1.0" encoding="utf-8"?>
<svg xmlns="http://www.w3.org/2000/svg" xmlns:xlink="http://www.w3.org/1999/xlink" width="600" height="400" viewBox="0 0 2400 1600">
<defs>
  <clipPath id="clip010">
    <rect x="0" y="0" width="2400" height="1600"/>
  </clipPath>
</defs>
<path clip-path="url(#clip010)" d="M0 1600 L2400 1600 L2400 0 L0 0  Z" fill="#ffffff" fill-rule="evenodd" fill-opacity="1"/>
<defs>
  <clipPath id="clip011">
    <rect x="219" y="47" width="2134" height="1377"/>
  </clipPath>
</defs>
<path clip-path="url(#clip010)" d="M242.135 1423.18 L2352.76 1423.18 L2352.76 123.472 L242.135 123.472  Z" fill="#ffffff" fill-rule="evenodd" fill-opacity="1"/>
<defs>
  <clipPath id="clip012">
    <rect x="242" y="123" width="2112" height="1301"/>
  </clipPath>
</defs>
<polyline clip-path="url(#clip012)" style="stroke:#000000; stroke-linecap:round; stroke-linejoin:round; stroke-width:2; stroke-opacity:0.1; fill:none" points="330.895,1423.18 330.895,123.472 "/>
<polyline clip-path="url(#clip012)" style="stroke:#000000; stroke-linecap:round; stroke-linejoin:round; stroke-width:2; stroke-opacity:0.1; fill:none" points="653.078,1423.18 653.078,123.472 "/>
<polyline clip-path="url(#clip012)" style="stroke:#000000; stroke-linecap:round; stroke-linejoin:round; stroke-width:2; stroke-opacity:0.1; fill:none" points="975.262,1423.18 975.262,123.472 "/>
<polyline clip-path="url(#clip012)" style="stroke:#000000; stroke-linecap:round; stroke-linejoin:round; stroke-width:2; stroke-opacity:0.1; fill:none" points="1297.45,1423.18 1297.45,123.472 "/>
<polyline clip-path="url(#clip012)" style="stroke:#000000; stroke-linecap:round; stroke-linejoin:round; stroke-width:2; stroke-opacity:0.1; fill:none" points="1619.63,1423.18 1619.63,123.472 "/>
<polyline clip-path="url(#clip012)" style="stroke:#000000; stroke-linecap:round; stroke-linejoin:round; stroke-width:2; stroke-opacity:0.1; fill:none" points="1941.81,1423.18 1941.81,123.472 "/>
<polyline clip-path="url(#clip012)" style="stroke:#000000; stroke-linecap:round; stroke-linejoin:round; stroke-width:2; stroke-opacity:0.1; fill:none" points="2264,1423.18 2264,123.472 "/>
<polyline clip-path="url(#clip012)" style="stroke:#000000; stroke-linecap:round; stroke-linejoin:round; stroke-width:2; stroke-opacity:0.1; fill:none" points="242.135,1276.45 2352.76,1276.45 "/>
<polyline clip-path="url(#clip012)" style="stroke:#000000; stroke-linecap:round; stroke-linejoin:round; stroke-width:2; stroke-opacity:0.1; fill:none" points="242.135,1075.14 2352.76,1075.14 "/>
<polyline clip-path="url(#clip012)" style="stroke:#000000; stroke-linecap:round; stroke-linejoin:round; stroke-width:2; stroke-opacity:0.1; fill:none" points="242.135,873.837 2352.76,873.837 "/>
<polyline clip-path="url(#clip012)" style="stroke:#000000; stroke-linecap:round; stroke-linejoin:round; stroke-width:2; stroke-opacity:0.1; fill:none" points="242.135,672.533 2352.76,672.533 "/>
<polyline clip-path="url(#clip012)" style="stroke:#000000; stroke-linecap:round; stroke-linejoin:round; stroke-width:2; stroke-opacity:0.1; fill:none" points="242.135,471.229 2352.76,471.229 "/>
<polyline clip-path="url(#clip012)" style="stroke:#000000; stroke-linecap:round; stroke-linejoin:round; stroke-width:2; stroke-opacity:0.1; fill:none" points="242.135,269.925 2352.76,269.925 "/>
<polyline clip-path="url(#clip010)" style="stroke:#000000; stroke-linecap:round; stroke-linejoin:round; stroke-width:4; stroke-opacity:1; fill:none" points="242.135,1423.18 2352.76,1423.18 "/>
<polyline clip-path="url(#clip010)" style="stroke:#000000; stroke-linecap:round; stroke-linejoin:round; stroke-width:4; stroke-opacity:1; fill:none" points="330.895,1423.18 330.895,1404.28 "/>
<polyline clip-path="url(#clip010)" style="stroke:#000000; stroke-linecap:round; stroke-linejoin:round; stroke-width:4; stroke-opacity:1; fill:none" points="653.078,1423.18 653.078,1404.28 "/>
<polyline clip-path="url(#clip010)" style="stroke:#000000; stroke-linecap:round; stroke-linejoin:round; stroke-width:4; stroke-opacity:1; fill:none" points="975.262,1423.18 975.262,1404.28 "/>
<polyline clip-path="url(#clip010)" style="stroke:#000000; stroke-linecap:round; stroke-linejoin:round; stroke-width:4; stroke-opacity:1; fill:none" points="1297.45,1423.18 1297.45,1404.28 "/>
<polyline clip-path="url(#clip010)" style="stroke:#000000; stroke-linecap:round; stroke-linejoin:round; stroke-width:4; stroke-opacity:1; fill:none" points="1619.63,1423.18 1619.63,1404.28 "/>
<polyline clip-path="url(#clip010)" style="stroke:#000000; stroke-linecap:round; stroke-linejoin:round; stroke-width:4; stroke-opacity:1; fill:none" points="1941.81,1423.18 1941.81,1404.28 "/>
<polyline clip-path="url(#clip010)" style="stroke:#000000; stroke-linecap:round; stroke-linejoin:round; stroke-width:4; stroke-opacity:1; fill:none" points="2264,1423.18 2264,1404.28 "/>
<path clip-path="url(#clip010)" d="M300.363 1468.75 L330.039 1468.75 L330.039 1472.69 L300.363 1472.69 L300.363 1468.75 Z" fill="#000000" fill-rule="nonzero" fill-opacity="1" /><path clip-path="url(#clip010)" d="M354.298 1466.95 Q357.654 1467.66 359.529 1469.93 Q361.427 1472.2 361.427 1475.53 Q361.427 1480.65 357.909 1483.45 Q354.39 1486.25 347.909 1486.25 Q345.733 1486.25 343.418 1485.81 Q341.127 1485.39 338.673 1484.54 L338.673 1480.02 Q340.617 1481.16 342.932 1481.74 Q345.247 1482.32 347.77 1482.32 Q352.168 1482.32 354.46 1480.58 Q356.775 1478.84 356.775 1475.53 Q356.775 1472.48 354.622 1470.77 Q352.492 1469.03 348.673 1469.03 L344.645 1469.03 L344.645 1465.19 L348.858 1465.19 Q352.307 1465.19 354.136 1463.82 Q355.964 1462.43 355.964 1459.84 Q355.964 1457.18 354.066 1455.77 Q352.191 1454.33 348.673 1454.33 Q346.751 1454.33 344.552 1454.75 Q342.353 1455.16 339.714 1456.04 L339.714 1451.88 Q342.377 1451.14 344.691 1450.77 Q347.029 1450.39 349.089 1450.39 Q354.413 1450.39 357.515 1452.83 Q360.617 1455.23 360.617 1459.35 Q360.617 1462.22 358.974 1464.21 Q357.33 1466.18 354.298 1466.95 Z" fill="#000000" fill-rule="nonzero" fill-opacity="1" /><path clip-path="url(#clip010)" d="M623.021 1468.75 L652.697 1468.75 L652.697 1472.69 L623.021 1472.69 L623.021 1468.75 Z" fill="#000000" fill-rule="nonzero" fill-opacity="1" /><path clip-path="url(#clip010)" d="M666.817 1481.64 L683.136 1481.64 L683.136 1485.58 L661.192 1485.58 L661.192 1481.64 Q663.854 1478.89 668.437 1474.26 Q673.044 1469.61 674.224 1468.27 Q676.47 1465.74 677.349 1464.01 Q678.252 1462.25 678.252 1460.56 Q678.252 1457.8 676.308 1456.07 Q674.386 1454.33 671.284 1454.33 Q669.085 1454.33 666.632 1455.09 Q664.201 1455.86 661.423 1457.41 L661.423 1452.69 Q664.247 1451.55 666.701 1450.97 Q669.155 1450.39 671.192 1450.39 Q676.562 1450.39 679.757 1453.08 Q682.951 1455.77 682.951 1460.26 Q682.951 1462.39 682.141 1464.31 Q681.354 1466.2 679.247 1468.8 Q678.669 1469.47 675.567 1472.69 Q672.465 1475.88 666.817 1481.64 Z" fill="#000000" fill-rule="nonzero" fill-opacity="1" /><path clip-path="url(#clip010)" d="M945.019 1468.75 L974.695 1468.75 L974.695 1472.69 L945.019 1472.69 L945.019 1468.75 Z" fill="#000000" fill-rule="nonzero" fill-opacity="1" /><path clip-path="url(#clip010)" d="M985.597 1481.64 L993.236 1481.64 L993.236 1455.28 L984.926 1456.95 L984.926 1452.69 L993.19 1451.02 L997.866 1451.02 L997.866 1481.64 L1005.5 1481.64 L1005.5 1485.58 L985.597 1485.58 L985.597 1481.64 Z" fill="#000000" fill-rule="nonzero" fill-opacity="1" /><path clip-path="url(#clip010)" d="M1297.45 1454.1 Q1293.83 1454.1 1292.01 1457.66 Q1290.2 1461.2 1290.2 1468.33 Q1290.2 1475.44 1292.01 1479.01 Q1293.83 1482.55 1297.45 1482.55 Q1301.08 1482.55 1302.89 1479.01 Q1304.71 1475.44 1304.71 1468.33 Q1304.71 1461.2 1302.89 1457.66 Q1301.08 1454.1 1297.45 1454.1 M1297.45 1450.39 Q1303.26 1450.39 1306.31 1455 Q1309.39 1459.58 1309.39 1468.33 Q1309.39 1477.06 1306.31 1481.67 Q1303.26 1486.25 1297.45 1486.25 Q1291.64 1486.25 1288.56 1481.67 Q1285.5 1477.06 1285.5 1468.33 Q1285.5 1459.58 1288.56 1455 Q1291.64 1450.39 1297.45 1450.39 Z" fill="#000000" fill-rule="nonzero" fill-opacity="1" /><path clip-path="url(#clip010)" d="M1610.01 1481.64 L1617.65 1481.64 L1617.65 1455.28 L1609.34 1456.95 L1609.34 1452.69 L1617.6 1451.02 L1622.28 1451.02 L1622.28 1481.64 L1629.92 1481.64 L1629.92 1485.58 L1610.01 1485.58 L1610.01 1481.64 Z" fill="#000000" fill-rule="nonzero" fill-opacity="1" /><path clip-path="url(#clip010)" d="M1936.46 1481.64 L1952.78 1481.64 L1952.78 1485.58 L1930.84 1485.58 L1930.84 1481.64 Q1933.5 1478.89 1938.09 1474.26 Q1942.69 1469.61 1943.87 1468.27 Q1946.12 1465.74 1947 1464.01 Q1947.9 1462.25 1947.9 1460.56 Q1947.9 1457.8 1945.96 1456.07 Q1944.03 1454.33 1940.93 1454.33 Q1938.73 1454.33 1936.28 1455.09 Q1933.85 1455.86 1931.07 1457.41 L1931.07 1452.69 Q1933.9 1451.55 1936.35 1450.97 Q1938.8 1450.39 1940.84 1450.39 Q1946.21 1450.39 1949.4 1453.08 Q1952.6 1455.77 1952.6 1460.26 Q1952.6 1462.39 1951.79 1464.31 Q1951 1466.2 1948.9 1468.8 Q1948.32 1469.47 1945.21 1472.69 Q1942.11 1475.88 1936.46 1481.64 Z" fill="#000000" fill-rule="nonzero" fill-opacity="1" /><path clip-path="url(#clip010)" d="M2268.24 1466.95 Q2271.6 1467.66 2273.47 1469.93 Q2275.37 1472.2 2275.37 1475.53 Q2275.37 1480.65 2271.85 1483.45 Q2268.34 1486.25 2261.85 1486.25 Q2259.68 1486.25 2257.36 1485.81 Q2255.07 1485.39 2252.62 1484.54 L2252.62 1480.02 Q2254.56 1481.16 2256.88 1481.74 Q2259.19 1482.32 2261.72 1482.32 Q2266.11 1482.32 2268.41 1480.58 Q2270.72 1478.84 2270.72 1475.53 Q2270.72 1472.48 2268.57 1470.77 Q2266.44 1469.03 2262.62 1469.03 L2258.59 1469.03 L2258.59 1465.19 L2262.8 1465.19 Q2266.25 1465.19 2268.08 1463.82 Q2269.91 1462.43 2269.91 1459.84 Q2269.91 1457.18 2268.01 1455.77 Q2266.14 1454.33 2262.62 1454.33 Q2260.7 1454.33 2258.5 1454.75 Q2256.3 1455.16 2253.66 1456.04 L2253.66 1451.88 Q2256.32 1451.14 2258.64 1450.77 Q2260.97 1450.39 2263.03 1450.39 Q2268.36 1450.39 2271.46 1452.83 Q2274.56 1455.23 2274.56 1459.35 Q2274.56 1462.22 2272.92 1464.21 Q2271.28 1466.18 2268.24 1466.95 Z" fill="#000000" fill-rule="nonzero" fill-opacity="1" /><path clip-path="url(#clip010)" d="M1307.57 1545.45 L1287.29 1545.45 Q1287.77 1554.96 1289.97 1559 Q1292.7 1563.97 1297.45 1563.97 Q1302.22 1563.97 1304.86 1558.97 Q1307.18 1554.58 1307.57 1545.45 M1307.47 1540.03 Q1306.58 1531 1304.86 1527.81 Q1302.12 1522.78 1297.45 1522.78 Q1292.58 1522.78 1290 1527.75 Q1287.96 1531.76 1287.36 1540.03 L1307.47 1540.03 M1297.45 1518.01 Q1305.08 1518.01 1309.44 1524.76 Q1313.81 1531.47 1313.81 1543.38 Q1313.81 1555.25 1309.44 1562 Q1305.08 1568.78 1297.45 1568.78 Q1289.77 1568.78 1285.45 1562 Q1281.09 1555.25 1281.09 1543.38 Q1281.09 1531.47 1285.45 1524.76 Q1289.77 1518.01 1297.45 1518.01 Z" fill="#000000" fill-rule="nonzero" fill-opacity="1" /><polyline clip-path="url(#clip010)" style="stroke:#000000; stroke-linecap:round; stroke-linejoin:round; stroke-width:4; stroke-opacity:1; fill:none" points="242.135,1423.18 242.135,123.472 "/>
<polyline clip-path="url(#clip010)" style="stroke:#000000; stroke-linecap:round; stroke-linejoin:round; stroke-width:4; stroke-opacity:1; fill:none" points="242.135,1276.45 261.032,1276.45 "/>
<polyline clip-path="url(#clip010)" style="stroke:#000000; stroke-linecap:round; stroke-linejoin:round; stroke-width:4; stroke-opacity:1; fill:none" points="242.135,1075.14 261.032,1075.14 "/>
<polyline clip-path="url(#clip010)" style="stroke:#000000; stroke-linecap:round; stroke-linejoin:round; stroke-width:4; stroke-opacity:1; fill:none" points="242.135,873.837 261.032,873.837 "/>
<polyline clip-path="url(#clip010)" style="stroke:#000000; stroke-linecap:round; stroke-linejoin:round; stroke-width:4; stroke-opacity:1; fill:none" points="242.135,672.533 261.032,672.533 "/>
<polyline clip-path="url(#clip010)" style="stroke:#000000; stroke-linecap:round; stroke-linejoin:round; stroke-width:4; stroke-opacity:1; fill:none" points="242.135,471.229 261.032,471.229 "/>
<polyline clip-path="url(#clip010)" style="stroke:#000000; stroke-linecap:round; stroke-linejoin:round; stroke-width:4; stroke-opacity:1; fill:none" points="242.135,269.925 261.032,269.925 "/>
<path clip-path="url(#clip010)" d="M115.256 1276.9 L144.931 1276.9 L144.931 1280.83 L115.256 1280.83 L115.256 1276.9 Z" fill="#000000" fill-rule="nonzero" fill-opacity="1" /><path clip-path="url(#clip010)" d="M155.834 1289.79 L163.473 1289.79 L163.473 1263.42 L155.163 1265.09 L155.163 1260.83 L163.427 1259.17 L168.102 1259.17 L168.102 1289.79 L175.741 1289.79 L175.741 1293.73 L155.834 1293.73 L155.834 1289.79 Z" fill="#000000" fill-rule="nonzero" fill-opacity="1" /><path clip-path="url(#clip010)" d="M185.232 1259.17 L203.588 1259.17 L203.588 1263.1 L189.514 1263.1 L189.514 1271.57 Q190.533 1271.23 191.551 1271.06 Q192.57 1270.88 193.588 1270.88 Q199.375 1270.88 202.755 1274.05 Q206.135 1277.22 206.135 1282.64 Q206.135 1288.22 202.662 1291.32 Q199.19 1294.4 192.871 1294.4 Q190.695 1294.4 188.426 1294.03 Q186.181 1293.66 183.774 1292.92 L183.774 1288.22 Q185.857 1289.35 188.079 1289.91 Q190.301 1290.46 192.778 1290.46 Q196.783 1290.46 199.121 1288.36 Q201.459 1286.25 201.459 1282.64 Q201.459 1279.03 199.121 1276.92 Q196.783 1274.81 192.778 1274.81 Q190.903 1274.81 189.028 1275.23 Q187.176 1275.65 185.232 1276.53 L185.232 1259.17 Z" fill="#000000" fill-rule="nonzero" fill-opacity="1" /><path clip-path="url(#clip010)" d="M114.26 1075.59 L143.936 1075.59 L143.936 1079.53 L114.26 1079.53 L114.26 1075.59 Z" fill="#000000" fill-rule="nonzero" fill-opacity="1" /><path clip-path="url(#clip010)" d="M154.839 1088.49 L162.477 1088.49 L162.477 1062.12 L154.167 1063.79 L154.167 1059.53 L162.431 1057.86 L167.107 1057.86 L167.107 1088.49 L174.746 1088.49 L174.746 1092.42 L154.839 1092.42 L154.839 1088.49 Z" fill="#000000" fill-rule="nonzero" fill-opacity="1" /><path clip-path="url(#clip010)" d="M194.19 1060.94 Q190.579 1060.94 188.75 1064.51 Q186.945 1068.05 186.945 1075.18 Q186.945 1082.28 188.75 1085.85 Q190.579 1089.39 194.19 1089.39 Q197.825 1089.39 199.63 1085.85 Q201.459 1082.28 201.459 1075.18 Q201.459 1068.05 199.63 1064.51 Q197.825 1060.94 194.19 1060.94 M194.19 1057.24 Q200 1057.24 203.056 1061.84 Q206.135 1066.43 206.135 1075.18 Q206.135 1083.9 203.056 1088.51 Q200 1093.09 194.19 1093.09 Q188.38 1093.09 185.301 1088.51 Q182.246 1083.9 182.246 1075.18 Q182.246 1066.43 185.301 1061.84 Q188.38 1057.24 194.19 1057.24 Z" fill="#000000" fill-rule="nonzero" fill-opacity="1" /><path clip-path="url(#clip010)" d="M145.417 874.289 L175.093 874.289 L175.093 878.224 L145.417 878.224 L145.417 874.289 Z" fill="#000000" fill-rule="nonzero" fill-opacity="1" /><path clip-path="url(#clip010)" d="M185.232 856.557 L203.588 856.557 L203.588 860.493 L189.514 860.493 L189.514 868.965 Q190.533 868.618 191.551 868.456 Q192.57 868.27 193.588 868.27 Q199.375 868.27 202.755 871.442 Q206.135 874.613 206.135 880.03 Q206.135 885.608 202.662 888.71 Q199.19 891.789 192.871 891.789 Q190.695 891.789 188.426 891.418 Q186.181 891.048 183.774 890.307 L183.774 885.608 Q185.857 886.742 188.079 887.298 Q190.301 887.854 192.778 887.854 Q196.783 887.854 199.121 885.747 Q201.459 883.641 201.459 880.03 Q201.459 876.418 199.121 874.312 Q196.783 872.206 192.778 872.206 Q190.903 872.206 189.028 872.622 Q187.176 873.039 185.232 873.918 L185.232 856.557 Z" fill="#000000" fill-rule="nonzero" fill-opacity="1" /><path clip-path="url(#clip010)" d="M194.19 658.332 Q190.579 658.332 188.75 661.897 Q186.945 665.438 186.945 672.568 Q186.945 679.675 188.75 683.239 Q190.579 686.781 194.19 686.781 Q197.825 686.781 199.63 683.239 Q201.459 679.675 201.459 672.568 Q201.459 665.438 199.63 661.897 Q197.825 658.332 194.19 658.332 M194.19 654.628 Q200 654.628 203.056 659.235 Q206.135 663.818 206.135 672.568 Q206.135 681.295 203.056 685.901 Q200 690.485 194.19 690.485 Q188.38 690.485 185.301 685.901 Q182.246 681.295 182.246 672.568 Q182.246 663.818 185.301 659.235 Q188.38 654.628 194.19 654.628 Z" fill="#000000" fill-rule="nonzero" fill-opacity="1" /><path clip-path="url(#clip010)" d="M185.232 453.949 L203.588 453.949 L203.588 457.884 L189.514 457.884 L189.514 466.357 Q190.533 466.009 191.551 465.847 Q192.57 465.662 193.588 465.662 Q199.375 465.662 202.755 468.833 Q206.135 472.005 206.135 477.421 Q206.135 483 202.662 486.102 Q199.19 489.181 192.871 489.181 Q190.695 489.181 188.426 488.81 Q186.181 488.44 183.774 487.699 L183.774 483 Q185.857 484.134 188.079 484.69 Q190.301 485.245 192.778 485.245 Q196.783 485.245 199.121 483.139 Q201.459 481.032 201.459 477.421 Q201.459 473.81 199.121 471.704 Q196.783 469.597 192.778 469.597 Q190.903 469.597 189.028 470.014 Q187.176 470.431 185.232 471.31 L185.232 453.949 Z" fill="#000000" fill-rule="nonzero" fill-opacity="1" /><path clip-path="url(#clip010)" d="M154.839 283.27 L162.477 283.27 L162.477 256.904 L154.167 258.571 L154.167 254.312 L162.431 252.645 L167.107 252.645 L167.107 283.27 L174.746 283.27 L174.746 287.205 L154.839 287.205 L154.839 283.27 Z" fill="#000000" fill-rule="nonzero" fill-opacity="1" /><path clip-path="url(#clip010)" d="M194.19 255.724 Q190.579 255.724 188.75 259.289 Q186.945 262.83 186.945 269.96 Q186.945 277.066 188.75 280.631 Q190.579 284.173 194.19 284.173 Q197.825 284.173 199.63 280.631 Q201.459 277.066 201.459 269.96 Q201.459 262.83 199.63 259.289 Q197.825 255.724 194.19 255.724 M194.19 252.02 Q200 252.02 203.056 256.627 Q206.135 261.21 206.135 269.96 Q206.135 278.687 203.056 283.293 Q200 287.877 194.19 287.877 Q188.38 287.877 185.301 283.293 Q182.246 278.687 182.246 269.96 Q182.246 261.21 185.301 256.627 Q188.38 252.02 194.19 252.02 Z" fill="#000000" fill-rule="nonzero" fill-opacity="1" /><path clip-path="url(#clip010)" d="M28.3562 840.978 L28.3562 835.121 L64.0042 835.121 L64.0042 840.978 L28.3562 840.978 M14.479 840.978 L14.479 835.121 L21.895 835.121 L21.895 840.978 L14.479 840.978 Z" fill="#000000" fill-rule="nonzero" fill-opacity="1" /><path clip-path="url(#clip010)" d="M21.7677 816.183 L39.6235 816.183 L39.6235 808.099 Q39.6235 803.611 37.3 801.16 Q34.9765 798.709 30.6797 798.709 Q26.4147 798.709 24.0912 801.16 Q21.7677 803.611 21.7677 808.099 L21.7677 816.183 M16.4842 822.612 L16.4842 808.099 Q16.4842 800.11 20.1126 796.036 Q23.7092 791.93 30.6797 791.93 Q37.7138 791.93 41.3104 796.036 Q44.907 800.11 44.907 808.099 L44.907 816.183 L64.0042 816.183 L64.0042 822.612 L16.4842 822.612 Z" fill="#000000" fill-rule="nonzero" fill-opacity="1" /><path clip-path="url(#clip010)" d="M41.7242 760.77 Q42.4244 758.701 44.7161 756.759 Q47.0077 754.786 51.0181 752.812 L64.0042 746.288 L64.0042 753.194 L51.8138 759.274 Q47.0395 761.629 45.48 763.857 Q43.9204 766.053 43.9204 769.873 L43.9204 776.875 L64.0042 776.875 L64.0042 783.304 L16.4842 783.304 L16.4842 768.79 Q16.4842 760.642 19.8898 756.632 Q23.2955 752.622 30.1704 752.622 Q34.6582 752.622 37.6183 754.722 Q40.5784 756.791 41.7242 760.77 M21.7677 776.875 L38.6368 776.875 L38.6368 768.79 Q38.6368 764.143 36.5043 761.788 Q34.34 759.401 30.1704 759.401 Q26.0009 759.401 23.9002 761.788 Q21.7677 764.143 21.7677 768.79 L21.7677 776.875 Z" fill="#000000" fill-rule="nonzero" fill-opacity="1" /><path clip-path="url(#clip010)" d="M20.1444 705.674 L26.9239 705.674 Q23.9002 708.921 22.4043 712.613 Q20.9083 716.273 20.9083 720.411 Q20.9083 728.559 25.9054 732.888 Q30.8707 737.217 40.2919 737.217 Q49.6813 737.217 54.6784 732.888 Q59.6436 728.559 59.6436 720.411 Q59.6436 716.273 58.1477 712.613 Q56.6518 708.921 53.6281 705.674 L60.3439 705.674 Q62.6355 709.048 63.7814 712.836 Q64.9272 716.592 64.9272 720.793 Q64.9272 731.583 58.3387 737.789 Q51.7183 743.996 40.2919 743.996 Q28.8336 743.996 22.2451 737.789 Q15.6248 731.583 15.6248 720.793 Q15.6248 716.528 16.7706 712.772 Q17.8846 708.985 20.1444 705.674 Z" fill="#000000" fill-rule="nonzero" fill-opacity="1" /><path clip-path="url(#clip010)" d="M974.649 27.2059 L982.103 27.2059 L982.103 72.576 L974.649 72.576 L974.649 27.2059 M974.649 9.54393 L982.103 9.54393 L982.103 18.9825 L974.649 18.9825 L974.649 9.54393 Z" fill="#000000" fill-rule="nonzero" fill-opacity="1" /><path clip-path="url(#clip010)" d="M1006.21 18.8205 L1006.21 41.5461 L1016.49 41.5461 Q1022.21 41.5461 1025.33 38.5889 Q1028.44 35.6318 1028.44 30.163 Q1028.44 24.7348 1025.33 21.7777 Q1022.21 18.8205 1016.49 18.8205 L1006.21 18.8205 M998.023 12.096 L1016.49 12.096 Q1026.66 12.096 1031.85 16.714 Q1037.07 21.2916 1037.07 30.163 Q1037.07 39.1155 1031.85 43.6931 Q1026.66 48.2706 1016.49 48.2706 L1006.21 48.2706 L1006.21 72.576 L998.023 72.576 L998.023 12.096 Z" fill="#000000" fill-rule="nonzero" fill-opacity="1" /><path clip-path="url(#clip010)" d="M1076.73 44.2197 Q1079.36 45.1109 1081.84 48.0275 Q1084.35 50.9442 1086.86 56.0483 L1095.16 72.576 L1086.37 72.576 L1078.64 57.061 Q1075.64 50.9847 1072.8 48.9997 Q1070.01 47.0148 1065.15 47.0148 L1056.23 47.0148 L1056.23 72.576 L1048.05 72.576 L1048.05 12.096 L1066.52 12.096 Q1076.89 12.096 1082 16.4305 Q1087.1 20.7649 1087.1 29.5149 Q1087.1 35.2267 1084.43 38.994 Q1081.8 42.7613 1076.73 44.2197 M1056.23 18.8205 L1056.23 40.2903 L1066.52 40.2903 Q1072.44 40.2903 1075.44 37.5762 Q1078.47 34.8216 1078.47 29.5149 Q1078.47 24.2082 1075.44 21.5346 Q1072.44 18.8205 1066.52 18.8205 L1056.23 18.8205 Z" fill="#000000" fill-rule="nonzero" fill-opacity="1" /><path clip-path="url(#clip010)" d="M1146.85 16.7545 L1146.85 25.383 Q1142.72 21.5346 1138.02 19.6307 Q1133.36 17.7268 1128.1 17.7268 Q1117.73 17.7268 1112.22 24.0867 Q1106.71 30.4061 1106.71 42.3968 Q1106.71 54.3469 1112.22 60.7069 Q1117.73 67.0263 1128.1 67.0263 Q1133.36 67.0263 1138.02 65.1223 Q1142.72 63.2184 1146.85 59.3701 L1146.85 67.9175 Q1142.56 70.8341 1137.74 72.2924 Q1132.96 73.7508 1127.61 73.7508 Q1113.88 73.7508 1105.98 65.3654 Q1098.08 56.9395 1098.08 42.3968 Q1098.08 27.8135 1105.98 19.4281 Q1113.88 11.0023 1127.61 11.0023 Q1133.04 11.0023 1137.82 12.4606 Q1142.64 13.8784 1146.85 16.7545 Z" fill="#000000" fill-rule="nonzero" fill-opacity="1" /><path clip-path="url(#clip010)" d="M1194.05 18.8205 L1194.05 65.8515 L1203.93 65.8515 Q1216.45 65.8515 1222.24 60.1802 Q1228.07 54.509 1228.07 42.2752 Q1228.07 30.1225 1222.24 24.4918 Q1216.45 18.8205 1203.93 18.8205 L1194.05 18.8205 M1185.86 12.096 L1202.67 12.096 Q1220.26 12.096 1228.48 19.4281 Q1236.7 26.7198 1236.7 42.2752 Q1236.7 57.9117 1228.44 65.2439 Q1220.17 72.576 1202.67 72.576 L1185.86 72.576 L1185.86 12.096 Z" fill="#000000" fill-rule="nonzero" fill-opacity="1" /><path clip-path="url(#clip010)" d="M1288.23 48.0275 L1288.23 51.6733 L1253.96 51.6733 Q1254.44 59.3701 1258.58 63.421 Q1262.75 67.4314 1270.16 67.4314 Q1274.46 67.4314 1278.47 66.3781 Q1282.52 65.3249 1286.49 63.2184 L1286.49 70.267 Q1282.48 71.9684 1278.26 72.8596 Q1274.05 73.7508 1269.72 73.7508 Q1258.86 73.7508 1252.5 67.4314 Q1246.18 61.1119 1246.18 50.3365 Q1246.18 39.1965 1252.18 32.6746 Q1258.21 26.1121 1268.42 26.1121 Q1277.58 26.1121 1282.88 32.0264 Q1288.23 37.9003 1288.23 48.0275 M1280.78 45.84 Q1280.69 39.7232 1277.33 36.0774 Q1274.01 32.4315 1268.5 32.4315 Q1262.26 32.4315 1258.5 35.9558 Q1254.77 39.4801 1254.2 45.8805 L1280.78 45.84 Z" fill="#000000" fill-rule="nonzero" fill-opacity="1" /><path clip-path="url(#clip010)" d="M1338.18 45.1919 L1338.18 72.576 L1330.72 72.576 L1330.72 45.4349 Q1330.72 38.994 1328.21 35.7938 Q1325.7 32.5936 1320.68 32.5936 Q1314.64 32.5936 1311.16 36.4419 Q1307.67 40.2903 1307.67 46.9338 L1307.67 72.576 L1300.18 72.576 L1300.18 27.2059 L1307.67 27.2059 L1307.67 34.2544 Q1310.35 30.163 1313.95 28.1376 Q1317.6 26.1121 1322.34 26.1121 Q1330.16 26.1121 1334.17 30.9732 Q1338.18 35.7938 1338.18 45.1919 Z" fill="#000000" fill-rule="nonzero" fill-opacity="1" /><path clip-path="url(#clip010)" d="M1381.97 28.5427 L1381.97 35.5912 Q1378.81 33.9709 1375.4 33.1607 Q1372 32.3505 1368.36 32.3505 Q1362.81 32.3505 1360.01 34.0519 Q1357.26 35.7533 1357.26 39.156 Q1357.26 41.7486 1359.24 43.2475 Q1361.23 44.7058 1367.22 46.0426 L1369.77 46.6097 Q1377.71 48.3111 1381.04 51.4303 Q1384.4 54.509 1384.4 60.0587 Q1384.4 66.3781 1379.37 70.0644 Q1374.39 73.7508 1365.64 73.7508 Q1362 73.7508 1358.03 73.0216 Q1354.1 72.3329 1349.72 70.9151 L1349.72 63.2184 Q1353.85 65.3654 1357.86 66.4591 Q1361.87 67.5124 1365.8 67.5124 Q1371.07 67.5124 1373.91 65.73 Q1376.74 63.9071 1376.74 60.6258 Q1376.74 57.5877 1374.68 55.9673 Q1372.65 54.3469 1365.72 52.8481 L1363.13 52.2405 Q1356.2 50.7821 1353.12 47.7845 Q1350.05 44.7463 1350.05 39.4801 Q1350.05 33.0797 1354.58 29.5959 Q1359.12 26.1121 1367.47 26.1121 Q1371.6 26.1121 1375.24 26.7198 Q1378.89 27.3274 1381.97 28.5427 Z" fill="#000000" fill-rule="nonzero" fill-opacity="1" /><path clip-path="url(#clip010)" d="M1435.07 48.0275 L1435.07 51.6733 L1400.8 51.6733 Q1401.29 59.3701 1405.42 63.421 Q1409.59 67.4314 1417.01 67.4314 Q1421.3 67.4314 1425.31 66.3781 Q1429.36 65.3249 1433.33 63.2184 L1433.33 70.267 Q1429.32 71.9684 1425.11 72.8596 Q1420.9 73.7508 1416.56 73.7508 Q1405.71 73.7508 1399.35 67.4314 Q1393.03 61.1119 1393.03 50.3365 Q1393.03 39.1965 1399.02 32.6746 Q1405.06 26.1121 1415.27 26.1121 Q1424.42 26.1121 1429.73 32.0264 Q1435.07 37.9003 1435.07 48.0275 M1427.62 45.84 Q1427.54 39.7232 1424.18 36.0774 Q1420.86 32.4315 1415.35 32.4315 Q1409.11 32.4315 1405.34 35.9558 Q1401.61 39.4801 1401.05 45.8805 L1427.62 45.84 Z" fill="#000000" fill-rule="nonzero" fill-opacity="1" /><path clip-path="url(#clip010)" d="M1482.19 18.8205 L1482.19 41.5461 L1492.48 41.5461 Q1498.19 41.5461 1501.31 38.5889 Q1504.43 35.6318 1504.43 30.163 Q1504.43 24.7348 1501.31 21.7777 Q1498.19 18.8205 1492.48 18.8205 L1482.19 18.8205 M1474 12.096 L1492.48 12.096 Q1502.64 12.096 1507.83 16.714 Q1513.05 21.2916 1513.05 30.163 Q1513.05 39.1155 1507.83 43.6931 Q1502.64 48.2706 1492.48 48.2706 L1482.19 48.2706 L1482.19 72.576 L1474 72.576 L1474 12.096 Z" fill="#000000" fill-rule="nonzero" fill-opacity="1" /><path clip-path="url(#clip010)" d="M1523.71 9.54393 L1531.16 9.54393 L1531.16 72.576 L1523.71 72.576 L1523.71 9.54393 Z" fill="#000000" fill-rule="nonzero" fill-opacity="1" /><path clip-path="url(#clip010)" d="M1564.34 32.4315 Q1558.34 32.4315 1554.86 37.1306 Q1551.38 41.7891 1551.38 49.9314 Q1551.38 58.0738 1554.82 62.7728 Q1558.3 67.4314 1564.34 67.4314 Q1570.29 67.4314 1573.78 62.7323 Q1577.26 58.0333 1577.26 49.9314 Q1577.26 41.8701 1573.78 37.1711 Q1570.29 32.4315 1564.34 32.4315 M1564.34 26.1121 Q1574.06 26.1121 1579.61 32.4315 Q1585.16 38.7509 1585.16 49.9314 Q1585.16 61.0714 1579.61 67.4314 Q1574.06 73.7508 1564.34 73.7508 Q1554.58 73.7508 1549.03 67.4314 Q1543.52 61.0714 1543.52 49.9314 Q1543.52 38.7509 1549.03 32.4315 Q1554.58 26.1121 1564.34 26.1121 Z" fill="#000000" fill-rule="nonzero" fill-opacity="1" /><path clip-path="url(#clip010)" d="M1604.89 14.324 L1604.89 27.2059 L1620.24 27.2059 L1620.24 32.9987 L1604.89 32.9987 L1604.89 57.6282 Q1604.89 63.1779 1606.39 64.7578 Q1607.93 66.3376 1612.59 66.3376 L1620.24 66.3376 L1620.24 72.576 L1612.59 72.576 Q1603.96 72.576 1600.68 69.3758 Q1597.39 66.1351 1597.39 57.6282 L1597.39 32.9987 L1591.93 32.9987 L1591.93 27.2059 L1597.39 27.2059 L1597.39 14.324 L1604.89 14.324 Z" fill="#000000" fill-rule="nonzero" fill-opacity="1" /><polyline clip-path="url(#clip012)" style="stroke:#009af9; stroke-linecap:round; stroke-linejoin:round; stroke-width:8; stroke-opacity:1; fill:none" points="301.869,820.779 303.862,819.989 305.856,819.2 307.849,818.413 309.842,817.627 311.835,816.842 313.828,816.058 315.821,815.276 317.814,814.495 319.808,813.715 321.801,812.937 323.794,812.161 325.787,811.388 327.78,810.617 329.773,809.85 331.766,809.087 333.76,808.328 335.753,807.573 337.746,806.822 339.739,806.077 341.732,805.336 343.725,804.601 345.718,803.871 347.712,803.146 349.705,802.426 351.698,801.71 353.691,800.998 355.684,800.29 357.677,799.585 359.67,798.882 361.664,798.182 363.657,797.482 365.65,796.784 367.643,796.086 369.636,795.387 371.629,794.687 373.622,793.986 375.616,793.282 377.609,792.576 379.602,791.868 381.595,791.157 383.588,790.443 385.581,789.726 387.574,789.006 389.568,788.283 391.561,787.558 393.554,786.83 395.547,786.1 397.54,785.367 399.533,784.633 401.526,783.897 403.52,783.16 405.513,782.422 407.506,781.682 409.499,780.941 411.492,780.199 413.485,779.456 415.479,778.711 417.472,777.965 419.465,777.217 421.458,776.466 423.451,775.713 425.444,774.956 427.437,774.196 429.431,773.432 431.424,772.663 433.417,771.889 435.41,771.109 437.403,770.323 439.396,769.531 441.389,768.732 443.383,767.926 445.376,767.113 447.369,766.292 449.362,765.464 451.355,764.629 453.348,763.787 455.341,762.937 457.335,762.08 459.328,761.217 461.321,760.347 463.314,759.47 465.307,758.588 467.3,757.701 469.293,756.807 471.287,755.909 473.28,755.006 475.273,754.098 477.266,753.185 479.259,752.267 481.252,751.344 483.245,750.416 485.239,749.483 487.232,748.545 489.225,747.601 491.218,746.651 493.211,745.695 495.204,744.731 497.197,743.761 499.191,742.783 501.184,741.797 503.177,740.803 505.17,739.801 507.163,738.789 509.156,737.769 511.149,736.739 513.143,735.7 515.136,734.652 517.129,733.595 519.122,732.529 521.115,731.454 523.108,730.369 525.101,729.277 527.095,728.176 529.088,727.067 531.081,725.951 533.074,724.827 535.067,723.697 537.06,722.559 539.054,721.415 541.047,720.264 543.04,719.107 545.033,717.943 547.026,716.774 549.019,715.597 551.012,714.415 553.006,713.225 554.999,712.029 556.992,710.825 558.985,709.614 560.978,708.396 562.971,707.169 564.964,705.933 566.958,704.689 568.951,703.436 570.944,702.174 572.937,700.901 574.93,699.619 576.923,698.328 578.916,697.026 580.91,695.714 582.903,694.393 584.896,693.061 586.889,691.72 588.882,690.369 590.875,689.009 592.868,687.64 594.862,686.262 596.855,684.876 598.848,683.481 600.841,682.079 602.834,680.669 604.827,679.251 606.82,677.826 608.814,676.394 610.807,674.955 612.8,673.509 614.793,672.055 616.786,670.594 618.779,669.126 620.772,667.651 622.766,666.167 624.759,664.676 626.752,663.176 628.745,661.667 630.738,660.15 632.731,658.623 634.724,657.087 636.718,655.541 638.711,653.985 640.704,652.419 642.697,650.843 644.69,649.256 646.683,647.659 648.677,646.052 650.67,644.434 652.663,642.806 654.656,641.168 656.649,639.52 658.642,637.863 660.635,636.196 662.629,634.521 664.622,632.837 666.615,631.144 668.608,629.443 670.601,627.734 672.594,626.017 674.587,624.292 676.581,622.56 678.574,620.82 680.567,619.073 682.56,617.318 684.553,615.555 686.546,613.784 688.539,612.005 690.533,610.218 692.526,608.422 694.519,606.618 696.512,604.804 698.505,602.981 700.498,601.148 702.491,599.305 704.485,597.453 706.478,595.59 708.471,593.716 710.464,591.833 712.457,589.939 714.45,588.034 716.443,586.119 718.437,584.194 720.43,582.259 722.423,580.313 724.416,578.359 726.409,576.395 728.402,574.422 730.395,572.44 732.389,570.45 734.382,568.451 736.375,566.445 738.368,564.43 740.361,562.408 742.354,560.379 744.347,558.342 746.341,556.298 748.334,554.247 750.327,552.188 752.32,550.121 754.313,548.047 756.306,545.965 758.299,543.875 760.293,541.777 762.286,539.67 764.279,537.555 766.272,535.431 768.265,533.298 770.258,531.155 772.252,529.003 774.245,526.842 776.238,524.671 778.231,522.491 780.224,520.302 782.217,518.103 784.21,515.895 786.204,513.678 788.197,511.453 790.19,509.219 792.183,506.977 794.176,504.728 796.169,502.471 798.162,500.207 800.156,497.936 802.149,495.658 804.142,493.375 806.135,491.086 808.128,488.79 810.121,486.49 812.114,484.184 814.108,481.872 816.101,479.556 818.094,477.233 820.087,474.906 822.08,472.573 824.073,470.235 826.066,467.89 828.06,465.54 830.053,463.184 832.046,460.822 834.039,458.454 836.032,456.08 838.025,453.699 840.018,451.312 842.012,448.919 844.005,446.52 845.998,444.114 847.991,441.703 849.984,439.286 851.977,436.864 853.97,434.437 855.964,432.005 857.957,429.569 859.95,427.129 861.943,424.686 863.936,422.24 865.929,419.791 867.922,417.34 869.916,414.887 871.909,412.433 873.902,409.978 875.895,407.521 877.888,405.065 879.881,402.607 881.874,400.15 883.868,397.693 885.861,395.235 887.854,392.777 889.847,390.319 891.84,387.862 893.833,385.404 895.827,382.946 897.82,380.488 899.813,378.03 901.806,375.572 903.799,373.113 905.792,370.655 907.785,368.197 909.779,365.739 911.772,363.282 913.765,360.826 915.758,358.371 917.751,355.918 919.744,353.467 921.737,351.018 923.731,348.571 925.724,346.129 927.717,343.69 929.71,341.256 931.703,338.826 933.696,336.402 935.689,333.984 937.683,331.572 939.676,329.167 941.669,326.769 943.662,324.379 945.655,321.996 947.648,319.622 949.641,317.256 951.635,314.898 953.628,312.548 955.621,310.207 957.614,307.875 959.607,305.551 961.6,303.237 963.593,300.931 965.587,298.634 967.58,296.346 969.573,294.067 971.566,291.797 973.559,289.536 975.552,287.285 977.545,285.044 979.539,282.814 981.532,280.593 983.525,278.384 985.518,276.186 987.511,274 989.504,271.826 991.497,269.665 993.491,267.517 995.484,265.384 997.477,263.264 999.47,261.16 1001.46,259.071 1003.46,256.998 1005.45,254.942 1007.44,252.902 1009.44,250.88 1011.43,248.875 1013.42,246.887 1015.42,244.917 1017.41,242.966 1019.4,241.033 1021.39,239.118 1023.39,237.221 1025.38,235.342 1027.37,233.482 1029.37,231.641 1031.36,229.818 1033.35,228.013 1035.35,226.227 1037.34,224.459 1039.33,222.71 1041.33,220.98 1043.32,219.269 1045.31,217.578 1047.31,215.906 1049.3,214.254 1051.29,212.622 1053.28,211.011 1055.28,209.42 1057.27,207.852 1059.26,206.305 1061.26,204.781 1063.25,203.28 1065.24,201.802 1067.24,200.348 1069.23,198.918 1071.22,197.513 1073.22,196.133 1075.21,194.777 1077.2,193.447 1079.2,192.142 1081.19,190.863 1083.18,189.61 1085.18,188.382 1087.17,187.18 1089.16,186.003 1091.15,184.852 1093.15,183.727 1095.14,182.626 1097.13,181.551 1099.13,180.501 1101.12,179.476 1103.11,178.476 1105.11,177.501 1107.1,176.551 1109.09,175.625 1111.09,174.725 1113.08,173.85 1115.07,173.001 1117.07,172.177 1119.06,171.379 1121.05,170.606 1123.05,169.861 1125.04,169.142 1127.03,168.45 1129.02,167.785 1131.02,167.148 1133.01,166.539 1135,165.958 1137,165.405 1138.99,164.881 1140.98,164.386 1142.98,163.919 1144.97,163.481 1146.96,163.072 1148.96,162.692 1150.95,162.34 1152.94,162.016 1154.94,161.72 1156.93,161.453 1158.92,161.213 1160.91,161 1162.91,160.815 1164.9,160.656 1166.89,160.524 1168.89,160.419 1170.88,160.339 1172.87,160.286 1174.87,160.258 1176.86,160.256 1178.85,160.28 1180.85,160.33 1182.84,160.406 1184.83,160.507 1186.83,160.634 1188.82,160.788 1190.81,160.968 1192.81,161.174 1194.8,161.407 1196.79,161.667 1198.78,161.954 1200.78,162.268 1202.77,162.609 1204.76,162.978 1206.76,163.373 1208.75,163.796 1210.74,164.246 1212.74,164.723 1214.73,165.226 1216.72,165.756 1218.72,166.312 1220.71,166.893 1222.7,167.501 1224.7,168.133 1226.69,168.79 1228.68,169.471 1230.67,170.175 1232.67,170.904 1234.66,171.655 1236.65,172.429 1238.65,173.225 1240.64,174.043 1242.63,174.884 1244.63,175.746 1246.62,176.629 1248.61,177.535 1250.61,178.461 1252.6,179.409 1254.59,180.379 1256.59,181.37 1258.58,182.383 1260.57,183.418 1262.57,184.475 1264.56,185.553 1266.55,186.654 1268.54,187.776 1270.54,188.92 1272.53,190.086 1274.52,191.273 1276.52,192.482 1278.51,193.713 1280.5,194.964 1282.5,196.236 1284.49,197.528 1286.48,198.84 1288.48,200.172 1290.47,201.522 1292.46,202.89 1294.46,204.277 1296.45,205.681 1298.44,207.102 1300.44,208.539 1302.43,209.993 1304.42,211.462 1306.41,212.946 1308.41,214.445 1310.4,215.959 1312.39,217.488 1314.39,219.031 1316.38,220.589 1318.37,222.16 1320.37,223.746 1322.36,225.347 1324.35,226.962 1326.35,228.591 1328.34,230.235 1330.33,231.893 1332.33,233.566 1334.32,235.253 1336.31,236.955 1338.3,238.671 1340.3,240.401 1342.29,242.146 1344.28,243.904 1346.28,245.676 1348.27,247.461 1350.26,249.258 1352.26,251.068 1354.25,252.89 1356.24,254.723 1358.24,256.566 1360.23,258.42 1362.22,260.283 1364.22,262.156 1366.21,264.037 1368.2,265.926 1370.2,267.822 1372.19,269.726 1374.18,271.637 1376.17,273.554 1378.17,275.477 1380.16,277.407 1382.15,279.343 1384.15,281.284 1386.14,283.232 1388.13,285.185 1390.13,287.144 1392.12,289.109 1394.11,291.08 1396.11,293.057 1398.1,295.039 1400.09,297.028 1402.09,299.022 1404.08,301.022 1406.07,303.028 1408.06,305.038 1410.06,307.054 1412.05,309.075 1414.04,311.099 1416.04,313.128 1418.03,315.159 1420.02,317.194 1422.02,319.23 1424.01,321.268 1426,323.307 1428,325.346 1429.99,327.385 1431.98,329.423 1433.98,331.46 1435.97,333.494 1437.96,335.527 1439.96,337.557 1441.95,339.584 1443.94,341.607 1445.93,343.628 1447.93,345.645 1449.92,347.659 1451.91,349.669 1453.91,351.676 1455.9,353.68 1457.89,355.681 1459.89,357.68 1461.88,359.676 1463.87,361.669 1465.87,363.661 1467.86,365.65 1469.85,367.637 1471.85,369.623 1473.84,371.607 1475.83,373.589 1477.82,375.569 1479.82,377.548 1481.81,379.524 1483.8,381.497 1485.8,383.468 1487.79,385.436 1489.78,387.401 1491.78,389.362 1493.77,391.319 1495.76,393.271 1497.76,395.219 1499.75,397.163 1501.74,399.101 1503.74,401.034 1505.73,402.961 1507.72,404.884 1509.72,406.801 1511.71,408.713 1513.7,410.62 1515.69,412.523 1517.69,414.421 1519.68,416.315 1521.67,418.206 1523.67,420.093 1525.66,421.977 1527.65,423.859 1529.65,425.739 1531.64,427.617 1533.63,429.493 1535.63,431.368 1537.62,433.242 1539.61,435.114 1541.61,436.985 1543.6,438.854 1545.59,440.722 1547.59,442.587 1549.58,444.449 1551.57,446.307 1553.56,448.162 1555.56,450.011 1557.55,451.855 1559.54,453.692 1561.54,455.521 1563.53,457.342 1565.52,459.154 1567.52,460.955 1569.51,462.745 1571.5,464.523 1573.5,466.289 1575.49,468.041 1577.48,469.779 1579.48,471.502 1581.47,473.21 1583.46,474.902 1585.45,476.578 1587.45,478.238 1589.44,479.88 1591.43,481.505 1593.43,483.113 1595.42,484.702 1597.41,486.274 1599.41,487.826 1601.4,489.36 1603.39,490.873 1605.39,492.367 1607.38,493.84 1609.37,495.291 1611.37,496.721 1613.36,498.128 1615.35,499.511 1617.35,500.869 1619.34,502.202 1621.33,503.51 1623.32,504.79 1625.32,506.042 1627.31,507.267 1629.3,508.462 1631.3,509.627 1633.29,510.763 1635.28,511.869 1637.28,512.944 1639.27,513.989 1641.26,515.005 1643.26,515.991 1645.25,516.949 1647.24,517.878 1649.24,518.782 1651.23,519.66 1653.22,520.514 1655.21,521.346 1657.21,522.157 1659.2,522.95 1661.19,523.727 1663.19,524.489 1665.18,525.24 1667.17,525.98 1669.17,526.713 1671.16,527.441 1673.15,528.166 1675.15,528.891 1677.14,529.617 1679.13,530.348 1681.13,531.085 1683.12,531.831 1685.11,532.588 1687.11,533.357 1689.1,534.143 1691.09,534.946 1693.08,535.77 1695.08,536.615 1697.07,537.486 1699.06,538.384 1701.06,539.313 1703.05,540.274 1705.04,541.271 1707.04,542.307 1709.03,543.384 1711.02,544.507 1713.02,545.678 1715.01,546.901 1717,548.179 1719,549.515 1720.99,550.915 1722.98,552.38 1724.97,553.916 1726.97,555.524 1728.96,557.21 1730.95,558.975 1732.95,560.825 1734.94,562.76 1736.93,564.785 1738.93,566.901 1740.92,569.112 1742.91,571.419 1744.91,573.823 1746.9,576.327 1748.89,578.932 1750.89,581.638 1752.88,584.445 1754.87,587.354 1756.87,590.366 1758.86,593.479 1760.85,596.692 1762.84,600.006 1764.84,603.42 1766.83,606.931 1768.82,610.539 1770.82,614.242 1772.81,618.04 1774.8,621.929 1776.8,625.91 1778.79,629.979 1780.78,634.135 1782.78,638.377 1784.77,642.701 1786.76,647.107 1788.76,651.593 1790.75,656.155 1792.74,660.791 1794.74,665.5 1796.73,670.278 1798.72,675.122 1800.71,680.029 1802.71,684.996 1804.7,690.018 1806.69,695.091 1808.69,700.211 1810.68,705.373 1812.67,710.571 1814.67,715.8 1816.66,721.054 1818.65,726.325 1820.65,731.609 1822.64,736.896 1824.63,742.18 1826.63,747.454 1828.62,752.709 1830.61,757.937 1832.6,763.131 1834.6,768.282 1836.59,773.381 1838.58,778.422 1840.58,783.396 1842.57,788.295 1844.56,793.111 1846.56,797.838 1848.55,802.469 1850.54,806.997 1852.54,811.417 1854.53,815.721 1856.52,819.906 1858.52,823.967 1860.51,827.899 1862.5,831.699 1864.5,835.365 1866.49,838.892 1868.48,842.28 1870.47,845.527 1872.47,848.632 1874.46,851.594 1876.45,854.414 1878.45,857.093 1880.44,859.63 1882.43,862.029 1884.43,864.29 1886.42,866.417 1888.41,868.412 1890.41,870.278 1892.4,872.019 1894.39,873.638 1896.39,875.141 1898.38,876.532 1900.37,877.815 1902.36,878.996 1904.36,880.079 1906.35,881.071 1908.34,881.977 1910.34,882.801 1912.33,883.551 1914.32,884.23 1916.32,884.845 1918.31,885.4 1920.3,885.9 1922.3,886.349 1924.29,886.752 1926.28,887.112 1928.28,887.431 1930.27,887.712 1932.26,887.956 1934.26,888.165 1936.25,888.338 1938.24,888.475 1940.23,888.575 1942.23,888.636 1944.22,888.654 1946.21,888.627 1948.21,888.55 1950.2,888.419 1952.19,888.23 1954.19,887.977 1956.18,887.654 1958.17,887.256 1960.17,886.778 1962.16,886.214 1964.15,885.56 1966.15,884.811 1968.14,883.964 1970.13,883.016 1972.12,881.963 1974.12,880.806 1976.11,879.545 1978.1,878.179 1980.1,876.712 1982.09,875.147 1984.08,873.489 1986.08,871.744 1988.07,869.919 1990.06,868.021 1992.06,866.062 1994.05,864.05 1996.04,861.996 1998.04,859.914 2000.03,857.813 2002.02,855.709 2004.02,853.612 2006.01,851.535 2008,849.492 2009.99,847.493 2011.99,845.552 2013.98,843.677 2015.97,841.88 2017.97,840.169 2019.96,838.552 2021.95,837.035 2023.95,835.624 2025.94,834.323 2027.93,833.135 2029.93,832.061 2031.92,831.102 2033.91,830.255 2035.91,829.519 2037.9,828.891 2039.89,828.366 2041.89,827.94 2043.88,827.606 2045.87,827.358 2047.86,827.19 2049.86,827.095 2051.85,827.065 2053.84,827.094 2055.84,827.175 2057.83,827.302 2059.82,827.467 2061.82,827.666 2063.81,827.893 2065.8,828.143 2067.8,828.413 2069.79,828.7 2071.78,829 2073.78,829.311 2075.77,829.632 2077.76,829.962 2079.75,830.301 2081.75,830.647 2083.74,831.002 2085.73,831.365 2087.73,831.738 2089.72,832.121 2091.71,832.514 2093.71,832.92 2095.7,833.337 2097.69,833.766 2099.69,834.209 2101.68,834.664 2103.67,835.132 2105.67,835.611 2107.66,836.102 2109.65,836.603 2111.65,837.113 2113.64,837.631 2115.63,838.155 2117.62,838.683 2119.62,839.214 2121.61,839.746 2123.6,840.277 2125.6,840.806 2127.59,841.33 2129.58,841.849 2131.58,842.361 2133.57,842.865 2135.56,843.361 2137.56,843.847 2139.55,844.323 2141.54,844.79 2143.54,845.247 2145.53,845.694 2147.52,846.133 2149.51,846.562 2151.51,846.983 2153.5,847.396 2155.49,847.803 2157.49,848.203 2159.48,848.597 2161.47,848.985 2163.47,849.368 2165.46,849.745 2167.45,850.117 2169.45,850.484 2171.44,850.844 2173.43,851.197 2175.43,851.542 2177.42,851.878 2179.41,852.203 2181.41,852.517 2183.4,852.817 2185.39,853.103 2187.38,853.371 2189.38,853.622 2191.37,853.853 2193.36,854.062 2195.36,854.249 2197.35,854.411 2199.34,854.548 2201.34,854.659 2203.33,854.742 2205.32,854.798 2207.32,854.825 2209.31,854.824 2211.3,854.794 2213.3,854.736 2215.29,854.649 2217.28,854.535 2219.27,854.393 2221.27,854.225 2223.26,854.03 2225.25,853.811 2227.25,853.567 2229.24,853.299 2231.23,853.008 2233.23,852.694 2235.22,852.358 2237.21,852.001 2239.21,851.623 2241.2,851.223 2243.19,850.804 2245.19,850.363 2247.18,849.902 2249.17,849.421 2251.17,848.919 2253.16,848.397 2255.15,847.855 2257.14,847.292 2259.14,846.709 2261.13,846.106 2263.12,845.483 2265.12,844.841 2267.11,844.179 2269.1,843.499 2271.1,842.802 2273.09,842.087 2275.08,841.357 2277.08,840.612 2279.07,839.853 2281.06,839.082 2283.06,838.299 2285.05,837.507 2287.04,836.707 2289.04,835.9 2291.03,835.087 2293.02,834.27 "/>
<polyline clip-path="url(#clip012)" style="stroke:#e26f46; stroke-linecap:round; stroke-linejoin:round; stroke-width:8; stroke-opacity:1; fill:none" points="301.869,694.985 303.862,695.428 305.856,695.877 307.849,696.333 309.842,696.796 311.835,697.266 313.828,697.744 315.821,698.229 317.814,698.721 319.808,699.219 321.801,699.724 323.794,700.234 325.787,700.748 327.78,701.265 329.773,701.785 331.766,702.305 333.76,702.826 335.753,703.346 337.746,703.865 339.739,704.381 341.732,704.894 343.725,705.404 345.718,705.911 347.712,706.414 349.705,706.914 351.698,707.412 353.691,707.907 355.684,708.4 357.677,708.893 359.67,709.386 361.664,709.881 363.657,710.377 365.65,710.877 367.643,711.382 369.636,711.892 371.629,712.408 373.622,712.931 375.616,713.462 377.609,714 379.602,714.547 381.595,715.101 383.588,715.664 385.581,716.234 387.574,716.812 389.568,717.397 391.561,717.987 393.554,718.583 395.547,719.183 397.54,719.786 399.533,720.393 401.526,721.001 403.52,721.61 405.513,722.22 407.506,722.83 409.499,723.44 411.492,724.049 413.485,724.657 415.479,725.266 417.472,725.874 419.465,726.482 421.458,727.092 423.451,727.703 425.444,728.316 427.437,728.933 429.431,729.554 431.424,730.18 433.417,730.813 435.41,731.452 437.403,732.099 439.396,732.754 441.389,733.417 443.383,734.091 445.376,734.773 447.369,735.465 449.362,736.167 451.355,736.878 453.348,737.598 455.341,738.326 457.335,739.063 459.328,739.806 461.321,740.556 463.314,741.312 465.307,742.072 467.3,742.837 469.293,743.605 471.287,744.376 473.28,745.15 475.273,745.926 477.266,746.704 479.259,747.483 481.252,748.265 483.245,749.048 485.239,749.834 487.232,750.623 489.225,751.415 491.218,752.212 493.211,753.013 495.204,753.821 497.197,754.634 499.191,755.455 501.184,756.284 503.177,757.122 505.17,757.97 507.163,758.827 509.156,759.695 511.149,760.573 513.143,761.463 515.136,762.362 517.129,763.273 519.122,764.194 521.115,765.124 523.108,766.065 525.101,767.014 527.095,767.971 529.088,768.935 531.081,769.907 533.074,770.885 535.067,771.868 537.06,772.856 539.054,773.849 541.047,774.846 543.04,775.846 545.033,776.851 547.026,777.859 549.019,778.872 551.012,779.888 553.006,780.91 554.999,781.936 556.992,782.968 558.985,784.007 560.978,785.053 562.971,786.107 564.964,787.169 566.958,788.241 568.951,789.323 570.944,790.415 572.937,791.519 574.93,792.634 576.923,793.761 578.916,794.901 580.91,796.052 582.903,797.215 584.896,798.39 586.889,799.577 588.882,800.774 590.875,801.982 592.868,803.2 594.862,804.428 596.855,805.664 598.848,806.908 600.841,808.16 602.834,809.419 604.827,810.685 606.82,811.957 608.814,813.234 610.807,814.518 612.8,815.808 614.793,817.103 616.786,818.405 618.779,819.713 620.772,821.028 622.766,822.351 624.759,823.682 626.752,825.021 628.745,826.371 630.738,827.73 632.731,829.1 634.724,830.482 636.718,831.876 638.711,833.283 640.704,834.703 642.697,836.136 644.69,837.583 646.683,839.044 648.677,840.518 650.67,842.006 652.663,843.507 654.656,845.021 656.649,846.548 658.642,848.086 660.635,849.636 662.629,851.197 664.622,852.768 666.615,854.349 668.608,855.939 670.601,857.538 672.594,859.146 674.587,860.761 676.581,862.385 678.574,864.017 680.567,865.657 682.56,867.305 684.553,868.962 686.546,870.628 688.539,872.303 690.533,873.988 692.526,875.684 694.519,877.391 696.512,879.11 698.505,880.842 700.498,882.587 702.491,884.346 704.485,886.119 706.478,887.908 708.471,889.711 710.464,891.529 712.457,893.363 714.45,895.213 716.443,897.077 718.437,898.957 720.43,900.852 722.423,902.761 724.416,904.684 726.409,906.621 728.402,908.57 730.395,910.532 732.389,912.505 734.382,914.49 736.375,916.486 738.368,918.492 740.361,920.508 742.354,922.534 744.347,924.57 746.341,926.617 748.334,928.673 750.327,930.739 752.32,932.816 754.313,934.904 756.306,937.003 758.299,939.114 760.293,941.238 762.286,943.375 764.279,945.526 766.272,947.691 768.265,949.871 770.258,952.067 772.252,954.278 774.245,956.505 776.238,958.749 778.231,961.008 780.224,963.285 782.217,965.577 784.21,967.885 786.204,970.209 788.197,972.548 790.19,974.902 792.183,977.27 794.176,979.651 796.169,982.046 798.162,984.452 800.156,986.871 802.149,989.301 804.142,991.742 806.135,994.193 808.128,996.655 810.121,999.126 812.114,1001.61 814.108,1004.1 816.101,1006.6 818.094,1009.11 820.087,1011.63 822.08,1014.16 824.073,1016.71 826.066,1019.26 828.06,1021.83 830.053,1024.41 832.046,1027 834.039,1029.6 836.032,1032.22 838.025,1034.85 840.018,1037.5 842.012,1040.16 844.005,1042.84 845.998,1045.53 847.991,1048.23 849.984,1050.94 851.977,1053.67 853.97,1056.42 855.964,1059.17 857.957,1061.94 859.95,1064.71 861.943,1067.5 863.936,1070.29 865.929,1073.1 867.922,1075.91 869.916,1078.72 871.909,1081.55 873.902,1084.38 875.895,1087.21 877.888,1090.06 879.881,1092.9 881.874,1095.75 883.868,1098.61 885.861,1101.47 887.854,1104.34 889.847,1107.21 891.84,1110.08 893.833,1112.96 895.827,1115.85 897.82,1118.75 899.813,1121.65 901.806,1124.56 903.799,1127.47 905.792,1130.39 907.785,1133.32 909.779,1136.25 911.772,1139.19 913.765,1142.14 915.758,1145.09 917.751,1148.04 919.744,1151 921.737,1153.96 923.731,1156.93 925.724,1159.9 927.717,1162.86 929.71,1165.83 931.703,1168.79 933.696,1171.76 935.689,1174.72 937.683,1177.67 939.676,1180.63 941.669,1183.57 943.662,1186.51 945.655,1189.45 947.648,1192.37 949.641,1195.3 951.635,1198.21 953.628,1201.12 955.621,1204.02 957.614,1206.91 959.607,1209.8 961.6,1212.68 963.593,1215.55 965.587,1218.41 967.58,1221.27 969.573,1224.12 971.566,1226.97 973.559,1229.81 975.552,1232.64 977.545,1235.46 979.539,1238.28 981.532,1241.08 983.525,1243.88 985.518,1246.66 987.511,1249.44 989.504,1252.2 991.497,1254.94 993.491,1257.68 995.484,1260.4 997.477,1263.1 999.47,1265.78 1001.46,1268.45 1003.46,1271.1 1005.45,1273.72 1007.44,1276.33 1009.44,1278.91 1011.43,1281.47 1013.42,1284.01 1015.42,1286.53 1017.41,1289.03 1019.4,1291.5 1021.39,1293.94 1023.39,1296.37 1025.38,1298.77 1027.37,1301.14 1029.37,1303.5 1031.36,1305.83 1033.35,1308.13 1035.35,1310.42 1037.34,1312.68 1039.33,1314.91 1041.33,1317.13 1043.32,1319.32 1045.31,1321.48 1047.31,1323.62 1049.3,1325.73 1051.29,1327.82 1053.28,1329.87 1055.28,1331.9 1057.27,1333.91 1059.26,1335.88 1061.26,1337.82 1063.25,1339.72 1065.24,1341.6 1067.24,1343.44 1069.23,1345.24 1071.22,1347.01 1073.22,1348.74 1075.21,1350.44 1077.2,1352.1 1079.2,1353.72 1081.19,1355.3 1083.18,1356.85 1085.18,1358.36 1087.17,1359.82 1089.16,1361.25 1091.15,1362.65 1093.15,1364 1095.14,1365.32 1097.13,1366.6 1099.13,1367.84 1101.12,1369.05 1103.11,1370.22 1105.11,1371.35 1107.1,1372.45 1109.09,1373.5 1111.09,1374.52 1113.08,1375.51 1115.07,1376.45 1117.07,1377.36 1119.06,1378.22 1121.05,1379.05 1123.05,1379.84 1125.04,1380.58 1127.03,1381.28 1129.02,1381.94 1131.02,1382.56 1133.01,1383.13 1135,1383.66 1137,1384.14 1138.99,1384.58 1140.98,1384.96 1142.98,1385.31 1144.97,1385.6 1146.96,1385.85 1148.96,1386.05 1150.95,1386.21 1152.94,1386.32 1154.94,1386.38 1156.93,1386.4 1158.92,1386.37 1160.91,1386.29 1162.91,1386.18 1164.9,1386.02 1166.89,1385.81 1168.89,1385.56 1170.88,1385.27 1172.87,1384.94 1174.87,1384.56 1176.86,1384.14 1178.85,1383.68 1180.85,1383.18 1182.84,1382.63 1184.83,1382.04 1186.83,1381.41 1188.82,1380.73 1190.81,1380.01 1192.81,1379.24 1194.8,1378.43 1196.79,1377.57 1198.78,1376.67 1200.78,1375.72 1202.77,1374.72 1204.76,1373.67 1206.76,1372.58 1208.75,1371.43 1210.74,1370.24 1212.74,1369 1214.73,1367.72 1216.72,1366.39 1218.72,1365.01 1220.71,1363.59 1222.7,1362.12 1224.7,1360.6 1226.69,1359.05 1228.68,1357.45 1230.67,1355.8 1232.67,1354.12 1234.66,1352.39 1236.65,1350.63 1238.65,1348.82 1240.64,1346.97 1242.63,1345.09 1244.63,1343.17 1246.62,1341.2 1248.61,1339.2 1250.61,1337.16 1252.6,1335.08 1254.59,1332.96 1256.59,1330.8 1258.58,1328.6 1260.57,1326.36 1262.57,1324.08 1264.56,1321.76 1266.55,1319.4 1268.54,1316.99 1270.54,1314.55 1272.53,1312.06 1274.52,1309.53 1276.52,1306.96 1278.51,1304.35 1280.5,1301.7 1282.5,1299.01 1284.49,1296.28 1286.48,1293.51 1288.48,1290.7 1290.47,1287.86 1292.46,1284.98 1294.46,1282.07 1296.45,1279.12 1298.44,1276.14 1300.44,1273.12 1302.43,1270.08 1304.42,1267 1306.41,1263.9 1308.41,1260.76 1310.4,1257.59 1312.39,1254.4 1314.39,1251.17 1316.38,1247.92 1318.37,1244.64 1320.37,1241.33 1322.36,1237.98 1324.35,1234.61 1326.35,1231.21 1328.34,1227.78 1330.33,1224.32 1332.33,1220.83 1334.32,1217.3 1336.31,1213.75 1338.3,1210.16 1340.3,1206.55 1342.29,1202.9 1344.28,1199.23 1346.28,1195.52 1348.27,1191.79 1350.26,1188.03 1352.26,1184.24 1354.25,1180.42 1356.24,1176.58 1358.24,1172.72 1360.23,1168.83 1362.22,1164.92 1364.22,1160.99 1366.21,1157.04 1368.2,1153.07 1370.2,1149.08 1372.19,1145.07 1374.18,1141.05 1376.17,1137.01 1378.17,1132.96 1380.16,1128.89 1382.15,1124.8 1384.15,1120.7 1386.14,1116.58 1388.13,1112.45 1390.13,1108.31 1392.12,1104.14 1394.11,1099.97 1396.11,1095.77 1398.1,1091.56 1400.09,1087.34 1402.09,1083.1 1404.08,1078.85 1406.07,1074.58 1408.06,1070.29 1410.06,1066 1412.05,1061.69 1414.04,1057.36 1416.04,1053.03 1418.03,1048.69 1420.02,1044.34 1422.02,1039.98 1424.01,1035.61 1426,1031.24 1428,1026.87 1429.99,1022.49 1431.98,1018.12 1433.98,1013.74 1435.97,1009.36 1437.96,1004.99 1439.96,1000.62 1441.95,996.252 1443.94,991.89 1445.93,987.532 1447.93,983.179 1449.92,978.832 1451.91,974.489 1453.91,970.151 1455.9,965.818 1457.89,961.49 1459.89,957.166 1461.88,952.846 1463.87,948.53 1465.87,944.217 1467.86,939.908 1469.85,935.601 1471.85,931.298 1473.84,926.998 1475.83,922.701 1477.82,918.408 1479.82,914.118 1481.81,909.833 1483.8,905.554 1485.8,901.279 1487.79,897.012 1489.78,892.751 1491.78,888.498 1493.77,884.254 1495.76,880.019 1497.76,875.795 1499.75,871.58 1501.74,867.377 1503.74,863.185 1505.73,859.004 1507.72,854.835 1509.72,850.677 1511.71,846.53 1513.7,842.394 1515.69,838.268 1517.69,834.152 1519.68,830.044 1521.67,825.944 1523.67,821.851 1525.66,817.765 1527.65,813.684 1529.65,809.607 1531.64,805.535 1533.63,801.466 1535.63,797.399 1537.62,793.336 1539.61,789.275 1541.61,785.217 1543.6,781.161 1545.59,777.11 1547.59,773.063 1549.58,769.021 1551.57,764.985 1553.56,760.958 1555.56,756.939 1557.55,752.931 1559.54,748.936 1561.54,744.955 1563.53,740.99 1565.52,737.042 1567.52,733.114 1569.51,729.207 1571.5,725.323 1573.5,721.464 1575.49,717.63 1577.48,713.823 1579.48,710.045 1581.47,706.296 1583.46,702.579 1585.45,698.892 1587.45,695.239 1589.44,691.619 1591.43,688.034 1593.43,684.484 1595.42,680.971 1597.41,677.496 1599.41,674.06 1601.4,670.663 1603.39,667.309 1605.39,663.997 1607.38,660.731 1609.37,657.512 1611.37,654.342 1613.36,651.223 1615.35,648.158 1617.35,645.15 1619.34,642.2 1621.33,639.312 1623.32,636.488 1625.32,633.731 1627.31,631.043 1629.3,628.427 1631.3,625.885 1633.29,623.418 1635.28,621.03 1637.28,618.721 1639.27,616.492 1641.26,614.346 1643.26,612.281 1645.25,610.299 1647.24,608.4 1649.24,606.583 1651.23,604.848 1653.22,603.193 1655.21,601.618 1657.21,600.121 1659.2,598.701 1661.19,597.356 1663.19,596.084 1665.18,594.883 1667.17,593.752 1669.17,592.688 1671.16,591.69 1673.15,590.756 1675.15,589.884 1677.14,589.073 1679.13,588.32 1681.13,587.625 1683.12,586.986 1685.11,586.402 1687.11,585.871 1689.1,585.393 1691.09,584.965 1693.08,584.586 1695.08,584.256 1697.07,583.972 1699.06,583.732 1701.06,583.535 1703.05,583.378 1705.04,583.26 1707.04,583.176 1709.03,583.126 1711.02,583.104 1713.02,583.109 1715.01,583.136 1717,583.182 1719,583.242 1720.99,583.312 1722.98,583.389 1724.97,583.468 1726.97,583.545 1728.96,583.615 1730.95,583.675 1732.95,583.721 1734.94,583.75 1736.93,583.758 1738.93,583.741 1740.92,583.699 1742.91,583.627 1744.91,583.525 1746.9,583.39 1748.89,583.221 1750.89,583.019 1752.88,582.781 1754.87,582.507 1756.87,582.199 1758.86,581.855 1760.85,581.477 1762.84,581.064 1764.84,580.617 1766.83,580.136 1768.82,579.623 1770.82,579.077 1772.81,578.498 1774.8,577.887 1776.8,577.244 1778.79,576.569 1780.78,575.86 1782.78,575.118 1784.77,574.342 1786.76,573.531 1788.76,572.685 1790.75,571.802 1792.74,570.883 1794.74,569.926 1796.73,568.93 1798.72,567.896 1800.71,566.824 1802.71,565.713 1804.7,564.564 1806.69,563.379 1808.69,562.157 1810.68,560.902 1812.67,559.615 1814.67,558.297 1816.66,556.953 1818.65,555.585 1820.65,554.196 1822.64,552.79 1824.63,551.371 1826.63,549.942 1828.62,548.507 1830.61,547.069 1832.6,545.634 1834.6,544.203 1836.59,542.78 1838.58,541.369 1840.58,539.971 1842.57,538.59 1844.56,537.226 1846.56,535.882 1848.55,534.558 1850.54,533.256 1852.54,531.975 1854.53,530.717 1856.52,529.48 1858.52,528.265 1860.51,527.071 1862.5,525.897 1864.5,524.744 1866.49,523.61 1868.48,522.495 1870.47,521.399 1872.47,520.322 1874.46,519.265 1876.45,518.227 1878.45,517.211 1880.44,516.216 1882.43,515.245 1884.43,514.299 1886.42,513.381 1888.41,512.492 1890.41,511.634 1892.4,510.81 1894.39,510.022 1896.39,509.273 1898.38,508.564 1900.37,507.898 1902.36,507.275 1904.36,506.698 1906.35,506.167 1908.34,505.684 1910.34,505.247 1912.33,504.858 1914.32,504.516 1916.32,504.222 1918.31,503.973 1920.3,503.77 1922.3,503.612 1924.29,503.499 1926.28,503.43 1928.28,503.406 1930.27,503.428 1932.26,503.496 1934.26,503.615 1936.25,503.785 1938.24,504.013 1940.23,504.301 1942.23,504.657 1944.22,505.088 1946.21,505.601 1948.21,506.206 1950.2,506.913 1952.19,507.731 1954.19,508.672 1956.18,509.747 1958.17,510.968 1960.17,512.347 1962.16,513.894 1964.15,515.62 1966.15,517.535 1968.14,519.647 1970.13,521.964 1972.12,524.49 1974.12,527.231 1976.11,530.186 1978.1,533.356 1980.1,536.738 1982.09,540.326 1984.08,544.111 1986.08,548.084 1988.07,552.232 1990.06,556.539 1992.06,560.987 1994.05,565.558 1996.04,570.229 1998.04,574.979 2000.03,579.783 2002.02,584.616 2004.02,589.453 2006.01,594.269 2008,599.038 2009.99,603.737 2011.99,608.341 2013.98,612.828 2015.97,617.177 2017.97,621.371 2019.96,625.392 2021.95,629.227 2023.95,632.863 2025.94,636.291 2027.93,639.506 2029.93,642.504 2031.92,645.283 2033.91,647.845 2035.91,650.193 2037.9,652.335 2039.89,654.277 2041.89,656.029 2043.88,657.602 2045.87,659.009 2047.86,660.263 2049.86,661.377 2051.85,662.365 2053.84,663.241 2055.84,664.019 2057.83,664.712 2059.82,665.332 2061.82,665.89 2063.81,666.396 2065.8,666.861 2067.8,667.291 2069.79,667.693 2071.78,668.073 2073.78,668.434 2075.77,668.78 2077.76,669.111 2079.75,669.43 2081.75,669.736 2083.74,670.028 2085.73,670.305 2087.73,670.565 2089.72,670.807 2091.71,671.029 2093.71,671.23 2095.7,671.407 2097.69,671.56 2099.69,671.688 2101.68,671.791 2103.67,671.869 2105.67,671.922 2107.66,671.953 2109.65,671.962 2111.65,671.953 2113.64,671.928 2115.63,671.89 2117.62,671.843 2119.62,671.788 2121.61,671.731 2123.6,671.674 2125.6,671.62 2127.59,671.573 2129.58,671.534 2131.58,671.506 2133.57,671.49 2135.56,671.488 2137.56,671.5 2139.55,671.526 2141.54,671.567 2143.54,671.621 2145.53,671.686 2147.52,671.763 2149.51,671.847 2151.51,671.939 2153.5,672.035 2155.49,672.133 2157.49,672.231 2159.48,672.327 2161.47,672.419 2163.47,672.506 2165.46,672.586 2167.45,672.659 2169.45,672.724 2171.44,672.782 2173.43,672.831 2175.43,672.874 2177.42,672.911 2179.41,672.943 2181.41,672.973 2183.4,673.002 2185.39,673.033 2187.38,673.067 2189.38,673.107 2191.37,673.155 2193.36,673.213 2195.36,673.282 2197.35,673.365 2199.34,673.462 2201.34,673.575 2203.33,673.703 2205.32,673.849 2207.32,674.01 2209.31,674.188 2211.3,674.381 2213.3,674.589 2215.29,674.809 2217.28,675.041 2219.27,675.284 2221.27,675.534 2223.26,675.792 2225.25,676.055 2227.25,676.322 2229.24,676.591 2231.23,676.862 2233.23,677.133 2235.22,677.404 2237.21,677.675 2239.21,677.945 2241.2,678.214 2243.19,678.484 2245.19,678.754 2247.18,679.026 2249.17,679.301 2251.17,679.579 2253.16,679.863 2255.15,680.154 2257.14,680.452 2259.14,680.76 2261.13,681.078 2263.12,681.407 2265.12,681.748 2267.11,682.102 2269.1,682.468 2271.1,682.848 2273.09,683.24 2275.08,683.644 2277.08,684.059 2279.07,684.485 2281.06,684.92 2283.06,685.363 2285.05,685.813 2287.04,686.267 2289.04,686.726 2291.03,687.186 2293.02,687.647 "/>
<path clip-path="url(#clip010)" d="M1928.03 322.316 L2282.4 322.316 L2282.4 166.796 L1928.03 166.796  Z" fill="#ffffff" fill-rule="evenodd" fill-opacity="1"/>
<polyline clip-path="url(#clip010)" style="stroke:#000000; stroke-linecap:round; stroke-linejoin:round; stroke-width:4; stroke-opacity:1; fill:none" points="1928.03,322.316 2282.4,322.316 2282.4,166.796 1928.03,166.796 1928.03,322.316 "/>
<polyline clip-path="url(#clip010)" style="stroke:#009af9; stroke-linecap:round; stroke-linejoin:round; stroke-width:8; stroke-opacity:1; fill:none" points="1951.48,218.636 2092.19,218.636 "/>
<path clip-path="url(#clip010)" d="M2115.64 201.356 L2120.32 201.356 L2120.32 235.916 L2115.64 235.916 L2115.64 201.356 Z" fill="#000000" fill-rule="nonzero" fill-opacity="1" /><path clip-path="url(#clip010)" d="M2134.3 205.198 L2134.3 218.184 L2140.18 218.184 Q2143.44 218.184 2145.22 216.495 Q2147.01 214.805 2147.01 211.68 Q2147.01 208.578 2145.22 206.888 Q2143.44 205.198 2140.18 205.198 L2134.3 205.198 M2129.62 201.356 L2140.18 201.356 Q2145.99 201.356 2148.95 203.995 Q2151.94 206.61 2151.94 211.68 Q2151.94 216.795 2148.95 219.411 Q2145.99 222.027 2140.18 222.027 L2134.3 222.027 L2134.3 235.916 L2129.62 235.916 L2129.62 201.356 Z" fill="#000000" fill-rule="nonzero" fill-opacity="1" /><path clip-path="url(#clip010)" d="M2174.6 219.712 Q2176.1 220.221 2177.52 221.888 Q2178.95 223.555 2180.39 226.471 L2185.13 235.916 L2180.11 235.916 L2175.69 227.05 Q2173.97 223.578 2172.35 222.444 Q2170.76 221.309 2167.98 221.309 L2162.89 221.309 L2162.89 235.916 L2158.21 235.916 L2158.21 201.356 L2168.77 201.356 Q2174.69 201.356 2177.61 203.833 Q2180.53 206.309 2180.53 211.309 Q2180.53 214.573 2179 216.726 Q2177.49 218.879 2174.6 219.712 M2162.89 205.198 L2162.89 217.467 L2168.77 217.467 Q2172.15 217.467 2173.86 215.916 Q2175.59 214.342 2175.59 211.309 Q2175.59 208.277 2173.86 206.749 Q2172.15 205.198 2168.77 205.198 L2162.89 205.198 Z" fill="#000000" fill-rule="nonzero" fill-opacity="1" /><path clip-path="url(#clip010)" d="M2214.67 204.018 L2214.67 208.948 Q2212.31 206.749 2209.62 205.661 Q2206.96 204.573 2203.95 204.573 Q2198.02 204.573 2194.88 208.208 Q2191.73 211.819 2191.73 218.67 Q2191.73 225.499 2194.88 229.133 Q2198.02 232.744 2203.95 232.744 Q2206.96 232.744 2209.62 231.656 Q2212.31 230.569 2214.67 228.369 L2214.67 233.254 Q2212.21 234.92 2209.46 235.754 Q2206.73 236.587 2203.67 236.587 Q2195.83 236.587 2191.31 231.795 Q2186.8 226.981 2186.8 218.67 Q2186.8 210.337 2191.31 205.546 Q2195.83 200.731 2203.67 200.731 Q2206.77 200.731 2209.51 201.564 Q2212.26 202.374 2214.67 204.018 Z" fill="#000000" fill-rule="nonzero" fill-opacity="1" /><path clip-path="url(#clip010)" d="M2258.33 209.99 L2248.95 222.606 L2258.81 235.916 L2253.79 235.916 L2246.24 225.731 L2238.7 235.916 L2233.67 235.916 L2243.74 222.351 L2234.53 209.99 L2239.55 209.99 L2246.43 219.226 L2253.3 209.99 L2258.33 209.99 Z" fill="#000000" fill-rule="nonzero" fill-opacity="1" /><polyline clip-path="url(#clip010)" style="stroke:#e26f46; stroke-linecap:round; stroke-linejoin:round; stroke-width:8; stroke-opacity:1; fill:none" points="1951.48,270.476 2092.19,270.476 "/>
<path clip-path="url(#clip010)" d="M2115.64 253.196 L2120.32 253.196 L2120.32 287.756 L2115.64 287.756 L2115.64 253.196 Z" fill="#000000" fill-rule="nonzero" fill-opacity="1" /><path clip-path="url(#clip010)" d="M2134.3 257.038 L2134.3 270.024 L2140.18 270.024 Q2143.44 270.024 2145.22 268.335 Q2147.01 266.645 2147.01 263.52 Q2147.01 260.418 2145.22 258.728 Q2143.44 257.038 2140.18 257.038 L2134.3 257.038 M2129.62 253.196 L2140.18 253.196 Q2145.99 253.196 2148.95 255.835 Q2151.94 258.45 2151.94 263.52 Q2151.94 268.635 2148.95 271.251 Q2145.99 273.867 2140.18 273.867 L2134.3 273.867 L2134.3 287.756 L2129.62 287.756 L2129.62 253.196 Z" fill="#000000" fill-rule="nonzero" fill-opacity="1" /><path clip-path="url(#clip010)" d="M2174.6 271.552 Q2176.1 272.061 2177.52 273.728 Q2178.95 275.395 2180.39 278.311 L2185.13 287.756 L2180.11 287.756 L2175.69 278.89 Q2173.97 275.418 2172.35 274.284 Q2170.76 273.149 2167.98 273.149 L2162.89 273.149 L2162.89 287.756 L2158.21 287.756 L2158.21 253.196 L2168.77 253.196 Q2174.69 253.196 2177.61 255.673 Q2180.53 258.149 2180.53 263.149 Q2180.53 266.413 2179 268.566 Q2177.49 270.719 2174.6 271.552 M2162.89 257.038 L2162.89 269.307 L2168.77 269.307 Q2172.15 269.307 2173.86 267.756 Q2175.59 266.182 2175.59 263.149 Q2175.59 260.117 2173.86 258.589 Q2172.15 257.038 2168.77 257.038 L2162.89 257.038 Z" fill="#000000" fill-rule="nonzero" fill-opacity="1" /><path clip-path="url(#clip010)" d="M2214.67 255.858 L2214.67 260.788 Q2212.31 258.589 2209.62 257.501 Q2206.96 256.413 2203.95 256.413 Q2198.02 256.413 2194.88 260.048 Q2191.73 263.659 2191.73 270.51 Q2191.73 277.339 2194.88 280.973 Q2198.02 284.584 2203.95 284.584 Q2206.96 284.584 2209.62 283.496 Q2212.31 282.409 2214.67 280.209 L2214.67 285.094 Q2212.21 286.76 2209.46 287.594 Q2206.73 288.427 2203.67 288.427 Q2195.83 288.427 2191.31 283.635 Q2186.8 278.821 2186.8 270.51 Q2186.8 262.177 2191.31 257.386 Q2195.83 252.571 2203.67 252.571 Q2206.77 252.571 2209.51 253.404 Q2212.26 254.214 2214.67 255.858 Z" fill="#000000" fill-rule="nonzero" fill-opacity="1" /><path clip-path="url(#clip010)" d="M2247.56 290.163 Q2245.76 294.793 2244.04 296.205 Q2242.33 297.617 2239.46 297.617 L2236.06 297.617 L2236.06 294.052 L2238.56 294.052 Q2240.32 294.052 2241.29 293.219 Q2242.26 292.385 2243.44 289.283 L2244.21 287.339 L2233.72 261.83 L2238.23 261.83 L2246.33 282.108 L2254.44 261.83 L2258.95 261.83 L2247.56 290.163 Z" fill="#000000" fill-rule="nonzero" fill-opacity="1" /></svg>
