<?xml version="1.0" encoding="utf-8"?>
<svg xmlns="http://www.w3.org/2000/svg" xmlns:xlink="http://www.w3.org/1999/xlink" width="600" height="400" viewBox="0 0 2400 1600">
<defs>
  <clipPath id="clip040">
    <rect x="0" y="0" width="2400" height="1600"/>
  </clipPath>
</defs>
<path clip-path="url(#clip040)" d="M0 1600 L2400 1600 L2400 0 L0 0  Z" fill="#ffffff" fill-rule="evenodd" fill-opacity="1"/>
<defs>
  <clipPath id="clip041">
    <rect x="242" y="123" width="2112" height="1301"/>
  </clipPath>
</defs>
<path clip-path="url(#clip040)" d="M242.135 1423.18 L2352.76 1423.18 L2352.76 123.472 L242.135 123.472  Z" fill="#ffffff" fill-rule="evenodd" fill-opacity="1"/>
<polyline clip-path="url(#clip041)" style="stroke:#000000; stroke-linecap:round; stroke-linejoin:round; stroke-width:2; stroke-opacity:0.1; fill:none" points="330.895,1423.18 330.895,123.472 "/>
<polyline clip-path="url(#clip041)" style="stroke:#000000; stroke-linecap:round; stroke-linejoin:round; stroke-width:2; stroke-opacity:0.1; fill:none" points="653.078,1423.18 653.078,123.472 "/>
<polyline clip-path="url(#clip041)" style="stroke:#000000; stroke-linecap:round; stroke-linejoin:round; stroke-width:2; stroke-opacity:0.1; fill:none" points="975.262,1423.18 975.262,123.472 "/>
<polyline clip-path="url(#clip041)" style="stroke:#000000; stroke-linecap:round; stroke-linejoin:round; stroke-width:2; stroke-opacity:0.1; fill:none" points="1297.45,1423.18 1297.45,123.472 "/>
<polyline clip-path="url(#clip041)" style="stroke:#000000; stroke-linecap:round; stroke-linejoin:round; stroke-width:2; stroke-opacity:0.1; fill:none" points="1619.63,1423.18 1619.63,123.472 "/>
<polyline clip-path="url(#clip041)" style="stroke:#000000; stroke-linecap:round; stroke-linejoin:round; stroke-width:2; stroke-opacity:0.1; fill:none" points="1941.81,1423.18 1941.81,123.472 "/>
<polyline clip-path="url(#clip041)" style="stroke:#000000; stroke-linecap:round; stroke-linejoin:round; stroke-width:2; stroke-opacity:0.1; fill:none" points="2264,1423.18 2264,123.472 "/>
<polyline clip-path="url(#clip041)" style="stroke:#000000; stroke-linecap:round; stroke-linejoin:round; stroke-width:2; stroke-opacity:0.1; fill:none" points="242.135,1277.75 2352.76,1277.75 "/>
<polyline clip-path="url(#clip041)" style="stroke:#000000; stroke-linecap:round; stroke-linejoin:round; stroke-width:2; stroke-opacity:0.1; fill:none" points="242.135,1098.36 2352.76,1098.36 "/>
<polyline clip-path="url(#clip041)" style="stroke:#000000; stroke-linecap:round; stroke-linejoin:round; stroke-width:2; stroke-opacity:0.1; fill:none" points="242.135,918.966 2352.76,918.966 "/>
<polyline clip-path="url(#clip041)" style="stroke:#000000; stroke-linecap:round; stroke-linejoin:round; stroke-width:2; stroke-opacity:0.1; fill:none" points="242.135,739.572 2352.76,739.572 "/>
<polyline clip-path="url(#clip041)" style="stroke:#000000; stroke-linecap:round; stroke-linejoin:round; stroke-width:2; stroke-opacity:0.1; fill:none" points="242.135,560.177 2352.76,560.177 "/>
<polyline clip-path="url(#clip041)" style="stroke:#000000; stroke-linecap:round; stroke-linejoin:round; stroke-width:2; stroke-opacity:0.1; fill:none" points="242.135,380.783 2352.76,380.783 "/>
<polyline clip-path="url(#clip041)" style="stroke:#000000; stroke-linecap:round; stroke-linejoin:round; stroke-width:2; stroke-opacity:0.1; fill:none" points="242.135,201.389 2352.76,201.389 "/>
<polyline clip-path="url(#clip040)" style="stroke:#000000; stroke-linecap:round; stroke-linejoin:round; stroke-width:4; stroke-opacity:1; fill:none" points="242.135,1423.18 2352.76,1423.18 "/>
<polyline clip-path="url(#clip040)" style="stroke:#000000; stroke-linecap:round; stroke-linejoin:round; stroke-width:4; stroke-opacity:1; fill:none" points="330.895,1423.18 330.895,1404.28 "/>
<polyline clip-path="url(#clip040)" style="stroke:#000000; stroke-linecap:round; stroke-linejoin:round; stroke-width:4; stroke-opacity:1; fill:none" points="653.078,1423.18 653.078,1404.28 "/>
<polyline clip-path="url(#clip040)" style="stroke:#000000; stroke-linecap:round; stroke-linejoin:round; stroke-width:4; stroke-opacity:1; fill:none" points="975.262,1423.18 975.262,1404.28 "/>
<polyline clip-path="url(#clip040)" style="stroke:#000000; stroke-linecap:round; stroke-linejoin:round; stroke-width:4; stroke-opacity:1; fill:none" points="1297.45,1423.18 1297.45,1404.28 "/>
<polyline clip-path="url(#clip040)" style="stroke:#000000; stroke-linecap:round; stroke-linejoin:round; stroke-width:4; stroke-opacity:1; fill:none" points="1619.63,1423.18 1619.63,1404.28 "/>
<polyline clip-path="url(#clip040)" style="stroke:#000000; stroke-linecap:round; stroke-linejoin:round; stroke-width:4; stroke-opacity:1; fill:none" points="1941.81,1423.18 1941.81,1404.28 "/>
<polyline clip-path="url(#clip040)" style="stroke:#000000; stroke-linecap:round; stroke-linejoin:round; stroke-width:4; stroke-opacity:1; fill:none" points="2264,1423.18 2264,1404.28 "/>
<path clip-path="url(#clip040)" d="M300.363 1468.75 L330.039 1468.75 L330.039 1472.69 L300.363 1472.69 L300.363 1468.75 Z" fill="#000000" fill-rule="nonzero" fill-opacity="1" /><path clip-path="url(#clip040)" d="M354.298 1466.95 Q357.654 1467.66 359.529 1469.93 Q361.427 1472.2 361.427 1475.53 Q361.427 1480.65 357.909 1483.45 Q354.39 1486.25 347.909 1486.25 Q345.733 1486.25 343.418 1485.81 Q341.127 1485.39 338.673 1484.54 L338.673 1480.02 Q340.617 1481.16 342.932 1481.74 Q345.247 1482.32 347.77 1482.32 Q352.168 1482.32 354.46 1480.58 Q356.775 1478.84 356.775 1475.53 Q356.775 1472.48 354.622 1470.77 Q352.492 1469.03 348.673 1469.03 L344.645 1469.03 L344.645 1465.19 L348.858 1465.19 Q352.307 1465.19 354.136 1463.82 Q355.964 1462.43 355.964 1459.84 Q355.964 1457.18 354.066 1455.77 Q352.191 1454.33 348.673 1454.33 Q346.751 1454.33 344.552 1454.75 Q342.353 1455.16 339.714 1456.04 L339.714 1451.88 Q342.377 1451.14 344.691 1450.77 Q347.029 1450.39 349.089 1450.39 Q354.413 1450.39 357.515 1452.83 Q360.617 1455.23 360.617 1459.35 Q360.617 1462.22 358.974 1464.21 Q357.33 1466.18 354.298 1466.95 Z" fill="#000000" fill-rule="nonzero" fill-opacity="1" /><path clip-path="url(#clip040)" d="M623.021 1468.75 L652.697 1468.75 L652.697 1472.69 L623.021 1472.69 L623.021 1468.75 Z" fill="#000000" fill-rule="nonzero" fill-opacity="1" /><path clip-path="url(#clip040)" d="M666.817 1481.64 L683.136 1481.64 L683.136 1485.58 L661.192 1485.58 L661.192 1481.64 Q663.854 1478.89 668.437 1474.26 Q673.044 1469.61 674.224 1468.27 Q676.47 1465.74 677.349 1464.01 Q678.252 1462.25 678.252 1460.56 Q678.252 1457.8 676.308 1456.07 Q674.386 1454.33 671.284 1454.33 Q669.085 1454.33 666.632 1455.09 Q664.201 1455.86 661.423 1457.41 L661.423 1452.69 Q664.247 1451.55 666.701 1450.97 Q669.155 1450.39 671.192 1450.39 Q676.562 1450.39 679.757 1453.08 Q682.951 1455.77 682.951 1460.26 Q682.951 1462.39 682.141 1464.31 Q681.354 1466.2 679.247 1468.8 Q678.669 1469.47 675.567 1472.69 Q672.465 1475.88 666.817 1481.64 Z" fill="#000000" fill-rule="nonzero" fill-opacity="1" /><path clip-path="url(#clip040)" d="M945.019 1468.75 L974.695 1468.75 L974.695 1472.69 L945.019 1472.69 L945.019 1468.75 Z" fill="#000000" fill-rule="nonzero" fill-opacity="1" /><path clip-path="url(#clip040)" d="M985.597 1481.64 L993.236 1481.64 L993.236 1455.28 L984.926 1456.95 L984.926 1452.69 L993.19 1451.02 L997.866 1451.02 L997.866 1481.64 L1005.5 1481.64 L1005.5 1485.58 L985.597 1485.58 L985.597 1481.64 Z" fill="#000000" fill-rule="nonzero" fill-opacity="1" /><path clip-path="url(#clip040)" d="M1297.45 1454.1 Q1293.83 1454.1 1292.01 1457.66 Q1290.2 1461.2 1290.2 1468.33 Q1290.2 1475.44 1292.01 1479.01 Q1293.83 1482.55 1297.45 1482.55 Q1301.08 1482.55 1302.89 1479.01 Q1304.71 1475.44 1304.71 1468.33 Q1304.71 1461.2 1302.89 1457.66 Q1301.08 1454.1 1297.45 1454.1 M1297.45 1450.39 Q1303.26 1450.39 1306.31 1455 Q1309.39 1459.58 1309.39 1468.33 Q1309.39 1477.06 1306.31 1481.67 Q1303.26 1486.25 1297.45 1486.25 Q1291.64 1486.25 1288.56 1481.67 Q1285.5 1477.06 1285.5 1468.33 Q1285.5 1459.58 1288.56 1455 Q1291.64 1450.39 1297.45 1450.39 Z" fill="#000000" fill-rule="nonzero" fill-opacity="1" /><path clip-path="url(#clip040)" d="M1610.01 1481.64 L1617.65 1481.64 L1617.65 1455.28 L1609.34 1456.95 L1609.34 1452.69 L1617.6 1451.02 L1622.28 1451.02 L1622.28 1481.64 L1629.92 1481.64 L1629.92 1485.58 L1610.01 1485.58 L1610.01 1481.64 Z" fill="#000000" fill-rule="nonzero" fill-opacity="1" /><path clip-path="url(#clip040)" d="M1936.46 1481.64 L1952.78 1481.64 L1952.78 1485.58 L1930.84 1485.58 L1930.84 1481.64 Q1933.5 1478.89 1938.09 1474.26 Q1942.69 1469.61 1943.87 1468.27 Q1946.12 1465.74 1947 1464.01 Q1947.9 1462.25 1947.9 1460.56 Q1947.9 1457.8 1945.96 1456.07 Q1944.03 1454.33 1940.93 1454.33 Q1938.73 1454.33 1936.28 1455.09 Q1933.85 1455.86 1931.07 1457.41 L1931.07 1452.69 Q1933.9 1451.55 1936.35 1450.97 Q1938.8 1450.39 1940.84 1450.39 Q1946.21 1450.39 1949.4 1453.08 Q1952.6 1455.77 1952.6 1460.26 Q1952.6 1462.39 1951.79 1464.31 Q1951 1466.2 1948.9 1468.8 Q1948.32 1469.47 1945.21 1472.69 Q1942.11 1475.88 1936.46 1481.64 Z" fill="#000000" fill-rule="nonzero" fill-opacity="1" /><path clip-path="url(#clip040)" d="M2268.24 1466.95 Q2271.6 1467.66 2273.47 1469.93 Q2275.37 1472.2 2275.37 1475.53 Q2275.37 1480.65 2271.85 1483.45 Q2268.34 1486.25 2261.85 1486.25 Q2259.68 1486.25 2257.36 1485.81 Q2255.07 1485.39 2252.62 1484.54 L2252.62 1480.02 Q2254.56 1481.16 2256.88 1481.74 Q2259.19 1482.32 2261.72 1482.32 Q2266.11 1482.32 2268.41 1480.58 Q2270.72 1478.84 2270.72 1475.53 Q2270.72 1472.48 2268.57 1470.77 Q2266.44 1469.03 2262.62 1469.03 L2258.59 1469.03 L2258.59 1465.19 L2262.8 1465.19 Q2266.25 1465.19 2268.08 1463.82 Q2269.91 1462.43 2269.91 1459.84 Q2269.91 1457.18 2268.01 1455.77 Q2266.14 1454.33 2262.62 1454.33 Q2260.7 1454.33 2258.5 1454.75 Q2256.3 1455.16 2253.66 1456.04 L2253.66 1451.88 Q2256.32 1451.14 2258.64 1450.77 Q2260.97 1450.39 2263.03 1450.39 Q2268.36 1450.39 2271.46 1452.83 Q2274.56 1455.23 2274.56 1459.35 Q2274.56 1462.22 2272.92 1464.21 Q2271.28 1466.18 2268.24 1466.95 Z" fill="#000000" fill-rule="nonzero" fill-opacity="1" /><path clip-path="url(#clip040)" d="M1307.57 1545.45 L1287.29 1545.45 Q1287.77 1554.96 1289.97 1559 Q1292.7 1563.97 1297.45 1563.97 Q1302.22 1563.97 1304.86 1558.97 Q1307.18 1554.58 1307.57 1545.45 M1307.47 1540.03 Q1306.58 1531 1304.86 1527.81 Q1302.12 1522.78 1297.45 1522.78 Q1292.58 1522.78 1290 1527.75 Q1287.96 1531.76 1287.36 1540.03 L1307.47 1540.03 M1297.45 1518.01 Q1305.08 1518.01 1309.44 1524.76 Q1313.81 1531.47 1313.81 1543.38 Q1313.81 1555.25 1309.44 1562 Q1305.08 1568.78 1297.45 1568.78 Q1289.77 1568.78 1285.45 1562 Q1281.09 1555.25 1281.09 1543.38 Q1281.09 1531.47 1285.45 1524.76 Q1289.77 1518.01 1297.45 1518.01 Z" fill="#000000" fill-rule="nonzero" fill-opacity="1" /><polyline clip-path="url(#clip040)" style="stroke:#000000; stroke-linecap:round; stroke-linejoin:round; stroke-width:4; stroke-opacity:1; fill:none" points="242.135,1423.18 242.135,123.472 "/>
<polyline clip-path="url(#clip040)" style="stroke:#000000; stroke-linecap:round; stroke-linejoin:round; stroke-width:4; stroke-opacity:1; fill:none" points="242.135,1277.75 261.032,1277.75 "/>
<polyline clip-path="url(#clip040)" style="stroke:#000000; stroke-linecap:round; stroke-linejoin:round; stroke-width:4; stroke-opacity:1; fill:none" points="242.135,1098.36 261.032,1098.36 "/>
<polyline clip-path="url(#clip040)" style="stroke:#000000; stroke-linecap:round; stroke-linejoin:round; stroke-width:4; stroke-opacity:1; fill:none" points="242.135,918.966 261.032,918.966 "/>
<polyline clip-path="url(#clip040)" style="stroke:#000000; stroke-linecap:round; stroke-linejoin:round; stroke-width:4; stroke-opacity:1; fill:none" points="242.135,739.572 261.032,739.572 "/>
<polyline clip-path="url(#clip040)" style="stroke:#000000; stroke-linecap:round; stroke-linejoin:round; stroke-width:4; stroke-opacity:1; fill:none" points="242.135,560.177 261.032,560.177 "/>
<polyline clip-path="url(#clip040)" style="stroke:#000000; stroke-linecap:round; stroke-linejoin:round; stroke-width:4; stroke-opacity:1; fill:none" points="242.135,380.783 261.032,380.783 "/>
<polyline clip-path="url(#clip040)" style="stroke:#000000; stroke-linecap:round; stroke-linejoin:round; stroke-width:4; stroke-opacity:1; fill:none" points="242.135,201.389 261.032,201.389 "/>
<path clip-path="url(#clip040)" d="M114.26 1278.21 L143.936 1278.21 L143.936 1282.14 L114.26 1282.14 L114.26 1278.21 Z" fill="#000000" fill-rule="nonzero" fill-opacity="1" /><path clip-path="url(#clip040)" d="M164.607 1275.89 Q161.459 1275.89 159.607 1278.04 Q157.778 1280.2 157.778 1283.95 Q157.778 1287.67 159.607 1289.85 Q161.459 1292 164.607 1292 Q167.755 1292 169.584 1289.85 Q171.436 1287.67 171.436 1283.95 Q171.436 1280.2 169.584 1278.04 Q167.755 1275.89 164.607 1275.89 M173.889 1261.24 L173.889 1265.5 Q172.13 1264.66 170.325 1264.22 Q168.542 1263.79 166.783 1263.79 Q162.153 1263.79 159.7 1266.91 Q157.269 1270.04 156.922 1276.35 Q158.288 1274.34 160.348 1273.28 Q162.408 1272.19 164.885 1272.19 Q170.093 1272.19 173.102 1275.36 Q176.135 1278.51 176.135 1283.95 Q176.135 1289.27 172.987 1292.49 Q169.839 1295.71 164.607 1295.71 Q158.612 1295.71 155.44 1291.12 Q152.269 1286.52 152.269 1277.79 Q152.269 1269.6 156.158 1264.73 Q160.047 1259.85 166.598 1259.85 Q168.357 1259.85 170.139 1260.2 Q171.945 1260.54 173.889 1261.24 Z" fill="#000000" fill-rule="nonzero" fill-opacity="1" /><path clip-path="url(#clip040)" d="M194.19 1263.55 Q190.579 1263.55 188.75 1267.12 Q186.945 1270.66 186.945 1277.79 Q186.945 1284.9 188.75 1288.46 Q190.579 1292 194.19 1292 Q197.825 1292 199.63 1288.46 Q201.459 1284.9 201.459 1277.79 Q201.459 1270.66 199.63 1267.12 Q197.825 1263.55 194.19 1263.55 M194.19 1259.85 Q200 1259.85 203.056 1264.46 Q206.135 1269.04 206.135 1277.79 Q206.135 1286.52 203.056 1291.12 Q200 1295.71 194.19 1295.71 Q188.38 1295.71 185.301 1291.12 Q182.246 1286.52 182.246 1277.79 Q182.246 1269.04 185.301 1264.46 Q188.38 1259.85 194.19 1259.85 Z" fill="#000000" fill-rule="nonzero" fill-opacity="1" /><path clip-path="url(#clip040)" d="M114.26 1098.81 L143.936 1098.81 L143.936 1102.75 L114.26 1102.75 L114.26 1098.81 Z" fill="#000000" fill-rule="nonzero" fill-opacity="1" /><path clip-path="url(#clip040)" d="M166.876 1085.15 L155.07 1103.6 L166.876 1103.6 L166.876 1085.15 M165.649 1081.08 L171.528 1081.08 L171.528 1103.6 L176.459 1103.6 L176.459 1107.49 L171.528 1107.49 L171.528 1115.64 L166.876 1115.64 L166.876 1107.49 L151.274 1107.49 L151.274 1102.98 L165.649 1081.08 Z" fill="#000000" fill-rule="nonzero" fill-opacity="1" /><path clip-path="url(#clip040)" d="M194.19 1084.16 Q190.579 1084.16 188.75 1087.72 Q186.945 1091.27 186.945 1098.4 Q186.945 1105.5 188.75 1109.07 Q190.579 1112.61 194.19 1112.61 Q197.825 1112.61 199.63 1109.07 Q201.459 1105.5 201.459 1098.4 Q201.459 1091.27 199.63 1087.72 Q197.825 1084.16 194.19 1084.16 M194.19 1080.46 Q200 1080.46 203.056 1085.06 Q206.135 1089.65 206.135 1098.4 Q206.135 1107.12 203.056 1111.73 Q200 1116.31 194.19 1116.31 Q188.38 1116.31 185.301 1111.73 Q182.246 1107.12 182.246 1098.4 Q182.246 1089.65 185.301 1085.06 Q188.38 1080.46 194.19 1080.46 Z" fill="#000000" fill-rule="nonzero" fill-opacity="1" /><path clip-path="url(#clip040)" d="M114.26 919.418 L143.936 919.418 L143.936 923.353 L114.26 923.353 L114.26 919.418 Z" fill="#000000" fill-rule="nonzero" fill-opacity="1" /><path clip-path="url(#clip040)" d="M158.056 932.311 L174.376 932.311 L174.376 936.246 L152.431 936.246 L152.431 932.311 Q155.093 929.556 159.677 924.927 Q164.283 920.274 165.464 918.931 Q167.709 916.408 168.589 914.672 Q169.491 912.913 169.491 911.223 Q169.491 908.469 167.547 906.732 Q165.626 904.996 162.524 904.996 Q160.325 904.996 157.871 905.76 Q155.44 906.524 152.663 908.075 L152.663 903.353 Q155.487 902.219 157.94 901.64 Q160.394 901.061 162.431 901.061 Q167.802 901.061 170.996 903.746 Q174.19 906.432 174.19 910.922 Q174.19 913.052 173.38 914.973 Q172.593 916.871 170.487 919.464 Q169.908 920.135 166.806 923.353 Q163.704 926.547 158.056 932.311 Z" fill="#000000" fill-rule="nonzero" fill-opacity="1" /><path clip-path="url(#clip040)" d="M194.19 904.765 Q190.579 904.765 188.75 908.33 Q186.945 911.871 186.945 919.001 Q186.945 926.107 188.75 929.672 Q190.579 933.214 194.19 933.214 Q197.825 933.214 199.63 929.672 Q201.459 926.107 201.459 919.001 Q201.459 911.871 199.63 908.33 Q197.825 904.765 194.19 904.765 M194.19 901.061 Q200 901.061 203.056 905.668 Q206.135 910.251 206.135 919.001 Q206.135 927.728 203.056 932.334 Q200 936.917 194.19 936.917 Q188.38 936.917 185.301 932.334 Q182.246 927.728 182.246 919.001 Q182.246 910.251 185.301 905.668 Q188.38 901.061 194.19 901.061 Z" fill="#000000" fill-rule="nonzero" fill-opacity="1" /><path clip-path="url(#clip040)" d="M194.19 725.37 Q190.579 725.37 188.75 728.935 Q186.945 732.477 186.945 739.607 Q186.945 746.713 188.75 750.278 Q190.579 753.819 194.19 753.819 Q197.825 753.819 199.63 750.278 Q201.459 746.713 201.459 739.607 Q201.459 732.477 199.63 728.935 Q197.825 725.37 194.19 725.37 M194.19 721.667 Q200 721.667 203.056 726.273 Q206.135 730.857 206.135 739.607 Q206.135 748.333 203.056 752.94 Q200 757.523 194.19 757.523 Q188.38 757.523 185.301 752.94 Q182.246 748.333 182.246 739.607 Q182.246 730.857 185.301 726.273 Q188.38 721.667 194.19 721.667 Z" fill="#000000" fill-rule="nonzero" fill-opacity="1" /><path clip-path="url(#clip040)" d="M158.056 573.522 L174.376 573.522 L174.376 577.457 L152.431 577.457 L152.431 573.522 Q155.093 570.768 159.677 566.138 Q164.283 561.485 165.464 560.143 Q167.709 557.62 168.589 555.883 Q169.491 554.124 169.491 552.434 Q169.491 549.68 167.547 547.944 Q165.626 546.208 162.524 546.208 Q160.325 546.208 157.871 546.971 Q155.44 547.735 152.663 549.286 L152.663 544.564 Q155.487 543.43 157.94 542.851 Q160.394 542.272 162.431 542.272 Q167.802 542.272 170.996 544.958 Q174.19 547.643 174.19 552.133 Q174.19 554.263 173.38 556.184 Q172.593 558.082 170.487 560.675 Q169.908 561.346 166.806 564.564 Q163.704 567.758 158.056 573.522 Z" fill="#000000" fill-rule="nonzero" fill-opacity="1" /><path clip-path="url(#clip040)" d="M194.19 545.976 Q190.579 545.976 188.75 549.541 Q186.945 553.083 186.945 560.212 Q186.945 567.319 188.75 570.883 Q190.579 574.425 194.19 574.425 Q197.825 574.425 199.63 570.883 Q201.459 567.319 201.459 560.212 Q201.459 553.083 199.63 549.541 Q197.825 545.976 194.19 545.976 M194.19 542.272 Q200 542.272 203.056 546.879 Q206.135 551.462 206.135 560.212 Q206.135 568.939 203.056 573.545 Q200 578.129 194.19 578.129 Q188.38 578.129 185.301 573.545 Q182.246 568.939 182.246 560.212 Q182.246 551.462 185.301 546.879 Q188.38 542.272 194.19 542.272 Z" fill="#000000" fill-rule="nonzero" fill-opacity="1" /><path clip-path="url(#clip040)" d="M166.876 367.577 L155.07 386.026 L166.876 386.026 L166.876 367.577 M165.649 363.503 L171.528 363.503 L171.528 386.026 L176.459 386.026 L176.459 389.915 L171.528 389.915 L171.528 398.063 L166.876 398.063 L166.876 389.915 L151.274 389.915 L151.274 385.401 L165.649 363.503 Z" fill="#000000" fill-rule="nonzero" fill-opacity="1" /><path clip-path="url(#clip040)" d="M194.19 366.582 Q190.579 366.582 188.75 370.146 Q186.945 373.688 186.945 380.818 Q186.945 387.924 188.75 391.489 Q190.579 395.031 194.19 395.031 Q197.825 395.031 199.63 391.489 Q201.459 387.924 201.459 380.818 Q201.459 373.688 199.63 370.146 Q197.825 366.582 194.19 366.582 M194.19 362.878 Q200 362.878 203.056 367.484 Q206.135 372.068 206.135 380.818 Q206.135 389.545 203.056 394.151 Q200 398.734 194.19 398.734 Q188.38 398.734 185.301 394.151 Q182.246 389.545 182.246 380.818 Q182.246 372.068 185.301 367.484 Q188.38 362.878 194.19 362.878 Z" fill="#000000" fill-rule="nonzero" fill-opacity="1" /><path clip-path="url(#clip040)" d="M164.607 199.525 Q161.459 199.525 159.607 201.678 Q157.778 203.831 157.778 207.581 Q157.778 211.308 159.607 213.483 Q161.459 215.636 164.607 215.636 Q167.755 215.636 169.584 213.483 Q171.436 211.308 171.436 207.581 Q171.436 203.831 169.584 201.678 Q167.755 199.525 164.607 199.525 M173.889 184.872 L173.889 189.132 Q172.13 188.298 170.325 187.859 Q168.542 187.419 166.783 187.419 Q162.153 187.419 159.7 190.544 Q157.269 193.669 156.922 199.988 Q158.288 197.974 160.348 196.909 Q162.408 195.821 164.885 195.821 Q170.093 195.821 173.102 198.993 Q176.135 202.141 176.135 207.581 Q176.135 212.905 172.987 216.122 Q169.839 219.34 164.607 219.34 Q158.612 219.34 155.44 214.757 Q152.269 210.15 152.269 201.423 Q152.269 193.229 156.158 188.368 Q160.047 183.484 166.598 183.484 Q168.357 183.484 170.139 183.831 Q171.945 184.178 173.889 184.872 Z" fill="#000000" fill-rule="nonzero" fill-opacity="1" /><path clip-path="url(#clip040)" d="M194.19 187.187 Q190.579 187.187 188.75 190.752 Q186.945 194.294 186.945 201.423 Q186.945 208.53 188.75 212.095 Q190.579 215.636 194.19 215.636 Q197.825 215.636 199.63 212.095 Q201.459 208.53 201.459 201.423 Q201.459 194.294 199.63 190.752 Q197.825 187.187 194.19 187.187 M194.19 183.484 Q200 183.484 203.056 188.09 Q206.135 192.673 206.135 201.423 Q206.135 210.15 203.056 214.757 Q200 219.34 194.19 219.34 Q188.38 219.34 185.301 214.757 Q182.246 210.15 182.246 201.423 Q182.246 192.673 185.301 188.09 Q188.38 183.484 194.19 183.484 Z" fill="#000000" fill-rule="nonzero" fill-opacity="1" /><path clip-path="url(#clip040)" d="M28.3562 840.978 L28.3562 835.121 L64.0042 835.121 L64.0042 840.978 L28.3562 840.978 M14.479 840.978 L14.479 835.121 L21.895 835.121 L21.895 840.978 L14.479 840.978 Z" fill="#000000" fill-rule="nonzero" fill-opacity="1" /><path clip-path="url(#clip040)" d="M21.7677 816.183 L39.6235 816.183 L39.6235 808.099 Q39.6235 803.611 37.3 801.16 Q34.9765 798.709 30.6797 798.709 Q26.4147 798.709 24.0912 801.16 Q21.7677 803.611 21.7677 808.099 L21.7677 816.183 M16.4842 822.612 L16.4842 808.099 Q16.4842 800.11 20.1126 796.036 Q23.7092 791.93 30.6797 791.93 Q37.7138 791.93 41.3104 796.036 Q44.907 800.11 44.907 808.099 L44.907 816.183 L64.0042 816.183 L64.0042 822.612 L16.4842 822.612 Z" fill="#000000" fill-rule="nonzero" fill-opacity="1" /><path clip-path="url(#clip040)" d="M41.7242 760.77 Q42.4244 758.701 44.7161 756.759 Q47.0077 754.786 51.0181 752.812 L64.0042 746.288 L64.0042 753.194 L51.8138 759.274 Q47.0395 761.629 45.48 763.857 Q43.9204 766.053 43.9204 769.873 L43.9204 776.875 L64.0042 776.875 L64.0042 783.304 L16.4842 783.304 L16.4842 768.79 Q16.4842 760.642 19.8898 756.632 Q23.2955 752.622 30.1704 752.622 Q34.6582 752.622 37.6183 754.722 Q40.5784 756.791 41.7242 760.77 M21.7677 776.875 L38.6368 776.875 L38.6368 768.79 Q38.6368 764.143 36.5043 761.788 Q34.34 759.401 30.1704 759.401 Q26.0009 759.401 23.9002 761.788 Q21.7677 764.143 21.7677 768.79 L21.7677 776.875 Z" fill="#000000" fill-rule="nonzero" fill-opacity="1" /><path clip-path="url(#clip040)" d="M20.1444 705.674 L26.9239 705.674 Q23.9002 708.921 22.4043 712.613 Q20.9083 716.273 20.9083 720.411 Q20.9083 728.559 25.9054 732.888 Q30.8707 737.217 40.2919 737.217 Q49.6813 737.217 54.6784 732.888 Q59.6436 728.559 59.6436 720.411 Q59.6436 716.273 58.1477 712.613 Q56.6518 708.921 53.6281 705.674 L60.3439 705.674 Q62.6355 709.048 63.7814 712.836 Q64.9272 716.592 64.9272 720.793 Q64.9272 731.583 58.3387 737.789 Q51.7183 743.996 40.2919 743.996 Q28.8336 743.996 22.2451 737.789 Q15.6248 731.583 15.6248 720.793 Q15.6248 716.528 16.7706 712.772 Q17.8846 708.985 20.1444 705.674 Z" fill="#000000" fill-rule="nonzero" fill-opacity="1" /><path clip-path="url(#clip040)" d="M974.649 27.2059 L982.103 27.2059 L982.103 72.576 L974.649 72.576 L974.649 27.2059 M974.649 9.54393 L982.103 9.54393 L982.103 18.9825 L974.649 18.9825 L974.649 9.54393 Z" fill="#000000" fill-rule="nonzero" fill-opacity="1" /><path clip-path="url(#clip040)" d="M1006.21 18.8205 L1006.21 41.5461 L1016.49 41.5461 Q1022.21 41.5461 1025.33 38.5889 Q1028.44 35.6318 1028.44 30.163 Q1028.44 24.7348 1025.33 21.7777 Q1022.21 18.8205 1016.49 18.8205 L1006.21 18.8205 M998.023 12.096 L1016.49 12.096 Q1026.66 12.096 1031.85 16.714 Q1037.07 21.2916 1037.07 30.163 Q1037.07 39.1155 1031.85 43.6931 Q1026.66 48.2706 1016.49 48.2706 L1006.21 48.2706 L1006.21 72.576 L998.023 72.576 L998.023 12.096 Z" fill="#000000" fill-rule="nonzero" fill-opacity="1" /><path clip-path="url(#clip040)" d="M1076.73 44.2197 Q1079.36 45.1109 1081.84 48.0275 Q1084.35 50.9442 1086.86 56.0483 L1095.16 72.576 L1086.37 72.576 L1078.64 57.061 Q1075.64 50.9847 1072.8 48.9997 Q1070.01 47.0148 1065.15 47.0148 L1056.23 47.0148 L1056.23 72.576 L1048.05 72.576 L1048.05 12.096 L1066.52 12.096 Q1076.89 12.096 1082 16.4305 Q1087.1 20.7649 1087.1 29.5149 Q1087.1 35.2267 1084.43 38.994 Q1081.8 42.7613 1076.73 44.2197 M1056.23 18.8205 L1056.23 40.2903 L1066.52 40.2903 Q1072.44 40.2903 1075.44 37.5762 Q1078.47 34.8216 1078.47 29.5149 Q1078.47 24.2082 1075.44 21.5346 Q1072.44 18.8205 1066.52 18.8205 L1056.23 18.8205 Z" fill="#000000" fill-rule="nonzero" fill-opacity="1" /><path clip-path="url(#clip040)" d="M1146.85 16.7545 L1146.85 25.383 Q1142.72 21.5346 1138.02 19.6307 Q1133.36 17.7268 1128.1 17.7268 Q1117.73 17.7268 1112.22 24.0867 Q1106.71 30.4061 1106.71 42.3968 Q1106.71 54.3469 1112.22 60.7069 Q1117.73 67.0263 1128.1 67.0263 Q1133.36 67.0263 1138.02 65.1223 Q1142.72 63.2184 1146.85 59.3701 L1146.85 67.9175 Q1142.56 70.8341 1137.74 72.2924 Q1132.96 73.7508 1127.61 73.7508 Q1113.88 73.7508 1105.98 65.3654 Q1098.08 56.9395 1098.08 42.3968 Q1098.08 27.8135 1105.98 19.4281 Q1113.88 11.0023 1127.61 11.0023 Q1133.04 11.0023 1137.82 12.4606 Q1142.64 13.8784 1146.85 16.7545 Z" fill="#000000" fill-rule="nonzero" fill-opacity="1" /><path clip-path="url(#clip040)" d="M1194.05 18.8205 L1194.05 65.8515 L1203.93 65.8515 Q1216.45 65.8515 1222.24 60.1802 Q1228.07 54.509 1228.07 42.2752 Q1228.07 30.1225 1222.24 24.4918 Q1216.45 18.8205 1203.93 18.8205 L1194.05 18.8205 M1185.86 12.096 L1202.67 12.096 Q1220.26 12.096 1228.48 19.4281 Q1236.7 26.7198 1236.7 42.2752 Q1236.7 57.9117 1228.44 65.2439 Q1220.17 72.576 1202.67 72.576 L1185.86 72.576 L1185.86 12.096 Z" fill="#000000" fill-rule="nonzero" fill-opacity="1" /><path clip-path="url(#clip040)" d="M1288.23 48.0275 L1288.23 51.6733 L1253.96 51.6733 Q1254.44 59.3701 1258.58 63.421 Q1262.75 67.4314 1270.16 67.4314 Q1274.46 67.4314 1278.47 66.3781 Q1282.52 65.3249 1286.49 63.2184 L1286.49 70.267 Q1282.48 71.9684 1278.26 72.8596 Q1274.05 73.7508 1269.72 73.7508 Q1258.86 73.7508 1252.5 67.4314 Q1246.18 61.1119 1246.18 50.3365 Q1246.18 39.1965 1252.18 32.6746 Q1258.21 26.1121 1268.42 26.1121 Q1277.58 26.1121 1282.88 32.0264 Q1288.23 37.9003 1288.23 48.0275 M1280.78 45.84 Q1280.69 39.7232 1277.33 36.0774 Q1274.01 32.4315 1268.5 32.4315 Q1262.26 32.4315 1258.5 35.9558 Q1254.77 39.4801 1254.2 45.8805 L1280.78 45.84 Z" fill="#000000" fill-rule="nonzero" fill-opacity="1" /><path clip-path="url(#clip040)" d="M1338.18 45.1919 L1338.18 72.576 L1330.72 72.576 L1330.72 45.4349 Q1330.72 38.994 1328.21 35.7938 Q1325.7 32.5936 1320.68 32.5936 Q1314.64 32.5936 1311.16 36.4419 Q1307.67 40.2903 1307.67 46.9338 L1307.67 72.576 L1300.18 72.576 L1300.18 27.2059 L1307.67 27.2059 L1307.67 34.2544 Q1310.35 30.163 1313.95 28.1376 Q1317.6 26.1121 1322.34 26.1121 Q1330.16 26.1121 1334.17 30.9732 Q1338.18 35.7938 1338.18 45.1919 Z" fill="#000000" fill-rule="nonzero" fill-opacity="1" /><path clip-path="url(#clip040)" d="M1381.97 28.5427 L1381.97 35.5912 Q1378.81 33.9709 1375.4 33.1607 Q1372 32.3505 1368.36 32.3505 Q1362.81 32.3505 1360.01 34.0519 Q1357.26 35.7533 1357.26 39.156 Q1357.26 41.7486 1359.24 43.2475 Q1361.23 44.7058 1367.22 46.0426 L1369.77 46.6097 Q1377.71 48.3111 1381.04 51.4303 Q1384.4 54.509 1384.4 60.0587 Q1384.4 66.3781 1379.37 70.0644 Q1374.39 73.7508 1365.64 73.7508 Q1362 73.7508 1358.03 73.0216 Q1354.1 72.3329 1349.72 70.9151 L1349.72 63.2184 Q1353.85 65.3654 1357.86 66.4591 Q1361.87 67.5124 1365.8 67.5124 Q1371.07 67.5124 1373.91 65.73 Q1376.74 63.9071 1376.74 60.6258 Q1376.74 57.5877 1374.68 55.9673 Q1372.65 54.3469 1365.72 52.8481 L1363.13 52.2405 Q1356.2 50.7821 1353.12 47.7845 Q1350.05 44.7463 1350.05 39.4801 Q1350.05 33.0797 1354.58 29.5959 Q1359.12 26.1121 1367.47 26.1121 Q1371.6 26.1121 1375.24 26.7198 Q1378.89 27.3274 1381.97 28.5427 Z" fill="#000000" fill-rule="nonzero" fill-opacity="1" /><path clip-path="url(#clip040)" d="M1435.07 48.0275 L1435.07 51.6733 L1400.8 51.6733 Q1401.29 59.3701 1405.42 63.421 Q1409.59 67.4314 1417.01 67.4314 Q1421.3 67.4314 1425.31 66.3781 Q1429.36 65.3249 1433.33 63.2184 L1433.33 70.267 Q1429.32 71.9684 1425.11 72.8596 Q1420.9 73.7508 1416.56 73.7508 Q1405.71 73.7508 1399.35 67.4314 Q1393.03 61.1119 1393.03 50.3365 Q1393.03 39.1965 1399.02 32.6746 Q1405.06 26.1121 1415.27 26.1121 Q1424.42 26.1121 1429.73 32.0264 Q1435.07 37.9003 1435.07 48.0275 M1427.62 45.84 Q1427.54 39.7232 1424.18 36.0774 Q1420.86 32.4315 1415.35 32.4315 Q1409.11 32.4315 1405.34 35.9558 Q1401.61 39.4801 1401.05 45.8805 L1427.62 45.84 Z" fill="#000000" fill-rule="nonzero" fill-opacity="1" /><path clip-path="url(#clip040)" d="M1482.19 18.8205 L1482.19 41.5461 L1492.48 41.5461 Q1498.19 41.5461 1501.31 38.5889 Q1504.43 35.6318 1504.43 30.163 Q1504.43 24.7348 1501.31 21.7777 Q1498.19 18.8205 1492.48 18.8205 L1482.19 18.8205 M1474 12.096 L1492.48 12.096 Q1502.64 12.096 1507.83 16.714 Q1513.05 21.2916 1513.05 30.163 Q1513.05 39.1155 1507.83 43.6931 Q1502.64 48.2706 1492.48 48.2706 L1482.19 48.2706 L1482.19 72.576 L1474 72.576 L1474 12.096 Z" fill="#000000" fill-rule="nonzero" fill-opacity="1" /><path clip-path="url(#clip040)" d="M1523.71 9.54393 L1531.16 9.54393 L1531.16 72.576 L1523.71 72.576 L1523.71 9.54393 Z" fill="#000000" fill-rule="nonzero" fill-opacity="1" /><path clip-path="url(#clip040)" d="M1564.34 32.4315 Q1558.34 32.4315 1554.86 37.1306 Q1551.38 41.7891 1551.38 49.9314 Q1551.38 58.0738 1554.82 62.7728 Q1558.3 67.4314 1564.34 67.4314 Q1570.29 67.4314 1573.78 62.7323 Q1577.26 58.0333 1577.26 49.9314 Q1577.26 41.8701 1573.78 37.1711 Q1570.29 32.4315 1564.34 32.4315 M1564.34 26.1121 Q1574.06 26.1121 1579.61 32.4315 Q1585.16 38.7509 1585.16 49.9314 Q1585.16 61.0714 1579.61 67.4314 Q1574.06 73.7508 1564.34 73.7508 Q1554.58 73.7508 1549.03 67.4314 Q1543.52 61.0714 1543.52 49.9314 Q1543.52 38.7509 1549.03 32.4315 Q1554.58 26.1121 1564.34 26.1121 Z" fill="#000000" fill-rule="nonzero" fill-opacity="1" /><path clip-path="url(#clip040)" d="M1604.89 14.324 L1604.89 27.2059 L1620.24 27.2059 L1620.24 32.9987 L1604.89 32.9987 L1604.89 57.6282 Q1604.89 63.1779 1606.39 64.7578 Q1607.93 66.3376 1612.59 66.3376 L1620.24 66.3376 L1620.24 72.576 L1612.59 72.576 Q1603.96 72.576 1600.68 69.3758 Q1597.39 66.1351 1597.39 57.6282 L1597.39 32.9987 L1591.93 32.9987 L1591.93 27.2059 L1597.39 27.2059 L1597.39 14.324 L1604.89 14.324 Z" fill="#000000" fill-rule="nonzero" fill-opacity="1" /><polyline clip-path="url(#clip041)" style="stroke:#009af9; stroke-linecap:round; stroke-linejoin:round; stroke-width:8; stroke-opacity:1; fill:none" points="301.869,822.776 303.862,823.456 305.856,824.145 307.849,824.844 309.842,825.554 311.835,826.275 313.828,827.006 315.821,827.748 317.814,828.499 319.808,829.26 321.801,830.03 323.794,830.809 325.787,831.594 327.78,832.386 329.773,833.184 331.766,833.986 333.76,834.793 335.753,835.604 337.746,836.417 339.739,837.234 341.732,838.053 343.725,838.875 345.718,839.699 347.712,840.527 349.705,841.358 351.698,842.193 353.691,843.032 355.684,843.878 357.677,844.729 359.67,845.588 361.664,846.454 363.657,847.329 365.65,848.212 367.643,849.106 369.636,850.009 371.629,850.923 373.622,851.847 375.616,852.782 377.609,853.727 379.602,854.682 381.595,855.646 383.588,856.62 385.581,857.602 387.574,858.592 389.568,859.589 391.561,860.593 393.554,861.604 395.547,862.621 397.54,863.644 399.533,864.673 401.526,865.707 403.52,866.746 405.513,867.792 407.506,868.843 409.499,869.9 411.492,870.962 413.485,872.03 415.479,873.103 417.472,874.179 419.465,875.258 421.458,876.336 423.451,877.413 425.444,878.483 427.437,879.543 429.431,880.587 431.424,881.608 433.417,882.599 435.41,883.551 437.403,884.455 439.396,885.298 441.389,886.07 443.383,886.757 445.376,887.344 447.369,887.817 449.362,888.161 451.355,888.359 453.348,888.396 455.341,888.255 457.335,887.921 459.328,887.378 461.321,886.611 463.314,885.608 465.307,884.356 467.3,882.844 469.293,881.064 471.287,879.009 473.28,876.674 475.273,874.057 477.266,871.159 479.259,867.983 481.252,864.533 483.245,860.819 485.239,856.852 487.232,852.643 489.225,848.21 491.218,843.57 493.211,838.742 495.204,833.749 497.197,828.614 499.191,823.36 501.184,818.014 503.177,812.599 505.17,807.143 507.163,801.671 509.156,796.207 511.149,790.777 513.143,785.403 515.136,780.108 517.129,774.91 519.122,769.83 521.115,764.882 523.108,760.081 525.101,755.439 527.095,750.966 529.088,746.668 531.081,742.55 533.074,738.616 535.067,734.865 537.06,731.296 539.054,727.907 541.047,724.692 543.04,721.644 545.033,718.756 547.026,716.02 549.019,713.426 551.012,710.965 553.006,708.626 554.999,706.398 556.992,704.273 558.985,702.239 560.978,700.288 562.971,698.41 564.964,696.597 566.958,694.843 568.951,693.139 570.944,691.48 572.937,689.861 574.93,688.279 576.923,686.728 578.916,685.208 580.91,683.715 582.903,682.248 584.896,680.806 586.889,679.39 588.882,677.997 590.875,676.629 592.868,675.285 594.862,673.966 596.855,672.672 598.848,671.402 600.841,670.157 602.834,668.935 604.827,667.738 606.82,666.564 608.814,665.411 610.807,664.279 612.8,663.166 614.793,662.071 616.786,660.991 618.779,659.925 620.772,658.872 622.766,657.827 624.759,656.791 626.752,655.76 628.745,654.734 630.738,653.71 632.731,652.686 634.724,651.662 636.718,650.636 638.711,649.607 640.704,648.574 642.697,647.537 644.69,646.496 646.683,645.45 648.677,644.4 650.67,643.345 652.663,642.286 654.656,641.223 656.649,640.157 658.642,639.088 660.635,638.017 662.629,636.943 664.622,635.868 666.615,634.792 668.608,633.714 670.601,632.635 672.594,631.555 674.587,630.474 676.581,629.392 678.574,628.308 680.567,627.222 682.56,626.133 684.553,625.041 686.546,623.944 688.539,622.844 690.533,621.738 692.526,620.627 694.519,619.509 696.512,618.384 698.505,617.251 700.498,616.11 702.491,614.961 704.485,613.803 706.478,612.636 708.471,611.459 710.464,610.273 712.457,609.078 714.45,607.873 716.443,606.66 718.437,605.436 720.43,604.204 722.423,602.963 724.416,601.713 726.409,600.455 728.402,599.188 730.395,597.913 732.389,596.63 734.382,595.339 736.375,594.039 738.368,592.731 740.361,591.415 742.354,590.091 744.347,588.758 746.341,587.416 748.334,586.065 750.327,584.704 752.32,583.334 754.313,581.953 756.306,580.562 758.299,579.161 760.293,577.748 762.286,576.323 764.279,574.886 766.272,573.438 768.265,571.976 770.258,570.502 772.252,569.015 774.245,567.514 776.238,565.999 778.231,564.471 780.224,562.928 782.217,561.371 784.21,559.8 786.204,558.214 788.197,556.612 790.19,554.996 792.183,553.364 794.176,551.716 796.169,550.053 798.162,548.373 800.156,546.677 802.149,544.964 804.142,543.234 806.135,541.486 808.128,539.721 810.121,537.938 812.114,536.137 814.108,534.317 816.101,532.478 818.094,530.62 820.087,528.742 822.08,526.845 824.073,524.928 826.066,522.991 828.06,521.033 830.053,519.054 832.046,517.055 834.039,515.034 836.032,512.993 838.025,510.929 840.018,508.844 842.012,506.738 844.005,504.609 845.998,502.458 847.991,500.285 849.984,498.089 851.977,495.87 853.97,493.628 855.964,491.363 857.957,489.075 859.95,486.762 861.943,484.426 863.936,482.065 865.929,479.68 867.922,477.269 869.916,474.834 871.909,472.373 873.902,469.887 875.895,467.374 877.888,464.836 879.881,462.27 881.874,459.679 883.868,457.06 885.861,454.414 887.854,451.741 889.847,449.04 891.84,446.311 893.833,443.553 895.827,440.767 897.82,437.953 899.813,435.109 901.806,432.236 903.799,429.332 905.792,426.399 907.785,423.434 909.779,420.439 911.772,417.411 913.765,414.352 915.758,411.259 917.751,408.134 919.744,404.975 921.737,401.781 923.731,398.553 925.724,395.289 927.717,391.99 929.71,388.654 931.703,385.282 933.696,381.873 935.689,378.427 937.683,374.944 939.676,371.424 941.669,367.867 943.662,364.273 945.655,360.642 947.648,356.975 949.641,353.272 951.635,349.534 953.628,345.762 955.621,341.956 957.614,338.117 959.607,334.247 961.6,330.346 963.593,326.416 965.587,322.458 967.58,318.474 969.573,314.465 971.566,310.434 973.559,306.381 975.552,302.31 977.545,298.221 979.539,294.118 981.532,290.002 983.525,285.877 985.518,281.745 987.511,277.608 989.504,273.47 991.497,269.334 993.491,265.204 995.484,261.083 997.477,256.976 999.47,252.885 1001.46,248.816 1003.46,244.773 1005.45,240.76 1007.44,236.784 1009.44,232.848 1011.43,228.959 1013.42,225.121 1015.42,221.34 1017.41,217.623 1019.4,213.974 1021.39,210.4 1023.39,206.907 1025.38,203.5 1027.37,200.186 1029.37,196.97 1031.36,193.858 1033.35,190.856 1035.35,187.968 1037.34,185.201 1039.33,182.559 1041.33,180.047 1043.32,177.669 1045.31,175.43 1047.31,173.333 1049.3,171.383 1051.29,169.582 1053.28,167.933 1055.28,166.44 1057.27,165.104 1059.26,163.927 1061.26,162.912 1063.25,162.059 1065.24,161.37 1067.24,160.844 1069.23,160.484 1071.22,160.288 1073.22,160.256 1075.21,160.389 1077.2,160.684 1079.2,161.141 1081.19,161.759 1083.18,162.534 1085.18,163.466 1087.17,164.552 1089.16,165.788 1091.15,167.171 1093.15,168.697 1095.14,170.363 1097.13,172.164 1099.13,174.095 1101.12,176.149 1103.11,178.323 1105.11,180.609 1107.1,183 1109.09,185.491 1111.09,188.072 1113.08,190.737 1115.07,193.478 1117.07,196.287 1119.06,199.153 1121.05,202.07 1123.05,205.027 1125.04,208.017 1127.03,211.028 1129.02,214.053 1131.02,217.081 1133.01,220.104 1135,223.112 1137,226.097 1138.99,229.048 1140.98,231.959 1142.98,234.819 1144.97,237.622 1146.96,240.358 1148.96,243.02 1150.95,245.602 1152.94,248.095 1154.94,250.495 1156.93,252.793 1158.92,254.985 1160.91,257.065 1162.91,259.029 1164.9,260.871 1166.89,262.587 1168.89,264.175 1170.88,265.63 1172.87,266.95 1174.87,268.133 1176.86,269.177 1178.85,270.08 1180.85,270.841 1182.84,271.462 1184.83,271.941 1186.83,272.279 1188.82,272.478 1190.81,272.541 1192.81,272.468 1194.8,272.264 1196.79,271.931 1198.78,271.475 1200.78,270.9 1202.77,270.21 1204.76,269.413 1206.76,268.514 1208.75,267.519 1210.74,266.437 1212.74,265.273 1214.73,264.036 1216.72,262.734 1218.72,261.375 1220.71,259.966 1222.7,258.517 1224.7,257.034 1226.69,255.526 1228.68,254.001 1230.67,252.466 1232.67,250.928 1234.66,249.394 1236.65,247.871 1238.65,246.364 1240.64,244.879 1242.63,243.421 1244.63,241.994 1246.62,240.601 1248.61,239.248 1250.61,237.936 1252.6,236.668 1254.59,235.446 1256.59,234.271 1258.58,233.146 1260.57,232.07 1262.57,231.045 1264.56,230.072 1266.55,229.151 1268.54,228.281 1270.54,227.465 1272.53,226.701 1274.52,225.991 1276.52,225.335 1278.51,224.734 1280.5,224.188 1282.5,223.699 1284.49,223.268 1286.48,222.895 1288.48,222.583 1290.47,222.333 1292.46,222.146 1294.46,222.025 1296.45,221.971 1298.44,221.986 1300.44,222.073 1302.43,222.232 1304.42,222.465 1306.41,222.775 1308.41,223.163 1310.4,223.63 1312.39,224.178 1314.39,224.808 1316.38,225.521 1318.37,226.317 1320.37,227.199 1322.36,228.166 1324.35,229.219 1326.35,230.359 1328.34,231.586 1330.33,232.9 1332.33,234.304 1334.32,235.796 1336.31,237.378 1338.3,239.052 1340.3,240.817 1342.29,242.675 1344.28,244.628 1346.28,246.677 1348.27,248.824 1350.26,251.071 1352.26,253.421 1354.25,255.875 1356.24,258.436 1358.24,261.106 1360.23,263.889 1362.22,266.786 1364.22,269.801 1366.21,272.936 1368.2,276.194 1370.2,279.576 1372.19,283.085 1374.18,286.724 1376.17,290.492 1378.17,294.393 1380.16,298.427 1382.15,302.595 1384.15,306.897 1386.14,311.334 1388.13,315.905 1390.13,320.61 1392.12,325.448 1394.11,330.419 1396.11,335.52 1398.1,340.751 1400.09,346.109 1402.09,351.593 1404.08,357.201 1406.07,362.93 1408.06,368.778 1410.06,374.743 1412.05,380.821 1414.04,387.011 1416.04,393.309 1418.03,399.712 1420.02,406.216 1422.02,412.819 1424.01,419.516 1426,426.303 1428,433.176 1429.99,440.128 1431.98,447.156 1433.98,454.253 1435.97,461.411 1437.96,468.625 1439.96,475.885 1441.95,483.184 1443.94,490.512 1445.93,497.858 1447.93,505.212 1449.92,512.563 1451.91,519.897 1453.91,527.203 1455.9,534.465 1457.89,541.672 1459.89,548.807 1461.88,555.856 1463.87,562.804 1465.87,569.635 1467.86,576.335 1469.85,582.888 1471.85,589.278 1473.84,595.492 1475.83,601.515 1477.82,607.334 1479.82,612.936 1481.81,618.309 1483.8,623.443 1485.8,628.327 1487.79,632.952 1489.78,637.312 1491.78,641.4 1493.77,645.212 1495.76,648.743 1497.76,651.993 1499.75,654.961 1501.74,657.646 1503.74,660.053 1505.73,662.183 1507.72,664.042 1509.72,665.636 1511.71,666.972 1513.7,668.058 1515.69,668.903 1517.69,669.517 1519.68,669.911 1521.67,670.095 1523.67,670.083 1525.66,669.886 1527.65,669.517 1529.65,668.987 1531.64,668.311 1533.63,667.501 1535.63,666.569 1537.62,665.528 1539.61,664.389 1541.61,663.164 1543.6,661.865 1545.59,660.502 1547.59,659.084 1549.58,657.621 1551.57,656.121 1553.56,654.592 1555.56,653.04 1557.55,651.472 1559.54,649.894 1561.54,648.309 1563.53,646.721 1565.52,645.133 1567.52,643.548 1569.51,641.967 1571.5,640.391 1573.5,638.82 1575.49,637.254 1577.48,635.693 1579.48,634.135 1581.47,632.58 1583.46,631.026 1585.45,629.472 1587.45,627.916 1589.44,626.356 1591.43,624.792 1593.43,623.221 1595.42,621.643 1597.41,620.057 1599.41,618.462 1601.4,616.857 1603.39,615.244 1605.39,613.622 1607.38,611.992 1609.37,610.355 1611.37,608.712 1613.36,607.065 1615.35,605.415 1617.35,603.765 1619.34,602.116 1621.33,600.471 1623.32,598.832 1625.32,597.2 1627.31,595.578 1629.3,593.968 1631.3,592.372 1633.29,590.79 1635.28,589.224 1637.28,587.675 1639.27,586.144 1641.26,584.632 1643.26,583.137 1645.25,581.662 1647.24,580.204 1649.24,578.765 1651.23,577.343 1653.22,575.938 1655.21,574.549 1657.21,573.177 1659.2,571.821 1661.19,570.48 1663.19,569.155 1665.18,567.846 1667.17,566.554 1669.17,565.28 1671.16,564.026 1673.15,562.793 1675.15,561.584 1677.14,560.401 1679.13,559.247 1681.13,558.125 1683.12,557.04 1685.11,555.995 1687.11,554.994 1689.1,554.041 1691.09,553.14 1693.08,552.297 1695.08,551.514 1697.07,550.796 1699.06,550.147 1701.06,549.572 1703.05,549.072 1705.04,548.653 1707.04,548.317 1709.03,548.068 1711.02,547.908 1713.02,547.84 1715.01,547.868 1717,547.993 1719,548.219 1720.99,548.55 1722.98,548.988 1724.97,549.536 1726.97,550.2 1728.96,550.984 1730.95,551.892 1732.95,552.93 1734.94,554.105 1736.93,555.423 1738.93,556.891 1740.92,558.516 1742.91,560.307 1744.91,562.271 1746.9,564.418 1748.89,566.755 1750.89,569.29 1752.88,572.031 1754.87,574.985 1756.87,578.158 1758.86,581.555 1760.85,585.18 1762.84,589.035 1764.84,593.121 1766.83,597.435 1768.82,601.974 1770.82,606.733 1772.81,611.703 1774.8,616.873 1776.8,622.23 1778.79,627.76 1780.78,633.443 1782.78,639.259 1784.77,645.188 1786.76,651.204 1788.76,657.281 1790.75,663.394 1792.74,669.513 1794.74,675.61 1796.73,681.657 1798.72,687.625 1800.71,693.485 1802.71,699.21 1804.7,704.774 1806.69,710.153 1808.69,715.324 1810.68,720.268 1812.67,724.967 1814.67,729.406 1816.66,733.573 1818.65,737.461 1820.65,741.064 1822.64,744.379 1824.63,747.408 1826.63,750.155 1828.62,752.626 1830.61,754.83 1832.6,756.781 1834.6,758.491 1836.59,759.977 1838.58,761.256 1840.58,762.347 1842.57,763.268 1844.56,764.039 1846.56,764.681 1848.55,765.211 1850.54,765.65 1852.54,766.014 1854.53,766.321 1856.52,766.585 1858.52,766.821 1860.51,767.04 1862.5,767.254 1864.5,767.47 1866.49,767.695 1868.48,767.934 1870.47,768.191 1872.47,768.468 1874.46,768.765 1876.45,769.081 1878.45,769.415 1880.44,769.764 1882.43,770.125 1884.43,770.495 1886.42,770.869 1888.41,771.245 1890.41,771.618 1892.4,771.984 1894.39,772.342 1896.39,772.689 1898.38,773.023 1900.37,773.342 1902.36,773.647 1904.36,773.936 1906.35,774.213 1908.34,774.476 1910.34,774.729 1912.33,774.973 1914.32,775.211 1916.32,775.446 1918.31,775.679 1920.3,775.915 1922.3,776.156 1924.29,776.404 1926.28,776.661 1928.28,776.929 1930.27,777.209 1932.26,777.503 1934.26,777.811 1936.25,778.133 1938.24,778.468 1940.23,778.817 1942.23,779.177 1944.22,779.547 1946.21,779.927 1948.21,780.313 1950.2,780.705 1952.19,781.1 1954.19,781.497 1956.18,781.894 1958.17,782.29 1960.17,782.683 1962.16,783.073 1964.15,783.46 1966.15,783.842 1968.14,784.221 1970.13,784.595 1972.12,784.967 1974.12,785.336 1976.11,785.704 1978.1,786.072 1980.1,786.44 1982.09,786.811 1984.08,787.185 1986.08,787.563 1988.07,787.946 1990.06,788.335 1992.06,788.729 1994.05,789.131 1996.04,789.538 1998.04,789.952 2000.03,790.372 2002.02,790.797 2004.02,791.226 2006.01,791.659 2008,792.095 2009.99,792.533 2011.99,792.972 2013.98,793.413 2015.97,793.853 2017.97,794.295 2019.96,794.736 2021.95,795.179 2023.95,795.623 2025.94,796.071 2027.93,796.522 2029.93,796.979 2031.92,797.444 2033.91,797.918 2035.91,798.404 2037.9,798.902 2039.89,799.416 2041.89,799.945 2043.88,800.492 2045.87,801.056 2047.86,801.638 2049.86,802.237 2051.85,802.851 2053.84,803.478 2055.84,804.115 2057.83,804.757 2059.82,805.4 2061.82,806.038 2063.81,806.664 2065.8,807.27 2067.8,807.849 2069.79,808.391 2071.78,808.889 2073.78,809.333 2075.77,809.713 2077.76,810.022 2079.75,810.25 2081.75,810.39 2083.74,810.434 2085.73,810.377 2087.73,810.213 2089.72,809.939 2091.71,809.552 2093.71,809.051 2095.7,808.437 2097.69,807.713 2099.69,806.882 2101.68,805.95 2103.67,804.924 2105.67,803.813 2107.66,802.626 2109.65,801.375 2111.65,800.07 2113.64,798.726 2115.63,797.355 2117.62,795.97 2119.62,794.585 2121.61,793.215 2123.6,791.871 2125.6,790.566 2127.59,789.312 2129.58,788.121 2131.58,787 2133.57,785.959 2135.56,785.005 2137.56,784.143 2139.55,783.377 2141.54,782.71 2143.54,782.143 2145.53,781.675 2147.52,781.305 2149.51,781.03 2151.51,780.846 2153.5,780.748 2155.49,780.73 2157.49,780.786 2159.48,780.909 2161.47,781.092 2163.47,781.328 2165.46,781.61 2167.45,781.93 2169.45,782.282 2171.44,782.66 2173.43,783.057 2175.43,783.47 2177.42,783.892 2179.41,784.321 2181.41,784.753 2183.4,785.185 2185.39,785.617 2187.38,786.046 2189.38,786.472 2191.37,786.894 2193.36,787.314 2195.36,787.731 2197.35,788.146 2199.34,788.56 2201.34,788.975 2203.33,789.391 2205.32,789.809 2207.32,790.23 2209.31,790.656 2211.3,791.086 2213.3,791.521 2215.29,791.961 2217.28,792.406 2219.27,792.857 2221.27,793.313 2223.26,793.773 2225.25,794.237 2227.25,794.705 2229.24,795.176 2231.23,795.649 2233.23,796.123 2235.22,796.599 2237.21,797.076 2239.21,797.554 2241.2,798.033 2243.19,798.512 2245.19,798.993 2247.18,799.475 2249.17,799.96 2251.17,800.447 2253.16,800.937 2255.15,801.432 2257.14,801.932 2259.14,802.438 2261.13,802.951 2263.12,803.471 2265.12,803.999 2267.11,804.535 2269.1,805.08 2271.1,805.634 2273.09,806.196 2275.08,806.767 2277.08,807.347 2279.07,807.934 2281.06,808.528 2283.06,809.129 2285.05,809.735 2287.04,810.347 2289.04,810.962 2291.03,811.58 2293.02,812.2 "/>
<polyline clip-path="url(#clip041)" style="stroke:#e26f46; stroke-linecap:round; stroke-linejoin:round; stroke-width:8; stroke-opacity:1; fill:none" points="301.869,730.928 303.862,730.77 305.856,730.608 307.849,730.442 309.842,730.271 311.835,730.096 313.828,729.916 315.821,729.731 317.814,729.542 319.808,729.348 321.801,729.15 323.794,728.947 325.787,728.74 327.78,728.529 329.773,728.314 331.766,728.095 333.76,727.873 335.753,727.648 337.746,727.42 339.739,727.189 341.732,726.955 343.725,726.719 345.718,726.48 347.712,726.237 349.705,725.992 351.698,725.743 353.691,725.491 355.684,725.235 357.677,724.974 359.67,724.709 361.664,724.439 363.657,724.163 365.65,723.882 367.643,723.594 369.636,723.3 371.629,722.999 373.622,722.691 375.616,722.375 377.609,722.052 379.602,721.722 381.595,721.385 383.588,721.04 385.581,720.687 387.574,720.328 389.568,719.961 391.561,719.588 393.554,719.208 395.547,718.822 397.54,718.429 399.533,718.03 401.526,717.625 403.52,717.213 405.513,716.796 407.506,716.372 409.499,715.942 411.492,715.506 413.485,715.063 415.479,714.614 417.472,714.159 419.465,713.698 421.458,713.231 423.451,712.759 425.444,712.281 427.437,711.8 429.431,711.316 431.424,710.83 433.417,710.345 435.41,709.861 437.403,709.382 439.396,708.909 441.389,708.447 443.383,707.998 445.376,707.565 447.369,707.154 449.362,706.767 451.355,706.409 453.348,706.085 455.341,705.798 457.335,705.555 459.328,705.358 461.321,705.213 463.314,705.123 465.307,705.092 467.3,705.124 469.293,705.222 471.287,705.387 473.28,705.623 475.273,705.931 477.266,706.31 479.259,706.762 481.252,707.285 483.245,707.878 485.239,708.54 487.232,709.266 489.225,710.055 491.218,710.901 493.211,711.801 495.204,712.748 497.197,713.739 499.191,714.767 501.184,715.825 503.177,716.909 505.17,718.01 507.163,719.124 509.156,720.244 511.149,721.364 513.143,722.478 515.136,723.581 517.129,724.668 519.122,725.734 521.115,726.775 523.108,727.788 525.101,728.77 527.095,729.718 529.088,730.631 531.081,731.507 533.074,732.345 535.067,733.145 537.06,733.908 539.054,734.634 541.047,735.324 543.04,735.979 545.033,736.6 547.026,737.191 549.019,737.752 551.012,738.287 553.006,738.796 554.999,739.282 556.992,739.748 558.985,740.194 560.978,740.625 562.971,741.04 564.964,741.443 566.958,741.834 568.951,742.215 570.944,742.587 572.937,742.951 574.93,743.309 576.923,743.66 578.916,744.006 580.91,744.348 582.903,744.684 584.896,745.017 586.889,745.346 588.882,745.672 590.875,745.994 592.868,746.313 594.862,746.63 596.855,746.943 598.848,747.255 600.841,747.564 602.834,747.871 604.827,748.176 606.82,748.481 608.814,748.784 610.807,749.087 612.8,749.389 614.793,749.691 616.786,749.994 618.779,750.298 620.772,750.603 622.766,750.91 624.759,751.219 626.752,751.529 628.745,751.842 630.738,752.158 632.731,752.477 634.724,752.799 636.718,753.124 638.711,753.452 640.704,753.785 642.697,754.121 644.69,754.461 646.683,754.805 648.677,755.153 650.67,755.506 652.663,755.864 654.656,756.226 656.649,756.593 658.642,756.965 660.635,757.343 662.629,757.727 664.622,758.116 666.615,758.511 668.608,758.913 670.601,759.322 672.594,759.738 674.587,760.16 676.581,760.59 678.574,761.028 680.567,761.473 682.56,761.926 684.553,762.387 686.546,762.857 688.539,763.334 690.533,763.82 692.526,764.314 694.519,764.817 696.512,765.328 698.505,765.847 700.498,766.375 702.491,766.912 704.485,767.457 706.478,768.011 708.471,768.575 710.464,769.147 712.457,769.729 714.45,770.32 716.443,770.921 718.437,771.532 720.43,772.153 722.423,772.786 724.416,773.429 726.409,774.084 728.402,774.752 730.395,775.431 732.389,776.124 734.382,776.829 736.375,777.549 738.368,778.282 740.361,779.03 742.354,779.793 744.347,780.57 746.341,781.363 748.334,782.172 750.327,782.996 752.32,783.837 754.313,784.693 756.306,785.566 758.299,786.455 760.293,787.36 762.286,788.282 764.279,789.221 766.272,790.177 768.265,791.15 770.258,792.14 772.252,793.147 774.245,794.173 776.238,795.216 778.231,796.278 780.224,797.359 782.217,798.46 784.21,799.58 786.204,800.722 788.197,801.884 790.19,803.069 792.183,804.276 794.176,805.506 796.169,806.761 798.162,808.04 800.156,809.345 802.149,810.676 804.142,812.034 806.135,813.42 808.128,814.833 810.121,816.276 812.114,817.747 814.108,819.249 816.101,820.781 818.094,822.343 820.087,823.936 822.08,825.561 824.073,827.218 826.066,828.907 828.06,830.628 830.053,832.382 832.046,834.17 834.039,835.991 836.032,837.846 838.025,839.736 840.018,841.661 842.012,843.622 844.005,845.62 845.998,847.655 847.991,849.727 849.984,851.839 851.977,853.991 853.97,856.184 855.964,858.418 857.957,860.695 859.95,863.017 861.943,865.383 863.936,867.796 865.929,870.256 867.922,872.765 869.916,875.323 871.909,877.932 873.902,880.592 875.895,883.305 877.888,886.072 879.881,888.893 881.874,891.77 883.868,894.703 885.861,897.694 887.854,900.742 889.847,903.849 891.84,907.016 893.833,910.244 895.827,913.533 897.82,916.884 899.813,920.299 901.806,923.778 903.799,927.322 905.792,930.933 907.785,934.612 909.779,938.359 911.772,942.177 913.765,946.067 915.758,950.03 917.751,954.068 919.744,958.182 921.737,962.373 923.731,966.644 925.724,970.996 927.717,975.431 929.71,979.95 931.703,984.554 933.696,989.246 935.689,994.026 937.683,998.895 939.676,1003.85 941.669,1008.91 943.662,1014.05 945.655,1019.29 947.648,1024.62 949.641,1030.04 951.635,1035.56 953.628,1041.17 955.621,1046.87 957.614,1052.67 959.607,1058.56 961.6,1064.54 963.593,1070.61 965.587,1076.77 967.58,1083.01 969.573,1089.34 971.566,1095.76 973.559,1102.25 975.552,1108.82 977.545,1115.46 979.539,1122.18 981.532,1128.96 983.525,1135.8 985.518,1142.71 987.511,1149.66 989.504,1156.67 991.497,1163.72 993.491,1170.81 995.484,1177.93 997.477,1185.07 999.47,1192.23 1001.46,1199.4 1003.46,1206.57 1005.45,1213.73 1007.44,1220.87 1009.44,1227.99 1011.43,1235.07 1013.42,1242.11 1015.42,1249.08 1017.41,1255.99 1019.4,1262.82 1021.39,1269.56 1023.39,1276.19 1025.38,1282.71 1027.37,1289.11 1029.37,1295.36 1031.36,1301.47 1033.35,1307.41 1035.35,1313.18 1037.34,1318.76 1039.33,1324.15 1041.33,1329.33 1043.32,1334.3 1045.31,1339.03 1047.31,1343.53 1049.3,1347.78 1051.29,1351.78 1053.28,1355.52 1055.28,1358.98 1057.27,1362.17 1059.26,1365.07 1061.26,1367.68 1063.25,1370 1065.24,1372.01 1067.24,1373.73 1069.23,1375.14 1071.22,1376.23 1073.22,1377.02 1075.21,1377.49 1077.2,1377.65 1079.2,1377.5 1081.19,1377.04 1083.18,1376.27 1085.18,1375.18 1087.17,1373.8 1089.16,1372.11 1091.15,1370.13 1093.15,1367.86 1095.14,1365.3 1097.13,1362.47 1099.13,1359.37 1101.12,1356.01 1103.11,1352.4 1105.11,1348.56 1107.1,1344.48 1109.09,1340.19 1111.09,1335.7 1113.08,1331.02 1115.07,1326.16 1117.07,1321.14 1119.06,1315.98 1121.05,1310.7 1123.05,1305.3 1125.04,1299.81 1127.03,1294.24 1129.02,1288.61 1131.02,1282.94 1133.01,1277.25 1135,1271.56 1137,1265.88 1138.99,1260.23 1140.98,1254.64 1142.98,1249.11 1144.97,1243.67 1146.96,1238.33 1148.96,1233.11 1150.95,1228.04 1152.94,1223.11 1154.94,1218.35 1156.93,1213.78 1158.92,1209.41 1160.91,1205.25 1162.91,1201.31 1164.9,1197.61 1166.89,1194.15 1168.89,1190.96 1170.88,1188.03 1172.87,1185.37 1174.87,1183 1176.86,1180.92 1178.85,1179.13 1180.85,1177.63 1182.84,1176.44 1184.83,1175.55 1186.83,1174.96 1188.82,1174.67 1190.81,1174.69 1192.81,1174.99 1194.8,1175.6 1196.79,1176.48 1198.78,1177.65 1200.78,1179.09 1202.77,1180.79 1204.76,1182.75 1206.76,1184.95 1208.75,1187.37 1210.74,1190.02 1212.74,1192.87 1214.73,1195.92 1216.72,1199.14 1218.72,1202.53 1220.71,1206.06 1222.7,1209.73 1224.7,1213.52 1226.69,1217.41 1228.68,1221.39 1230.67,1225.45 1232.67,1229.58 1234.66,1233.75 1236.65,1237.96 1238.65,1242.2 1240.64,1246.45 1242.63,1250.71 1244.63,1254.97 1246.62,1259.21 1248.61,1263.44 1250.61,1267.64 1252.6,1271.82 1254.59,1275.95 1256.59,1280.05 1258.58,1284.11 1260.57,1288.11 1262.57,1292.07 1264.56,1295.98 1266.55,1299.84 1268.54,1303.65 1270.54,1307.4 1272.53,1311.09 1274.52,1314.73 1276.52,1318.31 1278.51,1321.83 1280.5,1325.29 1282.5,1328.69 1284.49,1332.02 1286.48,1335.29 1288.48,1338.49 1290.47,1341.61 1292.46,1344.66 1294.46,1347.64 1296.45,1350.53 1298.44,1353.34 1300.44,1356.06 1302.43,1358.68 1304.42,1361.21 1306.41,1363.64 1308.41,1365.97 1310.4,1368.19 1312.39,1370.3 1314.39,1372.3 1316.38,1374.17 1318.37,1375.93 1320.37,1377.56 1322.36,1379.06 1324.35,1380.43 1326.35,1381.67 1328.34,1382.77 1330.33,1383.74 1332.33,1384.56 1334.32,1385.23 1336.31,1385.75 1338.3,1386.12 1340.3,1386.34 1342.29,1386.4 1344.28,1386.29 1346.28,1386.01 1348.27,1385.56 1350.26,1384.93 1352.26,1384.12 1354.25,1383.12 1356.24,1381.92 1358.24,1380.52 1360.23,1378.92 1362.22,1377.1 1364.22,1375.05 1366.21,1372.78 1368.2,1370.28 1370.2,1367.54 1372.19,1364.54 1374.18,1361.29 1376.17,1357.79 1378.17,1354.01 1380.16,1349.97 1382.15,1345.64 1384.15,1341.04 1386.14,1336.15 1388.13,1330.97 1390.13,1325.5 1392.12,1319.73 1394.11,1313.66 1396.11,1307.3 1398.1,1300.63 1400.09,1293.66 1402.09,1286.39 1404.08,1278.82 1406.07,1270.95 1408.06,1262.78 1410.06,1254.31 1412.05,1245.54 1414.04,1236.48 1416.04,1227.13 1418.03,1217.49 1420.02,1207.57 1422.02,1197.37 1424.01,1186.9 1426,1176.15 1428,1165.15 1429.99,1153.89 1431.98,1142.38 1433.98,1130.64 1435.97,1118.67 1437.96,1106.49 1439.96,1094.1 1441.95,1081.53 1443.94,1068.79 1445.93,1055.9 1447.93,1042.87 1449.92,1029.72 1451.91,1016.48 1453.91,1003.17 1455.9,989.82 1457.89,976.445 1459.89,963.078 1461.88,949.746 1463.87,936.478 1465.87,923.305 1467.86,910.255 1469.85,897.361 1471.85,884.652 1473.84,872.159 1475.83,859.913 1477.82,847.942 1479.82,836.276 1481.81,824.942 1483.8,813.965 1485.8,803.37 1487.79,793.179 1489.78,783.413 1491.78,774.088 1493.77,765.22 1495.76,756.821 1497.76,748.903 1499.75,741.47 1501.74,734.529 1503.74,728.078 1505.73,722.119 1507.72,716.644 1509.72,711.649 1511.71,707.122 1513.7,703.051 1515.69,699.423 1517.69,696.221 1519.68,693.426 1521.67,691.018 1523.67,688.976 1525.66,687.279 1527.65,685.902 1529.65,684.821 1531.64,684.014 1533.63,683.456 1535.63,683.123 1537.62,682.991 1539.61,683.039 1541.61,683.244 1543.6,683.586 1545.59,684.044 1547.59,684.602 1549.58,685.241 1551.57,685.947 1553.56,686.706 1555.56,687.506 1557.55,688.336 1559.54,689.186 1561.54,690.051 1563.53,690.922 1565.52,691.797 1567.52,692.67 1569.51,693.54 1571.5,694.406 1573.5,695.266 1575.49,696.122 1577.48,696.974 1579.48,697.824 1581.47,698.674 1583.46,699.525 1585.45,700.379 1587.45,701.24 1589.44,702.109 1591.43,702.988 1593.43,703.878 1595.42,704.782 1597.41,705.701 1599.41,706.634 1601.4,707.583 1603.39,708.547 1605.39,709.527 1607.38,710.521 1609.37,711.528 1611.37,712.548 1613.36,713.578 1615.35,714.617 1617.35,715.664 1619.34,716.716 1621.33,717.772 1623.32,718.83 1625.32,719.887 1627.31,720.944 1629.3,721.997 1631.3,723.047 1633.29,724.092 1635.28,725.132 1637.28,726.166 1639.27,727.195 1641.26,728.218 1643.26,729.235 1645.25,730.248 1647.24,731.257 1649.24,732.263 1651.23,733.266 1653.22,734.269 1655.21,735.271 1657.21,736.275 1659.2,737.28 1661.19,738.288 1663.19,739.299 1665.18,740.313 1667.17,741.331 1669.17,742.352 1671.16,743.376 1673.15,744.402 1675.15,745.43 1677.14,746.458 1679.13,747.484 1681.13,748.508 1683.12,749.526 1685.11,750.538 1687.11,751.541 1689.1,752.533 1691.09,753.512 1693.08,754.475 1695.08,755.421 1697.07,756.347 1699.06,757.252 1701.06,758.133 1703.05,758.99 1705.04,759.821 1707.04,760.624 1709.03,761.399 1711.02,762.145 1713.02,762.861 1715.01,763.547 1717,764.202 1719,764.826 1720.99,765.418 1722.98,765.978 1724.97,766.505 1726.97,766.999 1728.96,767.459 1730.95,767.885 1732.95,768.274 1734.94,768.626 1736.93,768.938 1738.93,769.209 1740.92,769.437 1742.91,769.62 1744.91,769.753 1746.9,769.836 1748.89,769.864 1750.89,769.836 1752.88,769.747 1754.87,769.595 1756.87,769.378 1758.86,769.093 1760.85,768.737 1762.84,768.31 1764.84,767.809 1766.83,767.235 1768.82,766.587 1770.82,765.866 1772.81,765.073 1774.8,764.21 1776.8,763.281 1778.79,762.289 1780.78,761.239 1782.78,760.135 1784.77,758.983 1786.76,757.79 1788.76,756.562 1790.75,755.307 1792.74,754.033 1794.74,752.746 1796.73,751.456 1798.72,750.169 1800.71,748.894 1802.71,747.637 1804.7,746.407 1806.69,745.209 1808.69,744.049 1810.68,742.934 1812.67,741.867 1814.67,740.852 1816.66,739.892 1818.65,738.99 1820.65,738.146 1822.64,737.362 1824.63,736.637 1826.63,735.969 1828.62,735.359 1830.61,734.802 1832.6,734.296 1834.6,733.839 1836.59,733.425 1838.58,733.052 1840.58,732.716 1842.57,732.411 1844.56,732.135 1846.56,731.883 1848.55,731.651 1850.54,731.435 1852.54,731.232 1854.53,731.04 1856.52,730.855 1858.52,730.675 1860.51,730.498 1862.5,730.323 1864.5,730.147 1866.49,729.97 1868.48,729.792 1870.47,729.611 1872.47,729.428 1874.46,729.242 1876.45,729.053 1878.45,728.861 1880.44,728.666 1882.43,728.468 1884.43,728.266 1886.42,728.062 1888.41,727.854 1890.41,727.643 1892.4,727.427 1894.39,727.207 1896.39,726.982 1898.38,726.752 1900.37,726.515 1902.36,726.272 1904.36,726.021 1906.35,725.763 1908.34,725.498 1910.34,725.224 1912.33,724.942 1914.32,724.652 1916.32,724.354 1918.31,724.048 1920.3,723.735 1922.3,723.417 1924.29,723.092 1926.28,722.762 1928.28,722.429 1930.27,722.092 1932.26,721.753 1934.26,721.413 1936.25,721.071 1938.24,720.729 1940.23,720.387 1942.23,720.044 1944.22,719.702 1946.21,719.358 1948.21,719.013 1950.2,718.665 1952.19,718.313 1954.19,717.957 1956.18,717.593 1958.17,717.222 1960.17,716.84 1962.16,716.446 1964.15,716.038 1966.15,715.614 1968.14,715.174 1970.13,714.716 1972.12,714.238 1974.12,713.74 1976.11,713.223 1978.1,712.685 1980.1,712.129 1982.09,711.554 1984.08,710.962 1986.08,710.355 1988.07,709.735 1990.06,709.105 1992.06,708.467 1994.05,707.823 1996.04,707.176 1998.04,706.529 2000.03,705.885 2002.02,705.244 2004.02,704.61 2006.01,703.982 2008,703.361 2009.99,702.748 2011.99,702.141 2013.98,701.539 2015.97,700.94 2017.97,700.339 2019.96,699.734 2021.95,699.12 2023.95,698.492 2025.94,697.844 2027.93,697.172 2029.93,696.469 2031.92,695.729 2033.91,694.948 2035.91,694.12 2037.9,693.241 2039.89,692.307 2041.89,691.318 2043.88,690.271 2045.87,689.166 2047.86,688.007 2049.86,686.796 2051.85,685.54 2053.84,684.244 2055.84,682.919 2057.83,681.575 2059.82,680.224 2061.82,678.881 2063.81,677.56 2065.8,676.279 2067.8,675.054 2069.79,673.903 2071.78,672.845 2073.78,671.899 2075.77,671.082 2077.76,670.412 2079.75,669.906 2081.75,669.578 2083.74,669.442 2085.73,669.511 2087.73,669.792 2089.72,670.295 2091.71,671.022 2093.71,671.976 2095.7,673.156 2097.69,674.558 2099.69,676.175 2101.68,677.998 2103.67,680.015 2105.67,682.21 2107.66,684.568 2109.65,687.068 2111.65,689.692 2113.64,692.415 2115.63,695.216 2117.62,698.071 2119.62,700.955 2121.61,703.844 2123.6,706.716 2125.6,709.546 2127.59,712.314 2129.58,714.999 2131.58,717.583 2133.57,720.048 2135.56,722.381 2137.56,724.57 2139.55,726.604 2141.54,728.476 2143.54,730.182 2145.53,731.718 2147.52,733.086 2149.51,734.286 2151.51,735.324 2153.5,736.205 2155.49,736.936 2157.49,737.528 2159.48,737.99 2161.47,738.334 2163.47,738.572 2165.46,738.715 2167.45,738.777 2169.45,738.769 2171.44,738.704 2173.43,738.593 2175.43,738.448 2177.42,738.277 2179.41,738.091 2181.41,737.896 2183.4,737.701 2185.39,737.511 2187.38,737.33 2189.38,737.163 2191.37,737.012 2193.36,736.878 2195.36,736.762 2197.35,736.665 2199.34,736.585 2201.34,736.521 2203.33,736.472 2205.32,736.435 2207.32,736.408 2209.31,736.388 2211.3,736.374 2213.3,736.363 2215.29,736.353 2217.28,736.341 2219.27,736.326 2221.27,736.307 2223.26,736.282 2225.25,736.251 2227.25,736.213 2229.24,736.167 2231.23,736.115 2233.23,736.055 2235.22,735.988 2237.21,735.916 2239.21,735.838 2241.2,735.756 2243.19,735.67 2245.19,735.581 2247.18,735.49 2249.17,735.397 2251.17,735.303 2253.16,735.209 2255.15,735.115 2257.14,735.02 2259.14,734.926 2261.13,734.833 2263.12,734.739 2265.12,734.645 2267.11,734.552 2269.1,734.458 2271.1,734.363 2273.09,734.267 2275.08,734.169 2277.08,734.07 2279.07,733.969 2281.06,733.866 2283.06,733.76 2285.05,733.652 2287.04,733.541 2289.04,733.428 2291.03,733.312 2293.02,733.194 "/>
<path clip-path="url(#clip040)" d="M1928.03 322.316 L2282.4 322.316 L2282.4 166.796 L1928.03 166.796  Z" fill="#ffffff" fill-rule="evenodd" fill-opacity="1"/>
<polyline clip-path="url(#clip040)" style="stroke:#000000; stroke-linecap:round; stroke-linejoin:round; stroke-width:4; stroke-opacity:1; fill:none" points="1928.03,322.316 2282.4,322.316 2282.4,166.796 1928.03,166.796 1928.03,322.316 "/>
<polyline clip-path="url(#clip040)" style="stroke:#009af9; stroke-linecap:round; stroke-linejoin:round; stroke-width:8; stroke-opacity:1; fill:none" points="1951.48,218.636 2092.19,218.636 "/>
<path clip-path="url(#clip040)" d="M2115.64 201.356 L2120.32 201.356 L2120.32 235.916 L2115.64 235.916 L2115.64 201.356 Z" fill="#000000" fill-rule="nonzero" fill-opacity="1" /><path clip-path="url(#clip040)" d="M2134.3 205.198 L2134.3 218.184 L2140.18 218.184 Q2143.44 218.184 2145.22 216.495 Q2147.01 214.805 2147.01 211.68 Q2147.01 208.578 2145.22 206.888 Q2143.44 205.198 2140.18 205.198 L2134.3 205.198 M2129.62 201.356 L2140.18 201.356 Q2145.99 201.356 2148.95 203.995 Q2151.94 206.61 2151.94 211.68 Q2151.94 216.795 2148.95 219.411 Q2145.99 222.027 2140.18 222.027 L2134.3 222.027 L2134.3 235.916 L2129.62 235.916 L2129.62 201.356 Z" fill="#000000" fill-rule="nonzero" fill-opacity="1" /><path clip-path="url(#clip040)" d="M2174.6 219.712 Q2176.1 220.221 2177.52 221.888 Q2178.95 223.555 2180.39 226.471 L2185.13 235.916 L2180.11 235.916 L2175.69 227.05 Q2173.97 223.578 2172.35 222.444 Q2170.76 221.309 2167.98 221.309 L2162.89 221.309 L2162.89 235.916 L2158.21 235.916 L2158.21 201.356 L2168.77 201.356 Q2174.69 201.356 2177.61 203.833 Q2180.53 206.309 2180.53 211.309 Q2180.53 214.573 2179 216.726 Q2177.49 218.879 2174.6 219.712 M2162.89 205.198 L2162.89 217.467 L2168.77 217.467 Q2172.15 217.467 2173.86 215.916 Q2175.59 214.342 2175.59 211.309 Q2175.59 208.277 2173.86 206.749 Q2172.15 205.198 2168.77 205.198 L2162.89 205.198 Z" fill="#000000" fill-rule="nonzero" fill-opacity="1" /><path clip-path="url(#clip040)" d="M2214.67 204.018 L2214.67 208.948 Q2212.31 206.749 2209.62 205.661 Q2206.96 204.573 2203.95 204.573 Q2198.02 204.573 2194.88 208.208 Q2191.73 211.819 2191.73 218.67 Q2191.73 225.499 2194.88 229.133 Q2198.02 232.744 2203.95 232.744 Q2206.96 232.744 2209.62 231.656 Q2212.31 230.569 2214.67 228.369 L2214.67 233.254 Q2212.21 234.92 2209.46 235.754 Q2206.73 236.587 2203.67 236.587 Q2195.83 236.587 2191.31 231.795 Q2186.8 226.981 2186.8 218.67 Q2186.8 210.337 2191.31 205.546 Q2195.83 200.731 2203.67 200.731 Q2206.77 200.731 2209.51 201.564 Q2212.26 202.374 2214.67 204.018 Z" fill="#000000" fill-rule="nonzero" fill-opacity="1" /><path clip-path="url(#clip040)" d="M2258.33 209.99 L2248.95 222.606 L2258.81 235.916 L2253.79 235.916 L2246.24 225.731 L2238.7 235.916 L2233.67 235.916 L2243.74 222.351 L2234.53 209.99 L2239.55 209.99 L2246.43 219.226 L2253.3 209.99 L2258.33 209.99 Z" fill="#000000" fill-rule="nonzero" fill-opacity="1" /><polyline clip-path="url(#clip040)" style="stroke:#e26f46; stroke-linecap:round; stroke-linejoin:round; stroke-width:8; stroke-opacity:1; fill:none" points="1951.48,270.476 2092.19,270.476 "/>
<path clip-path="url(#clip040)" d="M2115.64 253.196 L2120.32 253.196 L2120.32 287.756 L2115.64 287.756 L2115.64 253.196 Z" fill="#000000" fill-rule="nonzero" fill-opacity="1" /><path clip-path="url(#clip040)" d="M2134.3 257.038 L2134.3 270.024 L2140.18 270.024 Q2143.44 270.024 2145.22 268.335 Q2147.01 266.645 2147.01 263.52 Q2147.01 260.418 2145.22 258.728 Q2143.44 257.038 2140.18 257.038 L2134.3 257.038 M2129.62 253.196 L2140.18 253.196 Q2145.99 253.196 2148.95 255.835 Q2151.94 258.45 2151.94 263.52 Q2151.94 268.635 2148.95 271.251 Q2145.99 273.867 2140.18 273.867 L2134.3 273.867 L2134.3 287.756 L2129.62 287.756 L2129.62 253.196 Z" fill="#000000" fill-rule="nonzero" fill-opacity="1" /><path clip-path="url(#clip040)" d="M2174.6 271.552 Q2176.1 272.061 2177.52 273.728 Q2178.95 275.395 2180.39 278.311 L2185.13 287.756 L2180.11 287.756 L2175.69 278.89 Q2173.97 275.418 2172.35 274.284 Q2170.76 273.149 2167.98 273.149 L2162.89 273.149 L2162.89 287.756 L2158.21 287.756 L2158.21 253.196 L2168.77 253.196 Q2174.69 253.196 2177.61 255.673 Q2180.53 258.149 2180.53 263.149 Q2180.53 266.413 2179 268.566 Q2177.49 270.719 2174.6 271.552 M2162.89 257.038 L2162.89 269.307 L2168.77 269.307 Q2172.15 269.307 2173.86 267.756 Q2175.59 266.182 2175.59 263.149 Q2175.59 260.117 2173.86 258.589 Q2172.15 257.038 2168.77 257.038 L2162.89 257.038 Z" fill="#000000" fill-rule="nonzero" fill-opacity="1" /><path clip-path="url(#clip040)" d="M2214.67 255.858 L2214.67 260.788 Q2212.31 258.589 2209.62 257.501 Q2206.96 256.413 2203.95 256.413 Q2198.02 256.413 2194.88 260.048 Q2191.73 263.659 2191.73 270.51 Q2191.73 277.339 2194.88 280.973 Q2198.02 284.584 2203.95 284.584 Q2206.96 284.584 2209.62 283.496 Q2212.31 282.409 2214.67 280.209 L2214.67 285.094 Q2212.21 286.76 2209.46 287.594 Q2206.73 288.427 2203.67 288.427 Q2195.83 288.427 2191.31 283.635 Q2186.8 278.821 2186.8 270.51 Q2186.8 262.177 2191.31 257.386 Q2195.83 252.571 2203.67 252.571 Q2206.77 252.571 2209.51 253.404 Q2212.26 254.214 2214.67 255.858 Z" fill="#000000" fill-rule="nonzero" fill-opacity="1" /><path clip-path="url(#clip040)" d="M2247.56 290.163 Q2245.76 294.793 2244.04 296.205 Q2242.33 297.617 2239.46 297.617 L2236.06 297.617 L2236.06 294.052 L2238.56 294.052 Q2240.32 294.052 2241.29 293.219 Q2242.26 292.385 2243.44 289.283 L2244.21 287.339 L2233.72 261.83 L2238.23 261.83 L2246.33 282.108 L2254.44 261.83 L2258.95 261.83 L2247.56 290.163 Z" fill="#000000" fill-rule="nonzero" fill-opacity="1" /></svg>
