<?xml version="1.0" encoding="utf-8"?>
<svg xmlns="http://www.w3.org/2000/svg" xmlns:xlink="http://www.w3.org/1999/xlink" width="600" height="400" viewBox="0 0 2400 1600">
<defs>
  <clipPath id="clip100">
    <rect x="0" y="0" width="2400" height="1600"/>
  </clipPath>
</defs>
<path clip-path="url(#clip100)" d="M0 1600 L2400 1600 L2400 0 L0 0  Z" fill="#ffffff" fill-rule="evenodd" fill-opacity="1"/>
<defs>
  <clipPath id="clip101">
    <rect x="156" y="47" width="2197" height="1377"/>
  </clipPath>
</defs>
<path clip-path="url(#clip100)" d="M219.866 1423.18 L2352.76 1423.18 L2352.76 47.2441 L219.866 47.2441  Z" fill="#ffffff" fill-rule="evenodd" fill-opacity="1"/>
<defs>
  <clipPath id="clip102">
    <rect x="219" y="47" width="2134" height="1377"/>
  </clipPath>
</defs>
<polyline clip-path="url(#clip102)" style="stroke:#000000; stroke-linecap:round; stroke-linejoin:round; stroke-width:2; stroke-opacity:0.1; fill:none" points="671.713,1423.18 671.713,47.2441 "/>
<polyline clip-path="url(#clip102)" style="stroke:#000000; stroke-linecap:round; stroke-linejoin:round; stroke-width:2; stroke-opacity:0.1; fill:none" points="1131.94,1423.18 1131.94,47.2441 "/>
<polyline clip-path="url(#clip102)" style="stroke:#000000; stroke-linecap:round; stroke-linejoin:round; stroke-width:2; stroke-opacity:0.1; fill:none" points="1592.16,1423.18 1592.16,47.2441 "/>
<polyline clip-path="url(#clip102)" style="stroke:#000000; stroke-linecap:round; stroke-linejoin:round; stroke-width:2; stroke-opacity:0.1; fill:none" points="2052.39,1423.18 2052.39,47.2441 "/>
<polyline clip-path="url(#clip102)" style="stroke:#000000; stroke-linecap:round; stroke-linejoin:round; stroke-width:2; stroke-opacity:0.1; fill:none" points="219.866,1193.01 2352.76,1193.01 "/>
<polyline clip-path="url(#clip102)" style="stroke:#000000; stroke-linecap:round; stroke-linejoin:round; stroke-width:2; stroke-opacity:0.1; fill:none" points="219.866,824.067 2352.76,824.067 "/>
<polyline clip-path="url(#clip102)" style="stroke:#000000; stroke-linecap:round; stroke-linejoin:round; stroke-width:2; stroke-opacity:0.1; fill:none" points="219.866,455.126 2352.76,455.126 "/>
<polyline clip-path="url(#clip102)" style="stroke:#000000; stroke-linecap:round; stroke-linejoin:round; stroke-width:2; stroke-opacity:0.1; fill:none" points="219.866,86.1857 2352.76,86.1857 "/>
<polyline clip-path="url(#clip100)" style="stroke:#000000; stroke-linecap:round; stroke-linejoin:round; stroke-width:4; stroke-opacity:1; fill:none" points="219.866,1423.18 2352.76,1423.18 "/>
<polyline clip-path="url(#clip100)" style="stroke:#000000; stroke-linecap:round; stroke-linejoin:round; stroke-width:4; stroke-opacity:1; fill:none" points="671.713,1423.18 671.713,1404.28 "/>
<polyline clip-path="url(#clip100)" style="stroke:#000000; stroke-linecap:round; stroke-linejoin:round; stroke-width:4; stroke-opacity:1; fill:none" points="1131.94,1423.18 1131.94,1404.28 "/>
<polyline clip-path="url(#clip100)" style="stroke:#000000; stroke-linecap:round; stroke-linejoin:round; stroke-width:4; stroke-opacity:1; fill:none" points="1592.16,1423.18 1592.16,1404.28 "/>
<polyline clip-path="url(#clip100)" style="stroke:#000000; stroke-linecap:round; stroke-linejoin:round; stroke-width:4; stroke-opacity:1; fill:none" points="2052.39,1423.18 2052.39,1404.28 "/>
<path clip-path="url(#clip100)" d="M649.896 1454.1 Q646.285 1454.1 644.456 1457.66 Q642.65 1461.2 642.65 1468.33 Q642.65 1475.44 644.456 1479.01 Q646.285 1482.55 649.896 1482.55 Q653.53 1482.55 655.335 1479.01 Q657.164 1475.44 657.164 1468.33 Q657.164 1461.2 655.335 1457.66 Q653.53 1454.1 649.896 1454.1 M649.896 1450.39 Q655.706 1450.39 658.761 1455 Q661.84 1459.58 661.84 1468.33 Q661.84 1477.06 658.761 1481.67 Q655.706 1486.25 649.896 1486.25 Q644.086 1486.25 641.007 1481.67 Q637.951 1477.06 637.951 1468.33 Q637.951 1459.58 641.007 1455 Q644.086 1450.39 649.896 1450.39 Z" fill="#000000" fill-rule="nonzero" fill-opacity="1" /><path clip-path="url(#clip100)" d="M670.058 1479.7 L674.942 1479.7 L674.942 1485.58 L670.058 1485.58 L670.058 1479.7 Z" fill="#000000" fill-rule="nonzero" fill-opacity="1" /><path clip-path="url(#clip100)" d="M689.155 1481.64 L705.474 1481.64 L705.474 1485.58 L683.53 1485.58 L683.53 1481.64 Q686.192 1478.89 690.775 1474.26 Q695.382 1469.61 696.562 1468.27 Q698.807 1465.74 699.687 1464.01 Q700.59 1462.25 700.59 1460.56 Q700.59 1457.8 698.645 1456.07 Q696.724 1454.33 693.622 1454.33 Q691.423 1454.33 688.97 1455.09 Q686.539 1455.86 683.761 1457.41 L683.761 1452.69 Q686.585 1451.55 689.039 1450.97 Q691.493 1450.39 693.53 1450.39 Q698.9 1450.39 702.094 1453.08 Q705.289 1455.77 705.289 1460.26 Q705.289 1462.39 704.479 1464.31 Q703.692 1466.2 701.585 1468.8 Q701.007 1469.47 697.905 1472.69 Q694.803 1475.88 689.155 1481.64 Z" fill="#000000" fill-rule="nonzero" fill-opacity="1" /><path clip-path="url(#clip100)" d="M1109.08 1454.1 Q1105.47 1454.1 1103.64 1457.66 Q1101.83 1461.2 1101.83 1468.33 Q1101.83 1475.44 1103.64 1479.01 Q1105.47 1482.55 1109.08 1482.55 Q1112.71 1482.55 1114.52 1479.01 Q1116.35 1475.44 1116.35 1468.33 Q1116.35 1461.2 1114.52 1457.66 Q1112.71 1454.1 1109.08 1454.1 M1109.08 1450.39 Q1114.89 1450.39 1117.94 1455 Q1121.02 1459.58 1121.02 1468.33 Q1121.02 1477.06 1117.94 1481.67 Q1114.89 1486.25 1109.08 1486.25 Q1103.27 1486.25 1100.19 1481.67 Q1097.13 1477.06 1097.13 1468.33 Q1097.13 1459.58 1100.19 1455 Q1103.27 1450.39 1109.08 1450.39 Z" fill="#000000" fill-rule="nonzero" fill-opacity="1" /><path clip-path="url(#clip100)" d="M1129.24 1479.7 L1134.12 1479.7 L1134.12 1485.58 L1129.24 1485.58 L1129.24 1479.7 Z" fill="#000000" fill-rule="nonzero" fill-opacity="1" /><path clip-path="url(#clip100)" d="M1157.16 1455.09 L1145.35 1473.54 L1157.16 1473.54 L1157.16 1455.09 M1155.93 1451.02 L1161.81 1451.02 L1161.81 1473.54 L1166.74 1473.54 L1166.74 1477.43 L1161.81 1477.43 L1161.81 1485.58 L1157.16 1485.58 L1157.16 1477.43 L1141.56 1477.43 L1141.56 1472.92 L1155.93 1451.02 Z" fill="#000000" fill-rule="nonzero" fill-opacity="1" /><path clip-path="url(#clip100)" d="M1569.47 1454.1 Q1565.85 1454.1 1564.03 1457.66 Q1562.22 1461.2 1562.22 1468.33 Q1562.22 1475.44 1564.03 1479.01 Q1565.85 1482.55 1569.47 1482.55 Q1573.1 1482.55 1574.91 1479.01 Q1576.73 1475.44 1576.73 1468.33 Q1576.73 1461.2 1574.91 1457.66 Q1573.1 1454.1 1569.47 1454.1 M1569.47 1450.39 Q1575.28 1450.39 1578.33 1455 Q1581.41 1459.58 1581.41 1468.33 Q1581.41 1477.06 1578.33 1481.67 Q1575.28 1486.25 1569.47 1486.25 Q1563.66 1486.25 1560.58 1481.67 Q1557.52 1477.06 1557.52 1468.33 Q1557.52 1459.58 1560.58 1455 Q1563.66 1450.39 1569.47 1450.39 Z" fill="#000000" fill-rule="nonzero" fill-opacity="1" /><path clip-path="url(#clip100)" d="M1589.63 1479.7 L1594.51 1479.7 L1594.51 1485.58 L1589.63 1485.58 L1589.63 1479.7 Z" fill="#000000" fill-rule="nonzero" fill-opacity="1" /><path clip-path="url(#clip100)" d="M1615.28 1466.44 Q1612.13 1466.44 1610.28 1468.59 Q1608.45 1470.74 1608.45 1474.49 Q1608.45 1478.22 1610.28 1480.39 Q1612.13 1482.55 1615.28 1482.55 Q1618.42 1482.55 1620.25 1480.39 Q1622.1 1478.22 1622.1 1474.49 Q1622.1 1470.74 1620.25 1468.59 Q1618.42 1466.44 1615.28 1466.44 M1624.56 1451.78 L1624.56 1456.04 Q1622.8 1455.21 1620.99 1454.77 Q1619.21 1454.33 1617.45 1454.33 Q1612.82 1454.33 1610.37 1457.45 Q1607.94 1460.58 1607.59 1466.9 Q1608.96 1464.89 1611.02 1463.82 Q1613.08 1462.73 1615.55 1462.73 Q1620.76 1462.73 1623.77 1465.9 Q1626.8 1469.05 1626.8 1474.49 Q1626.8 1479.82 1623.66 1483.03 Q1620.51 1486.25 1615.28 1486.25 Q1609.28 1486.25 1606.11 1481.67 Q1602.94 1477.06 1602.94 1468.33 Q1602.94 1460.14 1606.83 1455.28 Q1610.72 1450.39 1617.27 1450.39 Q1619.03 1450.39 1620.81 1450.74 Q1622.61 1451.09 1624.56 1451.78 Z" fill="#000000" fill-rule="nonzero" fill-opacity="1" /><path clip-path="url(#clip100)" d="M2029.82 1454.1 Q2026.21 1454.1 2024.38 1457.66 Q2022.57 1461.2 2022.57 1468.33 Q2022.57 1475.44 2024.38 1479.01 Q2026.21 1482.55 2029.82 1482.55 Q2033.45 1482.55 2035.26 1479.01 Q2037.09 1475.44 2037.09 1468.33 Q2037.09 1461.2 2035.26 1457.66 Q2033.45 1454.1 2029.82 1454.1 M2029.82 1450.39 Q2035.63 1450.39 2038.68 1455 Q2041.76 1459.58 2041.76 1468.33 Q2041.76 1477.06 2038.68 1481.67 Q2035.63 1486.25 2029.82 1486.25 Q2024.01 1486.25 2020.93 1481.67 Q2017.87 1477.06 2017.87 1468.33 Q2017.87 1459.58 2020.93 1455 Q2024.01 1450.39 2029.82 1450.39 Z" fill="#000000" fill-rule="nonzero" fill-opacity="1" /><path clip-path="url(#clip100)" d="M2049.98 1479.7 L2054.86 1479.7 L2054.86 1485.58 L2049.98 1485.58 L2049.98 1479.7 Z" fill="#000000" fill-rule="nonzero" fill-opacity="1" /><path clip-path="url(#clip100)" d="M2075.05 1469.17 Q2071.72 1469.17 2069.79 1470.95 Q2067.9 1472.73 2067.9 1475.86 Q2067.9 1478.98 2069.79 1480.77 Q2071.72 1482.55 2075.05 1482.55 Q2078.38 1482.55 2080.3 1480.77 Q2082.22 1478.96 2082.22 1475.86 Q2082.22 1472.73 2080.3 1470.95 Q2078.41 1469.17 2075.05 1469.17 M2070.37 1467.18 Q2067.36 1466.44 2065.67 1464.38 Q2064.01 1462.32 2064.01 1459.35 Q2064.01 1455.21 2066.95 1452.8 Q2069.91 1450.39 2075.05 1450.39 Q2080.21 1450.39 2083.15 1452.8 Q2086.09 1455.21 2086.09 1459.35 Q2086.09 1462.32 2084.4 1464.38 Q2082.73 1466.44 2079.75 1467.18 Q2083.13 1467.96 2085 1470.26 Q2086.9 1472.55 2086.9 1475.86 Q2086.9 1480.88 2083.82 1483.57 Q2080.77 1486.25 2075.05 1486.25 Q2069.33 1486.25 2066.25 1483.57 Q2063.2 1480.88 2063.2 1475.86 Q2063.2 1472.55 2065.1 1470.26 Q2066.99 1467.96 2070.37 1467.18 M2068.66 1459.79 Q2068.66 1462.48 2070.33 1463.98 Q2072.02 1465.49 2075.05 1465.49 Q2078.06 1465.49 2079.75 1463.98 Q2081.46 1462.48 2081.46 1459.79 Q2081.46 1457.11 2079.75 1455.6 Q2078.06 1454.1 2075.05 1454.1 Q2072.02 1454.1 2070.33 1455.6 Q2068.66 1457.11 2068.66 1459.79 Z" fill="#000000" fill-rule="nonzero" fill-opacity="1" /><path clip-path="url(#clip100)" d="M1283.1 1520.52 L1289.53 1520.52 L1289.53 1568.04 L1283.1 1568.04 L1283.1 1520.52 Z" fill="#000000" fill-rule="nonzero" fill-opacity="1" /><polyline clip-path="url(#clip100)" style="stroke:#000000; stroke-linecap:round; stroke-linejoin:round; stroke-width:4; stroke-opacity:1; fill:none" points="219.866,1423.18 219.866,47.2441 "/>
<polyline clip-path="url(#clip100)" style="stroke:#000000; stroke-linecap:round; stroke-linejoin:round; stroke-width:4; stroke-opacity:1; fill:none" points="219.866,1193.01 238.764,1193.01 "/>
<polyline clip-path="url(#clip100)" style="stroke:#000000; stroke-linecap:round; stroke-linejoin:round; stroke-width:4; stroke-opacity:1; fill:none" points="219.866,824.067 238.764,824.067 "/>
<polyline clip-path="url(#clip100)" style="stroke:#000000; stroke-linecap:round; stroke-linejoin:round; stroke-width:4; stroke-opacity:1; fill:none" points="219.866,455.126 238.764,455.126 "/>
<polyline clip-path="url(#clip100)" style="stroke:#000000; stroke-linecap:round; stroke-linejoin:round; stroke-width:4; stroke-opacity:1; fill:none" points="219.866,86.1857 238.764,86.1857 "/>
<path clip-path="url(#clip100)" d="M128.288 1178.81 Q124.677 1178.81 122.848 1182.37 Q121.043 1185.91 121.043 1193.04 Q121.043 1200.15 122.848 1203.71 Q124.677 1207.26 128.288 1207.26 Q131.922 1207.26 133.728 1203.71 Q135.556 1200.15 135.556 1193.04 Q135.556 1185.91 133.728 1182.37 Q131.922 1178.81 128.288 1178.81 M128.288 1175.1 Q134.098 1175.1 137.154 1179.71 Q140.232 1184.29 140.232 1193.04 Q140.232 1201.77 137.154 1206.38 Q134.098 1210.96 128.288 1210.96 Q122.478 1210.96 119.399 1206.38 Q116.343 1201.77 116.343 1193.04 Q116.343 1184.29 119.399 1179.71 Q122.478 1175.1 128.288 1175.1 Z" fill="#000000" fill-rule="nonzero" fill-opacity="1" /><path clip-path="url(#clip100)" d="M148.45 1204.41 L153.334 1204.41 L153.334 1210.29 L148.45 1210.29 L148.45 1204.41 Z" fill="#000000" fill-rule="nonzero" fill-opacity="1" /><path clip-path="url(#clip100)" d="M167.547 1206.35 L183.866 1206.35 L183.866 1210.29 L161.922 1210.29 L161.922 1206.35 Q164.584 1203.6 169.167 1198.97 Q173.774 1194.32 174.954 1192.97 Q177.2 1190.45 178.079 1188.71 Q178.982 1186.95 178.982 1185.26 Q178.982 1182.51 177.038 1180.77 Q175.116 1179.04 172.014 1179.04 Q169.815 1179.04 167.362 1179.8 Q164.931 1180.57 162.153 1182.12 L162.153 1177.39 Q164.977 1176.26 167.431 1175.68 Q169.885 1175.1 171.922 1175.1 Q177.292 1175.1 180.487 1177.79 Q183.681 1180.47 183.681 1184.96 Q183.681 1187.09 182.871 1189.01 Q182.084 1190.91 179.977 1193.51 Q179.399 1194.18 176.297 1197.39 Q173.195 1200.59 167.547 1206.35 Z" fill="#000000" fill-rule="nonzero" fill-opacity="1" /><path clip-path="url(#clip100)" d="M126.205 809.866 Q122.593 809.866 120.765 813.43 Q118.959 816.972 118.959 824.102 Q118.959 831.208 120.765 834.773 Q122.593 838.314 126.205 838.314 Q129.839 838.314 131.644 834.773 Q133.473 831.208 133.473 824.102 Q133.473 816.972 131.644 813.43 Q129.839 809.866 126.205 809.866 M126.205 806.162 Q132.015 806.162 135.07 810.768 Q138.149 815.352 138.149 824.102 Q138.149 832.828 135.07 837.435 Q132.015 842.018 126.205 842.018 Q120.394 842.018 117.316 837.435 Q114.26 832.828 114.26 824.102 Q114.26 815.352 117.316 810.768 Q120.394 806.162 126.205 806.162 Z" fill="#000000" fill-rule="nonzero" fill-opacity="1" /><path clip-path="url(#clip100)" d="M146.366 835.467 L151.251 835.467 L151.251 841.347 L146.366 841.347 L146.366 835.467 Z" fill="#000000" fill-rule="nonzero" fill-opacity="1" /><path clip-path="url(#clip100)" d="M174.283 810.861 L162.477 829.31 L174.283 829.31 L174.283 810.861 M173.056 806.787 L178.936 806.787 L178.936 829.31 L183.866 829.31 L183.866 833.199 L178.936 833.199 L178.936 841.347 L174.283 841.347 L174.283 833.199 L158.681 833.199 L158.681 828.685 L173.056 806.787 Z" fill="#000000" fill-rule="nonzero" fill-opacity="1" /><path clip-path="url(#clip100)" d="M126.529 440.925 Q122.918 440.925 121.089 444.49 Q119.283 448.031 119.283 455.161 Q119.283 462.267 121.089 465.832 Q122.918 469.374 126.529 469.374 Q130.163 469.374 131.968 465.832 Q133.797 462.267 133.797 455.161 Q133.797 448.031 131.968 444.49 Q130.163 440.925 126.529 440.925 M126.529 437.221 Q132.339 437.221 135.394 441.828 Q138.473 446.411 138.473 455.161 Q138.473 463.888 135.394 468.494 Q132.339 473.078 126.529 473.078 Q120.718 473.078 117.64 468.494 Q114.584 463.888 114.584 455.161 Q114.584 446.411 117.64 441.828 Q120.718 437.221 126.529 437.221 Z" fill="#000000" fill-rule="nonzero" fill-opacity="1" /><path clip-path="url(#clip100)" d="M146.691 466.527 L151.575 466.527 L151.575 472.406 L146.691 472.406 L146.691 466.527 Z" fill="#000000" fill-rule="nonzero" fill-opacity="1" /><path clip-path="url(#clip100)" d="M172.339 453.263 Q169.19 453.263 167.339 455.416 Q165.51 457.568 165.51 461.318 Q165.51 465.045 167.339 467.221 Q169.19 469.374 172.339 469.374 Q175.487 469.374 177.315 467.221 Q179.167 465.045 179.167 461.318 Q179.167 457.568 177.315 455.416 Q175.487 453.263 172.339 453.263 M181.621 438.61 L181.621 442.869 Q179.862 442.036 178.056 441.596 Q176.274 441.156 174.514 441.156 Q169.885 441.156 167.431 444.281 Q165.001 447.406 164.653 453.726 Q166.019 451.712 168.079 450.647 Q170.139 449.559 172.616 449.559 Q177.825 449.559 180.834 452.73 Q183.866 455.879 183.866 461.318 Q183.866 466.642 180.718 469.86 Q177.57 473.078 172.339 473.078 Q166.343 473.078 163.172 468.494 Q160.001 463.888 160.001 455.161 Q160.001 446.967 163.89 442.105 Q167.778 437.221 174.329 437.221 Q176.089 437.221 177.871 437.568 Q179.676 437.916 181.621 438.61 Z" fill="#000000" fill-rule="nonzero" fill-opacity="1" /><path clip-path="url(#clip100)" d="M126.783 71.9844 Q123.172 71.9844 121.343 75.5492 Q119.538 79.0908 119.538 86.2204 Q119.538 93.3268 121.343 96.8916 Q123.172 100.433 126.783 100.433 Q130.417 100.433 132.223 96.8916 Q134.052 93.3268 134.052 86.2204 Q134.052 79.0908 132.223 75.5492 Q130.417 71.9844 126.783 71.9844 M126.783 68.2807 Q132.593 68.2807 135.649 72.8871 Q138.728 77.4704 138.728 86.2204 Q138.728 94.9472 135.649 99.5537 Q132.593 104.137 126.783 104.137 Q120.973 104.137 117.894 99.5537 Q114.839 94.9472 114.839 86.2204 Q114.839 77.4704 117.894 72.8871 Q120.973 68.2807 126.783 68.2807 Z" fill="#000000" fill-rule="nonzero" fill-opacity="1" /><path clip-path="url(#clip100)" d="M146.945 97.5861 L151.829 97.5861 L151.829 103.466 L146.945 103.466 L146.945 97.5861 Z" fill="#000000" fill-rule="nonzero" fill-opacity="1" /><path clip-path="url(#clip100)" d="M172.014 87.0537 Q168.681 87.0537 166.76 88.8361 Q164.862 90.6185 164.862 93.7435 Q164.862 96.8685 166.76 98.6509 Q168.681 100.433 172.014 100.433 Q175.348 100.433 177.269 98.6509 Q179.19 96.8453 179.19 93.7435 Q179.19 90.6185 177.269 88.8361 Q175.371 87.0537 172.014 87.0537 M167.339 85.063 Q164.329 84.3223 162.64 82.2621 Q160.973 80.2019 160.973 77.239 Q160.973 73.0955 163.913 70.6881 Q166.876 68.2807 172.014 68.2807 Q177.176 68.2807 180.116 70.6881 Q183.056 73.0955 183.056 77.239 Q183.056 80.2019 181.366 82.2621 Q179.7 84.3223 176.714 85.063 Q180.093 85.85 181.968 88.1417 Q183.866 90.4333 183.866 93.7435 Q183.866 98.7666 180.788 101.452 Q177.732 104.137 172.014 104.137 Q166.297 104.137 163.218 101.452 Q160.163 98.7666 160.163 93.7435 Q160.163 90.4333 162.061 88.1417 Q163.959 85.85 167.339 85.063 M165.626 77.6788 Q165.626 80.3639 167.292 81.8686 Q168.982 83.3732 172.014 83.3732 Q175.024 83.3732 176.714 81.8686 Q178.426 80.3639 178.426 77.6788 Q178.426 74.9936 176.714 73.489 Q175.024 71.9844 172.014 71.9844 Q168.982 71.9844 167.292 73.489 Q165.626 74.9936 165.626 77.6788 Z" fill="#000000" fill-rule="nonzero" fill-opacity="1" /><path clip-path="url(#clip100)" d="M16.4842 750.521 L16.4842 720.475 L21.895 720.475 L21.895 744.092 L35.9632 744.092 L35.9632 721.462 L41.3741 721.462 L41.3741 744.092 L58.5933 744.092 L58.5933 719.902 L64.0042 719.902 L64.0042 750.521 L16.4842 750.521 Z" fill="#000000" fill-rule="nonzero" fill-opacity="1" /><polyline clip-path="url(#clip102)" style="stroke:#009af9; stroke-linecap:round; stroke-linejoin:round; stroke-width:8; stroke-opacity:1; fill:none" points="2052.39,86.1857 2134.89,226.822 2202.24,353.696 2288.24,569.123 2288.91,572.715 2292.39,607.923 2224.35,728.892 2188.57,752.032 1980.47,837.577 1778.68,898.845 1455.6,990.609 1357.98,1019.05 1109.45,1095.41 1041.82,1117.46 859.24,1180.51 687.046,1246.22 536.912,1310.71 422.305,1363.08 342.312,1383.28 294.299,1332.83 282.504,1143.25 371.809,880.906 1002.84,585.882 1543.44,681.539 1725.22,875.464 1310.63,1035.94 901.728,1167.33 517.897,1320.23 387.839,1376.86 302.322,1354.17 281.288,1160.36 415.014,837.303 1103.49,562.836 1638.32,743.264 1532.87,965.831 909.774,1164.35 614.123,1277.49 407.895,1369.54 316.737,1373.11 280.262,1211.05 373.538,878.426 995.954,587.526 1617.25,725.709 1559.25,956.628 911.896,1163.49 617.058,1276.18 405.914,1370.28 315.598,1372.04 280.265,1202.48 382.51,868.389 1073.11,569.36 1637.43,743.595 1490.85,979.991 931.021,1157.09 599.824,1283.67 406.549,1370.1 313.876,1370.48 280.238,1200.43 385.928,864.708 1102.61,563.552 1650.52,751.205 1498.83,977.402 938.863,1154.41 608.114,1280.12 410.884,1368.39 316.353,1372.83 280.254,1212.47 374.76,876.974 1001.39,586.073 1619.54,727.894 1542.05,962.683 820.823,1195.9 580.952,1291.7 384.941,1377.62 307.334,1362.32 281.515,1158 416.149,836.427 1119.82,559.888 1655.79,753.646 1515.93,971.76 948.704,1151.04 623.208,1273.7 418.098,1365.44 320.809,1376.29 280.64,1231.7 326.763,950.069 703.184,684.811 1399.67,629.699 1713.29,877.714 1296.94,1040.28 868.965,1179 498.548,1329.2 373.344,1381.04 295.485,1337.91 282.11,1145.36 411.224,840.628 1048.98,574.067 1593.49,714.84 1584.2,947.11 1057.01,1114.79 698.581,1242.7 458.743,1347.43 343.111,1383.95 286.505,1299.21 288.913,1081.24 449.753,810.587 998.385,586.52 1548.49,684.985 1728.42,871.505 1328.17,1030.6 921.783,1160.36 501.307,1327.91 382.8,1378.46 298.742,1346.53 282.531,1139.68 435.765,820.641 1076.94,567.747 1622.2,733.838 1533.92,965.32 847.707,1186.21 585.514,1289.76 388.582,1376.5 307.87,1363.14 281.362,1160.77 417.597,835.176 1125.33,558.872 1663.24,758.127 1506.04,975.133 953.297,1149.52 620.089,1275.03 418.173,1365.42 320.406,1376.03 280.613,1231.01 327.733,948.06 708.56,682.733 1411.91,634.195 1728.4,855.811 1321.75,1032.74 901.053,1167.7 473.123,1341.05 364.576,1382.95 290.094,1318.6 284.481,1116.43 433.067,822.772 1011.49,583.049 1570.3,698.336 1692.16,898.819 1248.6,1054.77 847.331,1186.58 523.937,1317.42 385.224,1377.66 303.336,1356.02 281.208,1162.35 409.419,842.187 1118.2,560.238 1647.9,748.406 1527.48,967.807 934.835,1155.74 622.932,1273.79 415.324,1366.58 320.021,1375.72 280.513,1227.07 331.748,940.145 734.273,672.984 1401.14,628.109 1731.26,838.18 1353.43,1023.15 938.545,1154.76 518.888,1319.87 389.225,1376.48 301.693,1353.05 281.512,1155.57 423.397,830.296 1093.76,564.54 1634.52,741.326 1532.93,965.749 901.993,1167.04 610.628,1278.97 405.413,1370.5 315.578,1372.07 280.245,1205.21 378.451,872.83 1035.49,577.615 1625.02,734.367 1472.58,986.157 920.914,1160.62 584.277,1290.44 399.615,1372.74 309.751,1365.81 280.6,1179.08 406.65,844.608 1085.41,566.426 1607.71,724.313 1544.63,961.523 931.408,1156.75 628.682,1271.28 415.914,1366.29 320.947,1376.31 280.602,1229.47 328.584,946.401 715.732,680 1427.16,639.292 1732.18,847.472 1325.13,1031.75 909.126,1164.9 473.045,1341.11 365.178,1382.85 290.173,1318.98 284.405,1117.13 432.984,822.83 1012.28,582.841 1571.06,698.844 1690.3,899.901 1245.25,1055.79 844.381,1187.64 523.254,1317.73 384.609,1377.85 303.112,1355.61 281.289,1160.69 410.823,840.953 1111.8,561.381 1642.74,745.57 1531.42,966.393 921.472,1160.31 618.817,1275.51 411.519,1368.11 318.391,1374.49 280.351,1219.18 366.856,886.454 949.394,600.601 1608.61,713.361 1637.33,927.255 1100.61,1100.87 730.512,1230.2 470.518,1342.04 349.661,1384.24 288.498,1310.62 286.196,1101.37 431.368,824.185 990.469,588.717 1550.04,684.898 1727.5,873.181 1318.52,1033.54 911.805,1163.81 514.3,1321.9 387.596,1376.95 301.769,1353.1 281.376,1158.52 416.935,835.671 1097.39,563.951 1634.19,740.916 1534.21,965.324 895.054,1169.46 607.901,1280.13 403.344,1371.29 314.658,1371.19 280.26,1200.37 382.497,868.398 1073.98,569.184 1635.81,742.457 1493.46,979.123 930.749,1157.17 601.148,1283.1 406.929,1369.95 314.176,1370.77 280.233,1201.72 384.632,866.076 1088.5,566.256 1643.32,747.13 1498.42,977.486 934.791,1155.79 605.82,1281.09 409.231,1369.04 315.51,1372.06 280.231,1208.16 378.636,872.586 1032.18,578.374 1625.76,734.704 1472.59,986.16 920.731,1160.69 583.98,1290.57 399.418,1372.82 309.637,1365.66 280.62,1178.37 407.389,843.944 1111.36,561.504 1633.07,739.283 1546.04,961.273 805.051,1201.68 588.857,1288.23 389.65,1376.1 311.918,1368.2 280.438,1188.32 381.983,869.045 1086.02,566.849 1631.8,739.467 1510.25,973.49 1420.61,1002.15 "/>
<path clip-path="url(#clip100)" d="M290.963 196.789 L556.682 196.789 L556.682 93.1086 L290.963 93.1086  Z" fill="#ffffff" fill-rule="evenodd" fill-opacity="1"/>
<polyline clip-path="url(#clip100)" style="stroke:#000000; stroke-linecap:round; stroke-linejoin:round; stroke-width:4; stroke-opacity:1; fill:none" points="290.963,196.789 556.682,196.789 556.682,93.1086 290.963,93.1086 290.963,196.789 "/>
<polyline clip-path="url(#clip100)" style="stroke:#009af9; stroke-linecap:round; stroke-linejoin:round; stroke-width:8; stroke-opacity:1; fill:none" points="314.661,144.949 456.854,144.949 "/>
<path clip-path="url(#clip100)" d="M494.395 164.636 Q492.59 169.266 490.877 170.678 Q489.164 172.09 486.293 172.09 L482.891 172.09 L482.891 168.525 L485.391 168.525 Q487.15 168.525 488.122 167.692 Q489.094 166.858 490.275 163.756 L491.039 161.812 L480.553 136.303 L485.067 136.303 L493.168 156.581 L501.27 136.303 L505.784 136.303 L494.395 164.636 Z" fill="#000000" fill-rule="nonzero" fill-opacity="1" /><path clip-path="url(#clip100)" d="M513.076 158.293 L520.715 158.293 L520.715 131.928 L512.404 133.595 L512.404 129.335 L520.668 127.669 L525.344 127.669 L525.344 158.293 L532.983 158.293 L532.983 162.229 L513.076 162.229 L513.076 158.293 Z" fill="#000000" fill-rule="nonzero" fill-opacity="1" /></svg>
