<?xml version="1.0" encoding="utf-8"?>
<svg xmlns="http://www.w3.org/2000/svg" xmlns:xlink="http://www.w3.org/1999/xlink" width="600" height="400" viewBox="0 0 2400 1600">
<defs>
  <clipPath id="clip160">
    <rect x="0" y="0" width="2400" height="1600"/>
  </clipPath>
</defs>
<path clip-path="url(#clip160)" d="M0 1600 L2400 1600 L2400 0 L0 0  Z" fill="#ffffff" fill-rule="evenodd" fill-opacity="1"/>
<defs>
  <clipPath id="clip161">
    <rect x="186" y="47" width="2167" height="1377"/>
  </clipPath>
</defs>
<path clip-path="url(#clip160)" d="M219.866 1423.18 L2352.76 1423.18 L2352.76 47.2441 L219.866 47.2441  Z" fill="#ffffff" fill-rule="evenodd" fill-opacity="1"/>
<defs>
  <clipPath id="clip162">
    <rect x="219" y="47" width="2134" height="1377"/>
  </clipPath>
</defs>
<polyline clip-path="url(#clip162)" style="stroke:#000000; stroke-linecap:round; stroke-linejoin:round; stroke-width:2; stroke-opacity:0.1; fill:none" points="273.908,1423.18 273.908,47.2441 "/>
<polyline clip-path="url(#clip162)" style="stroke:#000000; stroke-linecap:round; stroke-linejoin:round; stroke-width:2; stroke-opacity:0.1; fill:none" points="779.482,1423.18 779.482,47.2441 "/>
<polyline clip-path="url(#clip162)" style="stroke:#000000; stroke-linecap:round; stroke-linejoin:round; stroke-width:2; stroke-opacity:0.1; fill:none" points="1285.06,1423.18 1285.06,47.2441 "/>
<polyline clip-path="url(#clip162)" style="stroke:#000000; stroke-linecap:round; stroke-linejoin:round; stroke-width:2; stroke-opacity:0.1; fill:none" points="1790.63,1423.18 1790.63,47.2441 "/>
<polyline clip-path="url(#clip162)" style="stroke:#000000; stroke-linecap:round; stroke-linejoin:round; stroke-width:2; stroke-opacity:0.1; fill:none" points="2296.2,1423.18 2296.2,47.2441 "/>
<polyline clip-path="url(#clip162)" style="stroke:#000000; stroke-linecap:round; stroke-linejoin:round; stroke-width:2; stroke-opacity:0.1; fill:none" points="219.866,1397.16 2352.76,1397.16 "/>
<polyline clip-path="url(#clip162)" style="stroke:#000000; stroke-linecap:round; stroke-linejoin:round; stroke-width:2; stroke-opacity:0.1; fill:none" points="219.866,1120.88 2352.76,1120.88 "/>
<polyline clip-path="url(#clip162)" style="stroke:#000000; stroke-linecap:round; stroke-linejoin:round; stroke-width:2; stroke-opacity:0.1; fill:none" points="219.866,844.595 2352.76,844.595 "/>
<polyline clip-path="url(#clip162)" style="stroke:#000000; stroke-linecap:round; stroke-linejoin:round; stroke-width:2; stroke-opacity:0.1; fill:none" points="219.866,568.311 2352.76,568.311 "/>
<polyline clip-path="url(#clip162)" style="stroke:#000000; stroke-linecap:round; stroke-linejoin:round; stroke-width:2; stroke-opacity:0.1; fill:none" points="219.866,292.026 2352.76,292.026 "/>
<polyline clip-path="url(#clip160)" style="stroke:#000000; stroke-linecap:round; stroke-linejoin:round; stroke-width:4; stroke-opacity:1; fill:none" points="219.866,1423.18 2352.76,1423.18 "/>
<polyline clip-path="url(#clip160)" style="stroke:#000000; stroke-linecap:round; stroke-linejoin:round; stroke-width:4; stroke-opacity:1; fill:none" points="273.908,1423.18 273.908,1404.28 "/>
<polyline clip-path="url(#clip160)" style="stroke:#000000; stroke-linecap:round; stroke-linejoin:round; stroke-width:4; stroke-opacity:1; fill:none" points="779.482,1423.18 779.482,1404.28 "/>
<polyline clip-path="url(#clip160)" style="stroke:#000000; stroke-linecap:round; stroke-linejoin:round; stroke-width:4; stroke-opacity:1; fill:none" points="1285.06,1423.18 1285.06,1404.28 "/>
<polyline clip-path="url(#clip160)" style="stroke:#000000; stroke-linecap:round; stroke-linejoin:round; stroke-width:4; stroke-opacity:1; fill:none" points="1790.63,1423.18 1790.63,1404.28 "/>
<polyline clip-path="url(#clip160)" style="stroke:#000000; stroke-linecap:round; stroke-linejoin:round; stroke-width:4; stroke-opacity:1; fill:none" points="2296.2,1423.18 2296.2,1404.28 "/>
<path clip-path="url(#clip160)" d="M236.212 1454.1 Q232.601 1454.1 230.772 1457.66 Q228.967 1461.2 228.967 1468.33 Q228.967 1475.44 230.772 1479.01 Q232.601 1482.55 236.212 1482.55 Q239.846 1482.55 241.652 1479.01 Q243.48 1475.44 243.48 1468.33 Q243.48 1461.2 241.652 1457.66 Q239.846 1454.1 236.212 1454.1 M236.212 1450.39 Q242.022 1450.39 245.078 1455 Q248.156 1459.58 248.156 1468.33 Q248.156 1477.06 245.078 1481.67 Q242.022 1486.25 236.212 1486.25 Q230.402 1486.25 227.323 1481.67 Q224.267 1477.06 224.267 1468.33 Q224.267 1459.58 227.323 1455 Q230.402 1450.39 236.212 1450.39 Z" fill="#000000" fill-rule="nonzero" fill-opacity="1" /><path clip-path="url(#clip160)" d="M256.374 1479.7 L261.258 1479.7 L261.258 1485.58 L256.374 1485.58 L256.374 1479.7 Z" fill="#000000" fill-rule="nonzero" fill-opacity="1" /><path clip-path="url(#clip160)" d="M281.443 1454.1 Q277.832 1454.1 276.003 1457.66 Q274.198 1461.2 274.198 1468.33 Q274.198 1475.44 276.003 1479.01 Q277.832 1482.55 281.443 1482.55 Q285.077 1482.55 286.883 1479.01 Q288.712 1475.44 288.712 1468.33 Q288.712 1461.2 286.883 1457.66 Q285.077 1454.1 281.443 1454.1 M281.443 1450.39 Q287.253 1450.39 290.309 1455 Q293.387 1459.58 293.387 1468.33 Q293.387 1477.06 290.309 1481.67 Q287.253 1486.25 281.443 1486.25 Q275.633 1486.25 272.554 1481.67 Q269.499 1477.06 269.499 1468.33 Q269.499 1459.58 272.554 1455 Q275.633 1450.39 281.443 1450.39 Z" fill="#000000" fill-rule="nonzero" fill-opacity="1" /><path clip-path="url(#clip160)" d="M311.605 1454.1 Q307.994 1454.1 306.165 1457.66 Q304.36 1461.2 304.36 1468.33 Q304.36 1475.44 306.165 1479.01 Q307.994 1482.55 311.605 1482.55 Q315.239 1482.55 317.045 1479.01 Q318.873 1475.44 318.873 1468.33 Q318.873 1461.2 317.045 1457.66 Q315.239 1454.1 311.605 1454.1 M311.605 1450.39 Q317.415 1450.39 320.471 1455 Q323.549 1459.58 323.549 1468.33 Q323.549 1477.06 320.471 1481.67 Q317.415 1486.25 311.605 1486.25 Q305.795 1486.25 302.716 1481.67 Q299.661 1477.06 299.661 1468.33 Q299.661 1459.58 302.716 1455 Q305.795 1450.39 311.605 1450.39 Z" fill="#000000" fill-rule="nonzero" fill-opacity="1" /><path clip-path="url(#clip160)" d="M742.283 1454.1 Q738.672 1454.1 736.843 1457.66 Q735.038 1461.2 735.038 1468.33 Q735.038 1475.44 736.843 1479.01 Q738.672 1482.55 742.283 1482.55 Q745.917 1482.55 747.723 1479.01 Q749.551 1475.44 749.551 1468.33 Q749.551 1461.2 747.723 1457.66 Q745.917 1454.1 742.283 1454.1 M742.283 1450.39 Q748.093 1450.39 751.149 1455 Q754.227 1459.58 754.227 1468.33 Q754.227 1477.06 751.149 1481.67 Q748.093 1486.25 742.283 1486.25 Q736.473 1486.25 733.394 1481.67 Q730.339 1477.06 730.339 1468.33 Q730.339 1459.58 733.394 1455 Q736.473 1450.39 742.283 1450.39 Z" fill="#000000" fill-rule="nonzero" fill-opacity="1" /><path clip-path="url(#clip160)" d="M762.445 1479.7 L767.329 1479.7 L767.329 1485.58 L762.445 1485.58 L762.445 1479.7 Z" fill="#000000" fill-rule="nonzero" fill-opacity="1" /><path clip-path="url(#clip160)" d="M781.542 1481.64 L797.861 1481.64 L797.861 1485.58 L775.917 1485.58 L775.917 1481.64 Q778.579 1478.89 783.162 1474.26 Q787.769 1469.61 788.949 1468.27 Q791.195 1465.74 792.074 1464.01 Q792.977 1462.25 792.977 1460.56 Q792.977 1457.8 791.033 1456.07 Q789.111 1454.33 786.01 1454.33 Q783.811 1454.33 781.357 1455.09 Q778.926 1455.86 776.149 1457.41 L776.149 1452.69 Q778.973 1451.55 781.426 1450.97 Q783.88 1450.39 785.917 1450.39 Q791.287 1450.39 794.482 1453.08 Q797.676 1455.77 797.676 1460.26 Q797.676 1462.39 796.866 1464.31 Q796.079 1466.2 793.973 1468.8 Q793.394 1469.47 790.292 1472.69 Q787.19 1475.88 781.542 1481.64 Z" fill="#000000" fill-rule="nonzero" fill-opacity="1" /><path clip-path="url(#clip160)" d="M807.722 1451.02 L826.079 1451.02 L826.079 1454.96 L812.005 1454.96 L812.005 1463.43 Q813.023 1463.08 814.042 1462.92 Q815.06 1462.73 816.079 1462.73 Q821.866 1462.73 825.246 1465.9 Q828.625 1469.08 828.625 1474.49 Q828.625 1480.07 825.153 1483.17 Q821.681 1486.25 815.361 1486.25 Q813.185 1486.25 810.917 1485.88 Q808.672 1485.51 806.264 1484.77 L806.264 1480.07 Q808.347 1481.2 810.57 1481.76 Q812.792 1482.32 815.269 1482.32 Q819.273 1482.32 821.611 1480.21 Q823.949 1478.1 823.949 1474.49 Q823.949 1470.88 821.611 1468.77 Q819.273 1466.67 815.269 1466.67 Q813.394 1466.67 811.519 1467.08 Q809.667 1467.5 807.722 1468.38 L807.722 1451.02 Z" fill="#000000" fill-rule="nonzero" fill-opacity="1" /><path clip-path="url(#clip160)" d="M1247.36 1454.1 Q1243.75 1454.1 1241.92 1457.66 Q1240.11 1461.2 1240.11 1468.33 Q1240.11 1475.44 1241.92 1479.01 Q1243.75 1482.55 1247.36 1482.55 Q1250.99 1482.55 1252.8 1479.01 Q1254.63 1475.44 1254.63 1468.33 Q1254.63 1461.2 1252.8 1457.66 Q1250.99 1454.1 1247.36 1454.1 M1247.36 1450.39 Q1253.17 1450.39 1256.22 1455 Q1259.3 1459.58 1259.3 1468.33 Q1259.3 1477.06 1256.22 1481.67 Q1253.17 1486.25 1247.36 1486.25 Q1241.55 1486.25 1238.47 1481.67 Q1235.41 1477.06 1235.41 1468.33 Q1235.41 1459.58 1238.47 1455 Q1241.55 1450.39 1247.36 1450.39 Z" fill="#000000" fill-rule="nonzero" fill-opacity="1" /><path clip-path="url(#clip160)" d="M1267.52 1479.7 L1272.4 1479.7 L1272.4 1485.58 L1267.52 1485.58 L1267.52 1479.7 Z" fill="#000000" fill-rule="nonzero" fill-opacity="1" /><path clip-path="url(#clip160)" d="M1282.64 1451.02 L1300.99 1451.02 L1300.99 1454.96 L1286.92 1454.96 L1286.92 1463.43 Q1287.94 1463.08 1288.96 1462.92 Q1289.97 1462.73 1290.99 1462.73 Q1296.78 1462.73 1300.16 1465.9 Q1303.54 1469.08 1303.54 1474.49 Q1303.54 1480.07 1300.07 1483.17 Q1296.59 1486.25 1290.28 1486.25 Q1288.1 1486.25 1285.83 1485.88 Q1283.59 1485.51 1281.18 1484.77 L1281.18 1480.07 Q1283.26 1481.2 1285.48 1481.76 Q1287.71 1482.32 1290.18 1482.32 Q1294.19 1482.32 1296.53 1480.21 Q1298.86 1478.1 1298.86 1474.49 Q1298.86 1470.88 1296.53 1468.77 Q1294.19 1466.67 1290.18 1466.67 Q1288.31 1466.67 1286.43 1467.08 Q1284.58 1467.5 1282.64 1468.38 L1282.64 1451.02 Z" fill="#000000" fill-rule="nonzero" fill-opacity="1" /><path clip-path="url(#clip160)" d="M1322.75 1454.1 Q1319.14 1454.1 1317.31 1457.66 Q1315.51 1461.2 1315.51 1468.33 Q1315.51 1475.44 1317.31 1479.01 Q1319.14 1482.55 1322.75 1482.55 Q1326.39 1482.55 1328.19 1479.01 Q1330.02 1475.44 1330.02 1468.33 Q1330.02 1461.2 1328.19 1457.66 Q1326.39 1454.1 1322.75 1454.1 M1322.75 1450.39 Q1328.56 1450.39 1331.62 1455 Q1334.7 1459.58 1334.7 1468.33 Q1334.7 1477.06 1331.62 1481.67 Q1328.56 1486.25 1322.75 1486.25 Q1316.94 1486.25 1313.86 1481.67 Q1310.81 1477.06 1310.81 1468.33 Q1310.81 1459.58 1313.86 1455 Q1316.94 1450.39 1322.75 1450.39 Z" fill="#000000" fill-rule="nonzero" fill-opacity="1" /><path clip-path="url(#clip160)" d="M1753.43 1454.1 Q1749.82 1454.1 1747.99 1457.66 Q1746.18 1461.2 1746.18 1468.33 Q1746.18 1475.44 1747.99 1479.01 Q1749.82 1482.55 1753.43 1482.55 Q1757.06 1482.55 1758.87 1479.01 Q1760.7 1475.44 1760.7 1468.33 Q1760.7 1461.2 1758.87 1457.66 Q1757.06 1454.1 1753.43 1454.1 M1753.43 1450.39 Q1759.24 1450.39 1762.3 1455 Q1765.37 1459.58 1765.37 1468.33 Q1765.37 1477.06 1762.3 1481.67 Q1759.24 1486.25 1753.43 1486.25 Q1747.62 1486.25 1744.54 1481.67 Q1741.49 1477.06 1741.49 1468.33 Q1741.49 1459.58 1744.54 1455 Q1747.62 1450.39 1753.43 1450.39 Z" fill="#000000" fill-rule="nonzero" fill-opacity="1" /><path clip-path="url(#clip160)" d="M1773.59 1479.7 L1778.48 1479.7 L1778.48 1485.58 L1773.59 1485.58 L1773.59 1479.7 Z" fill="#000000" fill-rule="nonzero" fill-opacity="1" /><path clip-path="url(#clip160)" d="M1787.48 1451.02 L1809.7 1451.02 L1809.7 1453.01 L1797.16 1485.58 L1792.27 1485.58 L1804.08 1454.96 L1787.48 1454.96 L1787.48 1451.02 Z" fill="#000000" fill-rule="nonzero" fill-opacity="1" /><path clip-path="url(#clip160)" d="M1818.87 1451.02 L1837.23 1451.02 L1837.23 1454.96 L1823.15 1454.96 L1823.15 1463.43 Q1824.17 1463.08 1825.19 1462.92 Q1826.21 1462.73 1827.23 1462.73 Q1833.01 1462.73 1836.39 1465.9 Q1839.77 1469.08 1839.77 1474.49 Q1839.77 1480.07 1836.3 1483.17 Q1832.83 1486.25 1826.51 1486.25 Q1824.33 1486.25 1822.06 1485.88 Q1819.82 1485.51 1817.41 1484.77 L1817.41 1480.07 Q1819.49 1481.2 1821.72 1481.76 Q1823.94 1482.32 1826.42 1482.32 Q1830.42 1482.32 1832.76 1480.21 Q1835.1 1478.1 1835.1 1474.49 Q1835.1 1470.88 1832.76 1468.77 Q1830.42 1466.67 1826.42 1466.67 Q1824.54 1466.67 1822.67 1467.08 Q1820.81 1467.5 1818.87 1468.38 L1818.87 1451.02 Z" fill="#000000" fill-rule="nonzero" fill-opacity="1" /><path clip-path="url(#clip160)" d="M2248.27 1481.64 L2255.91 1481.64 L2255.91 1455.28 L2247.6 1456.95 L2247.6 1452.69 L2255.87 1451.02 L2260.54 1451.02 L2260.54 1481.64 L2268.18 1481.64 L2268.18 1485.58 L2248.27 1485.58 L2248.27 1481.64 Z" fill="#000000" fill-rule="nonzero" fill-opacity="1" /><path clip-path="url(#clip160)" d="M2277.63 1479.7 L2282.51 1479.7 L2282.51 1485.58 L2277.63 1485.58 L2277.63 1479.7 Z" fill="#000000" fill-rule="nonzero" fill-opacity="1" /><path clip-path="url(#clip160)" d="M2302.7 1454.1 Q2299.08 1454.1 2297.26 1457.66 Q2295.45 1461.2 2295.45 1468.33 Q2295.45 1475.44 2297.26 1479.01 Q2299.08 1482.55 2302.7 1482.55 Q2306.33 1482.55 2308.14 1479.01 Q2309.96 1475.44 2309.96 1468.33 Q2309.96 1461.2 2308.14 1457.66 Q2306.33 1454.1 2302.7 1454.1 M2302.7 1450.39 Q2308.51 1450.39 2311.56 1455 Q2314.64 1459.58 2314.64 1468.33 Q2314.64 1477.06 2311.56 1481.67 Q2308.51 1486.25 2302.7 1486.25 Q2296.89 1486.25 2293.81 1481.67 Q2290.75 1477.06 2290.75 1468.33 Q2290.75 1459.58 2293.81 1455 Q2296.89 1450.39 2302.7 1450.39 Z" fill="#000000" fill-rule="nonzero" fill-opacity="1" /><path clip-path="url(#clip160)" d="M2332.86 1454.1 Q2329.25 1454.1 2327.42 1457.66 Q2325.61 1461.2 2325.61 1468.33 Q2325.61 1475.44 2327.42 1479.01 Q2329.25 1482.55 2332.86 1482.55 Q2336.49 1482.55 2338.3 1479.01 Q2340.13 1475.44 2340.13 1468.33 Q2340.13 1461.2 2338.3 1457.66 Q2336.49 1454.1 2332.86 1454.1 M2332.86 1450.39 Q2338.67 1450.39 2341.72 1455 Q2344.8 1459.58 2344.8 1468.33 Q2344.8 1477.06 2341.72 1481.67 Q2338.67 1486.25 2332.86 1486.25 Q2327.05 1486.25 2323.97 1481.67 Q2320.91 1477.06 2320.91 1468.33 Q2320.91 1459.58 2323.97 1455 Q2327.05 1450.39 2332.86 1450.39 Z" fill="#000000" fill-rule="nonzero" fill-opacity="1" /><path clip-path="url(#clip160)" d="M1283.1 1520.52 L1289.53 1520.52 L1289.53 1568.04 L1283.1 1568.04 L1283.1 1520.52 Z" fill="#000000" fill-rule="nonzero" fill-opacity="1" /><polyline clip-path="url(#clip160)" style="stroke:#000000; stroke-linecap:round; stroke-linejoin:round; stroke-width:4; stroke-opacity:1; fill:none" points="219.866,1423.18 219.866,47.2441 "/>
<polyline clip-path="url(#clip160)" style="stroke:#000000; stroke-linecap:round; stroke-linejoin:round; stroke-width:4; stroke-opacity:1; fill:none" points="219.866,1397.16 238.764,1397.16 "/>
<polyline clip-path="url(#clip160)" style="stroke:#000000; stroke-linecap:round; stroke-linejoin:round; stroke-width:4; stroke-opacity:1; fill:none" points="219.866,1120.88 238.764,1120.88 "/>
<polyline clip-path="url(#clip160)" style="stroke:#000000; stroke-linecap:round; stroke-linejoin:round; stroke-width:4; stroke-opacity:1; fill:none" points="219.866,844.595 238.764,844.595 "/>
<polyline clip-path="url(#clip160)" style="stroke:#000000; stroke-linecap:round; stroke-linejoin:round; stroke-width:4; stroke-opacity:1; fill:none" points="219.866,568.311 238.764,568.311 "/>
<polyline clip-path="url(#clip160)" style="stroke:#000000; stroke-linecap:round; stroke-linejoin:round; stroke-width:4; stroke-opacity:1; fill:none" points="219.866,292.026 238.764,292.026 "/>
<path clip-path="url(#clip160)" d="M126.691 1382.96 Q123.08 1382.96 121.251 1386.53 Q119.445 1390.07 119.445 1397.2 Q119.445 1404.31 121.251 1407.87 Q123.08 1411.41 126.691 1411.41 Q130.325 1411.41 132.13 1407.87 Q133.959 1404.31 133.959 1397.2 Q133.959 1390.07 132.13 1386.53 Q130.325 1382.96 126.691 1382.96 M126.691 1379.26 Q132.501 1379.26 135.556 1383.87 Q138.635 1388.45 138.635 1397.2 Q138.635 1405.93 135.556 1410.53 Q132.501 1415.12 126.691 1415.12 Q120.88 1415.12 117.802 1410.53 Q114.746 1405.93 114.746 1397.2 Q114.746 1388.45 117.802 1383.87 Q120.88 1379.26 126.691 1379.26 Z" fill="#000000" fill-rule="nonzero" fill-opacity="1" /><path clip-path="url(#clip160)" d="M146.853 1408.56 L151.737 1408.56 L151.737 1414.44 L146.853 1414.44 L146.853 1408.56 Z" fill="#000000" fill-rule="nonzero" fill-opacity="1" /><path clip-path="url(#clip160)" d="M171.922 1382.96 Q168.311 1382.96 166.482 1386.53 Q164.677 1390.07 164.677 1397.2 Q164.677 1404.31 166.482 1407.87 Q168.311 1411.41 171.922 1411.41 Q175.556 1411.41 177.362 1407.87 Q179.19 1404.31 179.19 1397.2 Q179.19 1390.07 177.362 1386.53 Q175.556 1382.96 171.922 1382.96 M171.922 1379.26 Q177.732 1379.26 180.788 1383.87 Q183.866 1388.45 183.866 1397.2 Q183.866 1405.93 180.788 1410.53 Q177.732 1415.12 171.922 1415.12 Q166.112 1415.12 163.033 1410.53 Q159.978 1405.93 159.978 1397.2 Q159.978 1388.45 163.033 1383.87 Q166.112 1379.26 171.922 1379.26 Z" fill="#000000" fill-rule="nonzero" fill-opacity="1" /><path clip-path="url(#clip160)" d="M128.288 1106.68 Q124.677 1106.68 122.848 1110.24 Q121.043 1113.78 121.043 1120.91 Q121.043 1128.02 122.848 1131.59 Q124.677 1135.13 128.288 1135.13 Q131.922 1135.13 133.728 1131.59 Q135.556 1128.02 135.556 1120.91 Q135.556 1113.78 133.728 1110.24 Q131.922 1106.68 128.288 1106.68 M128.288 1102.97 Q134.098 1102.97 137.154 1107.58 Q140.232 1112.16 140.232 1120.91 Q140.232 1129.64 137.154 1134.25 Q134.098 1138.83 128.288 1138.83 Q122.478 1138.83 119.399 1134.25 Q116.343 1129.64 116.343 1120.91 Q116.343 1112.16 119.399 1107.58 Q122.478 1102.97 128.288 1102.97 Z" fill="#000000" fill-rule="nonzero" fill-opacity="1" /><path clip-path="url(#clip160)" d="M148.45 1132.28 L153.334 1132.28 L153.334 1138.16 L148.45 1138.16 L148.45 1132.28 Z" fill="#000000" fill-rule="nonzero" fill-opacity="1" /><path clip-path="url(#clip160)" d="M167.547 1134.22 L183.866 1134.22 L183.866 1138.16 L161.922 1138.16 L161.922 1134.22 Q164.584 1131.47 169.167 1126.84 Q173.774 1122.19 174.954 1120.85 Q177.2 1118.32 178.079 1116.59 Q178.982 1114.83 178.982 1113.14 Q178.982 1110.38 177.038 1108.65 Q175.116 1106.91 172.014 1106.91 Q169.815 1106.91 167.362 1107.67 Q164.931 1108.44 162.153 1109.99 L162.153 1105.27 Q164.977 1104.13 167.431 1103.55 Q169.885 1102.97 171.922 1102.97 Q177.292 1102.97 180.487 1105.66 Q183.681 1108.35 183.681 1112.84 Q183.681 1114.97 182.871 1116.89 Q182.084 1118.78 179.977 1121.38 Q179.399 1122.05 176.297 1125.27 Q173.195 1128.46 167.547 1134.22 Z" fill="#000000" fill-rule="nonzero" fill-opacity="1" /><path clip-path="url(#clip160)" d="M126.205 830.394 Q122.593 830.394 120.765 833.959 Q118.959 837.5 118.959 844.63 Q118.959 851.736 120.765 855.301 Q122.593 858.843 126.205 858.843 Q129.839 858.843 131.644 855.301 Q133.473 851.736 133.473 844.63 Q133.473 837.5 131.644 833.959 Q129.839 830.394 126.205 830.394 M126.205 826.69 Q132.015 826.69 135.07 831.297 Q138.149 835.88 138.149 844.63 Q138.149 853.357 135.07 857.963 Q132.015 862.547 126.205 862.547 Q120.394 862.547 117.316 857.963 Q114.26 853.357 114.26 844.63 Q114.26 835.88 117.316 831.297 Q120.394 826.69 126.205 826.69 Z" fill="#000000" fill-rule="nonzero" fill-opacity="1" /><path clip-path="url(#clip160)" d="M146.366 855.996 L151.251 855.996 L151.251 861.875 L146.366 861.875 L146.366 855.996 Z" fill="#000000" fill-rule="nonzero" fill-opacity="1" /><path clip-path="url(#clip160)" d="M174.283 831.389 L162.477 849.838 L174.283 849.838 L174.283 831.389 M173.056 827.315 L178.936 827.315 L178.936 849.838 L183.866 849.838 L183.866 853.727 L178.936 853.727 L178.936 861.875 L174.283 861.875 L174.283 853.727 L158.681 853.727 L158.681 849.213 L173.056 827.315 Z" fill="#000000" fill-rule="nonzero" fill-opacity="1" /><path clip-path="url(#clip160)" d="M126.529 554.109 Q122.918 554.109 121.089 557.674 Q119.283 561.216 119.283 568.345 Q119.283 575.452 121.089 579.017 Q122.918 582.558 126.529 582.558 Q130.163 582.558 131.968 579.017 Q133.797 575.452 133.797 568.345 Q133.797 561.216 131.968 557.674 Q130.163 554.109 126.529 554.109 M126.529 550.406 Q132.339 550.406 135.394 555.012 Q138.473 559.595 138.473 568.345 Q138.473 577.072 135.394 581.679 Q132.339 586.262 126.529 586.262 Q120.718 586.262 117.64 581.679 Q114.584 577.072 114.584 568.345 Q114.584 559.595 117.64 555.012 Q120.718 550.406 126.529 550.406 Z" fill="#000000" fill-rule="nonzero" fill-opacity="1" /><path clip-path="url(#clip160)" d="M146.691 579.711 L151.575 579.711 L151.575 585.591 L146.691 585.591 L146.691 579.711 Z" fill="#000000" fill-rule="nonzero" fill-opacity="1" /><path clip-path="url(#clip160)" d="M172.339 566.447 Q169.19 566.447 167.339 568.6 Q165.51 570.753 165.51 574.503 Q165.51 578.23 167.339 580.406 Q169.19 582.558 172.339 582.558 Q175.487 582.558 177.315 580.406 Q179.167 578.23 179.167 574.503 Q179.167 570.753 177.315 568.6 Q175.487 566.447 172.339 566.447 M181.621 551.795 L181.621 556.054 Q179.862 555.221 178.056 554.781 Q176.274 554.341 174.514 554.341 Q169.885 554.341 167.431 557.466 Q165.001 560.591 164.653 566.91 Q166.019 564.896 168.079 563.832 Q170.139 562.744 172.616 562.744 Q177.825 562.744 180.834 565.915 Q183.866 569.063 183.866 574.503 Q183.866 579.827 180.718 583.044 Q177.57 586.262 172.339 586.262 Q166.343 586.262 163.172 581.679 Q160.001 577.072 160.001 568.345 Q160.001 560.151 163.89 555.29 Q167.778 550.406 174.329 550.406 Q176.089 550.406 177.871 550.753 Q179.676 551.1 181.621 551.795 Z" fill="#000000" fill-rule="nonzero" fill-opacity="1" /><path clip-path="url(#clip160)" d="M126.783 277.825 Q123.172 277.825 121.343 281.39 Q119.538 284.931 119.538 292.061 Q119.538 299.167 121.343 302.732 Q123.172 306.274 126.783 306.274 Q130.417 306.274 132.223 302.732 Q134.052 299.167 134.052 292.061 Q134.052 284.931 132.223 281.39 Q130.417 277.825 126.783 277.825 M126.783 274.121 Q132.593 274.121 135.649 278.728 Q138.728 283.311 138.728 292.061 Q138.728 300.788 135.649 305.394 Q132.593 309.977 126.783 309.977 Q120.973 309.977 117.894 305.394 Q114.839 300.788 114.839 292.061 Q114.839 283.311 117.894 278.728 Q120.973 274.121 126.783 274.121 Z" fill="#000000" fill-rule="nonzero" fill-opacity="1" /><path clip-path="url(#clip160)" d="M146.945 303.427 L151.829 303.427 L151.829 309.306 L146.945 309.306 L146.945 303.427 Z" fill="#000000" fill-rule="nonzero" fill-opacity="1" /><path clip-path="url(#clip160)" d="M172.014 292.894 Q168.681 292.894 166.76 294.677 Q164.862 296.459 164.862 299.584 Q164.862 302.709 166.76 304.491 Q168.681 306.274 172.014 306.274 Q175.348 306.274 177.269 304.491 Q179.19 302.686 179.19 299.584 Q179.19 296.459 177.269 294.677 Q175.371 292.894 172.014 292.894 M167.339 290.904 Q164.329 290.163 162.64 288.103 Q160.973 286.042 160.973 283.079 Q160.973 278.936 163.913 276.529 Q166.876 274.121 172.014 274.121 Q177.176 274.121 180.116 276.529 Q183.056 278.936 183.056 283.079 Q183.056 286.042 181.366 288.103 Q179.7 290.163 176.714 290.904 Q180.093 291.691 181.968 293.982 Q183.866 296.274 183.866 299.584 Q183.866 304.607 180.788 307.292 Q177.732 309.977 172.014 309.977 Q166.297 309.977 163.218 307.292 Q160.163 304.607 160.163 299.584 Q160.163 296.274 162.061 293.982 Q163.959 291.691 167.339 290.904 M165.626 283.519 Q165.626 286.204 167.292 287.709 Q168.982 289.214 172.014 289.214 Q175.024 289.214 176.714 287.709 Q178.426 286.204 178.426 283.519 Q178.426 280.834 176.714 279.33 Q175.024 277.825 172.014 277.825 Q168.982 277.825 167.292 279.33 Q165.626 280.834 165.626 283.519 Z" fill="#000000" fill-rule="nonzero" fill-opacity="1" /><path clip-path="url(#clip160)" d="M16.4842 750.521 L16.4842 720.475 L21.895 720.475 L21.895 744.092 L35.9632 744.092 L35.9632 721.462 L41.3741 721.462 L41.3741 744.092 L58.5933 744.092 L58.5933 719.902 L64.0042 719.902 L64.0042 750.521 L16.4842 750.521 Z" fill="#000000" fill-rule="nonzero" fill-opacity="1" /><polyline clip-path="url(#clip162)" style="stroke:#009af9; stroke-linecap:round; stroke-linejoin:round; stroke-width:8; stroke-opacity:1; fill:none" points="1891.74,292.026 1964.25,397.343 2067.75,570.616 2152.1,745.021 2215.47,915.971 2254.91,1064.07 2271.31,1150.57 2018.7,1241.27 1475.91,1274.76 889.334,1310.88 526.254,1342.14 403.544,1357.78 332.103,1370.91 302.817,1379.2 290.251,1384.24 284.89,1376.3 282.419,1335.21 280.976,1258.67 280.461,1214.27 280.245,1148.55 282.158,1062.52 291.472,895.732 305.651,765.35 345.512,583.662 413.768,456.578 631.464,340.942 1154.65,250.958 1415.15,217.821 1791.14,166.42 2042.89,121.977 2169.9,90.6914 2243.49,278.689 2266.24,556.922 2286.36,926.762 2292.3,1120.64 2088.52,1230.17 1343.65,1278.64 772.341,1317.22 471.516,1347.01 363.858,1363.4 313.049,1375.23 293.663,1382.55 286.01,1380.47 282.86,1344.41 281.195,1267.96 280.307,1189.37 281.064,1100.59 289.332,924.414 322.162,671.768 412.52,458.214 716.195,320.068 1403.9,219.169 1894.87,149.713 2171.42,90.1723 2241.86,261.433 2270.74,623.835 2289.35,1010.94 2281.8,1181.03 1641.1,1261.14 785.246,1316.13 459.121,1348.59 350.041,1366.11 305.682,1377.64 290.154,1383.89 284.456,1371.28 282.065,1316.56 280.724,1231.49 280.253,1153.76 283.501,1028.23 300.257,807.368 360.915,543.345 519.421,380.774 1171.58,248.68 1914.37,146.428 2153.53,95.3765 2241.38,271.955 2271.76,650.13 2289.93,1035.18 2261.98,1197.38 1514.76,1268.63 680.465,1325.07 405.751,1356.27 328.919,1370.91 297.209,1380.98 287.028,1382.74 283.037,1348.87 281.265,1272.75 280.307,1189.4 281.124,1098.2 290.143,913.315 325.734,655.693 423.103,446.693 768.6,309.383 1455.55,212.601 1923.02,144.872 2172.36,89.923 2243.1,272.179 2269.55,604.077 2288.86,995.167 2287.93,1169.39 1694.09,1257.76 871.33,1309.36 501.116,1343.26 367.609,1362.63 313.057,1375.19 292.945,1382.85 285.575,1378.74 282.612,1336.85 281.026,1255.33 280.244,1176.93 281.725,1076.69 292.759,880.897 334.849,619.556 443.442,427.88 849.833,294.803 1526.51,203.423 1958.89,138.439 2178.41,88.1357 2241.6,250.48 2267.61,570.607 2287.22,945.925 2292.23,1138.16 2071.02,1231.5 1336.58,1278.95 778.114,1316.69 476.594,1346.32 367.061,1362.76 314.66,1374.73 294.395,1382.21 286.318,1381.35 282.987,1347.6 281.279,1273.46 280.344,1194.1 280.882,1108.52 288.327,939.024 318.343,690.369 404.22,468.3 680.733,328.118 1378.79,222.343 1883.76,151.578 2176.21,88.7362 2243.08,267.346 2269.68,602.845 2289.01,997.928 2287.16,1171.46 1682.29,1258.51 854.808,1310.62 492.499,1344.31 363.994,1363.32 311.498,1375.68 292.351,1383.11 285.343,1377.62 282.508,1333.51 280.967,1250.89 280.231,1172.91 281.977,1068.72 293.879,868.308 338.937,605.227 453.932,419.54 894.042,287.617 1569.32,197.786 1981.92,134.141 2184.96,86.1857 2245.25,271.856 2267.63,557.955 2287.73,953.037 2292.37,1136.58 2086.07,1230.08 1356.35,1277.77 791.915,1315.58 480.204,1345.86 369.345,1362.34 315.532,1374.47 294.782,1382.03 286.464,1381.7 283.042,1348.95 281.315,1275.82 280.36,1196.05 280.816,1111.59 287.956,944.664 316.939,697.608 401.273,472.127 668.721,331.031 1372.21,223.173 1881.43,151.965 2178.53,88.0416 2243.89,271.085 2269.67,599.141 2289.05,997.696 2287.57,1170.54 1684.79,1258.34 860.005,1310.22 494.788,1344.03 365.003,1363.12 311.917,1375.55 292.512,1383.04 285.406,1377.94 282.537,1334.44 280.983,1252.1 280.234,1174.02 281.905,1070.94 293.564,871.785 337.792,609.136 450.941,421.837 881.49,289.614 1557.07,199.409 1975.32,135.388 2182.98,86.776 2243.9,264.348 2267.1,555.515 2287.25,942.573 2292.39,1131.82 2112.7,1227.47 1380,1276.41 807.886,1314.34 482.347,1345.61 370.98,1362.05 315.978,1374.35 294.985,1381.94 286.528,1381.86 283.064,1349.52 281.328,1276.75 280.365,1196.79 280.236,1175.55 "/>
<path clip-path="url(#clip160)" d="M290.963 196.789 L556.682 196.789 L556.682 93.1086 L290.963 93.1086  Z" fill="#ffffff" fill-rule="evenodd" fill-opacity="1"/>
<polyline clip-path="url(#clip160)" style="stroke:#000000; stroke-linecap:round; stroke-linejoin:round; stroke-width:4; stroke-opacity:1; fill:none" points="290.963,196.789 556.682,196.789 556.682,93.1086 290.963,93.1086 290.963,196.789 "/>
<polyline clip-path="url(#clip160)" style="stroke:#009af9; stroke-linecap:round; stroke-linejoin:round; stroke-width:8; stroke-opacity:1; fill:none" points="314.661,144.949 456.854,144.949 "/>
<path clip-path="url(#clip160)" d="M494.395 164.636 Q492.59 169.266 490.877 170.678 Q489.164 172.09 486.293 172.09 L482.891 172.09 L482.891 168.525 L485.391 168.525 Q487.15 168.525 488.122 167.692 Q489.094 166.858 490.275 163.756 L491.039 161.812 L480.553 136.303 L485.067 136.303 L493.168 156.581 L501.27 136.303 L505.784 136.303 L494.395 164.636 Z" fill="#000000" fill-rule="nonzero" fill-opacity="1" /><path clip-path="url(#clip160)" d="M513.076 158.293 L520.715 158.293 L520.715 131.928 L512.404 133.595 L512.404 129.335 L520.668 127.669 L525.344 127.669 L525.344 158.293 L532.983 158.293 L532.983 162.229 L513.076 162.229 L513.076 158.293 Z" fill="#000000" fill-rule="nonzero" fill-opacity="1" /></svg>
