<?xml version="1.0" encoding="utf-8"?>
<svg xmlns="http://www.w3.org/2000/svg" xmlns:xlink="http://www.w3.org/1999/xlink" width="600" height="400" viewBox="0 0 2400 1600">
<defs>
  <clipPath id="clip130">
    <rect x="0" y="0" width="2400" height="1600"/>
  </clipPath>
</defs>
<path clip-path="url(#clip130)" d="M0 1600 L2400 1600 L2400 0 L0 0  Z" fill="#ffffff" fill-rule="evenodd" fill-opacity="1"/>
<defs>
  <clipPath id="clip131">
    <rect x="219" y="47" width="2134" height="1377"/>
  </clipPath>
</defs>
<path clip-path="url(#clip130)" d="M186.274 1423.18 L2352.76 1423.18 L2352.76 47.2441 L186.274 47.2441  Z" fill="#ffffff" fill-rule="evenodd" fill-opacity="1"/>
<defs>
  <clipPath id="clip132">
    <rect x="186" y="47" width="2167" height="1377"/>
  </clipPath>
</defs>
<polyline clip-path="url(#clip132)" style="stroke:#000000; stroke-linecap:round; stroke-linejoin:round; stroke-width:2; stroke-opacity:0.1; fill:none" points="186.274,1423.18 186.274,47.2441 "/>
<polyline clip-path="url(#clip132)" style="stroke:#000000; stroke-linecap:round; stroke-linejoin:round; stroke-width:2; stroke-opacity:0.1; fill:none" points="619.57,1423.18 619.57,47.2441 "/>
<polyline clip-path="url(#clip132)" style="stroke:#000000; stroke-linecap:round; stroke-linejoin:round; stroke-width:2; stroke-opacity:0.1; fill:none" points="1052.87,1423.18 1052.87,47.2441 "/>
<polyline clip-path="url(#clip132)" style="stroke:#000000; stroke-linecap:round; stroke-linejoin:round; stroke-width:2; stroke-opacity:0.1; fill:none" points="1486.16,1423.18 1486.16,47.2441 "/>
<polyline clip-path="url(#clip132)" style="stroke:#000000; stroke-linecap:round; stroke-linejoin:round; stroke-width:2; stroke-opacity:0.1; fill:none" points="1919.46,1423.18 1919.46,47.2441 "/>
<polyline clip-path="url(#clip132)" style="stroke:#000000; stroke-linecap:round; stroke-linejoin:round; stroke-width:2; stroke-opacity:0.1; fill:none" points="2352.76,1423.18 2352.76,47.2441 "/>
<polyline clip-path="url(#clip132)" style="stroke:#000000; stroke-linecap:round; stroke-linejoin:round; stroke-width:2; stroke-opacity:0.1; fill:none" points="186.274,1388.27 2352.76,1388.27 "/>
<polyline clip-path="url(#clip132)" style="stroke:#000000; stroke-linecap:round; stroke-linejoin:round; stroke-width:2; stroke-opacity:0.1; fill:none" points="186.274,1062.91 2352.76,1062.91 "/>
<polyline clip-path="url(#clip132)" style="stroke:#000000; stroke-linecap:round; stroke-linejoin:round; stroke-width:2; stroke-opacity:0.1; fill:none" points="186.274,737.55 2352.76,737.55 "/>
<polyline clip-path="url(#clip132)" style="stroke:#000000; stroke-linecap:round; stroke-linejoin:round; stroke-width:2; stroke-opacity:0.1; fill:none" points="186.274,412.19 2352.76,412.19 "/>
<polyline clip-path="url(#clip132)" style="stroke:#000000; stroke-linecap:round; stroke-linejoin:round; stroke-width:2; stroke-opacity:0.1; fill:none" points="186.274,86.829 2352.76,86.829 "/>
<polyline clip-path="url(#clip130)" style="stroke:#000000; stroke-linecap:round; stroke-linejoin:round; stroke-width:4; stroke-opacity:1; fill:none" points="186.274,1423.18 2352.76,1423.18 "/>
<polyline clip-path="url(#clip130)" style="stroke:#000000; stroke-linecap:round; stroke-linejoin:round; stroke-width:4; stroke-opacity:1; fill:none" points="186.274,1423.18 186.274,1404.28 "/>
<polyline clip-path="url(#clip130)" style="stroke:#000000; stroke-linecap:round; stroke-linejoin:round; stroke-width:4; stroke-opacity:1; fill:none" points="619.57,1423.18 619.57,1404.28 "/>
<polyline clip-path="url(#clip130)" style="stroke:#000000; stroke-linecap:round; stroke-linejoin:round; stroke-width:4; stroke-opacity:1; fill:none" points="1052.87,1423.18 1052.87,1404.28 "/>
<polyline clip-path="url(#clip130)" style="stroke:#000000; stroke-linecap:round; stroke-linejoin:round; stroke-width:4; stroke-opacity:1; fill:none" points="1486.16,1423.18 1486.16,1404.28 "/>
<polyline clip-path="url(#clip130)" style="stroke:#000000; stroke-linecap:round; stroke-linejoin:round; stroke-width:4; stroke-opacity:1; fill:none" points="1919.46,1423.18 1919.46,1404.28 "/>
<polyline clip-path="url(#clip130)" style="stroke:#000000; stroke-linecap:round; stroke-linejoin:round; stroke-width:4; stroke-opacity:1; fill:none" points="2352.76,1423.18 2352.76,1404.28 "/>
<path clip-path="url(#clip130)" d="M186.274 1454.1 Q182.663 1454.1 180.834 1457.66 Q179.029 1461.2 179.029 1468.33 Q179.029 1475.44 180.834 1479.01 Q182.663 1482.55 186.274 1482.55 Q189.908 1482.55 191.714 1479.01 Q193.542 1475.44 193.542 1468.33 Q193.542 1461.2 191.714 1457.66 Q189.908 1454.1 186.274 1454.1 M186.274 1450.39 Q192.084 1450.39 195.14 1455 Q198.218 1459.58 198.218 1468.33 Q198.218 1477.06 195.14 1481.67 Q192.084 1486.25 186.274 1486.25 Q180.464 1486.25 177.385 1481.67 Q174.33 1477.06 174.33 1468.33 Q174.33 1459.58 177.385 1455 Q180.464 1450.39 186.274 1450.39 Z" fill="#000000" fill-rule="nonzero" fill-opacity="1" /><path clip-path="url(#clip130)" d="M598.344 1481.64 L614.663 1481.64 L614.663 1485.58 L592.719 1485.58 L592.719 1481.64 Q595.381 1478.89 599.964 1474.26 Q604.57 1469.61 605.751 1468.27 Q607.996 1465.74 608.876 1464.01 Q609.779 1462.25 609.779 1460.56 Q609.779 1457.8 607.834 1456.07 Q605.913 1454.33 602.811 1454.33 Q600.612 1454.33 598.158 1455.09 Q595.728 1455.86 592.95 1457.41 L592.95 1452.69 Q595.774 1451.55 598.228 1450.97 Q600.682 1450.39 602.719 1450.39 Q608.089 1450.39 611.283 1453.08 Q614.478 1455.77 614.478 1460.26 Q614.478 1462.39 613.668 1464.31 Q612.881 1466.2 610.774 1468.8 Q610.195 1469.47 607.094 1472.69 Q603.992 1475.88 598.344 1481.64 Z" fill="#000000" fill-rule="nonzero" fill-opacity="1" /><path clip-path="url(#clip130)" d="M634.478 1454.1 Q630.867 1454.1 629.038 1457.66 Q627.232 1461.2 627.232 1468.33 Q627.232 1475.44 629.038 1479.01 Q630.867 1482.55 634.478 1482.55 Q638.112 1482.55 639.917 1479.01 Q641.746 1475.44 641.746 1468.33 Q641.746 1461.2 639.917 1457.66 Q638.112 1454.1 634.478 1454.1 M634.478 1450.39 Q640.288 1450.39 643.343 1455 Q646.422 1459.58 646.422 1468.33 Q646.422 1477.06 643.343 1481.67 Q640.288 1486.25 634.478 1486.25 Q628.668 1486.25 625.589 1481.67 Q622.533 1477.06 622.533 1468.33 Q622.533 1459.58 625.589 1455 Q628.668 1450.39 634.478 1450.39 Z" fill="#000000" fill-rule="nonzero" fill-opacity="1" /><path clip-path="url(#clip130)" d="M1041.04 1455.09 L1029.23 1473.54 L1041.04 1473.54 L1041.04 1455.09 M1039.81 1451.02 L1045.69 1451.02 L1045.69 1473.54 L1050.62 1473.54 L1050.62 1477.43 L1045.69 1477.43 L1045.69 1485.58 L1041.04 1485.58 L1041.04 1477.43 L1025.44 1477.43 L1025.44 1472.92 L1039.81 1451.02 Z" fill="#000000" fill-rule="nonzero" fill-opacity="1" /><path clip-path="url(#clip130)" d="M1068.35 1454.1 Q1064.74 1454.1 1062.91 1457.66 Q1061.11 1461.2 1061.11 1468.33 Q1061.11 1475.44 1062.91 1479.01 Q1064.74 1482.55 1068.35 1482.55 Q1071.99 1482.55 1073.79 1479.01 Q1075.62 1475.44 1075.62 1468.33 Q1075.62 1461.2 1073.79 1457.66 Q1071.99 1454.1 1068.35 1454.1 M1068.35 1450.39 Q1074.16 1450.39 1077.22 1455 Q1080.3 1459.58 1080.3 1468.33 Q1080.3 1477.06 1077.22 1481.67 Q1074.16 1486.25 1068.35 1486.25 Q1062.54 1486.25 1059.46 1481.67 Q1056.41 1477.06 1056.41 1468.33 Q1056.41 1459.58 1059.46 1455 Q1062.54 1450.39 1068.35 1450.39 Z" fill="#000000" fill-rule="nonzero" fill-opacity="1" /><path clip-path="url(#clip130)" d="M1471.57 1466.44 Q1468.42 1466.44 1466.57 1468.59 Q1464.74 1470.74 1464.74 1474.49 Q1464.74 1478.22 1466.57 1480.39 Q1468.42 1482.55 1471.57 1482.55 Q1474.72 1482.55 1476.55 1480.39 Q1478.4 1478.22 1478.4 1474.49 Q1478.4 1470.74 1476.55 1468.59 Q1474.72 1466.44 1471.57 1466.44 M1480.85 1451.78 L1480.85 1456.04 Q1479.09 1455.21 1477.29 1454.77 Q1475.5 1454.33 1473.74 1454.33 Q1469.11 1454.33 1466.66 1457.45 Q1464.23 1460.58 1463.88 1466.9 Q1465.25 1464.89 1467.31 1463.82 Q1469.37 1462.73 1471.85 1462.73 Q1477.05 1462.73 1480.06 1465.9 Q1483.1 1469.05 1483.1 1474.49 Q1483.1 1479.82 1479.95 1483.03 Q1476.8 1486.25 1471.57 1486.25 Q1465.57 1486.25 1462.4 1481.67 Q1459.23 1477.06 1459.23 1468.33 Q1459.23 1460.14 1463.12 1455.28 Q1467.01 1450.39 1473.56 1450.39 Q1475.32 1450.39 1477.1 1450.74 Q1478.91 1451.09 1480.85 1451.78 Z" fill="#000000" fill-rule="nonzero" fill-opacity="1" /><path clip-path="url(#clip130)" d="M1501.15 1454.1 Q1497.54 1454.1 1495.71 1457.66 Q1493.91 1461.2 1493.91 1468.33 Q1493.91 1475.44 1495.71 1479.01 Q1497.54 1482.55 1501.15 1482.55 Q1504.79 1482.55 1506.59 1479.01 Q1508.42 1475.44 1508.42 1468.33 Q1508.42 1461.2 1506.59 1457.66 Q1504.79 1454.1 1501.15 1454.1 M1501.15 1450.39 Q1506.96 1450.39 1510.02 1455 Q1513.1 1459.58 1513.1 1468.33 Q1513.1 1477.06 1510.02 1481.67 Q1506.96 1486.25 1501.15 1486.25 Q1495.34 1486.25 1492.26 1481.67 Q1489.21 1477.06 1489.21 1468.33 Q1489.21 1459.58 1492.26 1455 Q1495.34 1450.39 1501.15 1450.39 Z" fill="#000000" fill-rule="nonzero" fill-opacity="1" /><path clip-path="url(#clip130)" d="M1904.33 1469.17 Q1901 1469.17 1899.08 1470.95 Q1897.18 1472.73 1897.18 1475.86 Q1897.18 1478.98 1899.08 1480.77 Q1901 1482.55 1904.33 1482.55 Q1907.67 1482.55 1909.59 1480.77 Q1911.51 1478.96 1911.51 1475.86 Q1911.51 1472.73 1909.59 1470.95 Q1907.69 1469.17 1904.33 1469.17 M1899.66 1467.18 Q1896.65 1466.44 1894.96 1464.38 Q1893.29 1462.32 1893.29 1459.35 Q1893.29 1455.21 1896.23 1452.8 Q1899.19 1450.39 1904.33 1450.39 Q1909.49 1450.39 1912.43 1452.8 Q1915.37 1455.21 1915.37 1459.35 Q1915.37 1462.32 1913.68 1464.38 Q1912.02 1466.44 1909.03 1467.18 Q1912.41 1467.96 1914.29 1470.26 Q1916.18 1472.55 1916.18 1475.86 Q1916.18 1480.88 1913.11 1483.57 Q1910.05 1486.25 1904.33 1486.25 Q1898.61 1486.25 1895.54 1483.57 Q1892.48 1480.88 1892.48 1475.86 Q1892.48 1472.55 1894.38 1470.26 Q1896.28 1467.96 1899.66 1467.18 M1897.94 1459.79 Q1897.94 1462.48 1899.61 1463.98 Q1901.3 1465.49 1904.33 1465.49 Q1907.34 1465.49 1909.03 1463.98 Q1910.74 1462.48 1910.74 1459.79 Q1910.74 1457.11 1909.03 1455.6 Q1907.34 1454.1 1904.33 1454.1 Q1901.3 1454.1 1899.61 1455.6 Q1897.94 1457.11 1897.94 1459.79 Z" fill="#000000" fill-rule="nonzero" fill-opacity="1" /><path clip-path="url(#clip130)" d="M1934.49 1454.1 Q1930.88 1454.1 1929.05 1457.66 Q1927.25 1461.2 1927.25 1468.33 Q1927.25 1475.44 1929.05 1479.01 Q1930.88 1482.55 1934.49 1482.55 Q1938.13 1482.55 1939.93 1479.01 Q1941.76 1475.44 1941.76 1468.33 Q1941.76 1461.2 1939.93 1457.66 Q1938.13 1454.1 1934.49 1454.1 M1934.49 1450.39 Q1940.3 1450.39 1943.36 1455 Q1946.44 1459.58 1946.44 1468.33 Q1946.44 1477.06 1943.36 1481.67 Q1940.3 1486.25 1934.49 1486.25 Q1928.68 1486.25 1925.61 1481.67 Q1922.55 1477.06 1922.55 1468.33 Q1922.55 1459.58 1925.61 1455 Q1928.68 1450.39 1934.49 1450.39 Z" fill="#000000" fill-rule="nonzero" fill-opacity="1" /><path clip-path="url(#clip130)" d="M2312.36 1481.64 L2320 1481.64 L2320 1455.28 L2311.69 1456.95 L2311.69 1452.69 L2319.96 1451.02 L2324.63 1451.02 L2324.63 1481.64 L2332.27 1481.64 L2332.27 1485.58 L2312.36 1485.58 L2312.36 1481.64 Z" fill="#000000" fill-rule="nonzero" fill-opacity="1" /><path clip-path="url(#clip130)" d="M2351.71 1454.1 Q2348.1 1454.1 2346.27 1457.66 Q2344.47 1461.2 2344.47 1468.33 Q2344.47 1475.44 2346.27 1479.01 Q2348.1 1482.55 2351.71 1482.55 Q2355.35 1482.55 2357.15 1479.01 Q2358.98 1475.44 2358.98 1468.33 Q2358.98 1461.2 2357.15 1457.66 Q2355.35 1454.1 2351.71 1454.1 M2351.71 1450.39 Q2357.52 1450.39 2360.58 1455 Q2363.66 1459.58 2363.66 1468.33 Q2363.66 1477.06 2360.58 1481.67 Q2357.52 1486.25 2351.71 1486.25 Q2345.9 1486.25 2342.83 1481.67 Q2339.77 1477.06 2339.77 1468.33 Q2339.77 1459.58 2342.83 1455 Q2345.9 1450.39 2351.71 1450.39 Z" fill="#000000" fill-rule="nonzero" fill-opacity="1" /><path clip-path="url(#clip130)" d="M2381.88 1454.1 Q2378.27 1454.1 2376.44 1457.66 Q2374.63 1461.2 2374.63 1468.33 Q2374.63 1475.44 2376.44 1479.01 Q2378.27 1482.55 2381.88 1482.55 Q2385.51 1482.55 2387.32 1479.01 Q2389.14 1475.44 2389.14 1468.33 Q2389.14 1461.2 2387.32 1457.66 Q2385.51 1454.1 2381.88 1454.1 M2381.88 1450.39 Q2387.69 1450.39 2390.74 1455 Q2393.82 1459.58 2393.82 1468.33 Q2393.82 1477.06 2390.74 1481.67 Q2387.69 1486.25 2381.88 1486.25 Q2376.07 1486.25 2372.99 1481.67 Q2369.93 1477.06 2369.93 1468.33 Q2369.93 1459.58 2372.99 1455 Q2376.07 1450.39 2381.88 1450.39 Z" fill="#000000" fill-rule="nonzero" fill-opacity="1" /><path clip-path="url(#clip130)" d="M1268.58 1522.27 L1268.58 1532.4 L1280.64 1532.4 L1280.64 1536.95 L1268.58 1536.95 L1268.58 1556.3 Q1268.58 1560.66 1269.75 1561.9 Q1270.96 1563.14 1274.62 1563.14 L1280.64 1563.14 L1280.64 1568.04 L1274.62 1568.04 Q1267.84 1568.04 1265.27 1565.53 Q1262.69 1562.98 1262.69 1556.3 L1262.69 1536.95 L1258.39 1536.95 L1258.39 1532.4 L1262.69 1532.4 L1262.69 1522.27 L1268.58 1522.27 Z" fill="#000000" fill-rule="nonzero" fill-opacity="1" /><polyline clip-path="url(#clip130)" style="stroke:#000000; stroke-linecap:round; stroke-linejoin:round; stroke-width:4; stroke-opacity:1; fill:none" points="186.274,1423.18 186.274,47.2441 "/>
<polyline clip-path="url(#clip130)" style="stroke:#000000; stroke-linecap:round; stroke-linejoin:round; stroke-width:4; stroke-opacity:1; fill:none" points="186.274,1388.27 205.172,1388.27 "/>
<polyline clip-path="url(#clip130)" style="stroke:#000000; stroke-linecap:round; stroke-linejoin:round; stroke-width:4; stroke-opacity:1; fill:none" points="186.274,1062.91 205.172,1062.91 "/>
<polyline clip-path="url(#clip130)" style="stroke:#000000; stroke-linecap:round; stroke-linejoin:round; stroke-width:4; stroke-opacity:1; fill:none" points="186.274,737.55 205.172,737.55 "/>
<polyline clip-path="url(#clip130)" style="stroke:#000000; stroke-linecap:round; stroke-linejoin:round; stroke-width:4; stroke-opacity:1; fill:none" points="186.274,412.19 205.172,412.19 "/>
<polyline clip-path="url(#clip130)" style="stroke:#000000; stroke-linecap:round; stroke-linejoin:round; stroke-width:4; stroke-opacity:1; fill:none" points="186.274,86.829 205.172,86.829 "/>
<path clip-path="url(#clip130)" d="M62.9365 1374.07 Q59.3254 1374.07 57.4967 1377.63 Q55.6912 1381.18 55.6912 1388.31 Q55.6912 1395.41 57.4967 1398.98 Q59.3254 1402.52 62.9365 1402.52 Q66.5707 1402.52 68.3763 1398.98 Q70.205 1395.41 70.205 1388.31 Q70.205 1381.18 68.3763 1377.63 Q66.5707 1374.07 62.9365 1374.07 M62.9365 1370.37 Q68.7467 1370.37 71.8022 1374.97 Q74.8809 1379.56 74.8809 1388.31 Q74.8809 1397.03 71.8022 1401.64 Q68.7467 1406.22 62.9365 1406.22 Q57.1264 1406.22 54.0477 1401.64 Q50.9921 1397.03 50.9921 1388.31 Q50.9921 1379.56 54.0477 1374.97 Q57.1264 1370.37 62.9365 1370.37 Z" fill="#000000" fill-rule="nonzero" fill-opacity="1" /><path clip-path="url(#clip130)" d="M83.0984 1399.67 L87.9827 1399.67 L87.9827 1405.55 L83.0984 1405.55 L83.0984 1399.67 Z" fill="#000000" fill-rule="nonzero" fill-opacity="1" /><path clip-path="url(#clip130)" d="M108.168 1374.07 Q104.557 1374.07 102.728 1377.63 Q100.922 1381.18 100.922 1388.31 Q100.922 1395.41 102.728 1398.98 Q104.557 1402.52 108.168 1402.52 Q111.802 1402.52 113.608 1398.98 Q115.436 1395.41 115.436 1388.31 Q115.436 1381.18 113.608 1377.63 Q111.802 1374.07 108.168 1374.07 M108.168 1370.37 Q113.978 1370.37 117.033 1374.97 Q120.112 1379.56 120.112 1388.31 Q120.112 1397.03 117.033 1401.64 Q113.978 1406.22 108.168 1406.22 Q102.358 1406.22 99.2789 1401.64 Q96.2234 1397.03 96.2234 1388.31 Q96.2234 1379.56 99.2789 1374.97 Q102.358 1370.37 108.168 1370.37 Z" fill="#000000" fill-rule="nonzero" fill-opacity="1" /><path clip-path="url(#clip130)" d="M138.33 1374.07 Q134.719 1374.07 132.89 1377.63 Q131.084 1381.18 131.084 1388.31 Q131.084 1395.41 132.89 1398.98 Q134.719 1402.52 138.33 1402.52 Q141.964 1402.52 143.769 1398.98 Q145.598 1395.41 145.598 1388.31 Q145.598 1381.18 143.769 1377.63 Q141.964 1374.07 138.33 1374.07 M138.33 1370.37 Q144.14 1370.37 147.195 1374.97 Q150.274 1379.56 150.274 1388.31 Q150.274 1397.03 147.195 1401.64 Q144.14 1406.22 138.33 1406.22 Q132.519 1406.22 129.441 1401.64 Q126.385 1397.03 126.385 1388.31 Q126.385 1379.56 129.441 1374.97 Q132.519 1370.37 138.33 1370.37 Z" fill="#000000" fill-rule="nonzero" fill-opacity="1" /><path clip-path="url(#clip130)" d="M63.9319 1048.71 Q60.3208 1048.71 58.4921 1052.27 Q56.6865 1055.82 56.6865 1062.95 Q56.6865 1070.05 58.4921 1073.62 Q60.3208 1077.16 63.9319 1077.16 Q67.5661 1077.16 69.3717 1073.62 Q71.2004 1070.05 71.2004 1062.95 Q71.2004 1055.82 69.3717 1052.27 Q67.5661 1048.71 63.9319 1048.71 M63.9319 1045.01 Q69.742 1045.01 72.7976 1049.61 Q75.8763 1054.2 75.8763 1062.95 Q75.8763 1071.67 72.7976 1076.28 Q69.742 1080.86 63.9319 1080.86 Q58.1217 1080.86 55.043 1076.28 Q51.9875 1071.67 51.9875 1062.95 Q51.9875 1054.2 55.043 1049.61 Q58.1217 1045.01 63.9319 1045.01 Z" fill="#000000" fill-rule="nonzero" fill-opacity="1" /><path clip-path="url(#clip130)" d="M84.0938 1074.31 L88.978 1074.31 L88.978 1080.19 L84.0938 1080.19 L84.0938 1074.31 Z" fill="#000000" fill-rule="nonzero" fill-opacity="1" /><path clip-path="url(#clip130)" d="M103.191 1076.26 L119.51 1076.26 L119.51 1080.19 L97.566 1080.19 L97.566 1076.26 Q100.228 1073.5 104.811 1068.87 Q109.418 1064.22 110.598 1062.88 Q112.844 1060.35 113.723 1058.62 Q114.626 1056.86 114.626 1055.17 Q114.626 1052.41 112.682 1050.68 Q110.76 1048.94 107.658 1048.94 Q105.459 1048.94 103.006 1049.7 Q100.575 1050.47 97.7974 1052.02 L97.7974 1047.3 Q100.621 1046.16 103.075 1045.58 Q105.529 1045.01 107.566 1045.01 Q112.936 1045.01 116.131 1047.69 Q119.325 1050.38 119.325 1054.87 Q119.325 1057 118.515 1058.92 Q117.728 1060.82 115.621 1063.41 Q115.043 1064.08 111.941 1067.3 Q108.839 1070.49 103.191 1076.26 Z" fill="#000000" fill-rule="nonzero" fill-opacity="1" /><path clip-path="url(#clip130)" d="M129.371 1045.63 L147.728 1045.63 L147.728 1049.57 L133.654 1049.57 L133.654 1058.04 Q134.672 1057.69 135.691 1057.53 Q136.709 1057.34 137.728 1057.34 Q143.515 1057.34 146.894 1060.51 Q150.274 1063.69 150.274 1069.1 Q150.274 1074.68 146.802 1077.78 Q143.33 1080.86 137.01 1080.86 Q134.834 1080.86 132.566 1080.49 Q130.32 1080.12 127.913 1079.38 L127.913 1074.68 Q129.996 1075.82 132.219 1076.37 Q134.441 1076.93 136.918 1076.93 Q140.922 1076.93 143.26 1074.82 Q145.598 1072.71 145.598 1069.1 Q145.598 1065.49 143.26 1063.39 Q140.922 1061.28 136.918 1061.28 Q135.043 1061.28 133.168 1061.7 Q131.316 1062.11 129.371 1062.99 L129.371 1045.63 Z" fill="#000000" fill-rule="nonzero" fill-opacity="1" /><path clip-path="url(#clip130)" d="M62.9365 723.349 Q59.3254 723.349 57.4967 726.913 Q55.6912 730.455 55.6912 737.585 Q55.6912 744.691 57.4967 748.256 Q59.3254 751.798 62.9365 751.798 Q66.5707 751.798 68.3763 748.256 Q70.205 744.691 70.205 737.585 Q70.205 730.455 68.3763 726.913 Q66.5707 723.349 62.9365 723.349 M62.9365 719.645 Q68.7467 719.645 71.8022 724.251 Q74.8809 728.835 74.8809 737.585 Q74.8809 746.312 71.8022 750.918 Q68.7467 755.501 62.9365 755.501 Q57.1264 755.501 54.0477 750.918 Q50.9921 746.312 50.9921 737.585 Q50.9921 728.835 54.0477 724.251 Q57.1264 719.645 62.9365 719.645 Z" fill="#000000" fill-rule="nonzero" fill-opacity="1" /><path clip-path="url(#clip130)" d="M83.0984 748.95 L87.9827 748.95 L87.9827 754.83 L83.0984 754.83 L83.0984 748.95 Z" fill="#000000" fill-rule="nonzero" fill-opacity="1" /><path clip-path="url(#clip130)" d="M98.2141 720.27 L116.57 720.27 L116.57 724.205 L102.496 724.205 L102.496 732.677 Q103.515 732.33 104.534 732.168 Q105.552 731.983 106.571 731.983 Q112.358 731.983 115.737 735.154 Q119.117 738.325 119.117 743.742 Q119.117 749.321 115.645 752.423 Q112.172 755.501 105.853 755.501 Q103.677 755.501 101.409 755.131 Q99.1632 754.761 96.7558 754.02 L96.7558 749.321 Q98.8391 750.455 101.061 751.011 Q103.284 751.566 105.76 751.566 Q109.765 751.566 112.103 749.46 Q114.441 747.353 114.441 743.742 Q114.441 740.131 112.103 738.025 Q109.765 735.918 105.76 735.918 Q103.885 735.918 102.01 736.335 Q100.159 736.751 98.2141 737.631 L98.2141 720.27 Z" fill="#000000" fill-rule="nonzero" fill-opacity="1" /><path clip-path="url(#clip130)" d="M138.33 723.349 Q134.719 723.349 132.89 726.913 Q131.084 730.455 131.084 737.585 Q131.084 744.691 132.89 748.256 Q134.719 751.798 138.33 751.798 Q141.964 751.798 143.769 748.256 Q145.598 744.691 145.598 737.585 Q145.598 730.455 143.769 726.913 Q141.964 723.349 138.33 723.349 M138.33 719.645 Q144.14 719.645 147.195 724.251 Q150.274 728.835 150.274 737.585 Q150.274 746.312 147.195 750.918 Q144.14 755.501 138.33 755.501 Q132.519 755.501 129.441 750.918 Q126.385 746.312 126.385 737.585 Q126.385 728.835 129.441 724.251 Q132.519 719.645 138.33 719.645 Z" fill="#000000" fill-rule="nonzero" fill-opacity="1" /><path clip-path="url(#clip130)" d="M63.9319 397.988 Q60.3208 397.988 58.4921 401.553 Q56.6865 405.095 56.6865 412.224 Q56.6865 419.331 58.4921 422.895 Q60.3208 426.437 63.9319 426.437 Q67.5661 426.437 69.3717 422.895 Q71.2004 419.331 71.2004 412.224 Q71.2004 405.095 69.3717 401.553 Q67.5661 397.988 63.9319 397.988 M63.9319 394.285 Q69.742 394.285 72.7976 398.891 Q75.8763 403.474 75.8763 412.224 Q75.8763 420.951 72.7976 425.558 Q69.742 430.141 63.9319 430.141 Q58.1217 430.141 55.043 425.558 Q51.9875 420.951 51.9875 412.224 Q51.9875 403.474 55.043 398.891 Q58.1217 394.285 63.9319 394.285 Z" fill="#000000" fill-rule="nonzero" fill-opacity="1" /><path clip-path="url(#clip130)" d="M84.0938 423.59 L88.978 423.59 L88.978 429.47 L84.0938 429.47 L84.0938 423.59 Z" fill="#000000" fill-rule="nonzero" fill-opacity="1" /><path clip-path="url(#clip130)" d="M97.9826 394.91 L120.205 394.91 L120.205 396.9 L107.658 429.47 L102.774 429.47 L114.58 398.845 L97.9826 398.845 L97.9826 394.91 Z" fill="#000000" fill-rule="nonzero" fill-opacity="1" /><path clip-path="url(#clip130)" d="M129.371 394.91 L147.728 394.91 L147.728 398.845 L133.654 398.845 L133.654 407.317 Q134.672 406.97 135.691 406.808 Q136.709 406.622 137.728 406.622 Q143.515 406.622 146.894 409.794 Q150.274 412.965 150.274 418.382 Q150.274 423.96 146.802 427.062 Q143.33 430.141 137.01 430.141 Q134.834 430.141 132.566 429.77 Q130.32 429.4 127.913 428.659 L127.913 423.96 Q129.996 425.095 132.219 425.65 Q134.441 426.206 136.918 426.206 Q140.922 426.206 143.26 424.099 Q145.598 421.993 145.598 418.382 Q145.598 414.771 143.26 412.664 Q140.922 410.558 136.918 410.558 Q135.043 410.558 133.168 410.974 Q131.316 411.391 129.371 412.271 L129.371 394.91 Z" fill="#000000" fill-rule="nonzero" fill-opacity="1" /><path clip-path="url(#clip130)" d="M53.7467 100.174 L61.3856 100.174 L61.3856 73.8083 L53.0754 75.4749 L53.0754 71.2157 L61.3393 69.549 L66.0152 69.549 L66.0152 100.174 L73.654 100.174 L73.654 104.109 L53.7467 104.109 L53.7467 100.174 Z" fill="#000000" fill-rule="nonzero" fill-opacity="1" /><path clip-path="url(#clip130)" d="M83.0984 98.2294 L87.9827 98.2294 L87.9827 104.109 L83.0984 104.109 L83.0984 98.2294 Z" fill="#000000" fill-rule="nonzero" fill-opacity="1" /><path clip-path="url(#clip130)" d="M108.168 72.6277 Q104.557 72.6277 102.728 76.1925 Q100.922 79.7342 100.922 86.8638 Q100.922 93.9702 102.728 97.535 Q104.557 101.077 108.168 101.077 Q111.802 101.077 113.608 97.535 Q115.436 93.9702 115.436 86.8638 Q115.436 79.7342 113.608 76.1925 Q111.802 72.6277 108.168 72.6277 M108.168 68.924 Q113.978 68.924 117.033 73.5305 Q120.112 78.1138 120.112 86.8638 Q120.112 95.5906 117.033 100.197 Q113.978 104.78 108.168 104.78 Q102.358 104.78 99.2789 100.197 Q96.2234 95.5906 96.2234 86.8638 Q96.2234 78.1138 99.2789 73.5305 Q102.358 68.924 108.168 68.924 Z" fill="#000000" fill-rule="nonzero" fill-opacity="1" /><path clip-path="url(#clip130)" d="M138.33 72.6277 Q134.719 72.6277 132.89 76.1925 Q131.084 79.7342 131.084 86.8638 Q131.084 93.9702 132.89 97.535 Q134.719 101.077 138.33 101.077 Q141.964 101.077 143.769 97.535 Q145.598 93.9702 145.598 86.8638 Q145.598 79.7342 143.769 76.1925 Q141.964 72.6277 138.33 72.6277 M138.33 68.924 Q144.14 68.924 147.195 73.5305 Q150.274 78.1138 150.274 86.8638 Q150.274 95.5906 147.195 100.197 Q144.14 104.78 138.33 104.78 Q132.519 104.78 129.441 100.197 Q126.385 95.5906 126.385 86.8638 Q126.385 78.1138 129.441 73.5305 Q132.519 68.924 138.33 68.924 Z" fill="#000000" fill-rule="nonzero" fill-opacity="1" /><polyline clip-path="url(#clip132)" style="stroke:#009af9; stroke-linecap:round; stroke-linejoin:round; stroke-width:8; stroke-opacity:1; fill:none" points="186.274,347.117 187.242,392.595 188.209,436.086 189.177,477.678 190.144,517.453 191.112,555.49 192.08,591.866 193.047,626.653 194.015,659.921 194.983,691.735 195.95,722.16 196.918,751.256 197.885,779.08 198.853,805.69 199.821,831.137 200.788,855.473 201.756,878.746 202.723,901.002 203.691,922.286 204.659,942.64 205.626,962.105 206.594,980.721 207.561,998.523 208.529,1015.55 209.497,1031.83 210.464,1047.4 211.432,1062.29 212.4,1076.52 213.367,1090.14 214.335,1103.16 215.302,1115.62 216.27,1127.53 217.238,1138.92 218.205,1149.81 219.173,1160.22 220.14,1170.19 221.108,1179.71 222.076,1188.82 223.043,1197.53 224.011,1205.87 224.978,1213.83 225.946,1221.45 226.914,1228.74 227.881,1235.71 228.849,1242.37 229.817,1248.74 230.784,1254.84 231.752,1260.67 232.719,1266.24 233.687,1271.57 234.655,1276.67 235.622,1281.54 236.59,1286.2 237.557,1290.66 238.525,1294.93 239.493,1299 240.46,1302.9 241.428,1306.63 242.395,1310.2 243.363,1313.61 244.331,1316.87 245.298,1319.99 246.266,1322.97 247.234,1325.82 248.201,1328.55 249.169,1331.16 250.136,1333.65 251.104,1336.04 252.072,1338.32 253.039,1340.5 254.007,1342.59 254.974,1344.58 255.942,1346.49 256.91,1348.32 257.877,1350.06 258.845,1351.73 259.812,1353.33 260.78,1354.85 261.748,1356.31 262.715,1357.71 263.683,1359.04 264.651,1360.32 265.618,1361.54 266.586,1362.71 267.553,1363.83 268.521,1364.89 269.489,1365.92 270.456,1366.89 271.424,1367.83 272.391,1368.72 273.359,1369.57 274.327,1370.39 275.294,1371.17 276.262,1371.91 277.229,1372.62 278.197,1373.29 279.165,1373.93 280.132,1374.52 281.1,1375.05 282.068,1375.52 283.035,1375.89 284.003,1376.14 284.97,1376.26 285.938,1376.18 286.906,1375.87 287.873,1375.28 288.841,1374.36 289.808,1373.09 290.776,1371.41 291.744,1369.3 292.711,1366.73 293.679,1363.67 294.646,1360.12 295.614,1356.1 296.582,1351.62 297.549,1346.69 298.517,1341.34 299.485,1335.61 300.452,1329.53 301.42,1323.16 302.387,1316.52 303.355,1309.68 304.323,1302.67 305.29,1295.54 306.258,1288.32 307.225,1281.06 308.193,1273.78 309.161,1266.52 310.128,1259.3 311.096,1252.16 312.063,1245.12 313.031,1238.18 313.999,1231.38 314.966,1224.7 315.934,1218.16 316.902,1211.75 317.869,1205.46 318.837,1199.26 319.804,1193.14 320.772,1187.05 321.74,1180.96 322.707,1174.8 323.675,1168.52 324.642,1162.06 325.61,1155.33 326.578,1148.25 327.545,1140.75 328.513,1132.74 329.48,1124.13 330.448,1114.84 331.416,1104.81 332.383,1093.97 333.351,1082.26 334.319,1069.65 335.286,1056.09 336.254,1041.59 337.221,1026.15 338.189,1009.82 339.157,992.639 340.124,974.655 341.092,955.944 342.059,936.593 343.027,916.703 343.995,896.374 344.962,875.702 345.93,854.784 346.897,833.714 347.865,812.577 348.833,791.455 349.8,770.422 350.768,749.542 351.736,728.868 352.703,708.445 353.671,688.313 354.638,668.502 355.606,649.033 356.574,629.923 357.541,611.18 358.509,592.81 359.476,574.814 360.444,557.194 361.412,539.95 362.379,523.082 363.347,506.593 364.314,490.484 365.282,474.761 366.25,459.434 367.217,444.512 368.185,430.005 369.153,415.924 370.12,402.278 371.088,389.079 372.055,376.332 373.023,364.041 373.991,352.205 374.958,340.821 375.926,329.886 376.893,319.39 377.861,309.324 378.829,299.675 379.796,290.431 380.764,281.578 381.732,273.102 382.699,264.99 383.667,257.226 384.634,249.798 385.602,242.691 386.57,235.892 387.537,229.389 388.505,223.168 389.472,217.218 390.44,211.527 391.408,206.084 392.375,200.879 393.343,195.9 394.31,191.139 395.278,186.586 396.246,182.231 397.213,178.066 398.181,174.083 399.149,170.275 400.116,166.636 401.084,163.16 402.051,159.841 403.019,156.359 403.987,147.589 404.954,137.332 405.922,131.551 406.889,134.476 407.857,148.596 408.825,174.668 409.792,211.71 410.76,257.003 411.727,306.095 412.695,353.311 413.663,398.242 414.63,441.425 415.598,482.807 416.566,522.385 417.533,560.204 418.501,596.36 419.468,630.953 420.436,664.037 421.404,695.677 422.371,725.934 423.339,754.867 424.306,782.535 425.274,808.993 426.242,834.293 427.209,858.486 428.177,881.623 429.144,903.75 430.112,924.911 431.08,945.15 432.047,964.506 433.015,983.018 433.983,1000.72 434.95,1017.65 435.918,1033.84 436.885,1049.32 437.853,1064.13 438.821,1078.28 439.788,1091.82 440.756,1104.77 441.723,1117.15 442.691,1128.99 443.659,1140.32 444.626,1151.15 445.594,1161.51 446.561,1171.42 447.529,1180.89 448.497,1189.95 449.464,1198.61 450.432,1206.89 451.4,1214.81 452.367,1222.39 453.335,1229.64 454.302,1236.56 455.27,1243.19 456.238,1249.53 457.205,1255.59 458.173,1261.38 459.14,1266.93 460.108,1272.23 461.076,1277.3 462.043,1282.14 463.011,1286.78 463.978,1291.21 464.946,1295.45 465.914,1299.51 466.881,1303.38 467.849,1307.09 468.817,1310.64 469.784,1314.03 470.752,1317.27 471.719,1320.37 472.687,1323.34 473.655,1326.17 474.622,1328.89 475.59,1331.48 476.557,1333.96 477.525,1336.33 478.493,1338.6 479.46,1340.77 480.428,1342.85 481.395,1344.83 482.363,1346.73 483.331,1348.54 484.298,1350.28 485.266,1351.94 486.234,1353.52 487.201,1355.04 488.169,1356.49 489.136,1357.88 490.104,1359.21 491.072,1360.48 492.039,1361.69 493.007,1362.85 493.974,1363.96 494.942,1365.03 495.91,1366.04 496.877,1367.01 497.845,1367.94 498.812,1368.83 499.78,1369.68 500.748,1370.49 501.715,1371.26 502.683,1372.01 503.651,1372.71 504.618,1373.37 505.586,1373.98 506.553,1374.54 507.521,1375.04 508.489,1375.44 509.456,1375.73 510.424,1375.87 511.391,1375.83 512.359,1375.56 513.327,1375.03 514.294,1374.18 515.262,1372.97 516.229,1371.36 517.197,1369.3 518.165,1366.79 519.132,1363.79 520.1,1360.31 521.068,1356.34 522.035,1351.9 523.003,1347 523.97,1341.68 524.938,1335.98 525.906,1329.92 526.873,1323.56 527.841,1316.94 528.808,1310.1 529.776,1303.1 530.744,1295.96 531.711,1288.73 532.679,1281.45 533.646,1274.15 534.614,1266.87 535.582,1259.64 536.549,1252.48 537.517,1245.41 538.485,1238.47 539.452,1231.64 540.42,1224.96 541.387,1218.4 542.355,1211.98 543.323,1205.68 544.29,1199.47 545.258,1193.34 546.225,1187.27 547.193,1181.19 548.161,1175.06 549.128,1168.8 550.096,1162.36 551.063,1155.65 552.031,1148.62 552.999,1141.17 553.966,1133.23 554.934,1124.71 555.902,1115.53 556.869,1105.59 557.837,1094.84 558.804,1083.22 559.772,1070.68 560.74,1057.21 561.707,1042.8 562.675,1027.44 563.642,1011.17 564.61,994.037 565.578,976.09 566.545,957.41 567.513,938.092 568.481,918.219 569.448,897.892 570.416,877.219 571.383,856.299 572.351,835.224 573.319,814.079 574.286,792.943 575.254,771.888 576.221,750.977 577.189,730.268 578.157,709.811 579.124,689.651 580.092,669.815 581.059,650.319 582.027,631.176 582.995,612.396 583.962,593.988 584.93,575.957 585.898,558.308 586.865,541.042 587.833,524.157 588.8,507.651 589.768,491.52 590.736,475.775 591.703,460.425 592.671,445.481 593.638,430.952 594.606,416.848 595.574,403.178 596.541,389.95 597.509,377.172 598.476,364.852 599.444,352.988 600.412,341.576 601.379,330.61 602.347,320.084 603.315,309.987 604.282,300.31 605.25,291.04 606.217,282.162 607.185,273.662 608.153,265.526 609.12,257.739 610.088,250.288 611.055,243.16 612.023,236.341 612.991,229.818 613.958,223.579 614.926,217.611 615.893,211.903 616.861,206.442 617.829,201.216 618.796,196.216 619.764,191.436 620.732,186.865 621.699,182.496 622.667,178.32 623.634,174.331 624.602,170.52 625.57,166.879 626.537,163.403 627.505,160.083 628.472,156.912 629.44,149.913 630.408,140.382 631.375,134.519 632.343,136.765 633.31,149.804 634.278,174.558 635.246,210.193 636.213,254.115 637.181,301.97 638.149,348.666 639.116,393.655 640.084,436.97 641.051,478.55 642.019,518.368 642.987,556.432 643.954,592.787 644.922,627.511 645.889,660.719 646.857,692.503 647.825,722.903 648.792,751.978 649.76,779.782 650.727,806.37 651.695,831.793 652.663,856.103 653.63,879.346 654.598,901.572 655.566,922.823 656.533,943.145 657.501,962.579 658.468,981.164 659.436,998.939 660.404,1015.94 661.371,1032.2 662.339,1047.76 663.306,1062.63 664.274,1076.86 665.242,1090.47 666.209,1103.47 667.177,1115.91 668.144,1127.81 669.112,1139.18 670.08,1150.06 671.047,1160.47 672.015,1170.42 672.983,1179.93 673.95,1189.03 674.918,1197.73 675.885,1206.06 676.853,1214.02 677.821,1221.63 678.788,1228.91 679.756,1235.87 680.723,1242.52 681.691,1248.89 682.659,1254.98 683.626,1260.8 684.594,1266.37 685.561,1271.69 686.529,1276.79 687.497,1281.66 688.464,1286.31 689.432,1290.77 690.4,1295.03 691.367,1299.1 692.335,1302.99 693.302,1306.72 694.27,1310.28 695.238,1313.69 696.205,1316.94 697.173,1320.06 698.14,1323.04 699.108,1325.89 700.076,1328.61 701.043,1331.22 702.011,1333.71 702.978,1336.09 703.946,1338.37 704.914,1340.55 705.881,1342.64 706.849,1344.63 707.817,1346.54 708.784,1348.36 709.752,1350.1 710.719,1351.77 711.687,1353.36 712.655,1354.89 713.622,1356.35 714.59,1357.74 715.557,1359.08 716.525,1360.35 717.493,1361.57 718.46,1362.74 719.428,1363.85 720.395,1364.92 721.363,1365.94 722.331,1366.91 723.298,1367.85 724.266,1368.74 725.234,1369.59 726.201,1370.41 727.169,1371.18 728.136,1371.92 729.104,1372.63 730.072,1373.3 731.039,1373.92 732.007,1374.49 732.974,1374.99 733.942,1375.4 734.91,1375.7 735.877,1375.87 736.845,1375.86 737.812,1375.62 738.78,1375.11 739.748,1374.28 740.715,1373.09 741.683,1371.5 742.651,1369.49 743.618,1367.02 744.586,1364.07 745.553,1360.62 746.521,1356.69 747.489,1352.29 748.456,1347.45 749.424,1342.17 750.391,1336.51 751.359,1330.49 752.327,1324.15 753.294,1317.54 754.262,1310.72 755.229,1303.72 756.197,1296.59 757.165,1289.37 758.132,1282.1 759.1,1274.81 760.068,1267.53 761.035,1260.29 762.003,1253.13 762.97,1246.05 763.938,1239.08 764.906,1232.24 765.873,1225.54 766.841,1218.97 767.808,1212.53 768.776,1206.22 769.744,1200.02 770.711,1193.89 771.679,1187.81 772.647,1181.73 773.614,1175.6 774.582,1169.36 775.549,1162.94 776.517,1156.28 777.485,1149.3 778.452,1141.91 779.42,1134.02 780.387,1125.53 781.355,1116.37 782.323,1106.47 783.29,1095.77 784.258,1084.22 785.225,1071.78 786.193,1058.41 787.161,1044.09 788.128,1028.81 789.096,1012.61 790.064,995.539 791.031,977.673 791.999,959.082 792.966,939.846 793.934,920.047 794.902,899.776 795.869,879.129 796.837,858.208 797.804,837.121 798.772,815.971 799.74,794.827 800.707,773.761 801.675,752.835 802.642,732.106 803.61,711.622 804.578,691.423 805.545,671.542 806.513,652.006 807.481,632.833 808.448,614.032 809.416,595.608 810.383,577.556 811.351,559.882 812.319,542.584 813.286,525.662 814.254,509.118 815.221,492.953 816.189,477.173 817.157,461.786 818.124,446.802 819.092,432.231 820.059,418.085 821.027,404.373 821.995,391.105 822.962,378.288 823.93,365.926 824.898,354.019 825.865,342.566 826.833,331.563 827.8,321.001 828.768,310.87 829.736,301.157 830.703,291.851 831.671,282.938 832.638,274.404 833.606,266.235 834.574,258.416 835.541,250.935 836.509,243.778 837.476,236.932 838.444,230.384 839.412,224.122 840.379,218.132 841.347,212.402 842.315,206.921 843.282,201.678 844.25,196.664 845.217,191.869 846.185,187.283 847.153,182.897 848.12,178.704 849.088,174.695 850.055,170.863 851.023,167.199 851.991,163.698 852.958,159.68 853.926,151.991 854.893,143.877 855.861,138.95 856.829,139.947 857.796,148.733 858.764,166.303 859.732,192.776 860.699,227.401 861.667,268.555 862.634,313.741 863.602,359.597 864.57,404.021 865.537,446.84 866.505,487.978 867.472,527.398 868.44,565.095 869.408,601.098 870.375,635.473 871.343,668.318 872.31,699.758 873.278,729.841 874.246,758.613 875.213,786.13 876.181,812.445 877.149,837.607 878.116,861.666 879.084,884.67 880.051,906.665 881.019,927.696 881.987,947.805 882.954,967.034 883.922,985.422 884.889,1003.01 885.857,1019.83 886.825,1035.92 887.792,1051.3 888.76,1066.02 889.727,1080.1 890.695,1093.57 891.663,1106.44 892.63,1118.75 893.598,1130.53 894.566,1141.78 895.533,1152.55 896.501,1162.84 897.468,1172.69 898.436,1182.1 899.404,1191.11 900.371,1199.72 901.339,1207.95 902.306,1215.83 903.274,1223.36 904.242,1230.57 905.209,1237.46 906.177,1244.04 907.144,1250.34 908.112,1256.37 909.08,1262.13 910.047,1267.64 911.015,1272.91 911.983,1277.95 912.95,1282.77 913.918,1287.38 914.885,1291.78 915.853,1296 916.821,1300.03 917.788,1303.88 918.756,1307.57 919.723,1311.09 920.691,1314.46 921.659,1317.69 922.626,1320.77 923.594,1323.72 924.561,1326.54 925.529,1329.24 926.497,1331.81 927.464,1334.28 928.432,1336.64 929.4,1338.89 930.367,1341.05 931.335,1343.11 932.302,1345.08 933.27,1346.97 934.238,1348.77 935.205,1350.5 936.173,1352.15 937.14,1353.73 938.108,1355.24 939.076,1356.68 940.043,1358.06 941.011,1359.38 941.978,1360.64 942.946,1361.85 943.914,1363 944.881,1364.11 945.849,1365.16 946.817,1366.17 947.784,1367.14 948.752,1368.06 949.719,1368.94 950.687,1369.79 951.655,1370.6 952.622,1371.37 953.59,1372.1 954.557,1372.79 955.525,1373.45 956.493,1374.06 957.46,1374.61 958.428,1375.09 959.396,1375.48 960.363,1375.75 961.331,1375.87 962.298,1375.8 963.266,1375.51 964.234,1374.94 965.201,1374.04 966.169,1372.79 967.136,1371.13 968.104,1369.03 969.072,1366.46 970.039,1363.41 971.007,1359.87 971.974,1355.85 972.942,1351.35 973.91,1346.41 974.877,1341.05 975.845,1335.31 976.813,1329.22 977.78,1322.83 978.748,1316.19 979.715,1309.34 980.683,1302.32 981.651,1295.17 982.618,1287.93 983.586,1280.64 984.553,1273.35 985.521,1266.07 986.489,1258.85 987.456,1251.7 988.424,1244.66 989.391,1237.72 990.359,1230.92 991.327,1224.25 992.294,1217.71 993.262,1211.3 994.23,1205 995.197,1198.8 996.165,1192.68 997.132,1186.61 998.1,1180.53 999.068,1174.38 1000.04,1168.1 1001,1161.63 1001.97,1154.89 1002.94,1147.8 1003.91,1140.3 1004.87,1132.29 1005.84,1123.7 1006.81,1114.44 1007.78,1104.41 1008.74,1093.56 1009.71,1081.84 1010.68,1069.21 1011.65,1055.64 1012.61,1041.12 1013.58,1025.67 1014.55,1009.3 1015.52,992.077 1016.48,974.045 1017.45,955.288 1018.42,935.899 1019.39,915.977 1020.36,895.611 1021.32,874.907 1022.29,853.966 1023.26,832.879 1024.23,811.732 1025.19,790.604 1026.16,769.564 1027.13,748.676 1028.1,727.994 1029.06,707.568 1030.03,687.438 1031,667.638 1031.97,648.183 1032.93,629.083 1033.9,610.347 1034.87,591.982 1035.84,573.993 1036.8,556.383 1037.77,539.155 1038.74,522.31 1039.71,505.845 1040.67,489.76 1041.64,474.057 1042.61,458.749 1043.58,443.848 1044.55,429.364 1045.51,415.308 1046.48,401.688 1047.45,388.512 1048.42,375.785 1049.38,363.513 1050.35,351.699 1051.32,340.338 1052.29,329.422 1053.25,318.944 1054.22,308.895 1055.19,299.263 1056.16,290.036 1057.12,281.201 1058.09,272.742 1059.06,264.645 1060.03,256.896 1060.99,249.482 1061.96,242.389 1062.93,235.603 1063.9,229.112 1064.87,222.904 1065.83,216.966 1066.8,211.286 1067.77,205.853 1068.74,200.655 1069.7,195.681 1070.67,190.924 1071.64,186.375 1072.61,182.026 1073.57,177.87 1074.54,173.899 1075.51,170.105 1076.48,166.482 1077.44,163.022 1078.41,159.719 1079.38,156.554 1080.35,148.951 1081.31,138.689 1082.28,132.305 1083.25,134.46 1084.22,147.94 1085.18,173.652 1086.15,210.629 1087.12,256.026 1088.09,305.121 1089.06,352.172 1090.02,397.114 1090.99,440.317 1091.96,481.745 1092.93,521.394 1093.89,559.292 1094.86,595.5 1095.83,630.108 1096.8,663.224 1097.76,694.902 1098.73,725.198 1099.7,754.172 1100.67,781.878 1101.63,808.372 1102.6,833.704 1103.57,857.927 1104.54,881.089 1105.5,903.236 1106.47,924.414 1107.44,944.667 1108.41,964.035 1109.38,982.559 1110.34,1000.28 1111.31,1017.22 1112.28,1033.43 1113.25,1048.93 1114.21,1063.76 1115.18,1077.94 1116.15,1091.49 1117.12,1104.45 1118.08,1116.85 1119.05,1128.7 1120.02,1140.04 1120.99,1150.88 1121.95,1161.25 1122.92,1171.17 1123.89,1180.65 1124.86,1189.72 1125.82,1198.39 1126.79,1206.69 1127.76,1214.62 1128.73,1222.2 1129.7,1229.46 1130.66,1236.39 1131.63,1243.03 1132.6,1249.37 1133.57,1255.44 1134.53,1261.24 1135.5,1266.79 1136.47,1272.1 1137.44,1277.17 1138.4,1282.02 1139.37,1286.66 1140.34,1291.1 1141.31,1295.35 1142.27,1299.4 1143.24,1303.29 1144.21,1307 1145.18,1310.55 1146.14,1313.94 1147.11,1317.19 1148.08,1320.3 1149.05,1323.26 1150.01,1326.1 1150.98,1328.82 1151.95,1331.42 1152.92,1333.9 1153.89,1336.27 1154.85,1338.55 1155.82,1340.72 1156.79,1342.79 1157.76,1344.78 1158.72,1346.68 1159.69,1348.5 1160.66,1350.23 1161.63,1351.9 1162.59,1353.48 1163.56,1355 1164.53,1356.46 1165.5,1357.85 1166.46,1359.18 1167.43,1360.45 1168.4,1361.66 1169.37,1362.82 1170.33,1363.94 1171.3,1365 1172.27,1366.02 1173.24,1366.99 1174.21,1367.92 1175.17,1368.8 1176.14,1369.65 1177.11,1370.47 1178.08,1371.24 1179.04,1371.99 1180.01,1372.69 1180.98,1373.35 1181.95,1373.97 1182.91,1374.53 1183.88,1375.02 1184.85,1375.43 1185.82,1375.72 1186.78,1375.86 1187.75,1375.81 1188.72,1375.54 1189.69,1374.99 1190.65,1374.13 1191.62,1372.92 1192.59,1371.3 1193.56,1369.23 1194.53,1366.7 1195.49,1363.7 1196.46,1360.2 1197.43,1356.23 1198.4,1351.78 1199.36,1346.88 1200.33,1341.55 1201.3,1335.83 1202.27,1329.77 1203.23,1323.4 1204.2,1316.77 1205.17,1309.93 1206.14,1302.92 1207.1,1295.78 1208.07,1288.55 1209.04,1281.27 1210.01,1273.97 1210.97,1266.69 1211.94,1259.46 1212.91,1252.3 1213.88,1245.24 1214.84,1238.29 1215.81,1231.46 1216.78,1224.77 1217.75,1218.23 1218.72,1211.81 1219.68,1205.51 1220.65,1199.32 1221.62,1193.19 1222.59,1187.11 1223.55,1181.02 1224.52,1174.89 1225.49,1168.64 1226.46,1162.21 1227.42,1155.51 1228.39,1148.46 1229.36,1140.98 1230.33,1133.01 1231.29,1124.45 1232.26,1115.24 1233.23,1105.3 1234.2,1094.55 1235.16,1082.91 1236.13,1070.35 1237.1,1056.85 1238.07,1042.41 1239.04,1027.04 1240,1010.76 1240.97,993.623 1241.94,975.673 1242.91,956.986 1243.87,937.645 1244.84,917.751 1245.81,897.417 1246.78,876.735 1247.74,855.802 1248.71,834.713 1249.68,813.558 1250.65,792.416 1251.61,771.361 1252.58,750.456 1253.55,729.757 1254.52,709.31 1255.48,689.153 1256.45,669.318 1257.42,649.827 1258.39,630.699 1259.36,611.94 1260.32,593.551 1261.29,575.535 1262.26,557.895 1263.23,540.631 1264.19,523.746 1265.16,507.244 1266.13,491.125 1267.1,475.393 1268.06,460.052 1269.03,445.114 1270,430.591 1270.97,416.497 1271.93,402.839 1272.9,389.626 1273.87,376.862 1274.84,364.553 1275.8,352.698 1276.77,341.297 1277.74,330.344 1278.71,319.831 1279.67,309.745 1280.64,300.078 1281.61,290.816 1282.58,281.946 1283.55,273.455 1284.51,265.329 1285.48,257.551 1286.45,250.108 1287.42,242.988 1288.38,236.176 1289.35,229.66 1290.32,223.428 1291.29,217.467 1292.25,211.765 1293.22,206.312 1294.19,201.096 1295.16,196.104 1296.12,191.327 1297.09,186.757 1298.06,182.387 1299.03,178.21 1299.99,174.221 1300.96,170.412 1301.93,166.776 1302.9,163.307 1303.87,159.998 1304.83,156.844 1305.8,153.012 1306.77,144.087 1307.74,136.087 1308.7,135.206 1309.67,145.375 1310.64,168.263 1311.61,203.275 1312.57,247.553 1313.54,295.977 1314.51,342.901 1315.48,388.203 1316.44,431.822 1317.41,473.66 1318.38,513.678 1319.35,551.898 1320.31,588.404 1321.28,623.331 1322.25,656.748 1323.22,688.707 1324.18,719.27 1325.15,748.497 1326.12,776.445 1327.09,803.17 1328.06,828.726 1329.02,853.163 1329.99,876.532 1330.96,898.88 1331.93,920.252 1332.89,940.691 1333.86,960.24 1334.83,978.937 1335.8,996.819 1336.76,1013.92 1337.73,1030.27 1338.7,1045.91 1339.67,1060.87 1340.63,1075.17 1341.6,1088.84 1342.57,1101.92 1343.54,1114.43 1344.5,1126.39 1345.47,1137.82 1346.44,1148.76 1347.41,1159.23 1348.38,1169.23 1349.34,1178.8 1350.31,1187.95 1351.28,1196.7 1352.25,1205.07 1353.21,1213.07 1354.18,1220.72 1355.15,1228.04 1356.12,1235.04 1357.08,1241.73 1358.05,1248.13 1359.02,1254.25 1359.99,1260.11 1360.95,1265.71 1361.92,1271.06 1362.89,1276.18 1363.86,1281.08 1364.82,1285.76 1365.79,1290.24 1366.76,1294.52 1367.73,1298.61 1368.7,1302.53 1369.66,1306.27 1370.63,1309.86 1371.6,1313.28 1372.57,1316.56 1373.53,1319.69 1374.5,1322.68 1375.47,1325.55 1376.44,1328.29 1377.4,1330.91 1378.37,1333.41 1379.34,1335.81 1380.31,1338.1 1381.27,1340.29 1382.24,1342.39 1383.21,1344.39 1384.18,1346.31 1385.14,1348.14 1386.11,1349.9 1387.08,1351.57 1388.05,1353.17 1389.01,1354.71 1389.98,1356.17 1390.95,1357.58 1391.92,1358.92 1392.89,1360.2 1393.85,1361.43 1394.82,1362.6 1395.79,1363.72 1396.76,1364.79 1397.72,1365.82 1398.69,1366.8 1399.66,1367.74 1400.63,1368.63 1401.59,1369.49 1402.56,1370.31 1403.53,1371.09 1404.5,1371.84 1405.46,1372.55 1406.43,1373.22 1407.4,1373.85 1408.37,1374.42 1409.33,1374.93 1410.3,1375.36 1411.27,1375.67 1412.24,1375.84 1413.21,1375.84 1414.17,1375.63 1415.14,1375.15 1416.11,1374.38 1417.08,1373.24 1418.04,1371.71 1419.01,1369.75 1419.98,1367.33 1420.95,1364.43 1421.91,1361.04 1422.88,1357.17 1423.85,1352.82 1424.82,1348.02 1425.78,1342.78 1426.75,1337.15 1427.72,1331.16 1428.69,1324.85 1429.65,1318.28 1430.62,1311.49 1431.59,1304.51 1432.56,1297.4 1433.53,1290.18 1434.49,1282.91 1435.46,1275.61 1436.43,1268.32 1437.4,1261.08 1438.36,1253.9 1439.33,1246.82 1440.3,1239.85 1441.27,1233 1442.23,1226.28 1443.2,1219.7 1444.17,1213.25 1445.14,1206.92 1446.1,1200.7 1447.07,1194.56 1448.04,1188.48 1449.01,1182.41 1449.97,1176.28 1450.94,1170.06 1451.91,1163.65 1452.88,1157.01 1453.84,1150.05 1454.81,1142.7 1455.78,1134.87 1456.75,1126.48 1457.72,1117.43 1458.68,1107.65 1459.65,1097.07 1460.62,1085.63 1461.59,1073.28 1462.55,1060 1463.52,1045.77 1464.49,1030.59 1465.46,1014.5 1466.42,997.533 1467.39,979.743 1468.36,961.208 1469.33,942.01 1470.29,922.235 1471.26,901.993 1472.23,881.386 1473.2,860.514 1474.16,839.467 1475.13,818.331 1476.1,797.185 1477.07,776.104 1478.04,755.154 1479,734.398 1479.97,713.889 1480.94,693.672 1481.91,673.768 1482.87,654.199 1483.84,634.979 1484.81,616.121 1485.78,597.637 1486.74,579.532 1487.71,561.81 1488.68,544.471 1489.65,527.513 1490.61,510.929 1491.58,494.722 1492.55,478.899 1493.52,463.471 1494.48,448.446 1495.45,433.833 1496.42,419.643 1497.39,405.883 1498.36,392.565 1499.32,379.697 1500.29,367.286 1501.26,355.33 1502.23,343.827 1503.19,332.772 1504.16,322.158 1505.13,311.977 1506.1,302.217 1507.06,292.867 1508.03,283.912 1509,275.337 1509.97,267.128 1510.93,259.273 1511.9,251.756 1512.87,244.564 1513.84,237.684 1514.8,231.103 1515.77,224.808 1516.74,218.787 1517.71,213.027 1518.67,207.514 1519.64,202.237 1520.61,197.188 1521.58,192.36 1522.55,187.745 1523.51,183.335 1524.48,179.122 1525.45,175.099 1526.42,171.259 1527.38,167.592 1528.35,164.092 1529.32,160.752 1530.29,157.562 1531.25,153.815 1532.22,144.489 1533.19,135.135 1534.16,132.101 1535.12,139.593 1536.09,159.676 1537.06,192.28 1538.03,235.19 1538.99,284.056 1539.96,332.49 1540.93,378.197 1541.9,422.167 1542.87,464.36 1543.83,504.764 1544.8,543.399 1545.77,580.314 1546.74,615.588 1547.7,649.33 1548.67,681.612 1549.64,712.489 1550.61,742.019 1551.57,770.257 1552.54,797.26 1553.51,823.08 1554.48,847.769 1555.44,871.376 1556.41,893.948 1557.38,915.532 1558.35,936.172 1559.31,955.911 1560.28,974.788 1561.25,992.843 1562.22,1010.11 1563.19,1026.63 1564.15,1042.43 1565.12,1057.54 1566.09,1071.99 1567.06,1085.8 1568.02,1099.02 1568.99,1111.65 1569.96,1123.73 1570.93,1135.28 1571.89,1146.33 1572.86,1156.9 1573.83,1167 1574.8,1176.67 1575.76,1185.91 1576.73,1194.75 1577.7,1203.21 1578.67,1211.29 1579.63,1219.02 1580.6,1226.41 1581.57,1233.48 1582.54,1240.24 1583.5,1246.71 1584.47,1252.89 1585.44,1258.81 1586.41,1264.46 1587.38,1269.87 1588.34,1275.04 1589.31,1279.99 1590.28,1284.72 1591.25,1289.24 1592.21,1293.57 1593.18,1297.7 1594.15,1301.66 1595.12,1305.44 1596.08,1309.06 1597.05,1312.52 1598.02,1315.83 1598.99,1318.99 1599.95,1322.02 1600.92,1324.91 1601.89,1327.68 1602.86,1330.33 1603.82,1332.86 1604.79,1335.28 1605.76,1337.59 1606.73,1339.81 1607.7,1341.92 1608.66,1343.95 1609.63,1345.88 1610.6,1347.74 1611.57,1349.51 1612.53,1351.2 1613.5,1352.82 1614.47,1354.37 1615.44,1355.85 1616.4,1357.26 1617.37,1358.62 1618.34,1359.91 1619.31,1361.15 1620.27,1362.34 1621.24,1363.47 1622.21,1364.55 1623.18,1365.59 1624.14,1366.58 1625.11,1367.53 1626.08,1368.43 1627.05,1369.3 1628.01,1370.12 1628.98,1370.92 1629.95,1371.67 1630.92,1372.4 1631.89,1373.08 1632.85,1373.71 1633.82,1374.3 1634.79,1374.82 1635.76,1375.26 1636.72,1375.61 1637.69,1375.83 1638.66,1375.87 1639.63,1375.7 1640.59,1375.27 1641.56,1374.55 1642.53,1373.49 1643.5,1372.05 1644.46,1370.18 1645.43,1367.85 1646.4,1365.05 1647.37,1361.77 1648.33,1358 1649.3,1353.76 1650.27,1349.05 1651.24,1343.9 1652.21,1338.35 1653.17,1332.43 1654.14,1326.19 1655.11,1319.66 1656.08,1312.91 1657.04,1305.97 1658.01,1298.88 1658.98,1291.68 1659.95,1284.42 1660.91,1277.13 1661.88,1269.84 1662.85,1262.58 1663.82,1255.39 1664.78,1248.28 1665.75,1241.28 1666.72,1234.4 1667.69,1227.65 1668.65,1221.04 1669.62,1214.57 1670.59,1208.22 1671.56,1201.98 1672.53,1195.83 1673.49,1189.74 1674.46,1183.66 1675.43,1177.55 1676.4,1171.36 1677.36,1165.02 1678.33,1158.45 1679.3,1151.56 1680.27,1144.29 1681.23,1136.53 1682.2,1128.23 1683.17,1119.31 1684.14,1109.68 1685.1,1099.28 1686.07,1088.05 1687.04,1075.9 1688.01,1062.8 1688.97,1048.76 1689.94,1033.79 1690.91,1017.89 1691.88,1001.12 1692.84,983.517 1693.81,965.146 1694.78,946.084 1695.75,926.421 1696.72,906.258 1697.68,885.712 1698.65,864.878 1699.62,843.845 1700.59,822.707 1701.55,801.549 1702.52,780.447 1703.49,759.468 1704.46,738.673 1705.42,718.11 1706.39,697.824 1707.36,677.848 1708.33,658.207 1709.29,638.918 1710.26,619.998 1711.23,601.451 1712.2,583.277 1713.16,565.477 1714.13,548.052 1715.1,531.003 1716.07,514.333 1717.04,498.046 1718,482.146 1718.97,466.636 1719.94,451.522 1720.91,436.817 1721.87,422.535 1722.84,408.686 1723.81,395.28 1724.78,382.322 1725.74,369.817 1726.71,357.766 1727.68,346.169 1728.65,335.023 1729.61,324.321 1730.58,314.053 1731.55,304.206 1732.52,294.77 1733.48,285.733 1734.45,277.079 1735.42,268.797 1736.39,260.87 1737.36,253.285 1738.32,246.027 1739.29,239.083 1740.26,232.441 1741.23,226.087 1742.19,220.01 1743.16,214.198 1744.13,208.639 1745.1,203.322 1746.06,198.237 1747.03,193.368 1748,188.703 1748.97,184.238 1749.93,179.97 1750.9,175.893 1751.87,172.003 1752.84,168.294 1753.8,164.761 1754.77,161.397 1755.74,158.197 1756.71,155.152 1757.67,151.612 1758.64,142.238 1759.61,133.31 1760.58,132.033 1761.55,142.938 1762.51,167.879 1763.48,206.036 1764.45,253.916 1765.42,305.348 1766.38,352.972 1767.35,398.048 1768.32,441.272 1769.29,482.652 1770.25,522.226 1771.22,560.053 1772.19,596.221 1773.16,630.82 1774.12,663.913 1775.09,695.561 1776.06,725.826 1777.03,754.767 1777.99,782.442 1778.96,808.904 1779.93,834.208 1780.9,858.405 1781.87,881.543 1782.83,903.67 1783.8,924.832 1784.77,945.07 1785.74,964.427 1786.7,982.941 1787.67,1000.65 1788.64,1017.58 1789.61,1033.77 1790.57,1049.26 1791.54,1064.07 1792.51,1078.23 1793.48,1091.77 1794.44,1104.72 1795.41,1117.1 1796.38,1128.95 1797.35,1140.27 1798.31,1151.11 1799.28,1161.47 1800.25,1171.37 1801.22,1180.85 1802.19,1189.91 1803.15,1198.57 1804.12,1206.86 1805.09,1214.78 1806.06,1222.36 1807.02,1229.61 1807.99,1236.54 1808.96,1243.16 1809.93,1249.5 1810.89,1255.56 1811.86,1261.36 1812.83,1266.9 1813.8,1272.21 1814.76,1277.28 1815.73,1282.12 1816.7,1286.76 1817.67,1291.19 1818.63,1295.43 1819.6,1299.49 1820.57,1303.37 1821.54,1307.08 1822.5,1310.62 1823.47,1314.01 1824.44,1317.26 1825.41,1320.36 1826.38,1323.33 1827.34,1326.16 1828.31,1328.88 1829.28,1331.47 1830.25,1333.95 1831.21,1336.32 1832.18,1338.59 1833.15,1340.76 1834.12,1342.84 1835.08,1344.82 1836.05,1346.72 1837.02,1348.54 1837.99,1350.27 1838.95,1351.93 1839.92,1353.52 1840.89,1355.04 1841.86,1356.49 1842.82,1357.88 1843.79,1359.2 1844.76,1360.47 1845.73,1361.69 1846.7,1362.85 1847.66,1363.96 1848.63,1365.02 1849.6,1366.04 1850.57,1367.01 1851.53,1367.94 1852.5,1368.82 1853.47,1369.67 1854.44,1370.49 1855.4,1371.26 1856.37,1372 1857.34,1372.7 1858.31,1373.36 1859.27,1373.98 1860.24,1374.54 1861.21,1375.03 1862.18,1375.43 1863.14,1375.72 1864.11,1375.86 1865.08,1375.81 1866.05,1375.55 1867.01,1375.01 1867.98,1374.16 1868.95,1372.94 1869.92,1371.32 1870.89,1369.26 1871.85,1366.73 1872.82,1363.73 1873.79,1360.23 1874.76,1356.25 1875.72,1351.8 1876.69,1346.9 1877.66,1341.57 1878.63,1335.85 1879.59,1329.79 1880.56,1323.43 1881.53,1316.81 1882.5,1309.97 1883.46,1302.96 1884.43,1295.82 1885.4,1288.58 1886.37,1281.3 1887.33,1274 1888.3,1266.72 1889.27,1259.49 1890.24,1252.33 1891.21,1245.27 1892.17,1238.33 1893.14,1231.51 1894.11,1224.82 1895.08,1218.27 1896.04,1211.84 1897.01,1205.54 1897.98,1199.34 1898.95,1193.22 1899.91,1187.14 1900.88,1181.06 1901.85,1174.92 1902.82,1168.66 1903.78,1162.21 1904.75,1155.51 1905.72,1148.47 1906.69,1141.02 1907.65,1133.08 1908.62,1124.55 1909.59,1115.34 1910.56,1105.39 1911.53,1094.62 1912.49,1082.99 1913.46,1070.43 1914.43,1056.94 1915.4,1042.5 1916.36,1027.12 1917.33,1010.83 1918.3,993.675 1919.27,975.715 1920.23,957.028 1921.2,937.691 1922.17,917.805 1923.14,897.476 1924.1,876.806 1925.07,855.889 1926.04,834.816 1927.01,813.671 1927.97,792.532 1928.94,771.472 1929.91,750.558 1930.88,729.853 1931.84,709.408 1932.81,689.258 1933.78,669.425 1934.75,649.929 1935.72,630.787 1936.68,612.01 1937.65,593.609 1938.62,575.59 1939.59,557.954 1940.55,540.701 1941.52,523.827 1942.49,507.324 1943.46,491.201 1944.42,475.465 1945.39,460.125 1946.36,445.191 1947.33,430.67 1948.29,416.573 1949.26,402.909 1950.23,389.689 1951.2,376.923 1952.16,364.612 1953.13,352.756 1954.1,341.352 1955.07,330.395 1956.04,319.877 1957,309.789 1957.97,300.121 1958.94,290.86 1959.91,281.989 1960.87,273.496 1961.84,265.367 1962.81,257.587 1963.78,250.143 1964.74,243.021 1965.71,236.208 1966.68,229.691 1967.65,223.457 1968.61,217.495 1969.58,211.791 1970.55,206.327 1971.52,201.098 1972.48,196.095 1973.45,191.311 1974.42,186.74 1975.39,182.373 1976.36,178.204 1977.32,174.225 1978.29,170.428 1979.26,166.804 1980.23,163.347 1981.19,160.048 1982.16,156.899 1983.13,153.179 1984.1,143.656 1985.06,134.145 1986.03,131.296 1987,139.468 1987.97,160.726 1988.93,194.843 1989.9,239.302 1990.87,289.289 1991.84,337.892 1992.8,383.465 1993.77,427.247 1994.74,469.225 1995.71,509.406 1996.67,547.825 1997.64,584.539 1998.61,619.631 1999.58,653.202 2000.55,685.317 2001.51,716.033 2002.48,745.408 2003.45,773.499 2004.42,800.36 2005.38,826.044 2006.35,850.602 2007.32,874.084 2008.29,896.538 2009.25,918.008 2010.22,938.54 2011.19,958.175 2012.16,976.953 2013.12,994.914 2014.09,1012.09 2015.06,1028.53 2016.03,1044.24 2016.99,1059.27 2017.96,1073.64 2018.93,1087.39 2019.9,1100.53 2020.87,1113.1 2021.83,1125.12 2022.8,1136.61 2023.77,1147.6 2024.74,1158.11 2025.7,1168.16 2026.67,1177.78 2027.64,1186.97 2028.61,1195.77 2029.57,1204.18 2030.54,1212.22 2031.51,1219.91 2032.48,1227.26 2033.44,1234.29 2034.41,1241.02 2035.38,1247.45 2036.35,1253.6 2037.31,1259.48 2038.28,1265.11 2039.25,1270.49 2040.22,1275.63 2041.19,1280.55 2042.15,1285.26 2043.12,1289.76 2044.09,1294.06 2045.06,1298.18 2046.02,1302.11 2046.99,1305.87 2047.96,1309.47 2048.93,1312.92 2049.89,1316.21 2050.86,1319.36 2051.83,1322.37 2052.8,1325.24 2053.76,1328 2054.73,1330.63 2055.7,1333.15 2056.67,1335.56 2057.63,1337.86 2058.6,1340.06 2059.57,1342.17 2060.54,1344.18 2061.5,1346.11 2062.47,1347.95 2063.44,1349.71 2064.41,1351.39 2065.38,1353 2066.34,1354.54 2067.31,1356.02 2068.28,1357.43 2069.25,1358.77 2070.21,1360.06 2071.18,1361.29 2072.15,1362.47 2073.12,1363.6 2074.08,1364.68 2075.05,1365.71 2076.02,1366.69 2076.99,1367.64 2077.95,1368.54 2078.92,1369.4 2079.89,1370.22 2080.86,1371.01 2081.82,1371.76 2082.79,1372.48 2083.76,1373.16 2084.73,1373.79 2085.7,1374.36 2086.66,1374.87 2087.63,1375.31 2088.6,1375.65 2089.57,1375.84 2090.53,1375.86 2091.5,1375.66 2092.47,1375.2 2093.44,1374.44 2094.4,1373.33 2095.37,1371.84 2096.34,1369.92 2097.31,1367.54 2098.27,1364.68 2099.24,1361.34 2100.21,1357.51 2101.18,1353.21 2102.14,1348.45 2103.11,1343.25 2104.08,1337.65 2105.05,1331.68 2106.02,1325.41 2106.98,1318.85 2107.95,1312.07 2108.92,1305.11 2109.89,1298.01 2110.85,1290.8 2111.82,1283.53 2112.79,1276.24 2113.76,1268.95 2114.72,1261.7 2115.69,1254.52 2116.66,1247.42 2117.63,1240.43 2118.59,1233.57 2119.56,1226.84 2120.53,1220.24 2121.5,1213.79 2122.46,1207.46 2123.43,1201.23 2124.4,1195.09 2125.37,1189 2126.33,1182.92 2127.3,1176.8 2128.27,1170.6 2129.24,1164.23 2130.21,1157.63 2131.17,1150.7 2132.14,1143.37 2133.11,1135.55 2134.08,1127.18 2135.04,1118.18 2136.01,1108.46 2136.98,1097.97 2137.95,1086.62 2138.91,1074.36 2139.88,1061.15 2140.85,1046.99 2141.82,1031.91 2142.78,1015.9 2143.75,999.028 2144.72,981.327 2145.69,962.866 2146.65,943.724 2147.62,923.992 2148.59,903.777 2149.56,883.194 2150.53,862.329 2151.49,841.279 2152.46,820.134 2153.43,798.979 2154.4,777.889 2155.36,756.93 2156.33,736.161 2157.3,715.63 2158.27,695.38 2159.23,675.443 2160.2,655.844 2161.17,636.599 2162.14,617.725 2163.1,599.223 2164.07,581.094 2165.04,563.338 2166.01,545.958 2166.97,528.955 2167.94,512.332 2168.91,496.092 2169.88,480.239 2170.84,464.777 2171.81,449.712 2172.78,435.058 2173.75,420.829 2174.72,407.033 2175.68,393.681 2176.65,380.778 2177.62,368.328 2178.59,356.332 2179.55,344.79 2180.52,333.699 2181.49,323.05 2182.46,312.833 2183.42,303.038 2184.39,293.651 2185.36,284.66 2186.33,276.053 2187.29,267.815 2188.26,259.93 2189.23,252.385 2190.2,245.166 2191.16,238.26 2192.13,231.654 2193.1,225.334 2194.07,219.29 2195.04,213.509 2196,207.98 2196.97,202.692 2197.94,197.634 2198.91,192.789 2199.87,188.151 2200.84,183.714 2201.81,179.473 2202.78,175.422 2203.74,171.556 2204.71,167.868 2205.68,164.353 2206.65,161.004 2207.61,157.815 2208.58,154.78 2209.55,149.665 2210.52,139.522 2211.48,132.382 2212.45,134.52 2213.42,149.564 2214.39,178.497 2215.36,219.655 2216.32,268.728 2217.29,318.761 2218.26,365.103 2219.23,409.665 2220.19,452.406 2221.16,493.316 2222.13,532.423 2223.1,569.797 2224.06,605.54 2225.03,639.734 2226,672.436 2226.97,703.711 2227.93,733.618 2228.9,762.217 2229.87,789.565 2230.84,815.715 2231.8,840.72 2232.77,864.633 2233.74,887.499 2234.71,909.368 2235.67,930.282 2236.64,950.284 2237.61,969.416 2238.58,987.713 2239.55,1005.21 2240.51,1021.95 2241.48,1037.95 2242.45,1053.25 2243.42,1067.88 2244.38,1081.88 2245.35,1095.26 2246.32,1108.06 2247.29,1120.29 2248.25,1132 2249.22,1143.19 2250.19,1153.9 2251.16,1164.14 2252.12,1173.93 2253.09,1183.29 2254.06,1192.24 2255.03,1200.8 2255.99,1208.99 2256.96,1216.82 2257.93,1224.31 2258.9,1231.47 2259.87,1238.32 2260.83,1244.87 2261.8,1251.14 2262.77,1257.13 2263.74,1262.85 2264.7,1268.33 2265.67,1273.57 2266.64,1278.58 2267.61,1283.37 2268.57,1287.96 2269.54,1292.34 2270.51,1296.53 2271.48,1300.53 2272.44,1304.37 2273.41,1308.03 2274.38,1311.54 2275.35,1314.89 2276.31,1318.09 2277.28,1321.16 2278.25,1324.09 2279.22,1326.89 2280.19,1329.58 2281.15,1332.14 2282.12,1334.59 2283.09,1336.94 2284.06,1339.18 2285.02,1341.32 2285.99,1343.37 2286.96,1345.33 2287.93,1347.21 2288.89,1349 2289.86,1350.72 2290.83,1352.36 2291.8,1353.93 2292.76,1355.43 2293.73,1356.86 2294.7,1358.23 2295.67,1359.55 2296.63,1360.8 2297.6,1362 2298.57,1363.15 2299.54,1364.25 2300.5,1365.29 2301.47,1366.3 2302.44,1367.26 2303.41,1368.18 2304.38,1369.05 2305.34,1369.89 2306.31,1370.7 2307.28,1371.46 2308.25,1372.19 2309.21,1372.88 2310.18,1373.53 2311.15,1374.13 2312.12,1374.68 2313.08,1375.15 2314.05,1375.52 2315.02,1375.77 2315.99,1375.87 2316.95,1375.77 2317.92,1375.44 2318.89,1374.83 2319.86,1373.89 2320.82,1372.57 2321.79,1370.84 2322.76,1368.66 2323.73,1366.01 2324.7,1362.88 2325.66,1359.26 2326.63,1355.16 2327.6,1350.59 2328.57,1345.57 2329.53,1340.14 2330.5,1334.33 2331.47,1328.19 2332.44,1321.75 2333.4,1315.07 2334.37,1308.19 2335.34,1301.14 2336.31,1293.97 2337.27,1286.72 2338.24,1279.43 2339.21,1272.13 2340.18,1264.86 2341.14,1257.65 2342.11,1250.52 2343.08,1243.49 2344.05,1236.57 2345.02,1229.79 2345.98,1223.13 2346.95,1216.61 2347.92,1210.22 2348.89,1203.94 2349.85,1197.76 2350.82,1191.65 2351.79,1185.58 2352.76,1179.49 "/>
<polyline clip-path="url(#clip132)" style="stroke:#e26f46; stroke-linecap:round; stroke-linejoin:round; stroke-width:8; stroke-opacity:1; fill:none" points="186.274,347.117 187.242,325.15 188.209,305.06 189.177,286.687 190.144,269.883 191.112,254.516 192.08,240.462 193.047,227.608 194.015,215.853 194.983,205.102 195.95,195.271 196.918,186.28 197.885,178.057 198.853,170.535 199.821,163.656 200.788,157.365 201.756,151.613 202.723,146.353 203.691,141.543 204.659,137.142 205.626,133.116 206.594,129.434 207.561,126.067 208.529,122.989 209.497,120.176 210.464,117.603 211.432,115.249 212.4,113.096 213.367,111.126 214.335,109.325 215.302,107.677 216.27,106.171 217.238,104.793 218.205,103.534 219.173,102.359 220.14,101.347 221.108,101.283 222.076,103.145 223.043,108.011 224.011,117.067 224.978,131.597 225.946,152.992 226.914,182.743 227.881,222.446 228.849,273.748 229.817,334.286 230.784,399.541 231.752,466.625 232.719,533.294 233.687,597.948 234.655,659.566 235.622,717.615 236.59,771.954 237.557,822.531 238.525,869.371 239.493,912.576 240.46,952.324 241.428,988.874 242.395,1022.5 243.363,1053.38 244.331,1081.72 245.298,1107.69 246.266,1131.48 247.234,1153.25 248.201,1173.18 249.169,1191.41 250.136,1208.11 251.104,1223.4 252.072,1237.43 253.039,1250.26 254.007,1262.01 254.974,1272.76 255.942,1282.59 256.91,1291.58 257.877,1299.81 258.845,1307.34 259.812,1314.22 260.78,1320.53 261.748,1326.28 262.715,1331.54 263.683,1336.34 264.651,1340.72 265.618,1344.71 266.586,1348.35 267.553,1351.67 268.521,1354.69 269.489,1357.44 270.456,1359.94 271.424,1362.2 272.391,1364.25 273.359,1366.12 274.327,1367.8 275.294,1369.33 276.262,1370.71 277.229,1371.96 278.197,1373.08 279.165,1374.1 280.132,1375.02 281.1,1375.86 282.068,1376.61 283.035,1377.28 284.003,1377.9 284.97,1378.45 285.938,1378.96 286.906,1379.41 287.873,1379.82 288.841,1380.2 289.808,1380.54 290.776,1380.85 291.744,1381.13 292.711,1381.38 293.679,1381.62 294.646,1381.83 295.614,1382.03 296.582,1382.21 297.549,1382.38 298.517,1382.53 299.485,1382.67 300.452,1382.8 301.42,1382.92 302.387,1383.04 303.355,1383.14 304.323,1383.24 305.29,1383.33 306.258,1383.42 307.225,1383.5 308.193,1383.57 309.161,1383.64 310.128,1383.71 311.096,1383.77 312.063,1383.83 313.031,1383.89 313.999,1383.94 314.966,1383.99 315.934,1384.04 316.902,1384.08 317.869,1384.12 318.837,1384.16 319.804,1384.19 320.772,1384.21 321.74,1384.23 322.707,1384.24 323.675,1384.24 324.642,1384.23 325.61,1384.2 326.578,1384.16 327.545,1384.1 328.513,1384.02 329.48,1383.91 330.448,1383.78 331.416,1383.61 332.383,1383.41 333.351,1383.17 334.319,1382.88 335.286,1382.54 336.254,1382.14 337.221,1381.67 338.189,1381.13 339.157,1380.51 340.124,1379.8 341.092,1378.98 342.059,1378.06 343.027,1377.01 343.995,1375.84 344.962,1374.53 345.93,1373.07 346.897,1371.45 347.865,1369.66 348.833,1367.69 349.8,1365.53 350.768,1363.18 351.736,1360.61 352.703,1357.82 353.671,1354.79 354.638,1351.5 355.606,1347.9 356.574,1343.98 357.541,1339.68 358.509,1334.94 359.476,1329.69 360.444,1323.81 361.412,1317.17 362.379,1309.6 363.347,1300.88 364.314,1290.78 365.282,1278.97 366.25,1265.03 367.217,1248.52 368.185,1229 369.153,1206.01 370.12,1179.09 371.088,1147.76 372.055,1111.81 373.023,1071.49 373.991,1027.23 374.958,979.686 375.926,929.643 376.893,878.089 377.861,826.178 378.829,775 379.796,725.197 380.764,677.347 381.732,631.852 382.699,588.958 383.667,548.753 384.634,511.264 385.602,476.466 386.57,444.28 387.537,414.574 388.505,387.189 389.472,361.989 390.44,338.829 391.408,317.566 392.375,298.063 393.343,280.184 394.31,263.801 395.278,248.787 396.246,235.027 397.213,222.427 398.181,210.892 399.149,200.336 400.116,190.678 401.084,181.842 402.051,173.756 403.019,166.355 403.987,159.579 404.954,153.378 405.922,147.707 406.889,142.523 407.857,137.786 408.825,133.458 409.792,129.503 410.76,125.888 411.727,122.581 412.695,119.553 413.663,116.785 414.63,114.254 415.598,111.941 416.566,109.828 417.533,107.895 418.501,106.129 419.468,104.511 420.436,103.029 421.404,101.672 422.371,100.433 423.339,99.3005 424.306,98.2676 425.274,97.3257 426.242,96.4668 427.209,95.6832 428.177,94.9676 429.144,94.3128 430.112,93.712 431.08,93.1587 432.047,92.6462 433.015,92.1713 433.983,91.733 434.95,91.3304 435.918,90.9629 436.885,90.6297 437.853,90.3303 438.821,90.0642 439.788,89.8311 440.756,89.6308 441.723,89.4631 442.691,89.3348 443.659,89.8148 444.626,90.9275 445.594,92.4645 446.561,94.5707 447.529,97.7442 448.497,102.837 449.464,111.054 450.432,123.953 451.4,143.446 452.367,171.799 453.335,211.629 454.302,263.865 455.27,324.002 456.238,388.795 457.205,455.586 458.173,522.233 459.14,587.116 460.108,649.134 461.076,707.703 462.043,762.538 463.011,813.597 463.978,860.971 464.946,904.778 465.914,945.166 466.881,982.308 467.849,1016.41 468.817,1047.7 469.784,1076.44 470.752,1102.83 471.719,1127.03 472.687,1149.21 473.655,1169.51 474.622,1188.09 475.59,1205.08 476.557,1220.62 477.525,1234.84 478.493,1247.85 479.46,1259.78 480.428,1270.72 481.395,1280.73 482.363,1289.89 483.331,1298.26 484.298,1305.92 485.266,1312.92 486.234,1319.32 487.201,1325.17 488.169,1330.51 489.136,1335.4 490.104,1339.87 491.072,1343.94 492.039,1347.65 493.007,1351.03 493.974,1354.1 494.942,1356.89 495.91,1359.42 496.877,1361.72 497.845,1363.81 498.812,1365.71 499.78,1367.43 500.748,1368.98 501.715,1370.39 502.683,1371.66 503.651,1372.8 504.618,1373.84 505.586,1374.77 506.553,1375.62 507.521,1376.38 508.489,1377.08 509.456,1377.7 510.424,1378.27 511.391,1378.78 512.359,1379.24 513.327,1379.66 514.294,1380.04 515.262,1380.39 516.229,1380.7 517.197,1380.99 518.165,1381.25 519.132,1381.49 520.1,1381.71 521.068,1381.92 522.035,1382.1 523.003,1382.27 523.97,1382.43 524.938,1382.57 525.906,1382.71 526.873,1382.83 527.841,1382.95 528.808,1383.06 529.776,1383.16 530.744,1383.25 531.711,1383.34 532.679,1383.43 533.646,1383.5 534.614,1383.58 535.582,1383.65 536.549,1383.71 537.517,1383.78 538.485,1383.84 539.452,1383.89 540.42,1383.94 541.387,1383.99 542.355,1384.04 543.323,1384.08 544.29,1384.12 545.258,1384.15 546.225,1384.18 547.193,1384.2 548.161,1384.21 549.128,1384.21 550.096,1384.2 551.063,1384.18 552.031,1384.14 552.999,1384.08 553.966,1384 554.934,1383.9 555.902,1383.77 556.869,1383.61 557.837,1383.41 558.804,1383.18 559.772,1382.89 560.74,1382.55 561.707,1382.16 562.675,1381.7 563.642,1381.16 564.61,1380.54 565.578,1379.84 566.545,1379.03 567.513,1378.11 568.481,1377.07 569.448,1375.91 570.416,1374.6 571.383,1373.15 572.351,1371.54 573.319,1369.75 574.286,1367.79 575.254,1365.64 576.221,1363.29 577.189,1360.72 578.157,1357.93 579.124,1354.9 580.092,1351.61 581.059,1348.05 582.027,1344.17 582.995,1339.93 583.962,1335.26 584.93,1330.05 585.898,1324.2 586.865,1317.57 587.833,1310.02 588.8,1301.36 589.768,1291.42 590.736,1279.81 591.703,1266.07 592.671,1249.72 593.638,1230.35 594.606,1207.55 595.574,1180.92 596.541,1150.12 597.509,1114.82 598.476,1074.75 599.444,1030.44 600.412,982.904 601.379,933.114 602.347,881.996 603.315,830.422 604.282,779.218 605.25,729.156 606.217,680.96 607.185,635.249 608.153,592.178 609.12,551.782 610.088,514.072 611.055,479.026 612.023,446.588 612.991,416.664 613.958,389.126 614.926,363.813 615.893,340.528 616.861,319.089 617.829,299.381 618.796,281.294 619.764,264.722 620.732,249.56 621.699,235.703 622.667,223.051 623.634,211.506 624.602,200.969 625.57,191.347 626.537,182.545 627.505,174.473 628.472,167.042 629.44,160.209 630.408,153.956 631.375,148.237 632.343,143.008 633.31,138.23 634.278,133.863 635.246,129.872 636.213,126.223 637.181,122.886 638.149,119.831 639.116,117.038 640.084,114.484 641.051,112.15 642.019,110.018 642.987,108.071 643.954,106.29 644.922,104.663 645.889,103.174 646.857,101.808 647.825,100.551 648.792,99.3991 649.76,98.3446 650.727,97.3816 651.695,96.504 652.663,95.7056 653.63,94.98 654.598,94.3213 655.566,93.7231 656.533,93.1794 657.501,92.684 658.468,92.2308 659.436,91.8137 660.404,91.4265 661.371,91.0518 662.339,90.6099 663.306,90.0886 664.274,89.5071 665.242,88.9036 666.209,88.3355 667.177,87.8792 668.144,87.6301 669.112,87.7027 670.08,88.2307 671.047,89.3668 672.015,91.2826 672.983,94.1691 673.95,98.1662 674.918,104.447 675.885,116.273 676.853,136.211 677.821,165.861 678.788,205.866 679.756,255.902 680.723,314.688 681.691,379.977 682.659,448.561 683.626,516.291 684.594,581.009 685.561,642.874 686.529,701.567 687.497,756.849 688.464,808.562 689.432,856.626 690.4,901.042 691.367,941.891 692.335,979.333 693.302,1013.61 694.27,1045.04 695.238,1074 696.205,1100.61 697.173,1125.02 698.14,1147.39 699.108,1167.86 700.076,1186.59 701.043,1203.71 702.011,1219.36 702.978,1233.67 703.946,1246.76 704.914,1258.75 705.881,1269.75 706.849,1279.84 707.817,1289.08 708.784,1297.53 709.752,1305.26 710.719,1312.32 711.687,1318.77 712.655,1324.67 713.622,1330.05 714.59,1334.97 715.557,1339.46 716.525,1343.57 717.493,1347.31 718.46,1350.73 719.428,1353.83 720.395,1356.65 721.363,1359.21 722.331,1361.53 723.298,1363.63 724.266,1365.54 725.234,1367.27 726.201,1368.84 727.169,1370.26 728.136,1371.54 729.104,1372.7 730.072,1373.75 731.039,1374.69 732.007,1375.54 732.974,1376.31 733.942,1377.01 734.91,1377.64 735.877,1378.21 736.845,1378.73 737.812,1379.2 738.78,1379.62 739.748,1380.01 740.715,1380.36 741.683,1380.67 742.651,1380.96 743.618,1381.23 744.586,1381.47 745.553,1381.69 746.521,1381.9 747.489,1382.08 748.456,1382.25 749.424,1382.41 750.391,1382.56 751.359,1382.69 752.327,1382.82 753.294,1382.94 754.262,1383.05 755.229,1383.15 756.197,1383.24 757.165,1383.33 758.132,1383.42 759.1,1383.5 760.068,1383.57 761.035,1383.64 762.003,1383.71 762.97,1383.77 763.938,1383.83 764.906,1383.88 765.873,1383.94 766.841,1383.99 767.808,1384.03 768.776,1384.08 769.744,1384.11 770.711,1384.15 771.679,1384.17 772.647,1384.19 773.614,1384.21 774.582,1384.21 775.549,1384.2 776.517,1384.18 777.485,1384.14 778.452,1384.09 779.42,1384.01 780.387,1383.91 781.355,1383.78 782.323,1383.63 783.29,1383.43 784.258,1383.2 785.225,1382.92 786.193,1382.59 787.161,1382.2 788.128,1381.74 789.096,1381.21 790.064,1380.6 791.031,1379.9 791.999,1379.1 792.966,1378.2 793.934,1377.17 794.902,1376.01 795.869,1374.72 796.837,1373.28 797.804,1371.68 798.772,1369.91 799.74,1367.96 800.707,1365.84 801.675,1363.52 802.642,1361 803.61,1358.25 804.578,1355.27 805.545,1352.01 806.513,1348.45 807.481,1344.55 808.448,1340.27 809.416,1335.57 810.383,1330.39 811.351,1324.6 812.319,1318.09 813.286,1310.69 814.254,1302.21 815.221,1292.37 816.189,1280.88 817.157,1267.35 818.124,1251.36 819.092,1232.45 820.059,1210.12 821.027,1183.9 821.995,1153.37 822.962,1118.38 823.93,1078.99 824.898,1035.5 825.865,988.436 826.833,938.582 827.8,886.938 828.768,834.743 829.736,783.391 830.703,733.604 831.671,685.699 832.638,639.946 833.606,596.564 834.574,555.712 835.541,517.494 836.509,481.96 837.476,449.1 838.444,418.852 839.412,391.095 840.379,365.653 841.347,342.293 842.315,320.762 843.282,300.968 844.25,282.807 845.217,266.162 846.185,250.921 847.153,236.976 848.12,224.224 849.088,212.565 850.055,201.903 851.023,192.146 851.991,183.207 852.958,175.005 853.926,167.487 854.893,160.606 855.861,154.312 856.829,148.561 857.796,143.306 858.764,138.506 859.732,134.123 860.699,130.117 861.667,126.453 862.634,123.1 863.602,120.027 864.57,117.216 865.537,114.646 866.505,112.298 867.472,110.153 868.44,108.193 869.408,106.403 870.375,104.767 871.343,103.27 872.31,101.899 873.278,100.635 874.246,99.4726 875.213,98.4062 876.181,97.4312 877.149,96.5423 878.116,95.7343 879.084,95.0014 880.051,94.338 881.019,93.7382 881.987,93.1957 882.954,92.7043 883.922,92.2574 884.889,91.8482 885.857,91.47 886.825,91.1155 887.792,90.7812 888.76,90.4818 889.727,90.0977 890.695,89.5365 891.663,88.7825 892.63,87.8959 893.598,87.0131 894.566,86.3468 895.533,86.1857 896.501,86.8949 897.468,88.9155 898.436,92.765 899.404,99.0369 900.371,108.401 901.339,123.469 902.306,147.249 903.274,180.211 904.242,222.286 905.209,272.871 906.177,330.831 907.144,394.498 908.112,461.67 909.08,529.611 910.047,595.062 911.015,656.486 911.983,714.342 912.95,768.597 913.918,819.249 914.885,866.333 915.853,909.916 916.821,950.099 917.788,987.02 918.756,1020.85 919.723,1051.79 920.691,1080.08 921.659,1105.99 922.626,1129.83 923.594,1151.77 924.561,1171.91 925.529,1190.36 926.497,1207.25 927.464,1222.69 928.432,1236.79 929.4,1249.66 930.367,1261.41 931.335,1272.14 932.302,1281.94 933.27,1290.91 934.238,1299.14 935.205,1306.72 936.173,1313.66 937.14,1320.01 938.108,1325.81 939.076,1331.11 940.043,1335.94 941.011,1340.35 941.978,1344.37 942.946,1348.03 943.914,1351.37 944.881,1354.41 945.849,1357.18 946.817,1359.7 947.784,1361.98 948.752,1364.05 949.719,1365.92 950.687,1367.62 951.655,1369.15 952.622,1370.53 953.59,1371.78 954.557,1372.91 955.525,1373.94 956.493,1374.87 957.46,1375.71 958.428,1376.46 959.396,1377.15 960.363,1377.76 961.331,1378.32 962.298,1378.83 963.266,1379.28 964.234,1379.7 965.201,1380.08 966.169,1380.42 967.136,1380.74 968.104,1381.02 969.072,1381.28 970.039,1381.52 971.007,1381.74 971.974,1381.94 972.942,1382.12 973.91,1382.29 974.877,1382.44 975.845,1382.59 976.813,1382.72 977.78,1382.85 978.748,1382.96 979.715,1383.07 980.683,1383.17 981.651,1383.26 982.618,1383.35 983.586,1383.44 984.553,1383.51 985.521,1383.59 986.489,1383.66 987.456,1383.72 988.424,1383.78 989.391,1383.84 990.359,1383.9 991.327,1383.95 992.294,1384 993.262,1384.04 994.23,1384.08 995.197,1384.12 996.165,1384.15 997.132,1384.18 998.1,1384.2 999.068,1384.21 1000.04,1384.21 1001,1384.2 1001.97,1384.17 1002.94,1384.13 1003.91,1384.07 1004.87,1383.99 1005.84,1383.89 1006.81,1383.75 1007.78,1383.59 1008.74,1383.39 1009.71,1383.15 1010.68,1382.86 1011.65,1382.51 1012.61,1382.11 1013.58,1381.64 1014.55,1381.1 1015.52,1380.47 1016.48,1379.75 1017.45,1378.93 1018.42,1378 1019.39,1376.95 1020.36,1375.77 1021.32,1374.45 1022.29,1372.98 1023.26,1371.35 1024.23,1369.55 1025.19,1367.57 1026.16,1365.4 1027.13,1363.02 1028.1,1360.43 1029.06,1357.61 1030.03,1354.56 1031,1351.23 1031.97,1347.62 1032.93,1343.7 1033.9,1339.41 1034.87,1334.68 1035.84,1329.43 1036.8,1323.52 1037.77,1316.82 1038.74,1309.16 1039.71,1300.35 1040.67,1290.18 1041.64,1278.4 1042.61,1264.49 1043.58,1247.88 1044.55,1228.12 1045.51,1204.79 1046.48,1177.55 1047.45,1146.14 1048.42,1110.36 1049.38,1070.07 1050.35,1025.44 1051.32,977.484 1052.29,927.326 1053.25,875.991 1054.22,824.398 1055.19,773.365 1056.16,723.604 1057.12,675.725 1058.09,630.234 1059.06,587.445 1060.03,547.372 1060.99,509.994 1061.96,475.267 1062.93,443.12 1063.9,413.455 1064.87,386.153 1065.83,361.066 1066.8,338.024 1067.77,316.833 1068.74,297.35 1069.7,279.464 1070.67,263.068 1071.64,248.057 1072.61,234.329 1073.57,221.785 1074.54,210.328 1075.51,199.866 1076.48,190.307 1077.44,181.564 1078.41,173.552 1079.38,166.189 1080.35,159.429 1081.31,153.241 1082.28,147.583 1083.25,142.41 1084.22,137.682 1085.18,133.363 1086.15,129.415 1087.12,125.806 1088.09,122.505 1089.06,119.483 1090.02,116.72 1090.99,114.194 1091.96,111.886 1092.93,109.777 1093.89,107.85 1094.86,106.088 1095.83,104.477 1096.8,103.002 1097.76,101.646 1098.73,100.401 1099.7,99.2622 1100.67,98.2213 1101.63,97.272 1102.6,96.4077 1103.57,95.6217 1104.54,94.9075 1105.5,94.2585 1106.47,93.6683 1107.44,93.1305 1108.41,92.6387 1109.38,92.1865 1110.34,91.7677 1111.31,91.3686 1112.28,90.9351 1113.25,90.4678 1114.21,89.9854 1115.18,89.5141 1116.15,89.0872 1117.12,88.7455 1118.08,88.5371 1119.05,88.5172 1120.02,88.7485 1120.99,89.3011 1121.95,90.252 1122.92,91.686 1123.89,92.9851 1124.86,94.6475 1125.82,100.432 1126.79,113.316 1127.76,135.345 1128.73,167.639 1129.7,210.388 1130.66,262.857 1131.63,323.378 1132.6,389.358 1133.57,457.276 1134.53,523.617 1135.5,587.88 1136.47,649.51 1137.44,708.026 1138.4,763.071 1139.37,814.423 1140.34,861.985 1141.31,905.793 1142.27,946.01 1143.24,982.932 1144.21,1016.96 1145.18,1048.27 1146.14,1077.02 1147.11,1103.38 1148.08,1127.54 1149.05,1149.65 1150.01,1169.89 1150.98,1188.39 1151.95,1205.32 1152.92,1220.82 1153.89,1235.02 1154.85,1248.04 1155.82,1259.98 1156.79,1270.92 1157.76,1280.91 1158.72,1290.06 1159.69,1298.41 1160.66,1306.05 1161.63,1313.03 1162.59,1319.42 1163.56,1325.25 1164.53,1330.59 1165.5,1335.48 1166.46,1339.94 1167.43,1344 1168.4,1347.71 1169.37,1351.08 1170.33,1354.14 1171.3,1356.93 1172.27,1359.46 1173.24,1361.75 1174.21,1363.84 1175.17,1365.73 1176.14,1367.45 1177.11,1369 1178.08,1370.4 1179.04,1371.67 1180.01,1372.82 1180.98,1373.85 1181.95,1374.78 1182.91,1375.62 1183.88,1376.39 1184.85,1377.08 1185.82,1377.7 1186.78,1378.27 1187.75,1378.78 1188.72,1379.24 1189.69,1379.66 1190.65,1380.04 1191.62,1380.39 1192.59,1380.7 1193.56,1380.99 1194.53,1381.25 1195.49,1381.49 1196.46,1381.71 1197.43,1381.91 1198.4,1382.1 1199.36,1382.27 1200.33,1382.43 1201.3,1382.57 1202.27,1382.71 1203.23,1382.83 1204.2,1382.95 1205.17,1383.06 1206.14,1383.16 1207.1,1383.25 1208.07,1383.34 1209.04,1383.42 1210.01,1383.5 1210.97,1383.58 1211.94,1383.65 1212.91,1383.71 1213.88,1383.77 1214.84,1383.83 1215.81,1383.89 1216.78,1383.94 1217.75,1383.99 1218.72,1384.04 1219.68,1384.08 1220.65,1384.12 1221.62,1384.15 1222.59,1384.17 1223.55,1384.19 1224.52,1384.2 1225.49,1384.21 1226.46,1384.2 1227.42,1384.17 1228.39,1384.14 1229.36,1384.08 1230.33,1384 1231.29,1383.9 1232.26,1383.77 1233.23,1383.61 1234.2,1383.41 1235.16,1383.17 1236.13,1382.88 1237.1,1382.55 1238.07,1382.15 1239.04,1381.68 1240,1381.15 1240.97,1380.53 1241.94,1379.82 1242.91,1379 1243.87,1378.08 1244.84,1377.04 1245.81,1375.87 1246.78,1374.56 1247.74,1373.1 1248.71,1371.49 1249.68,1369.71 1250.65,1367.75 1251.61,1365.6 1252.58,1363.24 1253.55,1360.68 1254.52,1357.88 1255.48,1354.83 1256.45,1351.52 1257.42,1347.94 1258.39,1344.02 1259.36,1339.73 1260.32,1335.04 1261.29,1329.83 1262.26,1324.01 1263.23,1317.43 1264.19,1309.9 1265.16,1301.22 1266.13,1291.15 1267.1,1279.4 1268.06,1265.75 1269.03,1249.61 1270,1230.33 1270.97,1207.36 1271.93,1180.35 1272.9,1149.05 1273.87,1113.41 1274.84,1073.49 1275.8,1029.51 1276.77,981.949 1277.74,931.867 1278.71,880.447 1279.67,828.716 1280.64,777.554 1281.61,727.691 1282.58,679.711 1283.55,634.045 1284.51,590.979 1285.48,550.653 1286.45,513.066 1287.42,478.144 1288.38,445.799 1289.35,415.926 1290.32,388.408 1291.29,363.111 1292.25,339.888 1293.22,318.576 1294.19,299 1295.16,281.012 1296.12,264.508 1297.09,249.383 1298.06,235.538 1299.03,222.875 1299.99,211.303 1300.96,200.731 1301.93,191.072 1302.9,182.243 1303.87,174.165 1304.83,166.761 1305.8,159.961 1306.77,153.732 1307.74,148.033 1308.7,142.823 1309.67,138.06 1310.64,133.706 1311.61,129.727 1312.57,126.089 1313.54,122.761 1314.51,119.717 1315.48,116.934 1316.44,114.39 1317.41,112.066 1318.38,109.941 1319.35,108 1320.31,106.225 1321.28,104.601 1322.25,103.112 1323.22,101.748 1324.18,100.5 1325.15,99.3591 1326.12,98.3182 1327.09,97.3691 1328.06,96.5041 1329.02,95.7158 1329.99,94.9971 1330.96,94.3409 1331.93,93.7406 1332.89,93.1895 1333.86,92.6815 1334.83,92.2053 1335.8,91.7517 1336.76,91.3242 1337.73,90.9268 1338.7,90.5637 1339.67,90.2389 1340.63,89.9569 1341.6,89.7223 1342.57,89.5396 1343.54,89.4139 1344.5,89.3499 1345.47,89.3528 1346.44,89.4503 1347.41,89.93 1348.38,91.2104 1349.34,93.9101 1350.31,98.8823 1351.28,107.216 1352.25,120.234 1353.21,139.495 1354.18,166.793 1355.15,204.157 1356.12,253.478 1357.08,311.939 1358.05,375.799 1359.02,442.239 1359.99,508.976 1360.95,574.258 1361.92,636.864 1362.89,696.108 1363.86,751.699 1364.82,803.506 1365.79,851.609 1366.76,896.12 1367.73,937.182 1368.7,974.965 1369.66,1009.67 1370.63,1041.51 1371.6,1070.76 1372.57,1097.62 1373.53,1122.25 1374.5,1144.83 1375.47,1165.49 1376.44,1184.41 1377.4,1201.71 1378.37,1217.54 1379.34,1232.02 1380.31,1245.28 1381.27,1257.43 1382.24,1268.56 1383.21,1278.76 1384.18,1288.08 1385.14,1296.61 1386.11,1304.41 1387.08,1311.54 1388.05,1318.05 1389.01,1324.01 1389.98,1329.46 1390.95,1334.44 1391.92,1338.99 1392.89,1343.14 1393.85,1346.92 1394.82,1350.36 1395.79,1353.49 1396.76,1356.34 1397.72,1358.92 1398.69,1361.27 1399.66,1363.4 1400.63,1365.34 1401.59,1367.09 1402.56,1368.68 1403.53,1370.11 1404.5,1371.41 1405.46,1372.58 1406.43,1373.63 1407.4,1374.59 1408.37,1375.45 1409.33,1376.23 1410.3,1376.94 1411.27,1377.58 1412.24,1378.15 1413.21,1378.67 1414.17,1379.15 1415.14,1379.58 1416.11,1379.96 1417.08,1380.32 1418.04,1380.64 1419.01,1380.93 1419.98,1381.2 1420.95,1381.45 1421.91,1381.67 1422.88,1381.87 1423.85,1382.06 1424.82,1382.24 1425.78,1382.39 1426.75,1382.54 1427.72,1382.68 1428.69,1382.81 1429.65,1382.93 1430.62,1383.04 1431.59,1383.14 1432.56,1383.23 1433.53,1383.32 1434.49,1383.41 1435.46,1383.49 1436.43,1383.56 1437.4,1383.63 1438.36,1383.7 1439.33,1383.76 1440.3,1383.82 1441.27,1383.88 1442.23,1383.93 1443.2,1383.98 1444.17,1384.03 1445.14,1384.07 1446.1,1384.11 1447.07,1384.14 1448.04,1384.17 1449.01,1384.19 1449.97,1384.2 1450.94,1384.21 1451.91,1384.2 1452.88,1384.18 1453.84,1384.15 1454.81,1384.09 1455.78,1384.02 1456.75,1383.92 1457.72,1383.8 1458.68,1383.65 1459.65,1383.46 1460.62,1383.23 1461.59,1382.95 1462.55,1382.63 1463.52,1382.24 1464.49,1381.8 1465.46,1381.27 1466.42,1380.67 1467.39,1379.98 1468.36,1379.2 1469.33,1378.3 1470.29,1377.29 1471.26,1376.15 1472.23,1374.88 1473.2,1373.45 1474.16,1371.87 1475.13,1370.12 1476.1,1368.2 1477.07,1366.08 1478.04,1363.77 1479,1361.25 1479.97,1358.51 1480.94,1355.53 1481.91,1352.3 1482.87,1348.8 1483.84,1345 1484.81,1340.84 1485.78,1336.25 1486.74,1331.14 1487.71,1325.4 1488.68,1318.93 1489.65,1311.58 1490.61,1303.19 1491.58,1293.55 1492.55,1282.27 1493.52,1268.93 1494.48,1253.13 1495.45,1234.45 1496.42,1212.45 1497.39,1186.73 1498.36,1156.83 1499.32,1122.34 1500.29,1083 1501.26,1039.47 1502.23,992.64 1503.19,943.373 1504.16,892.538 1505.13,840.987 1506.1,789.566 1507.06,739.111 1508.03,690.447 1509,644.262 1509.97,600.662 1510.93,559.713 1511.9,521.446 1512.87,485.856 1513.84,452.898 1514.8,422.485 1515.77,394.49 1516.74,368.749 1517.71,345.056 1518.67,323.226 1519.64,303.147 1520.61,284.713 1521.58,267.821 1522.55,252.367 1523.51,238.25 1524.48,225.37 1525.45,213.626 1526.42,202.921 1527.38,193.157 1528.35,184.238 1529.32,176.07 1530.29,168.558 1531.25,161.617 1532.22,155.246 1533.19,149.417 1534.16,144.087 1535.12,139.214 1536.09,134.762 1537.06,130.692 1538.03,126.973 1538.99,123.571 1539.96,120.459 1540.93,117.612 1541.9,115.01 1542.87,112.631 1543.83,110.458 1544.8,108.472 1545.77,106.657 1546.74,104.998 1547.7,103.479 1548.67,102.085 1549.64,100.803 1550.61,99.6292 1551.57,98.5554 1552.54,97.5754 1553.51,96.6827 1554.48,95.8706 1555.44,95.1328 1556.41,94.4628 1557.38,93.8541 1558.35,93.3003 1559.31,92.795 1560.28,92.3318 1561.25,91.9045 1562.22,91.5068 1563.19,91.1034 1564.15,90.652 1565.12,90.1665 1566.09,89.6703 1567.06,89.1957 1568.02,88.7832 1568.99,88.4825 1569.96,88.3515 1570.93,88.4571 1571.89,88.8748 1572.86,89.6887 1573.83,90.9918 1574.8,92.8659 1575.76,94.4177 1576.73,98.1272 1577.7,107.499 1578.67,125.093 1579.63,152.525 1580.6,190.465 1581.57,238.638 1582.54,295.826 1583.5,359.864 1584.47,427.644 1585.44,495.166 1586.41,560.443 1587.38,623.27 1588.34,683.147 1589.31,739.694 1590.28,792.65 1591.25,841.869 1592.21,887.326 1593.18,929.113 1594.15,967.442 1595.12,1002.64 1596.08,1035.09 1597.05,1064.92 1598.02,1092.29 1598.99,1117.39 1599.95,1140.37 1600.92,1161.4 1601.89,1180.64 1602.86,1198.24 1603.82,1214.33 1604.79,1229.06 1605.76,1242.57 1606.73,1254.96 1607.7,1266.31 1608.66,1276.71 1609.63,1286.21 1610.6,1294.9 1611.57,1302.85 1612.53,1310.1 1613.5,1316.74 1614.47,1322.8 1615.44,1328.35 1616.4,1333.42 1617.37,1338.06 1618.34,1342.3 1619.31,1346.15 1620.27,1349.67 1621.24,1352.86 1622.21,1355.76 1623.18,1358.4 1624.14,1360.79 1625.11,1362.97 1626.08,1364.94 1627.05,1366.73 1628.01,1368.35 1628.98,1369.82 1629.95,1371.14 1630.92,1372.34 1631.89,1373.42 1632.85,1374.39 1633.82,1375.27 1634.79,1376.07 1635.76,1376.79 1636.72,1377.44 1637.69,1378.03 1638.66,1378.57 1639.63,1379.05 1640.59,1379.49 1641.56,1379.88 1642.53,1380.24 1643.5,1380.57 1644.46,1380.87 1645.43,1381.14 1646.4,1381.39 1647.37,1381.62 1648.33,1381.83 1649.3,1382.02 1650.27,1382.2 1651.24,1382.36 1652.21,1382.51 1653.17,1382.65 1654.14,1382.78 1655.11,1382.9 1656.08,1383.01 1657.04,1383.12 1658.01,1383.21 1658.98,1383.3 1659.95,1383.39 1660.91,1383.47 1661.88,1383.55 1662.85,1383.62 1663.82,1383.68 1664.78,1383.75 1665.75,1383.81 1666.72,1383.87 1667.69,1383.92 1668.65,1383.97 1669.62,1384.02 1670.59,1384.06 1671.56,1384.1 1672.53,1384.13 1673.49,1384.16 1674.46,1384.19 1675.43,1384.2 1676.4,1384.21 1677.36,1384.2 1678.33,1384.19 1679.3,1384.15 1680.27,1384.11 1681.23,1384.04 1682.2,1383.95 1683.17,1383.83 1684.14,1383.68 1685.1,1383.5 1686.07,1383.28 1687.04,1383.01 1688.01,1382.7 1688.97,1382.33 1689.94,1381.89 1690.91,1381.39 1691.88,1380.81 1692.84,1380.14 1693.81,1379.37 1694.78,1378.5 1695.75,1377.51 1696.72,1376.39 1697.68,1375.15 1698.65,1373.75 1699.62,1372.21 1700.59,1370.5 1701.55,1368.62 1702.52,1366.55 1703.49,1364.29 1704.46,1361.82 1705.42,1359.13 1706.39,1356.19 1707.36,1353 1708.33,1349.53 1709.29,1345.76 1710.26,1341.63 1711.23,1337.11 1712.2,1332.12 1713.16,1326.58 1714.13,1320.36 1715.1,1313.28 1716.07,1305.14 1717.04,1295.72 1718,1284.73 1718.97,1271.86 1719.94,1256.87 1720.91,1239.12 1721.87,1217.92 1722.84,1192.76 1723.81,1163.31 1724.78,1129.45 1725.74,1091.22 1726.71,1048.87 1727.68,1002.83 1728.65,953.767 1729.61,902.8 1730.58,851.059 1731.55,799.513 1732.52,748.977 1733.48,700.108 1734.45,653.403 1735.42,609.204 1736.39,567.695 1737.36,528.922 1738.32,492.867 1739.29,459.437 1740.26,428.522 1741.23,400.005 1742.19,373.758 1743.16,349.645 1744.13,327.52 1745.1,307.226 1746.06,288.598 1747.03,271.486 1748,255.787 1748.97,241.4 1749.93,228.23 1750.9,216.185 1751.87,205.177 1752.84,195.119 1753.8,185.931 1754.77,177.533 1755.74,169.85 1756.71,162.811 1757.67,156.349 1758.64,150.427 1759.61,145.011 1760.58,140.058 1761.55,135.531 1762.51,131.394 1763.48,127.613 1764.45,124.156 1765.42,120.995 1766.38,118.103 1767.35,115.459 1768.32,113.042 1769.29,110.834 1770.25,108.815 1771.22,106.97 1772.19,105.283 1773.16,103.737 1774.12,102.319 1775.09,101.019 1776.06,99.8309 1777.03,98.7459 1777.99,97.7566 1778.96,96.8555 1779.93,96.0351 1780.9,95.2883 1781.87,94.608 1782.83,93.9873 1783.8,93.4194 1784.77,92.8978 1785.74,92.4161 1786.7,91.9644 1787.67,91.5326 1788.64,91.125 1789.61,90.7466 1790.57,90.4021 1791.54,90.0958 1792.51,89.8321 1793.48,89.6149 1794.44,89.4481 1795.41,89.3352 1796.38,89.2797 1797.35,89.2847 1798.31,89.4901 1799.28,90.2689 1800.25,91.9336 1801.22,95.0703 1802.19,100.55 1803.15,109.53 1804.12,123.452 1805.09,144.043 1806.06,173.316 1807.02,213.57 1807.99,265.682 1808.96,325.677 1809.93,390.331 1810.89,456.987 1811.86,523.508 1812.83,588.278 1813.8,650.199 1814.76,708.683 1815.73,763.43 1816.7,814.42 1817.67,861.731 1818.63,905.476 1819.6,945.797 1820.57,982.874 1821.54,1016.92 1822.5,1048.17 1823.47,1076.89 1824.44,1103.25 1825.41,1127.42 1826.38,1149.56 1827.34,1169.82 1828.31,1188.36 1829.28,1205.32 1830.25,1220.84 1831.21,1235.04 1832.18,1248.04 1833.15,1259.97 1834.12,1270.89 1835.08,1280.88 1836.05,1290.03 1837.02,1298.39 1837.99,1306.03 1838.95,1313.02 1839.92,1319.41 1840.89,1325.26 1841.86,1330.6 1842.82,1335.48 1843.79,1339.94 1844.76,1344 1845.73,1347.71 1846.7,1351.08 1847.66,1354.14 1848.63,1356.93 1849.6,1359.46 1850.57,1361.76 1851.53,1363.85 1852.5,1365.74 1853.47,1367.45 1854.44,1369.01 1855.4,1370.41 1856.37,1371.67 1857.34,1372.82 1858.31,1373.85 1859.27,1374.78 1860.24,1375.63 1861.21,1376.39 1862.18,1377.08 1863.14,1377.71 1864.11,1378.27 1865.08,1378.78 1866.05,1379.24 1867.01,1379.66 1867.98,1380.04 1868.95,1380.39 1869.92,1380.71 1870.89,1380.99 1871.85,1381.26 1872.82,1381.5 1873.79,1381.72 1874.76,1381.92 1875.72,1382.1 1876.69,1382.27 1877.66,1382.43 1878.63,1382.57 1879.59,1382.71 1880.56,1382.83 1881.53,1382.95 1882.5,1383.06 1883.46,1383.16 1884.43,1383.25 1885.4,1383.34 1886.37,1383.43 1887.33,1383.5 1888.3,1383.58 1889.27,1383.65 1890.24,1383.71 1891.21,1383.78 1892.17,1383.84 1893.14,1383.89 1894.11,1383.94 1895.08,1383.99 1896.04,1384.04 1897.01,1384.08 1897.98,1384.12 1898.95,1384.15 1899.91,1384.18 1900.88,1384.19 1901.85,1384.21 1902.82,1384.21 1903.78,1384.2 1904.75,1384.18 1905.72,1384.14 1906.69,1384.08 1907.65,1384 1908.62,1383.9 1909.59,1383.77 1910.56,1383.61 1911.53,1383.41 1912.49,1383.17 1913.46,1382.89 1914.43,1382.55 1915.4,1382.15 1916.36,1381.69 1917.33,1381.15 1918.3,1380.53 1919.27,1379.82 1920.23,1379.01 1921.2,1378.09 1922.17,1377.05 1923.14,1375.88 1924.1,1374.57 1925.07,1373.12 1926.04,1371.5 1927.01,1369.71 1927.97,1367.74 1928.94,1365.59 1929.91,1363.23 1930.88,1360.66 1931.84,1357.87 1932.81,1354.84 1933.78,1351.56 1934.75,1348 1935.72,1344.13 1936.68,1339.88 1937.65,1335.17 1938.62,1329.93 1939.59,1324.04 1940.55,1317.38 1941.52,1309.82 1942.49,1301.19 1943.46,1291.21 1944.42,1279.5 1945.39,1265.65 1946.36,1249.26 1947.33,1229.91 1948.29,1207.16 1949.26,1180.57 1950.23,1149.68 1951.2,1114.03 1952.16,1073.66 1953.13,1029.37 1954.1,981.982 1955.07,932.343 1956.04,881.295 1957,829.687 1957.97,778.371 1958.94,728.207 1959.91,680.054 1960.87,634.444 1961.84,591.423 1962.81,551.058 1963.78,513.378 1964.74,478.371 1965.71,445.982 1966.68,416.116 1967.65,388.636 1968.61,363.364 1969.58,340.088 1970.55,318.642 1971.52,298.921 1972.48,280.823 1973.45,264.245 1974.42,249.086 1975.39,235.246 1976.36,222.625 1977.32,211.124 1978.29,200.645 1979.26,191.09 1980.23,182.363 1981.19,174.369 1982.16,167.012 1983.13,160.205 1984.1,153.954 1985.06,148.235 1986.03,143.006 1987,138.226 1987.97,133.858 1988.93,129.866 1989.9,126.217 1990.87,122.88 1991.84,119.828 1992.8,117.035 1993.77,114.482 1994.74,112.149 1995.71,110.018 1996.67,108.069 1997.64,106.289 1998.61,104.661 1999.58,103.17 2000.55,101.8 2001.51,100.542 2002.48,99.3896 2003.45,98.3361 2004.42,97.375 2005.38,96.4998 2006.35,95.7041 2007.32,94.9814 2008.29,94.3252 2009.25,93.7291 2010.22,93.1867 2011.19,92.6916 2012.16,92.2374 2013.12,91.8177 2014.09,91.4263 2015.06,91.0218 2016.03,90.5743 2016.99,90.0984 2017.96,89.6174 2018.93,89.1628 2019.9,88.7747 2020.87,88.5017 2021.83,88.4007 2022.8,88.5371 2023.77,88.9848 2024.74,89.8261 2025.7,91.1518 2026.67,92.9042 2027.64,94.2879 2028.61,98.4666 2029.57,108.775 2030.54,127.611 2031.51,156.437 2032.48,195.778 2033.44,245.222 2034.41,303.423 2035.38,368.095 2036.35,436.018 2037.31,503.211 2038.28,568.208 2039.25,630.704 2040.22,690.204 2041.19,746.333 2042.15,798.84 2043.12,847.594 2044.09,892.584 2045.06,933.923 2046.02,971.845 2046.99,1006.7 2047.96,1038.84 2048.93,1068.36 2049.89,1095.45 2050.86,1120.28 2051.83,1143.01 2052.8,1163.82 2053.76,1182.85 2054.73,1200.25 2055.7,1216.17 2056.67,1230.75 2057.63,1244.12 2058.6,1256.39 2059.57,1267.62 2060.54,1277.9 2061.5,1287.31 2062.47,1295.9 2063.44,1303.76 2064.41,1310.94 2065.38,1317.5 2066.34,1323.5 2067.31,1328.99 2068.28,1334.01 2069.25,1338.6 2070.21,1342.78 2071.18,1346.6 2072.15,1350.07 2073.12,1353.23 2074.08,1356.09 2075.05,1358.7 2076.02,1361.07 2076.99,1363.21 2077.95,1365.17 2078.92,1366.93 2079.89,1368.54 2080.86,1369.98 2081.82,1371.29 2082.79,1372.47 2083.76,1373.54 2084.73,1374.5 2085.7,1375.37 2086.66,1376.16 2087.63,1376.87 2088.6,1377.52 2089.57,1378.1 2090.53,1378.63 2091.5,1379.1 2092.47,1379.54 2093.44,1379.93 2094.4,1380.28 2095.37,1380.61 2096.34,1380.9 2097.31,1381.17 2098.27,1381.42 2099.24,1381.65 2100.21,1381.85 2101.18,1382.04 2102.14,1382.22 2103.11,1382.38 2104.08,1382.53 2105.05,1382.67 2106.02,1382.79 2106.98,1382.91 2107.95,1383.02 2108.92,1383.13 2109.89,1383.22 2110.85,1383.31 2111.82,1383.4 2112.79,1383.48 2113.76,1383.55 2114.72,1383.62 2115.69,1383.69 2116.66,1383.76 2117.63,1383.82 2118.59,1383.87 2119.56,1383.93 2120.53,1383.98 2121.5,1384.02 2122.46,1384.07 2123.43,1384.1 2124.4,1384.14 2125.37,1384.17 2126.33,1384.19 2127.3,1384.2 2128.27,1384.21 2129.24,1384.2 2130.21,1384.18 2131.17,1384.15 2132.14,1384.1 2133.11,1384.03 2134.08,1383.93 2135.04,1383.81 2136.01,1383.66 2136.98,1383.47 2137.95,1383.25 2138.91,1382.98 2139.88,1382.66 2140.85,1382.28 2141.82,1381.84 2142.78,1381.32 2143.75,1380.73 2144.72,1380.05 2145.69,1379.27 2146.65,1378.38 2147.62,1377.38 2148.59,1376.25 2149.56,1374.98 2150.53,1373.57 2151.49,1372.01 2152.46,1370.28 2153.43,1368.37 2154.4,1366.29 2155.36,1364 2156.33,1361.5 2157.3,1358.78 2158.27,1355.81 2159.23,1352.59 2160.2,1349.08 2161.17,1345.27 2162.14,1341.1 2163.1,1336.53 2164.07,1331.49 2165.04,1325.87 2166.01,1319.55 2166.97,1312.35 2167.94,1304.07 2168.91,1294.46 2169.88,1283.26 2170.84,1270.17 2171.81,1254.9 2172.78,1236.74 2173.75,1215.04 2174.72,1189.35 2175.68,1159.37 2176.65,1125 2177.62,1086.29 2178.59,1043.49 2179.55,997.03 2180.52,947.648 2181.49,896.524 2182.46,844.762 2183.42,793.307 2184.39,742.951 2185.36,694.327 2186.33,647.913 2187.29,604.032 2188.26,562.849 2189.23,524.412 2190.2,488.68 2191.16,455.557 2192.13,424.936 2193.1,396.701 2194.07,370.723 2195.04,346.863 2196,324.971 2196.97,304.887 2197.94,286.441 2198.91,269.5 2199.87,253.962 2200.84,239.728 2201.81,226.702 2202.78,214.791 2203.74,203.907 2204.71,193.964 2205.68,184.879 2206.65,176.573 2207.61,168.972 2208.58,162.002 2209.55,155.602 2210.52,149.745 2211.48,144.387 2212.45,139.488 2213.42,135.011 2214.39,130.919 2215.36,127.178 2216.32,123.758 2217.29,120.631 2218.26,117.77 2219.23,115.154 2220.19,112.764 2221.16,110.579 2222.13,108.582 2223.1,106.757 2224.06,105.088 2225.03,103.558 2226,102.155 2226.97,100.87 2227.93,99.697 2228.9,98.626 2229.87,97.6496 2230.84,96.7599 2231.8,95.9495 2232.77,95.211 2233.74,94.5372 2234.71,93.9214 2235.67,93.3566 2236.64,92.8365 2237.61,92.3532 2238.58,91.8959 2239.55,91.4665 2240.51,91.0684 2241.48,90.7047 2242.45,90.378 2243.42,90.0907 2244.38,89.8447 2245.35,89.6415 2246.32,89.4825 2247.29,89.3685 2248.25,89.3 2249.22,89.3551 2250.19,90.0114 2251.16,91.2646 2252.12,93.3308 2253.09,96.7943 2254.06,102.608 2255.03,112.094 2255.99,126.943 2256.96,149.213 2257.93,181.333 2258.9,225.754 2259.87,280.523 2260.83,342.037 2261.8,407.383 2262.77,474.126 2263.74,540.312 2264.7,604.465 2265.67,665.591 2266.64,723.132 2267.61,776.913 2268.57,826.963 2269.54,873.357 2270.51,916.209 2271.48,955.67 2272.44,991.932 2273.41,1025.23 2274.38,1055.82 2275.35,1083.93 2276.31,1109.71 2277.28,1133.34 2278.25,1154.98 2279.22,1174.78 2280.19,1192.9 2281.15,1209.46 2282.12,1224.62 2283.09,1238.5 2284.06,1251.21 2285.02,1262.87 2285.99,1273.55 2286.96,1283.32 2287.93,1292.25 2288.89,1300.42 2289.86,1307.89 2290.83,1314.72 2291.8,1320.97 2292.76,1326.68 2293.73,1331.9 2294.7,1336.67 2295.67,1341.02 2296.63,1344.99 2297.6,1348.61 2298.57,1351.89 2299.54,1354.88 2300.5,1357.6 2301.47,1360.07 2302.44,1362.32 2303.41,1364.35 2304.38,1366.2 2305.34,1367.87 2306.31,1369.38 2307.28,1370.75 2308.25,1371.98 2309.21,1373.09 2310.18,1374.1 2311.15,1375.01 2312.12,1375.84 2313.08,1376.58 2314.05,1377.25 2315.02,1377.86 2315.99,1378.41 2316.95,1378.91 2317.92,1379.36 2318.89,1379.77 2319.86,1380.14 2320.82,1380.48 2321.79,1380.78 2322.76,1381.06 2323.73,1381.32 2324.7,1381.56 2325.66,1381.77 2326.63,1381.97 2327.6,1382.15 2328.57,1382.31 2329.53,1382.47 2330.5,1382.61 2331.47,1382.74 2332.44,1382.87 2333.4,1382.98 2334.37,1383.09 2335.34,1383.19 2336.31,1383.28 2337.27,1383.37 2338.24,1383.45 2339.21,1383.52 2340.18,1383.6 2341.14,1383.67 2342.11,1383.73 2343.08,1383.79 2344.05,1383.85 2345.02,1383.91 2345.98,1383.96 2346.95,1384 2347.92,1384.05 2348.89,1384.09 2349.85,1384.13 2350.82,1384.16 2351.79,1384.18 2352.76,1384.2 "/>
<path clip-path="url(#clip130)" d="M1987.09 248.629 L2280.54 248.629 L2280.54 93.1086 L1987.09 93.1086  Z" fill="#ffffff" fill-rule="evenodd" fill-opacity="1"/>
<polyline clip-path="url(#clip130)" style="stroke:#000000; stroke-linecap:round; stroke-linejoin:round; stroke-width:4; stroke-opacity:1; fill:none" points="1987.09,248.629 2280.54,248.629 2280.54,93.1086 1987.09,93.1086 1987.09,248.629 "/>
<polyline clip-path="url(#clip130)" style="stroke:#009af9; stroke-linecap:round; stroke-linejoin:round; stroke-width:8; stroke-opacity:1; fill:none" points="2011.16,144.949 2155.59,144.949 "/>
<path clip-path="url(#clip130)" d="M2179.66 127.669 L2201.51 127.669 L2201.51 131.604 L2184.34 131.604 L2184.34 141.835 L2200.8 141.835 L2200.8 145.77 L2184.34 145.77 L2184.34 158.293 L2201.93 158.293 L2201.93 162.229 L2179.66 162.229 L2179.66 127.669 Z" fill="#000000" fill-rule="nonzero" fill-opacity="1" /><path clip-path="url(#clip130)" d="M2219.66 126.257 Q2216.56 131.581 2215.06 136.789 Q2213.55 141.997 2213.55 147.344 Q2213.55 152.692 2215.06 157.946 Q2216.58 163.178 2219.66 168.479 L2215.96 168.479 Q2212.49 163.039 2210.75 157.784 Q2209.04 152.53 2209.04 147.344 Q2209.04 142.182 2210.75 136.951 Q2212.46 131.72 2215.96 126.257 L2219.66 126.257 Z" fill="#000000" fill-rule="nonzero" fill-opacity="1" /><path clip-path="url(#clip130)" d="M2232.14 128.942 L2232.14 136.303 L2240.91 136.303 L2240.91 139.613 L2232.14 139.613 L2232.14 153.687 Q2232.14 156.858 2233 157.761 Q2233.88 158.664 2236.54 158.664 L2240.91 158.664 L2240.91 162.229 L2236.54 162.229 Q2231.61 162.229 2229.73 160.4 Q2227.86 158.548 2227.86 153.687 L2227.86 139.613 L2224.73 139.613 L2224.73 136.303 L2227.86 136.303 L2227.86 128.942 L2232.14 128.942 Z" fill="#000000" fill-rule="nonzero" fill-opacity="1" /><path clip-path="url(#clip130)" d="M2245.84 126.257 L2249.55 126.257 Q2253.02 131.72 2254.73 136.951 Q2256.47 142.182 2256.47 147.344 Q2256.47 152.53 2254.73 157.784 Q2253.02 163.039 2249.55 168.479 L2245.84 168.479 Q2248.92 163.178 2250.43 157.946 Q2251.95 152.692 2251.95 147.344 Q2251.95 141.997 2250.43 136.789 Q2248.92 131.581 2245.84 126.257 Z" fill="#000000" fill-rule="nonzero" fill-opacity="1" /><polyline clip-path="url(#clip130)" style="stroke:#e26f46; stroke-linecap:round; stroke-linejoin:round; stroke-width:8; stroke-opacity:1; fill:none" points="2011.16,196.789 2155.59,196.789 "/>
<path clip-path="url(#clip130)" d="M2179.66 179.509 L2184.34 179.509 L2184.34 214.069 L2179.66 214.069 L2179.66 179.509 Z" fill="#000000" fill-rule="nonzero" fill-opacity="1" /><path clip-path="url(#clip130)" d="M2203.69 178.097 Q2200.59 183.421 2199.08 188.629 Q2197.58 193.837 2197.58 199.184 Q2197.58 204.532 2199.08 209.786 Q2200.61 215.018 2203.69 220.319 L2199.99 220.319 Q2196.51 214.879 2194.78 209.624 Q2193.07 204.37 2193.07 199.184 Q2193.07 194.022 2194.78 188.791 Q2196.49 183.56 2199.99 178.097 L2203.69 178.097 Z" fill="#000000" fill-rule="nonzero" fill-opacity="1" /><path clip-path="url(#clip130)" d="M2216.17 180.782 L2216.17 188.143 L2224.94 188.143 L2224.94 191.453 L2216.17 191.453 L2216.17 205.527 Q2216.17 208.698 2217.02 209.601 Q2217.9 210.504 2220.57 210.504 L2224.94 210.504 L2224.94 214.069 L2220.57 214.069 Q2215.63 214.069 2213.76 212.24 Q2211.88 210.388 2211.88 205.527 L2211.88 191.453 L2208.76 191.453 L2208.76 188.143 L2211.88 188.143 L2211.88 180.782 L2216.17 180.782 Z" fill="#000000" fill-rule="nonzero" fill-opacity="1" /><path clip-path="url(#clip130)" d="M2229.87 178.097 L2233.57 178.097 Q2237.05 183.56 2238.76 188.791 Q2240.5 194.022 2240.5 199.184 Q2240.5 204.37 2238.76 209.624 Q2237.05 214.879 2233.57 220.319 L2229.87 220.319 Q2232.95 215.018 2234.45 209.786 Q2235.98 204.532 2235.98 199.184 Q2235.98 193.837 2234.45 188.629 Q2232.95 183.421 2229.87 178.097 Z" fill="#000000" fill-rule="nonzero" fill-opacity="1" /></svg>
