<?xml version="1.0" encoding="utf-8"?>
<svg xmlns="http://www.w3.org/2000/svg" xmlns:xlink="http://www.w3.org/1999/xlink" width="600" height="400" viewBox="0 0 2400 1600">
<defs>
  <clipPath id="clip010">
    <rect x="0" y="0" width="2400" height="1600"/>
  </clipPath>
</defs>
<path clip-path="url(#clip010)" d="M0 1600 L2400 1600 L2400 0 L0 0  Z" fill="#ffffff" fill-rule="evenodd" fill-opacity="1"/>
<defs>
  <clipPath id="clip011">
    <rect x="219" y="47" width="2134" height="1377"/>
  </clipPath>
</defs>
<path clip-path="url(#clip010)" d="M219.866 1423.18 L2352.76 1423.18 L2352.76 47.2441 L219.866 47.2441  Z" fill="#ffffff" fill-rule="evenodd" fill-opacity="1"/>
<polyline clip-path="url(#clip011)" style="stroke:#000000; stroke-linecap:round; stroke-linejoin:round; stroke-width:2; stroke-opacity:0.1; fill:none" points="296.849,1423.18 296.849,47.2441 "/>
<polyline clip-path="url(#clip011)" style="stroke:#000000; stroke-linecap:round; stroke-linejoin:round; stroke-width:2; stroke-opacity:0.1; fill:none" points="746.272,1423.18 746.272,47.2441 "/>
<polyline clip-path="url(#clip011)" style="stroke:#000000; stroke-linecap:round; stroke-linejoin:round; stroke-width:2; stroke-opacity:0.1; fill:none" points="1195.69,1423.18 1195.69,47.2441 "/>
<polyline clip-path="url(#clip011)" style="stroke:#000000; stroke-linecap:round; stroke-linejoin:round; stroke-width:2; stroke-opacity:0.1; fill:none" points="1645.12,1423.18 1645.12,47.2441 "/>
<polyline clip-path="url(#clip011)" style="stroke:#000000; stroke-linecap:round; stroke-linejoin:round; stroke-width:2; stroke-opacity:0.1; fill:none" points="2094.54,1423.18 2094.54,47.2441 "/>
<polyline clip-path="url(#clip011)" style="stroke:#000000; stroke-linecap:round; stroke-linejoin:round; stroke-width:2; stroke-opacity:0.1; fill:none" points="219.866,1240.51 2352.76,1240.51 "/>
<polyline clip-path="url(#clip011)" style="stroke:#000000; stroke-linecap:round; stroke-linejoin:round; stroke-width:2; stroke-opacity:0.1; fill:none" points="219.866,1035.59 2352.76,1035.59 "/>
<polyline clip-path="url(#clip011)" style="stroke:#000000; stroke-linecap:round; stroke-linejoin:round; stroke-width:2; stroke-opacity:0.1; fill:none" points="219.866,830.666 2352.76,830.666 "/>
<polyline clip-path="url(#clip011)" style="stroke:#000000; stroke-linecap:round; stroke-linejoin:round; stroke-width:2; stroke-opacity:0.1; fill:none" points="219.866,625.742 2352.76,625.742 "/>
<polyline clip-path="url(#clip011)" style="stroke:#000000; stroke-linecap:round; stroke-linejoin:round; stroke-width:2; stroke-opacity:0.1; fill:none" points="219.866,420.819 2352.76,420.819 "/>
<polyline clip-path="url(#clip011)" style="stroke:#000000; stroke-linecap:round; stroke-linejoin:round; stroke-width:2; stroke-opacity:0.1; fill:none" points="219.866,215.895 2352.76,215.895 "/>
<polyline clip-path="url(#clip010)" style="stroke:#000000; stroke-linecap:round; stroke-linejoin:round; stroke-width:4; stroke-opacity:1; fill:none" points="219.866,1423.18 2352.76,1423.18 "/>
<polyline clip-path="url(#clip010)" style="stroke:#000000; stroke-linecap:round; stroke-linejoin:round; stroke-width:4; stroke-opacity:1; fill:none" points="296.849,1423.18 296.849,1404.28 "/>
<polyline clip-path="url(#clip010)" style="stroke:#000000; stroke-linecap:round; stroke-linejoin:round; stroke-width:4; stroke-opacity:1; fill:none" points="746.272,1423.18 746.272,1404.28 "/>
<polyline clip-path="url(#clip010)" style="stroke:#000000; stroke-linecap:round; stroke-linejoin:round; stroke-width:4; stroke-opacity:1; fill:none" points="1195.69,1423.18 1195.69,1404.28 "/>
<polyline clip-path="url(#clip010)" style="stroke:#000000; stroke-linecap:round; stroke-linejoin:round; stroke-width:4; stroke-opacity:1; fill:none" points="1645.12,1423.18 1645.12,1404.28 "/>
<polyline clip-path="url(#clip010)" style="stroke:#000000; stroke-linecap:round; stroke-linejoin:round; stroke-width:4; stroke-opacity:1; fill:none" points="2094.54,1423.18 2094.54,1404.28 "/>
<path clip-path="url(#clip010)" d="M274.847 1454.1 Q271.236 1454.1 269.407 1457.66 Q267.602 1461.2 267.602 1468.33 Q267.602 1475.44 269.407 1479.01 Q271.236 1482.55 274.847 1482.55 Q278.481 1482.55 280.287 1479.01 Q282.116 1475.44 282.116 1468.33 Q282.116 1461.2 280.287 1457.66 Q278.481 1454.1 274.847 1454.1 M274.847 1450.39 Q280.657 1450.39 283.713 1455 Q286.791 1459.58 286.791 1468.33 Q286.791 1477.06 283.713 1481.67 Q280.657 1486.25 274.847 1486.25 Q269.037 1486.25 265.958 1481.67 Q262.903 1477.06 262.903 1468.33 Q262.903 1459.58 265.958 1455 Q269.037 1450.39 274.847 1450.39 Z" fill="#000000" fill-rule="nonzero" fill-opacity="1" /><path clip-path="url(#clip010)" d="M295.009 1479.7 L299.893 1479.7 L299.893 1485.58 L295.009 1485.58 L295.009 1479.7 Z" fill="#000000" fill-rule="nonzero" fill-opacity="1" /><path clip-path="url(#clip010)" d="M310.889 1481.64 L318.527 1481.64 L318.527 1455.28 L310.217 1456.95 L310.217 1452.69 L318.481 1451.02 L323.157 1451.02 L323.157 1481.64 L330.796 1481.64 L330.796 1485.58 L310.889 1485.58 L310.889 1481.64 Z" fill="#000000" fill-rule="nonzero" fill-opacity="1" /><path clip-path="url(#clip010)" d="M724.455 1454.1 Q720.844 1454.1 719.015 1457.66 Q717.21 1461.2 717.21 1468.33 Q717.21 1475.44 719.015 1479.01 Q720.844 1482.55 724.455 1482.55 Q728.089 1482.55 729.895 1479.01 Q731.723 1475.44 731.723 1468.33 Q731.723 1461.2 729.895 1457.66 Q728.089 1454.1 724.455 1454.1 M724.455 1450.39 Q730.265 1450.39 733.321 1455 Q736.399 1459.58 736.399 1468.33 Q736.399 1477.06 733.321 1481.67 Q730.265 1486.25 724.455 1486.25 Q718.645 1486.25 715.566 1481.67 Q712.51 1477.06 712.51 1468.33 Q712.51 1459.58 715.566 1455 Q718.645 1450.39 724.455 1450.39 Z" fill="#000000" fill-rule="nonzero" fill-opacity="1" /><path clip-path="url(#clip010)" d="M744.617 1479.7 L749.501 1479.7 L749.501 1485.58 L744.617 1485.58 L744.617 1479.7 Z" fill="#000000" fill-rule="nonzero" fill-opacity="1" /><path clip-path="url(#clip010)" d="M763.714 1481.64 L780.033 1481.64 L780.033 1485.58 L758.089 1485.58 L758.089 1481.64 Q760.751 1478.89 765.334 1474.26 Q769.941 1469.61 771.121 1468.27 Q773.367 1465.74 774.246 1464.01 Q775.149 1462.25 775.149 1460.56 Q775.149 1457.8 773.205 1456.07 Q771.283 1454.33 768.181 1454.33 Q765.982 1454.33 763.529 1455.09 Q761.098 1455.86 758.32 1457.41 L758.32 1452.69 Q761.144 1451.55 763.598 1450.97 Q766.052 1450.39 768.089 1450.39 Q773.459 1450.39 776.654 1453.08 Q779.848 1455.77 779.848 1460.26 Q779.848 1462.39 779.038 1464.31 Q778.251 1466.2 776.144 1468.8 Q775.566 1469.47 772.464 1472.69 Q769.362 1475.88 763.714 1481.64 Z" fill="#000000" fill-rule="nonzero" fill-opacity="1" /><path clip-path="url(#clip010)" d="M1173.4 1454.1 Q1169.79 1454.1 1167.96 1457.66 Q1166.16 1461.2 1166.16 1468.33 Q1166.16 1475.44 1167.96 1479.01 Q1169.79 1482.55 1173.4 1482.55 Q1177.04 1482.55 1178.84 1479.01 Q1180.67 1475.44 1180.67 1468.33 Q1180.67 1461.2 1178.84 1457.66 Q1177.04 1454.1 1173.4 1454.1 M1173.4 1450.39 Q1179.21 1450.39 1182.27 1455 Q1185.35 1459.58 1185.35 1468.33 Q1185.35 1477.06 1182.27 1481.67 Q1179.21 1486.25 1173.4 1486.25 Q1167.59 1486.25 1164.51 1481.67 Q1161.46 1477.06 1161.46 1468.33 Q1161.46 1459.58 1164.51 1455 Q1167.59 1450.39 1173.4 1450.39 Z" fill="#000000" fill-rule="nonzero" fill-opacity="1" /><path clip-path="url(#clip010)" d="M1193.56 1479.7 L1198.45 1479.7 L1198.45 1485.58 L1193.56 1485.58 L1193.56 1479.7 Z" fill="#000000" fill-rule="nonzero" fill-opacity="1" /><path clip-path="url(#clip010)" d="M1222.8 1466.95 Q1226.16 1467.66 1228.03 1469.93 Q1229.93 1472.2 1229.93 1475.53 Q1229.93 1480.65 1226.41 1483.45 Q1222.89 1486.25 1216.41 1486.25 Q1214.24 1486.25 1211.92 1485.81 Q1209.63 1485.39 1207.18 1484.54 L1207.18 1480.02 Q1209.12 1481.16 1211.44 1481.74 Q1213.75 1482.32 1216.27 1482.32 Q1220.67 1482.32 1222.96 1480.58 Q1225.28 1478.84 1225.28 1475.53 Q1225.28 1472.48 1223.12 1470.77 Q1221 1469.03 1217.18 1469.03 L1213.15 1469.03 L1213.15 1465.19 L1217.36 1465.19 Q1220.81 1465.19 1222.64 1463.82 Q1224.47 1462.43 1224.47 1459.84 Q1224.47 1457.18 1222.57 1455.77 Q1220.69 1454.33 1217.18 1454.33 Q1215.25 1454.33 1213.06 1454.75 Q1210.86 1455.16 1208.22 1456.04 L1208.22 1451.88 Q1210.88 1451.14 1213.19 1450.77 Q1215.53 1450.39 1217.59 1450.39 Q1222.92 1450.39 1226.02 1452.83 Q1229.12 1455.23 1229.12 1459.35 Q1229.12 1462.22 1227.48 1464.21 Q1225.83 1466.18 1222.8 1466.95 Z" fill="#000000" fill-rule="nonzero" fill-opacity="1" /><path clip-path="url(#clip010)" d="M1622.26 1454.1 Q1618.65 1454.1 1616.82 1457.66 Q1615.01 1461.2 1615.01 1468.33 Q1615.01 1475.44 1616.82 1479.01 Q1618.65 1482.55 1622.26 1482.55 Q1625.89 1482.55 1627.7 1479.01 Q1629.53 1475.44 1629.53 1468.33 Q1629.53 1461.2 1627.7 1457.66 Q1625.89 1454.1 1622.26 1454.1 M1622.26 1450.39 Q1628.07 1450.39 1631.12 1455 Q1634.2 1459.58 1634.2 1468.33 Q1634.2 1477.06 1631.12 1481.67 Q1628.07 1486.25 1622.26 1486.25 Q1616.45 1486.25 1613.37 1481.67 Q1610.31 1477.06 1610.31 1468.33 Q1610.31 1459.58 1613.37 1455 Q1616.45 1450.39 1622.26 1450.39 Z" fill="#000000" fill-rule="nonzero" fill-opacity="1" /><path clip-path="url(#clip010)" d="M1642.42 1479.7 L1647.3 1479.7 L1647.3 1485.58 L1642.42 1485.58 L1642.42 1479.7 Z" fill="#000000" fill-rule="nonzero" fill-opacity="1" /><path clip-path="url(#clip010)" d="M1670.34 1455.09 L1658.53 1473.54 L1670.34 1473.54 L1670.34 1455.09 M1669.11 1451.02 L1674.99 1451.02 L1674.99 1473.54 L1679.92 1473.54 L1679.92 1477.43 L1674.99 1477.43 L1674.99 1485.58 L1670.34 1485.58 L1670.34 1477.43 L1654.74 1477.43 L1654.74 1472.92 L1669.11 1451.02 Z" fill="#000000" fill-rule="nonzero" fill-opacity="1" /><path clip-path="url(#clip010)" d="M2072.42 1454.1 Q2068.81 1454.1 2066.98 1457.66 Q2065.18 1461.2 2065.18 1468.33 Q2065.18 1475.44 2066.98 1479.01 Q2068.81 1482.55 2072.42 1482.55 Q2076.06 1482.55 2077.86 1479.01 Q2079.69 1475.44 2079.69 1468.33 Q2079.69 1461.2 2077.86 1457.66 Q2076.06 1454.1 2072.42 1454.1 M2072.42 1450.39 Q2078.23 1450.39 2081.29 1455 Q2084.37 1459.58 2084.37 1468.33 Q2084.37 1477.06 2081.29 1481.67 Q2078.23 1486.25 2072.42 1486.25 Q2066.61 1486.25 2063.53 1481.67 Q2060.48 1477.06 2060.48 1468.33 Q2060.48 1459.58 2063.53 1455 Q2066.61 1450.39 2072.42 1450.39 Z" fill="#000000" fill-rule="nonzero" fill-opacity="1" /><path clip-path="url(#clip010)" d="M2092.58 1479.7 L2097.47 1479.7 L2097.47 1485.58 L2092.58 1485.58 L2092.58 1479.7 Z" fill="#000000" fill-rule="nonzero" fill-opacity="1" /><path clip-path="url(#clip010)" d="M2107.7 1451.02 L2126.06 1451.02 L2126.06 1454.96 L2111.98 1454.96 L2111.98 1463.43 Q2113 1463.08 2114.02 1462.92 Q2115.04 1462.73 2116.06 1462.73 Q2121.84 1462.73 2125.22 1465.9 Q2128.6 1469.08 2128.6 1474.49 Q2128.6 1480.07 2125.13 1483.17 Q2121.66 1486.25 2115.34 1486.25 Q2113.16 1486.25 2110.89 1485.88 Q2108.65 1485.51 2106.24 1484.77 L2106.24 1480.07 Q2108.32 1481.2 2110.55 1481.76 Q2112.77 1482.32 2115.25 1482.32 Q2119.25 1482.32 2121.59 1480.21 Q2123.93 1478.1 2123.93 1474.49 Q2123.93 1470.88 2121.59 1468.77 Q2119.25 1466.67 2115.25 1466.67 Q2113.37 1466.67 2111.5 1467.08 Q2109.64 1467.5 2107.7 1468.38 L2107.7 1451.02 Z" fill="#000000" fill-rule="nonzero" fill-opacity="1" /><path clip-path="url(#clip010)" d="M1233.51 1520.52 L1263.55 1520.52 L1263.55 1525.93 L1239.94 1525.93 L1239.94 1540 L1262.57 1540 L1262.57 1545.41 L1239.94 1545.41 L1239.94 1562.63 L1264.13 1562.63 L1264.13 1568.04 L1233.51 1568.04 L1233.51 1520.52 Z" fill="#000000" fill-rule="nonzero" fill-opacity="1" /><path clip-path="url(#clip010)" d="M1288.51 1518.58 Q1284.24 1525.9 1282.17 1533.06 Q1280.1 1540.23 1280.1 1547.58 Q1280.1 1554.93 1282.17 1562.16 Q1284.27 1569.35 1288.51 1576.64 L1283.41 1576.64 Q1278.64 1569.16 1276.25 1561.93 Q1273.9 1554.71 1273.9 1547.58 Q1273.9 1540.48 1276.25 1533.29 Q1278.61 1526.09 1283.41 1518.58 L1288.51 1518.58 Z" fill="#000000" fill-rule="nonzero" fill-opacity="1" /><path clip-path="url(#clip010)" d="M1305.66 1522.27 L1305.66 1532.4 L1317.73 1532.4 L1317.73 1536.95 L1305.66 1536.95 L1305.66 1556.3 Q1305.66 1560.66 1306.84 1561.9 Q1308.05 1563.14 1311.71 1563.14 L1317.73 1563.14 L1317.73 1568.04 L1311.71 1568.04 Q1304.93 1568.04 1302.35 1565.53 Q1299.77 1562.98 1299.77 1556.3 L1299.77 1536.95 L1295.48 1536.95 L1295.48 1532.4 L1299.77 1532.4 L1299.77 1522.27 L1305.66 1522.27 Z" fill="#000000" fill-rule="nonzero" fill-opacity="1" /><path clip-path="url(#clip010)" d="M1324.51 1518.58 L1329.6 1518.58 Q1334.37 1526.09 1336.73 1533.29 Q1339.11 1540.48 1339.11 1547.58 Q1339.11 1554.71 1336.73 1561.93 Q1334.37 1569.16 1329.6 1576.64 L1324.51 1576.64 Q1328.74 1569.35 1330.81 1562.16 Q1332.91 1554.93 1332.91 1547.58 Q1332.91 1540.23 1330.81 1533.06 Q1328.74 1525.9 1324.51 1518.58 Z" fill="#000000" fill-rule="nonzero" fill-opacity="1" /><polyline clip-path="url(#clip010)" style="stroke:#000000; stroke-linecap:round; stroke-linejoin:round; stroke-width:4; stroke-opacity:1; fill:none" points="219.866,1423.18 219.866,47.2441 "/>
<polyline clip-path="url(#clip010)" style="stroke:#000000; stroke-linecap:round; stroke-linejoin:round; stroke-width:4; stroke-opacity:1; fill:none" points="219.866,1240.51 238.764,1240.51 "/>
<polyline clip-path="url(#clip010)" style="stroke:#000000; stroke-linecap:round; stroke-linejoin:round; stroke-width:4; stroke-opacity:1; fill:none" points="219.866,1035.59 238.764,1035.59 "/>
<polyline clip-path="url(#clip010)" style="stroke:#000000; stroke-linecap:round; stroke-linejoin:round; stroke-width:4; stroke-opacity:1; fill:none" points="219.866,830.666 238.764,830.666 "/>
<polyline clip-path="url(#clip010)" style="stroke:#000000; stroke-linecap:round; stroke-linejoin:round; stroke-width:4; stroke-opacity:1; fill:none" points="219.866,625.742 238.764,625.742 "/>
<polyline clip-path="url(#clip010)" style="stroke:#000000; stroke-linecap:round; stroke-linejoin:round; stroke-width:4; stroke-opacity:1; fill:none" points="219.866,420.819 238.764,420.819 "/>
<polyline clip-path="url(#clip010)" style="stroke:#000000; stroke-linecap:round; stroke-linejoin:round; stroke-width:4; stroke-opacity:1; fill:none" points="219.866,215.895 238.764,215.895 "/>
<path clip-path="url(#clip010)" d="M127.917 1226.31 Q124.306 1226.31 122.478 1229.88 Q120.672 1233.42 120.672 1240.55 Q120.672 1247.65 122.478 1251.22 Q124.306 1254.76 127.917 1254.76 Q131.552 1254.76 133.357 1251.22 Q135.186 1247.65 135.186 1240.55 Q135.186 1233.42 133.357 1229.88 Q131.552 1226.31 127.917 1226.31 M127.917 1222.61 Q133.728 1222.61 136.783 1227.21 Q139.862 1231.8 139.862 1240.55 Q139.862 1249.28 136.783 1253.88 Q133.728 1258.46 127.917 1258.46 Q122.107 1258.46 119.029 1253.88 Q115.973 1249.28 115.973 1240.55 Q115.973 1231.8 119.029 1227.21 Q122.107 1222.61 127.917 1222.61 Z" fill="#000000" fill-rule="nonzero" fill-opacity="1" /><path clip-path="url(#clip010)" d="M148.079 1251.91 L152.964 1251.91 L152.964 1257.79 L148.079 1257.79 L148.079 1251.91 Z" fill="#000000" fill-rule="nonzero" fill-opacity="1" /><path clip-path="url(#clip010)" d="M163.959 1253.86 L171.598 1253.86 L171.598 1227.49 L163.288 1229.16 L163.288 1224.9 L171.552 1223.23 L176.227 1223.23 L176.227 1253.86 L183.866 1253.86 L183.866 1257.79 L163.959 1257.79 L163.959 1253.86 Z" fill="#000000" fill-rule="nonzero" fill-opacity="1" /><path clip-path="url(#clip010)" d="M128.288 1021.39 Q124.677 1021.39 122.848 1024.95 Q121.043 1028.49 121.043 1035.62 Q121.043 1042.73 122.848 1046.3 Q124.677 1049.84 128.288 1049.84 Q131.922 1049.84 133.728 1046.3 Q135.556 1042.73 135.556 1035.62 Q135.556 1028.49 133.728 1024.95 Q131.922 1021.39 128.288 1021.39 M128.288 1017.68 Q134.098 1017.68 137.154 1022.29 Q140.232 1026.87 140.232 1035.62 Q140.232 1044.35 137.154 1048.96 Q134.098 1053.54 128.288 1053.54 Q122.478 1053.54 119.399 1048.96 Q116.343 1044.35 116.343 1035.62 Q116.343 1026.87 119.399 1022.29 Q122.478 1017.68 128.288 1017.68 Z" fill="#000000" fill-rule="nonzero" fill-opacity="1" /><path clip-path="url(#clip010)" d="M148.45 1046.99 L153.334 1046.99 L153.334 1052.87 L148.45 1052.87 L148.45 1046.99 Z" fill="#000000" fill-rule="nonzero" fill-opacity="1" /><path clip-path="url(#clip010)" d="M167.547 1048.93 L183.866 1048.93 L183.866 1052.87 L161.922 1052.87 L161.922 1048.93 Q164.584 1046.18 169.167 1041.55 Q173.774 1036.9 174.954 1035.56 Q177.2 1033.03 178.079 1031.3 Q178.982 1029.54 178.982 1027.85 Q178.982 1025.09 177.038 1023.36 Q175.116 1021.62 172.014 1021.62 Q169.815 1021.62 167.362 1022.38 Q164.931 1023.15 162.153 1024.7 L162.153 1019.98 Q164.977 1018.84 167.431 1018.26 Q169.885 1017.68 171.922 1017.68 Q177.292 1017.68 180.487 1020.37 Q183.681 1023.06 183.681 1027.55 Q183.681 1029.68 182.871 1031.6 Q182.084 1033.49 179.977 1036.09 Q179.399 1036.76 176.297 1039.98 Q173.195 1043.17 167.547 1048.93 Z" fill="#000000" fill-rule="nonzero" fill-opacity="1" /><path clip-path="url(#clip010)" d="M127.339 816.465 Q123.728 816.465 121.899 820.03 Q120.093 823.571 120.093 830.701 Q120.093 837.807 121.899 841.372 Q123.728 844.914 127.339 844.914 Q130.973 844.914 132.779 841.372 Q134.607 837.807 134.607 830.701 Q134.607 823.571 132.779 820.03 Q130.973 816.465 127.339 816.465 M127.339 812.761 Q133.149 812.761 136.204 817.368 Q139.283 821.951 139.283 830.701 Q139.283 839.428 136.204 844.034 Q133.149 848.617 127.339 848.617 Q121.529 848.617 118.45 844.034 Q115.394 839.428 115.394 830.701 Q115.394 821.951 118.45 817.368 Q121.529 812.761 127.339 812.761 Z" fill="#000000" fill-rule="nonzero" fill-opacity="1" /><path clip-path="url(#clip010)" d="M147.501 842.067 L152.385 842.067 L152.385 847.946 L147.501 847.946 L147.501 842.067 Z" fill="#000000" fill-rule="nonzero" fill-opacity="1" /><path clip-path="url(#clip010)" d="M176.737 829.312 Q180.093 830.03 181.968 832.298 Q183.866 834.567 183.866 837.9 Q183.866 843.016 180.348 845.817 Q176.829 848.617 170.348 848.617 Q168.172 848.617 165.857 848.178 Q163.565 847.761 161.112 846.904 L161.112 842.391 Q163.056 843.525 165.371 844.104 Q167.686 844.682 170.209 844.682 Q174.607 844.682 176.899 842.946 Q179.214 841.21 179.214 837.9 Q179.214 834.844 177.061 833.131 Q174.931 831.395 171.112 831.395 L167.084 831.395 L167.084 827.553 L171.297 827.553 Q174.746 827.553 176.575 826.187 Q178.403 824.798 178.403 822.206 Q178.403 819.544 176.505 818.131 Q174.63 816.696 171.112 816.696 Q169.19 816.696 166.991 817.113 Q164.792 817.53 162.153 818.409 L162.153 814.243 Q164.815 813.502 167.13 813.132 Q169.468 812.761 171.528 812.761 Q176.852 812.761 179.954 815.192 Q183.056 817.599 183.056 821.719 Q183.056 824.59 181.413 826.581 Q179.769 828.548 176.737 829.312 Z" fill="#000000" fill-rule="nonzero" fill-opacity="1" /><path clip-path="url(#clip010)" d="M126.205 611.541 Q122.593 611.541 120.765 615.106 Q118.959 618.648 118.959 625.777 Q118.959 632.884 120.765 636.448 Q122.593 639.99 126.205 639.99 Q129.839 639.99 131.644 636.448 Q133.473 632.884 133.473 625.777 Q133.473 618.648 131.644 615.106 Q129.839 611.541 126.205 611.541 M126.205 607.837 Q132.015 607.837 135.07 612.444 Q138.149 617.027 138.149 625.777 Q138.149 634.504 135.07 639.11 Q132.015 643.694 126.205 643.694 Q120.394 643.694 117.316 639.11 Q114.26 634.504 114.26 625.777 Q114.26 617.027 117.316 612.444 Q120.394 607.837 126.205 607.837 Z" fill="#000000" fill-rule="nonzero" fill-opacity="1" /><path clip-path="url(#clip010)" d="M146.366 637.143 L151.251 637.143 L151.251 643.022 L146.366 643.022 L146.366 637.143 Z" fill="#000000" fill-rule="nonzero" fill-opacity="1" /><path clip-path="url(#clip010)" d="M174.283 612.537 L162.477 630.985 L174.283 630.985 L174.283 612.537 M173.056 608.462 L178.936 608.462 L178.936 630.985 L183.866 630.985 L183.866 634.874 L178.936 634.874 L178.936 643.022 L174.283 643.022 L174.283 634.874 L158.681 634.874 L158.681 630.36 L173.056 608.462 Z" fill="#000000" fill-rule="nonzero" fill-opacity="1" /><path clip-path="url(#clip010)" d="M127.686 406.617 Q124.075 406.617 122.246 410.182 Q120.441 413.724 120.441 420.853 Q120.441 427.96 122.246 431.525 Q124.075 435.066 127.686 435.066 Q131.32 435.066 133.126 431.525 Q134.954 427.96 134.954 420.853 Q134.954 413.724 133.126 410.182 Q131.32 406.617 127.686 406.617 M127.686 402.914 Q133.496 402.914 136.552 407.52 Q139.63 412.104 139.63 420.853 Q139.63 429.58 136.552 434.187 Q133.496 438.77 127.686 438.77 Q121.876 438.77 118.797 434.187 Q115.742 429.58 115.742 420.853 Q115.742 412.104 118.797 407.52 Q121.876 402.914 127.686 402.914 Z" fill="#000000" fill-rule="nonzero" fill-opacity="1" /><path clip-path="url(#clip010)" d="M147.848 432.219 L152.732 432.219 L152.732 438.099 L147.848 438.099 L147.848 432.219 Z" fill="#000000" fill-rule="nonzero" fill-opacity="1" /><path clip-path="url(#clip010)" d="M162.964 403.539 L181.32 403.539 L181.32 407.474 L167.246 407.474 L167.246 415.946 Q168.264 415.599 169.283 415.437 Q170.302 415.252 171.32 415.252 Q177.107 415.252 180.487 418.423 Q183.866 421.594 183.866 427.011 Q183.866 432.59 180.394 435.691 Q176.922 438.77 170.602 438.77 Q168.427 438.77 166.158 438.4 Q163.913 438.029 161.505 437.289 L161.505 432.59 Q163.589 433.724 165.811 434.279 Q168.033 434.835 170.51 434.835 Q174.514 434.835 176.852 432.728 Q179.19 430.622 179.19 427.011 Q179.19 423.4 176.852 421.293 Q174.514 419.187 170.51 419.187 Q168.635 419.187 166.76 419.603 Q164.908 420.02 162.964 420.9 L162.964 403.539 Z" fill="#000000" fill-rule="nonzero" fill-opacity="1" /><path clip-path="url(#clip010)" d="M126.529 201.694 Q122.918 201.694 121.089 205.259 Q119.283 208.8 119.283 215.93 Q119.283 223.036 121.089 226.601 Q122.918 230.143 126.529 230.143 Q130.163 230.143 131.968 226.601 Q133.797 223.036 133.797 215.93 Q133.797 208.8 131.968 205.259 Q130.163 201.694 126.529 201.694 M126.529 197.99 Q132.339 197.99 135.394 202.597 Q138.473 207.18 138.473 215.93 Q138.473 224.657 135.394 229.263 Q132.339 233.846 126.529 233.846 Q120.718 233.846 117.64 229.263 Q114.584 224.657 114.584 215.93 Q114.584 207.18 117.64 202.597 Q120.718 197.99 126.529 197.99 Z" fill="#000000" fill-rule="nonzero" fill-opacity="1" /><path clip-path="url(#clip010)" d="M146.691 227.295 L151.575 227.295 L151.575 233.175 L146.691 233.175 L146.691 227.295 Z" fill="#000000" fill-rule="nonzero" fill-opacity="1" /><path clip-path="url(#clip010)" d="M172.339 214.032 Q169.19 214.032 167.339 216.184 Q165.51 218.337 165.51 222.087 Q165.51 225.814 167.339 227.99 Q169.19 230.143 172.339 230.143 Q175.487 230.143 177.315 227.99 Q179.167 225.814 179.167 222.087 Q179.167 218.337 177.315 216.184 Q175.487 214.032 172.339 214.032 M181.621 199.379 L181.621 203.638 Q179.862 202.805 178.056 202.365 Q176.274 201.925 174.514 201.925 Q169.885 201.925 167.431 205.05 Q165.001 208.175 164.653 214.495 Q166.019 212.481 168.079 211.416 Q170.139 210.328 172.616 210.328 Q177.825 210.328 180.834 213.499 Q183.866 216.647 183.866 222.087 Q183.866 227.411 180.718 230.629 Q177.57 233.846 172.339 233.846 Q166.343 233.846 163.172 229.263 Q160.001 224.657 160.001 215.93 Q160.001 207.735 163.89 202.874 Q167.778 197.99 174.329 197.99 Q176.089 197.99 177.871 198.337 Q179.676 198.685 181.621 199.379 Z" fill="#000000" fill-rule="nonzero" fill-opacity="1" /><path clip-path="url(#clip010)" d="M16.4842 777.035 L16.4842 770.605 L64.0042 770.605 L64.0042 777.035 L16.4842 777.035 Z" fill="#000000" fill-rule="nonzero" fill-opacity="1" /><path clip-path="url(#clip010)" d="M14.5426 743.997 Q21.8632 748.262 29.0246 750.331 Q36.186 752.399 43.5384 752.399 Q50.8908 752.399 58.1159 750.331 Q65.3091 748.23 72.5979 743.997 L72.5979 749.089 Q65.1182 753.863 57.8931 756.251 Q50.668 758.606 43.5384 758.606 Q36.4406 758.606 29.2474 756.251 Q22.0542 753.895 14.5426 749.089 L14.5426 743.997 Z" fill="#000000" fill-rule="nonzero" fill-opacity="1" /><path clip-path="url(#clip010)" d="M18.2347 726.841 L28.3562 726.841 L28.3562 714.778 L32.9077 714.778 L32.9077 726.841 L52.2594 726.841 Q56.6199 726.841 57.8613 725.663 Q59.1026 724.454 59.1026 720.794 L59.1026 714.778 L64.0042 714.778 L64.0042 720.794 Q64.0042 727.573 61.4897 730.151 Q58.9434 732.729 52.2594 732.729 L32.9077 732.729 L32.9077 737.026 L28.3562 737.026 L28.3562 732.729 L18.2347 732.729 L18.2347 726.841 Z" fill="#000000" fill-rule="nonzero" fill-opacity="1" /><path clip-path="url(#clip010)" d="M14.5426 707.999 L14.5426 702.906 Q22.0542 698.132 29.2474 695.776 Q36.4406 693.389 43.5384 693.389 Q50.668 693.389 57.8931 695.776 Q65.1182 698.132 72.5979 702.906 L72.5979 707.999 Q65.3091 703.765 58.1159 701.697 Q50.8908 699.596 43.5384 699.596 Q36.186 699.596 29.0246 701.697 Q21.8632 703.765 14.5426 707.999 Z" fill="#000000" fill-rule="nonzero" fill-opacity="1" /><polyline clip-path="url(#clip011)" style="stroke:#009af9; stroke-linecap:round; stroke-linejoin:round; stroke-width:4; stroke-opacity:1; fill:none" points="1669.3,91.8754 1573.25,86.1857 1482.25,115.408 1396.06,174.29 1314.41,251.974 1237.06,337.809 1163.79,424.379 1094.38,507.599 1028.64,585.614 966.353,657.848 907.367,724.328 851.472,785.357 798.544,841.317 748.388,892.611 700.901,939.615 655.908,982.683 613.331,1022.13 573.026,1058.26 534.958,1091.33 499.04,1121.6 465.311,1149.29 433.772,1174.62 404.566,1197.76 377.799,1218.91 353.721,1238.22 332.526,1255.85 314.535,1271.92 299.987,1286.57 289.232,1299.9 282.522,1312.01 280.231,1322.99 282.641,1332.93 290.192,1341.9 303.258,1349.95 322.425,1357.14 348.24,1363.51 381.516,1369.09 423.042,1373.88 473.893,1377.86 535.061,1381 607.72,1383.18 692.685,1384.24 790.578,1383.85 901.076,1381.5 1023.13,1376.3 1154.36,1366.74 1291.84,1350.35 1431.95,1323.31 1571.76,1280.48 1708.46,1216.81 1840.58,1130.34 1966.35,1024.55 2084.85,907.112 2191.54,786.217 2274.44,667.919 2292.39,555.717 2221.42,451.227 2107.72,355.063 1990.55,267.67 1877.7,190.785 1770.73,129.443 "/>
<path clip-path="url(#clip010)" d="M290.963 196.789 L556.682 196.789 L556.682 93.1086 L290.963 93.1086  Z" fill="#ffffff" fill-rule="evenodd" fill-opacity="1"/>
<polyline clip-path="url(#clip010)" style="stroke:#000000; stroke-linecap:round; stroke-linejoin:round; stroke-width:4; stroke-opacity:1; fill:none" points="290.963,196.789 556.682,196.789 556.682,93.1086 290.963,93.1086 290.963,196.789 "/>
<polyline clip-path="url(#clip010)" style="stroke:#009af9; stroke-linecap:round; stroke-linejoin:round; stroke-width:4; stroke-opacity:1; fill:none" points="314.661,144.949 456.854,144.949 "/>
<path clip-path="url(#clip010)" d="M494.395 164.636 Q492.59 169.266 490.877 170.678 Q489.164 172.09 486.293 172.09 L482.891 172.09 L482.891 168.525 L485.391 168.525 Q487.15 168.525 488.122 167.692 Q489.094 166.858 490.275 163.756 L491.039 161.812 L480.553 136.303 L485.067 136.303 L493.168 156.581 L501.27 136.303 L505.784 136.303 L494.395 164.636 Z" fill="#000000" fill-rule="nonzero" fill-opacity="1" /><path clip-path="url(#clip010)" d="M513.076 158.293 L520.715 158.293 L520.715 131.928 L512.404 133.595 L512.404 129.335 L520.668 127.669 L525.344 127.669 L525.344 158.293 L532.983 158.293 L532.983 162.229 L513.076 162.229 L513.076 158.293 Z" fill="#000000" fill-rule="nonzero" fill-opacity="1" /></svg>
