<?xml version="1.0" encoding="utf-8"?>
<svg xmlns="http://www.w3.org/2000/svg" xmlns:xlink="http://www.w3.org/1999/xlink" width="600" height="400" viewBox="0 0 2400 1600">
<defs>
  <clipPath id="clip040">
    <rect x="0" y="0" width="2400" height="1600"/>
  </clipPath>
</defs>
<path clip-path="url(#clip040)" d="M0 1600 L2400 1600 L2400 0 L0 0  Z" fill="#ffffff" fill-rule="evenodd" fill-opacity="1"/>
<defs>
  <clipPath id="clip041">
    <rect x="219" y="47" width="2134" height="1377"/>
  </clipPath>
</defs>
<path clip-path="url(#clip040)" d="M249.542 1423.18 L2352.76 1423.18 L2352.76 47.2441 L249.542 47.2441  Z" fill="#ffffff" fill-rule="evenodd" fill-opacity="1"/>
<defs>
  <clipPath id="clip042">
    <rect x="249" y="47" width="2104" height="1377"/>
  </clipPath>
</defs>
<polyline clip-path="url(#clip042)" style="stroke:#000000; stroke-linecap:round; stroke-linejoin:round; stroke-width:2; stroke-opacity:0.1; fill:none" points="289.862,1423.18 289.862,47.2441 "/>
<polyline clip-path="url(#clip042)" style="stroke:#000000; stroke-linecap:round; stroke-linejoin:round; stroke-width:2; stroke-opacity:0.1; fill:none" points="707.553,1423.18 707.553,47.2441 "/>
<polyline clip-path="url(#clip042)" style="stroke:#000000; stroke-linecap:round; stroke-linejoin:round; stroke-width:2; stroke-opacity:0.1; fill:none" points="1125.24,1423.18 1125.24,47.2441 "/>
<polyline clip-path="url(#clip042)" style="stroke:#000000; stroke-linecap:round; stroke-linejoin:round; stroke-width:2; stroke-opacity:0.1; fill:none" points="1542.94,1423.18 1542.94,47.2441 "/>
<polyline clip-path="url(#clip042)" style="stroke:#000000; stroke-linecap:round; stroke-linejoin:round; stroke-width:2; stroke-opacity:0.1; fill:none" points="1960.63,1423.18 1960.63,47.2441 "/>
<polyline clip-path="url(#clip042)" style="stroke:#000000; stroke-linecap:round; stroke-linejoin:round; stroke-width:2; stroke-opacity:0.1; fill:none" points="249.542,1388.22 2352.76,1388.22 "/>
<polyline clip-path="url(#clip042)" style="stroke:#000000; stroke-linecap:round; stroke-linejoin:round; stroke-width:2; stroke-opacity:0.1; fill:none" points="249.542,1062.32 2352.76,1062.32 "/>
<polyline clip-path="url(#clip042)" style="stroke:#000000; stroke-linecap:round; stroke-linejoin:round; stroke-width:2; stroke-opacity:0.1; fill:none" points="249.542,736.424 2352.76,736.424 "/>
<polyline clip-path="url(#clip042)" style="stroke:#000000; stroke-linecap:round; stroke-linejoin:round; stroke-width:2; stroke-opacity:0.1; fill:none" points="249.542,410.528 2352.76,410.528 "/>
<polyline clip-path="url(#clip042)" style="stroke:#000000; stroke-linecap:round; stroke-linejoin:round; stroke-width:2; stroke-opacity:0.1; fill:none" points="249.542,84.6314 2352.76,84.6314 "/>
<polyline clip-path="url(#clip040)" style="stroke:#000000; stroke-linecap:round; stroke-linejoin:round; stroke-width:4; stroke-opacity:1; fill:none" points="249.542,1423.18 2352.76,1423.18 "/>
<polyline clip-path="url(#clip040)" style="stroke:#000000; stroke-linecap:round; stroke-linejoin:round; stroke-width:4; stroke-opacity:1; fill:none" points="289.862,1423.18 289.862,1404.28 "/>
<polyline clip-path="url(#clip040)" style="stroke:#000000; stroke-linecap:round; stroke-linejoin:round; stroke-width:4; stroke-opacity:1; fill:none" points="707.553,1423.18 707.553,1404.28 "/>
<polyline clip-path="url(#clip040)" style="stroke:#000000; stroke-linecap:round; stroke-linejoin:round; stroke-width:4; stroke-opacity:1; fill:none" points="1125.24,1423.18 1125.24,1404.28 "/>
<polyline clip-path="url(#clip040)" style="stroke:#000000; stroke-linecap:round; stroke-linejoin:round; stroke-width:4; stroke-opacity:1; fill:none" points="1542.94,1423.18 1542.94,1404.28 "/>
<polyline clip-path="url(#clip040)" style="stroke:#000000; stroke-linecap:round; stroke-linejoin:round; stroke-width:4; stroke-opacity:1; fill:none" points="1960.63,1423.18 1960.63,1404.28 "/>
<path clip-path="url(#clip040)" d="M267.246 1454.1 Q263.635 1454.1 261.806 1457.66 Q260.001 1461.2 260.001 1468.33 Q260.001 1475.44 261.806 1479.01 Q263.635 1482.55 267.246 1482.55 Q270.88 1482.55 272.686 1479.01 Q274.515 1475.44 274.515 1468.33 Q274.515 1461.2 272.686 1457.66 Q270.88 1454.1 267.246 1454.1 M267.246 1450.39 Q273.056 1450.39 276.112 1455 Q279.19 1459.58 279.19 1468.33 Q279.19 1477.06 276.112 1481.67 Q273.056 1486.25 267.246 1486.25 Q261.436 1486.25 258.357 1481.67 Q255.302 1477.06 255.302 1468.33 Q255.302 1459.58 258.357 1455 Q261.436 1450.39 267.246 1450.39 Z" fill="#000000" fill-rule="nonzero" fill-opacity="1" /><path clip-path="url(#clip040)" d="M287.408 1479.7 L292.292 1479.7 L292.292 1485.58 L287.408 1485.58 L287.408 1479.7 Z" fill="#000000" fill-rule="nonzero" fill-opacity="1" /><path clip-path="url(#clip040)" d="M312.477 1454.1 Q308.866 1454.1 307.038 1457.66 Q305.232 1461.2 305.232 1468.33 Q305.232 1475.44 307.038 1479.01 Q308.866 1482.55 312.477 1482.55 Q316.112 1482.55 317.917 1479.01 Q319.746 1475.44 319.746 1468.33 Q319.746 1461.2 317.917 1457.66 Q316.112 1454.1 312.477 1454.1 M312.477 1450.39 Q318.287 1450.39 321.343 1455 Q324.422 1459.58 324.422 1468.33 Q324.422 1477.06 321.343 1481.67 Q318.287 1486.25 312.477 1486.25 Q306.667 1486.25 303.588 1481.67 Q300.533 1477.06 300.533 1468.33 Q300.533 1459.58 303.588 1455 Q306.667 1450.39 312.477 1450.39 Z" fill="#000000" fill-rule="nonzero" fill-opacity="1" /><path clip-path="url(#clip040)" d="M685.736 1454.1 Q682.125 1454.1 680.296 1457.66 Q678.491 1461.2 678.491 1468.33 Q678.491 1475.44 680.296 1479.01 Q682.125 1482.55 685.736 1482.55 Q689.37 1482.55 691.176 1479.01 Q693.005 1475.44 693.005 1468.33 Q693.005 1461.2 691.176 1457.66 Q689.37 1454.1 685.736 1454.1 M685.736 1450.39 Q691.546 1450.39 694.602 1455 Q697.68 1459.58 697.68 1468.33 Q697.68 1477.06 694.602 1481.67 Q691.546 1486.25 685.736 1486.25 Q679.926 1486.25 676.847 1481.67 Q673.792 1477.06 673.792 1468.33 Q673.792 1459.58 676.847 1455 Q679.926 1450.39 685.736 1450.39 Z" fill="#000000" fill-rule="nonzero" fill-opacity="1" /><path clip-path="url(#clip040)" d="M705.898 1479.7 L710.782 1479.7 L710.782 1485.58 L705.898 1485.58 L705.898 1479.7 Z" fill="#000000" fill-rule="nonzero" fill-opacity="1" /><path clip-path="url(#clip040)" d="M724.995 1481.64 L741.314 1481.64 L741.314 1485.58 L719.37 1485.58 L719.37 1481.64 Q722.032 1478.89 726.615 1474.26 Q731.222 1469.61 732.402 1468.27 Q734.648 1465.74 735.527 1464.01 Q736.43 1462.25 736.43 1460.56 Q736.43 1457.8 734.486 1456.07 Q732.564 1454.33 729.463 1454.33 Q727.264 1454.33 724.81 1455.09 Q722.379 1455.86 719.602 1457.41 L719.602 1452.69 Q722.426 1451.55 724.879 1450.97 Q727.333 1450.39 729.37 1450.39 Q734.74 1450.39 737.935 1453.08 Q741.129 1455.77 741.129 1460.26 Q741.129 1462.39 740.319 1464.31 Q739.532 1466.2 737.426 1468.8 Q736.847 1469.47 733.745 1472.69 Q730.643 1475.88 724.995 1481.64 Z" fill="#000000" fill-rule="nonzero" fill-opacity="1" /><path clip-path="url(#clip040)" d="M1102.39 1454.1 Q1098.77 1454.1 1096.95 1457.66 Q1095.14 1461.2 1095.14 1468.33 Q1095.14 1475.44 1096.95 1479.01 Q1098.77 1482.55 1102.39 1482.55 Q1106.02 1482.55 1107.83 1479.01 Q1109.65 1475.44 1109.65 1468.33 Q1109.65 1461.2 1107.83 1457.66 Q1106.02 1454.1 1102.39 1454.1 M1102.39 1450.39 Q1108.2 1450.39 1111.25 1455 Q1114.33 1459.58 1114.33 1468.33 Q1114.33 1477.06 1111.25 1481.67 Q1108.2 1486.25 1102.39 1486.25 Q1096.58 1486.25 1093.5 1481.67 Q1090.44 1477.06 1090.44 1468.33 Q1090.44 1459.58 1093.5 1455 Q1096.58 1450.39 1102.39 1450.39 Z" fill="#000000" fill-rule="nonzero" fill-opacity="1" /><path clip-path="url(#clip040)" d="M1122.55 1479.7 L1127.43 1479.7 L1127.43 1485.58 L1122.55 1485.58 L1122.55 1479.7 Z" fill="#000000" fill-rule="nonzero" fill-opacity="1" /><path clip-path="url(#clip040)" d="M1150.46 1455.09 L1138.66 1473.54 L1150.46 1473.54 L1150.46 1455.09 M1149.24 1451.02 L1155.12 1451.02 L1155.12 1473.54 L1160.05 1473.54 L1160.05 1477.43 L1155.12 1477.43 L1155.12 1485.58 L1150.46 1485.58 L1150.46 1477.43 L1134.86 1477.43 L1134.86 1472.92 L1149.24 1451.02 Z" fill="#000000" fill-rule="nonzero" fill-opacity="1" /><path clip-path="url(#clip040)" d="M1520.24 1454.1 Q1516.63 1454.1 1514.8 1457.66 Q1512.99 1461.2 1512.99 1468.33 Q1512.99 1475.44 1514.8 1479.01 Q1516.63 1482.55 1520.24 1482.55 Q1523.87 1482.55 1525.68 1479.01 Q1527.51 1475.44 1527.51 1468.33 Q1527.51 1461.2 1525.68 1457.66 Q1523.87 1454.1 1520.24 1454.1 M1520.24 1450.39 Q1526.05 1450.39 1529.1 1455 Q1532.18 1459.58 1532.18 1468.33 Q1532.18 1477.06 1529.1 1481.67 Q1526.05 1486.25 1520.24 1486.25 Q1514.43 1486.25 1511.35 1481.67 Q1508.29 1477.06 1508.29 1468.33 Q1508.29 1459.58 1511.35 1455 Q1514.43 1450.39 1520.24 1450.39 Z" fill="#000000" fill-rule="nonzero" fill-opacity="1" /><path clip-path="url(#clip040)" d="M1540.4 1479.7 L1545.29 1479.7 L1545.29 1485.58 L1540.4 1485.58 L1540.4 1479.7 Z" fill="#000000" fill-rule="nonzero" fill-opacity="1" /><path clip-path="url(#clip040)" d="M1566.05 1466.44 Q1562.9 1466.44 1561.05 1468.59 Q1559.22 1470.74 1559.22 1474.49 Q1559.22 1478.22 1561.05 1480.39 Q1562.9 1482.55 1566.05 1482.55 Q1569.2 1482.55 1571.03 1480.39 Q1572.88 1478.22 1572.88 1474.49 Q1572.88 1470.74 1571.03 1468.59 Q1569.2 1466.44 1566.05 1466.44 M1575.33 1451.78 L1575.33 1456.04 Q1573.57 1455.21 1571.77 1454.77 Q1569.98 1454.33 1568.22 1454.33 Q1563.6 1454.33 1561.14 1457.45 Q1558.71 1460.58 1558.36 1466.9 Q1559.73 1464.89 1561.79 1463.82 Q1563.85 1462.73 1566.33 1462.73 Q1571.54 1462.73 1574.54 1465.9 Q1577.58 1469.05 1577.58 1474.49 Q1577.58 1479.82 1574.43 1483.03 Q1571.28 1486.25 1566.05 1486.25 Q1560.05 1486.25 1556.88 1481.67 Q1553.71 1477.06 1553.71 1468.33 Q1553.71 1460.14 1557.6 1455.28 Q1561.49 1450.39 1568.04 1450.39 Q1569.8 1450.39 1571.58 1450.74 Q1573.39 1451.09 1575.33 1451.78 Z" fill="#000000" fill-rule="nonzero" fill-opacity="1" /><path clip-path="url(#clip040)" d="M1938.06 1454.1 Q1934.45 1454.1 1932.62 1457.66 Q1930.81 1461.2 1930.81 1468.33 Q1930.81 1475.44 1932.62 1479.01 Q1934.45 1482.55 1938.06 1482.55 Q1941.69 1482.55 1943.5 1479.01 Q1945.33 1475.44 1945.33 1468.33 Q1945.33 1461.2 1943.5 1457.66 Q1941.69 1454.1 1938.06 1454.1 M1938.06 1450.39 Q1943.87 1450.39 1946.92 1455 Q1950 1459.58 1950 1468.33 Q1950 1477.06 1946.92 1481.67 Q1943.87 1486.25 1938.06 1486.25 Q1932.25 1486.25 1929.17 1481.67 Q1926.11 1477.06 1926.11 1468.33 Q1926.11 1459.58 1929.17 1455 Q1932.25 1450.39 1938.06 1450.39 Z" fill="#000000" fill-rule="nonzero" fill-opacity="1" /><path clip-path="url(#clip040)" d="M1958.22 1479.7 L1963.1 1479.7 L1963.1 1485.58 L1958.22 1485.58 L1958.22 1479.7 Z" fill="#000000" fill-rule="nonzero" fill-opacity="1" /><path clip-path="url(#clip040)" d="M1983.29 1469.17 Q1979.96 1469.17 1978.03 1470.95 Q1976.14 1472.73 1976.14 1475.86 Q1976.14 1478.98 1978.03 1480.77 Q1979.96 1482.55 1983.29 1482.55 Q1986.62 1482.55 1988.54 1480.77 Q1990.46 1478.96 1990.46 1475.86 Q1990.46 1472.73 1988.54 1470.95 Q1986.65 1469.17 1983.29 1469.17 M1978.61 1467.18 Q1975.6 1466.44 1973.91 1464.38 Q1972.25 1462.32 1972.25 1459.35 Q1972.25 1455.21 1975.19 1452.8 Q1978.15 1450.39 1983.29 1450.39 Q1988.45 1450.39 1991.39 1452.8 Q1994.33 1455.21 1994.33 1459.35 Q1994.33 1462.32 1992.64 1464.38 Q1990.97 1466.44 1987.99 1467.18 Q1991.37 1467.96 1993.24 1470.26 Q1995.14 1472.55 1995.14 1475.86 Q1995.14 1480.88 1992.06 1483.57 Q1989.01 1486.25 1983.29 1486.25 Q1977.57 1486.25 1974.49 1483.57 Q1971.44 1480.88 1971.44 1475.86 Q1971.44 1472.55 1973.34 1470.26 Q1975.23 1467.96 1978.61 1467.18 M1976.9 1459.79 Q1976.9 1462.48 1978.57 1463.98 Q1980.26 1465.49 1983.29 1465.49 Q1986.3 1465.49 1987.99 1463.98 Q1989.7 1462.48 1989.7 1459.79 Q1989.7 1457.11 1987.99 1455.6 Q1986.3 1454.1 1983.29 1454.1 Q1980.26 1454.1 1978.57 1455.6 Q1976.9 1457.11 1976.9 1459.79 Z" fill="#000000" fill-rule="nonzero" fill-opacity="1" /><path clip-path="url(#clip040)" d="M1248.35 1520.52 L1278.39 1520.52 L1278.39 1525.93 L1254.77 1525.93 L1254.77 1540 L1277.4 1540 L1277.4 1545.41 L1254.77 1545.41 L1254.77 1562.63 L1278.96 1562.63 L1278.96 1568.04 L1248.35 1568.04 L1248.35 1520.52 Z" fill="#000000" fill-rule="nonzero" fill-opacity="1" /><path clip-path="url(#clip040)" d="M1303.35 1518.58 Q1299.08 1525.9 1297.01 1533.06 Q1294.94 1540.23 1294.94 1547.58 Q1294.94 1554.93 1297.01 1562.16 Q1299.11 1569.35 1303.35 1576.64 L1298.25 1576.64 Q1293.48 1569.16 1291.09 1561.93 Q1288.74 1554.71 1288.74 1547.58 Q1288.74 1540.48 1291.09 1533.29 Q1293.45 1526.09 1298.25 1518.58 L1303.35 1518.58 Z" fill="#000000" fill-rule="nonzero" fill-opacity="1" /><path clip-path="url(#clip040)" d="M1320.5 1522.27 L1320.5 1532.4 L1332.56 1532.4 L1332.56 1536.95 L1320.5 1536.95 L1320.5 1556.3 Q1320.5 1560.66 1321.68 1561.9 Q1322.89 1563.14 1326.55 1563.14 L1332.56 1563.14 L1332.56 1568.04 L1326.55 1568.04 Q1319.77 1568.04 1317.19 1565.53 Q1314.61 1562.98 1314.61 1556.3 L1314.61 1536.95 L1310.32 1536.95 L1310.32 1532.4 L1314.61 1532.4 L1314.61 1522.27 L1320.5 1522.27 Z" fill="#000000" fill-rule="nonzero" fill-opacity="1" /><path clip-path="url(#clip040)" d="M1339.34 1518.58 L1344.44 1518.58 Q1349.21 1526.09 1351.57 1533.29 Q1353.95 1540.48 1353.95 1547.58 Q1353.95 1554.71 1351.57 1561.93 Q1349.21 1569.16 1344.44 1576.64 L1339.34 1576.64 Q1343.58 1569.35 1345.65 1562.16 Q1347.75 1554.93 1347.75 1547.58 Q1347.75 1540.23 1345.65 1533.06 Q1343.58 1525.9 1339.34 1518.58 Z" fill="#000000" fill-rule="nonzero" fill-opacity="1" /><polyline clip-path="url(#clip040)" style="stroke:#000000; stroke-linecap:round; stroke-linejoin:round; stroke-width:4; stroke-opacity:1; fill:none" points="249.542,1423.18 249.542,47.2441 "/>
<polyline clip-path="url(#clip040)" style="stroke:#000000; stroke-linecap:round; stroke-linejoin:round; stroke-width:4; stroke-opacity:1; fill:none" points="249.542,1388.22 268.44,1388.22 "/>
<polyline clip-path="url(#clip040)" style="stroke:#000000; stroke-linecap:round; stroke-linejoin:round; stroke-width:4; stroke-opacity:1; fill:none" points="249.542,1062.32 268.44,1062.32 "/>
<polyline clip-path="url(#clip040)" style="stroke:#000000; stroke-linecap:round; stroke-linejoin:round; stroke-width:4; stroke-opacity:1; fill:none" points="249.542,736.424 268.44,736.424 "/>
<polyline clip-path="url(#clip040)" style="stroke:#000000; stroke-linecap:round; stroke-linejoin:round; stroke-width:4; stroke-opacity:1; fill:none" points="249.542,410.528 268.44,410.528 "/>
<polyline clip-path="url(#clip040)" style="stroke:#000000; stroke-linecap:round; stroke-linejoin:round; stroke-width:4; stroke-opacity:1; fill:none" points="249.542,84.6314 268.44,84.6314 "/>
<path clip-path="url(#clip040)" d="M126.205 1374.01 Q122.593 1374.01 120.765 1377.58 Q118.959 1381.12 118.959 1388.25 Q118.959 1395.36 120.765 1398.92 Q122.593 1402.46 126.205 1402.46 Q129.839 1402.46 131.644 1398.92 Q133.473 1395.36 133.473 1388.25 Q133.473 1381.12 131.644 1377.58 Q129.839 1374.01 126.205 1374.01 M126.205 1370.31 Q132.015 1370.31 135.07 1374.92 Q138.149 1379.5 138.149 1388.25 Q138.149 1396.98 135.07 1401.58 Q132.015 1406.17 126.205 1406.17 Q120.394 1406.17 117.316 1401.58 Q114.26 1396.98 114.26 1388.25 Q114.26 1379.5 117.316 1374.92 Q120.394 1370.31 126.205 1370.31 Z" fill="#000000" fill-rule="nonzero" fill-opacity="1" /><path clip-path="url(#clip040)" d="M146.366 1399.62 L151.251 1399.62 L151.251 1405.5 L146.366 1405.5 L146.366 1399.62 Z" fill="#000000" fill-rule="nonzero" fill-opacity="1" /><path clip-path="url(#clip040)" d="M171.436 1374.01 Q167.825 1374.01 165.996 1377.58 Q164.19 1381.12 164.19 1388.25 Q164.19 1395.36 165.996 1398.92 Q167.825 1402.46 171.436 1402.46 Q175.07 1402.46 176.876 1398.92 Q178.704 1395.36 178.704 1388.25 Q178.704 1381.12 176.876 1377.58 Q175.07 1374.01 171.436 1374.01 M171.436 1370.31 Q177.246 1370.31 180.301 1374.92 Q183.38 1379.5 183.38 1388.25 Q183.38 1396.98 180.301 1401.58 Q177.246 1406.17 171.436 1406.17 Q165.626 1406.17 162.547 1401.58 Q159.491 1396.98 159.491 1388.25 Q159.491 1379.5 162.547 1374.92 Q165.626 1370.31 171.436 1370.31 Z" fill="#000000" fill-rule="nonzero" fill-opacity="1" /><path clip-path="url(#clip040)" d="M201.598 1374.01 Q197.987 1374.01 196.158 1377.58 Q194.352 1381.12 194.352 1388.25 Q194.352 1395.36 196.158 1398.92 Q197.987 1402.46 201.598 1402.46 Q205.232 1402.46 207.037 1398.92 Q208.866 1395.36 208.866 1388.25 Q208.866 1381.12 207.037 1377.58 Q205.232 1374.01 201.598 1374.01 M201.598 1370.31 Q207.408 1370.31 210.463 1374.92 Q213.542 1379.5 213.542 1388.25 Q213.542 1396.98 210.463 1401.58 Q207.408 1406.17 201.598 1406.17 Q195.787 1406.17 192.709 1401.58 Q189.653 1396.98 189.653 1388.25 Q189.653 1379.5 192.709 1374.92 Q195.787 1370.31 201.598 1370.31 Z" fill="#000000" fill-rule="nonzero" fill-opacity="1" /><path clip-path="url(#clip040)" d="M127.2 1048.12 Q123.589 1048.12 121.76 1051.68 Q119.955 1055.23 119.955 1062.35 Q119.955 1069.46 121.76 1073.03 Q123.589 1076.57 127.2 1076.57 Q130.834 1076.57 132.64 1073.03 Q134.468 1069.46 134.468 1062.35 Q134.468 1055.23 132.64 1051.68 Q130.834 1048.12 127.2 1048.12 M127.2 1044.41 Q133.01 1044.41 136.066 1049.02 Q139.144 1053.6 139.144 1062.35 Q139.144 1071.08 136.066 1075.69 Q133.01 1080.27 127.2 1080.27 Q121.39 1080.27 118.311 1075.69 Q115.256 1071.08 115.256 1062.35 Q115.256 1053.6 118.311 1049.02 Q121.39 1044.41 127.2 1044.41 Z" fill="#000000" fill-rule="nonzero" fill-opacity="1" /><path clip-path="url(#clip040)" d="M147.362 1073.72 L152.246 1073.72 L152.246 1079.6 L147.362 1079.6 L147.362 1073.72 Z" fill="#000000" fill-rule="nonzero" fill-opacity="1" /><path clip-path="url(#clip040)" d="M166.459 1075.66 L182.778 1075.66 L182.778 1079.6 L160.834 1079.6 L160.834 1075.66 Q163.496 1072.91 168.079 1068.28 Q172.686 1063.63 173.866 1062.29 Q176.112 1059.76 176.991 1058.03 Q177.894 1056.27 177.894 1054.58 Q177.894 1051.82 175.95 1050.09 Q174.028 1048.35 170.927 1048.35 Q168.727 1048.35 166.274 1049.11 Q163.843 1049.88 161.065 1051.43 L161.065 1046.71 Q163.89 1045.57 166.343 1044.99 Q168.797 1044.41 170.834 1044.41 Q176.204 1044.41 179.399 1047.1 Q182.593 1049.79 182.593 1054.28 Q182.593 1056.41 181.783 1058.33 Q180.996 1060.23 178.889 1062.82 Q178.311 1063.49 175.209 1066.71 Q172.107 1069.9 166.459 1075.66 Z" fill="#000000" fill-rule="nonzero" fill-opacity="1" /><path clip-path="url(#clip040)" d="M192.639 1045.04 L210.996 1045.04 L210.996 1048.98 L196.922 1048.98 L196.922 1057.45 Q197.94 1057.1 198.959 1056.94 Q199.977 1056.75 200.996 1056.75 Q206.783 1056.75 210.162 1059.92 Q213.542 1063.1 213.542 1068.51 Q213.542 1074.09 210.07 1077.19 Q206.598 1080.27 200.278 1080.27 Q198.102 1080.27 195.834 1079.9 Q193.588 1079.53 191.181 1078.79 L191.181 1074.09 Q193.264 1075.22 195.487 1075.78 Q197.709 1076.34 200.186 1076.34 Q204.19 1076.34 206.528 1074.23 Q208.866 1072.12 208.866 1068.51 Q208.866 1064.9 206.528 1062.79 Q204.19 1060.69 200.186 1060.69 Q198.311 1060.69 196.436 1061.1 Q194.584 1061.52 192.639 1062.4 L192.639 1045.04 Z" fill="#000000" fill-rule="nonzero" fill-opacity="1" /><path clip-path="url(#clip040)" d="M126.205 722.222 Q122.593 722.222 120.765 725.787 Q118.959 729.329 118.959 736.458 Q118.959 743.565 120.765 747.13 Q122.593 750.671 126.205 750.671 Q129.839 750.671 131.644 747.13 Q133.473 743.565 133.473 736.458 Q133.473 729.329 131.644 725.787 Q129.839 722.222 126.205 722.222 M126.205 718.519 Q132.015 718.519 135.07 723.125 Q138.149 727.708 138.149 736.458 Q138.149 745.185 135.07 749.792 Q132.015 754.375 126.205 754.375 Q120.394 754.375 117.316 749.792 Q114.26 745.185 114.26 736.458 Q114.26 727.708 117.316 723.125 Q120.394 718.519 126.205 718.519 Z" fill="#000000" fill-rule="nonzero" fill-opacity="1" /><path clip-path="url(#clip040)" d="M146.366 747.824 L151.251 747.824 L151.251 753.704 L146.366 753.704 L146.366 747.824 Z" fill="#000000" fill-rule="nonzero" fill-opacity="1" /><path clip-path="url(#clip040)" d="M161.482 719.144 L179.839 719.144 L179.839 723.079 L165.765 723.079 L165.765 731.551 Q166.783 731.204 167.802 731.042 Q168.82 730.857 169.839 730.857 Q175.626 730.857 179.005 734.028 Q182.385 737.199 182.385 742.616 Q182.385 748.194 178.913 751.296 Q175.44 754.375 169.121 754.375 Q166.945 754.375 164.677 754.005 Q162.431 753.634 160.024 752.894 L160.024 748.194 Q162.107 749.329 164.329 749.884 Q166.552 750.44 169.028 750.44 Q173.033 750.44 175.371 748.333 Q177.709 746.227 177.709 742.616 Q177.709 739.005 175.371 736.898 Q173.033 734.792 169.028 734.792 Q167.153 734.792 165.278 735.208 Q163.427 735.625 161.482 736.505 L161.482 719.144 Z" fill="#000000" fill-rule="nonzero" fill-opacity="1" /><path clip-path="url(#clip040)" d="M201.598 722.222 Q197.987 722.222 196.158 725.787 Q194.352 729.329 194.352 736.458 Q194.352 743.565 196.158 747.13 Q197.987 750.671 201.598 750.671 Q205.232 750.671 207.037 747.13 Q208.866 743.565 208.866 736.458 Q208.866 729.329 207.037 725.787 Q205.232 722.222 201.598 722.222 M201.598 718.519 Q207.408 718.519 210.463 723.125 Q213.542 727.708 213.542 736.458 Q213.542 745.185 210.463 749.792 Q207.408 754.375 201.598 754.375 Q195.787 754.375 192.709 749.792 Q189.653 745.185 189.653 736.458 Q189.653 727.708 192.709 723.125 Q195.787 718.519 201.598 718.519 Z" fill="#000000" fill-rule="nonzero" fill-opacity="1" /><path clip-path="url(#clip040)" d="M127.2 396.326 Q123.589 396.326 121.76 399.891 Q119.955 403.433 119.955 410.562 Q119.955 417.669 121.76 421.234 Q123.589 424.775 127.2 424.775 Q130.834 424.775 132.64 421.234 Q134.468 417.669 134.468 410.562 Q134.468 403.433 132.64 399.891 Q130.834 396.326 127.2 396.326 M127.2 392.623 Q133.01 392.623 136.066 397.229 Q139.144 401.812 139.144 410.562 Q139.144 419.289 136.066 423.896 Q133.01 428.479 127.2 428.479 Q121.39 428.479 118.311 423.896 Q115.256 419.289 115.256 410.562 Q115.256 401.812 118.311 397.229 Q121.39 392.623 127.2 392.623 Z" fill="#000000" fill-rule="nonzero" fill-opacity="1" /><path clip-path="url(#clip040)" d="M147.362 421.928 L152.246 421.928 L152.246 427.808 L147.362 427.808 L147.362 421.928 Z" fill="#000000" fill-rule="nonzero" fill-opacity="1" /><path clip-path="url(#clip040)" d="M161.251 393.248 L183.473 393.248 L183.473 395.238 L170.927 427.808 L166.042 427.808 L177.848 397.183 L161.251 397.183 L161.251 393.248 Z" fill="#000000" fill-rule="nonzero" fill-opacity="1" /><path clip-path="url(#clip040)" d="M192.639 393.248 L210.996 393.248 L210.996 397.183 L196.922 397.183 L196.922 405.655 Q197.94 405.308 198.959 405.146 Q199.977 404.96 200.996 404.96 Q206.783 404.96 210.162 408.132 Q213.542 411.303 213.542 416.72 Q213.542 422.298 210.07 425.4 Q206.598 428.479 200.278 428.479 Q198.102 428.479 195.834 428.108 Q193.588 427.738 191.181 426.997 L191.181 422.298 Q193.264 423.433 195.487 423.988 Q197.709 424.544 200.186 424.544 Q204.19 424.544 206.528 422.437 Q208.866 420.331 208.866 416.72 Q208.866 413.109 206.528 411.002 Q204.19 408.896 200.186 408.896 Q198.311 408.896 196.436 409.312 Q194.584 409.729 192.639 410.609 L192.639 393.248 Z" fill="#000000" fill-rule="nonzero" fill-opacity="1" /><path clip-path="url(#clip040)" d="M117.015 97.9762 L124.654 97.9762 L124.654 71.6106 L116.343 73.2773 L116.343 69.018 L124.607 67.3514 L129.283 67.3514 L129.283 97.9762 L136.922 97.9762 L136.922 101.911 L117.015 101.911 L117.015 97.9762 Z" fill="#000000" fill-rule="nonzero" fill-opacity="1" /><path clip-path="url(#clip040)" d="M146.366 96.0318 L151.251 96.0318 L151.251 101.911 L146.366 101.911 L146.366 96.0318 Z" fill="#000000" fill-rule="nonzero" fill-opacity="1" /><path clip-path="url(#clip040)" d="M171.436 70.43 Q167.825 70.43 165.996 73.9948 Q164.19 77.5365 164.19 84.6661 Q164.19 91.7725 165.996 95.3373 Q167.825 98.879 171.436 98.879 Q175.07 98.879 176.876 95.3373 Q178.704 91.7725 178.704 84.6661 Q178.704 77.5365 176.876 73.9948 Q175.07 70.43 171.436 70.43 M171.436 66.7264 Q177.246 66.7264 180.301 71.3328 Q183.38 75.9161 183.38 84.6661 Q183.38 93.3929 180.301 97.9993 Q177.246 102.583 171.436 102.583 Q165.626 102.583 162.547 97.9993 Q159.491 93.3929 159.491 84.6661 Q159.491 75.9161 162.547 71.3328 Q165.626 66.7264 171.436 66.7264 Z" fill="#000000" fill-rule="nonzero" fill-opacity="1" /><path clip-path="url(#clip040)" d="M201.598 70.43 Q197.987 70.43 196.158 73.9948 Q194.352 77.5365 194.352 84.6661 Q194.352 91.7725 196.158 95.3373 Q197.987 98.879 201.598 98.879 Q205.232 98.879 207.037 95.3373 Q208.866 91.7725 208.866 84.6661 Q208.866 77.5365 207.037 73.9948 Q205.232 70.43 201.598 70.43 M201.598 66.7264 Q207.408 66.7264 210.463 71.3328 Q213.542 75.9161 213.542 84.6661 Q213.542 93.3929 210.463 97.9993 Q207.408 102.583 201.598 102.583 Q195.787 102.583 192.709 97.9993 Q189.653 93.3929 189.653 84.6661 Q189.653 75.9161 192.709 71.3328 Q195.787 66.7264 201.598 66.7264 Z" fill="#000000" fill-rule="nonzero" fill-opacity="1" /><path clip-path="url(#clip040)" d="M16.4842 777.035 L16.4842 770.605 L64.0042 770.605 L64.0042 777.035 L16.4842 777.035 Z" fill="#000000" fill-rule="nonzero" fill-opacity="1" /><path clip-path="url(#clip040)" d="M14.5426 743.997 Q21.8632 748.262 29.0246 750.331 Q36.186 752.399 43.5384 752.399 Q50.8908 752.399 58.1159 750.331 Q65.3091 748.23 72.5979 743.997 L72.5979 749.089 Q65.1182 753.863 57.8931 756.251 Q50.668 758.606 43.5384 758.606 Q36.4406 758.606 29.2474 756.251 Q22.0542 753.895 14.5426 749.089 L14.5426 743.997 Z" fill="#000000" fill-rule="nonzero" fill-opacity="1" /><path clip-path="url(#clip040)" d="M18.2347 726.841 L28.3562 726.841 L28.3562 714.778 L32.9077 714.778 L32.9077 726.841 L52.2594 726.841 Q56.6199 726.841 57.8613 725.663 Q59.1026 724.454 59.1026 720.794 L59.1026 714.778 L64.0042 714.778 L64.0042 720.794 Q64.0042 727.573 61.4897 730.151 Q58.9434 732.729 52.2594 732.729 L32.9077 732.729 L32.9077 737.026 L28.3562 737.026 L28.3562 732.729 L18.2347 732.729 L18.2347 726.841 Z" fill="#000000" fill-rule="nonzero" fill-opacity="1" /><path clip-path="url(#clip040)" d="M14.5426 707.999 L14.5426 702.906 Q22.0542 698.132 29.2474 695.776 Q36.4406 693.389 43.5384 693.389 Q50.668 693.389 57.8931 695.776 Q65.1182 698.132 72.5979 702.906 L72.5979 707.999 Q65.3091 703.765 58.1159 701.697 Q50.8908 699.596 43.5384 699.596 Q36.186 699.596 29.0246 701.697 Q21.8632 703.765 14.5426 707.999 Z" fill="#000000" fill-rule="nonzero" fill-opacity="1" /><polyline clip-path="url(#clip042)" style="stroke:#009af9; stroke-linecap:round; stroke-linejoin:round; stroke-width:4; stroke-opacity:1; fill:none" points="2254.71,189.206 2262.65,159.383 2293.23,137.4 2134.37,122.602 1828.67,111.258 1598.27,104.117 1384.47,98.0876 1218.47,94.8551 1067.48,91.4013 949.356,90.232 842.05,87.9223 758.383,87.9954 681.865,86.1857 622.796,92.4294 568.074,135.615 526.513,306.624 487.254,561.203 458.133,782.94 429.855,954.867 409.566,1077.78 389.093,1167.84 375.069,1230.71 360.146,1276.75 350.566,1308.43 339.591,1331.86 333.162,1347.57 324.993,1359.3 320.801,1366.72 314.645,1372.42 312.281,1375.7 309.067,1378.47 313.259,1379.85 323.216,1381.3 346.89,1381.85 378.476,1382.71 420.308,1382.91 463.211,1383.49 509.04,1383.54 550.034,1383.98 590.728,1383.94 626.835,1384.24 668.028,1384.01 714.982,1383.9 780.901,1383.02 864.741,1381.77 972.974,1379.14 1093.33,1375.22 1224.45,1368.91 1351.09,1360.15 1475.83,1347.8 1588.06,1330.61 1695.88,1304.07 1789.94,1257.77 1879.45,1170.67 1953,1022.17 2021.96,828.525 2074.5,641.431 2125.8,488.549 2161.27,374.746 2200.36,291.289 2222.2,232.161 "/>
<path clip-path="url(#clip040)" d="M2019.9 1377.32 L2282.65 1377.32 L2282.65 1273.64 L2019.9 1273.64  Z" fill="#ffffff" fill-rule="evenodd" fill-opacity="1"/>
<polyline clip-path="url(#clip040)" style="stroke:#000000; stroke-linecap:round; stroke-linejoin:round; stroke-width:4; stroke-opacity:1; fill:none" points="2019.9,1377.32 2282.65,1377.32 2282.65,1273.64 2019.9,1273.64 2019.9,1377.32 "/>
<polyline clip-path="url(#clip040)" style="stroke:#009af9; stroke-linecap:round; stroke-linejoin:round; stroke-width:4; stroke-opacity:1; fill:none" points="2043.27,1325.48 2183.48,1325.48 "/>
<path clip-path="url(#clip040)" d="M2220.69 1345.16 Q2218.89 1349.79 2217.17 1351.2 Q2215.46 1352.62 2212.59 1352.62 L2209.19 1352.62 L2209.19 1349.05 L2211.69 1349.05 Q2213.45 1349.05 2214.42 1348.22 Q2215.39 1347.38 2216.57 1344.28 L2217.34 1342.34 L2206.85 1316.83 L2211.36 1316.83 L2219.47 1337.11 L2227.57 1316.83 L2232.08 1316.83 L2220.69 1345.16 Z" fill="#000000" fill-rule="nonzero" fill-opacity="1" /><path clip-path="url(#clip040)" d="M2239.37 1338.82 L2247.01 1338.82 L2247.01 1312.45 L2238.7 1314.12 L2238.7 1309.86 L2246.96 1308.2 L2251.64 1308.2 L2251.64 1338.82 L2259.28 1338.82 L2259.28 1342.76 L2239.37 1342.76 L2239.37 1338.82 Z" fill="#000000" fill-rule="nonzero" fill-opacity="1" /></svg>
